<?xml version="1.0" standalone="no"?>
<!DOCTYPE svg PUBLIC "-//W3C//DTD SVG 1.1//EN" "http://www.w3.org/Graphics/SVG/1.1/DTD/svg11.dtd" >
<svg xmlns="http://www.w3.org/2000/svg" xmlns:xlink="http://www.w3.org/1999/xlink" version="1.1">
<metadata>
Created by FontForge 20170731 at Tue Jul  4 11:55:40 2017
 By Aleksey,,,
Copyright 2017, The Mozilla Foundation
</metadata>
<defs>
<font id="ZillaSlab-Bold" horiz-adv-x="618" >
  <font-face 
    font-family="Zilla Slab Bold"
    font-weight="700"
    font-stretch="normal"
    units-per-em="1000"
    panose-1="0 0 0 0 0 0 0 0 0 0"
    ascent="787"
    descent="-213"
    x-height="451"
    cap-height="650"
    bbox="-300 -248 3290 906"
    underline-thickness="50"
    underline-position="-175"
    unicode-range="U+0020-FB04"
  />
<missing-glyph horiz-adv-x="712" 
d="M460 675v27h27v-27h-27zM685 675v27h27v-27h-27zM610 675v27h27v-27h-27zM535 675v27h27v-27h-27zM385 675v27h27v-27h-27zM310 675v27h27v-27h-27zM235 675v27h27v-27h-27zM160 675v27h27v-27h-27zM685 600v27h27v-27h-27zM160 600v27h27v-27h-27zM460 525v27h27v-27
h-27zM385 525v27h27v-27h-27zM310 525v27h27v-27h-27zM685 525v27h27v-27h-27zM535 525v27h27v-27h-27zM160 525v27h27v-27h-27zM160 450v27h27v-27h-27zM685 450v27h27v-27h-27zM535 450v27h27v-27h-27zM160 375v27h27v-27h-27zM460 375v27h27v-27h-27zM535 375v27h27v-27
h-27zM685 375v27h27v-27h-27zM385 375v27h27v-27h-27zM160 300v27h27v-27h-27zM385 300v27h27v-27h-27zM685 300v27h27v-27h-27zM160 225v27h27v-27h-27zM685 225v27h27v-27h-27zM160 150v27h27v-27h-27zM385 150v27h27v-27h-27zM685 150v27h27v-27h-27zM160 75v27h27v-27
h-27zM685 75v27h27v-27h-27zM460 0v27h27v-27h-27zM610 0v27h27v-27h-27zM535 0v27h27v-27h-27zM685 0v27h27v-27h-27zM385 0v27h27v-27h-27zM310 0v27h27v-27h-27zM235 0v27h27v-27h-27zM160 0v27h27v-27h-27z" />
    <glyph glyph-name="uniFB00" unicode="ff" horiz-adv-x="645" 
d="M418 98v255h-173v-255h75v-98h-264v98h60v255h-55v98h55v52q0 81 54.5 133t145.5 52q87 0 148 -44q49 54 135 54q80 0 136 -41l20 -122l-100 -11l-22 71q-21 6 -36 6q-50 0 -50 -60v-90h111v-98h-111v-255h75v-98h-264v98h60zM245 509v-58h173v69q0 20 5 45
q-41 27 -86 27q-43 0 -67.5 -21t-24.5 -62z" />
    <glyph glyph-name="uniFB01" unicode="fi" horiz-adv-x="597" 
d="M418 98v255h-173v-255h75v-98h-264v98h60v255h-55v98h55v69q0 75 58 126.5t163 51.5q98 0 176 -41l20 -122l-100 -11l-19 64q-39 13 -77 13q-92 0 -92 -79v-71h302v-353h60v-98h-249v98h60z" />
    <glyph glyph-name="uniFB02" unicode="fl" horiz-adv-x="598" 
d="M608 0h-249v98h60v472q-35 32 -83 32q-44 0 -67.5 -23.5t-23.5 -59.5v-68h91v-98h-91v-255h75v-98h-264v98h60v255h-55v98h55v62q0 81 51 133t137 52q68 0 115 -36v26h129v-590h60v-98z" />
    <glyph glyph-name="uniFB03" unicode="ffi" horiz-adv-x="899" 
d="M418 98v255h-173v-255h75v-98h-264v98h60v255h-55v98h55v52q0 81 54.5 133t145.5 52q89 0 153 -48q61 58 170 58q98 0 176 -41l20 -122l-100 -11l-19 64q-39 13 -77 13q-92 0 -92 -79v-71h302v-353h60v-98h-249v98h60v255h-173v-255h75v-98h-264v98h60zM245 509v-58h173
v69q0 23 6 44q-42 28 -87 28q-43 0 -67.5 -21t-24.5 -62z" />
    <glyph glyph-name="uniFB04" unicode="ffl" horiz-adv-x="900" 
d="M418 98v255h-173v-255h75v-98h-264v98h60v255h-55v98h55v52q0 81 54.5 133t145.5 52q87 0 149 -46q53 56 138 56q71 0 118 -38v28h129v-590h60v-98h-249v98h60v470q-37 34 -86 34q-37 0 -62.5 -21.5t-25.5 -61.5v-68h91v-98h-91v-255h75v-98h-264v98h60zM245 509v-58h173
v62q0 27 6 51q-42 28 -87 28q-43 0 -67.5 -21t-24.5 -62z" />
    <glyph glyph-name="uni00660068" unicode="fh" horiz-adv-x="896" 
d="M547 255v-157h60v-98h-249v98h60v473q-36 31 -82 31q-38 0 -64.5 -21.5t-26.5 -61.5v-68h91v-98h-91v-255h75v-98h-264v98h60v255h-55v98h55v62q0 81 52 133t137 52q67 0 113 -35v25h129v-306q46 78 145 78q68 0 113 -40t45 -116v-206h60v-98h-249v98h60v156
q0 108 -79 108q-45 0 -70 -29t-25 -78z" />
    <glyph glyph-name="uni00660062" unicode="fb" horiz-adv-x="885" 
d="M418 688h129v-322q46 94 152 94q87 0 140 -60t53 -164q0 -105 -54.5 -175.5t-152.5 -70.5q-102 0 -145 78q-2 -22 -10 -68h-129q17 80 17 139v432q-37 31 -84 31q-37 0 -63 -21.5t-26 -61.5v-68h91v-98h-91v-255h75v-98h-264v98h60v255h-55v98h55v62q0 80 52.5 132.5
t136.5 52.5q67 0 113 -35v25zM753 225q0 62 -27.5 95t-72.5 33q-48 0 -77 -34.5t-29 -86.5v-11q0 -56 28 -90t73 -34q46 0 75.5 31.5t29.5 96.5z" />
    <glyph glyph-name="uni0066006A" unicode="fj" horiz-adv-x="573" 
d="M245 522v-71h302v-435q0 -134 -49.5 -192t-175.5 -46l-4 85q25 0 39.5 4t30.5 18t23 46.5t7 84.5v337h-173v-255h75v-98h-264v98h60v255h-55v98h55v69q0 75 58 126.5t163 51.5q98 0 176 -41l20 -122l-100 -11l-19 64q-39 13 -77 13q-92 0 -92 -79z" />
    <glyph glyph-name="uni0066006B" unicode="fk" horiz-adv-x="867" 
d="M358 98h60v473q-36 31 -82 31q-38 0 -64.5 -21.5t-26.5 -61.5v-68h91v-98h-91v-255h75v-98h-264v98h60v255h-55v98h55v62q0 80 52.5 132.5t136.5 52.5q67 0 113 -35v25h129v-411h75l61 76h-49v98h226v-98h-54l-92 -110l128 -145h39v-98h-231v98h42l-78 88h-67v-88h41v-98
h-230v98z" />
    <glyph glyph-name="uni00660066006A" unicode="ffj" horiz-adv-x="875" 
d="M547 522v-71h302v-435q0 -134 -49.5 -192t-175.5 -46l-4 85q25 0 39.5 4t30.5 18t23 46.5t7 84.5v337h-173v-255h75v-98h-264v98h60v255h-173v-255h75v-98h-264v98h60v255h-55v98h55v52q0 81 54.5 133t145.5 52q89 0 153 -48q61 58 170 58q98 0 176 -41l20 -122l-100 -11
l-19 64q-39 13 -77 13q-92 0 -92 -79zM245 509v-58h173v69q0 23 6 44q-42 28 -87 28q-43 0 -67.5 -21t-24.5 -62z" />
    <glyph glyph-name="uni006600EC" unicode="f&#xec;" horiz-adv-x="597" 
d="M591 548l-45 -39l-152 149l72 67zM607 0h-249v98h60v255h-173v-255h75v-98h-264v98h60v255h-55v98h55v69q0 82 43.5 130t122.5 48q48 0 76 -13v-95q-28 9 -59 9q-25 0 -39.5 -16t-14.5 -42v-90h302v-353h60v-98z" />
    <glyph glyph-name="uni006600EF" unicode="f&#xef;" horiz-adv-x="597" 
d="M329 531v48q0 20 -40 20q-44 0 -44 -58v-90h302v-353h60v-98h-249v98h60v255h-173v-255h75v-98h-264v98h60v255h-55v98h55v69q0 75 48 126.5t137 51.5q64 0 110.5 -26t46.5 -66v-75h-129zM494 531v114h129v-114h-129z" />
    <glyph glyph-name=".notdef" horiz-adv-x="712" 
d="M460 675v27h27v-27h-27zM685 675v27h27v-27h-27zM610 675v27h27v-27h-27zM535 675v27h27v-27h-27zM385 675v27h27v-27h-27zM310 675v27h27v-27h-27zM235 675v27h27v-27h-27zM160 675v27h27v-27h-27zM685 600v27h27v-27h-27zM160 600v27h27v-27h-27zM460 525v27h27v-27
h-27zM385 525v27h27v-27h-27zM310 525v27h27v-27h-27zM685 525v27h27v-27h-27zM535 525v27h27v-27h-27zM160 525v27h27v-27h-27zM160 450v27h27v-27h-27zM685 450v27h27v-27h-27zM535 450v27h27v-27h-27zM160 375v27h27v-27h-27zM460 375v27h27v-27h-27zM535 375v27h27v-27
h-27zM685 375v27h27v-27h-27zM385 375v27h27v-27h-27zM160 300v27h27v-27h-27zM385 300v27h27v-27h-27zM685 300v27h27v-27h-27zM160 225v27h27v-27h-27zM685 225v27h27v-27h-27zM160 150v27h27v-27h-27zM385 150v27h27v-27h-27zM685 150v27h27v-27h-27zM160 75v27h27v-27
h-27zM685 75v27h27v-27h-27zM460 0v27h27v-27h-27zM610 0v27h27v-27h-27zM535 0v27h27v-27h-27zM685 0v27h27v-27h-27zM385 0v27h27v-27h-27zM310 0v27h27v-27h-27zM235 0v27h27v-27h-27zM160 0v27h27v-27h-27z" />
    <glyph glyph-name=".null" horiz-adv-x="0" 
 />
    <glyph glyph-name="nonmarkingreturn" horiz-adv-x="333" 
 />
    <glyph glyph-name="uni0020" unicode=" " horiz-adv-x="187" 
 />
    <glyph glyph-name="uni0021" unicode="!" horiz-adv-x="261" 
d="M260 650l-30 -418h-94l-30 418h154zM109 0v145h151v-145h-151z" />
    <glyph glyph-name="uni0022" unicode="&#x22;" horiz-adv-x="387" 
d="M197 377h-109l-10 273h129zM377 377h-109l-10 273h129z" />
    <glyph glyph-name="uni0023" unicode="#" horiz-adv-x="574" 
d="M541 521l-20 -101h53v-98h-71l-24 -123h65v-98h-84l-19 -101h-110l19 101h-129l-19 -101h-110l19 101h-49v98h68l24 123h-62v98h80l20 101h110l-20 -101h129l20 101h110zM240 199h129l24 123h-129z" />
    <glyph glyph-name="uni0024" unicode="$" horiz-adv-x="491" 
d="M499 162q0 -71 -48.5 -114.5t-130.5 -52.5v-60h-64v58q-112 4 -182 54l19 131l108 -8l-4 -59q22 -12 59 -16v129h-1q-33 6 -51 10t-45.5 15t-42 25t-26 38.5t-11.5 56.5q0 77 51 114t126 44v66h64v-65q91 -7 151 -49l13 -128l-108 -8l-12 69q-21 10 -44 13v-102
q24 -5 42 -9.5t46 -16.5t46 -28t31.5 -44t13.5 -63zM218 384q0 -31 38 -46v86q-38 -9 -38 -40zM360 147q0 39 -40 58v-107q40 11 40 49z" />
    <glyph glyph-name="uni0025" unicode="%" horiz-adv-x="738" 
d="M211 240q-74 0 -115.5 40.5t-41.5 103.5q0 64 43 105.5t118 41.5q73 0 113.5 -41t40.5 -103q0 -64 -42 -105.5t-116 -41.5zM662 521l-209 -262l-195 -259h-134l235 285l169 236h134zM211 322q54 0 54 64q0 63 -52 63q-55 0 -55 -64q0 -63 53 -63zM580 -10
q-74 0 -115.5 40.5t-41.5 103.5q0 64 43 105.5t118 41.5q73 0 113.5 -41t40.5 -103q0 -64 -42 -105.5t-116 -41.5zM580 72q54 0 54 64q0 63 -52 63q-55 0 -55 -64q0 -63 53 -63z" />
    <glyph glyph-name="uni0026" unicode="&#x26;" horiz-adv-x="702" 
d="M459 385h251v-114h-64q-34 -77 -103 -144q37 -14 71 -14t64 13l27 -110q-49 -26 -112 -26q-82 0 -167 49q-88 -49 -174 -49q-81 0 -143.5 41t-62.5 121q0 60 34 96t95 67q-40 86 -40 158q0 78 48 132.5t148 54.5q83 0 132.5 -39.5t49.5 -109.5q0 -63 -43.5 -104
t-146.5 -92q56 -87 139 -145q32 40 46 101h-49v114zM381 505q0 57 -53 57q-63 0 -63 -78q0 -51 25 -107q91 59 91 128zM209 253q-35 -31 -35 -75q0 -79 115 -79q23 0 49 3q-78 69 -129 151z" />
    <glyph glyph-name="uni0027" unicode="'" horiz-adv-x="208" 
d="M197 377h-109l-10 273h129z" />
    <glyph glyph-name="uni0028" unicode="(" horiz-adv-x="289" 
d="M207 718h114q-166 -211 -166 -448q0 -247 166 -453h-116q-159 211 -159 453q0 240 161 448z" />
    <glyph glyph-name="uni0029" unicode=")" horiz-adv-x="289" 
d="M96 -183h-114q166 211 166 448q0 247 -166 453h116q159 -211 159 -453q0 -240 -161 -448z" />
    <glyph glyph-name="uni002A" unicode="*" horiz-adv-x="416" 
d="M416 532l-106 -53l106 -53l-48 -75l-93 63l7 -105h-89l7 104l-92 -62l-48 75l105 53l-105 53l47 75l94 -64l-8 107h89l-8 -108l95 65z" />
    <glyph glyph-name="uni002B" unicode="+" horiz-adv-x="401" 
d="M54 237v88h132v130h88v-130h127v-88h-127v-129h-88v129h-132z" />
    <glyph glyph-name="uni002C" unicode="," horiz-adv-x="222" 
d="M6 -85l60 234h126l-60 -234h-126z" />
    <glyph glyph-name="uni002D" unicode="-" horiz-adv-x="321" 
d="M82 288h239v-108h-239v108z" />
    <glyph glyph-name="uni002E" unicode="." horiz-adv-x="228" 
d="M74 0v163h153v-163h-153z" />
    <glyph glyph-name="uni002F" unicode="/" horiz-adv-x="376" 
d="M400 688l-195 -688h-127l195 688h127z" />
    <glyph glyph-name="uni0030" unicode="0" horiz-adv-x="576" 
d="M576 254q0 -133 -69 -198.5t-192 -65.5q-122 0 -187.5 64.5t-65.5 197.5q0 127 67 203t190 76q128 0 192.5 -75.5t64.5 -201.5zM432 261q0 86 -29 119t-85 33q-57 0 -84 -33.5t-27 -118.5q0 -86 27 -119.5t84 -33.5q55 0 84.5 32.5t29.5 120.5z" />
    <glyph glyph-name="uni0031" unicode="1" horiz-adv-x="404" 
d="M430 0h-344v114h110v293h-110v114h244v-407h100v-114z" />
    <glyph glyph-name="uni0032" unicode="2" horiz-adv-x="537" 
d="M106 492q94 39 197 39q110 0 161.5 -43.5t51.5 -108.5q0 -24 -8 -46.5t-17.5 -40t-31.5 -37t-37 -31.5t-46 -30t-47 -26.5t-53 -27.5t-51 -26h212l7 59l107 -10l-15 -163h-454l-12 106q26 17 65.5 41t64 39t55 35t49 35.5t35.5 33t25 34.5t8 34q0 59 -87 59
q-53 0 -82 -15l-15 -74l-103 11z" />
    <glyph glyph-name="uni0033" unicode="3" horiz-adv-x="533" 
d="M108 492q94 39 201 39q94 0 151.5 -41t57.5 -120q0 -104 -112 -151v-4q68 -14 101.5 -56t33.5 -104q0 -96 -70.5 -146t-179.5 -50q-106 0 -160.5 47.5t-56.5 131.5l109 33q0 -40 26 -69t81 -29q53 0 79.5 28.5t26.5 69.5q0 48 -38 70t-114 24v88q41 0 69.5 10t40.5 26.5
t16 29.5t4 27q0 71 -84 71q-56 0 -85 -15l-15 -74l-103 11z" />
    <glyph glyph-name="uni0034" unicode="4" horiz-adv-x="570" 
d="M466 -130h-134v159h-288l-14 111l198 381h238v-381h98l-10 -111h-88v-159zM332 140v267h-38l-136 -267h174z" />
    <glyph glyph-name="uni0035" unicode="5" horiz-adv-x="522" 
d="M529 71q0 -75 -35 -124t-89 -68.5t-126 -19.5q-106 0 -160.5 47.5t-56.5 131.5l109 33q0 -40 26 -69t81 -29q53 0 79.5 28.5t26.5 69.5q0 58 -41.5 79.5t-111.5 21.5q-19 0 -94 -5l-43 41v313h400l19 -183l-114 -10l-18 79h-163v-127q12 1 37 1q274 0 274 -210z" />
    <glyph glyph-name="uni0036" unicode="6" horiz-adv-x="536" 
d="M535 216q0 -101 -63 -163.5t-169 -62.5q-123 0 -182 86t-59 235q0 57 8.5 107t28 95t49.5 77t75.5 51t102.5 19q132 0 194 -90l-77 -77q-18 24 -50.5 38.5t-71.5 14.5q-59 0 -84 -40.5t-30 -140.5q-1 -7 -1 -23q43 78 146 78q64 0 107 -31.5t59.5 -75.5t16.5 -97z
M397 211q0 100 -89 100q-47 0 -72 -24.5t-27 -65.5q5 -59 26.5 -86t69.5 -27q92 0 92 103z" />
    <glyph glyph-name="uni0037" unicode="7" horiz-adv-x="495" 
d="M514 458l-230 -588h-132l217 538h-204v-109h-117v222h450z" />
    <glyph glyph-name="uni0038" unicode="8" horiz-adv-x="539" 
d="M541 170q0 -82 -68.5 -131t-173.5 -49q-110 0 -174.5 43.5t-64.5 125.5q0 62 34.5 97.5t96.5 62.5q-55 31 -86 69.5t-31 95.5q0 79 62 127.5t164 48.5q98 0 158 -44t60 -118q0 -51 -29.5 -83t-83.5 -57q63 -34 99.5 -77.5t36.5 -110.5zM384 475q0 77 -84 77
q-39 0 -60.5 -16t-21.5 -43q0 -17 8.5 -31t29 -27.5t36 -22t48.5 -23.5q44 34 44 86zM397 168q0 25 -21 47t-43.5 34t-67.5 33q-9 4 -13 6q-57 -39 -57 -97q0 -43 27 -68t79 -25q46 0 71 19.5t25 50.5z" />
    <glyph glyph-name="uni0039" unicode="9" horiz-adv-x="535" 
d="M62 305q0 101 63 163.5t169 62.5q123 0 182 -86t59 -235q0 -57 -8.5 -107t-28 -95t-49.5 -77t-75.5 -51t-102.5 -19q-132 0 -194 90l77 77q18 -24 50.5 -38.5t71.5 -14.5q59 0 84 40.5t30 140.5q1 7 1 23q-43 -78 -146 -78q-64 0 -107 31.5t-59.5 75.5t-16.5 97zM200 310
q0 -100 89 -100q47 0 72 24.5t27 65.5q-5 59 -26.5 86t-69.5 27q-92 0 -92 -103z" />
    <glyph glyph-name="uni003A" unicode=":" horiz-adv-x="248" 
d="M118 289v162h134v-162h-134zM118 0v162h134v-162h-134z" />
    <glyph glyph-name="uni003B" unicode=";" horiz-adv-x="249" 
d="M67 289v162h134v-162h-134zM198 149l-60 -234h-126l60 234h126z" />
    <glyph glyph-name="uni003C" unicode="&#x3c;" horiz-adv-x="397" 
d="M369 14l-319 243v44l318 248v-122l-187 -145l188 -146v-122z" />
    <glyph glyph-name="uni003D" unicode="=" horiz-adv-x="545" 
d="M88 347v88h457v-88h-457zM88 125v88h457v-88h-457z" />
    <glyph glyph-name="uni003E" unicode="&#x3e;" horiz-adv-x="395" 
d="M423 257l-319 -243v122l188 146l-187 145v122l318 -248v-44z" />
    <glyph glyph-name="uni003F" unicode="?" horiz-adv-x="481" 
d="M169 456l-103 11l21 153q94 39 197 39q91 0 148 -39.5t57 -106.5q0 -38 -20 -67t-48.5 -45.5t-56.5 -30t-48 -27.5t-20 -31q0 -28 41 -28v-79q-181 -23 -181 91q0 36 19 61t46.5 38t55 25t46.5 29t19 42q0 51 -76 51q-53 0 -82 -15zM184 0v145h151v-145h-151z" />
    <glyph glyph-name="uni0040" unicode="@" horiz-adv-x="894" 
d="M321 419q72 41 159 41q95 0 146.5 -41.5t51.5 -111.5v-196q0 -35 40 -35q66 0 66 152q0 330 -294 330q-151 0 -238 -86t-87 -244q0 -88 28 -154.5t76.5 -104.5t106 -56.5t122.5 -18.5q121 0 198 54l42 -78q-110 -72 -258 -72q-180 0 -301 112.5t-121 303.5
q0 189 118.5 314.5t308.5 125.5q76 0 146.5 -22t129.5 -66t94.5 -119t35.5 -172q0 -52 -10.5 -100t-33 -91t-63 -68.5t-94.5 -25.5q-55 0 -94 25t-46 66q-52 -91 -146 -91q-57 0 -100.5 32t-43.5 97q0 137 218 137q40 0 71 -4v15q0 59 -15 80t-53 21q-35 0 -60 -13l-24 -69
l-98 11zM549 190q-42 6 -65 6q-86 0 -86 -62q0 -52 53 -52q37 0 66 27t32 78v3z" />
    <glyph glyph-name="uni0041" unicode="A" horiz-adv-x="687" 
d="M700 0h-259v114h52l-24 66h-221l-27 -66h61v-114h-256v114h59l186 422h-90v114h223l234 -536h62v-114zM433 276l-68 183h-6l-73 -183h147z" />
    <glyph glyph-name="uni0042" unicode="B" horiz-adv-x="622" 
d="M637 193q0 -83 -55.5 -138t-161.5 -55h-342v114h70v422h-70v114h338q89 0 143.5 -41.5t54.5 -110.5q0 -52 -31.5 -89.5t-86.5 -46.5v-4q68 -10 104.5 -54t36.5 -111zM470 463q0 73 -89 73h-99v-152h89q99 0 99 79zM493 198q0 82 -99 82h-112v-166h103q108 0 108 84z" />
    <glyph glyph-name="uni0043" unicode="C" horiz-adv-x="644" 
d="M618 69q-32 -34 -102 -56.5t-141 -22.5q-141 0 -234 90.5t-93 233.5q0 48 10.5 94.5t36 92.5t62.5 81t95 56.5t129 21.5q77 0 137.5 -22.5t96.5 -55.5l16 -151l-109 -10l-14 86q-52 35 -133 35q-85 0 -134 -57t-49 -162q0 -109 52 -162t140 -53q79 0 124 27l14 97
l109 -10z" />
    <glyph glyph-name="uni0044" unicode="D" horiz-adv-x="698" 
d="M712 328q0 -150 -88 -239t-240 -89h-306v114h70v422h-70v114h298q163 0 249.5 -87t86.5 -235zM568 326q0 210 -195 210h-91v-422h91q195 0 195 212z" />
    <glyph glyph-name="uni0045" unicode="E" horiz-adv-x="593" 
d="M580 0h-502v114h70v422h-70v114h496l20 -190l-114 -10l-20 86h-178v-153h274v-113h-274v-156h184l20 86l114 -10z" />
    <glyph glyph-name="uni0046" unicode="F" horiz-adv-x="567" 
d="M586 450l-114 -10l-20 96h-170v-182h273v-113h-273v-127h106v-114h-310v114h70v422h-70v114h488z" />
    <glyph glyph-name="uni0047" unicode="G" horiz-adv-x="682" 
d="M683 246h-32v-246h-104l-13 68q-66 -78 -186 -78q-134 0 -216 93.5t-82 236.5q0 146 88 243t247 97q76 0 141 -22t99 -56l18 -141l-108 -10l-18 76q-52 35 -138 35q-84 0 -134.5 -56t-50.5 -164q0 -105 48 -159.5t130 -54.5q67 0 105.5 35.5t38.5 98.5v4h-127v113h294
v-113z" />
    <glyph glyph-name="uni0048" unicode="H" horiz-adv-x="761" 
d="M761 0h-274v114h70v159h-275v-159h70v-114h-274v114h70v422h-70v114h274v-114h-70v-150h275v150h-70v114h274v-114h-70v-422h70v-114z" />
    <glyph glyph-name="uni0049" unicode="I" horiz-adv-x="352" 
d="M352 0h-274v114h70v422h-70v114h274v-114h-70v-422h70v-114z" />
    <glyph glyph-name="uni004A" unicode="J" horiz-adv-x="486" 
d="M462 536h-60v-351q0 -96 -53 -145.5t-144 -49.5q-143 0 -195 123l94 71q27 -70 88 -70q39 0 57.5 19t18.5 51v352h-114v114h308v-114z" />
    <glyph glyph-name="uni004B" unicode="K" horiz-adv-x="674" 
d="M704 0h-283v114h60l-119 160h-80v-160h55v-114h-259v114h70v422h-70v114h262v-114h-58v-153h82l115 153h-56v114h270v-114h-73l-155 -195l172 -227h67v-114z" />
    <glyph glyph-name="uni004C" unicode="L" horiz-adv-x="558" 
d="M566 0h-488v114h70v422h-70v114h295v-114h-91v-422h170l20 126l114 -10z" />
    <glyph glyph-name="uni004D" unicode="M" horiz-adv-x="900" 
d="M900 536h-80v-422h70v-114h-261v114h57v248h-4l-171 -309h-56l-184 321h-4v-260h62v-114h-257v114h70v422h-80v114h192l231 -403h4l217 403h194v-114z" />
    <glyph glyph-name="uni004E" unicode="N" horiz-adv-x="760" 
d="M762 536h-70v-536l-75 -1l-349 413h-4v-298h90v-114h-285v114h70v422h-81v114h177l328 -386h4v272h-94v114h289v-114z" />
    <glyph glyph-name="uni004F" unicode="O" horiz-adv-x="712" 
d="M712 326q0 -143 -90.5 -239.5t-244.5 -96.5q-153 0 -241 96t-88 238q0 145 91.5 240.5t241.5 95.5q151 0 241 -96t90 -238zM567 322q0 104 -48.5 162t-138.5 58q-93 0 -140 -59t-47 -156q0 -96 47 -157.5t144 -61.5q92 0 137.5 57.5t45.5 156.5z" />
    <glyph glyph-name="uni0050" unicode="P" horiz-adv-x="598" 
d="M623 438q0 -106 -69.5 -163t-171.5 -57h-100v-104h100v-114h-304v114h70v422h-70v114h298q119 0 183 -56.5t64 -155.5zM479 436q0 50 -27.5 75t-92.5 25h-77v-205h75q122 0 122 105z" />
    <glyph glyph-name="uni0051" unicode="Q" horiz-adv-x="718" 
d="M712 326q0 -132 -77 -224l66 -68l-84 -83l-75 77q-73 -38 -165 -38q-153 0 -241 96t-88 238q0 145 91.5 240.5t241.5 95.5q151 0 241 -96t90 -238zM567 322q0 104 -48.5 162t-138.5 58q-93 0 -140 -59t-47 -156q0 -96 47 -157.5t144 -61.5q39 0 70 11l-98 101l84 83
l102 -105q25 50 25 124z" />
    <glyph glyph-name="uni0052" unicode="R" horiz-adv-x="638" 
d="M665 0h-166l-129 248h-88v-134h70v-114h-274v114h70v422h-70v114h294q122 0 186.5 -50t64.5 -147q0 -64 -33 -109t-91 -68l88 -162h78v-114zM479 450q0 49 -28.5 67.5t-102.5 18.5h-66v-182h64q74 0 103.5 23.5t29.5 72.5z" />
    <glyph glyph-name="uni0053" unicode="S" horiz-adv-x="557" 
d="M562 197q0 -99 -67.5 -153t-187.5 -54q-69 0 -133.5 17.5t-101.5 50.5l20 161l107 -10l-1 -79q47 -25 99 -25q60 0 90.5 15t30.5 61q0 26 -10 44t-31 29t-41 16.5t-52 11.5q-37 7 -58.5 12t-53.5 18.5t-49.5 31t-31 48t-13.5 70.5q0 69 35.5 115t86.5 64.5t114 18.5
q64 0 122 -19.5t89 -52.5l6 -141l-107 -10l-9 76q-43 29 -100 29q-93 0 -93 -63q0 -37 28.5 -54t83.5 -29q4 -1 25.5 -5t29.5 -6t29 -8t31 -10.5t28.5 -14t28 -19t22 -23.5t19 -30t11 -37.5t4.5 -45.5z" />
    <glyph glyph-name="uni0054" unicode="T" horiz-adv-x="651" 
d="M650 430l-114 -10l-20 116h-103v-422h106v-114h-340v114h100v422h-103l-20 -116l-114 10l20 220h568z" />
    <glyph glyph-name="uni0055" unicode="U" horiz-adv-x="719" 
d="M720 536h-58v-267q0 -55 -14.5 -102.5t-46 -88.5t-87 -64.5t-130.5 -23.5q-139 0 -204.5 76t-65.5 192v278h-58v114h268v-114h-76v-274q0 -154 143 -154q74 0 110 42.5t36 118.5v267h-76v114h259v-114z" />
    <glyph glyph-name="uni0056" unicode="V" horiz-adv-x="685" 
d="M684 536h-59l-231 -536h-93l-230 536h-61v114h269v-114h-59l133 -329h6l130 329h-61v114h256v-114z" />
    <glyph glyph-name="uni0057" unicode="W" horiz-adv-x="989" 
d="M981 536h-52l-179 -536h-95l-153 420h-5l-146 -420h-97l-190 536h-56v114h259v-114h-60l97 -314h6l116 314h-51v114h259v-114h-46l115 -320h6l86 320h-70v114h256v-114z" />
    <glyph glyph-name="uni0058" unicode="X" horiz-adv-x="666" 
d="M664 0h-265v114h46l-112 132l-103 -132h54v-114h-272v114h70l182 219l-177 203h-60v114h261v-114h-44l102 -117l94 117h-47v114h256v-114h-60l-174 -201l191 -221h58v-114z" />
    <glyph glyph-name="uni0059" unicode="Y" horiz-adv-x="646" 
d="M640 536h-56l-189 -282v-140h106v-114h-340v114h100v141l-195 281h-58v114h269v-114h-54l109 -164h6l108 164h-62v114h256v-114z" />
    <glyph glyph-name="uni005A" unicode="Z" horiz-adv-x="589" 
d="M571 0h-526l-3 69l330 466v1h-176l-20 -101l-114 10l20 205h486l2 -61l-335 -473v-2h222l20 120l114 -10z" />
    <glyph glyph-name="uni005B" unicode="[" horiz-adv-x="299" 
d="M134 -248v1033h223v-87h-114v-859h114v-87h-223z" />
    <glyph glyph-name="uni005C" unicode="\" horiz-adv-x="421" 
d="M120 688h127l195 -688h-127z" />
    <glyph glyph-name="uni005D" unicode="]" horiz-adv-x="299" 
d="M241 -248h-223v87h114v859h-114v87h223v-1033z" />
    <glyph glyph-name="uni005E" unicode="^" horiz-adv-x="469" 
d="M217 650h81l171 -283h-118l-93 158l-83 -158h-119z" />
    <glyph glyph-name="uni005F" unicode="_" horiz-adv-x="502" 
d="M70 -68h432v-85h-432v85z" />
    <glyph glyph-name="uni0060" unicode="`" horiz-adv-x="440" 
d="M519 557l-34 -49l-195 91l67 101z" />
    <glyph glyph-name="uni0061" unicode="a" horiz-adv-x="506" 
d="M95 419q60 24 99 32.5t94 8.5q77 0 128 -39.5t51 -113.5v-196q0 -35 31 -35q8 0 19 3l1 -68q-39 -21 -81 -21q-44 0 -69 23.5t-30 65.5v1q-51 -90 -145 -90q-56 0 -97.5 32t-41.5 97q0 137 210 137q43 0 74 -4v15q0 23 -1.5 36t-8 30.5t-22.5 26t-42 8.5q-44 0 -69 -13
l-17 -64l-103 11zM338 184v6q-42 6 -65 6q-86 0 -86 -62q0 -52 53 -52q37 0 65.5 26t32.5 76z" />
    <glyph glyph-name="uni0062" unicode="b" horiz-adv-x="551" 
d="M526 236q0 -105 -54.5 -175.5t-152.5 -70.5q-103 0 -145 78q-5 -42 -10 -68h-129q17 80 17 139v451h-60v98h189v-323q44 95 152 95q87 0 140 -60t53 -164zM392 225q0 64 -27.5 98.5t-74.5 34.5q-50 0 -79.5 -37t-29.5 -89v-11q0 -57 28 -93.5t78 -36.5q47 0 76 34t29 100
z" />
    <glyph glyph-name="uni0063" unicode="c" horiz-adv-x="471" 
d="M476 168q-8 -72 -59 -125t-150 -53q-101 0 -163 59t-62 169q0 116 66.5 179t169.5 63q85 0 163 -41l20 -137l-103 -11l-15 74q-39 13 -68 13q-44 0 -71.5 -33t-27.5 -101q0 -63 26 -97.5t77 -34.5q76 0 89 96z" />
    <glyph glyph-name="uni0064" unicode="d" horiz-adv-x="570" 
d="M578 0h-189v84q-47 -94 -154 -94q-88 0 -139.5 61t-51.5 166q0 106 52 174.5t149 68.5q102 0 144 -78v208h-90v98h219v-591h60v-97zM389 228v11q0 55 -29 87t-74 32q-46 0 -77 -34t-31 -99q0 -62 29 -97.5t72 -35.5q49 0 79.5 41.5t30.5 94.5z" />
    <glyph glyph-name="uni0065" unicode="e" horiz-adv-x="483" 
d="M484 142q-5 -64 -61 -108t-149 -44q-104 0 -168 58.5t-64 168.5q0 107 60.5 175t165.5 68q94 0 152 -54t60 -142q0 -33 -7 -65h-296q11 -107 106 -107q80 0 93 70zM347 274q5 37 -15.5 65.5t-63.5 28.5q-38 0 -61 -25t-29 -69h169z" />
    <glyph glyph-name="uni0066" unicode="f" horiz-adv-x="343" 
d="M297 698q80 0 136 -41l20 -122l-100 -11l-22 71q-21 6 -36 6q-50 0 -50 -60v-90h111v-92h-111v-262h75v-97h-264v97h60v262h-55v92h55v69q0 75 48 126.5t133 51.5z" />
    <glyph glyph-name="uni0067" unicode="g" horiz-adv-x="568" 
d="M574 353h-60v-330q0 -112 -63 -178.5t-186 -66.5q-178 0 -227 135l99 56q48 -89 129 -89q53 0 86 38t33 105v59q-43 -82 -148 -82q-83 0 -140 57.5t-57 159.5q0 104 55 173.5t148 69.5q100 0 142 -79v70h189v-98zM385 228v11q0 55 -28 87t-73 32t-72.5 -33.5t-27.5 -99.5
q0 -62 25 -92.5t67 -30.5q50 0 79.5 36.5t29.5 89.5z" />
    <glyph glyph-name="uni0068" unicode="h" horiz-adv-x="581" 
d="M584 0h-249v97h60v157q0 108 -79 108q-43 0 -68 -26.5t-27 -71.5v-167h60v-97h-249v97h60v493h-60v98h189v-306q45 78 145 78q68 0 113 -40t45 -116v-207h60v-97z" />
    <glyph glyph-name="uni0069" unicode="i" horiz-adv-x="299" 
d="M114 531v134h129v-134h-129zM308 0h-249v97h60v256h-65v98h194v-354h60v-97z" />
    <glyph glyph-name="uni006A" unicode="j" horiz-adv-x="265" 
d="M64 531v134h129v-134h-129zM193 16q0 -134 -49.5 -192t-175.5 -46l-4 85q25 0 39.5 4t30.5 18t23 46.5t7 84.5v337h-70v98h199v-435z" />
    <glyph glyph-name="uni006B" unicode="k" horiz-adv-x="553" 
d="M550 0h-231v97h42l-78 89h-67v-89h41v-97h-230v97h60v493h-65v98h194v-411h75l66 76h-54v98h226v-98h-49l-97 -110l128 -146h39v-97z" />
    <glyph glyph-name="uni006C" unicode="l" horiz-adv-x="285" 
d="M280 0h-249v97h60v493h-65v98h194v-591h60v-97z" />
    <glyph glyph-name="uni006D" unicode="m" horiz-adv-x="876" 
d="M893 0h-189v254q0 57 -19 82.5t-58 25.5q-87 0 -87 -107v-158h60v-97h-189v254q0 57 -19 82.5t-58 25.5q-87 0 -87 -107v-158h86v-97h-275v97h60v256h-59v98h188v-68q43 77 137 77q51 0 91 -24.5t56 -72.5q40 97 147 97q66 0 110.5 -40t44.5 -116v-207h60v-97z" />
    <glyph glyph-name="uni006E" unicode="n" horiz-adv-x="593" 
d="M605 0h-249v97h60v157q0 57 -19 82.5t-58 25.5q-45 0 -70.5 -28t-26.5 -75v-162h60v-97h-249v97h60v256h-65v98h194v-69q45 78 145 78q68 0 113 -40t45 -116v-207h60v-97z" />
    <glyph glyph-name="uni006F" unicode="o" horiz-adv-x="523" 
d="M523 225q0 -106 -69.5 -170.5t-178.5 -64.5q-106 0 -170.5 61.5t-64.5 168.5q0 105 63 173t179 68q117 0 179 -67.5t62 -168.5zM390 229q0 66 -30.5 99.5t-79.5 33.5q-50 0 -78.5 -36t-28.5 -99q0 -60 27.5 -99t78.5 -39q50 0 80.5 38t30.5 102z" />
    <glyph glyph-name="uni0070" unicode="p" horiz-adv-x="571" 
d="M559 236q0 -105 -54.5 -175.5t-152.5 -70.5q-95 0 -138 67v-170h80v-100h-269v100h60v467h-65v97h194v-86q44 95 152 95q87 0 140 -60t53 -164zM425 223q0 65 -28.5 100t-76.5 35q-49 0 -76 -36t-29 -95l-1 -16q0 -55 29 -87t77 -32t76.5 33t28.5 98z" />
    <glyph glyph-name="uni0071" unicode="q" horiz-adv-x="551" 
d="M576 -213h-269v100h80v197q-46 -94 -152 -94q-87 0 -140 60t-53 164q0 105 54.5 175.5t152.5 70.5q104 0 147 -83q5 41 13 74h125q-18 -88 -18 -160v-404h60v-100zM387 228v11q0 55 -28.5 87t-75.5 32t-77 -33.5t-30 -99.5q0 -63 27.5 -98t72.5 -35q50 0 80.5 41t30.5 95
z" />
    <glyph glyph-name="uni0072" unicode="r" horiz-adv-x="441" 
d="M338 457q46 0 89 -25l20 -158l-98 -11l-17 77q-19 12 -35 12q-23 0 -39 -17.5t-16 -49.5v-188h80v-97h-269v97h60v256h-65v98h184v-86q27 92 106 92z" />
    <glyph glyph-name="uni0073" unicode="s" horiz-adv-x="459" 
d="M463 138q0 -73 -58 -110.5t-156 -37.5q-108 0 -193 44l18 126l100 -11v-56q27 -9 68 -9q39 0 65 12.5t26 35.5q0 21 -28 31.5t-68 17t-80 17.5t-68 41.5t-28 80.5q0 52 31.5 85t73 44t93.5 11q90 0 169 -41l11 -115l-100 -11l-8 63q-33 11 -71 11q-60 0 -60 -43
q0 -21 27 -32t66 -17.5t77.5 -17.5t65.5 -41t27 -78z" />
    <glyph glyph-name="uni0074" unicode="t" horiz-adv-x="398" 
d="M412 140q-19 -150 -168 -150q-76 0 -122 38t-46 107v224h-64v92h64v137h129v-137h162v-92h-162v-202q0 -59 54 -59q51 0 59 71z" />
    <glyph glyph-name="uni0075" unicode="u" horiz-adv-x="585" 
d="M585 0h-194v69q-45 -78 -145 -78q-68 0 -113 40t-45 116v207h-60v97h189v-254q0 -57 19 -82.5t58 -25.5q46 0 71.5 29.5t25.5 77.5v158h-73v97h202v-354h65v-97z" />
    <glyph glyph-name="uni0076" unicode="v" horiz-adv-x="527" 
d="M522 354h-46l-161 -354h-93l-170 354h-48v97h230v-97h-43l88 -189h6l67 189h-36v97h206v-97z" />
    <glyph glyph-name="uni0077" unicode="w" horiz-adv-x="760" 
d="M759 354h-41l-122 -354h-96l-117 270h-6l-106 -270h-91l-125 354h-41v97h240v-97h-62l55 -176h6l106 273h77l123 -269h6l37 172h-59v97h216v-97z" />
    <glyph glyph-name="uni0078" unicode="x" horiz-adv-x="537" 
d="M539 0h-227v97h33l-66 71l-65 -71h29v-97h-211v97h62l124 125l-136 132h-45v97h228v-97h-31l61 -67l65 67h-30v97h196v-97h-45l-123 -118l137 -139h44v-97z" />
    <glyph glyph-name="uni0079" unicode="y" horiz-adv-x="530" 
d="M528 354h-44l-145 -354l-43 -113h59v-100h-249v100h72l36 106l-158 361h-46v97h230v-97h-45l92 -208h6l68 208h-39v97h206v-97z" />
    <glyph glyph-name="uni007A" unicode="z" horiz-adv-x="477" 
d="M447 0h-394l-13 68l242 286h-135l-20 -69l-93 8l16 158h396l10 -68l-249 -286h145l21 71l102 -10z" />
    <glyph glyph-name="uni007B" unicode="{" horiz-adv-x="299" 
d="M134 267q62 -8 91.5 -34.5t29.5 -59.5q0 -29 -43 -126t-43 -144q0 -64 63 -64h64v-87h-64q-90 0 -130 42.5t-40 104.5q0 46 21 104.5t42.5 107.5t21.5 71q0 32 -31.5 44.5t-66.5 12.5h-19v57h19q20 0 39.5 3.5t39 17t19.5 35.5q0 21 -21.5 70.5t-42.5 109.5t-21 107
q0 65 41 105.5t129 40.5h64v-87h-64q-63 0 -63 -64q0 -47 43 -146t43 -128q0 -33 -29.5 -59.5t-91.5 -33.5z" />
    <glyph glyph-name="uni007C" unicode="|" horiz-adv-x="244" 
d="M244 730v-810h-110v810h110z" />
    <glyph glyph-name="uni007D" unicode="}" horiz-adv-x="299" 
d="M198 271q-62 8 -91.5 34.5t-29.5 59.5q0 29 43 126t43 144q0 64 -63 64h-64v87h64q90 0 130 -42.5t40 -104.5q0 -46 -21 -104.5t-42.5 -107.5t-21.5 -71q0 -32 31.5 -44.5t66.5 -12.5h19v-57h-19q-20 0 -39.5 -3.5t-39 -17t-19.5 -35.5q0 -21 21.5 -70.5t42.5 -110
t21 -106.5q0 -65 -41 -105.5t-129 -40.5h-64v87h64q63 0 63 64q0 47 -43 146t-43 128q0 33 29.5 59.5t91.5 33.5z" />
    <glyph glyph-name="uni007E" unicode="~" horiz-adv-x="568" 
d="M398 176q-43 0 -107 33t-97 33q-45 0 -85 -62l-71 48q63 132 159 132q34 0 94 -33t104 -33q30 0 50 14t44 55l80 -53q-65 -134 -171 -134z" />
    <glyph glyph-name="uni00A0" unicode="&#xa0;" horiz-adv-x="187" 
 />
    <glyph glyph-name="uni00A1" unicode="&#xa1;" horiz-adv-x="247" 
d="M94 309v145h151v-145h-151zM248 -196h-154l30 418h94z" />
    <glyph glyph-name="uni00A2" unicode="&#xa2;" horiz-adv-x="494" 
d="M498 168q-7 -64 -48.5 -114t-120.5 -61v-77h-69v76q-90 8 -143 66t-53 160q0 104 54 165.5t142 73.5v72h69v-71q71 -7 134 -39l20 -137l-103 -11l-15 69q-19 6 -36 9v-249q51 12 61 88zM203 224q0 -98 57 -121v243q-57 -21 -57 -122z" />
    <glyph glyph-name="uni00A3" unicode="&#xa3;" horiz-adv-x="495" 
d="M500 83q-10 -28 -52 -55.5t-100 -27.5h-272v96q32 19 41 44.5t9 71.5h-58v75h58v47q0 93 52.5 143.5t135.5 50.5q99 0 148 -50l13 -117l-99 -8l-13 65q-21 10 -43 10q-34 0 -49.5 -21t-15.5 -72v-48h141v-75h-141q-1 -40 -11.5 -66.5t-44.5 -47.5h123q78 0 123 45z" />
    <glyph glyph-name="uni00A4" unicode="&#xa4;" horiz-adv-x="478" 
d="M115 264q0 42 19 74l-80 80l48 47l78 -77q38 27 86 27q46 0 86 -27l78 77l48 -47l-80 -80q19 -35 19 -74q0 -43 -22 -79l83 -83l-48 -47l-83 82q-37 -24 -81 -24t-82 24l-82 -82l-48 47l83 83q-22 36 -22 79zM225 264q0 -21 12 -36t29 -15t29 15t12 36t-12 36t-29 15
t-29 -15t-12 -36z" />
    <glyph glyph-name="uni00A5" unicode="&#xa5;" horiz-adv-x="595" 
d="M293 423h-40l81 -117h5l80 117h-48v98h223v-98h-43l-99 -137h72v-67h-120l-10 -15v-14h130v-67h-130v-25h87v-98h-297v98h81v25h-129v67h129v16l-10 13h-119v67h69l-102 137h-45v98h235v-98z" />
    <glyph glyph-name="uni00A6" unicode="&#xa6;" horiz-adv-x="240" 
d="M240 730v-304h-110v304h110zM240 224v-304h-110v304h110z" />
    <glyph glyph-name="uni00A7" unicode="&#xa7;" horiz-adv-x="631" 
d="M564 151q0 -72 -57 -116.5t-154 -44.5q-52 0 -123.5 11t-120.5 33l19 136l100 -11l-5 -65q42 -14 123 -14q42 0 66.5 17.5t24.5 45.5q0 22 -19 34.5t-38 15.5t-60 7q-7 1 -10 1q-52 5 -86 11t-75.5 19.5t-63 38.5t-21.5 62q0 67 79 106q-19 30 -19 71q0 70 56.5 110.5
t158.5 40.5q106 0 199 -41l13 -129l-100 -11l-10 70q-37 22 -105 22q-85 0 -85 -52q0 -57 106 -73q11 -2 51.5 -6.5t63.5 -8t58.5 -14t55.5 -24.5t35.5 -38.5t15.5 -56.5q0 -70 -76 -116q3 -13 3 -31zM520 282q0 18 -13.5 31.5t-40.5 20.5t-48.5 10.5t-58.5 7t-49 5.5
q-61 7 -106 30q-23 -13 -23 -37q0 -14 9 -23.5t27 -15t43.5 -9t58.5 -7.5q25 -2 38 -4q104 -13 149 -38q14 12 14 29z" />
    <glyph glyph-name="uni00A8" unicode="&#xa8;" horiz-adv-x="412" 
d="M114 531v134h129v-134h-129zM299 531v134h129v-134h-129z" />
    <glyph glyph-name="uni00A9" unicode="&#xa9;" horiz-adv-x="596" 
d="M596 261q0 -112 -78.5 -190t-189.5 -78t-189.5 77.5t-78.5 189.5t78 190.5t191 78.5q112 0 189.5 -78.5t77.5 -189.5zM526 261q0 85 -53 143.5t-144 58.5t-145 -58.5t-54 -144.5t54 -144t144 -58q87 0 142.5 59t55.5 144zM439 156q-16 -16 -49.5 -27t-67.5 -11
q-61 0 -101 35.5t-40 106.5q0 65 39 107t105 42q75 0 112 -33l8 -73l-52 -5l-7 41q-20 15 -57 15q-74 0 -74 -91q0 -89 74 -89q36 0 57 14l7 46l52 -5z" />
    <glyph glyph-name="uni00AA" unicode="&#xaa;" horiz-adv-x="375" 
d="M201 643q-20 0 -41 -9l-13 -45l-77 8l14 78q66 30 128 30q64 0 100 -26.5t36 -73.5v-125q0 -22 17 -22q4 0 12 2l1 -47q-30 -15 -60 -15q-62 0 -69 59q-35 -59 -97 -59q-39 0 -68.5 21.5t-29.5 63.5q0 89 146 89q18 0 48 -2v6v6q0 15 -0.5 22.5t-4.5 18t-14.5 15.5
t-27.5 5zM248 523v3q-22 5 -41 5q-46 0 -46 -37q0 -31 32 -31q49 0 55 60z" />
    <glyph glyph-name="uni00AB" unicode="&#xab;" horiz-adv-x="471" 
d="M295 25h-107l-138 246l138 240h107l-117 -240zM465 25h-107l-138 246l138 240h107l-117 -240z" />
    <glyph glyph-name="uni00AC" unicode="&#xac;" horiz-adv-x="569" 
d="M475 75v162h-393v88h481v-250h-88z" />
    <glyph glyph-name="uni00AE" unicode="&#xae;" horiz-adv-x="561" 
d="M310 159q-104 0 -177 72.5t-73 177.5q0 104 73 177.5t178 73.5t177.5 -73t72.5 -178q0 -104 -73.5 -177t-177.5 -73zM310 224q82 0 131.5 53.5t49.5 131.5t-49 132t-131 54q-83 0 -132 -54t-49 -132t49 -131.5t131 -53.5zM197 334h27v160h-27v48h122q104 0 104 -78
q0 -49 -49 -69l35 -61h29v-48h-73l-51 96h-28v-48h26v-48h-115v48zM305 427q29 0 40 8.5t11 26.5t-10.5 25t-38.5 7h-21v-67h19z" />
    <glyph glyph-name="uni00AF" unicode="&#xaf;" horiz-adv-x="335" 
d="M352 536h-268v98h268v-98z" />
    <glyph glyph-name="uni00B0" unicode="&#xb0;" horiz-adv-x="363" 
d="M203 342q-75 0 -117 44t-42 114q0 69 44 114.5t117 45.5q76 0 117 -44.5t41 -114.5q0 -69 -43 -114t-117 -45zM203 432q55 0 55 69t-53 69q-56 0 -56 -70q0 -68 54 -68z" />
    <glyph glyph-name="uni00B1" unicode="&#xb1;" horiz-adv-x="418" 
d="M72 249v88h132v130h88v-130h127v-88h-127v-129h-88v129h-132zM72 0v88h347v-88h-347z" />
    <glyph glyph-name="uni00B2" unicode="&#xb2;" horiz-adv-x="368" 
d="M135 654l-77 6l14 99q62 26 136 26q73 0 108 -29t35 -69q0 -13 -4 -26.5t-12.5 -27.5t-17 -25t-23.5 -25t-24 -22.5t-27 -21.5t-25 -18.5t-24.5 -17t-19.5 -13.5h105l12 55l81 -10l-10 -120h-303l-9 70q9 7 27.5 21t29.5 22t28 21.5t27.5 23t24.5 22t22 22t16 20t11.5 20
t3.5 17.5q0 16 -13.5 26t-35.5 10q-25 0 -46 -11z" />
    <glyph glyph-name="uni00B3" unicode="&#xb3;" horiz-adv-x="351" 
d="M143 658l-77 6l13 95q56 25 132 25q62 0 97 -26t35 -67q0 -53 -61 -81v-2q73 -18 73 -91q0 -51 -43.5 -80t-114.5 -29q-118 0 -137 99l73 25q16 -45 59 -45q26 0 40 12.5t14 31.5q0 41 -79 45v56q22 1 33.5 3.5t22.5 12t11 27.5q0 34 -40 34q-23 0 -42 -10z" />
    <glyph glyph-name="uni00B4" unicode="&#xb4;" horiz-adv-x="440" 
d="M579 599l-195 -91l-34 49l162 143z" />
    <glyph glyph-name="uni00B5" unicode="&#xb5;" horiz-adv-x="592" 
d="M96 -213v566h-60v98h189v-254q0 -57 19 -82.5t58 -25.5q44 0 69.5 28t27.5 74v162h-73v98h202v-353h65v-98h-194v69q-45 -78 -145 -78q-11 0 -29 2v-206h-129z" />
    <glyph glyph-name="uni00B6" unicode="&#xb6;" horiz-adv-x="657" 
d="M645 650v-109h-64v-541h-120v541h-40v-541h-120v310h-46q-93 0 -149 42t-56 132q0 71 56.5 118.5t154.5 47.5h384z" />
    <glyph glyph-name="uni00B7" unicode="&#xb7;" horiz-adv-x="230" 
d="M76 251v163h153v-163h-153z" />
    <glyph glyph-name="uni00B8" unicode="&#xb8;" horiz-adv-x="256" 
d="M356 -121q0 -46 -37.5 -67t-92.5 -21q-79 0 -116 30l23 70q35 -23 78 -23q36 0 36 21q0 25 -39 25h-37v92h88v-47h8q46 0 67.5 -23t21.5 -57z" />
    <glyph glyph-name="uni00B9" unicode="&#xb9;" horiz-adv-x="282" 
d="M58 490h73v214h-73v75h174v-289h65v-75h-239v75z" />
    <glyph glyph-name="uni00BA" unicode="&#xba;" horiz-adv-x="374" 
d="M40 547q0 68 43.5 113t123.5 45q81 0 124 -44t43 -109q0 -70 -48.5 -112t-123.5 -42q-72 0 -117 40t-45 109zM148 553q0 -79 57 -79q28 0 44.5 21t16.5 59q0 75 -60 75q-58 0 -58 -76z" />
    <glyph glyph-name="uni00BB" unicode="&#xbb;" horiz-adv-x="471" 
d="M339 25h-107l117 246l-117 240h107l138 -240zM169 25h-107l117 246l-117 240h107l138 -240z" />
    <glyph glyph-name="uni00BC" unicode="&#xbc;" horiz-adv-x="744" 
d="M628 650l-191 -325l-181 -325h-88l198 337l174 313h88zM72 361h73v214h-73v75h174v-289h65v-75h-239v75zM596 0v65h-165l-10 73l106 226h170v-221h58l-7 -78h-51v-65h-101zM580 289l-71 -146h87v146h-16z" />
    <glyph glyph-name="uni00BD" unicode="&#xbd;" horiz-adv-x="785" 
d="M626 650l-191 -325l-181 -325h-88l198 337l174 313h88zM68 361h73v214h-73v75h174v-289h65v-75h-239v75zM562 239l-77 6l14 99q62 26 136 26q73 0 108 -29t35 -69q0 -13 -4 -26.5t-12.5 -27.5t-17 -25t-23.5 -25t-24 -22.5t-27 -21.5t-25 -18.5t-24.5 -17t-19.5 -13.5
h105l12 55l81 -10l-10 -120h-303l-9 70q9 7 27.5 21t29.5 22t28 21.5t27.5 23t24.5 22t22 22t16 20t11.5 20t3.5 17.5q0 16 -13.5 26t-35.5 10q-25 0 -46 -11z" />
    <glyph glyph-name="uni00BE" unicode="&#xbe;" horiz-adv-x="776" 
d="M149 534l-77 6l13 95q56 25 132 25q62 0 97 -26t35 -67q0 -53 -61 -81v-2q73 -18 73 -91q0 -51 -43.5 -80t-114.5 -29q-118 0 -137 99l73 25q16 -45 59 -45q26 0 40 12.5t14 31.5q0 41 -79 45v56q22 1 33.5 3.5t22.5 12t11 27.5q0 34 -40 34q-23 0 -42 -10zM652 650
l-191 -325l-181 -325h-88l198 337l174 313h88zM625 0v65h-165l-10 73l106 226h170v-221h58l-7 -78h-51v-65h-101zM609 289l-71 -146h87v146h-16z" />
    <glyph glyph-name="uni00BF" unicode="&#xbf;" horiz-adv-x="474" 
d="M349 454v-145h-151v145h151zM364 -2l103 -11l-21 -153q-94 -39 -197 -39q-91 0 -148 39.5t-57 106.5q0 38 20 67t48 45.5t56.5 30t48.5 27.5t20 31q0 28 -41 28v79q181 23 181 -91q0 -36 -19 -61t-46.5 -38t-55 -25t-46.5 -29t-19 -42q0 -51 76 -51q53 0 82 15z" />
    <glyph glyph-name="uni00C0" unicode="&#xc0;" horiz-adv-x="687" 
d="M426 745l-16 -57l-215 28l29 117zM700 0h-259v114h52l-24 66h-221l-27 -66h61v-114h-256v114h59l186 422h-90v114h223l234 -536h62v-114zM433 276l-68 183h-6l-73 -183h147z" />
    <glyph glyph-name="uni00C1" unicode="&#xc1;" horiz-adv-x="687" 
d="M525 716l-215 -28l-16 57l202 88zM700 0h-259v114h52l-24 66h-221l-27 -66h61v-114h-256v114h59l186 422h-90v114h223l234 -536h62v-114zM433 276l-68 183h-6l-73 -183h147z" />
    <glyph glyph-name="uni00C2" unicode="&#xc2;" horiz-adv-x="687" 
d="M508 737l-28 -52l-135 60l-124 -60l-29 53l135 106h45zM700 0h-259v114h52l-24 66h-221l-27 -66h61v-114h-256v114h59l186 422h-90v114h223l234 -536h62v-114zM433 276l-68 183h-6l-73 -183h147z" />
    <glyph glyph-name="uni00C3" unicode="&#xc3;" horiz-adv-x="687" 
d="M490 820q0 -120 -85 -120q-25 0 -64 15.5t-62 15.5q-33 0 -42 -33l-50 16q-3 36 18.5 73t67.5 37q23 0 61 -15.5t54 -15.5q36 0 48 38zM700 0h-259v114h52l-24 66h-221l-27 -66h61v-114h-256v114h59l186 422h-90v114h223l234 -536h62v-114zM433 276l-68 183h-6l-73 -183
h147z" />
    <glyph glyph-name="uni00C4" unicode="&#xc4;" horiz-adv-x="687" 
d="M197 705v134h129v-134h-129zM382 705v134h129v-134h-129zM700 0h-259v114h52l-24 66h-221l-27 -66h61v-114h-256v114h59l186 422h-90v114h223l234 -536h62v-114zM433 276l-68 183h-6l-73 -183h147z" />
    <glyph glyph-name="uni00C5" unicode="&#xc5;" horiz-adv-x="687" 
d="M460 783q0 -43 -26.5 -68.5t-79.5 -25.5q-51 0 -77 24t-26 67t26.5 68t79.5 25q52 0 77.5 -24.5t25.5 -65.5zM380 785q0 28 -24 28q-15 0 -20 -8t-5 -25t4.5 -24t19.5 -7t20 8.5t5 27.5zM700 0h-259v114h52l-24 66h-221l-27 -66h61v-114h-256v114h59l186 422h-90v114h223
l234 -536h62v-114zM433 276l-68 183h-6l-73 -183h147z" />
    <glyph glyph-name="uni00C6" unicode="&#xc6;" horiz-adv-x="934" 
d="M883 0h-498v114h70v66h-216l-31 -66h56v-114h-256v114h64l213 422h-82v114h674l20 -190l-114 -10l-20 86h-174v-153h274v-113h-274v-156h180l20 86l114 -10zM455 276v260h-48l-123 -260h171z" />
    <glyph glyph-name="uni00C7" unicode="&#xc7;" horiz-adv-x="645" 
d="M497 -121q0 -46 -37.5 -67t-92.5 -21q-79 0 -116 30l23 70q34 -23 78 -23q36 0 36 21q0 25 -39 25h-37v82q-117 20 -189.5 106t-72.5 212q0 48 10.5 94.5t36 92.5t62.5 81t95 56.5t129 21.5q77 0 138 -22.5t96 -55.5l16 -151l-109 -10l-14 86q-52 35 -133 35
q-85 0 -134 -57t-49 -162q0 -109 52 -162t140 -53q79 0 124 27l14 97l109 -10l-13 -153q-29 -31 -91 -52.5t-129 -25.5v-32h8q46 0 67.5 -23t21.5 -57z" />
    <glyph glyph-name="uni00C8" unicode="&#xc8;" horiz-adv-x="592" 
d="M453 745l-16 -57l-215 28l29 117zM580 0h-502v114h70v422h-70v114h496l20 -190l-114 -10l-20 86h-178v-153h274v-113h-274v-156h184l20 86l114 -10z" />
    <glyph glyph-name="uni00C9" unicode="&#xc9;" horiz-adv-x="592" 
d="M519 716l-215 -28l-16 57l202 88zM580 0h-502v114h70v422h-70v114h496l20 -190l-114 -10l-20 86h-178v-153h274v-113h-274v-156h184l20 86l114 -10z" />
    <glyph glyph-name="uni00CA" unicode="&#xca;" horiz-adv-x="592" 
d="M530 737l-28 -52l-135 60l-124 -60l-29 53l135 106h45zM580 0h-502v114h70v422h-70v114h496l20 -190l-114 -10l-20 86h-178v-153h274v-113h-274v-156h184l20 86l114 -10z" />
    <glyph glyph-name="uni00CB" unicode="&#xcb;" horiz-adv-x="592" 
d="M202 705v134h129v-134h-129zM387 705v134h129v-134h-129zM580 0h-502v114h70v422h-70v114h496l20 -190l-114 -10l-20 86h-178v-153h274v-113h-274v-156h184l20 86l114 -10z" />
    <glyph glyph-name="uni00CC" unicode="&#xcc;" horiz-adv-x="352" 
d="M307 745l-16 -57l-215 28l29 117zM351 0h-274v114h70v422h-70v114h274v-114h-70v-422h70v-114z" />
    <glyph glyph-name="uni00CD" unicode="&#xcd;" horiz-adv-x="352" 
d="M344 716l-215 -28l-16 57l202 88zM352 0h-274v114h70v422h-70v114h274v-114h-70v-422h70v-114z" />
    <glyph glyph-name="uni00CE" unicode="&#xce;" horiz-adv-x="352" 
d="M352 737l-28 -52l-135 60l-124 -60l-29 53l135 106h45zM331 0h-274v114h70v422h-70v114h274v-114h-70v-422h70v-114z" />
    <glyph glyph-name="uni00CF" unicode="&#xcf;" horiz-adv-x="352" 
d="M48 705v134h129v-134h-129zM233 705v134h129v-134h-129zM337 0h-274v114h70v422h-70v114h274v-114h-70v-422h70v-114z" />
    <glyph glyph-name="uni00D0" unicode="&#xd0;" horiz-adv-x="700" 
d="M716 328q0 -150 -88 -239t-240 -89h-306v114h70v173h-67v110h67v139h-70v114h298q163 0 249.5 -87t86.5 -235zM572 326q0 210 -195 210h-91v-139h121v-110h-121v-173h91q195 0 195 212z" />
    <glyph glyph-name="uni00D1" unicode="&#xd1;" horiz-adv-x="760" 
d="M555 820q0 -120 -85 -120q-25 0 -64 15.5t-62 15.5q-33 0 -42 -33l-50 16q-3 36 18.5 73t67.5 37q23 0 61 -15.5t54 -15.5q36 0 48 38zM762 536h-70v-536l-75 -1l-349 413h-4v-298h90v-114h-285v114h70v422h-81v114h177l328 -386h4v272h-94v114h289v-114z" />
    <glyph glyph-name="uni00D2" unicode="&#xd2;" horiz-adv-x="711" 
d="M472 745l-16 -57l-215 28l29 117zM712 326q0 -143 -90.5 -239.5t-244.5 -96.5q-153 0 -241 96t-88 238q0 145 91.5 240.5t241.5 95.5q151 0 241 -96t90 -238zM567 322q0 104 -48.5 162t-138.5 58q-93 0 -140 -59t-47 -156q0 -96 47 -157.5t144 -61.5q92 0 137.5 57.5
t45.5 156.5z" />
    <glyph glyph-name="uni00D3" unicode="&#xd3;" horiz-adv-x="711" 
d="M546 716l-215 -28l-16 57l202 88zM712 326q0 -143 -90.5 -239.5t-244.5 -96.5q-153 0 -241 96t-88 238q0 145 91.5 240.5t241.5 95.5q151 0 241 -96t90 -238zM567 322q0 104 -48.5 162t-138.5 58q-93 0 -140 -59t-47 -156q0 -96 47 -157.5t144 -61.5q92 0 137.5 57.5
t45.5 156.5z" />
    <glyph glyph-name="uni00D4" unicode="&#xd4;" horiz-adv-x="711" 
d="M542 737l-28 -52l-135 60l-124 -60l-29 53l135 106h45zM712 326q0 -143 -90.5 -239.5t-244.5 -96.5q-153 0 -241 96t-88 238q0 145 91.5 240.5t241.5 95.5q151 0 241 -96t90 -238zM567 322q0 104 -48.5 162t-138.5 58q-93 0 -140 -59t-47 -156q0 -96 47 -157.5t144 -61.5
q92 0 137.5 57.5t45.5 156.5z" />
    <glyph glyph-name="uni00D5" unicode="&#xd5;" horiz-adv-x="711" 
d="M539 820q0 -120 -85 -120q-25 0 -64 15.5t-62 15.5q-33 0 -42 -33l-50 16q-3 36 18.5 73t67.5 37q23 0 61 -15.5t54 -15.5q36 0 48 38zM712 326q0 -143 -90.5 -239.5t-244.5 -96.5q-153 0 -241 96t-88 238q0 145 91.5 240.5t241.5 95.5q151 0 241 -96t90 -238zM567 322
q0 104 -48.5 162t-138.5 58q-93 0 -140 -59t-47 -156q0 -96 47 -157.5t144 -61.5q92 0 137.5 57.5t45.5 156.5z" />
    <glyph glyph-name="uni00D6" unicode="&#xd6;" horiz-adv-x="711" 
d="M229 705v134h129v-134h-129zM414 705v134h129v-134h-129zM712 326q0 -143 -90.5 -239.5t-244.5 -96.5q-153 0 -241 96t-88 238q0 145 91.5 240.5t241.5 95.5q151 0 241 -96t90 -238zM567 322q0 104 -48.5 162t-138.5 58q-93 0 -140 -59t-47 -156q0 -96 47 -157.5
t144 -61.5q92 0 137.5 57.5t45.5 156.5z" />
    <glyph glyph-name="uni00D7" unicode="&#xd7;" horiz-adv-x="372" 
d="M125 120l-63 62l94 94l-92 92l62 62l92 -92l90 90l62 -62l-90 -90l91 -91l-62 -63l-91 91z" />
    <glyph glyph-name="uni00D8" unicode="&#xd8;" horiz-adv-x="714" 
d="M714 326q0 -143 -90.5 -239.5t-244.5 -96.5q-105 0 -182 47l-31 -37h-115l79 95q-80 91 -80 229q0 145 91.5 240.5t241.5 95.5q99 0 177 -46l29 36h126l-81 -96q80 -92 80 -228zM195 327q0 -70 25 -123l260 314q-43 24 -98 24q-93 0 -140 -59t-47 -156zM569 322
q0 72 -25 125l-264 -312q43 -27 106 -27q92 0 137.5 57.5t45.5 156.5z" />
    <glyph glyph-name="uni00D9" unicode="&#xd9;" horiz-adv-x="719" 
d="M504 745l-16 -57l-215 28l29 117zM720 536h-58v-267q0 -55 -14.5 -102.5t-46 -88.5t-87 -64.5t-130.5 -23.5q-139 0 -204.5 76t-65.5 192v278h-58v114h268v-114h-76v-274q0 -154 143 -154q74 0 110 42.5t36 118.5v267h-76v114h259v-114z" />
    <glyph glyph-name="uni00DA" unicode="&#xda;" horiz-adv-x="719" 
d="M556 716l-215 -28l-16 57l202 88zM720 536h-58v-267q0 -55 -14.5 -102.5t-46 -88.5t-87 -64.5t-130.5 -23.5q-139 0 -204.5 76t-65.5 192v278h-58v114h268v-114h-76v-274q0 -154 143 -154q74 0 110 42.5t36 118.5v267h-76v114h259v-114z" />
    <glyph glyph-name="uni00DB" unicode="&#xdb;" horiz-adv-x="719" 
d="M545 737l-28 -52l-135 60l-124 -60l-29 53l135 106h45zM720 536h-58v-267q0 -55 -14.5 -102.5t-46 -88.5t-87 -64.5t-130.5 -23.5q-139 0 -204.5 76t-65.5 192v278h-58v114h268v-114h-76v-274q0 -154 143 -154q74 0 110 42.5t36 118.5v267h-76v114h259v-114z" />
    <glyph glyph-name="uni00DC" unicode="&#xdc;" horiz-adv-x="719" 
d="M237 705v134h129v-134h-129zM422 705v134h129v-134h-129zM720 536h-58v-267q0 -55 -14.5 -102.5t-46 -88.5t-87 -64.5t-130.5 -23.5q-139 0 -204.5 76t-65.5 192v278h-58v114h268v-114h-76v-274q0 -154 143 -154q74 0 110 42.5t36 118.5v267h-76v114h259v-114z" />
    <glyph glyph-name="uni00DD" unicode="&#xdd;" horiz-adv-x="646" 
d="M483 716l-215 -28l-16 57l202 88zM640 536h-56l-189 -282v-140h106v-114h-340v114h100v141l-195 281h-58v114h269v-114h-54l109 -164h6l108 164h-62v114h256v-114z" />
    <glyph glyph-name="uni00DE" unicode="&#xde;" horiz-adv-x="604" 
d="M352 0h-274v114h70v422h-70v114h274v-114h-70v-20h104q247 0 247 -181q0 -98 -67.5 -144.5t-173.5 -46.5h-110v-30h70v-114zM369 432h-87v-205h85q122 0 122 105q0 50 -27.5 75t-92.5 25z" />
    <glyph glyph-name="uni00DF" unicode="&#xdf;" horiz-adv-x="685" 
d="M709 137q0 -73 -58.5 -110t-163.5 -37q-108 0 -193 44l18 126l100 -11v-52q27 -9 68 -9q99 0 99 43q0 22 -28 34t-68 18t-80 16.5t-68 39.5t-28 77q0 40 20.5 67t49.5 41t58 25.5t49.5 31t20.5 49.5q0 72 -118 72q-75 0 -108.5 -30t-33.5 -91v-481h-189v98h60v255h-55v98
h55v42q0 57 22.5 98.5t62 64t86 32.5t102.5 10q126 0 186.5 -45.5t60.5 -114.5q0 -39 -19.5 -67t-47.5 -44t-56 -29.5t-47.5 -30t-19.5 -38.5t19.5 -34.5t48.5 -17t63.5 -13t63.5 -19.5t48.5 -38.5t19.5 -69.5z" />
    <glyph glyph-name="uni00E0" unicode="&#xe0;" horiz-adv-x="506" 
d="M359 557l-34 -49l-195 91l67 101zM95 419q60 24 99 32.5t94 8.5q77 0 128 -39.5t51 -113.5v-196q0 -35 31 -35q8 0 19 3l1 -68q-39 -21 -81 -21q-44 0 -69 23.5t-30 65.5v1q-51 -90 -145 -90q-56 0 -97.5 32t-41.5 97q0 137 210 137q43 0 74 -4v15q0 23 -1.5 36t-8 30.5
t-22.5 26t-42 8.5q-44 0 -69 -13l-17 -64l-103 11zM338 184v6q-42 6 -65 6q-86 0 -86 -62q0 -52 53 -52q37 0 65.5 26t32.5 76z" />
    <glyph glyph-name="uni00E1" unicode="&#xe1;" horiz-adv-x="506" 
d="M429 599l-195 -91l-34 49l162 143zM95 419q60 24 99 32.5t94 8.5q77 0 128 -39.5t51 -113.5v-196q0 -35 31 -35q8 0 19 3l1 -68q-39 -21 -81 -21q-44 0 -69 23.5t-30 65.5v1q-51 -90 -145 -90q-56 0 -97.5 32t-41.5 97q0 137 210 137q43 0 74 -4v15q0 23 -1.5 36t-8 30.5
t-22.5 26t-42 8.5q-44 0 -69 -13l-17 -64l-103 11zM338 184v6q-42 6 -65 6q-86 0 -86 -62q0 -52 53 -52q37 0 65.5 26t32.5 76z" />
    <glyph glyph-name="uni00E2" unicode="&#xe2;" horiz-adv-x="506" 
d="M440 557l-34 -49l-135 67l-112 -68l-35 51l135 126h45zM95 419q60 24 99 32.5t94 8.5q77 0 128 -39.5t51 -113.5v-196q0 -35 31 -35q8 0 19 3l1 -68q-39 -21 -81 -21q-44 0 -69 23.5t-30 65.5v1q-51 -90 -145 -90q-56 0 -97.5 32t-41.5 97q0 137 210 137q43 0 74 -4v15
q0 23 -1.5 36t-8 30.5t-22.5 26t-42 8.5q-44 0 -69 -13l-17 -64l-103 11zM338 184v6q-42 6 -65 6q-86 0 -86 -62q0 -52 53 -52q37 0 65.5 26t32.5 76z" />
    <glyph glyph-name="uni00E3" unicode="&#xe3;" horiz-adv-x="506" 
d="M434 647q0 -53 -19 -91.5t-64 -38.5q-27 0 -66.5 20.5t-58.5 20.5q-33 0 -45 -43l-50 16q-3 38 19 81t66 43q24 0 62.5 -19t54.5 -19q34 0 47 41zM95 419q60 24 99 32.5t94 8.5q77 0 128 -39.5t51 -113.5v-196q0 -35 31 -35q8 0 19 3l1 -68q-39 -21 -81 -21
q-44 0 -69 23.5t-30 65.5v1q-51 -90 -145 -90q-56 0 -97.5 32t-41.5 97q0 137 210 137q43 0 74 -4v15q0 23 -1.5 36t-8 30.5t-22.5 26t-42 8.5q-44 0 -69 -13l-17 -64l-103 11zM338 184v6q-42 6 -65 6q-86 0 -86 -62q0 -52 53 -52q37 0 65.5 26t32.5 76z" />
    <glyph glyph-name="uni00E4" unicode="&#xe4;" horiz-adv-x="506" 
d="M310 531v134h129v-134h-129zM125 531v134h129v-134h-129zM95 419q60 24 99 32.5t94 8.5q77 0 128 -39.5t51 -113.5v-196q0 -35 31 -35q8 0 19 3l1 -68q-39 -21 -81 -21q-44 0 -69 23.5t-30 65.5v1q-51 -90 -145 -90q-56 0 -97.5 32t-41.5 97q0 137 210 137q43 0 74 -4v15
q0 23 -1.5 36t-8 30.5t-22.5 26t-42 8.5q-44 0 -69 -13l-17 -64l-103 11zM338 184v6q-42 6 -65 6q-86 0 -86 -62q0 -52 53 -52q37 0 65.5 26t32.5 76z" />
    <glyph glyph-name="uni00E5" unicode="&#xe5;" horiz-adv-x="506" 
d="M387 608q0 -43 -26.5 -68.5t-79.5 -25.5q-51 0 -77 24t-26 67t26.5 68t79.5 25q52 0 77.5 -24.5t25.5 -65.5zM307 610q0 28 -24 28q-15 0 -20 -8t-5 -25t4.5 -24t19.5 -7t20 8.5t5 27.5zM95 419q60 24 99 32.5t94 8.5q77 0 128 -39.5t51 -113.5v-196q0 -35 31 -35
q8 0 19 3l1 -68q-39 -21 -81 -21q-44 0 -69 23.5t-30 65.5v1q-51 -90 -145 -90q-56 0 -97.5 32t-41.5 97q0 137 210 137q43 0 74 -4v15q0 23 -1.5 36t-8 30.5t-22.5 26t-42 8.5q-44 0 -69 -13l-17 -64l-103 11zM338 184v6q-42 6 -65 6q-86 0 -86 -62q0 -52 53 -52
q37 0 65.5 26t32.5 76z" />
    <glyph glyph-name="uni00E6" unicode="&#xe6;" horiz-adv-x="773" 
d="M775 142q-5 -64 -61 -108t-149 -44q-134 0 -194 90q-61 -90 -172 -90q-64 0 -109.5 32t-45.5 97q0 137 215 137q28 0 74 -4v15q0 23 -1.5 36t-8 30.5t-22.5 26t-42 8.5q-44 0 -69 -13l-17 -64l-103 11l20 117q60 24 99 32.5t94 8.5q83 0 134 -46q59 46 142 46
q94 0 152.5 -55t59.5 -143q0 -32 -7 -63h-291q5 -53 29.5 -77.5t72.5 -24.5q80 0 92 65zM637 267q8 39 -12.5 67.5t-65.5 28.5q-75 0 -85 -96h163zM182 134q0 -52 53 -52q38 0 68 27.5t30 77.5v3q-42 6 -65 6q-86 0 -86 -62z" />
    <glyph glyph-name="uni00E7" unicode="&#xe7;" horiz-adv-x="471" 
d="M406 -122q0 -46 -37.5 -67t-92.5 -21q-79 0 -116 30l23 70q35 -23 78 -23q36 0 36 21q0 25 -39 25h-37v81q-82 12 -130.5 69.5t-48.5 154.5q0 116 66.5 179t169.5 63q85 0 163 -41l20 -137l-103 -11l-15 74q-39 13 -68 13q-44 0 -71.5 -33t-27.5 -101q0 -63 26 -97.5
t77 -34.5q76 0 89 96l108 -20q-7 -64 -47.5 -114t-119.5 -61v-35h8q46 0 67.5 -23t21.5 -57z" />
    <glyph glyph-name="uni00E8" unicode="&#xe8;" horiz-adv-x="483" 
d="M344 557l-34 -49l-195 91l67 101zM484 142q-5 -64 -61 -108t-149 -44q-104 0 -168 58.5t-64 168.5q0 107 60.5 175t165.5 68q94 0 152 -54t60 -142q0 -33 -7 -65h-296q11 -107 106 -107q80 0 93 70zM347 274q5 37 -15.5 65.5t-63.5 28.5q-38 0 -61 -25t-29 -69h169z" />
    <glyph glyph-name="uni00E9" unicode="&#xe9;" horiz-adv-x="483" 
d="M451 599l-195 -91l-34 49l162 143zM484 142q-5 -64 -61 -108t-149 -44q-104 0 -168 58.5t-64 168.5q0 107 60.5 175t165.5 68q94 0 152 -54t60 -142q0 -33 -7 -65h-296q11 -107 106 -107q80 0 93 70zM347 274q5 37 -15.5 65.5t-63.5 28.5q-38 0 -61 -25t-29 -69h169z" />
    <glyph glyph-name="uni00EA" unicode="&#xea;" horiz-adv-x="483" 
d="M435 557l-34 -49l-135 67l-112 -68l-35 51l135 126h45zM484 142q-5 -64 -61 -108t-149 -44q-104 0 -168 58.5t-64 168.5q0 107 60.5 175t165.5 68q94 0 152 -54t60 -142q0 -33 -7 -65h-296q11 -107 106 -107q80 0 93 70zM347 274q5 37 -15.5 65.5t-63.5 28.5
q-38 0 -61 -25t-29 -69h169z" />
    <glyph glyph-name="uni00EB" unicode="&#xeb;" horiz-adv-x="483" 
d="M123 531v134h129v-134h-129zM308 531v134h129v-134h-129zM484 142q-5 -64 -61 -108t-149 -44q-104 0 -168 58.5t-64 168.5q0 107 60.5 175t165.5 68q94 0 152 -54t60 -142q0 -33 -7 -65h-296q11 -107 106 -107q80 0 93 70zM347 274q5 37 -15.5 65.5t-63.5 28.5
q-38 0 -61 -25t-29 -69h169z" />
    <glyph glyph-name="uni00EC" unicode="&#xec;" horiz-adv-x="299" 
d="M185 557l-34 -49l-195 91l67 101zM10 98h60v255h-65v98h194v-353h60v-98h-249v98z" />
    <glyph glyph-name="uni00ED" unicode="&#xed;" horiz-adv-x="299" 
d="M314 599l-195 -91l-34 49l162 143zM59 98h60v255h-65v98h194v-353h60v-98h-249v98z" />
    <glyph glyph-name="uni00EE" unicode="&#xee;" horiz-adv-x="299" 
d="M266 557l-34 -49l-135 67l-112 -68l-35 51l135 126h45zM7 98h60v255h-65v98h194v-353h60v-98h-249v98z" />
    <glyph glyph-name="uni00EF" unicode="&#xef;" horiz-adv-x="299" 
d="M163 531v134h129v-134h-129zM-22 531v134h129v-134h-129zM21 98h60v255h-65v98h194v-353h60v-98h-249v98z" />
    <glyph glyph-name="uni00F0" unicode="&#xf0;" horiz-adv-x="528" 
d="M136 510l43 64l-57 30l55 94q35 -17 65 -33l36 53l69 -40l-37 -55q213 -150 213 -372v-26q0 -107 -69.5 -171t-178.5 -64q-106 0 -170.5 61t-64.5 167q0 108 65 175t163 67q33 0 65 -10q-31 44 -86 82l-43 -64zM281 352q-102 0 -102 -125q0 -59 25.5 -94t75.5 -35
q48 0 76 32.5t28 89.5v37q0 45 -29 70t-74 25z" />
    <glyph glyph-name="uni00F1" unicode="&#xf1;" horiz-adv-x="593" 
d="M475 647q0 -53 -19 -91.5t-64 -38.5q-27 0 -66.5 20.5t-58.5 20.5q-33 0 -45 -43l-50 16q-3 38 19 81t66 43q24 0 62.5 -19t54.5 -19q34 0 47 41zM605 0h-249v97h60v157q0 57 -19 82.5t-58 25.5q-45 0 -70.5 -28t-26.5 -75v-162h60v-97h-249v97h60v256h-65v98h194v-69
q45 78 145 78q68 0 113 -40t45 -116v-207h60v-97z" />
    <glyph glyph-name="uni00F2" unicode="&#xf2;" horiz-adv-x="522" 
d="M357 557l-34 -49l-195 91l67 101zM523 225q0 -106 -69.5 -170.5t-178.5 -64.5q-106 0 -170.5 61.5t-64.5 168.5q0 105 63 173t179 68q117 0 179 -67.5t62 -168.5zM390 229q0 66 -30.5 99.5t-79.5 33.5q-50 0 -78.5 -36t-28.5 -99q0 -60 27.5 -99t78.5 -39q50 0 80.5 38
t30.5 102z" />
    <glyph glyph-name="uni00F3" unicode="&#xf3;" horiz-adv-x="522" 
d="M470 599l-195 -91l-34 49l162 143zM523 225q0 -106 -69.5 -170.5t-178.5 -64.5q-106 0 -170.5 61.5t-64.5 168.5q0 105 63 173t179 68q117 0 179 -67.5t62 -168.5zM390 229q0 66 -30.5 99.5t-79.5 33.5q-50 0 -78.5 -36t-28.5 -99q0 -60 27.5 -99t78.5 -39q50 0 80.5 38
t30.5 102z" />
    <glyph glyph-name="uni00F4" unicode="&#xf4;" horiz-adv-x="522" 
d="M450 557l-34 -49l-135 67l-112 -68l-35 51l135 126h45zM523 225q0 -106 -69.5 -170.5t-178.5 -64.5q-106 0 -170.5 61.5t-64.5 168.5q0 105 63 173t179 68q117 0 179 -67.5t62 -168.5zM390 229q0 66 -30.5 99.5t-79.5 33.5q-50 0 -78.5 -36t-28.5 -99q0 -60 27.5 -99
t78.5 -39q50 0 80.5 38t30.5 102z" />
    <glyph glyph-name="uni00F5" unicode="&#xf5;" horiz-adv-x="522" 
d="M436 647q0 -53 -19 -91.5t-64 -38.5q-27 0 -66.5 20.5t-58.5 20.5q-33 0 -45 -43l-50 16q-3 38 19 81t66 43q24 0 62.5 -19t54.5 -19q34 0 47 41zM523 225q0 -106 -69.5 -170.5t-178.5 -64.5q-106 0 -170.5 61.5t-64.5 168.5q0 105 63 173t179 68q117 0 179 -67.5
t62 -168.5zM390 229q0 66 -30.5 99.5t-79.5 33.5q-50 0 -78.5 -36t-28.5 -99q0 -60 27.5 -99t78.5 -39q50 0 80.5 38t30.5 102z" />
    <glyph glyph-name="uni00F6" unicode="&#xf6;" horiz-adv-x="522" 
d="M127 531v134h129v-134h-129zM312 531v134h129v-134h-129zM523 225q0 -106 -69.5 -170.5t-178.5 -64.5q-106 0 -170.5 61.5t-64.5 168.5q0 105 63 173t179 68q117 0 179 -67.5t62 -168.5zM390 229q0 66 -30.5 99.5t-79.5 33.5q-50 0 -78.5 -36t-28.5 -99q0 -60 27.5 -99
t78.5 -39q50 0 80.5 38t30.5 102z" />
    <glyph glyph-name="uni00F7" unicode="&#xf7;" horiz-adv-x="405" 
d="M155 361v163h153v-163h-153zM405 237h-347v88h347v-88zM155 39v163h153v-163h-153z" />
    <glyph glyph-name="uni00F8" unicode="&#xf8;" horiz-adv-x="524" 
d="M524 225q0 -107 -69.5 -171t-178.5 -64q-76 0 -132 32l-19 -22h-85l55 62q-54 60 -54 157q0 105 63 173t179 68q77 0 134 -33l21 24h86l-57 -64q57 -65 57 -162zM180 227q0 -36 8 -60l150 170q-24 15 -57 15q-48 0 -74.5 -32t-26.5 -93zM385 229q0 30 -8 56l-152 -172
q23 -15 55 -15q49 0 77 34.5t28 96.5z" />
    <glyph glyph-name="uni00F9" unicode="&#xf9;" horiz-adv-x="585" 
d="M342 557l-34 -49l-195 91l67 101zM585 0h-194v69q-45 -78 -145 -78q-68 0 -113 40t-45 116v207h-60v97h189v-254q0 -57 19 -82.5t58 -25.5q46 0 71.5 29.5t25.5 77.5v158h-73v97h202v-354h65v-97z" />
    <glyph glyph-name="uni00FA" unicode="&#xfa;" horiz-adv-x="585" 
d="M463 599l-195 -91l-34 49l162 143zM585 0h-194v69q-45 -78 -145 -78q-68 0 -113 40t-45 116v207h-60v97h189v-254q0 -57 19 -82.5t58 -25.5q46 0 71.5 29.5t25.5 77.5v158h-73v97h202v-354h65v-97z" />
    <glyph glyph-name="uni00FB" unicode="&#xfb;" horiz-adv-x="585" 
d="M451 557l-34 -49l-135 67l-112 -68l-35 51l135 126h45zM585 0h-194v69q-45 -78 -145 -78q-68 0 -113 40t-45 116v207h-60v97h189v-254q0 -57 19 -82.5t58 -25.5q46 0 71.5 29.5t25.5 77.5v158h-73v97h202v-354h65v-97z" />
    <glyph glyph-name="uni00FC" unicode="&#xfc;" horiz-adv-x="585" 
d="M125 531v134h129v-134h-129zM310 531v134h129v-134h-129zM585 0h-194v69q-45 -78 -145 -78q-68 0 -113 40t-45 116v207h-60v97h189v-254q0 -57 19 -82.5t58 -25.5q46 0 71.5 29.5t25.5 77.5v158h-73v97h202v-354h65v-97z" />
    <glyph glyph-name="uni00FD" unicode="&#xfd;" horiz-adv-x="529" 
d="M441 599l-195 -91l-34 49l162 143zM528 354h-44l-145 -354l-43 -113h59v-100h-249v100h72l36 106l-158 361h-46v97h230v-97h-45l92 -208h6l68 208h-39v97h206v-97z" />
    <glyph glyph-name="uni00FE" unicode="&#xfe;" horiz-adv-x="545" 
d="M-27 -115h60v705h-65v98h194v-323q44 95 152 95q87 0 140 -60t53 -164q0 -105 -54.5 -175.5t-152.5 -70.5q-95 0 -138 67v-172h80v-98h-269v98zM265 97q46 0 74.5 31.5t28.5 96.5q0 62 -26.5 95t-69.5 33q-48 0 -78 -37.5t-32 -88.5v-16q0 -55 28.5 -84.5t74.5 -29.5z
" />
    <glyph glyph-name="uni00FF" unicode="&#xff;" horiz-adv-x="529" 
d="M132 531v134h129v-134h-129zM317 531v134h129v-134h-129zM528 354h-44l-145 -354l-43 -113h59v-100h-249v100h72l36 106l-158 361h-46v97h230v-97h-45l92 -208h6l68 208h-39v97h206v-97z" />
    <glyph glyph-name="uni0100" unicode="&#x100;" horiz-adv-x="687" 
d="M506 721h-308v98h308v-98zM700 0h-259v114h52l-24 66h-221l-27 -66h61v-114h-256v114h59l186 422h-90v114h223l234 -536h62v-114zM433 276l-68 183h-6l-73 -183h147z" />
    <glyph glyph-name="uni0101" unicode="&#x101;" horiz-adv-x="506" 
d="M410 536h-268v98h268v-98zM95 419q60 24 99 32.5t94 8.5q77 0 128 -39.5t51 -113.5v-196q0 -35 31 -35q8 0 19 3l1 -68q-39 -21 -81 -21q-44 0 -69 23.5t-30 65.5v1q-51 -90 -145 -90q-56 0 -97.5 32t-41.5 97q0 137 210 137q43 0 74 -4v15q0 23 -1.5 36t-8 30.5
t-22.5 26t-42 8.5q-44 0 -69 -13l-17 -64l-103 11zM338 184v6q-42 6 -65 6q-86 0 -86 -62q0 -52 53 -52q37 0 65.5 26t32.5 76z" />
    <glyph glyph-name="uni0102" unicode="&#x102;" horiz-adv-x="687" 
d="M503 833q0 -69 -37 -103.5t-103 -34.5q-67 0 -103 35t-36 103h102q0 -61 37 -61q38 0 38 61h102zM700 0h-259v114h52l-24 66h-221l-27 -66h61v-114h-256v114h59l186 422h-90v114h223l234 -536h62v-114zM433 276l-68 183h-6l-73 -183h147z" />
    <glyph glyph-name="uni0103" unicode="&#x103;" horiz-adv-x="506" 
d="M417 653q0 -69 -38 -103.5t-104 -34.5t-101.5 35t-35.5 103h102q0 -61 37 -61q38 0 38 61h102zM95 419q60 24 99 32.5t94 8.5q77 0 128 -39.5t51 -113.5v-196q0 -35 31 -35q8 0 19 3l1 -68q-39 -21 -81 -21q-44 0 -69 23.5t-30 65.5v1q-51 -90 -145 -90q-56 0 -97.5 32
t-41.5 97q0 137 210 137q43 0 74 -4v15q0 23 -1.5 36t-8 30.5t-22.5 26t-42 8.5q-44 0 -69 -13l-17 -64l-103 11zM338 184v6q-42 6 -65 6q-86 0 -86 -62q0 -52 53 -52q37 0 65.5 26t32.5 76z" />
    <glyph glyph-name="uni0104" unicode="&#x104;" horiz-adv-x="687" 
d="M704 -188q-42 -20 -90 -20q-52 0 -85 22.5t-33 68.5q0 72 73 117h-128v114h52l-24 66h-221l-27 -66h61v-114h-256v114h59l186 422h-90v114h223l234 -536h62v-114h-51q-43 -30 -43 -74t43 -44q27 0 46 12zM433 276l-68 183h-6l-73 -183h147z" />
    <glyph glyph-name="uni0105" unicode="&#x105;" horiz-adv-x="506" 
d="M525 -188q-42 -20 -90 -20q-52 0 -85 22.5t-33 68.5q0 73 72 117q-45 19 -51 79v1q-51 -90 -145 -90q-56 0 -97.5 32t-41.5 97q0 137 210 137q43 0 74 -4v15q0 23 -1.5 36t-8 30.5t-22.5 26t-42 8.5q-44 0 -69 -13l-17 -64l-103 11l20 117q60 24 99 32.5t94 8.5
q77 0 128 -39.5t51 -113.5v-196q0 -35 31 -35q8 0 19 3l1 -68q-26 -14 -59 -19q-32 -27 -32 -66q0 -44 43 -44q26 0 46 12zM338 184v6q-42 6 -65 6q-86 0 -86 -62q0 -52 53 -52q37 0 65.5 26t32.5 76z" />
    <glyph glyph-name="uni0106" unicode="&#x106;" horiz-adv-x="644" 
d="M544 716l-215 -28l-16 57l202 88zM618 69q-32 -34 -102 -56.5t-141 -22.5q-141 0 -234 90.5t-93 233.5q0 48 10.5 94.5t36 92.5t62.5 81t95 56.5t129 21.5q77 0 137.5 -22.5t96.5 -55.5l16 -151l-109 -10l-14 86q-52 35 -133 35q-85 0 -134 -57t-49 -162q0 -109 52 -162
t140 -53q79 0 124 27l14 97l109 -10z" />
    <glyph glyph-name="uni0107" unicode="&#x107;" horiz-adv-x="471" 
d="M426 599l-195 -91l-34 49l162 143zM476 168q-8 -72 -59 -125t-150 -53q-101 0 -163 59t-62 169q0 116 66.5 179t169.5 63q85 0 163 -41l20 -137l-103 -11l-15 74q-39 13 -68 13q-44 0 -71.5 -33t-27.5 -101q0 -63 26 -97.5t77 -34.5q76 0 89 96z" />
    <glyph glyph-name="uni0108" unicode="&#x108;" horiz-adv-x="644" 
d="M542 737l-28 -52l-135 60l-124 -60l-29 53l135 106h45zM618 69q-32 -34 -102 -56.5t-141 -22.5q-141 0 -234 90.5t-93 233.5q0 48 10.5 94.5t36 92.5t62.5 81t95 56.5t129 21.5q77 0 137.5 -22.5t96.5 -55.5l16 -151l-109 -10l-14 86q-52 35 -133 35q-85 0 -134 -57
t-49 -162q0 -109 52 -162t140 -53q79 0 124 27l14 97l109 -10z" />
    <glyph glyph-name="uni0109" unicode="&#x109;" horiz-adv-x="471" 
d="M437 557l-34 -49l-135 67l-112 -68l-35 51l135 126h45zM476 168q-8 -72 -59 -125t-150 -53q-101 0 -163 59t-62 169q0 116 66.5 179t169.5 63q85 0 163 -41l20 -137l-103 -11l-15 74q-39 13 -68 13q-44 0 -71.5 -33t-27.5 -101q0 -63 26 -97.5t77 -34.5q76 0 89 96z" />
    <glyph glyph-name="uni010A" unicode="&#x10a;" horiz-adv-x="644" 
d="M317 705v134h129v-134h-129zM618 69q-32 -34 -102 -56.5t-141 -22.5q-141 0 -234 90.5t-93 233.5q0 48 10.5 94.5t36 92.5t62.5 81t95 56.5t129 21.5q77 0 137.5 -22.5t96.5 -55.5l16 -151l-109 -10l-14 86q-52 35 -133 35q-85 0 -134 -57t-49 -162q0 -109 52 -162
t140 -53q79 0 124 27l14 97l109 -10z" />
    <glyph glyph-name="uni010B" unicode="&#x10b;" horiz-adv-x="471" 
d="M213 531v134h129v-134h-129zM476 168q-8 -72 -59 -125t-150 -53q-101 0 -163 59t-62 169q0 116 66.5 179t169.5 63q85 0 163 -41l20 -137l-103 -11l-15 74q-39 13 -68 13q-44 0 -71.5 -33t-27.5 -101q0 -63 26 -97.5t77 -34.5q76 0 89 96z" />
    <glyph glyph-name="uni010C" unicode="&#x10c;" horiz-adv-x="644" 
d="M537 791l-135 -106h-45l-136 107l28 52l137 -60l122 60zM618 69q-32 -34 -102 -56.5t-141 -22.5q-141 0 -234 90.5t-93 233.5q0 48 10.5 94.5t36 92.5t62.5 81t95 56.5t129 21.5q77 0 137.5 -22.5t96.5 -55.5l16 -151l-109 -10l-14 86q-52 35 -133 35q-85 0 -134 -57
t-49 -162q0 -109 52 -162t140 -53q79 0 124 27l14 97l109 -10z" />
    <glyph glyph-name="uni010D" unicode="&#x10d;" horiz-adv-x="471" 
d="M423 633l-135 -126h-45l-136 127l34 49l135 -67l112 68zM476 168q-8 -72 -59 -125t-150 -53q-101 0 -163 59t-62 169q0 116 66.5 179t169.5 63q85 0 163 -41l20 -137l-103 -11l-15 74q-39 13 -68 13q-44 0 -71.5 -33t-27.5 -101q0 -63 26 -97.5t77 -34.5q76 0 89 96z" />
    <glyph glyph-name="uni010E" unicode="&#x10e;" horiz-adv-x="698" 
d="M496 791l-135 -106h-45l-136 107l28 52l137 -60l122 60zM712 328q0 -150 -88 -239t-240 -89h-306v114h70v422h-70v114h298q163 0 249.5 -87t86.5 -235zM568 326q0 210 -195 210h-91v-422h91q195 0 195 212z" />
    <glyph glyph-name="uni010F" unicode="&#x10f;" horiz-adv-x="580" 
d="M578 0h-189v84q-47 -94 -154 -94q-88 0 -139.5 61t-51.5 166q0 106 52 174.5t149 68.5q102 0 144 -78v208h-90v98h219v-591h60v-97zM697 681l-36 -224h-98l13 224h121zM389 228v11q0 55 -29 87t-74 32q-46 0 -77 -34t-31 -99q0 -62 29 -97.5t72 -35.5q49 0 79.5 41.5
t30.5 94.5z" />
    <glyph glyph-name="uni0110" unicode="&#x110;" horiz-adv-x="700" 
d="M716 328q0 -150 -88 -239t-240 -89h-306v114h70v173h-67v110h67v139h-70v114h298q163 0 249.5 -87t86.5 -235zM572 326q0 210 -195 210h-91v-139h121v-110h-121v-173h91q195 0 195 212z" />
    <glyph glyph-name="uni0111" unicode="&#x111;" horiz-adv-x="571" 
d="M578 0h-189v84q-47 -94 -154 -94q-88 0 -139.5 61t-51.5 166q0 106 52 174.5t149 68.5q102 0 144 -78v105h-176v72h176v31h-90v98h219v-129h63v-72h-63v-390h60v-97zM389 228v11q0 55 -29 87t-74 32q-46 0 -77 -34t-31 -99q0 -62 29 -97.5t72 -35.5q49 0 79.5 41.5
t30.5 94.5z" />
    <glyph glyph-name="uni0112" unicode="&#x112;" horiz-adv-x="592" 
d="M516 721h-308v98h308v-98zM580 0h-502v114h70v422h-70v114h496l20 -190l-114 -10l-20 86h-178v-153h274v-113h-274v-156h184l20 86l114 -10z" />
    <glyph glyph-name="uni0113" unicode="&#x113;" horiz-adv-x="483" 
d="M411 536h-268v98h268v-98zM484 142q-5 -64 -61 -108t-149 -44q-104 0 -168 58.5t-64 168.5q0 107 60.5 175t165.5 68q94 0 152 -54t60 -142q0 -33 -7 -65h-296q11 -107 106 -107q80 0 93 70zM347 274q5 37 -15.5 65.5t-63.5 28.5q-38 0 -61 -25t-29 -69h169z" />
    <glyph glyph-name="uni0114" unicode="&#x114;" horiz-adv-x="592" 
d="M512 833q0 -69 -37 -103.5t-103 -34.5q-67 0 -103 35t-36 103h102q0 -61 37 -61q38 0 38 61h102zM580 0h-502v114h70v422h-70v114h496l20 -190l-114 -10l-20 86h-178v-153h274v-113h-274v-156h184l20 86l114 -10z" />
    <glyph glyph-name="uni0115" unicode="&#x115;" horiz-adv-x="483" 
d="M415 653q0 -69 -38 -103.5t-104 -34.5t-101.5 35t-35.5 103h102q0 -61 37 -61q38 0 38 61h102zM484 142q-5 -64 -61 -108t-149 -44q-104 0 -168 58.5t-64 168.5q0 107 60.5 175t165.5 68q94 0 152 -54t60 -142q0 -33 -7 -65h-296q11 -107 106 -107q80 0 93 70zM347 274
q5 37 -15.5 65.5t-63.5 28.5q-38 0 -61 -25t-29 -69h169z" />
    <glyph glyph-name="uni0116" unicode="&#x116;" horiz-adv-x="592" 
d="M305 705v134h129v-134h-129zM580 0h-502v114h70v422h-70v114h496l20 -190l-114 -10l-20 86h-178v-153h274v-113h-274v-156h184l20 86l114 -10z" />
    <glyph glyph-name="uni0117" unicode="&#x117;" horiz-adv-x="483" 
d="M211 531v134h129v-134h-129zM484 142q-5 -64 -61 -108t-149 -44q-104 0 -168 58.5t-64 168.5q0 107 60.5 175t165.5 68q94 0 152 -54t60 -142q0 -33 -7 -65h-296q11 -107 106 -107q80 0 93 70zM347 274q5 37 -15.5 65.5t-63.5 28.5q-38 0 -61 -25t-29 -69h169z" />
    <glyph glyph-name="uni0118" unicode="&#x118;" horiz-adv-x="591" 
d="M578 0h-26q-43 -30 -43 -74t43 -44q26 0 46 12l9 -82q-42 -20 -90 -20q-52 0 -85 22.5t-33 68.5q0 72 73 117h-396v114h70v422h-70v114h496l20 -190l-114 -10l-20 86h-178v-153h274v-113h-274v-156h184l20 86l114 -10z" />
    <glyph glyph-name="uni0119" unicode="&#x119;" horiz-adv-x="483" 
d="M484 142q-4 -50 -40 -89t-98 -54q-41 -30 -41 -73q0 -44 43 -44q26 0 46 12l9 -82q-42 -20 -90 -20q-52 0 -85 22.5t-33 68.5q0 63 59 108q-97 5 -154.5 63t-57.5 163q0 107 60.5 175t165.5 68q94 0 152 -54t60 -142q0 -33 -7 -65h-296q11 -107 106 -107q80 0 93 70z
M347 274q5 37 -15.5 65.5t-63.5 28.5q-38 0 -61 -25t-29 -69h169z" />
    <glyph glyph-name="uni011A" unicode="&#x11a;" horiz-adv-x="592" 
d="M522 791l-135 -106h-45l-136 107l28 52l137 -60l122 60zM580 0h-502v114h70v422h-70v114h496l20 -190l-114 -10l-20 86h-178v-153h274v-113h-274v-156h184l20 86l114 -10z" />
    <glyph glyph-name="uni011B" unicode="&#x11b;" horiz-adv-x="483" 
d="M428 633l-135 -126h-45l-136 127l34 49l135 -67l112 68zM484 142q-5 -64 -61 -108t-149 -44q-104 0 -168 58.5t-64 168.5q0 107 60.5 175t165.5 68q94 0 152 -54t60 -142q0 -33 -7 -65h-296q11 -107 106 -107q80 0 93 70zM347 274q5 37 -15.5 65.5t-63.5 28.5
q-38 0 -61 -25t-29 -69h169z" />
    <glyph glyph-name="uni011C" unicode="&#x11c;" horiz-adv-x="682" 
d="M536 737l-28 -52l-135 60l-124 -60l-29 53l135 106h45zM683 246h-32v-246h-104l-13 68q-66 -78 -186 -78q-134 0 -216 93.5t-82 236.5q0 146 88 243t247 97q76 0 141 -22t99 -56l18 -141l-108 -10l-18 76q-52 35 -138 35q-84 0 -134.5 -56t-50.5 -164q0 -105 48 -159.5
t130 -54.5q67 0 105.5 35.5t38.5 98.5v4h-127v113h294v-113z" />
    <glyph glyph-name="uni011D" unicode="&#x11d;" horiz-adv-x="569" 
d="M446 557l-34 -49l-135 67l-112 -68l-35 51l135 126h45zM574 353h-60v-330q0 -112 -63 -178.5t-186 -66.5q-178 0 -227 135l99 56q48 -89 129 -89q53 0 86 38t33 105v59q-43 -82 -148 -82q-83 0 -140 57.5t-57 159.5q0 104 55 173.5t148 69.5q100 0 142 -79v70h189v-98z
M385 228v11q0 55 -28 87t-73 32t-72.5 -33.5t-27.5 -99.5q0 -62 25 -92.5t67 -30.5q50 0 79.5 36.5t29.5 89.5z" />
    <glyph glyph-name="uni011E" unicode="&#x11e;" horiz-adv-x="682" 
d="M530 833q0 -69 -37 -103.5t-103 -34.5q-67 0 -103 35t-36 103h102q0 -61 37 -61q38 0 38 61h102zM683 246h-32v-246h-104l-13 68q-66 -78 -186 -78q-134 0 -216 93.5t-82 236.5q0 146 88 243t247 97q76 0 141 -22t99 -56l18 -141l-108 -10l-18 76q-52 35 -138 35
q-84 0 -134.5 -56t-50.5 -164q0 -105 48 -159.5t130 -54.5q67 0 105.5 35.5t38.5 98.5v4h-127v113h294v-113z" />
    <glyph glyph-name="uni011F" unicode="&#x11f;" horiz-adv-x="569" 
d="M421 653q0 -69 -38 -103.5t-104 -34.5t-101.5 35t-35.5 103h102q0 -61 37 -61q38 0 38 61h102zM574 353h-60v-330q0 -112 -63 -178.5t-186 -66.5q-178 0 -227 135l99 56q48 -89 129 -89q53 0 86 38t33 105v59q-43 -82 -148 -82q-83 0 -140 57.5t-57 159.5q0 104 55 173.5
t148 69.5q100 0 142 -79v70h189v-98zM385 228v11q0 55 -28 87t-73 32t-72.5 -33.5t-27.5 -99.5q0 -62 25 -92.5t67 -30.5q50 0 79.5 36.5t29.5 89.5z" />
    <glyph glyph-name="uni0120" unicode="&#x120;" horiz-adv-x="682" 
d="M322 705v134h129v-134h-129zM683 246h-32v-246h-104l-13 68q-66 -78 -186 -78q-134 0 -216 93.5t-82 236.5q0 146 88 243t247 97q76 0 141 -22t99 -56l18 -141l-108 -10l-18 76q-52 35 -138 35q-84 0 -134.5 -56t-50.5 -164q0 -105 48 -159.5t130 -54.5q67 0 105.5 35.5
t38.5 98.5v4h-127v113h294v-113z" />
    <glyph glyph-name="uni0121" unicode="&#x121;" horiz-adv-x="569" 
d="M228 531v134h129v-134h-129zM574 353h-60v-330q0 -112 -63 -178.5t-186 -66.5q-178 0 -227 135l99 56q48 -89 129 -89q53 0 86 38t33 105v59q-43 -82 -148 -82q-83 0 -140 57.5t-57 159.5q0 104 55 173.5t148 69.5q100 0 142 -79v70h189v-98zM385 228v11q0 55 -28 87
t-73 32t-72.5 -33.5t-27.5 -99.5q0 -62 25 -92.5t67 -30.5q50 0 79.5 36.5t29.5 89.5z" />
    <glyph glyph-name="uni0122" unicode="&#x122;" horiz-adv-x="682" 
d="M683 246h-32v-246h-104l-13 68q-66 -78 -186 -78q-134 0 -216 93.5t-82 236.5q0 146 88 243t247 97q76 0 141 -22t99 -56l18 -141l-108 -10l-18 76q-52 35 -138 35q-84 0 -134.5 -56t-50.5 -164q0 -105 48 -159.5t130 -54.5q67 0 105.5 35.5t38.5 98.5v4h-127v113h294
v-113zM434 -58l-26 -155h-98l3 155h121z" />
    <glyph glyph-name="uni0123" unicode="&#x123;" horiz-adv-x="569" 
d="M221 538l26 155h98l-3 -155h-121zM574 353h-60v-330q0 -112 -63 -178.5t-186 -66.5q-178 0 -227 135l99 56q48 -89 129 -89q53 0 86 38t33 105v59q-43 -82 -148 -82q-83 0 -140 57.5t-57 159.5q0 104 55 173.5t148 69.5q100 0 142 -79v70h189v-98zM385 228v11
q0 55 -28 87t-73 32t-72.5 -33.5t-27.5 -99.5q0 -62 25 -92.5t67 -30.5q50 0 79.5 36.5t29.5 89.5z" />
    <glyph glyph-name="uni0124" unicode="&#x124;" horiz-adv-x="761" 
d="M580 737l-28 -52l-135 60l-124 -60l-29 53l135 106h45zM761 0h-274v114h70v159h-275v-159h70v-114h-274v114h70v422h-70v114h274v-114h-70v-150h275v150h-70v114h274v-114h-70v-422h70v-114z" />
    <glyph glyph-name="uni0125" unicode="&#x125;" horiz-adv-x="582" 
d="M238 753l-34 -49l-135 67l-112 -68l-35 51l135 126h45zM529 0h-249v97h60v157q0 108 -79 108q-43 0 -68 -26.5t-27 -71.5v-167h60v-97h-249v97h60v493h-60v98h189v-306q45 78 145 78q68 0 113 -40t45 -116v-207h60v-97z" />
    <glyph glyph-name="uni0126" unicode="&#x126;" horiz-adv-x="761" 
d="M76 424v77h71v35h-70v114h274v-114h-70v-35h275v35h-70v114h274v-114h-70v-35h66v-77h-66v-310h70v-114h-274v114h70v159h-275v-159h70v-114h-274v114h70v310h-71zM281 386h275v38h-275v-38z" />
    <glyph glyph-name="uni0127" unicode="&#x127;" horiz-adv-x="582" 
d="M584 0h-249v97h60v157q0 108 -79 108q-43 0 -68 -26.5t-27 -71.5v-167h60v-97h-249v97h60v390h-58v72h58v31h-60v98h189v-129h181v-72h-181v-105q45 78 145 78q68 0 113 -40t45 -116v-207h60v-97z" />
    <glyph glyph-name="uni0128" unicode="&#x128;" horiz-adv-x="352" 
d="M358 820q0 -120 -85 -120q-25 0 -64 15.5t-62 15.5q-33 0 -42 -33l-50 16q-3 36 18.5 73t67.5 37q23 0 61 -15.5t54 -15.5q36 0 48 38zM339 0h-274v114h70v422h-70v114h274v-114h-70v-422h70v-114z" />
    <glyph glyph-name="uni0129" unicode="&#x129;" horiz-adv-x="299" 
d="M292 647q0 -53 -19 -91.5t-64 -38.5q-27 0 -66.5 20.5t-58.5 20.5q-33 0 -45 -43l-50 16q-3 38 19 81t66 43q24 0 62.5 -19t54.5 -19q34 0 47 41zM25 98h60v255h-65v98h194v-353h60v-98h-249v98z" />
    <glyph glyph-name="uni012A" unicode="&#x12a;" horiz-adv-x="352" 
d="M354 721h-308v98h308v-98zM336 0h-274v114h70v422h-70v114h274v-114h-70v-422h70v-114z" />
    <glyph glyph-name="uni012B" unicode="&#x12b;" horiz-adv-x="299" 
d="M288 536h-268v98h268v-98zM42 98h60v255h-65v98h194v-353h60v-98h-249v98z" />
    <glyph glyph-name="uni012C" unicode="&#x12c;" horiz-adv-x="352" 
d="M353 833q0 -69 -37 -103.5t-103 -34.5q-67 0 -103 35t-36 103h102q0 -61 37 -61q38 0 38 61h102zM350 0h-274v114h70v422h-70v114h274v-114h-70v-422h70v-114z" />
    <glyph glyph-name="uni012D" unicode="&#x12d;" horiz-adv-x="299" 
d="M295 653q0 -69 -38 -103.5t-104 -34.5t-101.5 35t-35.5 103h102q0 -61 37 -61q38 0 38 61h102zM40 98h60v255h-65v98h194v-353h60v-98h-249v98z" />
    <glyph glyph-name="uni012E" unicode="&#x12e;" horiz-adv-x="351" 
d="M316 -188q-42 -20 -90 -20q-52 0 -85 22.5t-33 68.5q0 72 73 117h-103v114h70v422h-70v114h274v-114h-70v-422h70v-114h-91q-43 -30 -43 -74t43 -44q27 0 46 12z" />
    <glyph glyph-name="uni012F" unicode="&#x12f;" horiz-adv-x="299" 
d="M114 531v134h129v-134h-129zM266 -106l9 -82q-42 -20 -90 -20q-52 0 -85 22.5t-33 68.5q0 72 73 117h-81v98h60v255h-65v98h194v-353h60v-98h-88q-43 -30 -43 -74t43 -44q26 0 46 12z" />
    <glyph glyph-name="uni0130" unicode="&#x130;" horiz-adv-x="352" 
d="M150 705v134h129v-134h-129zM352 0h-274v114h70v422h-70v114h274v-114h-70v-422h70v-114z" />
    <glyph glyph-name="uni0131" unicode="&#x131;" horiz-adv-x="299" 
d="M59 98h60v255h-65v98h194v-353h60v-98h-249v98z" />
    <glyph glyph-name="uni0132" unicode="&#x132;" horiz-adv-x="838" 
d="M352 0h-274v114h70v422h-70v114h274v-114h-70v-422h70v-114zM848 536h-60v-351q0 -96 -53 -145.5t-144 -49.5q-143 0 -195 123l94 71q27 -70 88 -70q39 0 57.5 19t18.5 51v352h-114v114h308v-114z" />
    <glyph glyph-name="uni0133" unicode="&#x133;" horiz-adv-x="564" 
d="M114 531v134h129v-134h-129zM408 531v134h129v-134h-129zM308 0h-249v97h60v256h-65v98h194v-354h60v-97zM537 16q0 -134 -49.5 -192t-175.5 -46l-4 85q25 0 39.5 4t30.5 18t23 46.5t7 84.5v337h-70v98h199v-435z" />
    <glyph glyph-name="uni0134" unicode="&#x134;" horiz-adv-x="487" 
d="M474 737l-28 -52l-135 60l-124 -60l-29 53l135 106h45zM462 536h-60v-351q0 -96 -53 -145.5t-144 -49.5q-143 0 -195 123l94 71q27 -70 88 -70q39 0 57.5 19t18.5 51v352h-114v114h308v-114z" />
    <glyph glyph-name="uni0135" unicode="&#x135;" horiz-adv-x="265" 
d="M262 557l-34 -49l-135 67l-112 -68l-35 51l135 126h45zM-15 451h199v-435q0 -134 -49.5 -192t-175.5 -46l-4 85q25 0 39.5 4t30.5 18t23 46.5t7 84.5v337h-70v98z" />
    <glyph glyph-name="uni0136" unicode="&#x136;" horiz-adv-x="673" 
d="M704 0h-283v114h60l-119 160h-80v-160h55v-114h-259v114h70v422h-70v114h262v-114h-58v-153h82l115 153h-56v114h270v-114h-73l-155 -195l172 -227h67v-114zM448 -58l-26 -155h-98l3 155h121z" />
    <glyph glyph-name="uni0137" unicode="&#x137;" horiz-adv-x="553" 
d="M550 0h-231v97h42l-78 89h-67v-89h41v-97h-230v97h60v493h-65v98h194v-411h75l66 76h-54v98h226v-98h-49l-97 -110l128 -146h39v-97zM349 -58l-26 -155h-98l3 155h121z" />
    <glyph glyph-name="uni0139" unicode="&#x139;" horiz-adv-x="558" 
d="M352 716l-215 -28l-16 57l202 88zM566 0h-488v114h70v422h-70v114h295v-114h-91v-422h170l20 126l114 -10z" />
    <glyph glyph-name="uni013A" unicode="&#x13a;" horiz-adv-x="285" 
d="M243 744l-215 -28l-16 57l202 88zM273 0h-249v97h60v493h-65v98h194v-591h60v-97z" />
    <glyph glyph-name="uni013B" unicode="&#x13b;" horiz-adv-x="558" 
d="M566 0h-488v114h70v422h-70v114h295v-114h-91v-422h170l20 126l114 -10zM409 -58l-26 -155h-98l3 155h121z" />
    <glyph glyph-name="uni013C" unicode="&#x13c;" horiz-adv-x="285" 
d="M280 0h-249v97h60v493h-65v98h194v-591h60v-97zM219 -58l-26 -155h-98l3 155h121z" />
    <glyph glyph-name="uni013D" unicode="&#x13d;" horiz-adv-x="558" 
d="M540 682l-36 -224h-98l13 224h121zM564 0h-488v114h70v422h-70v114h295v-114h-91v-422h170l20 126l114 -10z" />
    <glyph glyph-name="uni013E" unicode="&#x13e;" horiz-adv-x="295" 
d="M280 0h-249v97h60v493h-65v98h194v-591h60v-97zM393 681l-36 -224h-98l13 224h121z" />
    <glyph glyph-name="uni013F" unicode="&#x13f;" horiz-adv-x="558" 
d="M566 0h-488v114h70v422h-70v114h295v-114h-91v-422h170l20 126l114 -10zM351 281v134h129v-134h-129z" />
    <glyph glyph-name="uni0140" unicode="&#x140;" horiz-adv-x="334" 
d="M280 0h-249v97h60v493h-65v98h194v-591h60v-97zM259 271v134h129v-134h-129z" />
    <glyph glyph-name="uni0141" unicode="&#x141;" horiz-adv-x="560" 
d="M570 0h-488v114h70v142l-67 -21v100l67 21v180h-70v114h295v-114h-91v-138l149 47v-100l-149 -47v-184h170l20 126l114 -10z" />
    <glyph glyph-name="uni0142" unicode="&#x142;" horiz-adv-x="293" 
d="M16 225v100l75 34v231h-65v98h194v-270l69 32v-100l-69 -32v-221h60v-97h-249v97h60v162z" />
    <glyph glyph-name="uni0143" unicode="&#x143;" horiz-adv-x="760" 
d="M562 716l-215 -28l-16 57l202 88zM762 536h-70v-536l-75 -1l-349 413h-4v-298h90v-114h-285v114h70v422h-81v114h177l328 -386h4v272h-94v114h289v-114z" />
    <glyph glyph-name="uni0144" unicode="&#x144;" horiz-adv-x="593" 
d="M500 599l-195 -91l-34 49l162 143zM605 0h-249v97h60v157q0 57 -19 82.5t-58 25.5q-45 0 -70.5 -28t-26.5 -75v-162h60v-97h-249v97h60v256h-65v98h194v-69q45 78 145 78q68 0 113 -40t45 -116v-207h60v-97z" />
    <glyph glyph-name="uni0145" unicode="&#x145;" horiz-adv-x="760" 
d="M762 536h-70v-536l-75 -1l-349 413h-4v-298h90v-114h-285v114h70v422h-81v114h177l328 -386h4v272h-94v114h289v-114zM491 -58l-26 -155h-98l3 155h121z" />
    <glyph glyph-name="uni0146" unicode="&#x146;" horiz-adv-x="593" 
d="M605 0h-249v97h60v157q0 57 -19 82.5t-58 25.5q-45 0 -70.5 -28t-26.5 -75v-162h60v-97h-249v97h60v256h-65v98h194v-69q45 78 145 78q68 0 113 -40t45 -116v-207h60v-97zM389 -58l-26 -155h-98l3 155h121z" />
    <glyph glyph-name="uni0147" unicode="&#x147;" horiz-adv-x="760" 
d="M557 791l-135 -106h-45l-136 107l28 52l137 -60l122 60zM762 536h-70v-536l-75 -1l-349 413h-4v-298h90v-114h-285v114h70v422h-81v114h177l328 -386h4v272h-94v114h289v-114z" />
    <glyph glyph-name="uni0148" unicode="&#x148;" horiz-adv-x="593" 
d="M481 633l-135 -126h-45l-136 127l34 49l135 -67l112 68zM605 0h-249v97h60v157q0 57 -19 82.5t-58 25.5q-45 0 -70.5 -28t-26.5 -75v-162h60v-97h-249v97h60v256h-65v98h194v-69q45 78 145 78q68 0 113 -40t45 -116v-207h60v-97z" />
    <glyph glyph-name="uni0149" unicode="&#x149;" horiz-adv-x="593" 
d="M61 539l54 214h115l-55 -214h-114zM605 0h-249v97h60v157q0 57 -19 82.5t-58 25.5q-45 0 -70.5 -28t-26.5 -75v-162h60v-97h-249v97h60v256h-65v98h194v-69q45 78 145 78q68 0 113 -40t45 -116v-207h60v-97z" />
    <glyph glyph-name="uni014A" unicode="&#x14a;" horiz-adv-x="760" 
d="M762 536h-70v-543q0 -96 -53 -145.5t-144 -49.5q-143 0 -195 123l94 71q27 -70 88 -70q39 0 57.5 19t18.5 51v77l-290 343h-4v-298h90v-114h-285v114h70v422h-81v114h177l328 -386h4v272h-94v114h289v-114z" />
    <glyph glyph-name="uni014B" unicode="&#x14b;" horiz-adv-x="569" 
d="M53 98h60v255h-65v98h194v-69q45 78 145 78q68 0 113 -40t45 -116v-288q0 -134 -49.5 -192t-175.5 -46l-4 85q24 0 38.5 4t30 17t23 43t8.5 78v249q0 57 -19 82.5t-58 25.5q-45 0 -70.5 -28t-26.5 -75v-161h60v-98h-249v98z" />
    <glyph glyph-name="uni014C" unicode="&#x14c;" horiz-adv-x="711" 
d="M547 721h-308v98h308v-98zM712 326q0 -143 -90.5 -239.5t-244.5 -96.5q-153 0 -241 96t-88 238q0 145 91.5 240.5t241.5 95.5q151 0 241 -96t90 -238zM567 322q0 104 -48.5 162t-138.5 58q-93 0 -140 -59t-47 -156q0 -96 47 -157.5t144 -61.5q92 0 137.5 57.5t45.5 156.5
z" />
    <glyph glyph-name="uni014D" unicode="&#x14d;" horiz-adv-x="522" 
d="M414 536h-268v98h268v-98zM523 225q0 -106 -69.5 -170.5t-178.5 -64.5q-106 0 -170.5 61.5t-64.5 168.5q0 105 63 173t179 68q117 0 179 -67.5t62 -168.5zM390 229q0 66 -30.5 99.5t-79.5 33.5q-50 0 -78.5 -36t-28.5 -99q0 -60 27.5 -99t78.5 -39q50 0 80.5 38t30.5 102
z" />
    <glyph glyph-name="uni014E" unicode="&#x14e;" horiz-adv-x="711" 
d="M532 833q0 -69 -37 -103.5t-103 -34.5q-67 0 -103 35t-36 103h102q0 -61 37 -61q38 0 38 61h102zM712 326q0 -143 -90.5 -239.5t-244.5 -96.5q-153 0 -241 96t-88 238q0 145 91.5 240.5t241.5 95.5q151 0 241 -96t90 -238zM567 322q0 104 -48.5 162t-138.5 58
q-93 0 -140 -59t-47 -156q0 -96 47 -157.5t144 -61.5q92 0 137.5 57.5t45.5 156.5z" />
    <glyph glyph-name="uni014F" unicode="&#x14f;" horiz-adv-x="522" 
d="M427 653q0 -69 -38 -103.5t-104 -34.5t-101.5 35t-35.5 103h102q0 -61 37 -61q38 0 38 61h102zM523 225q0 -106 -69.5 -170.5t-178.5 -64.5q-106 0 -170.5 61.5t-64.5 168.5q0 105 63 173t179 68q117 0 179 -67.5t62 -168.5zM390 229q0 66 -30.5 99.5t-79.5 33.5
q-50 0 -78.5 -36t-28.5 -99q0 -60 27.5 -99t78.5 -39q50 0 80.5 38t30.5 102z" />
    <glyph glyph-name="uni0150" unicode="&#x150;" horiz-adv-x="711" 
d="M487 821l-170 -134l-43 40l129 179zM641 716l-215 -28l-16 57l202 88zM712 326q0 -143 -90.5 -239.5t-244.5 -96.5q-153 0 -241 96t-88 238q0 145 91.5 240.5t241.5 95.5q151 0 241 -96t90 -238zM567 322q0 104 -48.5 162t-138.5 58q-93 0 -140 -59t-47 -156
q0 -96 47 -157.5t144 -61.5q92 0 137.5 57.5t45.5 156.5z" />
    <glyph glyph-name="uni0151" unicode="&#x151;" horiz-adv-x="522" 
d="M364 662l-150 -154l-49 34l101 191zM529 599l-195 -91l-34 49l162 143zM523 225q0 -106 -69.5 -170.5t-178.5 -64.5q-106 0 -170.5 61.5t-64.5 168.5q0 105 63 173t179 68q117 0 179 -67.5t62 -168.5zM390 229q0 66 -30.5 99.5t-79.5 33.5q-50 0 -78.5 -36t-28.5 -99
q0 -60 27.5 -99t78.5 -39q50 0 80.5 38t30.5 102z" />
    <glyph glyph-name="uni0152" unicode="&#x152;" horiz-adv-x="996" 
d="M974 0h-439v29q-67 -39 -155 -39q-151 0 -242.5 96.5t-91.5 237.5q0 144 94.5 240t239.5 96q86 0 155 -41v31h433l20 -190l-114 -10l-20 86h-185v-153h274v-113h-274v-156h191l20 86l114 -10zM535 165v318q-61 59 -149 59q-92 0 -143.5 -59.5t-51.5 -153.5
q0 -92 50 -156.5t149 -64.5q101 0 145 57z" />
    <glyph glyph-name="uni0153" unicode="&#x153;" horiz-adv-x="826" 
d="M826 142q-5 -64 -61 -108t-149 -44q-107 0 -169 59q-67 -59 -172 -59q-106 0 -170.5 61.5t-64.5 168.5q0 105 63 173t179 68q108 0 171 -60q61 59 157 59q94 0 152 -54t60 -142q0 -33 -7 -65h-293l-2 -12q15 -95 105 -95q80 0 93 70zM689 274q5 37 -15.5 65.5t-63.5 28.5
q-38 0 -61 -25t-29 -69h169zM384 217q0 25 3 47q-8 48 -37 73t-70 25q-50 0 -78.5 -36t-28.5 -99q0 -60 27.5 -99t78.5 -39q40 0 68 25.5t38 69.5q-1 11 -1 33z" />
    <glyph glyph-name="uni0154" unicode="&#x154;" horiz-adv-x="637" 
d="M491 716l-215 -28l-16 57l202 88zM665 0h-166l-129 248h-88v-134h70v-114h-274v114h70v422h-70v114h294q122 0 186.5 -50t64.5 -147q0 -64 -33 -109t-91 -68l88 -162h78v-114zM479 450q0 49 -28.5 67.5t-102.5 18.5h-66v-182h64q74 0 103.5 23.5t29.5 72.5z" />
    <glyph glyph-name="uni0155" unicode="&#x155;" horiz-adv-x="441" 
d="M451 599l-195 -91l-34 49l162 143zM338 457q46 0 89 -25l20 -158l-98 -11l-17 77q-19 12 -35 12q-23 0 -39 -17.5t-16 -49.5v-188h80v-97h-269v97h60v256h-65v98h184v-86q27 92 106 92z" />
    <glyph glyph-name="uni0156" unicode="&#x156;" horiz-adv-x="637" 
d="M665 0h-166l-129 248h-88v-134h70v-114h-274v114h70v422h-70v114h294q122 0 186.5 -50t64.5 -147q0 -64 -33 -109t-91 -68l88 -162h78v-114zM479 450q0 49 -28.5 67.5t-102.5 18.5h-66v-182h64q74 0 103.5 23.5t29.5 72.5zM448 -58l-26 -155h-98l3 155h121z" />
    <glyph glyph-name="uni0157" unicode="&#x157;" horiz-adv-x="441" 
d="M338 457q46 0 89 -25l20 -158l-98 -11l-17 77q-19 12 -35 12q-23 0 -39 -17.5t-16 -49.5v-188h80v-97h-269v97h60v256h-65v98h184v-86q27 92 106 92zM236 -58l-26 -155h-98l3 155h121z" />
    <glyph glyph-name="uni0158" unicode="&#x158;" horiz-adv-x="637" 
d="M501 791l-135 -106h-45l-136 107l28 52l137 -60l122 60zM665 0h-166l-129 248h-88v-134h70v-114h-274v114h70v422h-70v114h294q122 0 186.5 -50t64.5 -147q0 -64 -33 -109t-91 -68l88 -162h78v-114zM479 450q0 49 -28.5 67.5t-102.5 18.5h-66v-182h64q74 0 103.5 23.5
t29.5 72.5z" />
    <glyph glyph-name="uni0159" unicode="&#x159;" horiz-adv-x="441" 
d="M420 633l-135 -126h-45l-136 127l34 49l135 -67l112 68zM338 457q46 0 89 -25l20 -158l-98 -11l-17 77q-19 12 -35 12q-23 0 -39 -17.5t-16 -49.5v-188h80v-97h-269v97h60v256h-65v98h184v-86q27 92 106 92z" />
    <glyph glyph-name="uni015A" unicode="&#x15a;" horiz-adv-x="557" 
d="M478 716l-215 -28l-16 57l202 88zM562 197q0 -99 -67.5 -153t-187.5 -54q-69 0 -133.5 17.5t-101.5 50.5l20 161l107 -10l-1 -79q47 -25 99 -25q60 0 90.5 15t30.5 61q0 26 -10 44t-31 29t-41 16.5t-52 11.5q-37 7 -58.5 12t-53.5 18.5t-49.5 31t-31 48t-13.5 70.5
q0 69 35.5 115t86.5 64.5t114 18.5q64 0 122 -19.5t89 -52.5l6 -141l-107 -10l-9 76q-43 29 -100 29q-93 0 -93 -63q0 -37 28.5 -54t83.5 -29q4 -1 25.5 -5t29.5 -6t29 -8t31 -10.5t28.5 -14t28 -19t22 -23.5t19 -30t11 -37.5t4.5 -45.5z" />
    <glyph glyph-name="uni015B" unicode="&#x15b;" horiz-adv-x="459" 
d="M421 599l-195 -91l-34 49l162 143zM463 138q0 -73 -58 -110.5t-156 -37.5q-108 0 -193 44l18 126l100 -11v-56q27 -9 68 -9q39 0 65 12.5t26 35.5q0 21 -28 31.5t-68 17t-80 17.5t-68 41.5t-28 80.5q0 52 31.5 85t73 44t93.5 11q90 0 169 -41l11 -115l-100 -11l-8 63
q-33 11 -71 11q-60 0 -60 -43q0 -21 27 -32t66 -17.5t77.5 -17.5t65.5 -41t27 -78z" />
    <glyph glyph-name="uni015C" unicode="&#x15c;" horiz-adv-x="557" 
d="M476 737l-28 -52l-135 60l-124 -60l-29 53l135 106h45zM562 197q0 -99 -67.5 -153t-187.5 -54q-69 0 -133.5 17.5t-101.5 50.5l20 161l107 -10l-1 -79q47 -25 99 -25q60 0 90.5 15t30.5 61q0 26 -10 44t-31 29t-41 16.5t-52 11.5q-37 7 -58.5 12t-53.5 18.5t-49.5 31
t-31 48t-13.5 70.5q0 69 35.5 115t86.5 64.5t114 18.5q64 0 122 -19.5t89 -52.5l6 -141l-107 -10l-9 76q-43 29 -100 29q-93 0 -93 -63q0 -37 28.5 -54t83.5 -29q4 -1 25.5 -5t29.5 -6t29 -8t31 -10.5t28.5 -14t28 -19t22 -23.5t19 -30t11 -37.5t4.5 -45.5z" />
    <glyph glyph-name="uni015D" unicode="&#x15d;" horiz-adv-x="459" 
d="M425 557l-34 -49l-135 67l-112 -68l-35 51l135 126h45zM463 138q0 -73 -58 -110.5t-156 -37.5q-108 0 -193 44l18 126l100 -11v-56q27 -9 68 -9q39 0 65 12.5t26 35.5q0 21 -28 31.5t-68 17t-80 17.5t-68 41.5t-28 80.5q0 52 31.5 85t73 44t93.5 11q90 0 169 -41l11 -115
l-100 -11l-8 63q-33 11 -71 11q-60 0 -60 -43q0 -21 27 -32t66 -17.5t77.5 -17.5t65.5 -41t27 -78z" />
    <glyph glyph-name="uni015E" unicode="&#x15e;" horiz-adv-x="557" 
d="M460 -121q0 -46 -37.5 -67t-92.5 -21q-79 0 -116 30l23 70q35 -23 78 -23q36 0 36 21q0 25 -39 25h-37v77q-137 9 -203 67l20 161l107 -10l-1 -79q47 -25 99 -25q60 0 90.5 15t30.5 61q0 26 -10 44t-31 29t-41 16.5t-52 11.5q-37 7 -58.5 12t-53.5 18.5t-49.5 31t-31 48
t-13.5 70.5q0 69 35.5 115t86.5 64.5t114 18.5q64 0 122 -19.5t89 -52.5l6 -141l-107 -10l-9 76q-43 29 -100 29q-93 0 -93 -63q0 -37 28.5 -54t83.5 -29q4 -1 25.5 -5t29.5 -6t29 -8t31 -10.5t28.5 -14t28 -19t22 -23.5t19 -30t11 -37.5t4.5 -45.5q0 -87 -52.5 -139.5
t-146.5 -63.5v-35h8q46 0 67.5 -23t21.5 -57z" />
    <glyph glyph-name="uni015F" unicode="&#x15f;" horiz-adv-x="459" 
d="M402 -121q0 -46 -37.5 -67t-92.5 -21q-79 0 -116 30l23 70q34 -23 78 -23q36 0 36 21q0 25 -39 25h-37v77q-91 7 -161 43l18 126l100 -11v-56q27 -9 68 -9q39 0 65 12.5t26 35.5q0 21 -28 31.5t-68 17t-80 17.5t-68 41.5t-28 80.5q0 52 31.5 85t73 44t93.5 11
q90 0 169 -41l11 -115l-100 -11l-8 63q-33 11 -71 11q-60 0 -60 -43q0 -21 27 -32t66 -17.5t77.5 -17.5t65.5 -41t27 -78q0 -62 -42 -98.5t-116 -45.5v-35h8q46 0 67.5 -23t21.5 -57z" />
    <glyph glyph-name="uni0160" unicode="&#x160;" horiz-adv-x="557" 
d="M466 791l-135 -106h-45l-136 107l28 52l137 -60l122 60zM562 197q0 -99 -67.5 -153t-187.5 -54q-69 0 -133.5 17.5t-101.5 50.5l20 161l107 -10l-1 -79q47 -25 99 -25q60 0 90.5 15t30.5 61q0 26 -10 44t-31 29t-41 16.5t-52 11.5q-37 7 -58.5 12t-53.5 18.5t-49.5 31
t-31 48t-13.5 70.5q0 69 35.5 115t86.5 64.5t114 18.5q64 0 122 -19.5t89 -52.5l6 -141l-107 -10l-9 76q-43 29 -100 29q-93 0 -93 -63q0 -37 28.5 -54t83.5 -29q4 -1 25.5 -5t29.5 -6t29 -8t31 -10.5t28.5 -14t28 -19t22 -23.5t19 -30t11 -37.5t4.5 -45.5z" />
    <glyph glyph-name="uni0161" unicode="&#x161;" horiz-adv-x="459" 
d="M414 633l-135 -126h-45l-136 127l34 49l135 -67l112 68zM463 138q0 -73 -58 -110.5t-156 -37.5q-108 0 -193 44l18 126l100 -11v-56q27 -9 68 -9q39 0 65 12.5t26 35.5q0 21 -28 31.5t-68 17t-80 17.5t-68 41.5t-28 80.5q0 52 31.5 85t73 44t93.5 11q90 0 169 -41
l11 -115l-100 -11l-8 63q-33 11 -71 11q-60 0 -60 -43q0 -21 27 -32t66 -17.5t77.5 -17.5t65.5 -41t27 -78z" />
    <glyph glyph-name="uni0162" unicode="&#x162;" horiz-adv-x="651" 
d="M650 430l-114 -10l-20 116h-103v-422h106v-114h-340v114h100v422h-103l-20 -116l-114 10l20 220h568zM406 -58l-26 -155h-98l3 155h121z" />
    <glyph glyph-name="uni0163" unicode="&#x163;" horiz-adv-x="398" 
d="M412 140q-19 -150 -168 -150q-76 0 -122 38t-46 107v224h-64v92h64v137h129v-137h162v-92h-162v-202q0 -59 54 -59q51 0 59 71zM307 -58l-26 -155h-98l3 155h121z" />
    <glyph glyph-name="uni0164" unicode="&#x164;" horiz-adv-x="651" 
d="M501 791l-135 -106h-45l-136 107l28 52l137 -60l122 60zM650 430l-114 -10l-20 116h-103v-422h106v-114h-340v114h100v422h-103l-20 -116l-114 10l20 220h568z" />
    <glyph glyph-name="uni0165" unicode="&#x165;" horiz-adv-x="398" 
d="M400 761l-36 -224h-98l13 224h121zM412 140q-19 -150 -168 -150q-76 0 -122 38t-46 107v224h-64v92h64v137h129v-137h162v-92h-162v-202q0 -59 54 -59q51 0 59 71z" />
    <glyph glyph-name="uni0166" unicode="&#x166;" horiz-adv-x="648" 
d="M648 430l-114 -10l-20 116h-103v-190h122v-77h-122v-155h106v-114h-340v114h100v155h-124v77h124v190h-103l-20 -116l-114 10l20 220h568z" />
    <glyph glyph-name="uni0167" unicode="&#x167;" horiz-adv-x="401" 
d="M27 213v87h55v59h-64v92h64v137h129v-137h162v-92h-162v-59h144v-87h-144v-56q0 -59 54 -59q51 0 59 71l94 -29q-19 -150 -168 -150q-76 0 -122 38t-46 107v78h-55z" />
    <glyph glyph-name="uni0168" unicode="&#x168;" horiz-adv-x="719" 
d="M550 820q0 -120 -85 -120q-25 0 -64 15.5t-62 15.5q-33 0 -42 -33l-50 16q-3 36 18.5 73t67.5 37q23 0 61 -15.5t54 -15.5q36 0 48 38zM720 536h-58v-267q0 -55 -14.5 -102.5t-46 -88.5t-87 -64.5t-130.5 -23.5q-139 0 -204.5 76t-65.5 192v278h-58v114h268v-114h-76
v-274q0 -154 143 -154q74 0 110 42.5t36 118.5v267h-76v114h259v-114z" />
    <glyph glyph-name="uni0169" unicode="&#x169;" horiz-adv-x="585" 
d="M447 647q0 -53 -19 -91.5t-64 -38.5q-27 0 -66.5 20.5t-58.5 20.5q-33 0 -45 -43l-50 16q-3 38 19 81t66 43q24 0 62.5 -19t54.5 -19q34 0 47 41zM585 0h-194v69q-45 -78 -145 -78q-68 0 -113 40t-45 116v207h-60v97h189v-254q0 -57 19 -82.5t58 -25.5q46 0 71.5 29.5
t25.5 77.5v158h-73v97h202v-354h65v-97z" />
    <glyph glyph-name="uni016A" unicode="&#x16a;" horiz-adv-x="719" 
d="M556 721h-308v98h308v-98zM720 536h-58v-267q0 -55 -14.5 -102.5t-46 -88.5t-87 -64.5t-130.5 -23.5q-139 0 -204.5 76t-65.5 192v278h-58v114h268v-114h-76v-274q0 -154 143 -154q74 0 110 42.5t36 118.5v267h-76v114h259v-114z" />
    <glyph glyph-name="uni016B" unicode="&#x16b;" horiz-adv-x="585" 
d="M426 536h-268v98h268v-98zM585 0h-194v69q-45 -78 -145 -78q-68 0 -113 40t-45 116v207h-60v97h189v-254q0 -57 19 -82.5t58 -25.5q46 0 71.5 29.5t25.5 77.5v158h-73v97h202v-354h65v-97z" />
    <glyph glyph-name="uni016C" unicode="&#x16c;" horiz-adv-x="719" 
d="M530 833q0 -69 -37 -103.5t-103 -34.5q-67 0 -103 35t-36 103h102q0 -61 37 -61q38 0 38 61h102zM720 536h-58v-267q0 -55 -14.5 -102.5t-46 -88.5t-87 -64.5t-130.5 -23.5q-139 0 -204.5 76t-65.5 192v278h-58v114h268v-114h-76v-274q0 -154 143 -154q74 0 110 42.5
t36 118.5v267h-76v114h259v-114z" />
    <glyph glyph-name="uni016D" unicode="&#x16d;" horiz-adv-x="585" 
d="M424 653q0 -69 -38 -103.5t-104 -34.5t-101.5 35t-35.5 103h102q0 -61 37 -61q38 0 38 61h102zM585 0h-194v69q-45 -78 -145 -78q-68 0 -113 40t-45 116v207h-60v97h189v-254q0 -57 19 -82.5t58 -25.5q46 0 71.5 29.5t25.5 77.5v158h-73v97h202v-354h65v-97z" />
    <glyph glyph-name="uni016E" unicode="&#x16e;" horiz-adv-x="719" 
d="M497 783q0 -43 -26.5 -68.5t-79.5 -25.5q-51 0 -77 24t-26 67t26.5 68t79.5 25q52 0 77.5 -24.5t25.5 -65.5zM417 785q0 28 -24 28q-15 0 -20 -8t-5 -25t4.5 -24t19.5 -7t20 8.5t5 27.5zM720 536h-58v-267q0 -55 -14.5 -102.5t-46 -88.5t-87 -64.5t-130.5 -23.5
q-139 0 -204.5 76t-65.5 192v278h-58v114h268v-114h-76v-274q0 -154 143 -154q74 0 110 42.5t36 118.5v267h-76v114h259v-114z" />
    <glyph glyph-name="uni016F" unicode="&#x16f;" horiz-adv-x="585" 
d="M395 608q0 -43 -26.5 -68.5t-79.5 -25.5q-51 0 -77 24t-26 67t26.5 68t79.5 25q52 0 77.5 -24.5t25.5 -65.5zM315 610q0 28 -24 28q-15 0 -20 -8t-5 -25t4.5 -24t19.5 -7t20 8.5t5 27.5zM585 0h-194v69q-45 -78 -145 -78q-68 0 -113 40t-45 116v207h-60v97h189v-254
q0 -57 19 -82.5t58 -25.5q46 0 71.5 29.5t25.5 77.5v158h-73v97h202v-354h65v-97z" />
    <glyph glyph-name="uni0170" unicode="&#x170;" horiz-adv-x="719" 
d="M471 821l-170 -134l-43 40l129 179zM625 716l-215 -28l-16 57l202 88zM720 536h-58v-267q0 -55 -14.5 -102.5t-46 -88.5t-87 -64.5t-130.5 -23.5q-139 0 -204.5 76t-65.5 192v278h-58v114h268v-114h-76v-274q0 -154 143 -154q74 0 110 42.5t36 118.5v267h-76v114h259
v-114z" />
    <glyph glyph-name="uni0171" unicode="&#x171;" horiz-adv-x="585" 
d="M362 662l-150 -154l-49 34l101 191zM527 599l-195 -91l-34 49l162 143zM585 0h-194v69q-45 -78 -145 -78q-68 0 -113 40t-45 116v207h-60v97h189v-254q0 -57 19 -82.5t58 -25.5q46 0 71.5 29.5t25.5 77.5v158h-73v97h202v-354h65v-97z" />
    <glyph glyph-name="uni0172" unicode="&#x172;" horiz-adv-x="719" 
d="M720 536h-58v-267q0 -98 -48 -173t-149 -97q-41 -30 -41 -73q0 -44 43 -44q27 0 46 12l9 -82q-42 -20 -90 -20q-52 0 -85 22.5t-33 68.5q0 64 58 107q-133 4 -195.5 79.5t-62.5 188.5v278h-58v114h268v-114h-76v-274q0 -154 143 -154q74 0 110 42.5t36 118.5v267h-76v114
h259v-114z" />
    <glyph glyph-name="uni0173" unicode="&#x173;" horiz-adv-x="585" 
d="M585 0h-63q-43 -30 -43 -74t43 -44q26 0 46 12l9 -82q-42 -20 -90 -20q-52 0 -85 22.5t-33 68.5q0 72 73 117h-51v69q-45 -78 -145 -78q-68 0 -113 40t-45 116v207h-60v97h189v-254q0 -57 19 -82.5t58 -25.5q46 0 71.5 29.5t25.5 77.5v158h-73v97h202v-354h65v-97z" />
    <glyph glyph-name="uni0174" unicode="&#x174;" horiz-adv-x="988" 
d="M668 737l-28 -52l-135 60l-124 -60l-29 53l135 106h45zM981 536h-52l-179 -536h-95l-153 420h-5l-146 -420h-97l-190 536h-56v114h259v-114h-60l97 -314h6l116 314h-51v114h259v-114h-46l115 -320h6l86 320h-70v114h256v-114z" />
    <glyph glyph-name="uni0175" unicode="&#x175;" horiz-adv-x="761" 
d="M558 557l-34 -49l-135 67l-112 -68l-35 51l135 126h45zM759 354h-41l-122 -354h-96l-117 270h-6l-106 -270h-91l-125 354h-41v97h240v-97h-62l55 -176h6l106 273h77l123 -269h6l37 172h-59v97h216v-97z" />
    <glyph glyph-name="uni0176" unicode="&#x176;" horiz-adv-x="646" 
d="M491 737l-28 -52l-135 60l-124 -60l-29 53l135 106h45zM640 536h-56l-189 -282v-140h106v-114h-340v114h100v141l-195 281h-58v114h269v-114h-54l109 -164h6l108 164h-62v114h256v-114z" />
    <glyph glyph-name="uni0177" unicode="&#x177;" horiz-adv-x="529" 
d="M443 557l-34 -49l-135 67l-112 -68l-35 51l135 126h45zM528 354h-44l-145 -354l-43 -113h59v-100h-249v100h72l36 106l-158 361h-46v97h230v-97h-45l92 -208h6l68 208h-39v97h206v-97z" />
    <glyph glyph-name="uni0178" unicode="&#x178;" horiz-adv-x="646" 
d="M173 705v134h129v-134h-129zM358 705v134h129v-134h-129zM640 536h-56l-189 -282v-140h106v-114h-340v114h100v141l-195 281h-58v114h269v-114h-54l109 -164h6l108 164h-62v114h256v-114z" />
    <glyph glyph-name="uni0179" unicode="&#x179;" horiz-adv-x="589" 
d="M483 716l-215 -28l-16 57l202 88zM571 0h-526l-3 69l330 466v1h-176l-20 -101l-114 10l20 205h486l2 -61l-335 -473v-2h222l20 120l114 -10z" />
    <glyph glyph-name="uni017A" unicode="&#x17a;" horiz-adv-x="477" 
d="M411 599l-195 -91l-34 49l162 143zM447 0h-394l-13 68l242 286h-135l-20 -69l-93 8l16 158h396l10 -68l-249 -286h145l21 71l102 -10z" />
    <glyph glyph-name="uni017B" unicode="&#x17b;" horiz-adv-x="589" 
d="M267 705v134h129v-134h-129zM571 0h-526l-3 69l330 466v1h-176l-20 -101l-114 10l20 205h486l2 -61l-335 -473v-2h222l20 120l114 -10z" />
    <glyph glyph-name="uni017C" unicode="&#x17c;" horiz-adv-x="477" 
d="M190 531v134h129v-134h-129zM447 0h-394l-13 68l242 286h-135l-20 -69l-93 8l16 158h396l10 -68l-249 -286h145l21 71l102 -10z" />
    <glyph glyph-name="uni017D" unicode="&#x17d;" horiz-adv-x="589" 
d="M479 791l-135 -106h-45l-136 107l28 52l137 -60l122 60zM571 0h-526l-3 69l330 466v1h-176l-20 -101l-114 10l20 205h486l2 -61l-335 -473v-2h222l20 120l114 -10z" />
    <glyph glyph-name="uni017E" unicode="&#x17e;" horiz-adv-x="477" 
d="M420 633l-135 -126h-45l-136 127l34 49l135 -67l112 68zM447 0h-394l-13 68l242 286h-135l-20 -69l-93 8l16 158h396l10 -68l-249 -286h145l21 71l102 -10z" />
    <glyph glyph-name="uni018F" unicode="&#x18f;" horiz-adv-x="688" 
d="M182 437l-103 11l22 173q138 39 232 39q186 0 274.5 -91t88.5 -238q0 -71 -20.5 -131.5t-59.5 -108t-103 -74.5t-145 -27q-139 0 -221.5 75.5t-82.5 205.5v97h483q-27 172 -210 172q-68 0 -140 -24zM550 275h-340v-3q0 -164 164 -164q161 0 176 167z" />
    <glyph glyph-name="uni0192" unicode="&#x192;" horiz-adv-x="365" 
d="M31 289h65l6 92q4 71 54 109.5t125 38.5q38 0 66 -4v-86q-50 6 -63 6q-19 0 -30.5 -4t-16.5 -16t-6 -19t-2 -27l-5 -90h97v-75h-101l-11 -196q-3 -55 -42.5 -92.5t-123.5 -37.5q-16 0 -45 4v84q20 -4 34 -4q26 0 36.5 12t13.5 60l10 170h-61v75z" />
    <glyph glyph-name="uni01C4" unicode="&#x1c4;" horiz-adv-x="1287" 
d="M1195 791l-135 -106h-45l-136 107l28 52l137 -60l122 60zM712 328q0 -150 -88 -239t-240 -89h-306v114h70v422h-70v114h298q163 0 249.5 -87t86.5 -235zM1287 0h-526l-3 69l330 466v1h-176l-20 -101l-114 10l20 205h486l2 -61l-335 -473v-2h222l20 120l114 -10zM568 326
q0 210 -195 210h-91v-422h91q195 0 195 212z" />
    <glyph glyph-name="uni01C5" unicode="&#x1c5;" horiz-adv-x="1175" 
d="M1140 633l-135 -126h-45l-136 127l34 49l135 -67l112 68zM712 328q0 -150 -88 -239t-240 -89h-306v114h70v422h-70v114h298q163 0 249.5 -87t86.5 -235zM568 326q0 210 -195 210h-91v-422h91q195 0 195 212zM1167 0h-394l-13 68l242 286h-135l-20 -69l-93 8l16 158h396
l10 -68l-249 -286h145l21 71l102 -10z" />
    <glyph glyph-name="uni01C6" unicode="&#x1c6;" horiz-adv-x="1047" 
d="M578 0h-189v84q-47 -94 -154 -94q-88 0 -139.5 61t-51.5 166q0 106 52 174.5t149 68.5q102 0 144 -78v208h-90v98h219v-591h60v-97zM995 633l-135 -126h-45l-136 127l34 49l135 -67l112 68zM1022 0h-394l-13 68l242 286h-135l-20 -69l-93 8l16 158h396l10 -68l-249 -286
h145l21 71l102 -10zM389 228v11q0 55 -29 87t-74 32q-46 0 -77 -34t-31 -99q0 -62 29 -97.5t72 -35.5q49 0 79.5 41.5t30.5 94.5z" />
    <glyph glyph-name="uni01C7" unicode="&#x1c7;" horiz-adv-x="1044" 
d="M566 0h-488v114h70v422h-70v114h295v-114h-91v-422h170l20 126l114 -10zM1054 536h-60v-351q0 -96 -53 -145.5t-144 -49.5q-143 0 -195 123l94 71q27 -70 88 -70q39 0 57.5 19t18.5 51v352h-114v114h308v-114z" />
    <glyph glyph-name="uni01C8" unicode="&#x1c8;" horiz-adv-x="812" 
d="M668 531v134h129v-134h-129zM566 0h-488v114h70v422h-70v114h295v-114h-91v-422h170l20 126l114 -10zM797 16q0 -134 -49.5 -192t-175.5 -46l-4 85q25 0 39.5 4t30.5 18t23 46.5t7 84.5v337h-70v98h199v-435z" />
    <glyph glyph-name="uni01C9" unicode="&#x1c9;" horiz-adv-x="550" 
d="M280 0h-249v97h60v493h-65v98h194v-591h60v-97zM380 531v134h129v-134h-129zM509 16q0 -134 -49.5 -192t-175.5 -46l-4 85q25 0 39.5 4t30.5 18t23 46.5t7 84.5v337h-70v98h199v-435z" />
    <glyph glyph-name="uni01CA" unicode="&#x1ca;" horiz-adv-x="1233" 
d="M762 536h-70v-536l-75 -1l-349 413h-4v-298h90v-114h-285v114h70v422h-81v114h177l328 -386h4v272h-94v114h289v-114zM1233 536h-60v-351q0 -96 -53 -145.5t-144 -49.5q-143 0 -195 123l94 71q27 -70 88 -70q39 0 57.5 19t18.5 51v352h-114v114h308v-114z" />
    <glyph glyph-name="uni01CB" unicode="&#x1cb;" horiz-adv-x="1007" 
d="M853 531v134h129v-134h-129zM762 536h-70v-536l-75 -1l-349 413h-4v-298h90v-114h-285v114h70v422h-81v114h177l328 -386h4v272h-94v114h289v-114zM982 16q0 -134 -49.5 -192t-175.5 -46l-4 85q25 0 39.5 4t30.5 18t23 46.5t7 84.5v337h-70v98h199v-435z" />
    <glyph glyph-name="uni01CC" unicode="&#x1cc;" horiz-adv-x="854" 
d="M695 531v134h129v-134h-129zM605 0h-249v97h60v157q0 57 -19 82.5t-58 25.5q-45 0 -70.5 -28t-26.5 -75v-162h60v-97h-249v97h60v256h-65v98h194v-69q45 78 145 78q68 0 113 -40t45 -116v-207h60v-97zM824 16q0 -134 -49.5 -192t-175.5 -46l-4 85q25 0 39.5 4t30.5 18
t23 46.5t7 84.5v337h-70v98h199v-435z" />
    <glyph glyph-name="uni01D3" unicode="&#x1d3;" horiz-adv-x="719" 
d="M551 791l-135 -106h-45l-136 107l28 52l137 -60l122 60zM720 536h-58v-267q0 -55 -14.5 -102.5t-46 -88.5t-87 -64.5t-130.5 -23.5q-139 0 -204.5 76t-65.5 192v278h-58v114h268v-114h-76v-274q0 -154 143 -154q74 0 110 42.5t36 118.5v267h-76v114h259v-114z" />
    <glyph glyph-name="uni01D4" unicode="&#x1d4;" horiz-adv-x="585" 
d="M450 634l-135 -126h-45l-136 127l34 49l135 -67l112 68zM585 0h-194v69q-45 -78 -145 -78q-68 0 -113 40t-45 116v207h-60v97h189v-254q0 -57 19 -82.5t58 -25.5q46 0 71.5 29.5t25.5 77.5v158h-73v97h202v-354h65v-97z" />
    <glyph glyph-name="uni01E2" unicode="&#x1e2;" horiz-adv-x="935" 
d="M830 721h-308v98h308v-98zM883 0h-498v114h70v66h-216l-31 -66h56v-114h-256v114h64l213 422h-82v114h674l20 -190l-114 -10l-20 86h-174v-153h274v-113h-274v-156h180l20 86l114 -10zM455 276v260h-48l-123 -260h171z" />
    <glyph glyph-name="uni01E3" unicode="&#x1e3;" horiz-adv-x="773" 
d="M546 536h-268v98h268v-98zM775 142q-5 -64 -61 -108t-149 -44q-134 0 -194 90q-61 -90 -172 -90q-64 0 -109.5 32t-45.5 97q0 137 215 137q28 0 74 -4v15q0 23 -1.5 36t-8 30.5t-22.5 26t-42 8.5q-44 0 -69 -13l-17 -64l-103 11l20 117q60 24 99 32.5t94 8.5
q83 0 134 -46q59 46 142 46q94 0 152.5 -55t59.5 -143q0 -32 -7 -63h-291q5 -53 29.5 -77.5t72.5 -24.5q80 0 92 65zM637 267q8 39 -12.5 67.5t-65.5 28.5q-75 0 -85 -96h163zM182 134q0 -52 53 -52q38 0 68 27.5t30 77.5v3q-42 6 -65 6q-86 0 -86 -62z" />
    <glyph glyph-name="uni01F1" unicode="&#x1f1;" horiz-adv-x="1282" 
d="M712 328q0 -150 -88 -239t-240 -89h-306v114h70v422h-70v114h298q163 0 249.5 -87t86.5 -235zM1282 0h-526l-3 69l330 466v1h-176l-20 -101l-114 10l20 205h486l2 -61l-335 -473v-2h222l20 120l114 -10zM568 326q0 210 -195 210h-91v-422h91q195 0 195 212z" />
    <glyph glyph-name="uni01F2" unicode="&#x1f2;" horiz-adv-x="1175" 
d="M712 328q0 -150 -88 -239t-240 -89h-306v114h70v422h-70v114h298q163 0 249.5 -87t86.5 -235zM568 326q0 210 -195 210h-91v-422h91q195 0 195 212zM1167 0h-394l-13 68l242 286h-135l-20 -69l-93 8l16 158h396l10 -68l-249 -286h145l21 71l102 -10z" />
    <glyph glyph-name="uni01F3" unicode="&#x1f3;" horiz-adv-x="1047" 
d="M578 0h-189v84q-47 -94 -154 -94q-88 0 -139.5 61t-51.5 166q0 106 52 174.5t149 68.5q102 0 144 -78v208h-90v98h219v-591h60v-97zM1022 0h-394l-13 68l242 286h-135l-20 -69l-93 8l16 158h396l10 -68l-249 -286h145l21 71l102 -10zM389 228v11q0 55 -29 87t-74 32
q-46 0 -77 -34t-31 -99q0 -62 29 -97.5t72 -35.5q49 0 79.5 41.5t30.5 94.5z" />
    <glyph glyph-name="uni01FC" unicode="&#x1fc;" horiz-adv-x="934" 
d="M838 716l-215 -28l-16 57l202 88zM883 0h-498v114h70v66h-216l-31 -66h56v-114h-256v114h64l213 422h-82v114h674l20 -190l-114 -10l-20 86h-174v-153h274v-113h-274v-156h180l20 86l114 -10zM455 276v260h-48l-123 -260h171z" />
    <glyph glyph-name="uni01FD" unicode="&#x1fd;" horiz-adv-x="773" 
d="M621 599l-195 -91l-34 49l162 143zM775 142q-5 -64 -61 -108t-149 -44q-134 0 -194 90q-61 -90 -172 -90q-64 0 -109.5 32t-45.5 97q0 137 215 137q28 0 74 -4v15q0 23 -1.5 36t-8 30.5t-22.5 26t-42 8.5q-44 0 -69 -13l-17 -64l-103 11l20 117q60 24 99 32.5t94 8.5
q83 0 134 -46q59 46 142 46q94 0 152.5 -55t59.5 -143q0 -32 -7 -63h-291q5 -53 29.5 -77.5t72.5 -24.5q80 0 92 65zM637 267q8 39 -12.5 67.5t-65.5 28.5q-75 0 -85 -96h163zM182 134q0 -52 53 -52q38 0 68 27.5t30 77.5v3q-42 6 -65 6q-86 0 -86 -62z" />
    <glyph glyph-name="uni01FE" unicode="&#x1fe;" horiz-adv-x="714" 
d="M560 716l-215 -28l-16 57l202 88zM714 326q0 -143 -90.5 -239.5t-244.5 -96.5q-105 0 -182 47l-31 -37h-115l79 95q-80 91 -80 229q0 145 91.5 240.5t241.5 95.5q99 0 177 -46l29 36h126l-81 -96q80 -92 80 -228zM195 327q0 -70 25 -123l260 314q-43 24 -98 24
q-93 0 -140 -59t-47 -156zM569 322q0 72 -25 125l-264 -312q43 -27 106 -27q92 0 137.5 57.5t45.5 156.5z" />
    <glyph glyph-name="uni01FF" unicode="&#x1ff;" horiz-adv-x="524" 
d="M480 599l-195 -91l-34 49l162 143zM524 225q0 -107 -69.5 -171t-178.5 -64q-76 0 -132 32l-19 -22h-85l55 62q-54 60 -54 157q0 105 63 173t179 68q77 0 134 -33l21 24h86l-57 -64q57 -65 57 -162zM180 227q0 -36 8 -60l150 170q-24 15 -57 15q-48 0 -74.5 -32t-26.5 -93
zM385 229q0 30 -8 56l-152 -172q23 -15 55 -15q49 0 77 34.5t28 96.5z" />
    <glyph glyph-name="uni0218" unicode="&#x218;" horiz-adv-x="557" 
d="M562 197q0 -99 -67.5 -153t-187.5 -54q-69 0 -133.5 17.5t-101.5 50.5l20 161l107 -10l-1 -79q47 -25 99 -25q60 0 90.5 15t30.5 61q0 26 -10 44t-31 29t-41 16.5t-52 11.5q-37 7 -58.5 12t-53.5 18.5t-49.5 31t-31 48t-13.5 70.5q0 69 35.5 115t86.5 64.5t114 18.5
q64 0 122 -19.5t89 -52.5l6 -141l-107 -10l-9 76q-43 29 -100 29q-93 0 -93 -63q0 -37 28.5 -54t83.5 -29q4 -1 25.5 -5t29.5 -6t29 -8t31 -10.5t28.5 -14t28 -19t22 -23.5t19 -30t11 -37.5t4.5 -45.5zM398 -58l-26 -155h-98l3 155h121z" />
    <glyph glyph-name="uni0219" unicode="&#x219;" horiz-adv-x="459" 
d="M463 138q0 -73 -58 -110.5t-156 -37.5q-108 0 -193 44l18 126l100 -11v-56q27 -9 68 -9q39 0 65 12.5t26 35.5q0 21 -28 31.5t-68 17t-80 17.5t-68 41.5t-28 80.5q0 52 31.5 85t73 44t93.5 11q90 0 169 -41l11 -115l-100 -11l-8 63q-33 11 -71 11q-60 0 -60 -43
q0 -21 27 -32t66 -17.5t77.5 -17.5t65.5 -41t27 -78zM321 -58l-26 -155h-98l3 155h121z" />
    <glyph glyph-name="uni021A" unicode="&#x21a;" horiz-adv-x="651" 
d="M650 430l-114 -10l-20 116h-103v-422h106v-114h-340v114h100v422h-103l-20 -116l-114 10l20 220h568zM406 -58l-26 -155h-98l3 155h121z" />
    <glyph glyph-name="uni021B" unicode="&#x21b;" horiz-adv-x="398" 
d="M412 140q-19 -150 -168 -150q-76 0 -122 38t-46 107v224h-64v92h64v137h129v-137h162v-92h-162v-202q0 -59 54 -59q51 0 59 71zM307 -58l-26 -155h-98l3 155h121z" />
    <glyph glyph-name="uni0232" unicode="&#x232;" horiz-adv-x="646" 
d="M486 721h-308v98h308v-98zM640 536h-56l-189 -282v-140h106v-114h-340v114h100v141l-195 281h-58v114h269v-114h-54l109 -164h6l108 164h-62v114h256v-114z" />
    <glyph glyph-name="uni0233" unicode="&#x233;" horiz-adv-x="529" 
d="M415 536h-268v98h268v-98zM528 354h-44l-145 -354l-43 -113h59v-100h-249v100h72l36 106l-158 361h-46v97h230v-97h-45l92 -208h6l68 208h-39v97h206v-97z" />
    <glyph glyph-name="uni0237" unicode="&#x237;" horiz-adv-x="265" 
d="M-6 451h199v-435q0 -134 -49.5 -192t-175.5 -46l-4 85q25 0 39.5 4t30.5 18t23 46.5t7 84.5v337h-70v98z" />
    <glyph glyph-name="uni0259" unicode="&#x259;" horiz-adv-x="482" 
d="M40 308q5 64 61 108t149 44q104 0 168 -58.5t64 -168.5q0 -107 -60.5 -175t-165.5 -68q-94 0 -152 54t-60 142q0 33 7 65h296q-11 107 -106 107q-80 0 -93 -70zM177 176q-5 -37 15.5 -65.5t63.5 -28.5q38 0 61 25t29 69h-169z" />
    <glyph glyph-name="uni02C6" unicode="&#x2c6;" horiz-adv-x="338" 
d="M406 557l-34 -49l-135 67l-112 -68l-35 51l135 126h45z" />
    <glyph glyph-name="uni02C7" unicode="&#x2c7;" horiz-adv-x="338" 
d="M406 633l-135 -126h-45l-136 127l34 49l135 -67l112 68z" />
    <glyph glyph-name="uni02D8" unicode="&#x2d8;" horiz-adv-x="399" 
d="M395 653q0 -69 -38 -103.5t-104 -34.5t-101.5 35t-35.5 103h102q0 -61 37 -61q38 0 38 61h102z" />
    <glyph glyph-name="uni02D9" unicode="&#x2d9;" horiz-adv-x="229" 
d="M80 531v134h129v-134h-129z" />
    <glyph glyph-name="uni02DA" unicode="&#x2da;" horiz-adv-x="260" 
d="M261 608q0 -43 -26.5 -68.5t-79.5 -25.5q-51 0 -77 24t-26 67t26.5 68t79.5 25q52 0 77.5 -24.5t25.5 -65.5zM181 610q0 28 -24 28q-15 0 -20 -8t-5 -25t4.5 -24t19.5 -7t20 8.5t5 27.5z" />
    <glyph glyph-name="uni02DB" unicode="&#x2db;" horiz-adv-x="280" 
d="M270 -188q-42 -20 -90 -20q-52 0 -85 22.5t-33 68.5q0 43 27.5 77t69.5 52l70 -4q-57 -32 -57 -82q0 -44 43 -44q26 0 46 12z" />
    <glyph glyph-name="uni02DC" unicode="&#x2dc;" horiz-adv-x="374" 
d="M374 647q0 -53 -19 -91.5t-64 -38.5q-27 0 -66.5 20.5t-58.5 20.5q-33 0 -45 -43l-50 16q-3 38 19 81t66 43q24 0 62.5 -19t54.5 -19q34 0 47 41z" />
    <glyph glyph-name="uni02DD" unicode="&#x2dd;" horiz-adv-x="430" 
d="M279 662l-150 -154l-49 34l101 191zM444 599l-195 -91l-34 49l162 143z" />
    <glyph glyph-name="uni0323" unicode="&#x323;" horiz-adv-x="833" 
d="M134 -196v134h129v-134h-129z" />
    <glyph glyph-name="uni0394" unicode="&#x394;" horiz-adv-x="477" 
d="M-16 0l251 661l240 -661h-491zM127 98h205l-100 296z" />
    <glyph glyph-name="uni03A3" unicode="&#x3a3;" horiz-adv-x="555" 
d="M70 0v114l173 200l-173 222v114h494v-114h-336l153 -197v-40l-153 -185h336v-114h-494z" />
    <glyph glyph-name="uni03C0" unicode="&#x3c0;" horiz-adv-x="599" 
d="M55 98h60v255h-65v98h551v-98h-67v-255h60v-98h-249v98h60v255h-161v-255h60v-98h-249v98z" />
    <glyph glyph-name="uni1E46" unicode="&#x1e46;" horiz-adv-x="760" 
d="M762 536h-70v-536l-75 -1l-349 413h-4v-298h90v-114h-285v114h70v422h-81v114h177l328 -386h4v272h-94v114h289v-114zM357 -196v134h129v-134h-129z" />
    <glyph glyph-name="uni1E47" unicode="&#x1e47;" horiz-adv-x="593" 
d="M605 0h-249v97h60v157q0 57 -19 82.5t-58 25.5q-45 0 -70.5 -28t-26.5 -75v-162h60v-97h-249v97h60v256h-65v98h194v-69q45 78 145 78q68 0 113 -40t45 -116v-207h60v-97zM264 -196v134h129v-134h-129z" />
    <glyph glyph-name="uni1E62" unicode="&#x1e62;" horiz-adv-x="557" 
d="M562 197q0 -99 -67.5 -153t-187.5 -54q-69 0 -133.5 17.5t-101.5 50.5l20 161l107 -10l-1 -79q47 -25 99 -25q60 0 90.5 15t30.5 61q0 26 -10 44t-31 29t-41 16.5t-52 11.5q-37 7 -58.5 12t-53.5 18.5t-49.5 31t-31 48t-13.5 70.5q0 69 35.5 115t86.5 64.5t114 18.5
q64 0 122 -19.5t89 -52.5l6 -141l-107 -10l-9 76q-43 29 -100 29q-93 0 -93 -63q0 -37 28.5 -54t83.5 -29q4 -1 25.5 -5t29.5 -6t29 -8t31 -10.5t28.5 -14t28 -19t22 -23.5t19 -30t11 -37.5t4.5 -45.5zM259 -196v134h129v-134h-129z" />
    <glyph glyph-name="uni1E63" unicode="&#x1e63;" horiz-adv-x="459" 
d="M463 138q0 -73 -58 -110.5t-156 -37.5q-108 0 -193 44l18 126l100 -11v-56q27 -9 68 -9q39 0 65 12.5t26 35.5q0 21 -28 31.5t-68 17t-80 17.5t-68 41.5t-28 80.5q0 52 31.5 85t73 44t93.5 11q90 0 169 -41l11 -115l-100 -11l-8 63q-33 11 -71 11q-60 0 -60 -43
q0 -21 27 -32t66 -17.5t77.5 -17.5t65.5 -41t27 -78zM194 -196v134h129v-134h-129z" />
    <glyph glyph-name="uni1E80" unicode="&#x1e80;" horiz-adv-x="988" 
d="M609 745l-16 -57l-215 28l29 117zM981 536h-52l-179 -536h-95l-153 420h-5l-146 -420h-97l-190 536h-56v114h259v-114h-60l97 -314h6l116 314h-51v114h259v-114h-46l115 -320h6l86 320h-70v114h256v-114z" />
    <glyph glyph-name="uni1E81" unicode="&#x1e81;" horiz-adv-x="761" 
d="M457 557l-34 -49l-195 91l67 101zM759 354h-41l-122 -354h-96l-117 270h-6l-106 -270h-91l-125 354h-41v97h240v-97h-62l55 -176h6l106 273h77l123 -269h6l37 172h-59v97h216v-97z" />
    <glyph glyph-name="uni1E82" unicode="&#x1e82;" horiz-adv-x="988" 
d="M642 716l-215 -28l-16 57l202 88zM981 536h-52l-179 -536h-95l-153 420h-5l-146 -420h-97l-190 536h-56v114h259v-114h-60l97 -314h6l116 314h-51v114h259v-114h-46l115 -320h6l86 320h-70v114h256v-114z" />
    <glyph glyph-name="uni1E83" unicode="&#x1e83;" horiz-adv-x="761" 
d="M579 599l-195 -91l-34 49l162 143zM759 354h-41l-122 -354h-96l-117 270h-6l-106 -270h-91l-125 354h-41v97h240v-97h-62l55 -176h6l106 273h77l123 -269h6l37 172h-59v97h216v-97z" />
    <glyph glyph-name="uni1E84" unicode="&#x1e84;" horiz-adv-x="988" 
d="M350 705v134h129v-134h-129zM535 705v134h129v-134h-129zM981 536h-52l-179 -536h-95l-153 420h-5l-146 -420h-97l-190 536h-56v114h259v-114h-60l97 -314h6l116 314h-51v114h259v-114h-46l115 -320h6l86 320h-70v114h256v-114z" />
    <glyph glyph-name="uni1E85" unicode="&#x1e85;" horiz-adv-x="761" 
d="M245 531v134h129v-134h-129zM430 531v134h129v-134h-129zM759 354h-41l-122 -354h-96l-117 270h-6l-106 -270h-91l-125 354h-41v97h240v-97h-62l55 -176h6l106 273h77l123 -269h6l37 172h-59v97h216v-97z" />
    <glyph glyph-name="uni1EBC" unicode="&#x1ebc;" horiz-adv-x="592" 
d="M517 820q0 -120 -85 -120q-25 0 -64 15.5t-62 15.5q-33 0 -42 -33l-50 16q-3 36 18.5 73t67.5 37q23 0 61 -15.5t54 -15.5q36 0 48 38zM580 0h-502v114h70v422h-70v114h496l20 -190l-114 -10l-20 86h-178v-153h274v-113h-274v-156h184l20 86l114 -10z" />
    <glyph glyph-name="uni1EBD" unicode="&#x1ebd;" horiz-adv-x="483" 
d="M422 647q0 -53 -19 -91.5t-64 -38.5q-27 0 -66.5 20.5t-58.5 20.5q-33 0 -45 -43l-50 16q-3 38 19 81t66 43q24 0 62.5 -19t54.5 -19q34 0 47 41zM484 142q-5 -64 -61 -108t-149 -44q-104 0 -168 58.5t-64 168.5q0 107 60.5 175t165.5 68q94 0 152 -54t60 -142
q0 -33 -7 -65h-296q11 -107 106 -107q80 0 93 70zM347 274q5 37 -15.5 65.5t-63.5 28.5q-38 0 -61 -25t-29 -69h169z" />
    <glyph glyph-name="uni1EF2" unicode="&#x1ef2;" horiz-adv-x="646" 
d="M402 745l-16 -57l-215 28l29 117zM640 536h-56l-189 -282v-140h106v-114h-340v114h100v141l-195 281h-58v114h269v-114h-54l109 -164h6l108 164h-62v114h256v-114z" />
    <glyph glyph-name="uni1EF3" unicode="&#x1ef3;" horiz-adv-x="529" 
d="M359 557l-34 -49l-195 91l67 101zM528 354h-44l-145 -354l-43 -113h59v-100h-249v100h72l36 106l-158 361h-46v97h230v-97h-45l92 -208h6l68 208h-39v97h206v-97z" />
    <glyph glyph-name="uni2004" unicode="&#x2004;" horiz-adv-x="333" 
 />
    <glyph glyph-name="uni2007" unicode="&#x2007;" horiz-adv-x="600" 
 />
    <glyph glyph-name="uni2009" unicode="&#x2009;" horiz-adv-x="160" 
 />
    <glyph glyph-name="uni200A" unicode="&#x200a;" horiz-adv-x="80" 
 />
    <glyph glyph-name="uni200B" unicode="&#x200b;" horiz-adv-x="0" 
 />
    <glyph glyph-name="uni2012" unicode="&#x2012;" horiz-adv-x="347" 
d="M347 305v-108h-347v108h347z" />
    <glyph glyph-name="uni2013" unicode="&#x2013;" horiz-adv-x="590" 
d="M88 278h502v-85h-502v85z" />
    <glyph glyph-name="uni2014" unicode="&#x2014;" horiz-adv-x="1028" 
d="M88 278h940v-85h-940v85z" />
    <glyph glyph-name="uni2018" unicode="&#x2018;" horiz-adv-x="230" 
d="M240 639l-60 -234h-126l60 234h126z" />
    <glyph glyph-name="uni2019" unicode="&#x2019;" horiz-adv-x="222" 
d="M46 496l60 234h126l-60 -234h-126z" />
    <glyph glyph-name="uni201A" unicode="&#x201a;" horiz-adv-x="222" 
d="M6 -85l60 234h126l-60 -234h-126z" />
    <glyph glyph-name="uni201C" unicode="&#x201c;" horiz-adv-x="401" 
d="M240 669l-60 -234h-126l60 234h126zM416 669l-60 -234h-126l60 234h126z" />
    <glyph glyph-name="uni201D" unicode="&#x201d;" horiz-adv-x="395" 
d="M26 436l60 234h126l-60 -234h-126zM202 436l60 234h126l-60 -234h-126z" />
    <glyph glyph-name="uni201E" unicode="&#x201e;" horiz-adv-x="400" 
d="M6 -85l60 234h126l-60 -234h-126zM184 -85l60 234h126l-60 -234h-126z" />
    <glyph glyph-name="uni2020" unicode="&#x2020;" horiz-adv-x="460" 
d="M50 440h150v210h110v-210h150v-109h-150v-472h-110v472h-150v109z" />
    <glyph glyph-name="uni2021" unicode="&#x2021;" horiz-adv-x="482" 
d="M72 160h150v171h-150v109h150v210h110v-210h150v-109h-150v-171h150v-109h-150v-192h-110v192h-150v109z" />
    <glyph glyph-name="uni2022" unicode="&#x2022;" horiz-adv-x="351" 
d="M100 242q0 53 36.5 90t88.5 37q53 0 90 -37t37 -90q0 -52 -37 -88.5t-90 -36.5t-89 36.5t-36 88.5z" />
    <glyph glyph-name="uni2026" unicode="&#x2026;" horiz-adv-x="660" 
d="M74 0v163h153v-163h-153zM290 0v163h153v-163h-153zM506 0v163h153v-163h-153z" />
    <glyph glyph-name="uni2030" unicode="&#x2030;" horiz-adv-x="1062" 
d="M211 240q-74 0 -115.5 40.5t-41.5 103.5q0 64 43 105.5t118 41.5q73 0 113.5 -41t40.5 -103q0 -64 -42 -105.5t-116 -41.5zM662 521l-209 -262l-195 -259h-134l235 285l169 236h134zM211 322q54 0 54 64q0 63 -52 63q-55 0 -55 -64q0 -63 53 -63zM580 -10
q-74 0 -115.5 40.5t-41.5 103.5q0 64 43 105.5t118 41.5q73 0 113.5 -41t40.5 -103q0 -64 -42 -105.5t-116 -41.5zM905 -10q-74 0 -115.5 40.5t-41.5 103.5q0 64 43 105.5t118 41.5q73 0 113.5 -41t40.5 -103q0 -64 -42 -105.5t-116 -41.5zM580 72q54 0 54 64q0 63 -52 63
q-55 0 -55 -64q0 -63 53 -63zM905 72q54 0 54 64q0 63 -52 63q-55 0 -55 -64q0 -63 53 -63z" />
    <glyph glyph-name="uni2039" unicode="&#x2039;" horiz-adv-x="301" 
d="M295 25h-107l-138 246l138 240h107l-117 -240z" />
    <glyph glyph-name="uni203A" unicode="&#x203a;" horiz-adv-x="301" 
d="M169 25h-107l117 246l-117 240h107l138 -240z" />
    <glyph glyph-name="uni203D" unicode="&#x203d;" horiz-adv-x="732" 
d="M400 464l-96 26l39 148q57 16 133 16q108 0 178.5 -39t70.5 -123q0 -48 -25.5 -82.5t-64 -54.5t-78 -37t-73.5 -42.5t-45 -58.5l-83 31q4 39 27.5 68.5t54.5 47.5t62 33.5t52 36t21 45.5t-20 41.5t-41.5 21.5t-41.5 5q-22 0 -40 -6zM334 243l-85 -40l-207 364l139 67z
M274 0v145h151v-145h-151z" />
    <glyph glyph-name="uni2044" unicode="&#x2044;" horiz-adv-x="160" 
d="M160 650l-191 -325l-181 -325h-88l198 337l174 313h88z" />
    <glyph glyph-name="uni2070" unicode="&#x2070;" horiz-adv-x="391" 
d="M52 592q0 37 8.5 69.5t27 61.5t53 45.5t81.5 16.5q48 0 82.5 -17t52.5 -46t26 -60t8 -66q0 -83 -43 -135t-130 -52q-86 0 -126 51t-40 132zM161 600q0 -113 58 -113q63 0 63 112q0 108 -61 108q-60 0 -60 -107z" />
    <glyph glyph-name="uni2071" unicode="&#x2071;" horiz-adv-x="221" 
d="M90 760v95h100v-95h-100zM54 483h36v157h-40v69h140v-226h36v-68h-172v68z" />
    <glyph glyph-name="uni2074" unicode="&#x2074;" horiz-adv-x="370" 
d="M203 415v65h-165l-10 73l106 226h170v-221h58l-7 -78h-51v-65h-101zM187 704l-71 -146h87v146h-16z" />
    <glyph glyph-name="uni2075" unicode="&#x2075;" horiz-adv-x="341" 
d="M347 529q0 -56 -43.5 -88.5t-114.5 -32.5q-118 0 -137 99l73 25q16 -45 59 -45q26 0 40 12.5t14 31.5q0 26 -18 35.5t-52 9.5q-3 0 -60 -3l-31 26v180h240l10 -108l-84 -8l-7 41h-66v-57h18q159 0 159 -118z" />
    <glyph glyph-name="uni2076" unicode="&#x2076;" horiz-adv-x="348" 
d="M223 710q-29 0 -43.5 -19t-18.5 -73q23 36 78 36q56 0 82 -34.5t26 -80.5q0 -58 -41.5 -94t-105.5 -36q-73 0 -110.5 49t-37.5 131q0 85 40.5 140.5t123.5 55.5q74 0 119 -47l-54 -57q-25 29 -58 29zM204 583q-40 0 -43 -40q2 -31 12 -43.5t30 -12.5q41 0 41 48t-40 48z
" />
    <glyph glyph-name="uni2077" unicode="&#x2077;" horiz-adv-x="321" 
d="M40 779h283l11 -40l-132 -325h-99l122 291h-98v-61h-87v135z" />
    <glyph glyph-name="uni2078" unicode="&#x2078;" horiz-adv-x="351" 
d="M198 409q-66 0 -105 25t-39 71q0 33 18.5 52t53.5 34q-65 36 -65 92q0 46 38.5 74t103.5 28q62 0 99 -25t37 -66q0 -46 -61 -76q75 -40 75 -102q0 -52 -43 -79.5t-112 -27.5zM170 690q0 -22 55 -47q13 15 13 36q0 35 -35 35q-33 0 -33 -24zM202 480q42 0 42 29
q0 13 -11.5 24t-23 17.5t-35.5 17.5q-19 -17 -19 -43q0 -45 47 -45z" />
    <glyph glyph-name="uni2079" unicode="&#x2079;" horiz-adv-x="349" 
d="M178 484q32 0 46 18.5t16 73.5q-22 -36 -78 -36t-82 34.5t-26 80.5q0 58 41.5 94t105.5 36q74 0 111 -49t37 -136q0 -89 -39.5 -140t-122.5 -51q-76 0 -121 47l54 57q25 -29 58 -29zM197 611q40 0 43 38q-3 32 -12.5 45t-29.5 13q-41 0 -41 -48t40 -48z" />
    <glyph glyph-name="uni207A" unicode="&#x207a;" horiz-adv-x="275" 
d="M44 567v61h84v83h67v-83h81v-61h-81v-82h-67v82h-84z" />
    <glyph glyph-name="uni207B" unicode="&#x207b;" horiz-adv-x="304" 
d="M72 567v61h232v-61h-232z" />
    <glyph glyph-name="uni207C" unicode="&#x207c;" horiz-adv-x="359" 
d="M72 628v62h286v-62h-286zM72 504v61h286v-61h-286z" />
    <glyph glyph-name="uni207D" unicode="&#x207d;" horiz-adv-x="227" 
d="M157 817h84q-100 -118 -100 -251q0 -138 100 -253h-85q-96 117 -96 253q0 135 97 251z" />
    <glyph glyph-name="uni207E" unicode="&#x207e;" horiz-adv-x="227" 
d="M116 313h-84q100 118 100 251q0 138 -100 253h85q96 -117 96 -253q0 -135 -97 -251z" />
    <glyph glyph-name="uni207F" unicode="&#x207f;" horiz-adv-x="420" 
d="M253 483h36v96q0 36 -10.5 51.5t-34.5 15.5q-56 0 -56 -67v-96h36v-68h-172v68h36v157h-40v69h140v-44q28 50 94 50q46 0 77 -26t31 -74v-132h36v-68h-173v68z" />
    <glyph glyph-name="uni2080" unicode="&#x2080;" horiz-adv-x="391" 
d="M52 177q0 37 8.5 69.5t27 61.5t53 45.5t81.5 16.5q48 0 82.5 -17t52.5 -46t26 -60t8 -66q0 -83 -43 -135t-130 -52q-86 0 -126 51t-40 132zM161 185q0 -113 58 -113q63 0 63 112q0 108 -61 108q-60 0 -60 -107z" />
    <glyph glyph-name="uni2081" unicode="&#x2081;" horiz-adv-x="282" 
d="M58 75h73v214h-73v75h174v-289h65v-75h-239v75z" />
    <glyph glyph-name="uni2082" unicode="&#x2082;" horiz-adv-x="368" 
d="M135 239l-77 6l14 99q62 26 136 26q73 0 108 -29t35 -69q0 -13 -4 -26.5t-12.5 -27.5t-17 -25t-23.5 -25t-24 -22.5t-27 -21.5t-25 -18.5t-24.5 -17t-19.5 -13.5h105l12 55l81 -10l-10 -120h-303l-9 70q9 7 27.5 21t29.5 22t28 21.5t27.5 23t24.5 22t22 22t16 20t11.5 20
t3.5 17.5q0 16 -13.5 26t-35.5 10q-25 0 -46 -11z" />
    <glyph glyph-name="uni2083" unicode="&#x2083;" horiz-adv-x="350" 
d="M141 243l-77 6l13 95q56 25 132 25q62 0 97 -26t35 -67q0 -53 -61 -81v-2q73 -18 73 -91q0 -51 -43.5 -80t-114.5 -29q-118 0 -137 99l73 25q16 -45 59 -45q26 0 40 12.5t14 31.5q0 41 -79 45v56q22 1 33.5 3.5t22.5 12t11 27.5q0 34 -40 34q-23 0 -42 -10z" />
    <glyph glyph-name="uni2084" unicode="&#x2084;" horiz-adv-x="370" 
d="M203 0v65h-165l-10 73l106 226h170v-221h58l-7 -78h-51v-65h-101zM187 289l-71 -146h87v146h-16z" />
    <glyph glyph-name="uni2085" unicode="&#x2085;" horiz-adv-x="341" 
d="M347 114q0 -56 -43.5 -88.5t-114.5 -32.5q-118 0 -137 99l73 25q16 -45 59 -45q26 0 40 12.5t14 31.5q0 26 -18 35.5t-52 9.5q-3 0 -60 -3l-31 26v180h240l10 -108l-84 -8l-7 41h-66v-57h18q159 0 159 -118z" />
    <glyph glyph-name="uni2086" unicode="&#x2086;" horiz-adv-x="348" 
d="M223 295q-29 0 -43.5 -19t-18.5 -73q23 36 78 36q56 0 82 -34.5t26 -80.5q0 -58 -41.5 -94t-105.5 -36q-73 0 -110.5 49t-37.5 131q0 85 40.5 140.5t123.5 55.5q74 0 119 -47l-54 -57q-25 29 -58 29zM204 168q-40 0 -43 -40q2 -31 12 -43.5t30 -12.5q41 0 41 48t-40 48z
" />
    <glyph glyph-name="uni2087" unicode="&#x2087;" horiz-adv-x="321" 
d="M40 364h283l11 -40l-132 -325h-99l122 291h-98v-61h-87v135z" />
    <glyph glyph-name="uni2088" unicode="&#x2088;" horiz-adv-x="351" 
d="M198 -6q-66 0 -105 25t-39 71q0 33 18.5 52t53.5 34q-65 36 -65 92q0 46 38.5 74t103.5 28q62 0 99 -25t37 -66q0 -46 -61 -76q75 -40 75 -102q0 -52 -43 -79.5t-112 -27.5zM170 275q0 -22 55 -47q13 15 13 36q0 35 -35 35q-33 0 -33 -24zM202 65q42 0 42 29
q0 13 -11.5 24t-23 17.5t-35.5 17.5q-19 -17 -19 -43q0 -45 47 -45z" />
    <glyph glyph-name="uni2089" unicode="&#x2089;" horiz-adv-x="348" 
d="M178 69q32 0 46 18.5t16 73.5q-22 -36 -78 -36t-82 34.5t-26 80.5q0 58 41.5 94t105.5 36q74 0 111 -49t37 -136q0 -89 -39.5 -140t-122.5 -51q-76 0 -121 47l54 57q25 -29 58 -29zM197 196q40 0 43 38q-3 32 -12.5 45t-29.5 13q-41 0 -41 -48t40 -48z" />
    <glyph glyph-name="uni208A" unicode="&#x208a;" horiz-adv-x="275" 
d="M44 152v61h84v83h67v-83h81v-61h-81v-82h-67v82h-84z" />
    <glyph glyph-name="uni208B" unicode="&#x208b;" horiz-adv-x="304" 
d="M72 152v61h232v-61h-232z" />
    <glyph glyph-name="uni208C" unicode="&#x208c;" horiz-adv-x="359" 
d="M72 213v62h286v-62h-286zM72 89v61h286v-61h-286z" />
    <glyph glyph-name="uni208D" unicode="&#x208d;" horiz-adv-x="225" 
d="M155 402h84q-100 -118 -100 -251q0 -138 100 -253h-85q-96 117 -96 253q0 135 97 251z" />
    <glyph glyph-name="uni208E" unicode="&#x208e;" horiz-adv-x="227" 
d="M116 -103h-84q100 118 100 251q0 138 -100 253h85q96 -117 96 -253q0 -135 -97 -251z" />
    <glyph glyph-name="uni2090" unicode="&#x2090;" horiz-adv-x="361" 
d="M187 238q-20 0 -41 -9l-13 -45l-77 8l14 78q66 30 128 30q64 0 100 -26.5t36 -73.5v-125q0 -22 17 -22q4 0 12 2l1 -47q-30 -15 -60 -15q-62 0 -70 58q-34 -58 -96 -58q-39 0 -68.5 21.5t-29.5 63.5q0 89 146 89q18 0 48 -2v6v6q0 15 -0.5 22.5t-4.5 18t-14.5 15.5
t-27.5 5zM179 58q51 0 55 63q-22 5 -41 5q-46 0 -46 -37q0 -31 32 -31z" />
    <glyph glyph-name="uni2091" unicode="&#x2091;" horiz-adv-x="345" 
d="M206 68q52 0 55 40l84 -14q-2 -42 -41.5 -71.5t-104.5 -29.5q-72 0 -116.5 38t-44.5 110q0 69 42 114t114 45q77 0 119 -49t24 -123h-190q3 -32 16.5 -46t42.5 -14zM195 232q-42 0 -48 -52h92q4 22 -7 37t-37 15z" />
    <glyph glyph-name="uni2092" unicode="&#x2092;" horiz-adv-x="371" 
d="M38 142q0 68 43.5 113t123.5 45q81 0 124 -44t43 -109q0 -70 -48.5 -112t-123.5 -42q-72 0 -117 40t-45 109zM146 148q0 -79 57 -79q28 0 44.5 21t16.5 59q0 75 -60 75q-58 0 -58 -76z" />
    <glyph glyph-name="uni2093" unicode="&#x2093;" horiz-adv-x="388" 
d="M42 68h41l81 76l-90 81h-27v69h159v-69h-16l34 -35l37 35h-18v69h136v-69h-28l-79 -71l92 -86h25v-68h-160v68h20l-38 38l-38 -38h17v-68h-148v68z" />
    <glyph glyph-name="uni2095" unicode="&#x2095;" horiz-adv-x="413" 
d="M241 68h36v96q0 67 -47 67q-54 0 -54 -67v-96h36v-68h-172v68h36v311h-36v68h136v-197q28 50 94 50q46 0 77 -26t31 -74v-132h36v-68h-173v68z" />
    <glyph glyph-name="uni2096" unicode="&#x2096;" horiz-adv-x="395" 
d="M224 294h156v-69h-33l-56 -67l81 -90h21v-68h-159v68h25l-47 50h-40v-50h22v-68h-158v68h36v311h-40v68h140v-265h47l35 43h-30v69z" />
    <glyph glyph-name="uni2097" unicode="&#x2097;" horiz-adv-x="212" 
d="M36 68h36v311h-40v68h140v-379h36v-68h-172v68z" />
    <glyph glyph-name="uni2098" unicode="&#x2098;" horiz-adv-x="609" 
d="M443 68h37v96q0 67 -47 67q-48 0 -48 -66v-97h36v-68h-172v68h36v96q0 36 -11 51.5t-35 15.5q-47 0 -49 -58v-105h33v-68h-169v68h36v157h-40v69h140v-42q29 48 89 48q33 0 60.5 -16t38.5 -46q27 62 96 62q44 0 75 -26t31 -74v-132h36v-68h-173v68z" />
    <glyph glyph-name="uni2099" unicode="&#x2099;" horiz-adv-x="421" 
d="M255 68h36v96q0 36 -10.5 51.5t-34.5 15.5q-56 0 -56 -67v-96h36v-68h-172v68h36v157h-40v69h140v-44q28 50 94 50q46 0 77 -26t31 -74v-132h36v-68h-173v68z" />
    <glyph glyph-name="uni209A" unicode="&#x209a;" horiz-adv-x="407" 
d="M38 -70h36v295h-40v69h140v-53q30 59 100 59q58 0 94 -39.5t36 -106.5q0 -69 -37 -115t-103 -46q-63 0 -90 42v-105h49v-68h-185v68zM236 68q25 0 42.5 18.5t17.5 60.5q0 38 -15 58t-41 20q-28 0 -46 -22.5t-20 -55.5v-6q0 -35 17 -54t45 -19z" />
    <glyph glyph-name="uni209B" unicode="&#x209b;" horiz-adv-x="331" 
d="M189 62q42 0 42 24q0 11 -13.5 18t-33.5 9.5t-43 8t-43 13.5t-33.5 25.5t-13.5 44.5q0 36 24 58.5t53.5 29.5t63.5 7q72 0 119 -30l9 -64l-77 -8l-7 28q-17 5 -40 5q-37 0 -37 -21q0 -16 27 -24.5t59.5 -12t59.5 -24t27 -59.5q0 -48 -37.5 -72.5t-102.5 -24.5
q-87 0 -146 36l15 75l77 -8l-4 -27q24 -7 55 -7z" />
    <glyph glyph-name="uni209C" unicode="&#x209c;" horiz-adv-x="299" 
d="M26 294h41v88h100v-88h106v-69h-106v-121q0 -35 31 -35t35 45l72 -21q-12 -100 -118 -100q-54 0 -87 25t-33 70v137h-41v69z" />
    <glyph glyph-name="uni20A1" unicode="&#x20a1;" horiz-adv-x="685" 
d="M592 689h89l-205 -571q26 8 43 17l14 97l109 -10l-13 -153q-25 -26 -80.5 -46.5t-116.5 -28.5l-23 -65h-89l22 63q-13 1 -34 5l-24 -68h-89l34 96q-75 40 -118 117t-43 179q0 146 86.5 242.5t225.5 96.5q33 0 73 -9l14 38h89l-27 -74q13 -11 27 -26zM396 542
q-86 0 -135 -56.5t-49 -162.5q0 -118 62 -174l140 392q-6 1 -18 1zM492 511l-143 -398q12 -3 35 -5l132 368q-9 20 -24 35z" />
    <glyph glyph-name="uni20A2" unicode="&#x20a2;" horiz-adv-x="661" 
d="M630 69q-32 -34 -102 -56.5t-141 -22.5q-141 0 -234 90.5t-93 233.5q0 48 10.5 94.5t36 92.5t62.5 81t95 56.5t129 21.5q77 0 138 -22.5t96 -55.5l16 -151l-109 -10l-14 86q-52 35 -133 35q-85 0 -134 -57t-49 -162q0 -153 102 -198v158h-65v98h184v-77q21 82 89 82
q36 0 73 -20l11 -118l-80 -9l-9 41q-17 9 -32 9q-19 0 -30.5 -11.5t-11.5 -32.5v-135q52 6 85 25l14 97l109 -10z" />
    <glyph glyph-name="uni20A3" unicode="&#x20a3;" horiz-adv-x="800" 
d="M284 536v-142h309v-87q27 92 106 92q46 0 89 -25l21 -158l-98 -11l-18 77q-19 12 -35 12q-23 0 -39 -17.5t-16 -49.5v-129h80v-98h-269v98h60v183h-190v-167h96v-114h-300v114h70v422h-70v114h488l20 -200l-114 -10l-20 96h-170z" />
    <glyph glyph-name="uni20A4" unicode="&#x20a4;" horiz-adv-x="576" 
d="M588 104q-14 -35 -61.5 -69.5t-113.5 -34.5h-328v111q54 32 64 98h-69v78h72v52h-72v78h72q0 117 60.5 180t158.5 63q47 0 96.5 -14t79.5 -44l16 -151l-109 -10l-14 86q-30 15 -71 15q-43 0 -63 -28.5t-20 -95.5v-1h181v-78h-181v-52h181v-78h-186q-10 -61 -64 -95h169
q92 0 143 59z" />
    <glyph glyph-name="uni20A5" unicode="&#x20a5;" horiz-adv-x="908" 
d="M929 0h-189v254q0 57 -19 82.5t-58 25.5q-27 0 -44 -10l-43 -99v-156h60v-97h-171l-57 -130h-89l128 291v93q0 57 -19 82.5t-58 25.5q-87 0 -87 -107v-158h86v-97h-275v97h60v256h-59v98h188v-68q43 77 137 77q89 0 130 -63l74 168h89l-49 -112q21 7 50 7q66 0 110.5 -40
t44.5 -116v-207h60v-97z" />
    <glyph glyph-name="uni20A6" unicode="&#x20a6;" horiz-adv-x="783" 
d="M788 536h-70v-107h69v-78h-69v-42h69v-78h-69v-231l-75 -1l-196 232h-157v-117h90v-114h-285v114h70v117h-80v78h80v42h-80v78h80v107h-81v114h177l188 -221h144v107h-94v114h289v-114zM290 351v-42h91l-36 42h-55zM515 351l35 -42h43v42h-78z" />
    <glyph glyph-name="uni20A7" unicode="&#x20a7;" horiz-adv-x="1434" 
d="M621 438q0 -106 -69.5 -163t-171.5 -57h-100v-104h100v-114h-304v114h70v422h-70v114h298q119 0 183 -56.5t64 -155.5zM1028 140q-19 -150 -168 -150q-76 0 -122 38t-46 107v224h-64v92h64v137h129v-137h162v-92h-162v-202q0 -59 54 -59q51 0 59 71zM477 436
q0 50 -27.5 75t-92.5 25h-77v-205h75q122 0 122 105zM1442 138q0 -73 -58 -110.5t-156 -37.5q-108 0 -193 44l18 126l100 -11v-56q27 -9 68 -9q39 0 65 12.5t26 35.5q0 21 -28 31.5t-68 17t-80 17.5t-68 41.5t-28 80.5q0 52 31.5 85t73 44t93.5 11q90 0 169 -41l11 -115
l-100 -11l-8 63q-33 11 -71 11q-60 0 -60 -43q0 -21 27 -32t65.5 -17.5t77.5 -17.5t66 -41t27 -78z" />
    <glyph glyph-name="uni20A8" unicode="&#x20a8;" horiz-adv-x="1008" 
d="M816 362q-60 0 -60 -38q0 -22 27 -34t66 -18.5t77.5 -17t65.5 -38.5t27 -74q0 -70 -61 -111t-182 -41q-125 0 -226 48.5t-153 155.5l-27 54h-86v-134h70v-114h-274v114h70v422h-70v114h294q120 0 185.5 -49.5t65.5 -142.5q0 -67 -33.5 -113.5t-91.5 -68.5l28 -54
q21 -41 55 -69t73 -41.5t71 -18.5t64 -5q98 0 98 44q0 22 -28 33.5t-68 17.5t-80 16t-68 40t-28 80q0 40 17.5 69t48 44t63 21.5t69.5 6.5q90 0 169 -41l11 -115l-100 -11l-8 56q-39 13 -71 13zM348 354q74 0 103.5 23.5t29.5 72.5t-28.5 67.5t-102.5 18.5h-66v-182h64z" />
    <glyph glyph-name="uni20A9" unicode="&#x20a9;" horiz-adv-x="1030" 
d="M1031 536h-52l-16 -47h49v-88h-78l-14 -42h92v-88h-122l-90 -271h-95l-99 271h-111l-94 -271h-97l-96 271h-130v88h98l-15 42h-83v88h52l-16 47h-56v114h259v-114h-60l14 -47h187l18 47h-51v114h259v-114h-46l17 -47h177l13 47h-70v114h256v-114zM298 401l13 -42h99
l16 42h-128zM686 401l15 -42h96l12 42h-123zM540 401l-15 -42h49l-15 42h-19zM753 216h6l15 55h-41zM354 222h6l18 49h-39z" />
    <glyph glyph-name="uni20AA" unicode="&#x20aa;" horiz-adv-x="802" 
d="M142 0v650h253q147 0 196.5 -53t49.5 -208v-145h-132v150q0 37 -1 59.5t-6.5 40.5t-12 26t-21.5 13.5t-30.5 6.5t-44.5 1h-118v-541h-133zM457 109h138q23 0 40 5t27.5 17.5t16.5 24t8.5 35t3 38.5t0.5 47v374h132v-369q0 -83 -8 -132t-33 -85t-69.5 -50t-118.5 -14h-269
v406h132v-297z" />
    <glyph glyph-name="uni20AB" unicode="&#x20ab;" horiz-adv-x="550" 
d="M228 638h144v50h118v-50h50v-77h-50v-339h54v-77h-172v65q-41 -73 -140 -73q-80 0 -127 48.5t-47 131.5t47.5 137t135.5 54q92 0 131 -61v114h-144v77zM278 424q-41 0 -67 -25t-26 -76q0 -49 24 -75t63 -26q45 0 72.5 30.5t27.5 72.5v9q0 43 -26 66.5t-68 23.5zM93 87
h423v-87h-423v87z" />
    <glyph glyph-name="uni20AC" unicode="&#x20ac;" horiz-adv-x="592" 
d="M60 277v75h63q23 81 85.5 129t158.5 48q61 0 111.5 -18.5t79.5 -44.5l13 -123l-108 -8l-12 70q-27 23 -72 23q-87 0 -116 -76h131v-75h-144v-18q0 -19 1 -27h118v-75h-102q29 -64 117 -64q46 0 68 21l12 77l108 -8l-10 -125q-28 -29 -84 -47.5t-116 -18.5
q-90 0 -151.5 43.5t-85.5 121.5h-65v75h51v45h-51z" />
    <glyph glyph-name="uni20AD" unicode="&#x20ad;" horiz-adv-x="697" 
d="M103 274v109h49v153h-70v114h262v-114h-58v-153h82l115 153h-56v114h270v-114h-73l-122 -153h106v-109h-88l121 -160h67v-114h-283v114h60l-119 160h-80v-160h55v-114h-259v114h70v160h-49z" />
    <glyph glyph-name="uni20AE" unicode="&#x20ae;" horiz-adv-x="664" 
d="M664 430l-114 -10l-20 116h-103v-106l93 23v-90l-93 -23v-30l93 23v-90l-93 -23v-106h106v-114h-340v114h100v73l-86 -21v90l86 21v30l-86 -21v90l86 21v139h-103l-20 -116l-114 10l20 220h568z" />
    <glyph glyph-name="uni20B1" unicode="&#x20b1;" horiz-adv-x="666" 
d="M101 443v68h65v25h-70v114h298q95 0 155 -36.5t81 -102.5h57v-68h-46v-5q0 -12 -1 -17h47v-68h-61q-25 -66 -86.5 -100.5t-139.5 -34.5h-100v-104h100v-114h-304v114h70v239h-65v68h65v22h-65zM300 536v-25h169q-30 25 -92 25h-77zM497 436v7h-197v-22h196q1 5 1 15z
M375 331q57 0 87 22h-162v-22h75z" />
    <glyph glyph-name="uni20B4" unicode="&#x20b4;" horiz-adv-x="611" 
d="M56 355v55h335q38 26 38 67q0 65 -96 65q-43 0 -100 -19l-17 -86l-103 11l22 173q136 39 223 39q92 0 153.5 -39.5t61.5 -130.5q0 -47 -19 -80h54v-55h-109q-33 -20 -102 -39h211v-54h-342q-33 -30 -33 -77q0 -77 108 -77q68 0 113 27l14 87l109 -10l-13 -143
q-32 -35 -97 -57t-135 -22q-47 0 -89.5 11t-77.5 33t-55.5 58.5t-20.5 83.5q0 51 20 86h-53v54h105q31 21 85 39h-190z" />
    <glyph glyph-name="uni20B9" unicode="&#x20b9;" horiz-adv-x="539" 
d="M80 287h169q80 0 98 35h-267v72h268q-15 26 -79 29h-189v98h459v-98h-55q6 -18 7 -29h41v-72h-44q-19 -70 -96 -100l71 -124h62v-98h-149l-108 196h-188v91z" />
    <glyph glyph-name="uni20BA" unicode="&#x20ba;" horiz-adv-x="605" 
d="M104 247l71 30v40l-71 -30v80l71 30v139h-70v114h284v-114h-80v-81l160 69v-80l-160 -69v-40l160 69v-80l-160 -69v-141h20q83 0 127.5 50t44.5 170h131q0 -161 -76 -247.5t-227 -86.5h-224v114h70v83l-71 -30v80z" />
    <glyph glyph-name="uni20BD" unicode="&#x20bd;" horiz-adv-x="623" 
d="M104 114h70v31h-70v69h70v34h-70v113h70v175h-70v114h298q121 0 184 -50.5t63 -147.5q0 -104 -68 -154t-173 -50h-100v-34h239v-69h-239v-31h100v-114h-304v114zM383 361q69 0 95.5 19t26.5 66q0 49 -27 69.5t-93 20.5h-77v-175h75z" />
    <glyph glyph-name="uni2113" unicode="&#x2113;" horiz-adv-x="474" 
d="M97 185l-35 70l73 35v160q0 54 19 99.5t65.5 78t115.5 32.5q80 0 119 -39.5t39 -95.5q0 -126 -228 -256v-83q0 -91 61 -91q38 0 90 29l15 -94q-49 -40 -128 -40q-168 0 -168 170v43zM265 431v-69q106 69 106 137q0 53 -49 53q-35 0 -46 -29.5t-11 -91.5z" />
    <glyph glyph-name="uni2116" unicode="&#x2116;" horiz-adv-x="1024" 
d="M691 371q0 68 43.5 113t123.5 45q81 0 124 -44t43 -109q0 -70 -48.5 -112t-123.5 -42q-72 0 -117 40t-45 109zM422 521h253v-98h-55v-423l-71 -1l-285 318h-4v-219h72v-98h-249v98h57v325h-66v98h158l264 -294h4v196h-78v98zM799 377q0 -79 57 -79q28 0 44.5 21t16.5 59
q0 75 -60 75q-58 0 -58 -76zM692 109v85h333v-85h-333z" />
    <glyph glyph-name="uni2117" unicode="&#x2117;" horiz-adv-x="596" 
d="M328 -7q-111 0 -189.5 77.5t-78.5 189.5t78 190.5t191 78.5q112 0 189.5 -78.5t77.5 -189.5q0 -112 -78.5 -190t-189.5 -78zM328 58q87 0 142.5 59t55.5 144t-53 143.5t-144 58.5t-145 -58.5t-54 -144.5t54 -144t144 -58zM219 172h31v183h-31v55h142q56 0 87 -26t31 -71
q0 -48 -33.5 -74t-81.5 -26h-42v-41h44v-55h-147v55zM350 268q29 0 40 11t11 32q0 22 -11 33t-38 11h-30v-87h28z" />
    <glyph glyph-name="uni2120" unicode="&#x2120;" horiz-adv-x="1003" 
d="M260 224q-46 0 -95.5 13t-74.5 35l14 111l73 -7l-3 -51q37 -18 74 -18q67 0 67 47q0 26 -19.5 38t-63.5 21q-1 0 -17 3.5t-19 4.5t-18 5t-19.5 6.5t-17 8t-16.5 11t-12.5 14t-11.5 17.5t-6 21t-3 26q0 66 48 97.5t115 31.5q45 0 85.5 -13.5t61.5 -36.5l5 -96l-74 -7
l-6 52q-30 20 -69 20q-54 0 -54 -37q0 -14 9.5 -23t20.5 -13t37 -10q79 -19 107 -38q48 -34 49 -97q0 -66 -47.5 -101t-119.5 -35zM448 307h44v263h-52v80h138l150 -250h3l138 250h140v-80h-52v-263h44v-80h-182v80h34v141h-3l-103 -184h-42l-114 193h-2v-150h37v-80h-178
v80z" />
    <glyph glyph-name="uni2122" unicode="&#x2122;" horiz-adv-x="1092" 
d="M1096 570h-52v-263h44v-80h-182v80h34v141h-3l-103 -184h-42l-114 193h-2v-150h37v-80h-178v80h44v263h-52v80h138l150 -250h3l138 250h140v-80zM516 497l-80 -7l-13 80h-66v-263h69v-80h-237v80h64v263h-68l-14 -80l-79 7l14 153h396z" />
    <glyph glyph-name="uni2126" unicode="&#x2126;" horiz-adv-x="688" 
d="M381 543q-93 0 -130.5 -47.5t-37.5 -129.5q0 -84 32.5 -116.5t96.5 -37.5v-212h-274v108h165v28q-60 9 -112.5 72t-52.5 167q0 69 26.5 125t71.5 90t99.5 52t114.5 18q59 0 113 -17.5t98.5 -52t70.5 -91t26 -127.5q0 -98 -46.5 -163t-118.5 -73v-28h165v-108h-264v212
q65 0 91.5 36.5t26.5 116.5q0 84 -34 131t-127 47z" />
    <glyph glyph-name="uni212E" unicode="&#x212e;" horiz-adv-x="592" 
d="M600 235h-428q-4 0 -4 -3v-137q0 -9 6 -17q26 -32 67.5 -53.5t89.5 -21.5q114 0 185 84h24q-85 -99 -209 -99q-115 0 -191 73.5t-76 180.5t76 180.5t191 73.5t192 -73.5t77 -180.5v-7zM495 255v137q0 13 -5 18q-22 28 -67 49.5t-92 21.5t-92 -23t-64 -51q-7 -11 -7 -19
v-133q0 -4 4 -4h322q1 0 1 4z" />
    <glyph glyph-name="uni2153" unicode="&#x2153;" horiz-adv-x="785" 
d="M634 650l-191 -325l-181 -325h-88l198 337l174 313h88zM70 361h73v214h-73v75h174v-289h65v-75h-239v75zM582 243l-77 6l13 95q56 25 132 25q62 0 97 -26t35 -67q0 -53 -61 -81v-2q73 -18 73 -91q0 -51 -43.5 -80t-114.5 -29q-118 0 -137 99l73 25q16 -45 59 -45
q26 0 40 12.5t14 31.5q0 41 -79 45v56q22 1 33.5 3.5t22.5 12t11 27.5q0 34 -40 34q-23 0 -42 -10z" />
    <glyph glyph-name="uni2154" unicode="&#x2154;" horiz-adv-x="842" 
d="M145 529l-77 6l14 99q62 26 136 26q73 0 108 -29t35 -69q0 -13 -4 -26.5t-12.5 -27.5t-17 -25t-23.5 -25t-24 -22.5t-27 -21.5t-25 -18.5t-24.5 -17t-19.5 -13.5h105l12 55l81 -10l-10 -120h-303l-9 70q9 7 27.5 21t29.5 22t28 21.5t27.5 23t24.5 22t22 22t16 20t11.5 20
t3.5 17.5q0 16 -13.5 26t-35.5 10q-25 0 -46 -11zM689 650l-191 -325l-181 -325h-88l198 337l174 313h88zM633 243l-77 6l13 95q56 25 132 25q62 0 97 -26t35 -67q0 -53 -61 -81v-2q73 -18 73 -91q0 -51 -43.5 -80t-114.5 -29q-118 0 -137 99l73 25q16 -45 59 -45
q26 0 40 12.5t14 31.5q0 41 -79 45v56q22 1 33.5 3.5t22.5 12t11 27.5q0 34 -40 34q-23 0 -42 -10z" />
    <glyph glyph-name="uni215B" unicode="&#x215b;" horiz-adv-x="758" 
d="M635 650l-191 -325l-181 -325h-88l198 337l174 313h88zM70 361h73v214h-73v75h174v-289h65v-75h-239v75zM612 -6q-66 0 -105 25t-39 71q0 33 18.5 52t53.5 34q-65 36 -65 92q0 46 38.5 74t103.5 28q62 0 99 -25t37 -66q0 -46 -61 -76q75 -40 75 -102q0 -52 -43 -79.5
t-112 -27.5zM584 275q0 -22 55 -47q13 15 13 36q0 35 -35 35q-33 0 -33 -24zM616 65q42 0 42 29q0 13 -11.5 24t-23 17.5t-35.5 17.5q-19 -17 -19 -43q0 -45 47 -45z" />
    <glyph glyph-name="uni2190" unicode="&#x2190;" horiz-adv-x="765" 
d="M331 20l-269 212v37l268 216v-112l-61 -68h527v-108h-526l61 -65v-112z" />
    <glyph glyph-name="uni2191" unicode="&#x2191;" horiz-adv-x="527" 
d="M315 714l212 -269h-112l-65 61v-526h-108v527l-68 -61h-112l216 268h37z" />
    <glyph glyph-name="uni2192" unicode="&#x2192;" horiz-adv-x="765" 
d="M734 232l-269 -212v112l61 65h-526v108h527l-61 68v112l268 -216v-37z" />
    <glyph glyph-name="uni2193" unicode="&#x2193;" horiz-adv-x="527" 
d="M527 249l-212 -269h-37l-216 268h112l68 -61v527h108v-526l65 61h112z" />
    <glyph glyph-name="uni2196" unicode="&#x2196;" horiz-adv-x="632" 
d="M88 614l340 -40l-79 -79l-89 -3l372 -372l-77 -76l-372 371l-5 -90l-80 -79l-36 342z" />
    <glyph glyph-name="uni2197" unicode="&#x2197;" horiz-adv-x="632" 
d="M266 574l340 40l26 -26l-36 -342l-80 79l-5 90l-372 -371l-77 76l372 372l-89 3z" />
    <glyph glyph-name="uni2198" unicode="&#x2198;" horiz-adv-x="632" 
d="M606 44l-340 40l79 79l89 3l-372 372l77 76l372 -372l5 91l80 79l36 -342z" />
    <glyph glyph-name="uni2199" unicode="&#x2199;" horiz-adv-x="632" 
d="M428 84l-340 -40l-26 26l36 342l80 -79l5 -91l372 372l77 -76l-372 -372l89 -3z" />
    <glyph glyph-name="uni2202" unicode="&#x2202;" horiz-adv-x="447" 
d="M81 321q0 42 19 74l-80 80l48 47l78 -77q38 27 86 27q46 0 86 -27l78 77l48 -47l-80 -80q19 -35 19 -74q0 -43 -22 -79l83 -83l-48 -47l-83 82q-37 -24 -81 -24t-82 24l-82 -82l-48 47l83 83q-22 36 -22 79zM191 321q0 -21 12 -36t29 -15t29 15t12 36t-12 36t-29 15
t-29 -15t-12 -36z" />
    <glyph glyph-name="uni2206" unicode="&#x2206;" horiz-adv-x="533" 
d="M42 0l251 661l240 -661h-491zM185 98h205l-100 296z" />
    <glyph glyph-name="uni220F" unicode="&#x220f;" horiz-adv-x="685" 
d="M74 114h70v422h-70v114h611v-114h-70v-422h70v-114h-274v114h70v422h-203v-422h70v-114h-274v114z" />
    <glyph glyph-name="uni2211" unicode="&#x2211;" horiz-adv-x="555" 
d="M60 -140v114l233 279l-233 283v114h494v-114h-336l213 -258v-40l-213 -264h336v-114h-494z" />
    <glyph glyph-name="uni2212" unicode="&#x2212;" horiz-adv-x="435" 
d="M88 237v88h347v-88h-347z" />
    <glyph glyph-name="uni221A" unicode="&#x221a;" horiz-adv-x="587" 
d="M254 0l-110 344h-122v97h201l85 -264l196 520h106l-270 -697h-86z" />
    <glyph glyph-name="uni221E" unicode="&#x221e;" horiz-adv-x="706" 
d="M538 79q-59 0 -94.5 29t-63.5 80q-27 -52 -61 -80.5t-93 -28.5q-79 0 -124.5 50.5t-45.5 123.5q0 76 48.5 127.5t125.5 51.5q59 0 91.5 -30.5t58.5 -85.5q31 55 67.5 85.5t96.5 30.5q75 0 118 -49.5t43 -125.5q0 -78 -45 -128t-122 -50zM515 174q39 0 60.5 22t21.5 61
q0 79 -76 79q-40 0 -65 -22t-46 -63q41 -77 105 -77zM238 174q62 0 108 80q-22 40 -45.5 61t-59.5 21q-39 0 -58.5 -24.5t-19.5 -59.5q0 -36 19.5 -57t55.5 -21z" />
    <glyph glyph-name="uni222B" unicode="&#x222b;" horiz-adv-x="371" 
d="M6 -140v107h42q51 0 66 17t15 75v436q0 102 41 148t155 46h47v-108h-55q-48 0 -63.5 -16t-15.5 -73v-438q0 -99 -44.5 -146.5t-150.5 -47.5h-37z" />
    <glyph glyph-name="uni2248" unicode="&#x2248;" horiz-adv-x="590" 
d="M420 289q-43 0 -107 33t-97 33q-45 0 -85 -62l-71 48q63 132 159 132q34 0 94 -33t104 -33q30 0 50 14t44 55l80 -53q-65 -134 -171 -134zM420 78q-43 0 -107 33t-97 33q-45 0 -85 -62l-71 48q63 132 159 132q34 0 94 -33t104 -33q30 0 50 14t44 55l80 -53
q-65 -134 -171 -134z" />
    <glyph glyph-name="uni2260" unicode="&#x2260;" horiz-adv-x="535" 
d="M80 347v88h268l42 69h106l-40 -69h81v-88h-132l-77 -134h209v-88h-260l-40 -69h-117l41 69h-81v88h134l81 134h-215z" />
    <glyph glyph-name="uni2264" unicode="&#x2264;" horiz-adv-x="398" 
d="M382 94l-319 183v64l318 188v-112l-184 -103l185 -108v-112zM62 0v88h320v-88h-320z" />
    <glyph glyph-name="uni2265" unicode="&#x2265;" horiz-adv-x="398" 
d="M94 94v112l185 108l-184 103v112l318 -188v-64zM414 0h-320v88h320v-88z" />
    <glyph glyph-name="uni24CA" unicode="&#x24ca;" horiz-adv-x="596" 
d="M328 -7q-111 0 -189.5 77.5t-78.5 189.5t78 190.5t191 78.5q112 0 189.5 -78.5t77.5 -189.5q0 -112 -78.5 -190t-189.5 -78zM328 58q87 0 142.5 59t55.5 144t-53 143.5t-144 58.5t-145 -58.5t-54 -144.5t54 -144t144 -58zM358 390h121v-53h-25v-111q0 -51 -30.5 -86
t-95.5 -35q-62 0 -92.5 33t-30.5 83v116h-24v53h124v-53h-31v-114q0 -63 57 -63q59 0 59 66v111h-32v53z" />
    <glyph glyph-name="uni25B2" unicode="&#x25b2;" horiz-adv-x="650" 
d="M650 23h-574l287 458z" />
    <glyph glyph-name="uni25B6" unicode="&#x25b6;" horiz-adv-x="591" 
d="M188 -35v575l459 -288z" />
    <glyph glyph-name="uni25B8" unicode="&#x25b8;" horiz-adv-x="418" 
d="M475 234l-287 -287v575z" />
    <glyph glyph-name="uni25BA" unicode="&#x25ba;" horiz-adv-x="905" 
d="M954 234l-774 -287v575z" />
    <glyph glyph-name="uni25BC" unicode="&#x25bc;" horiz-adv-x="650" 
d="M76 480h574l-287 -458z" />
    <glyph glyph-name="uni25C0" unicode="&#x25c0;" horiz-adv-x="591" 
d="M535 -35l-459 287l459 288v-575z" />
    <glyph glyph-name="uni25C2" unicode="&#x25c2;" horiz-adv-x="418" 
d="M362 -53l-286 288l286 287v-575z" />
    <glyph glyph-name="uni25C4" unicode="&#x25c4;" horiz-adv-x="906" 
d="M854 -53l-774 286l774 289v-575z" />
    <glyph glyph-name="uni25CA" unicode="&#x25ca;" horiz-adv-x="578" 
d="M312 -11l-268 331l268 340l267 -340zM312 136l143 184l-143 181l-144 -181z" />
    <glyph glyph-name="uni2610" unicode="&#x2610;" horiz-adv-x="879" 
d="M202 0v651h677v-651h-677zM302 551v-452h478v452h-478z" />
    <glyph glyph-name="uni2611" unicode="&#x2611;" horiz-adv-x="879" 
d="M202 0v651h677v-651h-677zM302 551v-452h478v452h-478zM427 328l61 -112l162 319l104 -64l-264 -342l-152 114z" />
    <glyph glyph-name="uni261A" unicode="&#x261a;" horiz-adv-x="957" 
d="M926 394v-352h-154q-2 16 -4 50q-145 -56 -225 -56q-20 0 -48.5 2.5t-46.5 5.5l-19 2q-12 -2 -56 -2q-33 0 -51 9.5t-18 36.5q0 16 15 31q-22 17 -22 40q0 17 11 28q-21 18 -21 40q0 11 6 21l-132 1q-31 0 -45 15t-14 36q0 23 14.5 37.5t44.5 14.5h168q-8 24 11 51
q33 3 76 18.5t64 15.5q74 0 141 -23.5t146 -68.5q1 15 5 47h154z" />
    <glyph glyph-name="uni261B" unicode="&#x261b;" horiz-adv-x="957" 
d="M164 42v352h154l4 -47q80 45 146.5 68.5t141.5 23.5q21 0 64 -15.5t76 -18.5q19 -27 11 -51h168q30 0 44.5 -14.5t14.5 -37.5q0 -21 -14 -36t-45 -15l-132 -1q6 -10 6 -21q0 -22 -21 -40q11 -11 11 -28q0 -23 -22 -40q15 -15 15 -31q0 -27 -18 -36.5t-51 -9.5
q-44 0 -56 2q-69 -10 -114 -10q-80 0 -225 56l-4 -50h-154z" />
    <glyph glyph-name="uni261C" unicode="&#x261c;" horiz-adv-x="927" 
d="M894 394v-352h-154q-2 16 -4 50q-145 -56 -225 -56q-20 0 -48.5 2.5t-46.5 5.5l-19 2q-12 -2 -56 -2q-33 0 -51 9.5t-18 36.5q0 16 15 31q-22 17 -22 40q0 17 11 28q-21 18 -21 40q0 11 6 21l-102 1q-31 0 -45 15t-14 36q0 23 14.5 37.5t44.5 14.5h148q-3 9 -3 19
q0 8 3.5 19.5t6.5 19.5l4 7q70 28 146 28q122 0 272 -96q2 30 4 43h154zM734 131q-3 51 -3 104q0 25 2 75q-57 33 -90.5 50.5t-89 36t-100.5 18.5q-64 0 -115 -29q-1 -8 -1 -13q0 -9 19 -9q55 15 94 15q27 0 48 -12q2 -5 7 -16.5t7 -15.5t6 -13t6.5 -13t6.5 -11t8 -12
t10 -11.5t12 -12.5q0 -18 -15 -31q-53 48 -72 87h-318q-23 0 -23 -16q0 -15 23 -15l298 -2q27 -27 27 -55q0 -18 -10 -34q10 -21 10 -36q0 -21 -17 -41q4 -15 4 -23q0 -13 -4 -22q1 -2 47 -2q73 0 223 59zM441 248h-148q-6 -13 -6 -19q0 -18 6 -18l152 -4q0 35 -4 41z
M443 180h-140q-7 -13 -7 -19q0 -14 7 -18l142 -4v17q0 22 -2 24zM429 112h-118q-6 -17 -6 -20q0 -6 10.5 -10.5t25.5 -4.5q21 0 31 1q6 0 17.5 0.5t15.5 0.5h23q2 4 2 16q0 15 -1 17z" />
    <glyph glyph-name="uni261D" unicode="&#x261d;" horiz-adv-x="535" 
d="M138 -98v154l50 4q-56 145 -56 225q0 20 2.5 48.5t5.5 46.5l2 19q-2 12 -2 56q0 33 9.5 51t36.5 18q16 0 31 -15q17 22 40 22q17 0 28 -11q18 21 40 21q11 0 21 -6l1 102q0 31 15 45t36 14q23 0 37.5 -14.5t14.5 -44.5v-148q9 3 19 3q8 0 19.5 -3.5t19.5 -6.5l7 -4
q28 -70 28 -146q0 -124 -96 -272l43 -4v-154h-352zM168 285q0 -73 59 -223q58 2 89 2q30 0 90 -2q32 56 50 90.5t36.5 90t18.5 100.5q0 64 -29 115q-8 1 -13 1q-9 0 -9 -19q15 -55 15 -94q0 -27 -12 -48q-5 -2 -16.5 -7t-15.5 -7t-13 -6t-13 -6.5t-11 -6.5t-12 -8t-11.5 -10
t-12.5 -12q-18 0 -31 15q48 53 87 72v318q0 23 -16 23q-15 0 -15 -23l-2 -298q-27 -27 -55 -27q-18 0 -34 10q-21 -10 -36 -10q-21 0 -41 17q-15 -4 -23 -4q-13 0 -22 4q-2 -1 -2 -47zM344 355v148q-13 6 -19 6q-18 0 -18 -6l-4 -152q35 0 41 4zM276 353v140q-13 7 -19 7
q-14 0 -18 -7l-4 -142h17q22 0 24 2zM208 367v118q-17 6 -20 6q-6 0 -10.5 -10.5t-4.5 -25.5q0 -21 1 -31q0 -6 0.5 -17.5t0.5 -15.5v-23q4 -2 16 -2q15 0 17 1z" />
    <glyph glyph-name="uni261E" unicode="&#x261e;" horiz-adv-x="927" 
d="M166 42v352h154l4 -43q150 96 272 96q76 0 146 -28q14 -27 14 -46q0 -10 -3 -19h148q30 0 44.5 -14.5t14.5 -37.5q0 -21 -14 -36t-45 -15l-102 -1q6 -10 6 -21q0 -22 -21 -40q11 -11 11 -28q0 -23 -22 -40q15 -15 15 -31q0 -27 -18 -36.5t-51 -9.5q-44 0 -56 2
q-69 -10 -114 -10q-80 0 -225 56l-4 -50h-154zM607 415q-45 0 -100.5 -18.5t-90 -36.5t-90.5 -50q2 -60 2 -90q0 -31 -2 -89q149 -59 223 -59l47 2q-4 9 -4 22l4 23q-17 20 -17 41q0 7 2.5 16t4.5 14l3 6q-10 16 -10 34q0 28 27 55l298 2q23 0 23 15q0 16 -23 16h-318
q-19 -39 -72 -87q-15 14 -15 31q7 7 13 13.5t11.5 14.5t8.5 12t8 15t6.5 14t7.5 17.5t8 18.5q21 12 48 12q39 0 94 -15q19 0 19 9l-1 13q-51 29 -115 29zM767 248h-148q-4 -6 -4 -41l152 4q6 0 6 18zM757 180h-140q-2 -2 -2 -24v-17l142 4q7 4 7 18zM749 112h-118
q-1 -2 -1 -17q0 -12 2 -16h23q4 0 15.5 -0.5t17.5 -0.5q10 -1 31 -1q15 0 25.5 4.5t10.5 10.5z" />
    <glyph glyph-name="uni261F" unicode="&#x261f;" horiz-adv-x="536" 
d="M138 696h352v-154q-13 -2 -43 -4q96 -150 96 -272q0 -76 -28 -146q-27 -14 -46 -14q-10 0 -19 3v-148q0 -30 -14.5 -44.5t-37.5 -14.5q-21 0 -36 14t-15 45l-1 102q-10 -6 -21 -6q-22 0 -40 21q-11 -11 -28 -11q-23 0 -40 22q-15 -15 -31 -15q-27 0 -36.5 18t-9.5 51
q0 44 2 56q-10 69 -10 114q0 80 56 225q-34 2 -50 4v154zM406 535q-50 -2 -75 -2q-53 0 -104 3q-59 -150 -59 -223l2 -47q9 4 22 4l23 -4q20 17 41 17q7 0 16 -2.5t14 -4.5l6 -3q16 10 34 10q28 0 55 -27l2 -298q0 -23 15 -23q16 0 16 23v318q-39 19 -87 72q13 15 31 15
q7 -7 13.5 -13t14.5 -11.5t12 -8.5t15 -8t14 -6.5t17.5 -7.5t18.5 -8q12 -21 12 -48q0 -39 -15 -94q0 -19 9 -19l13 1q29 51 29 115q0 45 -18.5 100.5t-36 89t-50.5 90.5zM344 95v148q-6 4 -41 4l4 -152q0 -6 18 -6zM276 105v140q-2 2 -24 2h-17l4 -142q4 -7 18 -7zM208 113
v118q-2 1 -17 1q-12 0 -16 -2v-23q0 -4 -0.5 -15.5t-0.5 -17.5q-1 -10 -1 -31q0 -15 4.5 -25.5t10.5 -10.5z" />
    <glyph glyph-name="uni267E" unicode="&#x267e;" horiz-adv-x="596" 
d="M328 -7q-111 0 -189.5 77.5t-78.5 189.5t78 190.5t191 78.5q112 0 189.5 -78.5t77.5 -189.5q0 -112 -78.5 -190t-189.5 -78zM328 58q87 0 142.5 59t55.5 144t-53 143.5t-144 58.5t-145 -58.5t-54 -144.5t54 -144t144 -58zM407 158q-31 0 -49 17t-32 49q-26 -66 -77 -66
q-40 0 -63 31t-23 75q0 47 24.5 78t63.5 31q50 0 75 -70q17 33 35 51.5t48 18.5q38 0 60 -30.5t22 -76.5q0 -47 -22.5 -77.5t-61.5 -30.5zM398 315q-34 0 -56 -53q20 -47 53 -47q19 0 30 14t11 37q0 49 -38 49zM255 215q30 0 54 49q-22 51 -53 51q-19 0 -29 -15.5t-10 -36.5
q0 -48 38 -48z" />
    <glyph glyph-name="uni2713" unicode="&#x2713;" horiz-adv-x="709" 
d="M311 354l74 -137l198 389l126 -78l-322 -417l-185 139z" />
    <glyph glyph-name="uni301A" unicode="&#x301a;" horiz-adv-x="479" 
d="M134 -248v1033h393v-87h-114v-859h114v-87h-393zM243 698v-859h61v859h-61z" />
    <glyph glyph-name="uni301B" unicode="&#x301b;" horiz-adv-x="479" 
d="M431 -248h-393v87h114v859h-114v87h393v-1033zM322 -161v859h-61v-859h61z" />
    <glyph glyph-name="uniF8FF" unicode="&#xf8ff;" horiz-adv-x="1241" 
d="M771 338h-11v39h-19v-39h-11v70h11v-20h20v-10h10v-40zM361 377h-11v10h-10v11h11v-10h10v-11zM1101 387h-10v-10h-11v11h10v10h11v-11zM411 387h-10v-10h-11v11h10v10h11v-11zM1051 377h-11v10h-10v11h11v-10h10v-11zM471 338h-21v9h-10v30h-10v11h10v10h11v-10h20v-11
h-20v-29h20v-10zM711 338h-21v9h-10v30h-10v11h10v10h11v-10h20v-11h-20v-29h20v-10zM591 347h-10v-9h-20v-20h-11v70h31v-10h10v-31zM1181 377h-11v11h11v-11zM271 377h-11v11h11v-11zM1141 377h-11v11h11v-11zM311 377h-11v11h11v-11zM531 347h-10v-9h-10v-10h-10v-10h-11
v11h10v18h-10v41h11v-40h19v40h11v-41zM1011 338h-31v9h-10v31h10v10h21v-10h10v-21h-30v-9h30v-10zM951 338h-31v9h-10v41h11v-40h19v40h11v-50zM891 318h-11v20h-20v9h-10v31h10v10h31v-70zM831 338h-31v9h-10v31h10v10h21v-10h10v-21h-30v-9h30v-10zM651 347h-10v-9h-21
v9h-10v31h10v10h21v-10h10v-31zM1241 357h-10v-10h-11v10h-10v11h10v10h11v-10h10v-11zM1081 357h-10v-10h-11v10h-10v11h10v10h11v-10h10v-11zM391 357h-10v-10h-11v10h-10v11h10v10h11v-10h10v-11zM1171 357h-10v-10h-11v10h-10v11h10v10h11v-10h10v-11zM301 357h-10v-10
h-11v10h-10v11h10v10h11v-10h10v-11zM231 357h-10v-10h-11v10h-10v11h10v10h11v-10h10v-11zM1000 368v9h-19v-9h19zM880 348v29h-19v-29h19zM820 368v9h-19v-9h19zM640 348v29h-19v-29h19zM580 348v29h-19v-29h19zM1051 338h-10v-10h-11v10h10v10h11v-10zM1101 328h-11v10
h-10v10h11v-10h10v-10zM411 328h-11v10h-10v10h11v-10h10v-10zM1141 338h-11v10h11v-10zM361 338h-10v-10h-11v10h10v10h11v-10zM311 338h-11v10h11v-10zM1181 338h-11v10h11v-10zM271 338h-11v10h11v-10z" />
    <glyph glyph-name="CR" horiz-adv-x="187" 
 />
    <glyph glyph-name="uni0030.zero" horiz-adv-x="576" 
d="M576 254q0 -133 -69 -198.5t-192 -65.5q-122 0 -187.5 64.5t-65.5 197.5q0 127 67 203t190 76q128 0 192.5 -75.5t64.5 -201.5zM432 261q0 86 -29 119t-85 33q-57 0 -84 -33.5t-27 -118.5q0 -86 27 -119.5t84 -33.5q55 0 84.5 32.5t29.5 120.5zM368 208h-98v111h98v-111z
" />
    <glyph glyph-name="Iacute_Jacute" horiz-adv-x="838" 
d="M344 716l-215 -28l-16 57l202 88zM831 716l-215 -28l-16 57l202 88zM352 0h-274v114h70v422h-70v114h274v-114h-70v-422h70v-114zM848 536h-60v-351q0 -96 -53 -145.5t-144 -49.5q-143 0 -195 123l94 71q27 -70 88 -70q39 0 57.5 19t18.5 51v352h-114v114h308v-114z" />
    <glyph glyph-name="iacute_jacute" horiz-adv-x="564" 
d="M314 599l-195 -91l-34 49l162 143zM611 599l-195 -91l-34 49l162 143zM338 451h199v-435q0 -134 -49.5 -192t-175.5 -46l-4 85q25 0 39.5 4t30.5 18t23 46.5t7 84.5v337h-70v98zM59 98h60v255h-65v98h194v-353h60v-98h-249v98z" />
    <glyph glyph-name="uni0069.TRK" horiz-adv-x="299" 
d="M114 531v134h129v-134h-129zM308 0h-249v97h60v256h-65v98h194v-354h60v-97z" />
    <glyph glyph-name="FL989" horiz-adv-x="687" 
d="M472 727l-43 -40l-170 134l84 85zM336 745l-16 -57l-215 28l29 117zM700 0h-259v114h52l-24 66h-221l-27 -66h61v-114h-256v114h59l186 422h-90v114h223l234 -536h62v-114zM433 276l-68 183h-6l-73 -183h147z" />
    <glyph glyph-name="FL990" horiz-adv-x="506" 
d="M382 542l-49 -34l-150 154l98 71zM247 557l-34 -49l-195 91l67 101zM77 419q60 24 99 32.5t94 8.5q77 0 128 -39.5t51 -113.5v-196q0 -35 31 -35q8 0 19 3l1 -68q-39 -21 -81 -21q-44 0 -69 23.5t-30 65.5v1q-51 -90 -145 -90q-56 0 -97.5 32t-41.5 97q0 137 210 137
q43 0 74 -4v15q0 23 -1.5 36t-8 30.5t-22.5 26t-42 8.5q-44 0 -69 -13l-17 -64l-103 11zM320 184v6q-42 6 -65 6q-86 0 -86 -62q0 -52 53 -52q37 0 65.5 26t32.5 76z" />
    <glyph glyph-name="FL991" horiz-adv-x="687" 
d="M492 695h-102q0 61 -37 61q-38 0 -38 -61h-102q0 69 37 103.5t103 34.5q67 0 103 -35t36 -103zM700 0h-259v114h52l-24 66h-221l-27 -66h61v-114h-256v114h59l186 422h-90v114h223l234 -536h62v-114zM433 276l-68 183h-6l-73 -183h147z" />
    <glyph glyph-name="FL992" horiz-adv-x="506" 
d="M421 515h-102q0 61 -37 61q-38 0 -38 -61h-102q0 69 38 103.5t104 34.5t101.5 -35t35.5 -103zM95 419q60 24 99 32.5t94 8.5q77 0 128 -39.5t51 -113.5v-196q0 -35 31 -35q8 0 19 3l1 -68q-39 -21 -81 -21q-44 0 -69 23.5t-30 65.5v1q-51 -90 -145 -90q-56 0 -97.5 32
t-41.5 97q0 137 210 137q43 0 74 -4v15q0 23 -1.5 36t-8 30.5t-22.5 26t-42 8.5q-44 0 -69 -13l-17 -64l-103 11zM338 184v6q-42 6 -65 6q-86 0 -86 -62q0 -52 53 -52q37 0 65.5 26t32.5 76z" />
    <glyph glyph-name="FL993" horiz-adv-x="592" 
d="M504 727l-43 -40l-170 134l84 85zM368 745l-16 -57l-215 28l29 117zM580 0h-502v114h70v422h-70v114h496l20 -190l-114 -10l-20 86h-178v-153h274v-113h-274v-156h184l20 86l114 -10z" />
    <glyph glyph-name="FL994" horiz-adv-x="483" 
d="M392 542l-49 -34l-150 154l98 71zM257 557l-34 -49l-195 91l67 101zM477 142q-5 -64 -61 -108t-149 -44q-104 0 -168 58.5t-64 168.5q0 107 60.5 175t165.5 68q94 0 152 -54t60 -142q0 -33 -7 -65h-296q11 -107 106 -107q80 0 93 70zM340 274q5 37 -15.5 65.5t-63.5 28.5
q-38 0 -61 -25t-29 -69h169z" />
    <glyph glyph-name="FL995" horiz-adv-x="592" 
d="M515 695h-102q0 61 -37 61q-38 0 -38 -61h-102q0 69 37 103.5t103 34.5q67 0 103 -35t36 -103zM580 0h-502v114h70v422h-70v114h496l20 -190l-114 -10l-20 86h-178v-153h274v-113h-274v-156h184l20 86l114 -10z" />
    <glyph glyph-name="FL996" horiz-adv-x="483" 
d="M398 515h-102q0 61 -37 61q-38 0 -38 -61h-102q0 69 38 103.5t104 34.5t101.5 -35t35.5 -103zM484 142q-5 -64 -61 -108t-149 -44q-104 0 -168 58.5t-64 168.5q0 107 60.5 175t165.5 68q94 0 152 -54t60 -142q0 -33 -7 -65h-296q11 -107 106 -107q80 0 93 70zM347 274
q5 37 -15.5 65.5t-63.5 28.5q-38 0 -61 -25t-29 -69h169z" />
    <glyph glyph-name="FL997" horiz-adv-x="352" 
d="M281 727l-43 -40l-170 134l84 85zM145 745l-16 -57l-215 28l29 117zM270 0h-274v114h70v422h-70v114h274v-114h-70v-422h70v-114z" />
    <glyph glyph-name="FL998" horiz-adv-x="299" 
d="M182 542l-49 -34l-150 154l98 71zM47 557l-34 -49l-195 91l67 101zM-59 98h60v255h-65v98h194v-353h60v-98h-249v98z" />
    <glyph glyph-name="FL999" horiz-adv-x="352" 
d="M363 695h-102q0 61 -37 61q-38 0 -38 -61h-102q0 69 37 103.5t103 34.5q67 0 103 -35t36 -103zM352 0h-274v114h70v422h-70v114h274v-114h-70v-422h70v-114z" />
    <glyph glyph-name="FL1000" horiz-adv-x="299" 
d="M273 515h-102q0 61 -37 61q-38 0 -38 -61h-102q0 69 38 103.5t104 34.5t101.5 -35t35.5 -103zM29 98h60v255h-65v98h194v-353h60v-98h-249v98z" />
    <glyph glyph-name="FL1001" horiz-adv-x="712" 
d="M520 727l-43 -40l-170 134l84 85zM384 745l-16 -57l-215 28l29 117zM712 326q0 -143 -90.5 -239.5t-244.5 -96.5q-153 0 -241 96t-88 238q0 145 91.5 240.5t241.5 95.5q151 0 241 -96t90 -238zM567 322q0 104 -48.5 162t-138.5 58q-93 0 -140 -59t-47 -156
q0 -96 47 -157.5t144 -61.5q92 0 137.5 57.5t45.5 156.5z" />
    <glyph glyph-name="FL1002" horiz-adv-x="523" 
d="M392 542l-49 -34l-150 154l98 71zM257 557l-34 -49l-195 91l67 101zM517 225q0 -106 -69.5 -170.5t-178.5 -64.5q-106 0 -170.5 61.5t-64.5 168.5q0 105 63 173t179 68q117 0 179 -67.5t62 -168.5zM384 229q0 66 -30.5 99.5t-79.5 33.5q-50 0 -78.5 -36t-28.5 -99
q0 -60 27.5 -99t78.5 -39q50 0 80.5 38t30.5 102z" />
    <glyph glyph-name="FL1003" horiz-adv-x="712" 
d="M524 695h-102q0 61 -37 61q-38 0 -38 -61h-102q0 69 37 103.5t103 34.5q67 0 103 -35t36 -103zM712 326q0 -143 -90.5 -239.5t-244.5 -96.5q-153 0 -241 96t-88 238q0 145 91.5 240.5t241.5 95.5q151 0 241 -96t90 -238zM567 322q0 104 -48.5 162t-138.5 58
q-93 0 -140 -59t-47 -156q0 -96 47 -157.5t144 -61.5q92 0 137.5 57.5t45.5 156.5z" />
    <glyph glyph-name="FL1004" horiz-adv-x="523" 
d="M417 515h-102q0 61 -37 61q-38 0 -38 -61h-102q0 69 38 103.5t104 34.5t101.5 -35t35.5 -103zM523 225q0 -106 -69.5 -170.5t-178.5 -64.5q-106 0 -170.5 61.5t-64.5 168.5q0 105 63 173t179 68q117 0 179 -67.5t62 -168.5zM390 229q0 66 -30.5 99.5t-79.5 33.5
q-50 0 -78.5 -36t-28.5 -99q0 -60 27.5 -99t78.5 -39q50 0 80.5 38t30.5 102z" />
    <glyph glyph-name="FL1009" horiz-adv-x="719" 
d="M549 727l-43 -40l-170 134l84 85zM413 745l-16 -57l-215 28l29 117zM720 536h-58v-267q0 -55 -14.5 -102.5t-46 -88.5t-87 -64.5t-130.5 -23.5q-139 0 -204.5 76t-65.5 192v278h-58v114h268v-114h-76v-274q0 -154 143 -154q74 0 110 42.5t36 118.5v267h-76v114h259v-114z
" />
    <glyph glyph-name="FL1010" horiz-adv-x="585" 
d="M416 542l-49 -34l-150 154l98 71zM281 557l-34 -49l-195 91l67 101zM585 0h-194v69q-45 -78 -145 -78q-68 0 -113 40t-45 116v207h-60v97h189v-254q0 -57 19 -82.5t58 -25.5q46 0 71.5 29.5t25.5 77.5v158h-73v97h202v-354h65v-97z" />
    <glyph glyph-name="FL1011" horiz-adv-x="719" 
d="M529 695h-102q0 61 -37 61q-38 0 -38 -61h-102q0 69 37 103.5t103 34.5q67 0 103 -35t36 -103zM720 536h-58v-267q0 -55 -14.5 -102.5t-46 -88.5t-87 -64.5t-130.5 -23.5q-139 0 -204.5 76t-65.5 192v278h-58v114h268v-114h-76v-274q0 -154 143 -154q74 0 110 42.5
t36 118.5v267h-76v114h259v-114z" />
    <glyph glyph-name="FL1012" horiz-adv-x="585" 
d="M425 515h-102q0 61 -37 61q-38 0 -38 -61h-102q0 69 38 103.5t104 34.5t101.5 -35t35.5 -103zM585 0h-194v69q-45 -78 -145 -78q-68 0 -113 40t-45 116v207h-60v97h189v-254q0 -57 19 -82.5t58 -25.5q46 0 71.5 29.5t25.5 77.5v158h-73v97h202v-354h65v-97z" />
    <glyph glyph-name="uni00BF.cap" horiz-adv-x="481" 
d="M355 654v-145h-151v145h151zM370 198l103 -11l-21 -153q-94 -39 -197 -39q-91 0 -148 39.5t-57 106.5q0 38 20 67t48 45.5t56.5 30t48.5 27.5t20 31q0 28 -41 28v79q181 23 181 -91q0 -36 -19 -61t-46.5 -38t-55 -25t-46.5 -29t-19 -42q0 -51 76 -51q53 0 82 15z" />
    <glyph glyph-name="uni003F.smcp" horiz-adv-x="417" 
d="M147 361l-91 7l18 128q78 33 167 33q81 0 131.5 -32.5t50.5 -87.5q0 -37 -25 -63t-54.5 -37t-54.5 -24.5t-25 -28.5q0 -21 31 -21v-68q-166 -20 -166 75q0 28 15.5 47.5t38 29.5t45 18.5t38 21t15.5 31.5q0 38 -59 38q-36 0 -62 -13zM156 0v124h136v-124h-136z" />
    <glyph glyph-name="uni00BF.smcp" horiz-adv-x="418" 
d="M311 524v-124h-136v124h136zM320 163l91 -7l-18 -128q-78 -33 -167 -33q-81 0 -131.5 32.5t-50.5 87.5q0 37 25 63t54.5 37t54.5 24.5t25 28.5q0 21 -31 21v68q166 20 166 -75q0 -35 -24 -57t-52 -30t-52 -23.5t-24 -37.5q0 -38 59 -38q36 0 62 13z" />
    <glyph glyph-name="uni00A1.cap" horiz-adv-x="262" 
d="M108 509v145h151v-145h-151zM262 4h-154l30 418h94z" />
    <glyph glyph-name="uni0021.smcp" horiz-adv-x="251" 
d="M250 521l-29 -330h-90l-29 330h148zM112 0v124h136v-124h-136z" />
    <glyph glyph-name="uni00A1.smcp" horiz-adv-x="251" 
d="M112 400v124h136v-124h-136zM250 3h-148l29 330h90z" />
    <glyph glyph-name="uni203D.smcp" horiz-adv-x="646" 
d="M360 374l-89 23l41 122q48 10 106 10q88 0 152 -34.5t64 -103.5q0 -37 -20 -64t-51 -43t-63 -29.5t-61 -32.5t-40 -44l-78 27q4 36 32 63t58 39.5t55 32t25 42.5q0 19 -16 30.5t-30 14t-28 2.5q-18 0 -35 -5zM302 200l-81 -35l-185 284l133 58zM249 0v124h136v-124h-136z
" />
    <glyph glyph-name="uni002D.cap" horiz-adv-x="321" 
d="M82 393h239v-108h-239v108z" />
    <glyph glyph-name="uni2013.cap" horiz-adv-x="586" 
d="M84 388h502v-85h-502v85z" />
    <glyph glyph-name="uni2014.cap" horiz-adv-x="1024" 
d="M84 388h940v-85h-940v85z" />
    <glyph glyph-name="uni002F.smcp" horiz-adv-x="334" 
d="M334 520l-175 -520h-115l175 520h115z" />
    <glyph glyph-name="uni005C.smcp" horiz-adv-x="334" 
d="M44 520h115l175 -520h-115z" />
    <glyph glyph-name="uni0028.cap" horiz-adv-x="279" 
d="M193 688h114q-150 -187 -150 -372q0 -196 150 -369h-116q-143 170 -143 364q0 195 145 377z" />
    <glyph glyph-name="uni0029.cap" horiz-adv-x="278" 
d="M104 -53h-114q150 187 150 372q0 196 -150 369h116q143 -170 143 -364q0 -195 -145 -377z" />
    <glyph glyph-name="uni005B.cap" horiz-adv-x="304" 
d="M134 -97v843h223v-87h-114v-669h114v-87h-223z" />
    <glyph glyph-name="uni005D.cap" horiz-adv-x="304" 
d="M251 -97h-223v87h114v669h-114v87h223v-843z" />
    <glyph glyph-name="uni007B.cap" horiz-adv-x="304" 
d="M136 327q62 -8 91.5 -34.5t29.5 -59.5q0 -26 -21.5 -53t-43 -58.5t-21.5 -68.5q0 -64 63 -64h64v-87h-64q-90 0 -130 42.5t-40 104.5q0 36 13.5 67t29 49t29 38.5t13.5 38.5q0 32 -31.5 44.5t-66.5 12.5h-19v57h19q20 0 39.5 3.5t39 17t19.5 35.5q0 17 -13.5 37t-29 36.5
t-29 47t-13.5 67.5q0 65 41 105.5t129 40.5h64v-87h-64q-63 0 -63 -64q0 -30 13.5 -55.5t29.5 -41t29.5 -36.5t13.5 -42q0 -33 -29.5 -59.5t-91.5 -33.5z" />
    <glyph glyph-name="uni007D.cap" horiz-adv-x="305" 
d="M206 322q-62 8 -91.5 34.5t-29.5 59.5q0 26 21.5 53t43 58.5t21.5 68.5q0 64 -63 64h-64v87h64q90 0 130 -42.5t40 -104.5q0 -36 -13.5 -67t-29 -49t-29 -38.5t-13.5 -38.5q0 -32 31.5 -44.5t66.5 -12.5h19v-57h-19q-20 0 -39.5 -3.5t-39 -17t-19.5 -35.5q0 -17 13.5 -37
t29 -36.5t29 -47t13.5 -67.5q0 -65 -41 -105.5t-129 -40.5h-64v87h64q63 0 63 64q0 30 -13.5 55.5t-29.5 41t-29.5 36.5t-13.5 42q0 33 29.5 59.5t91.5 33.5z" />
    <glyph glyph-name="uni301A.cap" horiz-adv-x="474" 
d="M134 -98v844h393v-87h-114v-670h114v-87h-393zM243 659v-670h61v670h-61z" />
    <glyph glyph-name="uni301B.cap" horiz-adv-x="474" 
d="M421 -98h-393v87h114v670h-114v87h393v-844zM312 -11v670h-61v-670h61z" />
    <glyph glyph-name="dblparenleft" horiz-adv-x="453" 
d="M207 718h114q-166 -211 -166 -448q0 -247 166 -453h-116q-159 211 -159 453q0 240 161 448zM371 718h114q-166 -211 -166 -448q0 -247 166 -453h-116q-159 211 -159 453q0 240 161 448z" />
    <glyph glyph-name="dblparenleft.cap" horiz-adv-x="439" 
d="M193 688h114q-150 -187 -150 -372q0 -196 150 -369h-116q-143 170 -143 364q0 195 145 377zM353 688h114q-150 -187 -150 -372q0 -196 150 -369h-116q-143 170 -143 364q0 195 145 377z" />
    <glyph glyph-name="dblparenright" horiz-adv-x="453" 
d="M260 -183h-114q166 211 166 448q0 247 -166 453h116q159 -211 159 -453q0 -240 -161 -448zM96 -183h-114q166 211 166 448q0 247 -166 453h116q159 -211 159 -453q0 -240 -161 -448z" />
    <glyph glyph-name="dblparenright.cap" horiz-adv-x="438" 
d="M264 688q145 -182 145 -377q0 -194 -143 -364h-116q150 173 150 369q0 185 -150 372h114zM104 688q145 -182 145 -377q0 -194 -143 -364h-116q150 173 150 369q0 185 -150 372h114z" />
    <glyph glyph-name="uni00B6.smcp" horiz-adv-x="570" 
d="M218 521h339v-93h-51v-428h-115v428h-27v-428h-115v249h-36q-76 0 -122.5 33.5t-46.5 105.5q0 57 47 95t127 38z" />
    <glyph glyph-name="uni0023.pnum_lnum" horiz-adv-x="572" 
d="M550 652l-31 -162h55v-98h-74l-24 -123h68v-98h-86l-33 -171h-110l33 171h-129l-33 -171h-110l33 171h-47v98h65l24 123h-59v98h78l31 162h110l-31 -162h129l31 162h110zM237 269h129l24 123h-129z" />
    <glyph glyph-name="uni0025.pnum_lnum" horiz-adv-x="705" 
d="M213 344q-75 0 -118 44t-43 114q0 67 45.5 112.5t117.5 45.5q78 0 119 -44t41 -112q0 -69 -45.5 -114.5t-116.5 -45.5zM640 651l-206 -321l-190 -330h-134l234 357l164 294h132zM213 433q55 0 55 69t-53 69q-56 0 -56 -70q0 -68 54 -68zM543 -10q-75 0 -118 44t-43 114
q0 67 45.5 112.5t117.5 45.5q78 0 119 -44t41 -112q0 -69 -45.5 -114.5t-116.5 -45.5zM543 79q55 0 55 69t-53 69q-56 0 -56 -70q0 -68 54 -68z" />
    <glyph glyph-name="uni2030.pnum_lnum" horiz-adv-x="1039" 
d="M213 344q-75 0 -118 44t-43 114q0 67 45.5 112.5t117.5 45.5q78 0 119 -44t41 -112q0 -69 -45.5 -114.5t-116.5 -45.5zM640 651l-206 -321l-190 -330h-134l234 357l164 294h132zM213 433q55 0 55 69t-53 69q-56 0 -56 -70q0 -68 54 -68zM543 -10q-75 0 -118 44t-43 114
q0 67 45.5 112.5t117.5 45.5q78 0 119 -44t41 -112q0 -69 -45.5 -114.5t-116.5 -45.5zM878 -10q-75 0 -118 44t-43 114q0 67 45.5 112.5t117.5 45.5q78 0 119 -44t41 -112q0 -69 -45.5 -114.5t-116.5 -45.5zM543 79q55 0 55 69t-53 69q-56 0 -56 -70q0 -68 54 -68zM878 79
q55 0 55 69t-53 69q-56 0 -56 -70q0 -68 54 -68z" />
    <glyph glyph-name="uni00AA.smcp" horiz-adv-x="427" 
d="M54 466h37l84 163h-44v68h150l111 -231h38v-69h-148v69h19l-10 23h-104l-11 -23h24v-69h-146v69zM238 603l-30 -66h62l-29 66h-3z" />
    <glyph glyph-name="uni201C.smcp" horiz-adv-x="412" 
d="M246 549l-60 -234h-126l60 234h126zM422 549l-60 -234h-126l60 234h126z" />
    <glyph glyph-name="uni201D.smcp" horiz-adv-x="410" 
d="M58 316l60 234h126l-60 -234h-126zM234 316l60 234h126l-60 -234h-126z" />
    <glyph glyph-name="uni2018.smcp" horiz-adv-x="236" 
d="M246 549l-60 -234h-126l60 234h126z" />
    <glyph glyph-name="uni2019.smcp" horiz-adv-x="234" 
d="M58 316l60 234h126l-60 -234h-126z" />
    <glyph glyph-name="uni203A.cap" horiz-adv-x="302" 
d="M171 85h-107l117 246l-117 240h107l138 -240z" />
    <glyph glyph-name="uni2039.cap" horiz-adv-x="302" 
d="M295 85h-107l-138 246l138 240h107l-117 -240z" />
    <glyph glyph-name="uni00AB.cap" horiz-adv-x="472" 
d="M295 85h-107l-138 246l138 240h107l-117 -240zM465 85h-107l-138 246l138 240h107l-117 -240z" />
    <glyph glyph-name="uni00BB.cap" horiz-adv-x="472" 
d="M341 85h-107l117 246l-117 240h107l138 -240zM171 85h-107l117 246l-117 240h107l138 -240z" />
    <glyph glyph-name="uni00B7.smcp" horiz-adv-x="242" 
d="M88 192v163h153v-163h-153z" />
    <glyph glyph-name="uni00660069" horiz-adv-x="597" 
d="M418 98v255h-173v-255h75v-98h-264v98h60v255h-55v98h55v69q0 75 58 126.5t163 51.5q98 0 176 -41l20 -122l-100 -11l-19 64q-39 13 -77 13q-92 0 -92 -79v-71h302v-353h60v-98h-249v98h60z" />
    <glyph glyph-name="uni0066006C" horiz-adv-x="598" 
d="M608 0h-249v98h60v472q-35 32 -83 32q-44 0 -67.5 -23.5t-23.5 -59.5v-68h91v-98h-91v-255h75v-98h-264v98h60v255h-55v98h55v62q0 81 51 133t137 52q68 0 115 -36v26h129v-590h60v-98z" />
    <glyph glyph-name="uni00B4.cap" horiz-adv-x="274" 
d="M309 716l-215 -28l-16 57l202 88z" />
    <glyph glyph-name="uni02D8.cap" horiz-adv-x="364" 
d="M347 833q0 -69 -37 -103.5t-103 -34.5q-67 0 -103 35t-36 103h102q0 -61 37 -61q38 0 38 61h102z" />
    <glyph glyph-name="uni02C7.cap" horiz-adv-x="341" 
d="M354 791l-135 -106h-45l-136 107l28 52l137 -60l122 60z" />
    <glyph glyph-name="uni02C6.cap" horiz-adv-x="341" 
d="M354 737l-28 -52l-135 60l-124 -60l-29 53l135 106h45z" />
    <glyph glyph-name="uni00A8.cap" horiz-adv-x="404" 
d="M90 705v134h129v-134h-129zM275 705v134h129v-134h-129z" />
    <glyph glyph-name="uni02D9.cap" horiz-adv-x="184" 
d="M48 705v134h129v-134h-129z" />
    <glyph glyph-name="uni02DD.cap" horiz-adv-x="417" 
d="M339 821l-170 -134l-43 40l129 179zM493 716l-215 -28l-16 57l202 88z" />
    <glyph glyph-name="uni0060.cap" horiz-adv-x="274" 
d="M309 745l-16 -57l-215 28l29 117z" />
    <glyph glyph-name="uni00AF.cap" horiz-adv-x="375" 
d="M392 721h-308v98h308v-98z" />
    <glyph glyph-name="uni02DC.cap" horiz-adv-x="374" 
d="M388 820q0 -120 -85 -120q-25 0 -64 15.5t-62 15.5q-33 0 -42 -33l-50 16q-3 36 18.5 73t67.5 37q23 0 61 -15.5t54 -15.5q36 0 48 38z" />
    <glyph glyph-name="commaaccent" horiz-adv-x="203" 
d="M202 -58l-26 -155h-98l3 155h121z" />
    <glyph glyph-name="uni02DA.cap" horiz-adv-x="260" 
d="M261 783q0 -43 -26.5 -68.5t-79.5 -25.5q-51 0 -77 24t-26 67t26.5 68t79.5 25q52 0 77.5 -24.5t25.5 -65.5zM181 785q0 28 -24 28q-15 0 -20 -8t-5 -25t4.5 -24t19.5 -7t20 8.5t5 27.5z" />
    <glyph glyph-name="uni02C7.alt" horiz-adv-x="226" 
d="M262 681l-36 -224h-98l13 224h121z" />
    <glyph glyph-name="downbreve" horiz-adv-x="399" 
d="M395 515h-102q0 61 -37 61q-38 0 -38 -61h-102q0 69 38 103.5t104 34.5t101.5 -35t35.5 -103z" />
    <glyph glyph-name="downbreve.cap" horiz-adv-x="364" 
d="M347 695h-102q0 61 -37 61q-38 0 -38 -61h-102q0 69 37 103.5t103 34.5q67 0 103 -35t36 -103z" />
    <glyph glyph-name="horumlaut" horiz-adv-x="430" 
d="M444 542l-49 -34l-150 154l98 71zM309 557l-34 -49l-195 91l67 101z" />
    <glyph glyph-name="horumlaut.cap" horiz-adv-x="417" 
d="M493 727l-43 -40l-170 134l84 85zM357 745l-16 -57l-215 28l29 117z" />
    <glyph glyph-name="uni0030.smcp_zero" horiz-adv-x="519" 
d="M56 254q0 54 11.5 100t36.5 87t72.5 64.5t112.5 23.5q53 0 94 -16t66 -42t41.5 -62.5t22.5 -72.5t6 -76q0 -120 -57.5 -194t-177.5 -74q-62 0 -107 20.5t-71 57.5t-38 82.5t-12 101.5zM196 264q0 -52 6 -86t26.5 -59t56.5 -25q95 0 95 169q0 165 -95 165q-52 0 -70.5 -43
t-18.5 -121zM334 308v-89h-94v89h94z" />
    <glyph glyph-name="uni0030.smcp" horiz-adv-x="519" 
d="M56 254q0 54 11.5 100t36.5 87t72.5 64.5t112.5 23.5q53 0 94 -16t66 -42t41.5 -62.5t22.5 -72.5t6 -76q0 -120 -57.5 -194t-177.5 -74q-62 0 -107 20.5t-71 57.5t-38 82.5t-12 101.5zM196 264q0 -52 6 -86t26.5 -59t56.5 -25q95 0 95 169q0 165 -95 165q-52 0 -70.5 -43
t-18.5 -121z" />
    <glyph glyph-name="uni0031.smcp" horiz-adv-x="363" 
d="M60 98h103v325h-103v98h232v-423h92v-98h-324v98z" />
    <glyph glyph-name="uni0032.smcp" horiz-adv-x="487" 
d="M163 347l-102 9l18 138q88 35 190 35q97 0 144.5 -39t47.5 -97q0 -33 -17.5 -68.5t-38.5 -62t-60.5 -61t-60.5 -50.5t-62 -45q-2 -2 -3.5 -3t-3.5 -2.5t-4 -2.5h159l14 76l111 -10l-21 -164h-411l-11 91q12 10 38.5 31t41.5 33t39.5 32.5t39 34t34 32t31 33t22.5 31
t16 31t5 27.5q0 25 -18 40t-50 15q-46 0 -75 -16z" />
    <glyph glyph-name="uni0033.smcp" horiz-adv-x="465" 
d="M181 347l-102 9l18 138q88 36 178 36q72 0 126 -33.5t54 -98.5q0 -80 -89 -118v-3q51 -10 79.5 -43.5t28.5 -86.5q0 -43 -20 -75t-53 -48.5t-68 -24t-72 -7.5q-90 0 -138.5 41.5t-50.5 110.5l113 28q0 -83 78 -83q38 0 54.5 21t16.5 50q0 39 -29 55.5t-89 18.5v75
q31 2 48 5t34.5 18.5t17.5 43.5q0 56 -63 56q-34 0 -59 -14z" />
    <glyph glyph-name="uni0034.smcp" horiz-adv-x="492" 
d="M397 0h-129v101h-236l-14 96l157 324h222v-324h81l-9 -96h-72v-101zM268 197v226h-28l-109 -226h137z" />
    <glyph glyph-name="uni0035.smcp" horiz-adv-x="452" 
d="M462 162q0 -79 -62 -124.5t-145 -45.5q-76 0 -132 39t-63 113l113 28q0 -83 78 -83q38 0 54.5 21.5t16.5 50.5q0 44 -26.5 60t-79.5 16q-28 0 -80 -4l-41 35v253h336v-1l3 1l12 -158l-100 -8l-14 68h-118v-93q9 1 28 1q220 0 220 -169z" />
    <glyph glyph-name="uni0036.smcp" horiz-adv-x="466" 
d="M465 176q0 -82 -55.5 -133t-145.5 -51q-103 0 -154.5 69.5t-51.5 186.5q0 130 60 206t164 76q108 0 165 -70l-53 -69q-42 42 -100 42q-44 0 -66.5 -28t-28.5 -103q0 -3 -0.5 -9t-0.5 -9q35 55 114 55t116 -48.5t37 -114.5zM332 170q0 76 -64 76q-66 0 -69 -68
q5 -45 20 -65t48 -20q65 0 65 77z" />
    <glyph glyph-name="uni0037.smcp" horiz-adv-x="423" 
d="M38 521h389l15 -53l-189 -468h-127l176 424h-159v-88h-105v185z" />
    <glyph glyph-name="uni0038.smcp" horiz-adv-x="468" 
d="M257 -8q-90 0 -144.5 35.5t-54.5 101.5q0 48 27.5 76t77.5 49q-94 53 -94 132q0 65 53 104t142 39q85 0 136 -35t51 -95q0 -41 -23.5 -66t-66.5 -45q110 -57 110 -146q0 -72 -59 -111t-155 -39zM208 395q0 -23 22 -39.5t66 -36.5q26 24 26 61q0 57 -59 57q-27 0 -41 -12
t-14 -30zM265 85q34 0 50.5 14t16.5 35q0 20 -17.5 37.5t-35 27t-55.5 26.5q-36 -28 -36 -70q0 -31 19 -50.5t58 -19.5z" />
    <glyph glyph-name="uni0039.smcp" horiz-adv-x="466" 
d="M467 274q0 -130 -60 -206t-164 -76q-108 0 -165 70l53 69q42 -42 100 -42q45 0 67.5 29.5t27.5 110.5q1 3 1 9q-35 -55 -114 -55t-116 48.5t-37 114.5q0 82 55.5 133t145.5 51q103 0 154.5 -69.5t51.5 -186.5zM326 344q-5 45 -20 65t-48 20q-65 0 -65 -77q0 -76 64 -76
q66 0 69 68z" />
    <glyph glyph-name="uni0030.pnum_lnum_zero" horiz-adv-x="594" 
d="M60 317q0 53 7.5 100.5t26.5 93t49 77.5t77.5 52t108.5 20q62 0 109.5 -20t76 -52.5t47 -77.5t25.5 -90t7 -96q0 -151 -65.5 -242.5t-205.5 -91.5q-72 0 -124.5 25.5t-82 72t-43 103t-13.5 126.5zM205 329q0 -49 5 -85.5t17.5 -69t37 -49.5t60.5 -17q125 0 125 221
q0 101 -28 157t-97 56q-37 0 -61.5 -16t-36.5 -47t-17 -66.5t-5 -83.5zM372 385v-111h-98v111h98z" />
    <glyph glyph-name="uni0030.pnum_lnum" horiz-adv-x="594" 
d="M60 317q0 53 7.5 100.5t26.5 93t49 77.5t77.5 52t108.5 20q62 0 109.5 -20t76 -52.5t47 -77.5t25.5 -90t7 -96q0 -151 -65.5 -242.5t-205.5 -91.5q-72 0 -124.5 25.5t-82 72t-43 103t-13.5 126.5zM205 329q0 -49 5 -85.5t17.5 -69t37 -49.5t60.5 -17q125 0 125 221
q0 101 -28 157t-97 56q-37 0 -61.5 -16t-36.5 -47t-17 -66.5t-5 -83.5z" />
    <glyph glyph-name="uni0031.pnum_lnum" horiz-adv-x="413" 
d="M64 114h124v422h-124v114h258v-536h113v-114h-371v114z" />
    <glyph glyph-name="uni0032.pnum_lnum" horiz-adv-x="552" 
d="M178 452l-107 11l21 157q101 40 205 40q95 0 158.5 -40t63.5 -125q0 -52 -22.5 -101.5t-72.5 -101t-82.5 -79.5t-98.5 -80q-16 -13 -24 -19h214l20 93l109 -10l-20 -197h-478l-12 106q12 10 46.5 39t50 42.5t47 41t47.5 43.5t40.5 41t37 42.5t26.5 39t19.5 40t5.5 35.5
q0 35 -25 55.5t-68 20.5q-55 0 -86 -16z" />
    <glyph glyph-name="uni0033.pnum_lnum" horiz-adv-x="531" 
d="M104 622q94 39 201 39q94 0 151.5 -41t57.5 -120q0 -104 -112 -151v-4q68 -14 101.5 -56t33.5 -104q0 -96 -70.5 -146t-179.5 -50q-106 0 -160.5 47.5t-56.5 131.5l109 33q0 -40 26 -69t81 -29q53 0 79.5 28.5t26.5 69.5q0 48 -38 70t-114 24v88q41 0 69.5 10t40.5 26.5
t16 29.5t4 27q0 71 -84 71q-56 0 -85 -15l-15 -74l-103 11z" />
    <glyph glyph-name="uni0034.pnum_lnum" horiz-adv-x="563" 
d="M550 270l-10 -111h-88v-159h-134v159h-288l-14 111l198 381h238v-381h98zM318 270v267h-38l-136 -267h174z" />
    <glyph glyph-name="uni0035.pnum_lnum" horiz-adv-x="516" 
d="M525 201q0 -75 -35 -124t-89 -68.5t-126 -19.5q-106 0 -160.5 47.5t-56.5 131.5l109 33q0 -40 26 -69t81 -29q53 0 79.5 28.5t26.5 69.5q0 58 -41.5 79.5t-111.5 21.5q-19 0 -94 -5l-43 41v313h400l19 -183l-114 -10l-18 79h-163v-127q12 1 37 1q274 0 274 -210z" />
    <glyph glyph-name="uni0036.pnum_lnum" horiz-adv-x="536" 
d="M535 216q0 -101 -63 -163.5t-169 -62.5q-123 0 -182 86t-59 235q0 57 8.5 107t28 95t49.5 77t75.5 51t102.5 19q132 0 194 -90l-77 -77q-18 24 -50.5 38.5t-71.5 14.5q-59 0 -84 -40.5t-30 -140.5q-1 -7 -1 -23q43 78 146 78q64 0 107 -31.5t59.5 -75.5t16.5 -97z
M397 211q0 100 -89 100q-47 0 -72 -24.5t-27 -65.5q5 -59 26.5 -86t69.5 -27q92 0 92 103z" />
    <glyph glyph-name="uni0037.pnum_lnum" horiz-adv-x="486" 
d="M506 588l-230 -588h-132l217 538h-204v-109h-117v222h450z" />
    <glyph glyph-name="uni0038.pnum_lnum" horiz-adv-x="539" 
d="M541 170q0 -82 -68.5 -131t-173.5 -49q-110 0 -174.5 43.5t-64.5 125.5q0 62 34.5 97.5t96.5 62.5q-55 31 -86 69.5t-31 95.5q0 79 62 127.5t164 48.5q98 0 158 -44t60 -118q0 -51 -29.5 -83t-83.5 -57q63 -34 99.5 -77.5t36.5 -110.5zM384 475q0 77 -84 77
q-39 0 -60.5 -16t-21.5 -43q0 -17 8.5 -31t29 -27.5t36 -22t48.5 -23.5q44 34 44 86zM397 168q0 25 -21 47t-43.5 34t-67.5 33q-9 4 -13 6q-57 -39 -57 -97q0 -43 27 -68t79 -25q46 0 71 19.5t25 50.5z" />
    <glyph glyph-name="uni0039.pnum_lnum" horiz-adv-x="536" 
d="M64 434q0 101 63 163.5t169 62.5q123 0 182 -86t59 -235q0 -57 -8.5 -107t-28 -95t-49.5 -77t-75.5 -51t-102.5 -19q-132 0 -194 90l77 77q18 -24 50.5 -38.5t71.5 -14.5q59 0 84 40.5t30 140.5q1 7 1 23q-43 -78 -146 -78q-64 0 -107 31.5t-59.5 75.5t-16.5 97zM202 439
q0 -100 89 -100q47 0 72 24.5t27 65.5q-5 59 -26.5 86t-69.5 27q-92 0 -92 -103z" />
    <glyph glyph-name="uni0030.tnum_lnum_zero" horiz-adv-x="600" 
d="M66 317q0 53 7.5 100.5t26.5 93t49 77.5t77.5 52t108.5 20q62 0 109.5 -20t76 -52.5t47 -77.5t25.5 -90t7 -96q0 -151 -65.5 -242.5t-205.5 -91.5q-72 0 -124.5 25.5t-82 72t-43 103t-13.5 126.5zM211 329q0 -49 5 -85.5t17.5 -69t37 -49.5t60.5 -17q125 0 125 221
q0 101 -28 157t-97 56q-37 0 -61.5 -16t-36.5 -47t-17 -66.5t-5 -83.5zM382 385v-111h-98v111h98z" />
    <glyph glyph-name="uni0030.tnum_lnum" horiz-adv-x="600" 
d="M66 317q0 53 7.5 100.5t26.5 93t49 77.5t77.5 52t108.5 20q62 0 109.5 -20t76 -52.5t47 -77.5t25.5 -90t7 -96q0 -151 -65.5 -242.5t-205.5 -91.5q-72 0 -124.5 25.5t-82 72t-43 103t-13.5 126.5zM211 329q0 -49 5 -85.5t17.5 -69t37 -49.5t60.5 -17q125 0 125 221
q0 101 -28 157t-97 56q-37 0 -61.5 -16t-36.5 -47t-17 -66.5t-5 -83.5z" />
    <glyph glyph-name="uni0031.tnum_lnum" horiz-adv-x="600" 
d="M250 114h124v422h-124v114h258v-536h113v-114h-371v114z" />
    <glyph glyph-name="uni0032.tnum_lnum" horiz-adv-x="600" 
d="M204 452l-107 11l21 157q101 40 205 40q95 0 158.5 -40t63.5 -125q0 -52 -22.5 -101.5t-72.5 -101t-82.5 -79.5t-98.5 -80q-16 -13 -24 -19h214l20 93l109 -10l-20 -197h-478l-12 106q12 10 46.5 39t50 42.5t47 41t47.5 43.5t40.5 41t37 42.5t26.5 39t19.5 40t5.5 35.5
q0 35 -25 55.5t-68 20.5q-55 0 -86 -16z" />
    <glyph glyph-name="uni0033.tnum_lnum" horiz-adv-x="600" 
d="M174 622q94 39 201 39q94 0 151.5 -41t57.5 -120q0 -104 -112 -151v-4q68 -14 101.5 -56t33.5 -104q0 -96 -70.5 -146t-179.5 -50q-106 0 -160.5 47.5t-56.5 131.5l109 33q0 -40 26 -69t81 -29q53 0 79.5 28.5t26.5 69.5q0 48 -38 70t-114 24v88q41 0 69.5 10t40.5 26.5
t16 29.5t4 27q0 71 -84 71q-56 0 -85 -15l-15 -74l-103 11z" />
    <glyph glyph-name="uni0034.tnum_lnum" horiz-adv-x="600" 
d="M488 0h-134v159h-288l-14 111l198 381h238v-381h98l-10 -111h-88v-159zM354 270v267h-38l-136 -267h174z" />
    <glyph glyph-name="uni0035.tnum_lnum" horiz-adv-x="600" 
d="M609 201q0 -75 -35 -124t-89 -68.5t-126 -19.5q-106 0 -160.5 47.5t-56.5 131.5l109 33q0 -40 26 -69t81 -29q53 0 79.5 28.5t26.5 69.5q0 58 -41.5 79.5t-111.5 21.5q-19 0 -94 -5l-43 41v313h400l19 -183l-114 -10l-18 79h-163v-127q12 1 37 1q274 0 274 -210z" />
    <glyph glyph-name="uni0036.tnum_lnum" horiz-adv-x="600" 
d="M599 216q0 -101 -63 -163.5t-169 -62.5q-123 0 -182 86t-59 235q0 57 8.5 107t28 95t49.5 77t75.5 51t102.5 19q132 0 194 -90l-77 -77q-18 24 -50.5 38.5t-71.5 14.5q-59 0 -84 -40.5t-30 -140.5q-1 -7 -1 -23q43 78 146 78q64 0 107 -31.5t59.5 -75.5t16.5 -97z
M461 211q0 100 -89 100q-47 0 -72 -24.5t-27 -65.5q5 -59 26.5 -86t69.5 -27q92 0 92 103z" />
    <glyph glyph-name="uni0037.tnum_lnum" horiz-adv-x="600" 
d="M620 588l-230 -588h-132l217 538h-204v-109h-117v222h450z" />
    <glyph glyph-name="uni0038.tnum_lnum" horiz-adv-x="600" 
d="M601 170q0 -82 -68.5 -131t-173.5 -49q-110 0 -174.5 43.5t-64.5 125.5q0 62 34.5 97.5t96.5 62.5q-55 31 -86 69.5t-31 95.5q0 79 62 127.5t164 48.5q98 0 158 -44t60 -118q0 -51 -29.5 -83t-83.5 -57q63 -34 99.5 -77.5t36.5 -110.5zM444 475q0 77 -84 77
q-39 0 -60.5 -16t-21.5 -43q0 -17 8.5 -31t29 -27.5t36 -22t48.5 -23.5q44 34 44 86zM457 168q0 25 -21 47t-43.5 34t-67.5 33q-9 4 -13 6q-57 -39 -57 -97q0 -43 27 -68t79 -25q46 0 71 19.5t25 50.5z" />
    <glyph glyph-name="uni0039.tnum_lnum" horiz-adv-x="600" 
d="M128 434q0 101 63 163.5t169 62.5q123 0 182 -86t59 -235q0 -57 -8.5 -107t-28 -95t-49.5 -77t-75.5 -51t-102.5 -19q-132 0 -194 90l77 77q18 -24 50.5 -38.5t71.5 -14.5q59 0 84 40.5t30 140.5q1 7 1 23q-43 -78 -146 -78q-64 0 -107 31.5t-59.5 75.5t-16.5 97z
M266 439q0 -100 89 -100q47 0 72 24.5t27 65.5q-5 59 -26.5 86t-69.5 27q-92 0 -92 -103z" />
    <glyph glyph-name="uni0030.tnum_onum_zero" horiz-adv-x="600" 
d="M600 254q0 -133 -69 -198.5t-192 -65.5q-122 0 -187.5 64.5t-65.5 197.5q0 127 67 203t190 76q128 0 192.5 -75.5t64.5 -201.5zM456 261q0 86 -29 119t-85 33q-57 0 -84 -33.5t-27 -118.5q0 -86 27 -119.5t84 -33.5q55 0 84.5 32.5t29.5 120.5zM393 319v-111h-98v111h98z
" />
    <glyph glyph-name="uni0030.tnum_onum" horiz-adv-x="600" 
d="M600 254q0 -133 -69 -198.5t-192 -65.5q-122 0 -187.5 64.5t-65.5 197.5q0 127 67 203t190 76q128 0 192.5 -75.5t64.5 -201.5zM456 261q0 86 -29 119t-85 33q-57 0 -84 -33.5t-27 -118.5q0 -86 27 -119.5t84 -33.5q55 0 84.5 32.5t29.5 120.5z" />
    <glyph glyph-name="uni0031.tnum_onum" horiz-adv-x="600" 
d="M626 0h-344v114h110v293h-110v114h244v-407h100v-114z" />
    <glyph glyph-name="uni0032.tnum_onum" horiz-adv-x="600" 
d="M170 492q94 39 197 39q110 0 161.5 -43.5t51.5 -108.5q0 -24 -8 -46.5t-17.5 -40t-31.5 -37t-37 -31.5t-46 -30t-47 -26.5t-53 -27.5t-51 -26h212l7 59l107 -10l-15 -163h-454l-12 106q26 17 65.5 41t64 39t55 35t49 35.5t35.5 33t25 34.5t8 34q0 59 -87 59
q-53 0 -82 -15l-15 -74l-103 11z" />
    <glyph glyph-name="uni0033.tnum_onum" horiz-adv-x="600" 
d="M176 492q94 39 201 39q94 0 151.5 -41t57.5 -120q0 -104 -112 -151v-4q68 -14 101.5 -56t33.5 -104q0 -96 -70.5 -146t-179.5 -50q-106 0 -160.5 47.5t-56.5 131.5l109 33q0 -40 26 -69t81 -29q53 0 79.5 28.5t26.5 69.5q0 48 -38 70t-114 24v88q41 0 69.5 10t40.5 26.5
t16 29.5t4 27q0 71 -84 71q-56 0 -85 -15l-15 -74l-103 11z" />
    <glyph glyph-name="uni0034.tnum_onum" horiz-adv-x="600" 
d="M496 -130h-134v159h-288l-14 111l198 381h238v-381h98l-10 -111h-88v-159zM362 140v267h-38l-136 -267h174z" />
    <glyph glyph-name="uni0035.tnum_onum" horiz-adv-x="600" 
d="M607 71q0 -75 -35 -124t-89 -68.5t-126 -19.5q-106 0 -160.5 47.5t-56.5 131.5l109 33q0 -40 26 -69t81 -29q53 0 79.5 28.5t26.5 69.5q0 58 -41.5 79.5t-111.5 21.5q-19 0 -94 -5l-43 41v313h400l19 -183l-114 -10l-18 79h-163v-127q12 1 37 1q274 0 274 -210z" />
    <glyph glyph-name="uni0036.tnum_onum" horiz-adv-x="600" 
d="M599 216q0 -101 -63 -163.5t-169 -62.5q-123 0 -182 86t-59 235q0 57 8.5 107t28 95t49.5 77t75.5 51t102.5 19q132 0 194 -90l-77 -77q-18 24 -50.5 38.5t-71.5 14.5q-59 0 -84 -40.5t-30 -140.5q-1 -7 -1 -23q43 78 146 78q64 0 107 -31.5t59.5 -75.5t16.5 -97z
M461 211q0 100 -89 100q-47 0 -72 -24.5t-27 -65.5q5 -59 26.5 -86t69.5 -27q92 0 92 103z" />
    <glyph glyph-name="uni0037.tnum_onum" horiz-adv-x="600" 
d="M618 458l-230 -588h-132l217 538h-204v-109h-117v222h450z" />
    <glyph glyph-name="uni0038.tnum_onum" horiz-adv-x="600" 
d="M601 170q0 -82 -68.5 -131t-173.5 -49q-110 0 -174.5 43.5t-64.5 125.5q0 62 34.5 97.5t96.5 62.5q-55 31 -86 69.5t-31 95.5q0 79 62 127.5t164 48.5q98 0 158 -44t60 -118q0 -51 -29.5 -83t-83.5 -57q63 -34 99.5 -77.5t36.5 -110.5zM444 475q0 77 -84 77
q-39 0 -60.5 -16t-21.5 -43q0 -17 8.5 -31t29 -27.5t36 -22t48.5 -23.5q44 34 44 86zM457 168q0 25 -21 47t-43.5 34t-67.5 33q-9 4 -13 6q-57 -39 -57 -97q0 -43 27 -68t79 -25q46 0 71 19.5t25 50.5z" />
    <glyph glyph-name="uni0039.tnum_onum" horiz-adv-x="600" 
d="M128 304q0 101 63 163.5t169 62.5q123 0 182 -86t59 -235q0 -57 -8.5 -107t-28 -95t-49.5 -77t-75.5 -51t-102.5 -19q-132 0 -194 90l77 77q18 -24 50.5 -38.5t71.5 -14.5q59 0 84 40.5t30 140.5q1 7 1 23q-43 -78 -146 -78q-64 0 -107 31.5t-59.5 75.5t-16.5 97z
M266 309q0 -100 89 -100q47 0 72 24.5t27 65.5q-5 59 -26.5 86t-69.5 27q-92 0 -92 -103z" />
    <glyph glyph-name="uni0030.numr" horiz-adv-x="391" 
d="M52 467q0 37 8.5 69.5t27 61.5t53 45.5t81.5 16.5q48 0 82.5 -17t52.5 -46t26 -60t8 -66q0 -83 -43 -135t-130 -52q-86 0 -126 51t-40 132zM161 475q0 -113 58 -113q63 0 63 112q0 108 -61 108q-60 0 -60 -107z" />
    <glyph glyph-name="uni0031.numr" horiz-adv-x="282" 
d="M58 362h73v214h-73v75h174v-289h65v-75h-239v75z" />
    <glyph glyph-name="uni0032.numr" horiz-adv-x="369" 
d="M135 529l-77 6l14 99q62 26 136 26q73 0 108 -29t35 -69q0 -13 -4 -26.5t-12.5 -27.5t-17 -25t-23.5 -25t-24 -22.5t-27 -21.5t-25 -18.5t-24.5 -17t-19.5 -13.5h105l12 55l81 -10l-10 -120h-303l-9 70q9 7 27.5 21t29.5 22t28 21.5t27.5 23t24.5 22t22 22t16 20t11.5 20
t3.5 17.5q0 16 -13.5 26t-35.5 10q-25 0 -46 -11z" />
    <glyph glyph-name="uni0033.numr" horiz-adv-x="351" 
d="M143 533l-77 6l13 95q56 25 132 25q62 0 97 -26t35 -67q0 -53 -61 -81v-2q73 -18 73 -91q0 -51 -43.5 -80t-114.5 -29q-118 0 -137 99l73 25q16 -45 59 -45q26 0 40 12.5t14 31.5q0 41 -79 45v56q22 1 33.5 3.5t22.5 12t11 27.5q0 34 -40 34q-23 0 -42 -10z" />
    <glyph glyph-name="uni0034.numr" horiz-adv-x="370" 
d="M203 287v65h-165l-10 73l106 226h170v-221h58l-7 -78h-51v-65h-101zM187 576l-71 -146h87v146h-16z" />
    <glyph glyph-name="uni0035.numr" horiz-adv-x="341" 
d="M347 401q0 -56 -43.5 -88.5t-114.5 -32.5q-118 0 -137 99l73 25q16 -45 59 -45q26 0 40 12.5t14 31.5q0 26 -18 35.5t-52 9.5q-3 0 -60 -3l-31 26v180h240l10 -108l-84 -8l-7 41h-66v-57h18q159 0 159 -118z" />
    <glyph glyph-name="uni0036.numr" horiz-adv-x="348" 
d="M223 585q-29 0 -43.5 -19t-18.5 -73q23 36 78 36q56 0 82 -34.5t26 -80.5q0 -58 -41.5 -94t-105.5 -36q-73 0 -110.5 49t-37.5 131q0 85 40.5 140.5t123.5 55.5q74 0 119 -47l-54 -57q-25 29 -58 29zM204 458q-40 0 -43 -40q2 -31 12 -43.5t30 -12.5q41 0 41 48t-40 48z
" />
    <glyph glyph-name="uni0037.numr" horiz-adv-x="321" 
d="M40 651h283l11 -40l-132 -325h-99l122 291h-98v-61h-87v135z" />
    <glyph glyph-name="uni0038.numr" horiz-adv-x="351" 
d="M198 284q-66 0 -105 25t-39 71q0 33 18.5 52t53.5 34q-65 36 -65 92q0 46 38.5 74t103.5 28q62 0 99 -25t37 -66q0 -46 -61 -76q75 -40 75 -102q0 -52 -43 -79.5t-112 -27.5zM170 565q0 -22 55 -47q13 15 13 36q0 35 -35 35q-33 0 -33 -24zM202 355q42 0 42 29
q0 13 -11.5 24t-23 17.5t-35.5 17.5q-19 -17 -19 -43q0 -45 47 -45z" />
    <glyph glyph-name="uni0039.numr" horiz-adv-x="349" 
d="M178 359q32 0 46 18.5t16 73.5q-22 -36 -78 -36t-82 34.5t-26 80.5q0 58 41.5 94t105.5 36q74 0 111 -49t37 -136q0 -89 -39.5 -140t-122.5 -51q-76 0 -121 47l54 57q25 -29 58 -29zM197 486q40 0 43 38q-3 32 -12.5 45t-29.5 13q-41 0 -41 -48t40 -48z" />
    <glyph glyph-name="uni00A9.pnum_lnum" horiz-adv-x="767" 
d="M767 327q0 -138 -97.5 -235.5t-236.5 -97.5q-138 0 -235.5 97.5t-97.5 235.5t97.5 235.5t235.5 97.5q139 0 236.5 -97.5t97.5 -235.5zM697 324q0 114 -76 192.5t-190 78.5q-115 0 -188 -78.5t-73 -187.5q0 -112 77 -191t189 -79q108 0 184.5 75.5t76.5 189.5zM579 186
q-19 -22 -62.5 -36.5t-90.5 -14.5q-89 0 -142 53.5t-53 138.5q0 87 55 143t146 56q88 0 141 -49l11 -91l-70 -6l-9 47q-33 25 -75 25q-47 0 -73 -31.5t-26 -91.5q0 -119 105 -119q41 0 72 18l9 52l70 -7z" />
    <glyph glyph-name="uni2117.pnum_lnum" horiz-adv-x="767" 
d="M433 -6q-138 0 -235.5 97.5t-97.5 235.5t97.5 235.5t235.5 97.5q139 0 236.5 -97.5t97.5 -235.5t-97.5 -235.5t-236.5 -97.5zM433 59q112 0 188 75t76 193q0 110 -76 189t-188 79q-117 0 -190 -78t-73 -190q0 -109 77.5 -188.5t185.5 -79.5zM288 198h41v243h-41v74h190
q75 0 116 -34.5t41 -95.5q0 -64 -44.5 -98.5t-109.5 -34.5h-56v-54h59v-75h-196v75zM463 325q39 0 53.5 15t14.5 44t-14.5 43t-51.5 14h-40v-116h38z" />
    <glyph glyph-name="uni267E.pnum_lnum" horiz-adv-x="767" 
d="M433 -6q-138 0 -235.5 97.5t-97.5 235.5t97.5 235.5t235.5 97.5q139 0 236.5 -97.5t97.5 -235.5t-97.5 -235.5t-236.5 -97.5zM433 59q112 0 188 75t76 193q0 110 -76 189t-188 79q-117 0 -190 -78t-73 -190q0 -109 77.5 -188.5t185.5 -79.5zM539 215q-39 0 -62 18.5
t-41 51.5q-17 -33 -39.5 -51.5t-60.5 -18.5q-51 0 -80.5 33t-29.5 80q0 50 31.5 83t81.5 33q38 0 59.5 -19.5t37.5 -55.5q20 36 43.5 55.5t62.5 19.5q49 0 77 -32.5t28 -81.5q0 -50 -29 -82.5t-79 -32.5zM528 382q-26 0 -42 -14.5t-30 -41.5q25 -50 68 -50q25 0 39 14.5
t14 39.5q0 52 -49 52zM344 276q40 0 70 52q-29 54 -68 54q-25 0 -38 -16t-13 -39t13 -37t36 -14z" />
    <glyph glyph-name="uni24CA.pnum_lnum" horiz-adv-x="767" 
d="M433 -6q-138 0 -235.5 97.5t-97.5 235.5t97.5 235.5t235.5 97.5q139 0 236.5 -97.5t97.5 -235.5t-97.5 -235.5t-236.5 -97.5zM433 59q112 0 188 75t76 193q0 110 -76 189t-188 79q-117 0 -190 -78t-73 -190q0 -109 77.5 -188.5t185.5 -79.5zM470 490h160v-70h-33v-147
q0 -68 -40.5 -114t-126.5 -46q-83 0 -122.5 44t-39.5 110v153h-33v70h165v-70h-41v-151q0 -83 75 -83q77 0 77 87v147h-41v70z" />
    <glyph glyph-name="uni20AC.pnum_lnum" horiz-adv-x="681" 
d="M58 349v88h76q25 97 95.5 160t197.5 63q137 0 221 -78l16 -151l-109 -10l-14 86q-52 35 -120 35q-111 0 -143 -105h177v-88h-191v-25q0 -25 1 -37h160v-88h-142q35 -91 147 -91q66 0 111 27l14 97l109 -10l-13 -153q-32 -35 -96.5 -57t-133.5 -22q-108 0 -182.5 55.5
t-102.5 153.5h-78v88h63q-1 10 -1 32q0 20 1 30h-63z" />
    <glyph glyph-name="uni0024.pnum_lnum" horiz-adv-x="553" 
d="M556 197q0 -90 -55.5 -143t-155.5 -62v-73h-69v72q-143 7 -210 67l20 161l107 -10l-1 -79q44 -23 84 -25v177q-36 7 -58 12t-53.5 18.5t-49 31t-30.5 48t-13 70.5q0 92 58 140t146 56v81h69v-81q117 -12 174 -70l6 -141l-107 -10l-9 76q-31 20 -64 26v-147q25 -5 38 -8
t39 -10.5t41 -16t35 -23.5t31 -33t19 -45t8 -59zM216 479q0 -48 60 -69v129q-60 -10 -60 -60zM412 181q0 61 -67 85v-158q67 10 67 73z" />
    <glyph glyph-name="uni00A2.pnum_lnum" horiz-adv-x="494" 
d="M498 268q-7 -64 -48.5 -114t-120.5 -61v-77h-69v75q-90 9 -143 67t-53 160q0 104 54 165.5t142 73.5v72h69v-71q71 -7 134 -39l20 -137l-103 -11l-15 69q-19 6 -36 9v-249q51 12 61 88zM203 324q0 -98 57 -121v243q-57 -21 -57 -122z" />
    <glyph glyph-name="uni00A3.pnum_lnum" horiz-adv-x="572" 
d="M580 104q-14 -35 -61.5 -69.5t-113.5 -34.5h-328v111q43 25 55 60.5t12 97.5h-72v88h72v60q0 117 60.5 180t158.5 63q47 0 96.5 -14t79.5 -44l16 -151l-109 -10l-14 86q-30 15 -71 15q-43 0 -63 -28.5t-20 -95.5v-61h181v-88h-181q0 -53 -13 -90.5t-56 -64.5h169
q92 0 143 59z" />
    <glyph glyph-name="uni0192.pnum_lnum" horiz-adv-x="429" 
d="M43 357h83l7 118q5 89 61 137t145 48q37 0 79 -5v-101q-52 7 -76 7q-45 0 -60 -21t-18 -67l-7 -116h123v-88h-127l-13 -247q-4 -69 -46.5 -115.5t-137.5 -46.5q-20 0 -54 5v98q29 -5 44 -5q33 0 46 16.5t17 77.5l12 217h-78v88z" />
    <glyph glyph-name="uni00A5.pnum_lnum" horiz-adv-x="684" 
d="M684 536h-56l-126 -187h93v-78h-145l-11 -17v-25h156v-78h-156v-37h106v-114h-340v114h100v37h-157v78h157v26l-11 16h-146v78h92l-130 187h-58v114h269v-114h-54l109 -164h6l108 164h-62v114h256v-114z" />
    <glyph glyph-name="uni20B9.pnum_lnum" horiz-adv-x="598" 
d="M68 354h197q104 0 125 53h-322v84h323q-18 42 -110 45h-213v114h533v-114h-75q10 -24 13 -45h52v-84h-54q-22 -94 -119 -131l88 -162h78v-114h-166l-129 248h-221v106z" />
    <glyph glyph-name="threesup_fraction_eightinf" horiz-adv-x="778" 
d="M149 534l-77 6l13 95q56 25 132 25q62 0 97 -26t35 -67q0 -53 -61 -81v-2q73 -18 73 -91q0 -51 -43.5 -80t-114.5 -29q-118 0 -137 99l73 25q16 -45 59 -45q26 0 40 12.5t14 31.5q0 41 -79 45v56q22 1 33.5 3.5t22.5 12t11 27.5q0 34 -40 34q-23 0 -42 -10zM652 650
l-191 -325l-181 -325h-88l198 337l174 313h88zM630 -6q-66 0 -105 25t-39 71q0 33 18.5 52t53.5 34q-65 36 -65 92q0 46 38.5 74t103.5 28q62 0 99 -25t37 -66q0 -46 -61 -76q75 -40 75 -102q0 -52 -43 -79.5t-112 -27.5zM602 275q0 -22 55 -47q13 15 13 36q0 35 -35 35
q-33 0 -33 -24zM634 65q42 0 42 29q0 13 -11.5 24t-23 17.5t-35.5 17.5q-19 -17 -19 -43q0 -45 47 -45z" />
    <glyph glyph-name="fivesup_fraction_eightinf" horiz-adv-x="777" 
d="M355 400q0 -56 -43.5 -88.5t-114.5 -32.5q-118 0 -137 99l73 25q16 -45 59 -45q26 0 40 12.5t14 31.5q0 26 -18 35.5t-52 9.5q-3 0 -60 -3l-31 26v180h240l10 -108l-84 -8l-7 41h-66v-57h18q159 0 159 -118zM645 650l-191 -325l-181 -325h-88l198 337l174 313h88zM626 -6
q-66 0 -105 25t-39 71q0 33 18.5 52t53.5 34q-65 36 -65 92q0 46 38.5 74t103.5 28q62 0 99 -25t37 -66q0 -46 -61 -76q75 -40 75 -102q0 -52 -43 -79.5t-112 -27.5zM598 275q0 -22 55 -47q13 15 13 36q0 35 -35 35q-33 0 -33 -24zM630 65q42 0 42 29q0 13 -11.5 24
t-23 17.5t-35.5 17.5q-19 -17 -19 -43q0 -45 47 -45z" />
    <glyph glyph-name="sevensup_fraction_eightinf" horiz-adv-x="753" 
d="M56 650h283l11 -40l-132 -325h-99l122 291h-98v-61h-87v135zM595 650l-191 -325l-181 -325h-88l198 337l174 313h88zM600 -6q-66 0 -105 25t-39 71q0 33 18.5 52t53.5 34q-65 36 -65 92q0 46 38.5 74t103.5 28q62 0 99 -25t37 -66q0 -46 -61 -76q75 -40 75 -102
q0 -52 -43 -79.5t-112 -27.5zM572 275q0 -22 55 -47q13 15 13 36q0 35 -35 35q-33 0 -33 -24zM604 65q42 0 42 29q0 13 -11.5 24t-23 17.5t-35.5 17.5q-19 -17 -19 -43q0 -45 47 -45z" />
    <glyph glyph-name="uni0061.smcp" horiz-adv-x="590" 
d="M30 98h47l153 325h-74v98h198l198 -423h50v-98h-226v98h38l-17 45h-173l-17 -45h45v-98h-222v98zM309 358l-53 -133h109l-51 133h-5z" />
    <glyph glyph-name="uni0062.smcp" horiz-adv-x="543" 
d="M372 521q74 0 120.5 -33.5t46.5 -88.5q0 -41 -26.5 -71t-74.5 -37v-3q59 -9 89 -44.5t30 -88.5q0 -67 -46 -111t-136 -44h-297v98h55v325h-55v98h294zM326 310q74 0 74 57q0 56 -63 56h-75v-113h64zM340 98q79 0 79 62q0 61 -75 61h-82v-123h78z" />
    <glyph glyph-name="uni0063.smcp" horiz-adv-x="555" 
d="M531 58q-27 -28 -89.5 -47t-124.5 -19q-119 0 -194 73t-75 191t74.5 195.5t199.5 77.5q62 0 120 -19t85 -44l13 -123l-108 -8l-12 70q-34 23 -87 23q-67 0 -106.5 -43t-39.5 -126q0 -85 40.5 -125.5t105.5 -40.5q53 0 88 21l12 77l108 -8z" />
    <glyph glyph-name="uni0064.smcp" horiz-adv-x="599" 
d="M330 521q139 0 211 -69t72 -189t-73.5 -191.5t-201.5 -71.5h-260v98h55v325h-55v98h252zM327 98q73 0 110 39t37 125q0 161 -147 161h-65v-325h65z" />
    <glyph glyph-name="uni0065.smcp" horiz-adv-x="516" 
d="M509 0h-431v98h55v325h-55v98h433l16 -150l-109 -11l-10 63h-146v-113h222v-97h-222v-115h144l10 64l113 -10z" />
    <glyph glyph-name="uni0066.smcp" horiz-adv-x="492" 
d="M511 361l-113 -10l-11 72h-125v-136h223v-98h-223v-91h87v-98h-271v98h55v325h-55v98h413z" />
    <glyph glyph-name="uni0067.smcp" horiz-adv-x="585" 
d="M449 50q-55 -58 -151 -58q-113 0 -181.5 74.5t-68.5 188.5q0 118 75 196t200 78q62 0 122 -18.5t87 -44.5l13 -123l-110 -8l-12 69q-36 24 -89 24q-147 0 -147 -166q0 -85 37.5 -127t99.5 -42q49 0 77.5 25t28.5 72v4h-99v97h251v-97h-22v-194h-99z" />
    <glyph glyph-name="uni0068.smcp" horiz-adv-x="654" 
d="M76 98h56v325h-56v98h240v-98h-55v-110h208v110h-56v98h240v-98h-55v-325h55v-98h-240v98h56v117h-208v-117h55v-98h-240v98z" />
    <glyph glyph-name="uni0069.smcp" horiz-adv-x="317" 
d="M76 98h56v325h-56v98h240v-98h-55v-325h55v-98h-240v98z" />
    <glyph glyph-name="uni006A.smcp" horiz-adv-x="428" 
d="M136 521h268v-98h-48v-272q0 -78 -49 -118.5t-130 -40.5q-122 0 -167 102l90 61q21 -56 71 -56q56 0 56 51v273h-91v98z" />
    <glyph glyph-name="uni006B.smcp" horiz-adv-x="589" 
d="M360 98h51l-92 118h-58v-118h40v-98h-225v98h56v325h-56v98h228v-98h-43v-113h60l89 113h-46v98h238v-98h-58l-125 -150l139 -175h53v-98h-251v98z" />
    <glyph glyph-name="uni006C.smcp" horiz-adv-x="487" 
d="M492 0h-414v98h55v325h-55v98h256v-98h-72v-325h124l13 98l113 -10z" />
    <glyph glyph-name="uni006D.smcp" horiz-adv-x="774" 
d="M70 98h56v325h-66v98h173l192 -303h3l171 303h175v-98h-66v-325h56v-98h-228v98h43v176h-3l-131 -229h-52l-144 234h-3v-181h48v-98h-224v98z" />
    <glyph glyph-name="uni006E.smcp" horiz-adv-x="659" 
d="M408 521h253v-98h-55v-423l-71 -1l-285 318h-4v-219h72v-98h-249v98h57v325h-66v98h158l264 -294h4v196h-78v98z" />
    <glyph glyph-name="uni006F.smcp" horiz-adv-x="609" 
d="M330 529q129 0 204 -76.5t75 -190.5q0 -116 -76 -193t-207 -77q-132 0 -205 76.5t-73 191.5q0 117 76.5 193t205.5 76zM332 93q68 0 102.5 44t34.5 120q0 82 -37 126.5t-104 44.5q-68 0 -104 -45.5t-36 -120.5q0 -74 35.5 -121.5t108.5 -47.5z" />
    <glyph glyph-name="uni0070.smcp" horiz-adv-x="524" 
d="M78 98h55v325h-55v98h256q101 0 157 -45t56 -126q0 -86 -60.5 -132t-147.5 -46h-77v-74h81v-98h-265v98zM314 269q53 0 73.5 20t20.5 58q0 39 -20 57.5t-71 18.5h-55v-154h52z" />
    <glyph glyph-name="uni0071.smcp" horiz-adv-x="613" 
d="M330 529q129 0 204 -76.5t75 -190.5q0 -111 -70 -187l57 -55l-72 -71l-69 67q-55 -24 -129 -24q-132 0 -205 76.5t-73 191.5q0 117 76.5 193t205.5 76zM301 167l72 71l77 -76q19 38 19 95q0 82 -37 126.5t-104 44.5q-68 0 -104 -45.5t-36 -120.5q0 -74 35.5 -121.5
t108.5 -47.5q24 0 40 4z" />
    <glyph glyph-name="uni0072.smcp" horiz-adv-x="553" 
d="M78 98h55v325h-55v98h250q103 0 160.5 -39.5t57.5 -115.5q0 -105 -102 -144l71 -124h62v-98h-149l-108 196h-58v-98h54v-98h-238v98zM301 287q60 0 83 17.5t23 54.5t-21.5 50.5t-81.5 13.5h-42v-136h39z" />
    <glyph glyph-name="uni0073.smcp" horiz-adv-x="491" 
d="M497 162q0 -81 -62 -125.5t-162 -44.5q-121 0 -201 55l19 131l108 -8l-4 -59q33 -17 82 -17q81 0 81 53q0 36 -28.5 52t-76.5 25q-33 6 -51 10t-45.5 15t-42 25t-26 38.5t-11.5 56.5q0 46 20 79t53.5 49.5t68.5 24t73 7.5q106 0 177 -50l13 -128l-108 -8l-12 69
q-34 16 -75 16q-71 0 -71 -44q0 -43 85 -58q85 -16 123 -38q73 -42 73 -126z" />
    <glyph glyph-name="uni0074.smcp" horiz-adv-x="566" 
d="M565 333l-113 -10l-13 100h-81v-325h87v-98h-297v98h81v325h-80l-13 -100l-114 10l20 188h503z" />
    <glyph glyph-name="uni0075.smcp" 
d="M392 521h227v-98h-47v-207q0 -94 -58 -159t-181 -65q-117 0 -174 61t-57 154v216h-46v98h235v-98h-60v-212q0 -118 109 -118q112 0 112 123v207h-60v98z" />
    <glyph glyph-name="uni0076.smcp" horiz-adv-x="586" 
d="M249 423h-45l102 -244h5l97 244h-45v98h223v-98h-48l-194 -423h-88l-193 423h-49v98h235v-98z" />
    <glyph glyph-name="uni0077.smcp" horiz-adv-x="848" 
d="M841 423h-42l-153 -423h-89l-124 323h-4l-118 -323h-91l-162 423h-46v98h227v-98h-45l73 -231h6l91 231h-42v98h227v-98h-36l89 -236h6l63 236h-54v98h224v-98z" />
    <glyph glyph-name="uni0078.smcp" horiz-adv-x="583" 
d="M581 0h-233v98h31l-81 92l-74 -92h42v-98h-242v98h59l150 168l-147 157h-48v98h230v-98h-31l74 -80l67 80h-36v98h225v-98h-47l-144 -155l158 -170h47v-98z" />
    <glyph glyph-name="uni0079.smcp" horiz-adv-x="549" 
d="M542 423h-43l-157 -218v-107h87v-98h-297v98h81v108l-162 217h-45v98h235v-98h-40l81 -117h5l80 117h-48v98h223v-98z" />
    <glyph glyph-name="uni007A.smcp" horiz-adv-x="514" 
d="M492 0h-443l-3 59l263 363v1h-126l-12 -87l-114 10l20 175h422l2 -51l-268 -371v-1h153l13 95l113 -10z" />
    <glyph glyph-name="uni00E6.smcp" horiz-adv-x="800" 
d="M764 0h-434v98h55v45h-167l-21 -45h39v-98h-222v98h51l172 325h-68v98h595l16 -150l-109 -11l-10 63h-147v-113h222v-97h-222v-115h145l10 64l113 -10zM385 225v198h-31l-96 -198h127z" />
    <glyph glyph-name="uni0153.smcp" horiz-adv-x="854" 
d="M839 0h-384v20q-53 -28 -126 -28q-130 0 -206.5 77.5t-76.5 190.5q0 116 79.5 192.5t203.5 76.5q70 0 126 -29v21h386l16 -150l-109 -11l-10 63h-154v-113h222v-97h-222v-115h152l10 64l113 -10zM455 137v244q-49 47 -120 47q-72 0 -110.5 -45t-38.5 -119
q0 -72 36.5 -121.5t116.5 -49.5q82 0 116 44z" />
    <glyph glyph-name="uni00F0.smcp" horiz-adv-x="601" 
d="M86 314h51v109h-55v98h252q139 0 211 -69t72 -189t-73.5 -191.5t-201.5 -71.5h-260v98h55v121h-51v95zM331 98q73 0 110 39t37 125q0 161 -147 161h-65v-109h100v-95h-100v-121h65z" />
    <glyph glyph-name="uni00E1.smcp" horiz-adv-x="590" 
d="M503 648l-195 -91l-34 49l162 143zM30 98h47l153 325h-74v98h198l198 -423h50v-98h-226v98h38l-17 45h-173l-17 -45h45v-98h-222v98zM309 358l-53 -133h109l-51 133h-5z" />
    <glyph glyph-name="uni0103.smcp" horiz-adv-x="590" 
d="M452 701q0 -69 -38 -103.5t-104 -34.5t-101.5 35t-35.5 103h102q0 -61 37 -61q38 0 38 61h102zM30 98h47l153 325h-74v98h198l198 -423h50v-98h-226v98h38l-17 45h-173l-17 -45h45v-98h-222v98zM309 358l-53 -133h109l-51 133h-5z" />
    <glyph glyph-name="uni00E2.smcp" horiz-adv-x="590" 
d="M474 606l-34 -49l-135 67l-112 -68l-35 51l135 126h45zM30 98h47l153 325h-74v98h198l198 -423h50v-98h-226v98h38l-17 45h-173l-17 -45h45v-98h-222v98zM309 358l-53 -133h109l-51 133h-5z" />
    <glyph glyph-name="uni00E4.smcp" horiz-adv-x="590" 
d="M147 583v134h129v-134h-129zM332 583v134h129v-134h-129zM30 98h47l153 325h-74v98h198l198 -423h50v-98h-226v98h38l-17 45h-173l-17 -45h45v-98h-222v98zM309 358l-53 -133h109l-51 133h-5z" />
    <glyph glyph-name="uni00E0.smcp" horiz-adv-x="590" 
d="M361 609l-34 -49l-195 91l67 101zM30 98h47l153 325h-74v98h198l198 -423h50v-98h-226v98h38l-17 45h-173l-17 -45h45v-98h-222v98zM309 358l-53 -133h109l-51 133h-5z" />
    <glyph glyph-name="uni0101.smcp" horiz-adv-x="590" 
d="M437 587h-268v98h268v-98zM30 98h47l153 325h-74v98h198l198 -423h50v-98h-226v98h38l-17 45h-173l-17 -45h45v-98h-222v98zM309 358l-53 -133h109l-51 133h-5z" />
    <glyph glyph-name="uni0105.smcp" horiz-adv-x="590" 
d="M30 98h47l153 325h-74v98h198l198 -423h50v-98h-46q-45 -29 -45 -73q0 -42 42 -42q24 0 44 11l9 -79q-44 -19 -87 -19q-50 0 -81.5 22t-31.5 66q0 71 73 114h-103v98h38l-17 45h-173l-17 -45h45v-98h-222v98zM309 358l-53 -133h109l-51 133h-5z" />
    <glyph glyph-name="uni00E5.smcp" horiz-adv-x="590" 
d="M420 650q0 -43 -26.5 -68.5t-79.5 -25.5q-51 0 -77 24t-26 67t26.5 68t79.5 25q52 0 77.5 -24.5t25.5 -65.5zM340 652q0 28 -24 28q-15 0 -20 -8t-5 -25t4.5 -24t19.5 -7t20 8.5t5 27.5zM30 98h47l153 325h-74v98h198l198 -423h50v-98h-226v98h38l-17 45h-173l-17 -45h45
v-98h-222v98zM309 358l-53 -133h109l-51 133h-5z" />
    <glyph glyph-name="uni00E3.smcp" horiz-adv-x="590" 
d="M456 698q0 -53 -19 -91.5t-64 -38.5q-27 0 -66.5 20.5t-58.5 20.5q-33 0 -45 -43l-50 16q-3 38 19 81t66 43q24 0 62.5 -19t54.5 -19q34 0 47 41zM30 98h47l153 325h-74v98h198l198 -423h50v-98h-226v98h38l-17 45h-173l-17 -45h45v-98h-222v98zM309 358l-53 -133h109
l-51 133h-5z" />
    <glyph glyph-name="uni0107.smcp" horiz-adv-x="555" 
d="M473 648l-195 -91l-34 49l162 143zM531 58q-27 -28 -89.5 -47t-124.5 -19q-119 0 -194 73t-75 191t74.5 195.5t199.5 77.5q62 0 120 -19t85 -44l13 -123l-108 -8l-12 70q-34 23 -87 23q-67 0 -106.5 -43t-39.5 -126q0 -85 40.5 -125.5t105.5 -40.5q53 0 88 21l12 77
l108 -8z" />
    <glyph glyph-name="uni010D.smcp" horiz-adv-x="555" 
d="M476 684l-135 -126h-45l-136 127l34 49l135 -67l112 68zM531 58q-27 -28 -89.5 -47t-124.5 -19q-119 0 -194 73t-75 191t74.5 195.5t199.5 77.5q62 0 120 -19t85 -44l13 -123l-108 -8l-12 70q-34 23 -87 23q-67 0 -106.5 -43t-39.5 -126q0 -85 40.5 -125.5t105.5 -40.5
q53 0 88 21l12 77l108 -8z" />
    <glyph glyph-name="uni00E7.smcp" horiz-adv-x="554" 
d="M468 -128q0 -46 -37.5 -67t-92.5 -21q-79 0 -116 30l23 70q35 -23 78 -23q36 0 36 21q0 25 -39 25h-37v87q-105 11 -170 82t-65 180q0 118 74.5 195.5t199.5 77.5q62 0 120 -19t85 -44l13 -123l-108 -8l-12 70q-34 23 -87 23q-67 0 -106.5 -43t-39.5 -126
q0 -85 40.5 -125.5t105.5 -40.5q53 0 88 21l12 77l108 -8l-10 -125q-47 -48 -160 -62v-44h8q46 0 67.5 -23t21.5 -57z" />
    <glyph glyph-name="uni0109.smcp" horiz-adv-x="555" 
d="M486 606l-34 -49l-135 67l-112 -68l-35 51l135 126h45zM531 58q-27 -28 -89.5 -47t-124.5 -19q-119 0 -194 73t-75 191t74.5 195.5t199.5 77.5q62 0 120 -19t85 -44l13 -123l-108 -8l-12 70q-34 23 -87 23q-67 0 -106.5 -43t-39.5 -126q0 -85 40.5 -125.5t105.5 -40.5
q53 0 88 21l12 77l108 -8z" />
    <glyph glyph-name="uni010B.smcp" horiz-adv-x="555" 
d="M261 582v134h129v-134h-129zM531 58q-27 -28 -89.5 -47t-124.5 -19q-119 0 -194 73t-75 191t74.5 195.5t199.5 77.5q62 0 120 -19t85 -44l13 -123l-108 -8l-12 70q-34 23 -87 23q-67 0 -106.5 -43t-39.5 -126q0 -85 40.5 -125.5t105.5 -40.5q53 0 88 21l12 77l108 -8z
" />
    <glyph glyph-name="uni010F.smcp" horiz-adv-x="599" 
d="M479 684l-135 -126h-45l-136 127l34 49l135 -67l112 68zM330 521q139 0 211 -69t72 -189t-73.5 -191.5t-201.5 -71.5h-260v98h55v325h-55v98h252zM327 98q73 0 110 39t37 125q0 161 -147 161h-65v-325h65z" />
    <glyph glyph-name="uni0111.smcp" horiz-adv-x="601" 
d="M86 314h51v109h-55v98h252q139 0 211 -69t72 -189t-73.5 -191.5t-201.5 -71.5h-260v98h55v121h-51v95zM331 98q73 0 110 39t37 125q0 161 -147 161h-65v-109h100v-95h-100v-121h65z" />
    <glyph glyph-name="uni00E9.smcp" horiz-adv-x="516" 
d="M488 648l-195 -91l-34 49l162 143zM509 0h-431v98h55v325h-55v98h433l16 -150l-109 -11l-10 63h-146v-113h222v-97h-222v-115h144l10 64l113 -10z" />
    <glyph glyph-name="uni0115.smcp" horiz-adv-x="516" 
d="M470 701q0 -69 -38 -103.5t-104 -34.5t-101.5 35t-35.5 103h102q0 -61 37 -61q38 0 38 61h102zM509 0h-431v98h55v325h-55v98h433l16 -150l-109 -11l-10 63h-146v-113h222v-97h-222v-115h144l10 64l113 -10z" />
    <glyph glyph-name="uni011B.smcp" horiz-adv-x="516" 
d="M486 684l-135 -126h-45l-136 127l34 49l135 -67l112 68zM509 0h-431v98h55v325h-55v98h433l16 -150l-109 -11l-10 63h-146v-113h222v-97h-222v-115h144l10 64l113 -10z" />
    <glyph glyph-name="uni00EA.smcp" horiz-adv-x="516" 
d="M489 606l-34 -49l-135 67l-112 -68l-35 51l135 126h45zM509 0h-431v98h55v325h-55v98h433l16 -150l-109 -11l-10 63h-146v-113h222v-97h-222v-115h144l10 64l113 -10z" />
    <glyph glyph-name="uni00EB.smcp" horiz-adv-x="516" 
d="M173 583v134h129v-134h-129zM358 583v134h129v-134h-129zM509 0h-431v98h55v325h-55v98h433l16 -150l-109 -11l-10 63h-146v-113h222v-97h-222v-115h144l10 64l113 -10z" />
    <glyph glyph-name="uni0117.smcp" horiz-adv-x="516" 
d="M272 582v134h129v-134h-129zM509 0h-431v98h55v325h-55v98h433l16 -150l-109 -11l-10 63h-146v-113h222v-97h-222v-115h144l10 64l113 -10z" />
    <glyph glyph-name="uni00E8.smcp" horiz-adv-x="516" 
d="M409 606l-34 -49l-195 91l67 101zM509 0h-431v98h55v325h-55v98h433l16 -150l-109 -11l-10 63h-146v-113h222v-97h-222v-115h144l10 64l113 -10z" />
    <glyph glyph-name="uni0113.smcp" horiz-adv-x="516" 
d="M462 587h-268v98h268v-98zM509 0h-431v98h55v325h-55v98h433l16 -150l-109 -11l-10 63h-146v-113h222v-97h-222v-115h144l10 64l113 -10z" />
    <glyph glyph-name="uni0119.smcp" horiz-adv-x="515" 
d="M517 -182q-44 -19 -87 -19q-50 0 -81.5 22t-31.5 66q0 71 72 113h-313v98h55v325h-55v98h433l16 -150l-109 -11l-10 63h-146v-113h222v-97h-222v-115h144l10 64l113 -10l-20 -152h-41q-44 -29 -44 -72q0 -42 42 -42q24 0 44 11z" />
    <glyph glyph-name="uni1EBD.smcp" horiz-adv-x="516" 
d="M470 697q0 -53 -19 -91.5t-64 -38.5q-27 0 -66.5 20.5t-58.5 20.5q-33 0 -45 -43l-50 16q-3 38 19 81t66 43q24 0 62.5 -19t54.5 -19q34 0 47 41zM509 0h-431v98h55v325h-55v98h433l16 -150l-109 -11l-10 63h-146v-113h222v-97h-222v-115h144l10 64l113 -10z" />
    </font>
</defs>
</svg>
