<?xml version="1.0" standalone="no"?>
<!DOCTYPE svg PUBLIC "-//W3C//DTD SVG 1.1//EN" "http://www.w3.org/Graphics/SVG/1.1/DTD/svg11.dtd" >
<svg xmlns="http://www.w3.org/2000/svg" xmlns:xlink="http://www.w3.org/1999/xlink" version="1.1">
<metadata>
Created by FontForge 20170731 at Tue Jul  4 11:59:17 2017
 By Aleksey,,,
Copyright 2017, The Mozilla Foundation
</metadata>
<defs>
<font id="ZillaSlabHighlight-Regular" horiz-adv-x="622" >
  <font-face 
    font-family="Zilla Slab Highlight Regular"
    font-weight="400"
    font-stretch="normal"
    units-per-em="1000"
    panose-1="0 0 0 0 0 0 0 0 0 0"
    ascent="787"
    descent="-213"
    x-height="917"
    cap-height="917"
    bbox="-32 -252 3431 918"
    underline-thickness="50"
    underline-position="-175"
    unicode-range="U+0020-FB04"
  />
<missing-glyph horiz-adv-x="528" 
d="M276 675v27h27v-27h-27zM501 675v27h27v-27h-27zM426 675v27h27v-27h-27zM351 675v27h27v-27h-27zM201 675v27h27v-27h-27zM126 675v27h27v-27h-27zM51 675v27h27v-27h-27zM-24 675v27h27v-27h-27zM501 600v27h27v-27h-27zM-24 600v27h27v-27h-27zM276 525v27h27v-27h-27
zM201 525v27h27v-27h-27zM126 525v27h27v-27h-27zM501 525v27h27v-27h-27zM351 525v27h27v-27h-27zM-24 525v27h27v-27h-27zM-24 450v27h27v-27h-27zM501 450v27h27v-27h-27zM351 450v27h27v-27h-27zM-24 375v27h27v-27h-27zM276 375v27h27v-27h-27zM351 375v27h27v-27h-27z
M501 375v27h27v-27h-27zM201 375v27h27v-27h-27zM-24 300v27h27v-27h-27zM201 300v27h27v-27h-27zM501 300v27h27v-27h-27zM-24 225v27h27v-27h-27zM501 225v27h27v-27h-27zM-24 150v27h27v-27h-27zM201 150v27h27v-27h-27zM501 150v27h27v-27h-27zM-24 75v27h27v-27h-27z
M501 75v27h27v-27h-27zM276 0v27h27v-27h-27zM426 0v27h27v-27h-27zM351 0v27h27v-27h-27zM501 0v27h27v-27h-27zM201 0v27h27v-27h-27zM126 0v27h27v-27h-27zM51 0v27h27v-27h-27zM-24 0v27h27v-27h-27z" />
    <glyph glyph-name="uniFB00" unicode="ff" horiz-adv-x="612" 
d="M612 622v-835h-636v1130h636v-230q-27 11 -71 11q-82 0 -127 -67q-65 57 -150 57q-74 0 -124.5 -49t-50.5 -127v-67h-64v-57h64v-331h-77v-57h249v57h-101v331h225v-331h-78v-57h249v57h-101v331h116v57h-116v87q0 51 22 78t60 27q37 0 75 -15zM160 445v70q0 55 32.5 86
t82.5 31q62 0 117 -50q-7 -24 -7 -54v-83h-225z" />
    <glyph glyph-name="uniFB01" unicode="fi" horiz-adv-x="566" 
d="M-24 -213v1130h590v-1130h-590zM386 388v-331h-77v-57h225v57h-77v388h-297v77q0 61 31.5 89.5t84.5 28.5q56 0 95 -22l18 -75l58 7l-17 104q-62 44 -148 44q-83 0 -138 -48t-55 -130v-75h-64v-57h64v-331h-77v-57h249v57h-101v331h226z" />
    <glyph glyph-name="uniFB02" unicode="fl" horiz-adv-x="566" 
d="M-24 -213v1130h590v-1130h-590zM308 0h226v57h-78v631h-70v-23q-42 33 -127 33q-75 0 -122.5 -48.5t-47.5 -127.5v-77h-64v-57h64v-331h-77v-57h249v57h-101v331h119v57h-119v80q0 55 30.5 86t83.5 31q72 0 112 -39v-546h-78v-57z" />
    <glyph glyph-name="uniFB03" unicode="ffi" horiz-adv-x="862" 
d="M-24 -213v1130h886v-1130h-886zM386 388v-331h-77v-57h249v57h-101v331h227v-331h-78v-57h225v57h-77v388h-297v77q0 61 31.5 89.5t84.5 28.5q56 0 95 -22l19 -75l57 7l-17 104q-60 44 -147 44q-108 0 -161 -73q-63 63 -155 63q-74 0 -124.5 -49t-50.5 -127v-67h-64v-57
h64v-331h-77v-57h249v57h-101v331h226zM160 445v70q0 55 32.5 86t82.5 31q64 0 120 -53q-9 -27 -9 -59v-75h-226z" />
    <glyph glyph-name="uniFB04" unicode="ffl" horiz-adv-x="861" 
d="M-24 917h885v-1130h-885v1130zM385 57h-77v-57h249v57h-101v331h119v57h-119v80q0 56 31 86.5t83 30.5q72 0 112 -39v-546h-77v-57h225v57h-77v631h-71v-23q-42 33 -127 33q-91 0 -138 -68q-24 26 -65 42t-88 16q-74 0 -124.5 -49t-50.5 -127v-67h-64v-57h64v-331h-77
v-57h249v57h-101v331h225v-331zM160 515q0 55 32.5 86t82.5 31q34 0 67.5 -13t52.5 -32q-10 -32 -10 -65v-77h-225v70z" />
    <glyph glyph-name="uni00660068" unicode="fh" horiz-adv-x="860" 
d="M-24 -213v1130h884v-1130h-884zM456 57v204q0 53 37.5 93.5t97.5 40.5q103 0 103 -131v-207h-77v-57h225v57h-77v228q0 85 -42 127t-111 42q-107 0 -156 -89v323h-71v-23q-42 33 -126 33q-74 0 -122 -48.5t-48 -127.5v-77h-64v-57h64v-331h-77v-57h249v57h-101v331h119
v57h-119v80q0 56 31 86.5t83 30.5q72 0 111 -39v-546h-77v-57h226v57h-78z" />
    <glyph glyph-name="uni00660062" unicode="fb" horiz-adv-x="855" 
d="M-24 -213v1130h879v-1130h-879zM456 688h-71v-23q-42 33 -126 33q-74 0 -122 -48.5t-48 -127.5v-77h-64v-57h64v-331h-77v-57h249v57h-101v331h119v57h-119v80q0 56 31 86.5t83 30.5q72 0 111 -39v-473q0 -46 -13 -130h70q6 37 9 74q22 -40 63 -62t94 -22
q98 0 148.5 72.5t50.5 171.5q0 103 -53.5 161.5t-138.5 58.5q-109 0 -159 -101v335zM731 227q0 -75 -35 -125.5t-104 -50.5q-55 0 -94.5 38.5t-41.5 92.5v67q2 54 41.5 99t100.5 45q58 0 95.5 -43t37.5 -123z" />
    <glyph glyph-name="uni0066006A" unicode="fj" horiz-adv-x="540" 
d="M-24 -213v1130h564v-1130h-244q160 5 160 212v446h-296v77q0 61 31.5 89.5t84.5 28.5q56 0 95 -22l18 -75l58 7l-17 104q-62 44 -148 44q-83 0 -138 -48t-55 -130v-75h-64v-57h64v-331h-77v-57h249v57h-101v331h225v-389q0 -51 -10 -84.5t-29 -48.5t-36.5 -19.5
t-42.5 -4.5l1 -55h-292z" />
    <glyph glyph-name="uni0066006B" unicode="fk" horiz-adv-x="821" 
d="M-24 -213v1130h845v-1130h-845zM385 57h-77v-57h212v57h-64v151h79l122 -151h-67v-57h210v57h-62l-148 184l118 147h69v57h-208v-57h70l-101 -126h-82v426h-71v-23q-42 33 -126 33q-74 0 -122 -48.5t-48 -127.5v-77h-64v-57h64v-331h-77v-57h249v57h-101v331h119v57h-119
v80q0 56 31 86.5t83 30.5q72 0 111 -39v-546z" />
    <glyph glyph-name="uni006600EC" unicode="f&#xec;" horiz-adv-x="565" 
d="M-24 917h589v-1130h-589v1130zM534 0v57h-77v388h-297v94q0 54 17.5 78t56.5 24q40 0 66 -20v59q-39 18 -76 18q-135 0 -135 -165v-88h-64v-57h64v-331h-77v-57h249v57h-101v331h226v-331h-77v-57h225zM539 547l-139 146l-46 -48l159 -125z" />
    <glyph glyph-name="uni006600EF" unicode="f&#xef;" horiz-adv-x="567" 
d="M-24 917h591v-1130h-591v1130zM293 555h81v57q0 31 -35 58.5t-94 27.5q-73 0 -114.5 -45t-41.5 -124v-84h-64v-57h64v-331h-77v-57h249v57h-101v331h226v-331h-77v-57h225v57h-77v388h-297v84q0 59 18 87t63 28q24 0 38 -11t14 -29v-49zM461 555h81v81h-81v-81z" />
    <glyph glyph-name="uni00660066006A" unicode="ffj" horiz-adv-x="839" 
d="M-24 917h863v-1130h-246q160 5 160 212v446h-296v77q0 61 31.5 89.5t84.5 28.5q56 0 95 -22l19 -75l57 7l-17 104q-60 44 -147 44q-108 0 -161 -73q-63 63 -155 63q-74 0 -124.5 -49t-50.5 -127v-67h-64v-57h64v-331h-77v-57h249v57h-101v331h226v-331h-77v-57h249v57
h-101v331h226v-389q0 -51 -10 -84.5t-29 -48.5t-36.5 -19.5t-42.5 -4.5v-55h-589v1130zM160 515q0 55 32.5 86t82.5 31q64 0 120 -53q-9 -27 -9 -59v-75h-226v70z" />
    <glyph glyph-name=".notdef" horiz-adv-x="528" 
d="M276 675v27h27v-27h-27zM501 675v27h27v-27h-27zM426 675v27h27v-27h-27zM351 675v27h27v-27h-27zM201 675v27h27v-27h-27zM126 675v27h27v-27h-27zM51 675v27h27v-27h-27zM-24 675v27h27v-27h-27zM501 600v27h27v-27h-27zM-24 600v27h27v-27h-27zM276 525v27h27v-27h-27
zM201 525v27h27v-27h-27zM126 525v27h27v-27h-27zM501 525v27h27v-27h-27zM351 525v27h27v-27h-27zM-24 525v27h27v-27h-27zM-24 450v27h27v-27h-27zM501 450v27h27v-27h-27zM351 450v27h27v-27h-27zM-24 375v27h27v-27h-27zM276 375v27h27v-27h-27zM351 375v27h27v-27h-27z
M501 375v27h27v-27h-27zM201 375v27h27v-27h-27zM-24 300v27h27v-27h-27zM201 300v27h27v-27h-27zM501 300v27h27v-27h-27zM-24 225v27h27v-27h-27zM501 225v27h27v-27h-27zM-24 150v27h27v-27h-27zM201 150v27h27v-27h-27zM501 150v27h27v-27h-27zM-24 75v27h27v-27h-27z
M501 75v27h27v-27h-27zM276 0v27h27v-27h-27zM426 0v27h27v-27h-27zM351 0v27h27v-27h-27zM501 0v27h27v-27h-27zM201 0v27h27v-27h-27zM126 0v27h27v-27h-27zM51 0v27h27v-27h-27zM-24 0v27h27v-27h-27z" />
    <glyph glyph-name=".null" horiz-adv-x="0" 
 />
    <glyph glyph-name="nonmarkingreturn" horiz-adv-x="333" 
 />
    <glyph glyph-name="uni0020" unicode=" " horiz-adv-x="249" 
 />
    <glyph glyph-name="uni0021" unicode="!" horiz-adv-x="236" 
d="M-24 917h260v-1130h-260v1130zM147 650h-83l14 -458h54zM63 0h90v97h-90v-97z" />
    <glyph glyph-name="uni0022" unicode="&#x22;" horiz-adv-x="367" 
d="M-24 917h391v-1130h-391v1130zM112 377l5 273h-71l5 -273h61zM292 377l5 273h-71l5 -273h61z" />
    <glyph glyph-name="uni0023" unicode="#" horiz-adv-x="587" 
d="M-24 917h611v-1130h-611v1130zM506 182h-92l31 164h91v57h-80l23 118h-63l-23 -118h-176l23 118h-63l-23 -118h-100v-57h89l-31 -164h-88v-57h77l-24 -125h63l24 125h176l-24 -125h63l24 125h103v57zM206 346h176l-31 -164h-176z" />
    <glyph glyph-name="uni0024" unicode="$" horiz-adv-x="467" 
d="M-24 917h491v-1130h-491v1130zM412 148q0 40 -15 68.5t-44 45t-51.5 24.5t-56.5 15v171q42 -3 79 -26l11 -84l59 4l-6 115q-59 40 -143 47v65h-42v-64q-71 -3 -117.5 -40t-46.5 -105q0 -29 10.5 -52t23.5 -36t39 -23.5t43 -15t48 -11.5v-196q-51 5 -100 28l8 73l-60 5
l-17 -114q65 -43 169 -49v-58h42v58q75 5 121 45.5t46 109.5zM114 392q0 35 23.5 55.5t65.5 23.5v-161q-44 12 -66.5 29t-22.5 53zM337 141q0 -80 -92 -90v184q45 -13 68.5 -34t23.5 -60z" />
    <glyph glyph-name="uni0025" unicode="%" horiz-adv-x="683" 
d="M-24 917h707v-1130h-707v1130zM161 244q70 0 108.5 39.5t38.5 108.5t-37.5 104t-101.5 35q-66 0 -106.5 -38.5t-40.5 -109.5q0 -68 38 -103.5t101 -35.5zM492 521l-174 -234l-230 -287h75l202 267l202 254h-75zM162 294q-80 0 -80 90q0 97 85 97q81 0 81 -90
q0 -97 -86 -97zM492 -10q69 0 108 39.5t39 108.5q0 68 -37.5 103.5t-101.5 35.5q-67 0 -107 -38.5t-40 -109.5q0 -69 38 -104t101 -35zM492 40q-79 0 -79 90q0 97 85 97q81 0 81 -90q0 -97 -87 -97z" />
    <glyph glyph-name="uni0026" unicode="&#x26;" horiz-adv-x="727" 
d="M-24 917h751v-1130h-751v1130zM413 299h98q-31 -104 -101 -172q-103 77 -165 192q116 58 154 88q65 52 65 118q0 60 -44.5 97.5t-115.5 37.5q-83 0 -131.5 -50.5t-48.5 -130.5q0 -69 38 -155q-62 -34 -95.5 -72.5t-33.5 -97.5q0 -77 56 -120.5t134 -43.5q87 0 172 60
q94 -60 182 -60q58 0 108 28l-17 61q-39 -21 -81 -21q-61 0 -132 41q87 85 133 200h105v63h-280v-63zM196 485q0 52 28 84.5t78 32.5q43 0 66 -24t23 -56q0 -26 -13 -49t-39 -44t-50.5 -36t-62.5 -35q-30 69 -30 127zM241 52q-59 0 -97.5 28.5t-38.5 84.5q0 71 76 120
q66 -121 167 -201q-51 -32 -107 -32z" />
    <glyph glyph-name="uni0027" unicode="'" horiz-adv-x="187" 
d="M-24 917h211v-1130h-211v1130zM112 377l5 273h-71l5 -273h61z" />
    <glyph glyph-name="uni0028" unicode="(" horiz-adv-x="274" 
d="M-24 917h298v-1130h-298v1130zM186 718q-161 -208 -161 -448q0 -242 159 -453h69q-166 206 -166 453q0 237 166 448h-67z" />
    <glyph glyph-name="uni0029" unicode=")" horiz-adv-x="274" 
d="M274 917v-1130h-298v1130h298zM64 718h-67q166 -211 166 -448q0 -247 -166 -453h69q159 211 159 453q0 240 -161 448z" />
    <glyph glyph-name="uni002A" unicode="*" horiz-adv-x="411" 
d="M-24 917h435v-1130h-435v1130zM326 601l-111 -73l6 122h-55l5 -121l-109 72l-29 -45l117 -67l-117 -65l29 -45l109 70l-5 -116h55l-5 117l110 -71l29 45l-118 65l118 67z" />
    <glyph glyph-name="uni002B" unicode="+" horiz-adv-x="417" 
d="M-24 917h441v-1130h-441v1130zM23 254h150v-146h53v146h144v54h-144v147h-53v-147h-150v-54z" />
    <glyph glyph-name="uni002C" unicode="," horiz-adv-x="197" 
d="M-24 -213v1130h221v-1130h-221zM62 114l-52 -216h69l53 216h-70z" />
    <glyph glyph-name="uni002D" unicode="-" horiz-adv-x="345" 
d="M-24 -213v1130h369v-1130h-369zM44 261v-61h231v61h-231z" />
    <glyph glyph-name="uni002E" unicode="." horiz-adv-x="207" 
d="M-24 -213v1130h231v-1130h-231zM43 108v-108h97v108h-97z" />
    <glyph glyph-name="uni002F" unicode="/" horiz-adv-x="335" 
d="M-24 -213v1130h359v-1130h-359zM302 688h-69l-215 -688h69z" />
    <glyph glyph-name="uni0030" unicode="0" horiz-adv-x="571" 
d="M-24 917h595v-1130h-595v1130zM515 259q0 121 -60.5 196.5t-178.5 75.5q-116 0 -179.5 -76.5t-63.5 -198.5q0 -124 61.5 -195t177.5 -71t179.5 72t63.5 197zM438 262q0 -101 -42.5 -154t-121.5 -53q-80 0 -121.5 53.5t-41.5 152.5t41 152t123 53t122.5 -53.5t40.5 -150.5
z" />
    <glyph glyph-name="uni0031" unicode="1" horiz-adv-x="382" 
d="M-24 917h406v-1130h-406v1130zM351 0v64h-117v457h-196v-64h122v-393h-122v-64h313z" />
    <glyph glyph-name="uni0032" unicode="2" horiz-adv-x="511" 
d="M-24 917h535v-1130h-535v1130zM62 487l-17 -110l58 -7l16 75q52 23 106 23q57 0 88 -26.5t31 -73.5q0 -29 -15.5 -59t-37.5 -55.5t-67.5 -61.5t-83 -62t-106.5 -73l8 -57h406l11 139l-61 5l-9 -80h-260q37 22 51.5 31t53 35t57.5 42t48.5 43.5t44.5 50.5t26.5 52t11.5 58
q0 62 -45 108.5t-136 46.5q-104 0 -179 -44z" />
    <glyph glyph-name="uni0033" unicode="3" horiz-adv-x="486" 
d="M-24 917h510v-1130h-510v1130zM52 479l-17 -110l58 -7l18 81q47 25 96 25q56 0 87.5 -28t31.5 -77q0 -50 -38 -86.5t-124 -40.5v-54q102 -3 145.5 -34.5t43.5 -93.5q0 -57 -31 -94.5t-104 -37.5q-106 0 -141 98l-57 -20q13 -64 62.5 -102.5t137.5 -38.5q98 0 154.5 52
t56.5 139q0 138 -153 164v4q125 39 125 154q0 75 -50.5 117t-131.5 42q-92 0 -169 -52z" />
    <glyph glyph-name="uni0034" unicode="4" horiz-adv-x="534" 
d="M-24 917h558v-1130h-558v1130zM394 -131v165h97l8 62h-105v425h-156l-233 -425l8 -62h309v-165h72zM322 96h-246l197 362h49v-362z" />
    <glyph glyph-name="uni0035" unicode="5" horiz-adv-x="508" 
d="M-24 917h532v-1130h-532v1130zM456 64q0 61 -22.5 103t-63.5 63t-85.5 29.5t-102.5 8.5q-34 0 -50 -1v191h232l10 -81l61 6l-9 138h-362v-294l25 -24q40 3 84 3q45 0 78 -5.5t64 -20t47 -44.5t16 -75q0 -66 -35.5 -102.5t-105.5 -36.5q-105 0 -137 98l-57 -20
q13 -63 64 -101.5t136 -38.5q101 0 157 53.5t56 150.5z" />
    <glyph glyph-name="uni0036" unicode="6" horiz-adv-x="528" 
d="M-24 917h552v-1130h-552v1130zM469 205q0 87 -45 142.5t-138 55.5q-72 0 -115.5 -31.5t-60.5 -78.5q0 19 1 21q2 145 36.5 214t123.5 69t144 -69l43 44q-72 88 -186 88q-124 0 -181 -95.5t-57 -257.5q0 -72 11 -127t36 -99t70 -67.5t108 -23.5q105 0 157.5 60t52.5 155z
M395 202q0 -146 -134 -146q-69 0 -102.5 37.5t-43.5 106.5q5 55 42 97.5t111 42.5q127 0 127 -138z" />
    <glyph glyph-name="uni0037" unicode="7" horiz-adv-x="467" 
d="M-24 917h491v-1130h-491v1130zM441 479l-10 42h-411v-174h66v111h277l-242 -588h73z" />
    <glyph glyph-name="uni0038" unicode="8" horiz-adv-x="535" 
d="M-24 917h559v-1130h-559v1130zM481 163q0 66 -42 106.5t-117 75.5q65 27 101.5 61.5t36.5 91.5q0 73 -58.5 117.5t-147.5 44.5q-91 0 -148.5 -46.5t-57.5 -119.5q0 -56 35.5 -93t99.5 -68q-72 -30 -112 -68t-40 -105q0 -82 60 -126t159 -44q101 0 166 47t65 126zM386 493
q0 -43 -28.5 -69.5t-91.5 -54.5q-34 16 -54.5 26.5t-43 27t-33 36t-10.5 43.5q0 44 36 70t93 26q58 0 95 -27t37 -78zM404 160q0 -50 -43 -79t-109 -29q-67 0 -107.5 31t-40.5 87q0 51 33 80.5t99 58.5q34 -15 43.5 -19.5t37 -18.5t37 -22.5t24.5 -23.5t20.5 -30.5
t5.5 -34.5z" />
    <glyph glyph-name="uni0039" unicode="9" horiz-adv-x="528" 
d="M-24 917h552v-1130h-552v1130zM34 316q0 -87 45 -142.5t138 -55.5q72 0 115.5 31.5t60.5 78.5q0 -19 -1 -21q-2 -145 -36.5 -214t-123.5 -69t-144 69l-43 -44q72 -88 186 -88q124 0 181 95.5t57 257.5q0 72 -11 127t-36 99t-70 67.5t-108 23.5q-105 0 -157.5 -60
t-52.5 -155zM108 319q0 146 134 146q69 0 102.5 -37.5t43.5 -106.5q-5 -55 -42 -97.5t-111 -42.5q-127 0 -127 138z" />
    <glyph glyph-name="uni003A" unicode=":" horiz-adv-x="219" 
d="M-24 917h243v-1130h-243v1130zM51 337h94v108h-94v-108zM51 0h94v108h-94v-108z" />
    <glyph glyph-name="uni003B" unicode=";" horiz-adv-x="227" 
d="M-24 917h251v-1130h-251v1130zM65 337h94v108h-94v-108zM140 114h-69l-53 -216h69z" />
    <glyph glyph-name="uni003C" unicode="&#x3c;" horiz-adv-x="404" 
d="M-24 917h428v-1130h-428v1130zM335 14v69l-242 197l241 200v69l-318 -260v-20z" />
    <glyph glyph-name="uni003D" unicode="=" horiz-adv-x="574" 
d="M-24 917h598v-1130h-598v1130zM47 364h457v54h-457v-54zM47 144h457v52h-457v-52z" />
    <glyph glyph-name="uni003E" unicode="&#x3e;" horiz-adv-x="404" 
d="M-24 917h428v-1130h-428v1130zM363 269v20l-318 260v-69l241 -200l-242 -197v-69z" />
    <glyph glyph-name="uni003F" unicode="?" horiz-adv-x="444" 
d="M-24 917h468v-1130h-468v1130zM92 460l13 96q47 39 108 39q53 0 82 -22.5t29 -57.5q0 -36 -31.5 -67.5t-69 -52.5t-69 -55t-31.5 -74q0 -41 31.5 -65t96.5 -20v50q-53 0 -53 41q0 24 21 46.5t51 42t60 41.5t51 54t21 69q0 61 -52.5 98t-131.5 37q-49 0 -96.5 -21.5
t-79.5 -53.5l-8 -120zM153 0h89v97h-89v-97z" />
    <glyph glyph-name="uni0040" unicode="@" horiz-adv-x="902" 
d="M-24 917h926v-1130h-926v1130zM284 405l-18 -104l53 -6l19 77q44 28 99 28q95 0 95 -112v-42q-72 3 -78 3q-210 0 -210 -134q0 -65 41.5 -95t96.5 -30q51 0 91 28t62 69q8 -44 41.5 -70.5t84.5 -26.5q50 0 88 25.5t58.5 68t30 90t9.5 98.5q0 82 -24.5 148.5t-64.5 109.5
t-93 71.5t-107 40.5t-110 12q-183 0 -302.5 -126t-119.5 -309q0 -184 120.5 -302.5t297.5 -118.5q142 0 250 72l-24 45q-91 -62 -217 -62q-152 0 -259.5 99.5t-107.5 271.5q0 166 102 270.5t263 104.5q50 0 95.5 -10t90 -35t77.5 -63.5t53 -100t20 -138.5q0 -39 -5.5 -74
t-17.5 -67.5t-34.5 -51.5t-53.5 -19q-33 0 -53 19.5t-20 52.5v193q0 71 -40 110t-116 39q-92 0 -163 -49zM532 204v-31q-1 -55 -40.5 -91.5t-88.5 -36.5q-35 0 -59.5 19t-24.5 59q0 86 133 86q20 0 80 -5z" />
    <glyph glyph-name="uni0041" unicode="A" 
d="M-24 917h646v-853h-79l-213 586h-186v-64h104l-193 -522h-79v853zM304 544l106 -298h-219l108 298h5zM622 -213h-646v213h228v64h-80l46 125h260l44 -125h-77v-64h225v-213z" />
    <glyph glyph-name="uni0042" unicode="B" horiz-adv-x="600" 
d="M-24 -213v1130h624v-1130h-624zM550 184q0 65 -35.5 110t-103.5 56v4q50 11 81 49.5t31 90.5q0 73 -49.5 114.5t-146.5 41.5h-299v-64h82v-522h-82v-64h304q104 0 161 51.5t57 132.5zM445 477q0 -53 -37 -82t-96 -29h-129v220h132q65 0 97.5 -25t32.5 -84zM472 188
q0 -124 -153 -124h-136v242h160q63 0 96 -31t33 -87z" />
    <glyph glyph-name="uni0043" unicode="C" horiz-adv-x="642" 
d="M-24 -213v1130h666v-1130h-666zM561 50l17 125l-62 6l-19 -96q-58 -29 -143 -29q-115 0 -183 73t-68 195q0 119 66 194.5t172 75.5q92 0 161 -46l18 -95l63 6l-18 125q-90 76 -230 76q-138 0 -223.5 -99.5t-85.5 -239.5q0 -143 89 -237t229 -94q139 0 217 60z" />
    <glyph glyph-name="uni0044" unicode="D" horiz-adv-x="697" 
d="M-32 -213v1130h725v-1130h-725zM643 326q0 144 -88 234t-244 90h-271v-63h82v-524h-82v-63h274q152 0 240.5 90.5t88.5 235.5zM565 325q0 -122 -66.5 -192t-188.5 -70h-115v524h115q122 0 188.5 -71t66.5 -191z" />
    <glyph glyph-name="uni0045" unicode="E" horiz-adv-x="584" 
d="M-24 -213v1130h608v-1130h-608zM28 0h484l19 184l-63 7l-20 -127h-265v234h307v64h-307v224h256l20 -127l64 7l-20 184h-475v-64h82v-522h-82v-64z" />
    <glyph glyph-name="uni0046" unicode="F" horiz-adv-x="554" 
d="M-24 -213v1130h578v-1130h-578zM455 456l66 7l-21 187h-472v-64h82v-522h-82v-64h270v64h-115v205h299v64h-299v253h252z" />
    <glyph glyph-name="uni0047" unicode="G" horiz-adv-x="688" 
d="M-24 -213v1130h712v-1130h-712zM599 270h51v65h-279v-65h155v-58q0 -63 -51 -109.5t-136 -46.5q-106 0 -170.5 74t-64.5 195q0 119 67 194t176 75q93 0 164 -47l20 -92l62 7l-18 122q-85 76 -232 76q-138 0 -227.5 -98t-89.5 -240q0 -141 84 -236.5t216 -95.5
q69 0 123 27.5t85 72.5l9 -90h56v270z" />
    <glyph glyph-name="uni0048" unicode="H" horiz-adv-x="752" 
d="M-24 -213v1130h776v-1130h-776zM462 0h237v64h-82v522h82v64h-237v-64h82v-224h-361v224h82v64h-237v-64h82v-522h-82v-64h237v64h-82v236h361v-236h-82v-64z" />
    <glyph glyph-name="uni0049" unicode="I" horiz-adv-x="318" 
d="M-24 -213v1130h342v-1130h-342zM28 0h237v64h-81v522h81v64h-237v-64h82v-522h-82v-64z" />
    <glyph glyph-name="uni004A" unicode="J" horiz-adv-x="454" 
d="M-22 -213l-2 1130h478v-1130h-476zM334 586h72v64h-274v-64h129v-420q0 -107 -100 -107q-35 0 -59 15.5t-44 54.5l-53 -40q47 -99 162 -99q80 0 123.5 44.5t43.5 131.5v420z" />
    <glyph glyph-name="uni004B" unicode="K" horiz-adv-x="638" 
d="M-24 -213v1130h662v-1130h-662zM387 0h234v64h-73l-200 274l187 249h74v64h-229v-64h77l-167 -225h-106v224h76v64h-232v-64h82v-522h-82v-64h231v64h-75v235h108l172 -235h-77v-64z" />
    <glyph glyph-name="uni004C" unicode="L" horiz-adv-x="540" 
d="M-24 -213v1130h564v-1130h-564zM28 0h459l20 208l-65 5l-20 -149h-239v522h109v64h-264v-64h82v-522h-82v-64z" />
    <glyph glyph-name="uni004D" unicode="M" horiz-adv-x="877" 
d="M-24 -213v1130h901v-1130h-901zM743 586h85v64h-150l-246 -509h-4l-253 509h-149v-64h85v-522h-82v-64h230v64h-78v417h4l223 -448h39l218 445h4v-414h-76v-64h231v64h-81v522z" />
    <glyph glyph-name="uni004E" unicode="N" horiz-adv-x="733" 
d="M-24 -213v1130h757v-1130h-757zM608 586h81v64h-249v-64h98v-437h-4l-370 501h-140v-64h86v-522h-75v-64h248v64h-103v448h4l377 -512h47v586z" />
    <glyph glyph-name="uni004F" unicode="O" horiz-adv-x="725" 
d="M-24 -213v1130h749v-1130h-749zM676 325q0 141 -91 238t-235 97q-142 0 -233.5 -96.5t-91.5 -238.5q0 -141 89.5 -238t233.5 -97t236 97t92 238zM597 324q0 -116 -66.5 -192t-178.5 -76q-115 0 -181.5 77.5t-66.5 192.5t66.5 191.5t179.5 76.5q112 0 179.5 -75.5
t67.5 -194.5z" />
    <glyph glyph-name="uni0050" unicode="P" horiz-adv-x="570" 
d="M-24 -213v1130h594v-1130h-594zM530 451q0 88 -56 143.5t-170 55.5h-276v-64h82v-522h-82v-64h267v64h-112v178h127q99 0 159.5 55t60.5 154zM452 449q0 -68 -39 -105.5t-112 -37.5h-118v280h115q77 0 115.5 -36t38.5 -101z" />
    <glyph glyph-name="uni0051" unicode="Q" horiz-adv-x="732" 
d="M-24 -213v1130h756v-1130h-756zM676 325q0 141 -91 238t-235 97q-142 0 -233.5 -96.5t-91.5 -238.5q0 -141 89.5 -238t233.5 -97q107 0 188 57l79 -80l46 46l-75 76q90 98 90 236zM597 324q0 -112 -61 -184l-122 124l-47 -46l121 -122q-57 -40 -136 -40
q-115 0 -181.5 77.5t-66.5 192.5t66.5 191.5t179.5 76.5q112 0 179.5 -75.5t67.5 -194.5z" />
    <glyph glyph-name="uni0052" unicode="R" horiz-adv-x="613" 
d="M-24 -213v1130h637v-1130h-637zM463 0h130v64h-82l-116 222q67 18 103 66.5t36 113.5q0 84 -55 134t-170 50h-281v-64h82v-522h-82v-64h243v64h-87v208h139zM457 463q0 -130 -155 -130h-118v253h116q83 0 120 -29.5t37 -93.5z" />
    <glyph glyph-name="uni0053" unicode="S" horiz-adv-x="529" 
d="M-24 -213v1130h553v-1130h-553zM476 182q0 41 -14 72.5t-31 49t-49.5 32t-51.5 20t-55 13.5q-9 2 -13 3l-44 11t-38 13.5t-33.5 20.5t-20.5 29.5t-9 41.5q0 51 37 79t99 28q74 0 124 -27l10 -97l60 6l-6 129q-31 24 -86 39t-109 15q-89 0 -148 -46.5t-59 -133.5
q0 -37 12.5 -65.5t29 -45t46.5 -29.5t51.5 -19t56.5 -13q34 -8 48.5 -11.5t41.5 -14.5t39 -23t22.5 -33.5t10.5 -50.5q0 -62 -43.5 -91.5t-113.5 -29.5q-77 0 -135 29l4 82l-60 6l-14 -128q73 -53 209 -53q103 0 167.5 50.5t64.5 141.5z" />
    <glyph glyph-name="uni0054" unicode="T" horiz-adv-x="568" 
d="M-24 -213v1130h592v-1130h-592zM473 447l65 5l-20 198h-492l-19 -198l64 -5l20 139h144v-522h-112v-64h300v64h-115v522h145z" />
    <glyph glyph-name="uni0055" unicode="U" horiz-adv-x="714" 
d="M-24 -213v1130h738v-1130h-738zM603 586h63v64h-225v-64h93v-319q0 -104 -48 -157.5t-139 -53.5q-92 0 -138 52t-46 150v328h90v64h-231v-64h67v-330q0 -55 13 -101t41 -84t79 -59.5t121 -21.5q72 0 124.5 23.5t81 64t41.5 87.5t13 102v319z" />
    <glyph glyph-name="uni0056" unicode="V" horiz-adv-x="606" 
d="M218 586v64h-242v267h630v-267h-238v-64h92l-162 -478h-5l-166 478h91zM606 -213h-630v799h71l215 -586h58l215 586h71v-799z" />
    <glyph glyph-name="uni0057" unicode="W" horiz-adv-x="887" 
d="M212 586v64h-236v267h911v-267h-234v-64h95l-107 -470h-4l-151 470h65v64h-225v-64h66l-150 -467h-5l-116 467h91zM887 -213h-911v799h67l165 -586h60l165 520h5l170 -520h59l154 586h66v-799z" />
    <glyph glyph-name="uni0058" unicode="X" horiz-adv-x="629" 
d="M-24 -213v1130h653v-1130h-653zM384 0h227v64h-62l-209 273l189 249h72v64h-220v-64h66l-144 -200l-151 200h73v64h-222v-64h65l193 -250l-202 -272h-67v-64h224v64h-77l159 222l166 -222h-80v-64z" />
    <glyph glyph-name="uni0059" unicode="Y" horiz-adv-x="570" 
d="M220 586v64h-244v267h594v-267h-240v-64h89l-138 -270h-5l-145 270h89zM570 -213h-594v799h72l190 -337v-185h-111v-64h299v64h-115v184l182 338h77v-799z" />
    <glyph glyph-name="uni005A" unicode="Z" horiz-adv-x="574" 
d="M-24 -213v1130h598v-1130h-598zM20 0h480l26 193l-63 9l-28 -138h-314v3l386 543l-2 40h-448l-25 -188l62 -9l28 133h280v-3l-384 -539z" />
    <glyph glyph-name="uni005B" unicode="[" horiz-adv-x="295" 
d="M-24 -213v1130h319v-1130h-319zM70 750v-956h177v52h-114v852h114v52h-177z" />
    <glyph glyph-name="uni005C" unicode="\" horiz-adv-x="335" 
d="M335 -213h-359v1130h359v-1130zM9 688l215 -688h69l-215 688h-69z" />
    <glyph glyph-name="uni005D" unicode="]" horiz-adv-x="295" 
d="M295 -213h-319v1130h319v-1130zM201 750h-177v-52h114v-852h-114v-52h177v956z" />
    <glyph glyph-name="uni005E" unicode="^" horiz-adv-x="448" 
d="M-24 917h472v-1130h-472v1130zM188 656l-161 -283h66l117 214l123 -214h66l-166 283h-45z" />
    <glyph glyph-name="uni005F" unicode="_" horiz-adv-x="530" 
d="M-24 917h554v-1130h-554v1130zM38 -125h432v51h-432v-51z" />
    <glyph glyph-name="uni0060" unicode="`" horiz-adv-x="170" 
d="M149 520l-173 104l40 59l154 -132z" />
    <glyph glyph-name="uni0061" unicode="a" horiz-adv-x="479" 
d="M-24 -213v1130h503v-1130h-503zM67 411l-16 -103l58 -7l17 77q37 18 86 18q56 0 78.5 -28t22.5 -80v-40q-48 4 -79 4q-208 0 -208 -137q0 -65 41 -95t94 -30q51 0 90 26t62 66v-2q1 -42 22 -66t59 -24q31 0 58 15l-1 46q-13 -6 -30 -6q-38 0 -38 48v212q0 149 -159 149
q-93 0 -157 -43zM313 167q-4 -53 -43 -86t-88 -33q-34 0 -58.5 18t-24.5 57q0 83 131 83q20 0 83 -5v-34z" />
    <glyph glyph-name="uni0062" unicode="b" horiz-adv-x="527" 
d="M-24 -213v1130h551v-1130h-551zM481 234q0 103 -53 161.5t-138 58.5q-109 0 -159 -101v335h-147v-57h76v-501q0 -46 -13 -130h70q9 45 9 74q22 -40 63 -62t93 -22q99 0 149 72.5t50 171.5zM407 227q0 -75 -35 -126t-104 -51q-58 0 -97.5 39t-39.5 95v67q2 54 41.5 98.5
t99.5 44.5t97.5 -43.5t37.5 -123.5z" />
    <glyph glyph-name="uni0063" unicode="c" horiz-adv-x="457" 
d="M-24 -213v1130h481v-1130h-481zM414 150l-60 13q-20 -113 -120 -113q-66 0 -101 44.5t-35 125.5q0 78 32.5 126t100.5 48q55 0 95 -25l17 -75l58 7l-17 107q-61 46 -152 46q-98 0 -153 -69.5t-55 -168.5q0 -106 54.5 -166t147.5 -60q85 0 131.5 46.5t56.5 113.5z" />
    <glyph glyph-name="uni0064" unicode="d" horiz-adv-x="546" 
d="M-24 -213v1130h570v-1130h-570zM374 0h147v57h-77v631h-178v-57h108v-258q-45 81 -149 81q-101 0 -151 -71.5t-50 -171.5q0 -103 52 -162t139 -59q104 0 159 100v-90zM374 268v-71q-2 -54 -43 -100.5t-98 -46.5q-60 0 -97.5 43.5t-37.5 122.5q0 76 36.5 127t106.5 51
q54 0 92.5 -35.5t40.5 -90.5z" />
    <glyph glyph-name="uni0065" unicode="e" horiz-adv-x="466" 
d="M-24 -213v1130h490v-1130h-490zM421 128l-59 13q-23 -91 -123 -91q-66 0 -102 40.5t-39 115.5h313q6 27 6 53q-1 83 -51 139t-138 56q-93 0 -148.5 -66.5t-55.5 -171.5q0 -106 57 -166t153 -60q79 0 128.5 39t58.5 99zM343 258h-244q7 62 38 100t89 38q61 0 92 -42
t25 -96z" />
    <glyph glyph-name="uni0066" unicode="f" horiz-adv-x="335" 
d="M-24 -213v1130h359v-230q-26 11 -89 11q-66 0 -111.5 -47t-45.5 -123v-83h-64v-56h64v-332h-77v-57h249v57h-101v332h115v56h-115v87q0 52 21.5 78.5t59.5 26.5q57 0 94 -15v-835h-359z" />
    <glyph glyph-name="uni0067" unicode="g" horiz-adv-x="545" 
d="M-24 -213v1130h569v-1130h-309q99 4 154 65t55 164v372h72v57h-143v-70q-45 79 -151 79q-66 0 -112.5 -36.5t-66.5 -90t-20 -116.5q0 -102 54 -159.5t137 -57.5q109 0 159 97v-72q0 -81 -40 -126t-105 -45q-49 0 -89.5 24.5t-56.5 73.5l-56 -28q16 -61 66 -94.5
t119 -36.5h-236zM374 269v-77q-2 -53 -43 -95t-101 -42q-58 0 -94.5 41.5t-36.5 119.5q0 76 36 126.5t107 50.5q55 0 93.5 -34.5t38.5 -89.5z" />
    <glyph glyph-name="uni0068" unicode="h" horiz-adv-x="556" 
d="M-24 -213v1130h580v-1130h-580zM311 0h226v57h-77v228q0 85 -42 127t-111 42q-107 0 -156 -89v323h-148v-57h77v-574h-77v-57h225v57h-77v210q2 51 39.5 89.5t93.5 38.5q105 0 105 -131v-207h-78v-57z" />
    <glyph glyph-name="uni0069" unicode="i" horiz-adv-x="277" 
d="M-24 -213v1130h301v-1130h-301zM91 651v-91h76v91h-76zM20 0h226v57h-78v388h-150v-57h80v-331h-78v-57z" />
    <glyph glyph-name="uni006A" unicode="j" horiz-adv-x="247" 
d="M-24 917h271v-1130h-244q160 5 160 209v449h-170v-57h99v-392q0 -51 -9.5 -84t-28.5 -47t-36 -18.5t-42 -4.5v1075zM87 560h76v91h-76v-91z" />
    <glyph glyph-name="uni006B" unicode="k" horiz-adv-x="517" 
d="M-24 -213v1130h541v-1130h-541zM285 0h210v57h-63l-147 184l119 147h68v57h-208v-57h69l-102 -126h-80v426h-150v-57h79v-574h-77v-57h212v57h-64v151h79l122 -151h-67v-57z" />
    <glyph glyph-name="uni006C" unicode="l" horiz-adv-x="262" 
d="M-24 -213v1130h286v-1130h-286zM6 0h226v57h-78v631h-149v-57h79v-574h-78v-57z" />
    <glyph glyph-name="uni006D" unicode="m" horiz-adv-x="860" 
d="M-24 -213v1130h884v-1130h-884zM627 0h213v57h-78v228q0 85 -41 127t-108 42q-110 0 -157 -107q-14 54 -51.5 80.5t-91.5 26.5q-100 0 -149 -92v83h-149v-57h79v-331h-78v-57h230v57h-82v206q2 49 36.5 90.5t92.5 41.5q99 0 99 -131v-207h-64v-57h212v57h-77v204
q2 48 36.5 91t91.5 43q101 0 101 -131v-207h-65v-57z" />
    <glyph glyph-name="uni006E" unicode="n" horiz-adv-x="570" 
d="M-24 -213v1130h594v-1130h-594zM325 0h225v57h-77v228q0 85 -42 127t-111 42q-108 0 -156 -88v79h-150v-57h80v-331h-78v-57h226v57h-78v208q2 53 39.5 91.5t95.5 38.5q103 0 103 -131v-207h-77v-57z" />
    <glyph glyph-name="uni006F" unicode="o" horiz-adv-x="509" 
d="M-24 -213v1130h533v-1130h-533zM243 455q-104 0 -162 -67t-58 -169t58 -165.5t158 -63.5q101 0 162 65t61 168q0 100 -57.5 166t-161.5 66zM241 50q-69 0 -107 48.5t-38 124.5t38.5 124t106.5 48q69 0 108 -46.5t39 -124.5q0 -77 -39 -125.5t-108 -48.5z" />
    <glyph glyph-name="uni0070" unicode="p" horiz-adv-x="545" 
d="M78 -156h-79v-57h-23v1130h569v-1130h-294v57h-103v221q46 -75 147 -75t152 72.5t51 172.5q0 102 -52.5 160.5t-139.5 58.5q-107 0 -158 -102v93h-150v-57h80v-544zM424 229q0 -77 -36 -128t-107 -51q-56 0 -94.5 38t-38.5 94v66q2 54 42.5 100t97.5 46q60 0 98 -43.5
t38 -121.5z" />
    <glyph glyph-name="uni0071" unicode="q" horiz-adv-x="529" 
d="M513 -213v57h-68v463q0 61 15 138h-70q-7 -34 -10 -77q-21 41 -63 63.5t-95 22.5q-98 0 -148 -72.5t-50 -171.5q0 -103 53 -161.5t138 -58.5q109 0 159 101v-247h-104v-57h-294v1130h553v-1130h-16zM374 197q-2 -54 -42 -100t-100 -46q-58 0 -95.5 43t-37.5 123
q0 75 34.5 125.5t103.5 50.5q57 0 97 -37t40 -92v-67z" />
    <glyph glyph-name="uni0072" unicode="r" horiz-adv-x="416" 
d="M-24 -213v1130h440v-1130h-440zM270 453q-37 0 -67 -24.5t-43 -63.5v80h-146v-57h80v-331h-78v-57h251v57h-103v219q0 51 26 84t65 33q17 0 34 -6l17 -76l57 7l-17 112q-28 23 -76 23z" />
    <glyph glyph-name="uni0073" unicode="s" horiz-adv-x="433" 
d="M-24 -213v1130h457v-1130h-457zM385 129q0 49 -28.5 77t-69 37.5t-81 16t-69 22.5t-28.5 48q0 66 96 66q49 0 91 -22l11 -72l58 7l-11 104q-69 41 -155 41q-68 0 -116.5 -32t-48.5 -97q0 -48 28.5 -75t69.5 -36.5t82.5 -16t70 -24t28.5 -50.5q0 -36 -35 -55.5t-85 -19.5
q-53 0 -99 22l3 59l-56 6l-14 -101q67 -44 169 -44q82 0 135.5 37.5t53.5 101.5z" />
    <glyph glyph-name="uni0074" unicode="t" horiz-adv-x="367" 
d="M-24 -213v1130h391v-1130h-391zM341 120l-54 17q-9 -50 -26.5 -68t-45.5 -18q-72 0 -72 89v249h174v56h-174v143h-70v-143h-72v-56h72v-258q0 -66 34 -103.5t100 -37.5q59 0 91.5 32.5t42.5 97.5z" />
    <glyph glyph-name="uni0075" unicode="u" horiz-adv-x="558" 
d="M-24 -213v1130h582v-1130h-582zM382 0h150v57h-80v388h-163v-57h93v-204q-2 -51 -39.5 -92.5t-92.5 -41.5q-107 0 -107 130v265h-148v-57h78v-228q0 -85 42.5 -127.5t111.5 -42.5q52 0 92.5 25.5t62.5 68.5v-84z" />
    <glyph glyph-name="uni0076" unicode="v" horiz-adv-x="505" 
d="M-24 -213v1130h529v-1130h-529zM422 388h64v57h-195v-57h61l-101 -293h-6l-114 293h67v57h-205v-57h62l160 -388h54z" />
    <glyph glyph-name="uni0077" unicode="w" horiz-adv-x="762" 
d="M-24 -213v1130h786v-1130h-786zM681 388h61v57h-200v-57h71l-72 -281h-5l-139 338h-47l-132 -338h-5l-83 281h75v57h-210v-57h59l126 -388h52l133 340h5l136 -340h54z" />
    <glyph glyph-name="uni0078" unicode="x" horiz-adv-x="511" 
d="M-24 -213v1130h535v-1130h-535zM288 0h196v57h-56l-143 169l139 162h52v57h-178v-57h53l-103 -126l-100 126h60v57h-203v-57h60l141 -166l-140 -165h-61v-57h185v57h-53l105 128l104 -128h-58v-57z" />
    <glyph glyph-name="uni0079" unicode="y" horiz-adv-x="507" 
d="M-24 -213v1130h531v-1130h-213v57h-76l60 156l157 388h53v57h-196v-57h72l-111 -299h-6l-125 299h78v57h-206v-57h53l162 -387l-58 -157h-83v-57h-92z" />
    <glyph glyph-name="uni007A" unicode="z" horiz-adv-x="461" 
d="M-24 -213v1130h485v-1130h-485zM25 0h374l24 138l-57 9l-23 -90h-229l282 346l-3 42h-358l-12 -139l56 -7l13 89h210l-280 -345z" />
    <glyph glyph-name="uni007B" unicode="{" horiz-adv-x="292" 
d="M-24 -213v1130h316v-1130h-316zM96 269q51 8 74.5 30.5t23.5 52.5t-43 132.5t-43 149.5q0 64 63 64h64v52h-64q-59 0 -91 -30.5t-32 -85.5q0 -54 42.5 -157t42.5 -127q0 -34 -32 -48t-66 -14h-19v-39h19q34 0 66 -14t32 -48q0 -25 -42.5 -123.5t-42.5 -152.5
q0 -53 31.5 -84.5t91.5 -31.5h64v52h-64q-63 0 -63 64q0 47 43 145.5t43 128.5t-24 53t-74 31z" />
    <glyph glyph-name="uni007C" unicode="|" horiz-adv-x="230" 
d="M-24 917h254v-1130h-254v1130zM71 730v-810h63v810h-63z" />
    <glyph glyph-name="uni007D" unicode="}" horiz-adv-x="292" 
d="M292 -212h-316v1130h316v-1130zM172 270q-50 -8 -74 -31t-24 -53t43 -128.5t43 -145.5q0 -64 -63 -64h-64v-52h64q60 0 91.5 31.5t31.5 84.5q0 54 -42.5 152.5t-42.5 123.5q0 34 32 48t66 14h19v39h-19q-34 0 -66 14t-32 48q0 25 42.5 127t42.5 157t-32 85.5t-91 30.5
h-64v-52h64q63 0 63 -64q0 -47 -43 -149.5t-43 -132.5t23.5 -52.5t74.5 -30.5z" />
    <glyph glyph-name="uni007E" unicode="~" horiz-adv-x="607" 
d="M-24 -213v1130h631v-1130h-631zM403 200q89 0 150 112l-46 30q-26 -44 -49 -60.5t-55 -16.5q-44 0 -113 35.5t-112 35.5q-90 0 -145 -102l42 -27q41 64 99 64q42 0 112 -35.5t117 -35.5z" />
    <glyph glyph-name="uni00A0" unicode="&#xa0;" horiz-adv-x="249" 
 />
    <glyph glyph-name="uni00A1" unicode="&#xa1;" horiz-adv-x="218" 
d="M-24 917h242v-1130h-242v1130zM50 350h90v97h-90v-97zM139 -209l-14 458h-54l-15 -458h83z" />
    <glyph glyph-name="uni00A2" unicode="&#xa2;" horiz-adv-x="472" 
d="M-24 917h496v-1130h-496v1130zM416 150l-59 13q-20 -100 -100 -110v339q41 -4 71 -24l17 -74l58 7l-17 107q-53 40 -129 45v76h-46v-76q-88 -9 -136.5 -77t-48.5 -160q0 -101 49.5 -160.5t135.5 -64.5v-75h46v76q70 8 110 52.5t49 105.5zM102 220q0 70 26 116.5t83 54.5
v-338q-109 17 -109 167z" />
    <glyph glyph-name="uni00A3" unicode="&#xa3;" horiz-adv-x="506" 
d="M-24 917h530v-1130h-530v1130zM446 83l-36 33q-43 -60 -112 -60h-190q38 24 51 66t13 113h179v46h-179v54q0 137 102 137q43 0 73 -17l18 -89l59 7l-17 117q-59 39 -142 39q-69 0 -116 -48.5t-47 -146.5v-53h-68v-46h68q0 -79 -15 -119.5t-58 -61.5v-54h284q50 0 84.5 27
t48.5 56z" />
    <glyph glyph-name="uni00A4" unicode="&#xa4;" horiz-adv-x="476" 
d="M-24 878h500v-1130h-500v1130zM76 282q0 -50 28 -89l-95 -95l30 -30l96 94q42 -32 92 -32q51 0 91 32l95 -94l31 30l-95 95q29 40 29 89q0 47 -29 86l95 94l-31 31l-94 -93q-42 32 -92 32q-53 0 -94 -33l-94 94l-30 -31l95 -94q-28 -37 -28 -86zM137 282q0 42 26.5 68
t64.5 26q37 0 62.5 -26.5t25.5 -67.5q0 -42 -25 -68t-63 -26t-64.5 26t-26.5 68z" />
    <glyph glyph-name="uni00A5" unicode="&#xa5;" horiz-adv-x="584" 
d="M-24 917h608v-1130h-608v1130zM538 521h-195v-56h73l-127 -206h-5l-132 206h71v56h-203v-56h53l142 -216h-104v-43h133l3 -5v-49h-136v-42h136v-54h-92v-56h259v56h-96v54h135v42h-135v46l5 8h130v43h-102l136 216h51v56z" />
    <glyph glyph-name="uni00A6" unicode="&#xa6;" horiz-adv-x="223" 
d="M-24 917h247v-1130h-247v1130zM68 730v-304h64v304h-64zM68 224v-304h64v304h-64z" />
    <glyph glyph-name="uni00A7" unicode="&#xa7;" horiz-adv-x="585" 
d="M-24 917h609v-1130h-609v1130zM489 137q0 40 -23 65q74 36 74 101q0 33 -17 56t-61.5 38t-66 20t-86.5 15q-19 3 -28 5q-44 8 -71.5 16.5t-47.5 27t-20 46.5q0 40 35 60t92 20q70 0 131 -27l11 -93l58 6l-8 127q-86 40 -196 40q-86 0 -140 -36.5t-54 -101.5q0 -48 34 -79
q-80 -32 -80 -97q0 -26 14.5 -46t35 -32.5t54 -22t61 -14t65.5 -9.5q38 -6 56 -9t43 -10t36 -15.5t19.5 -22.5t8.5 -33q0 -45 -37 -66.5t-93 -21.5q-92 0 -157 31l4 76l-58 6l-12 -110q42 -26 103.5 -41.5t118.5 -15.5q93 0 147.5 39t54.5 108zM472 293q0 -35 -48 -54
q-43 20 -143 35q-128 21 -158 36q-31 16 -31 44q0 40 54 60q39 -18 109 -29q11 -2 32 -5t33.5 -5.5t32 -6t32 -7t28 -8.5t24.5 -11t18 -13t13 -16t4 -20z" />
    <glyph glyph-name="uni00A8" unicode="&#xa8;" horiz-adv-x="228" 
d="M-24 640h81v-85h-81v85zM147 640h81v-85h-81v85z" />
    <glyph glyph-name="uni00A9" unicode="&#xa9;" horiz-adv-x="620" 
d="M-24 917h644v-1130h-644v1130zM566 260q0 112 -77.5 190.5t-189.5 78.5q-113 0 -191 -78.5t-78 -190.5t78.5 -189.5t189.5 -77.5t189.5 78t78.5 189zM523 260q0 -94 -65 -160t-160 -66q-97 0 -161 65.5t-64 160.5q0 96 64 161.5t162 65.5t161 -65.5t63 -161.5zM415 122
l9 65l-36 4l-10 -51q-26 -13 -70 -13q-59 0 -91.5 36t-32.5 99q0 62 32 99.5t86 37.5q45 0 79 -22l9 -50l36 4l-9 65q-45 38 -120 38q-69 0 -113.5 -49.5t-44.5 -123.5q0 -75 45.5 -122.5t117.5 -47.5q73 0 113 31z" />
    <glyph glyph-name="uni00AA" unicode="&#xaa;" horiz-adv-x="373" 
d="M-24 917h397v-1130h-397v1130zM163 662q61 0 61 -73v-24q-48 3 -56 3q-138 0 -138 -88q0 -42 28.5 -62t64.5 -20q65 0 101 61q2 -61 57 -61q24 0 43 11l-1 31q-7 -3 -18 -3q-23 0 -23 30v136q0 98 -112 98q-65 0 -110 -32l-10 -70l43 -4l13 52q30 15 57 15zM224 516
q-2 -35 -25.5 -56t-54.5 -21q-22 0 -37 12t-15 36q0 52 79 52q21 0 53 -4v-19z" />
    <glyph glyph-name="uni00AB" unicode="&#xab;" horiz-adv-x="447" 
d="M-24 917h471v-1130h-471v1130zM225 25l-129 246l129 240h-60l-138 -240l138 -246h60zM390 25l-129 246l129 240h-61l-138 -240l138 -246h61z" />
    <glyph glyph-name="uni00AC" unicode="&#xac;" horiz-adv-x="602" 
d="M-24 917h626v-1130h-626v1130zM477 99h52v209h-481v-52h429v-157z" />
    <glyph glyph-name="uni00AE" unicode="&#xae;" horiz-adv-x="586" 
d="M-24 917h610v-1130h-610v1130zM282 159q104 0 177.5 73t73.5 177q0 105 -72.5 178t-177.5 73t-178 -73.5t-73 -177.5q0 -105 73 -177.5t177 -72.5zM283 200q-90 0 -149.5 60.5t-59.5 148.5t59.5 149t149.5 61t148.5 -61t58.5 -149q0 -87 -59.5 -148t-147.5 -61zM163 277
h113v31h-38v85h57l62 -116h63v31h-37l-50 92q63 17 63 79q0 37 -26 58.5t-78 21.5h-129v-31h36v-220h-36v-31zM285 528q68 0 68 -50q0 -55 -68 -55h-47v105h47z" />
    <glyph glyph-name="uni00AF" unicode="&#xaf;" horiz-adv-x="220" 
d="M-24 564v57h244v-57h-244z" />
    <glyph glyph-name="uni00B0" unicode="&#xb0;" horiz-adv-x="392" 
d="M-24 917h416v-1130h-416v1130zM184 342q72 0 116 45.5t44 113.5t-43 113.5t-115 45.5q-71 0 -116 -46t-45 -114q0 -69 43.5 -113.5t115.5 -44.5zM184 395q-44 0 -72 28.5t-28 77.5q0 50 28 78t73 28q44 0 71.5 -28.5t27.5 -78.5q0 -49 -27.5 -77t-72.5 -28z" />
    <glyph glyph-name="uni00B1" unicode="&#xb1;" horiz-adv-x="448" 
d="M-24 917h472v-1130h-472v1130zM39 259h149v-146h53v146h145v54h-145v147h-53v-147h-149v-54zM39 0h347v53h-347v-53z" />
    <glyph glyph-name="uni00B2" unicode="&#xb2;" horiz-adv-x="344" 
d="M-24 917h368v-1130h-368v1130zM73 667l13 56q26 17 57 17q71 0 71 -57q0 -16 -5.5 -32.5t-19 -34.5t-25 -32t-34 -34t-35 -31t-39 -33t-36.5 -30l5 -41h272l10 94l-47 5l-10 -54h-156q5 4 30.5 24t40.5 33t39.5 36.5t38 42.5t24.5 44t11 48q0 41 -30 69t-90 28
q-76 0 -119 -37l-11 -76z" />
    <glyph glyph-name="uni00B3" unicode="&#xb3;" horiz-adv-x="338" 
d="M-24 917h362v-1130h-362v1130zM79 673l12 50q28 16 59 16q30 0 47 -14t17 -38q0 -59 -90 -64v-38q104 -3 104 -63q0 -30 -21 -49t-58 -19q-68 0 -84 63l-42 -12q7 -45 40 -71t84 -26q62 0 103 28t41 80q0 78 -89 91v2q73 22 73 86q0 41 -30 65t-81 24q-79 0 -120 -37
l-10 -69z" />
    <glyph glyph-name="uni00B4" unicode="&#xb4;" horiz-adv-x="170" 
d="M-2 520l-22 31l154 132l40 -59z" />
    <glyph glyph-name="uni00B5" unicode="&#xb5;" horiz-adv-x="568" 
d="M-24 917h592v-1130h-415v227q33 -24 83 -24q106 0 155 92v-82h150v57h-80v388h-162v-57h92v-212q0 -49 -38 -89t-94 -40q-106 0 -106 133v265h-148v-57h77v-601h-106v1130z" />
    <glyph glyph-name="uni00B6" unicode="&#xb6;" horiz-adv-x="613" 
d="M-24 917h637v-1130h-637v1130zM239 650q-108 0 -165.5 -47t-57.5 -119q0 -90 59 -132t158 -42h57v-310h68v588h63v-588h67v588h76v62h-325z" />
    <glyph glyph-name="uni00B7" unicode="&#xb7;" horiz-adv-x="215" 
d="M-24 917h239v-1130h-239v1130zM45 256h97v102h-97v-102z" />
    <glyph glyph-name="uni00B8" unicode="&#xb8;" horiz-adv-x="180" 
d="M180 -125q0 -42 -30.5 -63t-77.5 -21q-60 0 -96 30l17 41q30 -23 75 -23q51 0 51 41q0 40 -58 40h-30v86h52v-53h8q44 0 66.5 -21.5t22.5 -56.5z" />
    <glyph glyph-name="uni00B9" unicode="&#xb9;" horiz-adv-x="256" 
d="M-24 917h280v-1130h-280v1130zM21 734h75v-274h-75v-45h205v45h-72v319h-133v-45z" />
    <glyph glyph-name="uni00BA" unicode="&#xba;" horiz-adv-x="375" 
d="M-24 917h399v-1130h-399v1130zM24 547q0 -67 40.5 -108t108.5 -41q69 0 111.5 42.5t42.5 109.5q0 65 -39.5 108t-111.5 43t-112 -43.5t-40 -110.5zM86 551q0 47 23.5 75t65.5 28t65.5 -27.5t23.5 -75.5t-24 -77.5t-66 -29.5q-43 0 -65.5 30t-22.5 77z" />
    <glyph glyph-name="uni00BB" unicode="&#xbb;" horiz-adv-x="447" 
d="M-24 917h471v-1130h-471v1130zM258 25l138 246l-138 240h-60l129 -240l-129 -246h60zM94 25l138 246l-138 240h-60l128 -240l-128 -246h60z" />
    <glyph glyph-name="uni00BC" unicode="&#xbc;" horiz-adv-x="706" 
d="M-24 917h730v-1130h-730v1130zM499 650l-174 -313l-198 -337h54l182 325l190 325h-54zM29 605h75v-274h-75v-45h205v45h-71v319h-134v-45zM543 -1h57v90h58l4 44h-62v231h-113l-130 -232l6 -43h180v-90zM516 319h27v-186h-133z" />
    <glyph glyph-name="uni00BD" unicode="&#xbd;" horiz-adv-x="746" 
d="M-24 917h770v-1130h-770v1130zM26 605h76v-274h-76v-45h205v45h-71v319h-134v-45zM494 650l-175 -313l-197 -337h53l183 325l189 325h-53zM475 252l13 56q26 17 58 17q70 0 70 -57q0 -16 -5.5 -32.5t-19 -34.5t-25 -32t-34 -34t-35 -31t-39 -33t-36.5 -30l5 -41h272
l10 94l-47 5l-10 -54h-156q5 4 30.5 24t40.5 33t39.5 36.5t38 42.5t24.5 44t11 48q0 41 -30 69t-90 28q-76 0 -119 -37l-11 -76z" />
    <glyph glyph-name="uni00BE" unicode="&#xbe;" horiz-adv-x="730" 
d="M-24 917h754v-1130h-754v1130zM83 549l11 50q28 16 60 16q30 0 46.5 -14t16.5 -38q0 -60 -89 -64v-38q104 -3 104 -63q0 -30 -21 -49t-58 -19q-68 0 -84 63l-42 -12q6 -45 39.5 -71t84.5 -26q62 0 103 28t41 80q0 78 -90 91v2q74 22 74 86q0 40 -30.5 64.5t-80.5 24.5
q-78 0 -121 -37l-9 -69zM527 650l-175 -313l-197 -337h54l182 325l190 325h-54zM569 -1h58v90h57l5 44h-62v231h-113l-131 -232l6 -43h180v-90zM542 319h27v-186h-133z" />
    <glyph glyph-name="uni00BF" unicode="&#xbf;" horiz-adv-x="437" 
d="M437 -213h-461v1130h461v-1130zM263 446h-89v-97h89v97zM324 -11l-13 -97q-46 -38 -108 -38q-53 0 -82 22t-29 58q0 29 20.5 54.5t50 45t59.5 40t50.5 48t20.5 60.5q0 42 -31.5 65.5t-96.5 19.5v-50q53 0 53 -40q0 -24 -21 -46.5t-51 -42.5t-60 -42t-51 -53.5t-21 -68.5
q0 -61 52.5 -98t131.5 -37q49 0 96.5 21t79.5 53l8 121z" />
    <glyph glyph-name="uni00C0" unicode="&#xc0;" 
d="M-24 917h646v-853h-79l-213 586h-186v-64h104l-193 -522h-79v853zM334 703l10 37l-191 73l-17 -68zM304 544l106 -298h-219l108 298h5zM622 -213h-646v213h228v64h-80l46 125h260l44 -125h-77v-64h225v-213z" />
    <glyph glyph-name="uni00C1" unicode="&#xc1;" 
d="M-24 917h646v-853h-79l-213 586h-186v-64h104l-193 -522h-79v853zM260 703l197 42l-17 68l-191 -73zM304 544l106 -298h-219l108 298h5zM622 -213h-646v213h228v64h-80l46 125h260l44 -125h-77v-64h225v-213z" />
    <glyph glyph-name="uni00C2" unicode="&#xc2;" 
d="M-24 917h646v-853h-79l-213 586h-186v-64h104l-193 -522h-79v853zM414 702l19 35l-126 90h-21l-127 -93l19 -33l116 63zM304 544l106 -298h-219l108 298h5zM622 -213h-646v213h228v64h-80l46 125h260l44 -125h-77v-64h225v-213z" />
    <glyph glyph-name="uni00C3" unicode="&#xc3;" 
d="M-24 917h646v-853h-79l-213 586h-186v-64h104l-193 -522h-79v853zM430 798l-36 9q-12 -42 -47 -42q-25 0 -61 17.5t-58 17.5q-35 0 -56.5 -25.5t-25.5 -56.5l33 -13q12 39 50 39q18 0 57 -17.5t66 -17.5q62 0 78 89zM304 544l106 -298h-219l108 298h5zM622 -213h-646v213
h228v64h-80l46 125h260l44 -125h-77v-64h225v-213z" />
    <glyph glyph-name="uni00C4" unicode="&#xc4;" 
d="M-24 917h646v-853h-79l-213 586h-186v-64h104l-193 -522h-79v853zM171 803v-85h81v85h-81zM343 803v-85h80v85h-80zM304 544l106 -298h-219l108 298h5zM622 -213h-646v213h228v64h-80l46 125h260l44 -125h-77v-64h225v-213z" />
    <glyph glyph-name="uni00C5" unicode="&#xc5;" 
d="M-24 917h646v-853h-79l-213 586h-186v-64h104l-193 -522h-79v853zM394 784q0 41 -24.5 65.5t-73.5 24.5q-47 0 -73 -25t-26 -67q0 -44 25 -68t73 -24t73.5 25.5t25.5 68.5zM345 784q0 -54 -50 -54q-49 0 -49 52t49 52q50 0 50 -50zM304 544l106 -298h-219l108 298h5z
M622 -213h-646v213h228v64h-80l46 125h260l44 -125h-77v-64h225v-213z" />
    <glyph glyph-name="uni00C6" unicode="&#xc6;" horiz-adv-x="912" 
d="M300 586l-258 -522h-66v853h936v-1130h-936v213h229v64h-90l62 125h259v-125h-81v-64h483l19 184l-64 7l-20 -127h-263v234h306v64h-306v224h254l20 -127l64 8l-19 183h-626v-64h97zM436 586v-340h-232l166 340h66z" />
    <glyph glyph-name="uni00C7" unicode="&#xc7;" horiz-adv-x="642" 
d="M-24 -213v1130h666v-1130h-666zM450 -125q0 35 -22.5 56.5t-66.5 21.5h-8v37q137 3 208 60l17 125l-62 6l-19 -96q-58 -29 -143 -29q-115 0 -183 73t-68 195q0 119 66 194.5t172 75.5q92 0 161 -46l18 -95l63 6l-18 125q-90 76 -230 76q-138 0 -223.5 -99.5t-85.5 -239.5
q0 -131 75.5 -222t198.5 -106v-73h30q58 0 58 -40q0 -41 -51 -41q-44 0 -74 23l-17 -41q34 -30 96 -30q47 0 77.5 21t30.5 63z" />
    <glyph glyph-name="uni00C8" unicode="&#xc8;" horiz-adv-x="584" 
d="M-24 -213v1130h608v-1130h-608zM373 703l10 37l-191 73l-17 -68zM28 0h484l19 184l-63 7l-20 -127h-265v234h307v64h-307v224h256l20 -127l64 7l-20 184h-475v-64h82v-522h-82v-64z" />
    <glyph glyph-name="uni00C9" unicode="&#xc9;" horiz-adv-x="584" 
d="M-24 -213v1130h608v-1130h-608zM254 703l197 42l-17 68l-191 -73zM28 0h484l19 184l-63 7l-20 -127h-265v234h307v64h-307v224h256l20 -127l64 7l-20 184h-475v-64h82v-522h-82v-64z" />
    <glyph glyph-name="uni00CA" unicode="&#xca;" horiz-adv-x="584" 
d="M-24 -213v1130h608v-1130h-608zM435 702l19 35l-126 90h-21l-127 -93l19 -33l116 63zM28 0h484l19 184l-63 7l-20 -127h-265v234h307v64h-307v224h256l20 -127l64 7l-20 184h-475v-64h82v-522h-82v-64z" />
    <glyph glyph-name="uni00CB" unicode="&#xcb;" horiz-adv-x="584" 
d="M-24 -213v1130h608v-1130h-608zM182 803v-85h81v85h-81zM354 803v-85h80v85h-80zM28 0h484l19 184l-63 7l-20 -127h-265v234h307v64h-307v224h256l20 -127l64 7l-20 184h-475v-64h82v-522h-82v-64z" />
    <glyph glyph-name="uni00CC" unicode="&#xcc;" horiz-adv-x="318" 
d="M-24 -213v1130h342v-1130h-342zM222 703l10 37l-191 73l-17 -68zM28 0h237v64h-81v522h81v64h-237v-64h82v-522h-82v-64z" />
    <glyph glyph-name="uni00CD" unicode="&#xcd;" horiz-adv-x="318" 
d="M-24 -213v1130h342v-1130h-342zM72 703l197 42l-17 68l-191 -73zM28 0h237v64h-81v522h81v64h-237v-64h82v-522h-82v-64z" />
    <glyph glyph-name="uni00CE" unicode="&#xce;" horiz-adv-x="318" 
d="M-24 -213v1130h342v-1130h-342zM266 702l19 35l-126 90h-21l-127 -93l19 -33l116 63zM28 0h237v64h-81v522h81v64h-237v-64h82v-522h-82v-64z" />
    <glyph glyph-name="uni00CF" unicode="&#xcf;" horiz-adv-x="318" 
d="M-24 -213v1130h342v-1130h-342zM24 803v-85h81v85h-81zM196 803v-85h80v85h-80zM28 0h237v64h-81v522h81v64h-237v-64h82v-522h-82v-64z" />
    <glyph glyph-name="uni00D0" unicode="&#xd0;" horiz-adv-x="701" 
d="M-24 -213v1130h725v-1130h-725zM651 326q0 144 -88 234t-244 90h-291v-63h82v-217h-79v-62h79v-245h-82v-63h294q152 0 240.5 90.5t88.5 235.5zM573 325q0 -122 -66.5 -192t-188.5 -70h-135v245h135v62h-135v217h135q122 0 188.5 -71t66.5 -191z" />
    <glyph glyph-name="uni00D1" unicode="&#xd1;" horiz-adv-x="733" 
d="M-24 -213v1130h757v-1130h-757zM492 798l-36 9q-12 -42 -47 -42q-24 0 -60.5 17.5t-58.5 17.5q-35 0 -56.5 -25.5t-25.5 -56.5l33 -13q12 39 50 39q18 0 57 -17.5t66 -17.5q62 0 78 89zM608 586h81v64h-249v-64h98v-437h-4l-370 501h-140v-64h86v-522h-75v-64h248v64
h-103v448h4l377 -512h47v586z" />
    <glyph glyph-name="uni00D2" unicode="&#xd2;" horiz-adv-x="725" 
d="M-24 -213v1130h749v-1130h-749zM409 703l10 37l-191 73l-17 -68zM676 325q0 141 -91 238t-235 97q-142 0 -233.5 -96.5t-91.5 -238.5q0 -141 89.5 -238t233.5 -97t236 97t92 238zM597 324q0 -116 -66.5 -192t-178.5 -76q-115 0 -181.5 77.5t-66.5 192.5t66.5 191.5
t179.5 76.5q112 0 179.5 -75.5t67.5 -194.5z" />
    <glyph glyph-name="uni00D3" unicode="&#xd3;" horiz-adv-x="725" 
d="M-24 -213v1130h749v-1130h-749zM307 703l197 42l-17 68l-191 -73zM676 325q0 141 -91 238t-235 97q-142 0 -233.5 -96.5t-91.5 -238.5q0 -141 89.5 -238t233.5 -97t236 97t92 238zM597 324q0 -116 -66.5 -192t-178.5 -76q-115 0 -181.5 77.5t-66.5 192.5t66.5 191.5
t179.5 76.5q112 0 179.5 -75.5t67.5 -194.5z" />
    <glyph glyph-name="uni00D4" unicode="&#xd4;" horiz-adv-x="725" 
d="M-24 -213v1130h749v-1130h-749zM471 702l19 35l-126 90h-21l-127 -93l19 -33l116 63zM676 325q0 141 -91 238t-235 97q-142 0 -233.5 -96.5t-91.5 -238.5q0 -141 89.5 -238t233.5 -97t236 97t92 238zM597 324q0 -116 -66.5 -192t-178.5 -76q-115 0 -181.5 77.5
t-66.5 192.5t66.5 191.5t179.5 76.5q112 0 179.5 -75.5t67.5 -194.5z" />
    <glyph glyph-name="uni00D5" unicode="&#xd5;" horiz-adv-x="725" 
d="M-24 -213v1130h749v-1130h-749zM497 798l-36 9q-12 -42 -47 -42q-24 0 -61 17.5t-58 17.5q-35 0 -56.5 -25.5t-25.5 -56.5l33 -13q12 39 50 39q18 0 57 -17.5t66 -17.5q62 0 78 89zM676 325q0 141 -91 238t-235 97q-142 0 -233.5 -96.5t-91.5 -238.5q0 -141 89.5 -238
t233.5 -97t236 97t92 238zM597 324q0 -116 -66.5 -192t-178.5 -76q-115 0 -181.5 77.5t-66.5 192.5t66.5 191.5t179.5 76.5q112 0 179.5 -75.5t67.5 -194.5z" />
    <glyph glyph-name="uni00D6" unicode="&#xd6;" horiz-adv-x="725" 
d="M-24 -213v1130h749v-1130h-749zM227 803v-85h81v85h-81zM399 803v-85h80v85h-80zM676 325q0 141 -91 238t-235 97q-142 0 -233.5 -96.5t-91.5 -238.5q0 -141 89.5 -238t233.5 -97t236 97t92 238zM597 324q0 -116 -66.5 -192t-178.5 -76q-115 0 -181.5 77.5t-66.5 192.5
t66.5 191.5t179.5 76.5q112 0 179.5 -75.5t67.5 -194.5z" />
    <glyph glyph-name="uni00D7" unicode="&#xd7;" horiz-adv-x="385" 
d="M-24 917h409v-1130h-409v1130zM75 131l105 106l104 -104l37 39l-103 102l102 103l-37 38l-103 -103l-104 105l-37 -38l104 -105l-105 -105z" />
    <glyph glyph-name="uni00D8" unicode="&#xd8;" horiz-adv-x="725" 
d="M-24 -213v1130h749v-1130h-749zM676 325q0 135 -84 230l85 95h-79l-50 -56q-85 66 -198 66q-142 0 -233.5 -96.5t-91.5 -238.5q0 -139 83 -231l-83 -94h73l50 56q85 -66 200 -66q144 0 236 97t92 238zM350 594q90 0 153 -52l-346 -391q-53 73 -53 175q0 115 66.5 191.5
t179.5 76.5zM597 324q0 -116 -66.5 -192t-178.5 -76q-95 0 -157 53l349 390q53 -72 53 -175z" />
    <glyph glyph-name="uni00D9" unicode="&#xd9;" horiz-adv-x="714" 
d="M-24 -213v1130h738v-1130h-738zM423 703l10 37l-191 73l-17 -68zM603 586h63v64h-225v-64h93v-319q0 -104 -48 -157.5t-139 -53.5q-92 0 -138 52t-46 150v328h90v64h-231v-64h67v-330q0 -55 13 -101t41 -84t79 -59.5t121 -21.5q72 0 124.5 23.5t81 64t41.5 87.5t13 102
v319z" />
    <glyph glyph-name="uni00DA" unicode="&#xda;" horiz-adv-x="714" 
d="M-24 -213v1130h738v-1130h-738zM299 703l197 42l-17 68l-191 -73zM603 586h63v64h-225v-64h93v-319q0 -104 -48 -157.5t-139 -53.5q-92 0 -138 52t-46 150v328h90v64h-231v-64h67v-330q0 -55 13 -101t41 -84t79 -59.5t121 -21.5q72 0 124.5 23.5t81 64t41.5 87.5t13 102
v319z" />
    <glyph glyph-name="uni00DB" unicode="&#xdb;" horiz-adv-x="714" 
d="M-24 -213v1130h738v-1130h-738zM464 702l19 35l-126 90h-21l-127 -93l19 -33l116 63zM603 586h63v64h-225v-64h93v-319q0 -104 -48 -157.5t-139 -53.5q-92 0 -138 52t-46 150v328h90v64h-231v-64h67v-330q0 -55 13 -101t41 -84t79 -59.5t121 -21.5q72 0 124.5 23.5t81 64
t41.5 87.5t13 102v319z" />
    <glyph glyph-name="uni00DC" unicode="&#xdc;" horiz-adv-x="714" 
d="M-24 -213v1130h738v-1130h-738zM223 803v-85h81v85h-81zM395 803v-85h80v85h-80zM603 586h63v64h-225v-64h93v-319q0 -104 -48 -157.5t-139 -53.5q-92 0 -138 52t-46 150v328h90v64h-231v-64h67v-330q0 -55 13 -101t41 -84t79 -59.5t121 -21.5q72 0 124.5 23.5t81 64
t41.5 87.5t13 102v319z" />
    <glyph glyph-name="uni00DD" unicode="&#xdd;" horiz-adv-x="570" 
d="M220 586v64h-244v267h594v-267h-240v-64h89l-138 -270h-5l-145 270h89zM214 703l197 42l-17 68l-191 -73zM570 -213h-594v799h72l190 -337v-185h-111v-64h299v64h-115v184l182 338h77v-799z" />
    <glyph glyph-name="uni00DE" unicode="&#xde;" horiz-adv-x="568" 
d="M-24 -213v1130h592v-1130h-592zM28 0h237v64h-81v75h131q99 0 159.5 52.5t60.5 148.5q0 83 -56 134t-170 51h-125v61h81v64h-237v-64h82v-522h-82v-64zM305 194h-121v277h119q154 0 154 -133q0 -69 -39 -106.5t-113 -37.5z" />
    <glyph glyph-name="uni00DF" unicode="&#xdf;" horiz-adv-x="648" 
d="M-24 917h672v-1130h-672v1130zM619 128q0 49 -28.5 78t-69 39t-81 16.5t-69 22t-28.5 44.5q0 28 22 49t53 36t62 31.5t53 44t22 65.5q0 64 -57.5 104t-160.5 40q-117 0 -182.5 -55.5t-65.5 -151.5v-46h-64v-57h64v-331h-77v-57h148v486q0 153 172 153q71 0 111.5 -23.5
t40.5 -65.5q0 -30 -22.5 -52t-54 -36.5t-63.5 -30t-54.5 -44t-22.5 -67.5q0 -45 29 -70.5t70 -34.5t82 -16t70 -25t29 -52q0 -36 -32 -55t-81 -19q-72 0 -107 25l3 56l-57 6l-13 -101q28 -20 78 -32t101 -12q78 0 129 37t51 101z" />
    <glyph glyph-name="uni00E0" unicode="&#xe0;" horiz-adv-x="479" 
d="M-24 -213v1130h503v-1130h-503zM260 520l21 31l-154 132l-40 -59zM67 411l-16 -103l58 -7l17 77q37 18 86 18q56 0 78.5 -28t22.5 -80v-40q-48 4 -79 4q-208 0 -208 -137q0 -65 41 -95t94 -30q51 0 90 26t62 66v-2q1 -42 22 -66t59 -24q31 0 58 15l-1 46q-13 -6 -30 -6
q-38 0 -38 48v212q0 149 -159 149q-93 0 -157 -43zM313 167q-4 -53 -43 -86t-88 -33q-34 0 -58.5 18t-24.5 57q0 83 131 83q20 0 83 -5v-34z" />
    <glyph glyph-name="uni00E1" unicode="&#xe1;" horiz-adv-x="479" 
d="M-24 -213v1130h503v-1130h-503zM191 520l172 104l-40 59l-154 -132zM67 411l-16 -103l58 -7l17 77q37 18 86 18q56 0 78.5 -28t22.5 -80v-40q-48 4 -79 4q-208 0 -208 -137q0 -65 41 -95t94 -30q51 0 90 26t62 66v-2q1 -42 22 -66t59 -24q31 0 58 15l-1 46q-13 -6 -30 -6
q-38 0 -38 48v212q0 149 -159 149q-93 0 -157 -43zM313 167q-4 -53 -43 -86t-88 -33q-34 0 -58.5 18t-24.5 57q0 83 131 83q20 0 83 -5v-34z" />
    <glyph glyph-name="uni00E2" unicode="&#xe2;" horiz-adv-x="479" 
d="M-24 -213v1130h503v-1130h-503zM326 519l27 34l-121 118h-22l-121 -120l25 -32l101 84zM67 411l-16 -103l58 -7l17 77q37 18 86 18q56 0 78.5 -28t22.5 -80v-40q-48 4 -79 4q-208 0 -208 -137q0 -65 41 -95t94 -30q51 0 90 26t62 66v-2q1 -42 22 -66t59 -24q31 0 58 15
l-1 46q-13 -6 -30 -6q-38 0 -38 48v212q0 149 -159 149q-93 0 -157 -43zM313 167q-4 -53 -43 -86t-88 -33q-34 0 -58.5 18t-24.5 57q0 83 131 83q20 0 83 -5v-34z" />
    <glyph glyph-name="uni00E3" unicode="&#xe3;" horiz-adv-x="479" 
d="M-24 -213v1130h503v-1130h-503zM356 646l-36 9q-13 -43 -47 -43q-24 0 -61 18.5t-59 18.5q-35 0 -55.5 -28t-25.5 -60l33 -12q13 43 51 43q17 0 56 -19.5t67 -19.5q61 0 77 93zM67 411l-16 -103l58 -7l17 77q37 18 86 18q56 0 78.5 -28t22.5 -80v-40q-48 4 -79 4
q-208 0 -208 -137q0 -65 41 -95t94 -30q51 0 90 26t62 66v-2q1 -42 22 -66t59 -24q31 0 58 15l-1 46q-13 -6 -30 -6q-38 0 -38 48v212q0 149 -159 149q-93 0 -157 -43zM313 167q-4 -53 -43 -86t-88 -33q-34 0 -58.5 18t-24.5 57q0 83 131 83q20 0 83 -5v-34z" />
    <glyph glyph-name="uni00E4" unicode="&#xe4;" horiz-adv-x="479" 
d="M-24 -213v1130h503v-1130h-503zM265 640v-85h81v85h-81zM94 640v-85h81v85h-81zM67 411l-16 -103l58 -7l17 77q37 18 86 18q56 0 78.5 -28t22.5 -80v-40q-48 4 -79 4q-208 0 -208 -137q0 -65 41 -95t94 -30q51 0 90 26t62 66v-2q1 -42 22 -66t59 -24q31 0 58 15l-1 46
q-13 -6 -30 -6q-38 0 -38 48v212q0 149 -159 149q-93 0 -157 -43zM313 167q-4 -53 -43 -86t-88 -33q-34 0 -58.5 18t-24.5 57q0 83 131 83q20 0 83 -5v-34z" />
    <glyph glyph-name="uni00E5" unicode="&#xe5;" horiz-adv-x="479" 
d="M-24 -213v1130h503v-1130h-503zM320 607q0 42 -24.5 66.5t-73.5 24.5q-46 0 -72.5 -25.5t-26.5 -66.5q0 -44 25 -68t73 -24t73.5 25.5t25.5 67.5zM271 608q0 -24 -12.5 -39t-37.5 -15q-49 0 -49 52q0 23 12.5 37.5t36.5 14.5q50 0 50 -50zM67 411l-16 -103l58 -7l17 77
q37 18 86 18q56 0 78.5 -28t22.5 -80v-40q-48 4 -79 4q-208 0 -208 -137q0 -65 41 -95t94 -30q51 0 90 26t62 66v-2q1 -42 22 -66t59 -24q31 0 58 15l-1 46q-13 -6 -30 -6q-38 0 -38 48v212q0 149 -159 149q-93 0 -157 -43zM313 167q-4 -53 -43 -86t-88 -33q-34 0 -58.5 18
t-24.5 57q0 83 131 83q20 0 83 -5v-34z" />
    <glyph glyph-name="uni00E6" unicode="&#xe6;" horiz-adv-x="755" 
d="M-24 -213v1130h779v-1130h-779zM710 128l-59 13q-23 -90 -122 -90q-66 0 -102 40t-39 115h312q6 27 6 53q0 83 -50 139t-139 56q-94 0 -152 -72q-34 72 -132 72q-101 0 -165 -43l-17 -103l58 -7l18 77q37 18 90 18q97 0 97 -108v-40q-48 4 -78 4q-211 0 -211 -137
q0 -65 42.5 -95t97.5 -30q110 0 175 105q51 -105 183 -105q79 0 128.5 39t58.5 99zM632 257h-243q7 62 37.5 100t88.5 38q62 0 92.5 -42t24.5 -96zM100 123q0 83 133 83q19 0 81 -5v-33q-3 -53 -42.5 -86.5t-88.5 -33.5q-34 0 -58.5 18t-24.5 57z" />
    <glyph glyph-name="uni00E7" unicode="&#xe7;" horiz-adv-x="457" 
d="M-24 -213v1130h481v-1130h-481zM347 -128q0 34 -22.5 56t-66.5 22h-8v41q73 6 113.5 51.5t50.5 107.5l-60 13q-20 -113 -120 -113q-66 0 -101 44.5t-35 125.5q0 78 32.5 126t100.5 48q55 0 95 -25l17 -75l58 7l-17 107q-61 46 -152 46q-98 0 -153 -69.5t-55 -168.5
q0 -97 46 -156t127 -68v-76h30q58 0 58 -40q0 -41 -51 -41q-43 0 -74 23l-18 -40q34 -30 97 -30q47 0 77.5 21t30.5 63z" />
    <glyph glyph-name="uni00E8" unicode="&#xe8;" horiz-adv-x="466" 
d="M-24 -213v1130h490v-1130h-490zM268 520l21 31l-154 132l-40 -59zM421 128l-59 13q-23 -91 -123 -91q-66 0 -102 40.5t-39 115.5h313q6 27 6 53q-1 83 -51 139t-138 56q-93 0 -148.5 -66.5t-55.5 -171.5q0 -106 57 -166t153 -60q79 0 128.5 39t58.5 99zM343 258h-244
q7 62 38 100t89 38q61 0 92 -42t25 -96z" />
    <glyph glyph-name="uni00E9" unicode="&#xe9;" horiz-adv-x="466" 
d="M-24 -213v1130h490v-1130h-490zM211 520l172 104l-40 59l-154 -132zM421 128l-59 13q-23 -91 -123 -91q-66 0 -102 40.5t-39 115.5h313q6 27 6 53q-1 83 -51 139t-138 56q-93 0 -148.5 -66.5t-55.5 -171.5q0 -106 57 -166t153 -60q79 0 128.5 39t58.5 99zM343 258h-244
q7 62 38 100t89 38q61 0 92 -42t25 -96z" />
    <glyph glyph-name="uni00EA" unicode="&#xea;" horiz-adv-x="466" 
d="M-24 -213v1130h490v-1130h-490zM339 519l27 34l-121 118h-22l-121 -120l25 -32l101 84zM421 128l-59 13q-23 -91 -123 -91q-66 0 -102 40.5t-39 115.5h313q6 27 6 53q-1 83 -51 139t-138 56q-93 0 -148.5 -66.5t-55.5 -171.5q0 -106 57 -166t153 -60q79 0 128.5 39
t58.5 99zM343 258h-244q7 62 38 100t89 38q61 0 92 -42t25 -96z" />
    <glyph glyph-name="uni00EB" unicode="&#xeb;" horiz-adv-x="466" 
d="M-24 -213v1130h490v-1130h-490zM107 640v-85h81v85h-81zM278 640v-85h81v85h-81zM421 128l-59 13q-23 -91 -123 -91q-66 0 -102 40.5t-39 115.5h313q6 27 6 53q-1 83 -51 139t-138 56q-93 0 -148.5 -66.5t-55.5 -171.5q0 -106 57 -166t153 -60q79 0 128.5 39t58.5 99z
M343 258h-244q7 62 38 100t89 38q61 0 92 -42t25 -96z" />
    <glyph glyph-name="uni00EC" unicode="&#xec;" horiz-adv-x="277" 
d="M-24 -213v1130h301v-1130h-301zM156 520l21 31l-154 132l-40 -59zM20 0h226v57h-78v388h-150v-57h80v-331h-78v-57z" />
    <glyph glyph-name="uni00ED" unicode="&#xed;" horiz-adv-x="277" 
d="M-24 -213v1130h301v-1130h-301zM55 520l172 104l-40 59l-154 -132zM20 0h226v57h-78v388h-150v-57h80v-331h-78v-57z" />
    <glyph glyph-name="uni00EE" unicode="&#xee;" horiz-adv-x="277" 
d="M-24 -213v1130h301v-1130h-301zM228 518l26 34l-119 117h-22l-120 -119l25 -32l100 84zM20 0h226v57h-78v388h-150v-57h80v-331h-78v-57z" />
    <glyph glyph-name="uni00EF" unicode="&#xef;" horiz-adv-x="277" 
d="M-24 -213v1130h301v-1130h-301zM-8 638v-84h80v84h-80zM160 638v-84h80v84h-80zM20 0h226v57h-78v388h-150v-57h80v-331h-78v-57z" />
    <glyph glyph-name="uni00F0" unicode="&#xf0;" horiz-adv-x="520" 
d="M-24 -213v1130h544v-1130h-544zM183 498l56 69q89 -75 121 -164q-51 51 -126 51q-94 0 -152.5 -66.5t-58.5 -168.5t58 -165.5t158 -63.5q101 0 161.5 65t60.5 168v34q0 208 -183 357l48 60l-39 27l-49 -58q-37 27 -89 55l-29 -52q56 -33 80 -51l-57 -69zM242 51
q-69 0 -106.5 48.5t-37.5 123.5q0 76 37 123t103 47q63 0 104 -42t44 -89v-42q0 -75 -38 -122t-106 -47z" />
    <glyph glyph-name="uni00F1" unicode="&#xf1;" horiz-adv-x="570" 
d="M-24 -213v1130h594v-1130h-594zM420 646l-36 9q-13 -43 -47 -43q-24 0 -61 18.5t-59 18.5q-35 0 -55.5 -28t-25.5 -60l33 -12q13 43 51 43q17 0 56 -19.5t67 -19.5q61 0 77 93zM325 0h225v57h-77v228q0 85 -42 127t-111 42q-108 0 -156 -88v79h-150v-57h80v-331h-78v-57
h226v57h-78v208q2 53 39.5 91.5t95.5 38.5q103 0 103 -131v-207h-77v-57z" />
    <glyph glyph-name="uni00F2" unicode="&#xf2;" horiz-adv-x="509" 
d="M-24 -213v1130h533v-1130h-533zM282 520l21 31l-154 132l-40 -59zM243 455q-104 0 -162 -67t-58 -169t58 -165.5t158 -63.5q101 0 162 65t61 168q0 100 -57.5 166t-161.5 66zM241 50q-69 0 -107 48.5t-38 124.5t38.5 124t106.5 48q69 0 108 -46.5t39 -124.5
q0 -77 -39 -125.5t-108 -48.5z" />
    <glyph glyph-name="uni00F3" unicode="&#xf3;" horiz-adv-x="509" 
d="M-24 -213v1130h533v-1130h-533zM225 520l172 104l-40 59l-154 -132zM243 455q-104 0 -162 -67t-58 -169t58 -165.5t158 -63.5q101 0 162 65t61 168q0 100 -57.5 166t-161.5 66zM241 50q-69 0 -107 48.5t-38 124.5t38.5 124t106.5 48q69 0 108 -46.5t39 -124.5
q0 -77 -39 -125.5t-108 -48.5z" />
    <glyph glyph-name="uni00F4" unicode="&#xf4;" horiz-adv-x="509" 
d="M-24 -213v1130h533v-1130h-533zM351 519l27 34l-121 118h-22l-121 -120l25 -32l101 84zM243 455q-104 0 -162 -67t-58 -169t58 -165.5t158 -63.5q101 0 162 65t61 168q0 100 -57.5 166t-161.5 66zM241 50q-69 0 -107 48.5t-38 124.5t38.5 124t106.5 48q69 0 108 -46.5
t39 -124.5q0 -77 -39 -125.5t-108 -48.5z" />
    <glyph glyph-name="uni00F5" unicode="&#xf5;" horiz-adv-x="509" 
d="M-24 -213v1130h533v-1130h-533zM382 646l-36 9q-13 -43 -47 -43q-24 0 -61 18.5t-59 18.5q-35 0 -55.5 -28t-25.5 -60l33 -12q13 43 51 43q17 0 56 -19.5t67 -19.5q61 0 77 93zM243 455q-104 0 -162 -67t-58 -169t58 -165.5t158 -63.5q101 0 162 65t61 168
q0 100 -57.5 166t-161.5 66zM241 50q-69 0 -107 48.5t-38 124.5t38.5 124t106.5 48q69 0 108 -46.5t39 -124.5q0 -77 -39 -125.5t-108 -48.5z" />
    <glyph glyph-name="uni00F6" unicode="&#xf6;" horiz-adv-x="509" 
d="M-24 -213v1130h533v-1130h-533zM117 640v-85h81v85h-81zM288 640v-85h81v85h-81zM243 455q-104 0 -162 -67t-58 -169t58 -165.5t158 -63.5q101 0 162 65t61 168q0 100 -57.5 166t-161.5 66zM241 50q-69 0 -107 48.5t-38 124.5t38.5 124t106.5 48q69 0 108 -46.5
t39 -124.5q0 -77 -39 -125.5t-108 -48.5z" />
    <glyph glyph-name="uni00F7" unicode="&#xf7;" horiz-adv-x="444" 
d="M-24 917h468v-1130h-468v1130zM159 374h97v103h-97v-103zM383 254v54h-347v-54h347zM159 86h97v103h-97v-103z" />
    <glyph glyph-name="uni00F8" unicode="&#xf8;" horiz-adv-x="509" 
d="M-24 -213v1130h533v-1130h-533zM464 223q0 96 -53 160l53 62h-62l-26 -31q-54 40 -131 40q-105 0 -163 -66.5t-58 -168.5q0 -94 52 -159l-52 -60h61l24 29q55 -39 131 -39q102 0 163 65t61 168zM99 223q0 76 38 123t106 47q53 0 89 -30l-207 -245q-26 43 -26 105z
M388 224q0 -77 -38 -125t-107 -48q-53 0 -89 30l209 246q25 -41 25 -103z" />
    <glyph glyph-name="uni00F9" unicode="&#xf9;" horiz-adv-x="558" 
d="M-24 -213v1130h582v-1130h-582zM275 520l21 31l-154 132l-40 -59zM382 0h150v57h-80v388h-163v-57h93v-204q-2 -51 -39.5 -92.5t-92.5 -41.5q-107 0 -107 130v265h-148v-57h78v-228q0 -85 42.5 -127.5t111.5 -42.5q52 0 92.5 25.5t62.5 68.5v-84z" />
    <glyph glyph-name="uni00FA" unicode="&#xfa;" horiz-adv-x="558" 
d="M-24 -213v1130h582v-1130h-582zM235 520l172 104l-40 59l-154 -132zM382 0h150v57h-80v388h-163v-57h93v-204q-2 -51 -39.5 -92.5t-92.5 -41.5q-107 0 -107 130v265h-148v-57h78v-228q0 -85 42.5 -127.5t111.5 -42.5q52 0 92.5 25.5t62.5 68.5v-84z" />
    <glyph glyph-name="uni00FB" unicode="&#xfb;" horiz-adv-x="558" 
d="M-24 -213v1130h582v-1130h-582zM360 519l27 34l-121 118h-22l-121 -120l25 -32l101 84zM382 0h150v57h-80v388h-163v-57h93v-204q-2 -51 -39.5 -92.5t-92.5 -41.5q-107 0 -107 130v265h-148v-57h78v-228q0 -85 42.5 -127.5t111.5 -42.5q52 0 92.5 25.5t62.5 68.5v-84z
" />
    <glyph glyph-name="uni00FC" unicode="&#xfc;" horiz-adv-x="558" 
d="M-24 -213v1130h582v-1130h-582zM119 640v-85h81v85h-81zM290 640v-85h81v85h-81zM382 0h150v57h-80v388h-163v-57h93v-204q-2 -51 -39.5 -92.5t-92.5 -41.5q-107 0 -107 130v265h-148v-57h78v-228q0 -85 42.5 -127.5t111.5 -42.5q52 0 92.5 25.5t62.5 68.5v-84z" />
    <glyph glyph-name="uni00FD" unicode="&#xfd;" horiz-adv-x="507" 
d="M-24 -213v1130h531v-1130h-213v57h-76l60 156l157 388h53v57h-196v-57h72l-111 -299h-6l-125 299h78v57h-206v-57h53l162 -387l-58 -157h-83v-57h-92zM219 520l172 104l-40 59l-154 -132z" />
    <glyph glyph-name="uni00FE" unicode="&#xfe;" horiz-adv-x="520" 
d="M123 352v336h-147v229h544v-1130h-293v57h-104v221q21 -36 60.5 -55.5t86.5 -19.5q52 0 92 21t63.5 57t35.5 78.5t12 88.5q0 102 -52.5 160.5t-137.5 58.5q-110 0 -160 -102zM52 -156h-76v787h76v-787zM398 229q0 -76 -36 -127t-104 -51q-58 0 -96.5 38t-38.5 94v63
q0 53 42 100t102 47q57 0 94 -43t37 -121z" />
    <glyph glyph-name="uni00FF" unicode="&#xff;" horiz-adv-x="507" 
d="M-24 -213v1130h531v-1130h-213v57h-76l60 156l157 388h53v57h-196v-57h72l-111 -299h-6l-125 299h78v57h-206v-57h53l162 -387l-58 -157h-83v-57h-92zM129 640v-85h81v85h-81zM300 640v-85h81v85h-81z" />
    <glyph glyph-name="uni0100" unicode="&#x100;" 
d="M-24 917h646v-853h-79l-213 586h-186v-64h104l-193 -522h-79v853zM158 733h279v57h-279v-57zM304 544l106 -298h-219l108 298h5zM622 -213h-646v213h228v64h-80l46 125h260l44 -125h-77v-64h225v-213z" />
    <glyph glyph-name="uni0101" unicode="&#x101;" horiz-adv-x="479" 
d="M-24 -213v1130h503v-1130h-503zM95 564h244v57h-244v-57zM67 411l-16 -103l58 -7l17 77q37 18 86 18q56 0 78.5 -28t22.5 -80v-40q-48 4 -79 4q-208 0 -208 -137q0 -65 41 -95t94 -30q51 0 90 26t62 66v-2q1 -42 22 -66t59 -24q31 0 58 15l-1 46q-13 -6 -30 -6
q-38 0 -38 48v212q0 149 -159 149q-93 0 -157 -43zM313 167q-4 -53 -43 -86t-88 -33q-34 0 -58.5 18t-24.5 57q0 83 131 83q20 0 83 -5v-34z" />
    <glyph glyph-name="uni0102" unicode="&#x102;" 
d="M-24 917h646v-853h-79l-213 586h-186v-64h104l-193 -522h-79v853zM426 816h-58q0 -38 -15 -53.5t-49 -15.5q-32 0 -48 15.5t-16 53.5h-58q0 -117 122 -117q62 0 92 28t30 89zM304 544l106 -298h-219l108 298h5zM622 -213h-646v213h228v64h-80l46 125h260l44 -125h-77v-64
h225v-213z" />
    <glyph glyph-name="uni0103" unicode="&#x103;" horiz-adv-x="479" 
d="M-24 -213v1130h503v-1130h-503zM340 655h-59q0 -75 -63 -75q-64 0 -64 75h-59q0 -123 122 -123q123 0 123 123zM67 411l-16 -103l58 -7l17 77q37 18 86 18q56 0 78.5 -28t22.5 -80v-40q-48 4 -79 4q-208 0 -208 -137q0 -65 41 -95t94 -30q51 0 90 26t62 66v-2
q1 -42 22 -66t59 -24q31 0 58 15l-1 46q-13 -6 -30 -6q-38 0 -38 48v212q0 149 -159 149q-93 0 -157 -43zM313 167q-4 -53 -43 -86t-88 -33q-34 0 -58.5 18t-24.5 57q0 83 131 83q20 0 83 -5v-34z" />
    <glyph glyph-name="uni0104" unicode="&#x104;" 
d="M35 64h-59v853h646v-853h-59l-233 586h-186v-64h104zM304 544l112 -298h-235l118 298h5zM-24 -213v213h228v64h-95l50 125h278l47 -125h-87v-64h106q-72 -44 -72 -118q0 -43 29 -68.5t76 -25.5q42 0 79 20l-9 49q-25 -15 -54 -15q-58 0 -58 59t64 99h64v-213h-646z" />
    <glyph glyph-name="uni0105" unicode="&#x105;" horiz-adv-x="479" 
d="M-24 -213v1130h503v-1130h-503zM467 -192l-9 49q-25 -15 -54 -15q-58 0 -58 59q0 53 49 89q35 2 57 15l-1 46q-13 -6 -30 -6q-38 0 -38 48v212q0 149 -159 149q-93 0 -157 -43l-16 -103l58 -7l17 77q37 18 86 18q56 0 78.5 -28t22.5 -80v-40q-48 4 -79 4
q-208 0 -208 -137q0 -65 41 -95t94 -30q51 0 90 26t62 66v-2q2 -62 41 -81q-71 -45 -71 -117q0 -43 29 -68.5t76 -25.5q41 0 79 20zM313 167q-4 -53 -43 -86t-88 -33q-34 0 -58.5 18t-24.5 57q0 83 131 83q20 0 83 -5v-34z" />
    <glyph glyph-name="uni0106" unicode="&#x106;" horiz-adv-x="642" 
d="M-24 -213v1130h666v-1130h-666zM298 703l197 42l-17 68l-191 -73zM561 50l17 125l-62 6l-19 -96q-58 -29 -143 -29q-115 0 -183 73t-68 195q0 119 66 194.5t172 75.5q92 0 161 -46l18 -95l63 6l-18 125q-90 76 -230 76q-138 0 -223.5 -99.5t-85.5 -239.5q0 -143 89 -237
t229 -94q139 0 217 60z" />
    <glyph glyph-name="uni0107" unicode="&#x107;" horiz-adv-x="457" 
d="M-24 -213v1130h481v-1130h-481zM193 520l172 104l-40 59l-154 -132zM414 150l-60 13q-20 -113 -120 -113q-66 0 -101 44.5t-35 125.5q0 78 32.5 126t100.5 48q55 0 95 -25l17 -75l58 7l-17 107q-61 46 -152 46q-98 0 -153 -69.5t-55 -168.5q0 -106 54.5 -166t147.5 -60
q85 0 131.5 46.5t56.5 113.5z" />
    <glyph glyph-name="uni0108" unicode="&#x108;" horiz-adv-x="642" 
d="M-24 -213v1130h666v-1130h-666zM464 702l19 35l-126 90h-21l-127 -93l19 -33l116 63zM561 50l17 125l-62 6l-19 -96q-58 -29 -143 -29q-115 0 -183 73t-68 195q0 119 66 194.5t172 75.5q92 0 161 -46l18 -95l63 6l-18 125q-90 76 -230 76q-138 0 -223.5 -99.5
t-85.5 -239.5q0 -143 89 -237t229 -94q139 0 217 60z" />
    <glyph glyph-name="uni0109" unicode="&#x109;" horiz-adv-x="457" 
d="M-24 -213v1130h481v-1130h-481zM338 519l27 34l-121 118h-22l-121 -120l25 -32l101 84zM414 150l-60 13q-20 -113 -120 -113q-66 0 -101 44.5t-35 125.5q0 78 32.5 126t100.5 48q55 0 95 -25l17 -75l58 7l-17 107q-61 46 -152 46q-98 0 -153 -69.5t-55 -168.5
q0 -106 54.5 -166t147.5 -60q85 0 131.5 46.5t56.5 113.5z" />
    <glyph glyph-name="uni010A" unicode="&#x10a;" horiz-adv-x="642" 
d="M-24 -213v1130h666v-1130h-666zM298 803v-85h81v85h-81zM561 50l17 125l-62 6l-19 -96q-58 -29 -143 -29q-115 0 -183 73t-68 195q0 119 66 194.5t172 75.5q92 0 161 -46l18 -95l63 6l-18 125q-90 76 -230 76q-138 0 -223.5 -99.5t-85.5 -239.5q0 -143 89 -237t229 -94
q139 0 217 60z" />
    <glyph glyph-name="uni010B" unicode="&#x10b;" horiz-adv-x="457" 
d="M-24 -213v1130h481v-1130h-481zM189 644v-91h77v91h-77zM414 150l-60 13q-20 -113 -120 -113q-66 0 -101 44.5t-35 125.5q0 78 32.5 126t100.5 48q55 0 95 -25l17 -75l58 7l-17 107q-61 46 -152 46q-98 0 -153 -69.5t-55 -168.5q0 -106 54.5 -166t147.5 -60
q85 0 131.5 46.5t56.5 113.5z" />
    <glyph glyph-name="uni010C" unicode="&#x10c;" horiz-adv-x="642" 
d="M-24 -213v1130h666v-1130h-666zM354 701l126 91l-19 35l-115 -64l-120 61l-20 -34l126 -89h22zM561 50l17 125l-62 6l-19 -96q-58 -29 -143 -29q-115 0 -183 73t-68 195q0 119 66 194.5t172 75.5q92 0 161 -46l18 -95l63 6l-18 125q-90 76 -230 76q-138 0 -223.5 -99.5
t-85.5 -239.5q0 -143 89 -237t229 -94q139 0 217 60z" />
    <glyph glyph-name="uni010D" unicode="&#x10d;" horiz-adv-x="457" 
d="M-24 -213v1130h481v-1130h-481zM240 519l121 119l-26 33l-102 -85l-110 84l-26 -34l121 -117h22zM414 150l-60 13q-20 -113 -120 -113q-66 0 -101 44.5t-35 125.5q0 78 32.5 126t100.5 48q55 0 95 -25l17 -75l58 7l-17 107q-61 46 -152 46q-98 0 -153 -69.5t-55 -168.5
q0 -106 54.5 -166t147.5 -60q85 0 131.5 46.5t56.5 113.5z" />
    <glyph glyph-name="uni010E" unicode="&#x10e;" horiz-adv-x="701" 
d="M-24 -213v1130h725v-1130h-725zM301 701l126 91l-19 35l-115 -64l-120 61l-20 -34l126 -89h22zM651 326q0 144 -88 234t-244 90h-291v-63h82v-524h-82v-63h294q152 0 240.5 90.5t88.5 235.5zM573 325q0 -122 -66.5 -192t-188.5 -70h-135v524h135q122 0 188.5 -71
t66.5 -191z" />
    <glyph glyph-name="uni010F" unicode="&#x10f;" horiz-adv-x="610" 
d="M-24 -213v1130h634v-1130h-634zM374 0h147v57h-77v631h-178v-57h108v-258q-45 81 -149 81q-101 0 -151 -71.5t-50 -171.5q0 -103 52 -162t139 -59q104 0 159 100v-90zM567 457l23 224h-67l-13 -224h57zM374 268v-71q-2 -54 -43 -100.5t-98 -46.5q-60 0 -97.5 43.5
t-37.5 122.5q0 76 36.5 127t106.5 51q54 0 92.5 -35.5t40.5 -90.5z" />
    <glyph glyph-name="uni0110" unicode="&#x110;" horiz-adv-x="701" 
d="M-24 -213v1130h725v-1130h-725zM651 326q0 144 -88 234t-244 90h-291v-63h82v-217h-79v-62h79v-245h-82v-63h294q152 0 240.5 90.5t88.5 235.5zM573 325q0 -122 -66.5 -192t-188.5 -70h-135v245h135v62h-135v217h135q122 0 188.5 -71t66.5 -191z" />
    <glyph glyph-name="uni0111" unicode="&#x111;" horiz-adv-x="546" 
d="M-24 -213v1130h570v-1130h-570zM374 0h147v57h-77v462h67v49h-67v120h-178v-57h108v-63h-178v-49h178v-146q-45 81 -149 81q-101 0 -151 -71.5t-50 -171.5q0 -103 52 -162t139 -59q104 0 159 100v-90zM374 268v-71q-2 -54 -43 -100.5t-98 -46.5q-60 0 -97.5 43.5
t-37.5 122.5q0 76 36.5 127t106.5 51q54 0 92.5 -35.5t40.5 -90.5z" />
    <glyph glyph-name="uni0112" unicode="&#x112;" horiz-adv-x="584" 
d="M-24 -213v1130h608v-1130h-608zM169 733h279v57h-279v-57zM28 0h484l19 184l-63 7l-20 -127h-265v234h307v64h-307v224h256l20 -127l64 7l-20 184h-475v-64h82v-522h-82v-64z" />
    <glyph glyph-name="uni0113" unicode="&#x113;" horiz-adv-x="466" 
d="M-24 -213v1130h490v-1130h-490zM110 564h244v57h-244v-57zM421 128l-59 13q-23 -91 -123 -91q-66 0 -102 40.5t-39 115.5h313q6 27 6 53q-1 83 -51 139t-138 56q-93 0 -148.5 -66.5t-55.5 -171.5q0 -106 57 -166t153 -60q79 0 128.5 39t58.5 99zM343 258h-244
q7 62 38 100t89 38q61 0 92 -42t25 -96z" />
    <glyph glyph-name="uni0114" unicode="&#x114;" horiz-adv-x="584" 
d="M-24 -213v1130h608v-1130h-608zM435 816h-58q0 -38 -15 -53.5t-49 -15.5q-32 0 -48 15.5t-16 53.5h-58q0 -117 122 -117q62 0 92 28t30 89zM28 0h484l19 184l-63 7l-20 -127h-265v234h307v64h-307v224h256l20 -127l64 7l-20 184h-475v-64h82v-522h-82v-64z" />
    <glyph glyph-name="uni0115" unicode="&#x115;" horiz-adv-x="466" 
d="M-24 -213v1130h490v-1130h-490zM352 655h-59q0 -75 -63 -75q-64 0 -64 75h-59q0 -123 122 -123q123 0 123 123zM421 128l-59 13q-23 -91 -123 -91q-66 0 -102 40.5t-39 115.5h313q6 27 6 53q-1 83 -51 139t-138 56q-93 0 -148.5 -66.5t-55.5 -171.5q0 -106 57 -166
t153 -60q79 0 128.5 39t58.5 99zM343 258h-244q7 62 38 100t89 38q61 0 92 -42t25 -96z" />
    <glyph glyph-name="uni0116" unicode="&#x116;" horiz-adv-x="584" 
d="M-24 -213v1130h608v-1130h-608zM267 803v-85h81v85h-81zM28 0h484l19 184l-63 7l-20 -127h-265v234h307v64h-307v224h256l20 -127l64 7l-20 184h-475v-64h82v-522h-82v-64z" />
    <glyph glyph-name="uni0117" unicode="&#x117;" horiz-adv-x="466" 
d="M-24 -213v1130h490v-1130h-490zM189 644v-91h77v91h-77zM421 128l-59 13q-23 -91 -123 -91q-66 0 -102 40.5t-39 115.5h313q6 27 6 53q-1 83 -51 139t-138 56q-93 0 -148.5 -66.5t-55.5 -171.5q0 -106 57 -166t153 -60q79 0 128.5 39t58.5 99zM343 258h-244q7 62 38 100
t89 38q61 0 92 -42t25 -96z" />
    <glyph glyph-name="uni0118" unicode="&#x118;" horiz-adv-x="584" 
d="M-24 -213v1130h608v-1130h-608zM28 0h391q-72 -44 -72 -118q0 -43 29 -68.5t76 -25.5q42 0 79 20l-9 49q-25 -15 -54 -15q-58 0 -58 59t64 99h38l19 184l-63 7l-20 -127h-265v234h307v64h-307v224h256l20 -127l64 7l-20 184h-475v-64h82v-522h-82v-64z" />
    <glyph glyph-name="uni0119" unicode="&#x119;" horiz-adv-x="466" 
d="M-24 -213v1130h490v-1130h-490zM421 128l-59 13q-23 -91 -123 -91q-66 0 -102 40.5t-39 115.5h313q6 27 6 53q-1 83 -51 139t-138 56q-93 0 -148.5 -66.5t-55.5 -171.5t56 -164.5t150 -61.5q-57 -43 -57 -111q0 -43 28.5 -67t75.5 -24q42 0 79 20l-9 49q-25 -15 -54 -15
q-58 0 -58 56q0 61 59 99q54 13 86.5 48.5t40.5 82.5zM343 258h-244q7 62 38 100t89 38q61 0 92 -42t25 -96z" />
    <glyph glyph-name="uni011A" unicode="&#x11a;" horiz-adv-x="584" 
d="M-24 -213v1130h608v-1130h-608zM315 701l126 91l-19 35l-115 -64l-120 61l-20 -34l126 -89h22zM28 0h484l19 184l-63 7l-20 -127h-265v234h307v64h-307v224h256l20 -127l64 7l-20 184h-475v-64h82v-522h-82v-64z" />
    <glyph glyph-name="uni011B" unicode="&#x11b;" horiz-adv-x="466" 
d="M-24 -213v1130h490v-1130h-490zM240 519l121 119l-26 33l-102 -85l-110 84l-26 -34l121 -117h22zM421 128l-59 13q-23 -91 -123 -91q-66 0 -102 40.5t-39 115.5h313q6 27 6 53q-1 83 -51 139t-138 56q-93 0 -148.5 -66.5t-55.5 -171.5q0 -106 57 -166t153 -60
q79 0 128.5 39t58.5 99zM343 258h-244q7 62 38 100t89 38q61 0 92 -42t25 -96z" />
    <glyph glyph-name="uni011C" unicode="&#x11c;" horiz-adv-x="688" 
d="M-24 -213v1130h712v-1130h-712zM458 702l19 35l-126 90h-21l-127 -93l19 -33l116 63zM599 270h51v65h-279v-65h155v-58q0 -63 -51 -109.5t-136 -46.5q-106 0 -170.5 74t-64.5 195q0 119 67 194t176 75q93 0 164 -47l20 -92l62 7l-18 122q-85 76 -232 76
q-138 0 -227.5 -98t-89.5 -240q0 -141 84 -236.5t216 -95.5q69 0 123 27.5t85 72.5l9 -90h56v270z" />
    <glyph glyph-name="uni011D" unicode="&#x11d;" horiz-adv-x="545" 
d="M-24 -213v1130h569v-1130h-309q99 4 154 65t55 164v372h72v57h-143v-70q-45 79 -151 79q-66 0 -112.5 -36.5t-66.5 -90t-20 -116.5q0 -102 54 -159.5t137 -57.5q109 0 159 97v-72q0 -81 -40 -126t-105 -45q-49 0 -89.5 24.5t-56.5 73.5l-56 -28q16 -61 66 -94.5
t119 -36.5h-236zM352 519l27 34l-121 118h-22l-121 -120l25 -32l101 84zM374 269v-77q-2 -53 -43 -95t-101 -42q-58 0 -94.5 41.5t-36.5 119.5q0 76 36 126.5t107 50.5q55 0 93.5 -34.5t38.5 -89.5z" />
    <glyph glyph-name="uni011E" unicode="&#x11e;" horiz-adv-x="688" 
d="M-24 -213v1130h712v-1130h-712zM465 816h-58q0 -38 -15 -53.5t-49 -15.5q-32 0 -48 15.5t-16 53.5h-58q0 -117 122 -117q62 0 92 28t30 89zM599 270h51v65h-279v-65h155v-58q0 -63 -51 -109.5t-136 -46.5q-106 0 -170.5 74t-64.5 195q0 119 67 194t176 75q93 0 164 -47
l20 -92l62 7l-18 122q-85 76 -232 76q-138 0 -227.5 -98t-89.5 -240q0 -141 84 -236.5t216 -95.5q69 0 123 27.5t85 72.5l9 -90h56v270z" />
    <glyph glyph-name="uni011F" unicode="&#x11f;" horiz-adv-x="545" 
d="M-24 -213v1130h569v-1130h-309q99 4 154 65t55 164v372h72v57h-143v-70q-45 79 -151 79q-66 0 -112.5 -36.5t-66.5 -90t-20 -116.5q0 -102 54 -159.5t137 -57.5q109 0 159 97v-72q0 -81 -40 -126t-105 -45q-49 0 -89.5 24.5t-56.5 73.5l-56 -28q16 -61 66 -94.5
t119 -36.5h-236zM368 655h-59q0 -75 -63 -75q-64 0 -64 75h-59q0 -123 122 -123q123 0 123 123zM374 269v-77q-2 -53 -43 -95t-101 -42q-58 0 -94.5 41.5t-36.5 119.5q0 76 36 126.5t107 50.5q55 0 93.5 -34.5t38.5 -89.5z" />
    <glyph glyph-name="uni0120" unicode="&#x120;" horiz-adv-x="688" 
d="M-24 -213v1130h712v-1130h-712zM301 803v-85h81v85h-81zM599 270h51v65h-279v-65h155v-58q0 -63 -51 -109.5t-136 -46.5q-106 0 -170.5 74t-64.5 195q0 119 67 194t176 75q93 0 164 -47l20 -92l62 7l-18 122q-85 76 -232 76q-138 0 -227.5 -98t-89.5 -240
q0 -141 84 -236.5t216 -95.5q69 0 123 27.5t85 72.5l9 -90h56v270z" />
    <glyph glyph-name="uni0121" unicode="&#x121;" horiz-adv-x="545" 
d="M-24 -213v1130h569v-1130h-309q99 4 154 65t55 164v372h72v57h-143v-70q-45 79 -151 79q-66 0 -112.5 -36.5t-66.5 -90t-20 -116.5q0 -102 54 -159.5t137 -57.5q109 0 159 97v-72q0 -81 -40 -126t-105 -45q-49 0 -89.5 24.5t-56.5 73.5l-56 -28q16 -61 66 -94.5
t119 -36.5h-236zM209 644v-91h77v91h-77zM374 269v-77q-2 -53 -43 -95t-101 -42q-58 0 -94.5 41.5t-36.5 119.5q0 76 36 126.5t107 50.5q55 0 93.5 -34.5t38.5 -89.5z" />
    <glyph glyph-name="uni0122" unicode="&#x122;" horiz-adv-x="688" 
d="M-24 -213v1130h712v-1130h-336l18 154h-67l-8 -154h-319zM599 270h51v65h-279v-65h155v-58q0 -63 -51 -109.5t-136 -46.5q-106 0 -170.5 74t-64.5 195q0 119 67 194t176 75q93 0 164 -47l20 -92l62 7l-18 122q-85 76 -232 76q-138 0 -227.5 -98t-89.5 -240
q0 -141 84 -236.5t216 -95.5q69 0 123 27.5t85 72.5l9 -90h56v270z" />
    <glyph glyph-name="uni0123" unicode="&#x123;" horiz-adv-x="545" 
d="M-24 -213v1130h569v-1130h-309q99 4 154 65t55 164v372h72v57h-143v-70q-45 79 -151 79q-66 0 -112.5 -36.5t-66.5 -90t-20 -116.5q0 -102 54 -159.5t137 -57.5q109 0 159 97v-72q0 -81 -40 -126t-105 -45q-49 0 -89.5 24.5t-56.5 73.5l-56 -28q16 -61 66 -94.5
t119 -36.5h-236zM368 698l-18 -154h67l8 154h-57zM374 269v-77q-2 -53 -43 -95t-101 -42q-58 0 -94.5 41.5t-36.5 119.5q0 76 36 126.5t107 50.5q55 0 93.5 -34.5t38.5 -89.5z" />
    <glyph glyph-name="uni0124" unicode="&#x124;" horiz-adv-x="752" 
d="M-24 -213v1130h776v-1130h-776zM485 702l19 35l-126 90h-21l-127 -93l19 -33l116 63zM462 0h237v64h-82v522h82v64h-237v-64h82v-224h-361v224h82v64h-237v-64h82v-522h-82v-64h237v64h-82v236h361v-236h-82v-64z" />
    <glyph glyph-name="uni0125" unicode="&#x125;" horiz-adv-x="556" 
d="M-24 -213v1130h580v-1130h-580zM217 715l27 34l-121 118h-22l-121 -120l25 -32l101 84zM311 0h226v57h-77v228q0 85 -42 127t-111 42q-107 0 -156 -89v323h-148v-57h77v-574h-77v-57h225v57h-77v210q2 51 39.5 89.5t93.5 38.5q105 0 105 -131v-207h-78v-57z" />
    <glyph glyph-name="uni0126" unicode="&#x126;" horiz-adv-x="752" 
d="M-24 -213v1130h776v-1130h-776zM462 0h237v64h-82v398h74v53h-74v71h82v64h-237v-64h82v-71h-361v71h82v64h-237v-64h82v-71h-75v-53h75v-398h-82v-64h237v64h-82v236h361v-236h-82v-64zM544 362h-361v100h361v-100z" />
    <glyph glyph-name="uni0127" unicode="&#x127;" horiz-adv-x="556" 
d="M-24 -213v1130h580v-1130h-580zM311 0h226v57h-77v228q0 85 -42 127t-111 42q-107 0 -156 -89v152h172v49h-172v122h-148v-57h77v-65h-72v-49h72v-460h-77v-57h225v57h-77v210q2 51 39.5 89.5t93.5 38.5q105 0 105 -131v-207h-78v-57z" />
    <glyph glyph-name="uni0128" unicode="&#x128;" horiz-adv-x="318" 
d="M-24 -213v1130h342v-1130h-342zM294 798l-36 9q-12 -42 -47 -42q-24 0 -60.5 17.5t-58.5 17.5q-35 0 -56.5 -25.5t-25.5 -56.5l33 -13q12 39 50 39q18 0 57 -17.5t66 -17.5q62 0 78 89zM28 0h237v64h-81v522h81v64h-237v-64h82v-522h-82v-64z" />
    <glyph glyph-name="uni0129" unicode="&#x129;" horiz-adv-x="277" 
d="M-24 -213v1130h301v-1130h-301zM263 646l-36 9q-13 -42 -47 -42q-24 0 -60.5 18t-58.5 18q-34 0 -54.5 -27.5t-25.5 -59.5l33 -12q13 43 50 43q17 0 56 -19.5t66 -19.5q61 0 77 92zM20 0h226v57h-78v388h-150v-57h80v-331h-78v-57z" />
    <glyph glyph-name="uni012A" unicode="&#x12a;" horiz-adv-x="318" 
d="M-24 -213v1130h342v-1130h-342zM10 733h279v57h-279v-57zM28 0h237v64h-81v522h81v64h-237v-64h82v-522h-82v-64z" />
    <glyph glyph-name="uni012B" unicode="&#x12b;" horiz-adv-x="277" 
d="M-24 -213v1130h301v-1130h-301zM-4 564h244v57h-244v-57zM20 0h226v57h-78v388h-150v-57h80v-331h-78v-57z" />
    <glyph glyph-name="uni012C" unicode="&#x12c;" horiz-adv-x="318" 
d="M-24 -213v1130h342v-1130h-342zM269 816h-58q0 -38 -15 -53.5t-49 -15.5q-32 0 -48 15.5t-16 53.5h-58q0 -117 122 -117q62 0 92 28t30 89zM28 0h237v64h-81v522h81v64h-237v-64h82v-522h-82v-64z" />
    <glyph glyph-name="uni012D" unicode="&#x12d;" horiz-adv-x="277" 
d="M-24 -213v1130h301v-1130h-301zM251 655h-59q0 -75 -63 -75q-64 0 -64 75h-59q0 -123 122 -123q123 0 123 123zM20 0h226v57h-78v388h-150v-57h80v-331h-78v-57z" />
    <glyph glyph-name="uni012E" unicode="&#x12e;" horiz-adv-x="318" 
d="M-24 -213v1130h342v-1130h-342zM234 -189l-9 49q-25 -15 -54 -15q-58 0 -58 56q0 59 64 99h88v64h-81v522h81v64h-237v-64h82v-522h-82v-64h94q-72 -44 -72 -118q0 -42 28.5 -66.5t76.5 -24.5q42 0 79 20z" />
    <glyph glyph-name="uni012F" unicode="&#x12f;" horiz-adv-x="277" 
d="M-24 917h301v-1130h-301v1130zM91 560h76v91h-76v-91zM212 -143q-25 -15 -54 -15q-58 0 -58 56q0 63 64 102h82v57h-78v388h-150v-57h80v-331h-78v-57h89q-32 -20 -52 -52t-20 -69q0 -43 28.5 -67t76.5 -24q41 0 79 20z" />
    <glyph glyph-name="uni0130" unicode="&#x130;" horiz-adv-x="318" 
d="M-24 -213v1130h342v-1130h-342zM105 803v-85h81v85h-81zM28 0h237v64h-81v522h81v64h-237v-64h82v-522h-82v-64z" />
    <glyph glyph-name="uni0131" unicode="&#x131;" horiz-adv-x="277" 
d="M-24 -213v1130h301v-1130h-301zM20 0h226v57h-78v388h-150v-57h80v-331h-78v-57z" />
    <glyph glyph-name="uni0132" unicode="&#x132;" horiz-adv-x="775" 
d="M-24 -213v1130h799v-1130h-799zM28 0h237v64h-81v522h81v64h-237v-64h82v-522h-82v-64zM656 586h72v64h-274v-64h129v-420q0 -107 -101 -107q-35 0 -59 15.5t-44 54.5l-53 -40q47 -99 163 -99q79 0 123 44.5t44 131.5v420z" />
    <glyph glyph-name="uni0133" unicode="&#x133;" horiz-adv-x="526" 
d="M-24 -213v1130h550v-1130h-244q160 5 160 209v449h-169v-57h99v-392q0 -42 -7.5 -71.5t-17.5 -45t-27 -24.5t-31 -11t-34 -2v-55h-279zM366 651v-91h76v91h-76zM91 651v-91h76v91h-76zM20 0h226v57h-78v388h-150v-57h80v-331h-78v-57z" />
    <glyph glyph-name="uni0134" unicode="&#x134;" horiz-adv-x="454" 
d="M-22 -213l-2 1130h478v-1130h-476zM396 702l19 35l-126 90h-21l-127 -93l19 -33l116 63zM334 586h72v64h-274v-64h129v-420q0 -107 -100 -107q-35 0 -59 15.5t-44 54.5l-53 -40q47 -99 162 -99q80 0 123.5 44.5t43.5 131.5v420z" />
    <glyph glyph-name="uni0135" unicode="&#x135;" horiz-adv-x="247" 
d="M-24 917h271v-1130h-244q160 5 160 209v449h-170v-57h99v-392q0 -51 -9.5 -84t-28.5 -47t-36 -18.5t-42 -4.5v1075zM237 554l-115 114h-19l-116 -116l24 -31l96 81l105 -81z" />
    <glyph glyph-name="uni0136" unicode="&#x136;" horiz-adv-x="638" 
d="M-24 -213v1130h662v-1130h-294l18 154h-67l-8 -154h-311zM387 0h234v64h-73l-200 274l187 249h74v64h-229v-64h77l-167 -225h-106v224h76v64h-232v-64h82v-522h-82v-64h231v64h-75v235h108l172 -235h-77v-64z" />
    <glyph glyph-name="uni0137" unicode="&#x137;" horiz-adv-x="517" 
d="M-24 -213v1130h541v-1130h-254l18 154h-67l-8 -154h-230zM285 0h210v57h-63l-147 184l119 147h68v57h-208v-57h69l-102 -126h-80v426h-150v-57h79v-574h-77v-57h212v57h-64v151h79l122 -151h-67v-57z" />
    <glyph glyph-name="uni0139" unicode="&#x139;" horiz-adv-x="540" 
d="M-24 -213v1130h564v-1130h-564zM87 703l197 42l-17 68l-191 -73zM28 0h459l20 208l-65 5l-20 -149h-239v522h109v64h-264v-64h82v-522h-82v-64z" />
    <glyph glyph-name="uni013A" unicode="&#x13a;" horiz-adv-x="262" 
d="M-24 -213v1130h286v-1130h-286zM13 713l197 42l-17 68l-191 -73zM6 0h226v57h-78v631h-149v-57h79v-574h-78v-57z" />
    <glyph glyph-name="uni013B" unicode="&#x13b;" horiz-adv-x="540" 
d="M-24 -213v1130h564v-1130h-230l18 149h-67l-8 -149h-277zM28 0h459l20 208l-65 5l-20 -149h-239v522h109v64h-264v-64h82v-522h-82v-64zM310 -218h-57v5h57v-5z" />
    <glyph glyph-name="uni013C" unicode="&#x13c;" horiz-adv-x="262" 
d="M-24 -213v1130h286v-1130h-124l18 154h-67l-8 -154h-105zM6 0h226v57h-78v631h-149v-57h79v-574h-78v-57z" />
    <glyph glyph-name="uni013D" unicode="&#x13d;" horiz-adv-x="540" 
d="M-24 -213v1130h564v-1130h-564zM398 458l22 224h-66l-13 -224h57zM28 0h459l20 208l-65 5l-20 -149h-239v522h109v64h-264v-64h82v-522h-82v-64z" />
    <glyph glyph-name="uni013E" unicode="&#x13e;" horiz-adv-x="317" 
d="M-24 -213v1130h341v-1130h-341zM6 0h226v57h-78v631h-149v-57h79v-574h-78v-57zM278 457l22 224h-66l-13 -224h57z" />
    <glyph glyph-name="uni013F" unicode="&#x13f;" horiz-adv-x="540" 
d="M-24 -213v1130h564v-1130h-564zM28 0h459l20 208l-65 5l-20 -149h-239v522h109v64h-264v-64h82v-522h-82v-64zM319 386v-91h77v91h-77z" />
    <glyph glyph-name="uni0140" unicode="&#x140;" horiz-adv-x="285" 
d="M-24 -213v1130h309v-1130h-309zM6 0h226v57h-78v631h-149v-57h79v-574h-78v-57zM195 384v-91h76v91h-76z" />
    <glyph glyph-name="uni0141" unicode="&#x141;" horiz-adv-x="540" 
d="M-24 -213v1130h564v-1130h-564zM28 0h469l20 208l-65 5l-20 -149h-249v231l156 62v59l-156 -62v232h109v64h-264v-64h82v-260l-80 -32v-59l80 32v-203h-82v-64z" />
    <glyph glyph-name="uni0142" unicode="&#x142;" horiz-adv-x="262" 
d="M-24 -213v1130h286v-1130h-286zM6 0h226v57h-78v255l81 38v59l-81 -38v317h-149v-57h79v-293l-81 -37v-59l81 38v-223h-78v-57z" />
    <glyph glyph-name="uni0143" unicode="&#x143;" horiz-adv-x="733" 
d="M-24 -213v1130h757v-1130h-757zM303 703l197 42l-17 68l-191 -73zM608 586h81v64h-249v-64h98v-437h-4l-370 501h-140v-64h86v-522h-75v-64h248v64h-103v448h4l377 -512h47v586z" />
    <glyph glyph-name="uni0144" unicode="&#x144;" horiz-adv-x="570" 
d="M-24 -213v1130h594v-1130h-594zM262 520l172 104l-40 59l-154 -132zM325 0h225v57h-77v228q0 85 -42 127t-111 42q-108 0 -156 -88v79h-150v-57h80v-331h-78v-57h226v57h-78v208q2 53 39.5 91.5t95.5 38.5q103 0 103 -131v-207h-77v-57z" />
    <glyph glyph-name="uni0145" unicode="&#x145;" horiz-adv-x="733" 
d="M-24 -213v1130h757v-1130h-757zM608 586h81v64h-249v-64h98v-437h-4l-370 501h-140v-64h86v-522h-75v-64h248v64h-103v448h4l377 -512h47v586zM384 -212l18 154h-67l-8 -154h57z" />
    <glyph glyph-name="uni0146" unicode="&#x146;" horiz-adv-x="570" 
d="M-24 -213v1130h594v-1130h-265l18 154h-67l-8 -154h-272zM325 0h225v57h-77v228q0 85 -42 127t-111 42q-108 0 -156 -88v79h-150v-57h80v-331h-78v-57h226v57h-78v208q2 53 39.5 91.5t95.5 38.5q103 0 103 -131v-207h-77v-57z" />
    <glyph glyph-name="uni0147" unicode="&#x147;" horiz-adv-x="733" 
d="M-24 -213v1130h757v-1130h-757zM362 701l126 91l-19 35l-115 -64l-120 61l-20 -34l126 -89h22zM608 586h81v64h-249v-64h98v-437h-4l-370 501h-140v-64h86v-522h-75v-64h248v64h-103v448h4l377 -512h47v586z" />
    <glyph glyph-name="uni0148" unicode="&#x148;" horiz-adv-x="570" 
d="M-24 -213v1130h594v-1130h-594zM295 519l121 119l-26 33l-102 -85l-110 84l-26 -34l121 -117h22zM325 0h225v57h-77v228q0 85 -42 127t-111 42q-108 0 -156 -88v79h-150v-57h80v-331h-78v-57h226v57h-78v208q2 53 39.5 91.5t95.5 38.5q103 0 103 -131v-207h-77v-57z" />
    <glyph glyph-name="uni0149" unicode="&#x149;" horiz-adv-x="570" 
d="M-24 -213v1130h594v-1130h-594zM75 721l-49 -198h64l47 198h-62zM325 0h225v57h-77v228q0 85 -42 127t-111 42q-108 0 -156 -88v79h-150v-57h80v-331h-78v-57h226v57h-78v208q2 53 39.5 91.5t95.5 38.5q103 0 103 -131v-207h-77v-57z" />
    <glyph glyph-name="uni014A" unicode="&#x14a;" horiz-adv-x="733" 
d="M-24 -213v1130h757v-1130h-757zM608 586h81v64h-249v-64h98v-437h-4l-370 501h-140v-64h86v-522h-75v-64h248v64h-103v448h4l350 -477v-53q0 -108 -100 -108q-34 0 -58.5 15.5t-44.5 54.5l-53 -40q47 -98 162 -98q80 0 124 44.5t44 131.5v604z" />
    <glyph glyph-name="uni014B" unicode="&#x14b;" horiz-adv-x="570" 
d="M402 -3q0 -51 -10.5 -85t-30.5 -49t-38 -20t-43 -5l1 -51h-305v1130h594v-1130h-242q144 13 145 207v291q0 85 -42 127t-111 42q-108 0 -156 -88v79h-150v-57h80v-331h-78v-57h226v57h-78v210q2 52 39.5 90t94.5 38q104 0 104 -131v-267z" />
    <glyph glyph-name="uni014C" unicode="&#x14c;" horiz-adv-x="725" 
d="M-24 -213v1130h749v-1130h-749zM220 733h279v57h-279v-57zM676 325q0 141 -91 238t-235 97q-142 0 -233.5 -96.5t-91.5 -238.5q0 -141 89.5 -238t233.5 -97t236 97t92 238zM597 324q0 -116 -66.5 -192t-178.5 -76q-115 0 -181.5 77.5t-66.5 192.5t66.5 191.5t179.5 76.5
q112 0 179.5 -75.5t67.5 -194.5z" />
    <glyph glyph-name="uni014D" unicode="&#x14d;" horiz-adv-x="509" 
d="M-24 -213v1130h533v-1130h-533zM120 564h244v57h-244v-57zM243 455q-104 0 -162 -67t-58 -169t58 -165.5t158 -63.5q101 0 162 65t61 168q0 100 -57.5 166t-161.5 66zM241 50q-69 0 -107 48.5t-38 124.5t38.5 124t106.5 48q69 0 108 -46.5t39 -124.5q0 -77 -39 -125.5
t-108 -48.5z" />
    <glyph glyph-name="uni014E" unicode="&#x14e;" horiz-adv-x="725" 
d="M-24 -213v1130h749v-1130h-749zM480 816h-58q0 -38 -15 -53.5t-49 -15.5q-32 0 -48 15.5t-16 53.5h-58q0 -117 122 -117q62 0 92 28t30 89zM676 325q0 141 -91 238t-235 97q-142 0 -233.5 -96.5t-91.5 -238.5q0 -141 89.5 -238t233.5 -97t236 97t92 238zM597 324
q0 -116 -66.5 -192t-178.5 -76q-115 0 -181.5 77.5t-66.5 192.5t66.5 191.5t179.5 76.5q112 0 179.5 -75.5t67.5 -194.5z" />
    <glyph glyph-name="uni014F" unicode="&#x14f;" horiz-adv-x="509" 
d="M-24 -213v1130h533v-1130h-533zM370 655h-59q0 -75 -63 -75q-64 0 -64 75h-59q0 -123 122 -123q123 0 123 123zM243 455q-104 0 -162 -67t-58 -169t58 -165.5t158 -63.5q101 0 162 65t61 168q0 100 -57.5 166t-161.5 66zM241 50q-69 0 -107 48.5t-38 124.5t38.5 124
t106.5 48q69 0 108 -46.5t39 -124.5q0 -77 -39 -125.5t-108 -48.5z" />
    <glyph glyph-name="uni0150" unicode="&#x150;" horiz-adv-x="725" 
d="M-24 -213v1130h749v-1130h-749zM280 703l157 128l-49 51l-134 -153zM390 703l198 42l-18 68l-190 -73zM676 325q0 141 -91 238t-235 97q-142 0 -233.5 -96.5t-91.5 -238.5q0 -141 89.5 -238t233.5 -97t236 97t92 238zM597 324q0 -116 -66.5 -192t-178.5 -76
q-115 0 -181.5 77.5t-66.5 192.5t66.5 191.5t179.5 76.5q112 0 179.5 -75.5t67.5 -194.5z" />
    <glyph glyph-name="uni0151" unicode="&#x151;" horiz-adv-x="509" 
d="M-24 -213v1130h533v-1130h-533zM172 519l126 159l-57 40l-100 -177zM281 520l173 104l-40 59l-154 -132zM243 455q-104 0 -162 -67t-58 -169t58 -165.5t158 -63.5q101 0 162 65t61 168q0 100 -57.5 166t-161.5 66zM241 50q-69 0 -107 48.5t-38 124.5t38.5 124t106.5 48
q69 0 108 -46.5t39 -124.5q0 -77 -39 -125.5t-108 -48.5z" />
    <glyph glyph-name="uni0152" unicode="&#x152;" horiz-adv-x="994" 
d="M-24 917h1018v-1130h-1018v1130zM923 0l20 184l-65 7l-20 -127h-266v234h306v64h-306v224h257l20 -127l65 7l-20 184h-395v-39q-75 49 -168 49q-141 0 -233.5 -96.5t-92.5 -238.5q0 -141 91 -238t235 -97q94 0 168 48v-38h404zM519 116q-60 -60 -164 -60q-116 0 -184 79
t-68 192q0 114 68.5 190.5t182.5 76.5q97 0 165 -60v-418z" />
    <glyph glyph-name="uni0153" unicode="&#x153;" horiz-adv-x="830" 
d="M-24 -213v1130h854v-1130h-854zM243 455q-104 0 -162 -67t-58 -169t58 -165.5t158 -63.5q122 0 183 94q52 -94 176 -94q79 0 128.5 39t58.5 99l-59 13q-23 -91 -122 -91q-66 0 -103.5 40.5t-38.5 115.5h313q6 27 6 53q-1 83 -51 139t-138 56q-113 0 -167 -96
q-59 97 -182 97zM707 258h-244q7 61 38.5 99.5t88.5 38.5q61 0 92 -42t25 -96zM241 50q-69 0 -107 48.5t-38 124.5t38.5 124t106.5 48t106.5 -46t40.5 -122q0 -79 -38.5 -128t-108.5 -49z" />
    <glyph glyph-name="uni0154" unicode="&#x154;" horiz-adv-x="613" 
d="M-24 -213v1130h637v-1130h-637zM233 703l197 42l-17 68l-191 -73zM463 0h130v64h-82l-116 222q67 18 103 66.5t36 113.5q0 84 -55 134t-170 50h-281v-64h82v-522h-82v-64h243v64h-87v208h139zM457 463q0 -130 -155 -130h-118v253h116q83 0 120 -29.5t37 -93.5z" />
    <glyph glyph-name="uni0155" unicode="&#x155;" horiz-adv-x="416" 
d="M-24 -213v1130h440v-1130h-440zM220 520l172 104l-40 59l-154 -132zM270 453q-37 0 -67 -24.5t-43 -63.5v80h-146v-57h80v-331h-78v-57h251v57h-103v219q0 51 26 84t65 33q17 0 34 -6l17 -76l57 7l-17 112q-28 23 -76 23z" />
    <glyph glyph-name="uni0156" unicode="&#x156;" horiz-adv-x="613" 
d="M-24 -213v1130h637v-1130h-268l18 154h-67l-8 -154h-312zM463 0h130v64h-82l-116 222q67 18 103 66.5t36 113.5q0 84 -55 134t-170 50h-281v-64h82v-522h-82v-64h243v64h-87v208h139zM457 463q0 -130 -155 -130h-118v253h116q83 0 120 -29.5t37 -93.5z" />
    <glyph glyph-name="uni0157" unicode="&#x157;" horiz-adv-x="416" 
d="M-24 -213v1130h440v-1130h-272l18 154h-67l-8 -154h-111zM270 453q-37 0 -67 -24.5t-43 -63.5v80h-146v-57h80v-331h-78v-57h251v57h-103v219q0 51 26 84t65 33q17 0 34 -6l17 -76l57 7l-17 112q-28 23 -76 23z" />
    <glyph glyph-name="uni0158" unicode="&#x158;" horiz-adv-x="613" 
d="M-24 -213v1130h637v-1130h-637zM296 701l126 91l-19 35l-115 -64l-120 61l-20 -34l126 -89h22zM463 0h130v64h-82l-116 222q67 18 103 66.5t36 113.5q0 84 -55 134t-170 50h-281v-64h82v-522h-82v-64h243v64h-87v208h139zM457 463q0 -130 -155 -130h-118v253h116
q83 0 120 -29.5t37 -93.5z" />
    <glyph glyph-name="uni0159" unicode="&#x159;" horiz-adv-x="416" 
d="M-24 -213v1130h440v-1130h-440zM241 519l121 119l-26 33l-102 -85l-110 84l-26 -34l121 -117h22zM270 453q-37 0 -67 -24.5t-43 -63.5v80h-146v-57h80v-331h-78v-57h251v57h-103v219q0 51 26 84t65 33q17 0 34 -6l17 -76l57 7l-17 112q-28 23 -76 23z" />
    <glyph glyph-name="uni015A" unicode="&#x15a;" horiz-adv-x="529" 
d="M-24 -213v1130h553v-1130h-553zM200 703l197 42l-17 68l-191 -73zM476 182q0 41 -14 72.5t-31 49t-49.5 32t-51.5 20t-55 13.5q-9 2 -13 3l-44 11t-38 13.5t-33.5 20.5t-20.5 29.5t-9 41.5q0 51 37 79t99 28q74 0 124 -27l10 -97l60 6l-6 129q-31 24 -86 39t-109 15
q-89 0 -148 -46.5t-59 -133.5q0 -37 12.5 -65.5t29 -45t46.5 -29.5t51.5 -19t56.5 -13q34 -8 48.5 -11.5t41.5 -14.5t39 -23t22.5 -33.5t10.5 -50.5q0 -62 -43.5 -91.5t-113.5 -29.5q-77 0 -135 29l4 82l-60 6l-14 -128q73 -53 209 -53q103 0 167.5 50.5t64.5 141.5z" />
    <glyph glyph-name="uni015B" unicode="&#x15b;" horiz-adv-x="433" 
d="M-24 -213v1130h457v-1130h-457zM179 520l172 104l-40 59l-154 -132zM385 129q0 49 -28.5 77t-69 37.5t-81 16t-69 22.5t-28.5 48q0 66 96 66q49 0 91 -22l11 -72l58 7l-11 104q-69 41 -155 41q-68 0 -116.5 -32t-48.5 -97q0 -48 28.5 -75t69.5 -36.5t82.5 -16t70 -24
t28.5 -50.5q0 -36 -35 -55.5t-85 -19.5q-53 0 -99 22l3 59l-56 6l-14 -101q67 -44 169 -44q82 0 135.5 37.5t53.5 101.5z" />
    <glyph glyph-name="uni015C" unicode="&#x15c;" horiz-adv-x="529" 
d="M-24 -213v1130h553v-1130h-553zM375 702l19 35l-126 90h-21l-127 -93l19 -33l116 63zM476 182q0 41 -14 72.5t-31 49t-49.5 32t-51.5 20t-55 13.5q-9 2 -13 3l-44 11t-38 13.5t-33.5 20.5t-20.5 29.5t-9 41.5q0 51 37 79t99 28q74 0 124 -27l10 -97l60 6l-6 129
q-31 24 -86 39t-109 15q-89 0 -148 -46.5t-59 -133.5q0 -37 12.5 -65.5t29 -45t46.5 -29.5t51.5 -19t56.5 -13q34 -8 48.5 -11.5t41.5 -14.5t39 -23t22.5 -33.5t10.5 -50.5q0 -62 -43.5 -91.5t-113.5 -29.5q-77 0 -135 29l4 82l-60 6l-14 -128q73 -53 209 -53
q103 0 167.5 50.5t64.5 141.5z" />
    <glyph glyph-name="uni015D" unicode="&#x15d;" horiz-adv-x="433" 
d="M-24 -213v1130h457v-1130h-457zM315 519l27 34l-121 118h-22l-121 -120l25 -32l101 84zM385 129q0 49 -28.5 77t-69 37.5t-81 16t-69 22.5t-28.5 48q0 66 96 66q49 0 91 -22l11 -72l58 7l-11 104q-69 41 -155 41q-68 0 -116.5 -32t-48.5 -97q0 -48 28.5 -75t69.5 -36.5
t82.5 -16t70 -24t28.5 -50.5q0 -36 -35 -55.5t-85 -19.5q-53 0 -99 22l3 59l-56 6l-14 -101q67 -44 169 -44q82 0 135.5 37.5t53.5 101.5z" />
    <glyph glyph-name="uni015E" unicode="&#x15e;" horiz-adv-x="529" 
d="M-24 -213v1130h553v-1130h-553zM375 -125q0 35 -22.5 56.5t-66.5 21.5h-8v39q89 8 143.5 57t54.5 133q0 41 -14 72.5t-31 49t-49.5 32t-51.5 20t-55 13.5q-9 2 -13 3l-44 11t-38 13.5t-33.5 20.5t-20.5 29.5t-9 41.5q0 51 37 79t99 28q74 0 124 -27l10 -97l60 6l-6 129
q-31 24 -86 39t-109 15q-89 0 -148 -46.5t-59 -133.5q0 -37 12.5 -65.5t29 -45t46.5 -29.5t51.5 -19t56.5 -13q34 -8 48.5 -11.5t41.5 -14.5t39 -23t22.5 -33.5t10.5 -50.5q0 -62 -43.5 -91.5t-113.5 -29.5q-77 0 -135 29l4 82l-60 6l-14 -128q66 -48 191 -53v-70h30
q58 0 58 -40q0 -41 -51 -41q-46 0 -74 23l-18 -41q36 -30 96 -30q47 0 77.5 21t30.5 63z" />
    <glyph glyph-name="uni015F" unicode="&#x15f;" horiz-adv-x="433" 
d="M-24 -213v1130h457v-1130h-457zM324 -128q0 35 -22.5 56.5t-66.5 21.5h-8v42q70 6 114 43t44 94q0 49 -28.5 77t-69 37.5t-81 16t-69 22.5t-28.5 48q0 66 96 66q49 0 91 -22l11 -72l58 7l-11 104q-69 41 -155 41q-68 0 -116.5 -32t-48.5 -97q0 -48 28.5 -75t69.5 -36.5
t82.5 -16t70 -24t28.5 -50.5q0 -36 -35 -55.5t-85 -19.5q-53 0 -99 22l3 59l-56 6l-14 -101q59 -38 148 -43v-75h30q58 0 58 -40t-51 -40q-46 0 -74 23l-18 -41q34 -30 97 -30q47 0 77 21t30 63z" />
    <glyph glyph-name="uni0160" unicode="&#x160;" horiz-adv-x="529" 
d="M-24 -213v1130h553v-1130h-553zM257 701l126 91l-19 35l-115 -64l-120 61l-20 -34l126 -89h22zM476 182q0 41 -14 72.5t-31 49t-49.5 32t-51.5 20t-55 13.5q-9 2 -13 3l-44 11t-38 13.5t-33.5 20.5t-20.5 29.5t-9 41.5q0 51 37 79t99 28q74 0 124 -27l10 -97l60 6l-6 129
q-31 24 -86 39t-109 15q-89 0 -148 -46.5t-59 -133.5q0 -37 12.5 -65.5t29 -45t46.5 -29.5t51.5 -19t56.5 -13q34 -8 48.5 -11.5t41.5 -14.5t39 -23t22.5 -33.5t10.5 -50.5q0 -62 -43.5 -91.5t-113.5 -29.5q-77 0 -135 29l4 82l-60 6l-14 -128q73 -53 209 -53
q103 0 167.5 50.5t64.5 141.5z" />
    <glyph glyph-name="uni0161" unicode="&#x161;" horiz-adv-x="433" 
d="M-24 -213v1130h457v-1130h-457zM216 519l121 119l-26 33l-102 -85l-110 84l-26 -34l121 -117h22zM385 129q0 49 -28.5 77t-69 37.5t-81 16t-69 22.5t-28.5 48q0 66 96 66q49 0 91 -22l11 -72l58 7l-11 104q-69 41 -155 41q-68 0 -116.5 -32t-48.5 -97q0 -48 28.5 -75
t69.5 -36.5t82.5 -16t70 -24t28.5 -50.5q0 -36 -35 -55.5t-85 -19.5q-53 0 -99 22l3 59l-56 6l-14 -101q67 -44 169 -44q82 0 135.5 37.5t53.5 101.5z" />
    <glyph glyph-name="uni0162" unicode="&#x162;" horiz-adv-x="568" 
d="M-24 -213v1130h592v-1130h-278l18 154h-67l-8 -154h-257zM473 447l65 5l-20 198h-492l-19 -198l64 -5l20 139h144v-522h-112v-64h300v64h-115v522h145z" />
    <glyph glyph-name="uni0163" unicode="&#x163;" horiz-adv-x="367" 
d="M-24 -213v1130h391v-1130h-134l18 154h-67l-8 -154h-200zM341 120l-54 17q-9 -50 -26.5 -68t-45.5 -18q-72 0 -72 89v249h174v56h-174v143h-70v-143h-72v-56h72v-258q0 -66 34 -103.5t100 -37.5q59 0 91.5 32.5t42.5 97.5z" />
    <glyph glyph-name="uni0164" unicode="&#x164;" horiz-adv-x="568" 
d="M-24 -213v1130h592v-1130h-592zM282 701l126 91l-19 35l-115 -64l-120 61l-20 -34l126 -89h22zM473 447l65 5l-20 198h-492l-19 -198l64 -5l20 139h144v-522h-112v-64h300v64h-115v522h145z" />
    <glyph glyph-name="uni0165" unicode="&#x165;" horiz-adv-x="367" 
d="M-24 -213v1130h391v-1130h-391zM290 537l22 224h-66l-13 -224h57zM341 120l-54 17q-9 -50 -26.5 -68t-45.5 -18q-72 0 -72 89v249h174v56h-174v143h-70v-143h-72v-56h72v-258q0 -66 34 -103.5t100 -37.5q59 0 91.5 32.5t42.5 97.5z" />
    <glyph glyph-name="uni0166" unicode="&#x166;" horiz-adv-x="568" 
d="M-24 -213v1130h592v-1130h-592zM473 447l65 5l-20 198h-492l-19 -198l64 -5l20 139h144v-261h-150v-52h150v-209h-112v-64h300v64h-115v209h152v52h-152v261h145z" />
    <glyph glyph-name="uni0167" unicode="&#x167;" horiz-adv-x="367" 
d="M-24 -213v1130h391v-1130h-391zM351 120l-54 17q-9 -50 -29 -68t-50 -18q-75 0 -75 89v90h163v53h-163v106h174v56h-174v143h-70v-143h-72v-56h72v-106h-66v-53h66v-99q0 -66 35.5 -103.5t101.5 -37.5q121 0 141 130z" />
    <glyph glyph-name="uni0168" unicode="&#x168;" horiz-adv-x="714" 
d="M-24 -213v1130h738v-1130h-738zM496 798l-36 9q-12 -42 -47 -42q-25 0 -61 17.5t-58 17.5q-35 0 -56.5 -25.5t-25.5 -56.5l33 -13q12 39 50 39q18 0 57 -17.5t66 -17.5q62 0 78 89zM603 586h63v64h-225v-64h93v-319q0 -104 -48 -157.5t-139 -53.5q-92 0 -138 52t-46 150
v328h90v64h-231v-64h67v-330q0 -55 13 -101t41 -84t79 -59.5t121 -21.5q72 0 124.5 23.5t81 64t41.5 87.5t13 102v319z" />
    <glyph glyph-name="uni0169" unicode="&#x169;" horiz-adv-x="558" 
d="M-24 -213v1130h582v-1130h-582zM401 646l-36 9q-13 -43 -47 -43q-24 0 -61 18.5t-59 18.5q-35 0 -55.5 -28t-25.5 -60l33 -12q13 43 51 43q17 0 56 -19.5t67 -19.5q62 0 77 93zM382 0h150v57h-80v388h-163v-57h93v-204q-2 -51 -39.5 -92.5t-92.5 -41.5q-107 0 -107 130
v265h-148v-57h78v-228q0 -85 42.5 -127.5t111.5 -42.5q52 0 92.5 25.5t62.5 68.5v-84z" />
    <glyph glyph-name="uni016A" unicode="&#x16a;" horiz-adv-x="714" 
d="M-24 -213v1130h738v-1130h-738zM211 733h279v57h-279v-57zM603 586h63v64h-225v-64h93v-319q0 -104 -48 -157.5t-139 -53.5q-92 0 -138 52t-46 150v328h90v64h-231v-64h67v-330q0 -55 13 -101t41 -84t79 -59.5t121 -21.5q72 0 124.5 23.5t81 64t41.5 87.5t13 102v319z
" />
    <glyph glyph-name="uni016B" unicode="&#x16b;" horiz-adv-x="558" 
d="M-24 -213v1130h582v-1130h-582zM133 564h244v57h-244v-57zM382 0h150v57h-80v388h-163v-57h93v-204q-2 -51 -39.5 -92.5t-92.5 -41.5q-107 0 -107 130v265h-148v-57h78v-228q0 -85 42.5 -127.5t111.5 -42.5q52 0 92.5 25.5t62.5 68.5v-84z" />
    <glyph glyph-name="uni016C" unicode="&#x16c;" horiz-adv-x="714" 
d="M-24 -213v1130h738v-1130h-738zM469 816h-58q0 -38 -15 -53.5t-49 -15.5q-32 0 -48 15.5t-16 53.5h-58q0 -117 122 -117q62 0 92 28t30 89zM603 586h63v64h-225v-64h93v-319q0 -104 -48 -157.5t-139 -53.5q-92 0 -138 52t-46 150v328h90v64h-231v-64h67v-330
q0 -55 13 -101t41 -84t79 -59.5t121 -21.5q72 0 124.5 23.5t81 64t41.5 87.5t13 102v319z" />
    <glyph glyph-name="uni016D" unicode="&#x16d;" horiz-adv-x="558" 
d="M-24 -213v1130h582v-1130h-582zM373 655h-59q0 -75 -63 -75q-64 0 -64 75h-59q0 -123 122 -123q123 0 123 123zM382 0h150v57h-80v388h-163v-57h93v-204q-2 -51 -39.5 -92.5t-92.5 -41.5q-107 0 -107 130v265h-148v-57h78v-228q0 -85 42.5 -127.5t111.5 -42.5
q52 0 92.5 25.5t62.5 68.5v-84z" />
    <glyph glyph-name="uni016E" unicode="&#x16e;" horiz-adv-x="714" 
d="M-24 -213v1130h738v-1130h-738zM448 784q0 41 -24.5 65.5t-73.5 24.5q-47 0 -73 -25t-26 -67q0 -44 25 -68t73 -24t73.5 25.5t25.5 68.5zM399 784q0 -54 -50 -54q-49 0 -49 52t49 52q50 0 50 -50zM603 586h63v64h-225v-64h93v-319q0 -104 -48 -157.5t-139 -53.5
q-92 0 -138 52t-46 150v328h90v64h-231v-64h67v-330q0 -55 13 -101t41 -84t79 -59.5t121 -21.5q72 0 124.5 23.5t81 64t41.5 87.5t13 102v319z" />
    <glyph glyph-name="uni016F" unicode="&#x16f;" horiz-adv-x="558" 
d="M-24 -213v1130h582v-1130h-582zM349 607q0 42 -24.5 66.5t-73.5 24.5q-46 0 -72.5 -25.5t-26.5 -66.5q0 -44 25 -68t73 -24t73.5 25.5t25.5 67.5zM300 608q0 -24 -12.5 -39t-37.5 -15q-49 0 -49 52q0 23 12.5 37.5t36.5 14.5q50 0 50 -50zM382 0h150v57h-80v388h-163v-57
h93v-204q-2 -51 -39.5 -92.5t-92.5 -41.5q-107 0 -107 130v265h-148v-57h78v-228q0 -85 42.5 -127.5t111.5 -42.5q52 0 92.5 25.5t62.5 68.5v-84z" />
    <glyph glyph-name="uni0170" unicode="&#x170;" horiz-adv-x="714" 
d="M-24 -213v1130h738v-1130h-738zM256 703l157 128l-49 51l-134 -153zM366 703l198 42l-18 68l-190 -73zM603 586h63v64h-225v-64h93v-319q0 -104 -48 -157.5t-139 -53.5q-92 0 -138 52t-46 150v328h90v64h-231v-64h67v-330q0 -55 13 -101t41 -84t79 -59.5t121 -21.5
q72 0 124.5 23.5t81 64t41.5 87.5t13 102v319z" />
    <glyph glyph-name="uni0171" unicode="&#x171;" horiz-adv-x="558" 
d="M-24 -213v1130h582v-1130h-582zM174 519l126 159l-57 40l-100 -177zM283 520l173 104l-40 59l-154 -132zM382 0h150v57h-80v388h-163v-57h93v-204q-2 -51 -39.5 -92.5t-92.5 -41.5q-107 0 -107 130v265h-148v-57h78v-228q0 -85 42.5 -127.5t111.5 -42.5q52 0 92.5 25.5
t62.5 68.5v-84z" />
    <glyph glyph-name="uni0172" unicode="&#x172;" horiz-adv-x="714" 
d="M-24 -213v1130h738v-1130h-738zM603 586h63v64h-225v-64h93v-319q0 -104 -48 -157.5t-139 -53.5q-92 0 -138 52t-46 150v328h90v64h-231v-64h67v-330q0 -55 13 -101t41 -84t78.5 -59.5t120.5 -21.5q-58 -43 -58 -108q0 -43 28.5 -68.5t75.5 -25.5q42 0 79 20l-9 49
q-23 -15 -54 -15q-58 0 -58 59q0 57 56 94q55 9 95.5 35t63 64.5t32.5 81t10 91.5v319z" />
    <glyph glyph-name="uni0173" unicode="&#x173;" horiz-adv-x="558" 
d="M-24 -213v1130h582v-1130h-582zM382 0h47q-32 -20 -52 -52t-20 -69q0 -43 28.5 -67t75.5 -24q42 0 79 20l-9 49q-23 -15 -54 -15q-58 0 -58 56q0 62 65 102h48v57h-80v388h-163v-57h93v-204q-2 -51 -39.5 -92.5t-92.5 -41.5q-107 0 -107 130v265h-148v-57h78v-228
q0 -85 42.5 -127.5t111.5 -42.5q52 0 92.5 25.5t62.5 68.5v-84z" />
    <glyph glyph-name="uni0174" unicode="&#x174;" horiz-adv-x="887" 
d="M212 586v64h-236v267h911v-267h-234v-64h95l-107 -470h-4l-151 470h65v64h-225v-64h66l-150 -467h-5l-116 467h91zM561 702l19 35l-126 90h-21l-127 -93l19 -33l116 63zM887 -213h-911v799h67l165 -586h60l165 520h5l170 -520h59l154 586h66v-799z" />
    <glyph glyph-name="uni0175" unicode="&#x175;" horiz-adv-x="762" 
d="M-24 -213v1130h786v-1130h-786zM480 519l27 34l-121 118h-22l-121 -120l25 -32l101 84zM681 388h61v57h-200v-57h71l-72 -281h-5l-139 338h-47l-132 -338h-5l-83 281h75v57h-210v-57h59l126 -388h52l133 340h5l136 -340h54z" />
    <glyph glyph-name="uni0176" unicode="&#x176;" horiz-adv-x="570" 
d="M220 586v64h-244v267h594v-267h-240v-64h89l-138 -270h-5l-145 270h89zM400 702l19 35l-126 90h-21l-127 -93l19 -33l116 63zM570 -213h-594v799h72l190 -337v-185h-111v-64h299v64h-115v184l182 338h77v-799z" />
    <glyph glyph-name="uni0177" unicode="&#x177;" horiz-adv-x="507" 
d="M-24 -213v1130h531v-1130h-213v57h-76l60 156l157 388h53v57h-196v-57h72l-111 -299h-6l-125 299h78v57h-206v-57h53l162 -387l-58 -157h-83v-57h-92zM356 519l27 34l-121 118h-22l-121 -120l25 -32l101 84z" />
    <glyph glyph-name="uni0178" unicode="&#x178;" horiz-adv-x="570" 
d="M220 586v64h-244v267h594v-267h-240v-64h89l-138 -270h-5l-145 270h89zM153 803v-85h81v85h-81zM325 803v-85h80v85h-80zM570 -213h-594v799h72l190 -337v-185h-111v-64h299v64h-115v184l182 338h77v-799z" />
    <glyph glyph-name="uni0179" unicode="&#x179;" horiz-adv-x="574" 
d="M-24 -213v1130h598v-1130h-598zM223 703l197 42l-17 68l-191 -73zM20 0h480l26 193l-63 9l-28 -138h-314v3l386 543l-2 40h-448l-25 -188l62 -9l28 133h280v-3l-384 -539z" />
    <glyph glyph-name="uni017A" unicode="&#x17a;" horiz-adv-x="461" 
d="M-24 -213v1130h485v-1130h-485zM189 520l172 104l-40 59l-154 -132zM25 0h374l24 138l-57 9l-23 -90h-229l282 346l-3 42h-358l-12 -139l56 -7l13 89h210l-280 -345z" />
    <glyph glyph-name="uni017B" unicode="&#x17b;" horiz-adv-x="574" 
d="M-24 -213v1130h598v-1130h-598zM242 803v-85h81v85h-81zM20 0h480l26 193l-63 9l-28 -138h-314v3l386 543l-2 40h-448l-25 -188l62 -9l28 133h280v-3l-384 -539z" />
    <glyph glyph-name="uni017C" unicode="&#x17c;" horiz-adv-x="461" 
d="M-24 -213v1130h485v-1130h-485zM185 644v-91h77v91h-77zM25 0h374l24 138l-57 9l-23 -90h-229l282 346l-3 42h-358l-12 -139l56 -7l13 89h210l-280 -345z" />
    <glyph glyph-name="uni017D" unicode="&#x17d;" horiz-adv-x="574" 
d="M-24 -213v1130h598v-1130h-598zM290 701l126 91l-19 35l-115 -64l-120 61l-20 -34l126 -89h22zM20 0h480l26 193l-63 9l-28 -138h-314v3l386 543l-2 40h-448l-25 -188l62 -9l28 133h280v-3l-384 -539z" />
    <glyph glyph-name="uni017E" unicode="&#x17e;" horiz-adv-x="461" 
d="M-24 -213v1130h485v-1130h-485zM235 519l121 119l-26 33l-102 -85l-110 84l-26 -34l121 -117h22zM25 0h374l24 138l-57 9l-23 -90h-229l282 346l-3 42h-358l-12 -139l56 -7l13 89h210l-280 -345z" />
    <glyph glyph-name="uni018F" unicode="&#x18f;" horiz-adv-x="681" 
d="M-24 917h705v-1130h-705v1130zM108 435l13 106q84 53 198 53q104 0 163.5 -66t67.5 -182h-520v-64q0 -135 78.5 -213.5t211.5 -78.5q149 0 229 95t80 238q0 147 -80 242t-226 95q-156 0 -265 -82l-9 -136zM551 288q-7 -103 -62.5 -167.5t-165.5 -64.5q-75 0 -125 33
t-69.5 82t-19.5 111v6h442z" />
    <glyph glyph-name="uni0192" unicode="&#x192;" horiz-adv-x="382" 
d="M-24 917h406v-1130h-406v1130zM39 226h78l-11 -197q-3 -53 -15 -72t-43 -19q-28 0 -44 4v-50q29 -4 44 -4q70 0 96.5 35.5t30.5 94.5l11 208h120v46h-118l7 107q4 56 25.5 78t67.5 22q15 0 65 -6v52q-28 4 -66 4q-73 0 -115 -38t-46 -110l-7 -109h-80v-46z" />
    <glyph glyph-name="uni01C4" unicode="&#x1c4;" horiz-adv-x="1278" 
d="M-24 -213v1130h1302v-1130h-1302zM994 701l126 91l-20 35l-114 -64l-120 61l-20 -34l125 -89h23zM651 326q0 144 -88 234t-244 90h-291v-63h82v-524h-82v-63h294q152 0 240.5 90.5t88.5 235.5zM725 0h479l26 193l-63 9l-28 -138h-314v3l386 543l-1 40h-448l-26 -188
l62 -9l28 133h280v-3l-384 -539zM573 325q0 -122 -66.5 -192t-188.5 -70h-135v524h135q122 0 188.5 -71t66.5 -191z" />
    <glyph glyph-name="uni01C5" unicode="&#x1c5;" horiz-adv-x="1165" 
d="M-24 -213v1130h1189v-1130h-1189zM940 519l121 119l-26 33l-101 -85l-111 84l-26 -34l121 -117h22zM651 326q0 144 -88 234t-244 90h-291v-63h82v-524h-82v-63h294q152 0 240.5 90.5t88.5 235.5zM573 325q0 -122 -66.5 -192t-188.5 -70h-135v524h135q122 0 188.5 -71
t66.5 -191zM729 0h375l23 138l-56 9l-24 -90h-228l281 346l-3 42h-358l-12 -139l56 -7l13 89h211l-281 -345z" />
    <glyph glyph-name="uni01C6" unicode="&#x1c6;" horiz-adv-x="1010" 
d="M-24 -213v1130h1034v-1130h-1034zM374 0h147v57h-77v631h-178v-57h108v-258q-45 81 -149 81q-101 0 -151 -71.5t-50 -171.5q0 -103 52 -162t139 -59q104 0 159 100v-90zM785 519l121 119l-25 33l-102 -85l-111 84l-26 -34l121 -117h22zM575 0h374l23 138l-56 9l-23 -90
h-229l281 346l-3 42h-358l-12 -139l56 -7l13 89h211l-281 -345zM374 268v-71q-2 -54 -43 -100.5t-98 -46.5q-60 0 -97.5 43.5t-37.5 122.5q0 76 36.5 127t106.5 51q54 0 92.5 -35.5t40.5 -90.5z" />
    <glyph glyph-name="uni01C7" unicode="&#x1c7;" horiz-adv-x="996" 
d="M-24 -213v1130h1020v-1130h-1020zM28 0h469l20 208l-65 5l-20 -149h-249v522h109v64h-264v-64h82v-522h-82v-64zM876 586h72v64h-274v-64h129v-420q0 -107 -100 -107q-35 0 -59.5 15.5t-43.5 54.5l-53 -40q47 -99 162 -99q80 0 123.5 44.5t43.5 131.5v420z" />
    <glyph glyph-name="uni01C8" unicode="&#x1c8;" horiz-adv-x="774" 
d="M-24 -213v1130h798v-1130h-244q160 5 160 209v449h-169v-57h99v-392q0 -42 -7.5 -71.5t-17.5 -45t-27 -24.5t-31 -11t-34 -2v-55h-527zM614 651v-91h76v91h-76zM28 0h469l20 208l-65 5l-20 -149h-249v522h109v64h-264v-64h82v-522h-82v-64z" />
    <glyph glyph-name="uni01C9" unicode="&#x1c9;" horiz-adv-x="513" 
d="M-24 -213v1130h537v-1130h-244q160 5 160 209v449h-170v-57h100v-392q0 -42 -7.5 -71.5t-17.5 -45t-27 -24.5t-31 -11t-34 -2v-55h-266zM6 0h226v57h-78v631h-149v-57h79v-574h-78v-57zM353 651v-91h76v91h-76z" />
    <glyph glyph-name="uni01CA" unicode="&#x1ca;" horiz-adv-x="1180" 
d="M-24 -213v1130h1204v-1130h-1204zM608 586h81v64h-249v-64h98v-437h-4l-370 501h-140v-64h86v-522h-75v-64h248v64h-103v448h4l377 -512h47v586zM1060 586h72v64h-274v-64h129v-420q0 -107 -100 -107q-35 0 -59 15.5t-44 54.5l-53 -40q47 -99 163 -99q79 0 122.5 44.5
t43.5 131.5v420z" />
    <glyph glyph-name="uni01CB" unicode="&#x1cb;" horiz-adv-x="969" 
d="M-24 -213v1130h993v-1130h-244q160 5 160 209v449h-169v-57h99v-392q0 -42 -7.5 -71.5t-17.5 -45t-27 -24.5t-31 -11t-34 -2v-55h-722zM809 651v-91h76v91h-76zM608 586h81v64h-249v-64h98v-437h-4l-370 501h-140v-64h86v-522h-75v-64h248v64h-103v448h4l377 -512h47v586
z" />
    <glyph glyph-name="uni01CC" unicode="&#x1cc;" horiz-adv-x="819" 
d="M-24 917h843v-1130h-244q160 5 160 209v449h-169v-57h99v-392q0 -42 -7.5 -71.5t-17.5 -45t-27 -24.5t-31 -11t-34 -2v-55h-572v1130zM659 560h76v91h-76v-91zM550 0v57h-77v228q0 85 -42 127t-111 42q-108 0 -156 -88v79h-150v-57h80v-331h-78v-57h226v57h-78v208
q2 53 39.5 91.5t95.5 38.5q103 0 103 -131v-207h-77v-57h225z" />
    <glyph glyph-name="uni01D3" unicode="&#x1d3;" horiz-adv-x="714" 
d="M-24 -213v1130h738v-1130h-738zM358 701l126 91l-19 35l-115 -64l-120 61l-20 -34l126 -89h22zM603 586h63v64h-225v-64h93v-319q0 -104 -48 -157.5t-139 -53.5q-92 0 -138 52t-46 150v328h90v64h-231v-64h67v-330q0 -55 13 -101t41 -84t79 -59.5t121 -21.5
q72 0 124.5 23.5t81 64t41.5 87.5t13 102v319z" />
    <glyph glyph-name="uni01D4" unicode="&#x1d4;" horiz-adv-x="558" 
d="M-24 -213v1130h582v-1130h-582zM265 520l121 119l-26 33l-102 -85l-110 84l-26 -34l121 -117h22zM382 0h150v57h-80v388h-163v-57h93v-204q-2 -51 -39.5 -92.5t-92.5 -41.5q-107 0 -107 130v265h-148v-57h78v-228q0 -85 42.5 -127.5t111.5 -42.5q52 0 92.5 25.5
t62.5 68.5v-84z" />
    <glyph glyph-name="uni01E2" unicode="&#x1e2;" horiz-adv-x="912" 
d="M300 586l-258 -522h-66v853h936v-1130h-936v213h229v64h-90l62 125h259v-125h-81v-64h483l19 184l-64 7l-20 -127h-263v234h306v64h-306v224h254l20 -127l64 8l-19 183h-626v-64h97zM502 733h279v57h-279v-57zM436 586v-340h-232l166 340h66z" />
    <glyph glyph-name="uni01E3" unicode="&#x1e3;" horiz-adv-x="755" 
d="M-24 -213v1130h779v-1130h-779zM246 564h244v57h-244v-57zM710 128l-59 13q-23 -90 -122 -90q-66 0 -102 40t-39 115h312q6 27 6 53q0 83 -50 139t-139 56q-94 0 -152 -72q-34 72 -132 72q-101 0 -165 -43l-17 -103l58 -7l18 77q37 18 90 18q97 0 97 -108v-40
q-48 4 -78 4q-211 0 -211 -137q0 -65 42.5 -95t97.5 -30q110 0 175 105q51 -105 183 -105q79 0 128.5 39t58.5 99zM632 257h-243q7 62 37.5 100t88.5 38q62 0 92.5 -42t24.5 -96zM100 123q0 83 133 83q19 0 81 -5v-33q-3 -53 -42.5 -86.5t-88.5 -33.5q-34 0 -58.5 18
t-24.5 57z" />
    <glyph glyph-name="uni01F1" unicode="&#x1f1;" horiz-adv-x="1275" 
d="M-24 -213v1130h1299v-1130h-1299zM651 326q0 144 -88 234t-244 90h-291v-63h82v-524h-82v-63h294q152 0 240.5 90.5t88.5 235.5zM721 0h480l26 193l-64 9l-27 -138h-314v3l385 543l-1 40h-448l-25 -188l61 -9l28 133h281v-3l-384 -539zM573 325q0 -122 -66.5 -192
t-188.5 -70h-135v524h135q122 0 188.5 -71t66.5 -191z" />
    <glyph glyph-name="uni01F2" unicode="&#x1f2;" horiz-adv-x="1165" 
d="M-24 -213v1130h1189v-1130h-1189zM651 326q0 144 -88 234t-244 90h-291v-63h82v-524h-82v-63h294q152 0 240.5 90.5t88.5 235.5zM573 325q0 -122 -66.5 -192t-188.5 -70h-135v524h135q122 0 188.5 -71t66.5 -191zM729 0h375l23 138l-56 9l-24 -90h-228l281 346l-3 42
h-358l-12 -139l56 -7l13 89h211l-281 -345z" />
    <glyph glyph-name="uni01F3" unicode="&#x1f3;" horiz-adv-x="1010" 
d="M-24 -213v1130h1034v-1130h-1034zM374 0h147v57h-77v631h-178v-57h108v-258q-45 81 -149 81q-101 0 -151 -71.5t-50 -171.5q0 -103 52 -162t139 -59q104 0 159 100v-90zM575 0h374l23 138l-56 9l-23 -90h-229l281 346l-3 42h-358l-12 -139l56 -7l13 89h211l-281 -345z
M374 268v-71q-2 -54 -43 -100.5t-98 -46.5q-60 0 -97.5 43.5t-37.5 122.5q0 76 36.5 127t106.5 51q54 0 92.5 -35.5t40.5 -90.5z" />
    <glyph glyph-name="uni01FC" unicode="&#x1fc;" horiz-adv-x="912" 
d="M300 586l-258 -522h-66v853h936v-1130h-936v213h229v64h-90l62 125h259v-125h-81v-64h483l19 184l-64 7l-20 -127h-263v234h306v64h-306v224h254l20 -127l64 8l-19 183h-626v-64h97zM590 703l197 42l-17 68l-191 -73zM436 586v-340h-232l166 340h66z" />
    <glyph glyph-name="uni01FD" unicode="&#x1fd;" horiz-adv-x="755" 
d="M-24 -213v1130h779v-1130h-779zM375 520l172 104l-40 59l-154 -132zM710 128l-59 13q-23 -90 -122 -90q-66 0 -102 40t-39 115h312q6 27 6 53q0 83 -50 139t-139 56q-94 0 -152 -72q-34 72 -132 72q-101 0 -165 -43l-17 -103l58 -7l18 77q37 18 90 18q97 0 97 -108v-40
q-48 4 -78 4q-211 0 -211 -137q0 -65 42.5 -95t97.5 -30q110 0 175 105q51 -105 183 -105q79 0 128.5 39t58.5 99zM632 257h-243q7 62 37.5 100t88.5 38q62 0 92.5 -42t24.5 -96zM100 123q0 83 133 83q19 0 81 -5v-33q-3 -53 -42.5 -86.5t-88.5 -33.5q-34 0 -58.5 18
t-24.5 57z" />
    <glyph glyph-name="uni01FE" unicode="&#x1fe;" horiz-adv-x="725" 
d="M-24 -213v1130h749v-1130h-749zM319 703l197 42l-17 68l-191 -73zM676 325q0 135 -84 230l85 95h-79l-50 -56q-85 66 -198 66q-142 0 -233.5 -96.5t-91.5 -238.5q0 -139 83 -231l-83 -94h73l50 56q85 -66 200 -66q144 0 236 97t92 238zM350 594q90 0 153 -52l-346 -391
q-53 73 -53 175q0 115 66.5 191.5t179.5 76.5zM597 324q0 -116 -66.5 -192t-178.5 -76q-95 0 -157 53l349 390q53 -72 53 -175z" />
    <glyph glyph-name="uni01FF" unicode="&#x1ff;" horiz-adv-x="509" 
d="M-24 -213v1130h533v-1130h-533zM232 520l173 104l-40 59l-154 -132zM464 223q0 96 -53 160l53 62h-62l-26 -31q-54 40 -131 40q-105 0 -163 -66.5t-58 -168.5q0 -94 52 -159l-52 -60h61l24 29q55 -39 131 -39q102 0 163 65t61 168zM99 223q0 76 38 123t106 47
q53 0 89 -30l-207 -245q-26 43 -26 105zM388 224q0 -77 -38 -125t-107 -48q-53 0 -89 30l209 246q25 -41 25 -103z" />
    <glyph glyph-name="uni0218" unicode="&#x218;" horiz-adv-x="529" 
d="M-24 -213v1130h553v-1130h-243l18 154h-67l-8 -154h-253zM476 182q0 41 -14 72.5t-31 49t-49.5 32t-51.5 20t-55 13.5q-9 2 -13 3l-44 11t-38 13.5t-33.5 20.5t-20.5 29.5t-9 41.5q0 51 37 79t99 28q74 0 124 -27l10 -97l60 6l-6 129q-31 24 -86 39t-109 15
q-89 0 -148 -46.5t-59 -133.5q0 -37 12.5 -65.5t29 -45t46.5 -29.5t51.5 -19t56.5 -13q34 -8 48.5 -11.5t41.5 -14.5t39 -23t22.5 -33.5t10.5 -50.5q0 -62 -43.5 -91.5t-113.5 -29.5q-77 0 -135 29l4 82l-60 6l-14 -128q73 -53 209 -53q103 0 167.5 50.5t64.5 141.5z" />
    <glyph glyph-name="uni0219" unicode="&#x219;" horiz-adv-x="433" 
d="M-24 -213v1130h457v-1130h-209l18 154h-67l-8 -154h-191zM385 129q0 49 -28.5 77t-69 37.5t-81 16t-69 22.5t-28.5 48q0 66 96 66q49 0 91 -22l11 -72l58 7l-11 104q-69 41 -155 41q-68 0 -116.5 -32t-48.5 -97q0 -48 28.5 -75t69.5 -36.5t82.5 -16t70 -24t28.5 -50.5
q0 -36 -35 -55.5t-85 -19.5q-53 0 -99 22l3 59l-56 6l-14 -101q67 -44 169 -44q82 0 135.5 37.5t53.5 101.5z" />
    <glyph glyph-name="uni021A" unicode="&#x21a;" horiz-adv-x="568" 
d="M-24 -213v1130h592v-1130h-278l18 154h-67l-8 -154h-257zM473 447l65 5l-20 198h-492l-19 -198l64 -5l20 139h144v-522h-112v-64h300v64h-115v522h145z" />
    <glyph glyph-name="uni021B" unicode="&#x21b;" horiz-adv-x="367" 
d="M-24 -213v1130h391v-1130h-134l18 154h-67l-8 -154h-200zM341 120l-54 17q-9 -50 -26.5 -68t-45.5 -18q-72 0 -72 89v249h174v56h-174v143h-70v-143h-72v-56h72v-258q0 -66 34 -103.5t100 -37.5q59 0 91.5 32.5t42.5 97.5z" />
    <glyph glyph-name="uni0232" unicode="&#x232;" horiz-adv-x="570" 
d="M220 586v64h-244v267h594v-267h-240v-64h89l-138 -270h-5l-145 270h89zM141 733h279v57h-279v-57zM570 -213h-594v799h72l190 -337v-185h-111v-64h299v64h-115v184l182 338h77v-799z" />
    <glyph glyph-name="uni0233" unicode="&#x233;" horiz-adv-x="507" 
d="M-24 -213v1130h531v-1130h-213v57h-76l60 156l157 388h53v57h-196v-57h72l-111 -299h-6l-125 299h78v57h-206v-57h53l162 -387l-58 -157h-83v-57h-92zM126 564h244v57h-244v-57z" />
    <glyph glyph-name="uni0237" unicode="&#x237;" horiz-adv-x="247" 
d="M-24 917h271v-1130h-244q160 5 160 209v449h-170v-57h99v-392q0 -51 -9.5 -84t-28.5 -47t-36 -18.5t-42 -4.5v1075z" />
    <glyph glyph-name="uni0259" unicode="&#x259;" horiz-adv-x="466" 
d="M-24 -213v1130h490v-1130h-490zM25 317l59 -13q23 90 122 90q66 0 102.5 -40.5t39.5 -115.5h-314q-5 -30 -5 -53q0 -83 50 -139t138 -56q94 0 149.5 66.5t55.5 171.5q0 106 -57.5 166t-153.5 60q-79 0 -128 -38.5t-58 -98.5zM103 186h244q-7 -61 -38.5 -99.5t-89.5 -38.5
q-61 0 -91.5 42t-24.5 96z" />
    <glyph glyph-name="uni02C6" unicode="&#x2c6;" horiz-adv-x="240" 
d="M213 519l-111 84l-101 -84l-25 32l121 120h22l121 -118z" />
    <glyph glyph-name="uni02C7" unicode="&#x2c7;" horiz-adv-x="240" 
d="M119 519h-22l-121 117l26 34l110 -84l102 85l26 -33z" />
    <glyph glyph-name="uni02D8" unicode="&#x2d8;" horiz-adv-x="221" 
d="M221 655q0 -123 -123 -123q-122 0 -122 123h59q0 -75 64 -75q63 0 63 75h59z" />
    <glyph glyph-name="uni02D9" unicode="&#x2d9;" horiz-adv-x="53" 
d="M-24 644h77v-91h-77v91z" />
    <glyph glyph-name="uni02DA" unicode="&#x2da;" horiz-adv-x="173" 
d="M173 607q0 -42 -25.5 -67.5t-73.5 -25.5t-73 24t-25 68q0 41 26.5 66.5t72.5 25.5q49 0 73.5 -24.5t24.5 -66.5zM124 608q0 50 -50 50q-24 0 -36.5 -14.5t-12.5 -37.5q0 -52 49 -52q25 0 37.5 15t12.5 39z" />
    <glyph glyph-name="uni02DB" unicode="&#x2db;" horiz-adv-x="159" 
d="M159 -189q-37 -20 -79 -20q-47 0 -75.5 24.5t-28.5 66.5q0 43 27.5 78t68.5 52l45 -4q-79 -41 -79 -107q0 -56 58 -56q29 0 54 15z" />
    <glyph glyph-name="uni02DC" unicode="&#x2dc;" horiz-adv-x="260" 
d="M260 646q-16 -93 -77 -93q-28 0 -67 19.5t-56 19.5q-38 0 -51 -43l-33 12q5 32 25.5 60t55.5 28q22 0 59 -18.5t61 -18.5q34 0 47 43z" />
    <glyph glyph-name="uni02DD" unicode="&#x2dd;" horiz-adv-x="289" 
d="M7 519l-31 22l100 177l57 -40zM116 520l-21 31l154 132l40 -59z" />
    <glyph glyph-name="uni0323" unicode="&#x323;" horiz-adv-x="53" 
d="M-24 -83h77v-91h-77v91z" />
    <glyph glyph-name="uni0394" unicode="&#x394;" horiz-adv-x="538" 
d="M-24 917h562v-1130h-562v1130zM11 0h491l-240 661zM93 57l168 449l160 -449h-328z" />
    <glyph glyph-name="uni03A3" unicode="&#x3a3;" horiz-adv-x="538" 
d="M-24 917h562v-1130h-562v1130zM19 0h477v63h-394l194 252v22l-194 250h394v63h-477v-63l203 -264l-203 -260v-63z" />
    <glyph glyph-name="uni03C0" unicode="&#x3c0;" horiz-adv-x="579" 
d="M-24 917h603v-1130h-603v1130zM312 0h226v57h-77v331h80v57h-526v-57h79v-331h-77v-57h225v57h-77v331h225v-331h-78v-57z" />
    <glyph glyph-name="uni1E46" unicode="&#x1e46;" horiz-adv-x="733" 
d="M-24 -213v1130h757v-1130h-757zM608 586h81v64h-249v-64h98v-437h-4l-370 501h-140v-64h86v-522h-75v-64h248v64h-103v448h4l377 -512h47v586zM321 -83v-91h77v91h-77z" />
    <glyph glyph-name="uni1E47" unicode="&#x1e47;" horiz-adv-x="570" 
d="M-24 -213v1130h594v-1130h-594zM325 0h225v57h-77v228q0 85 -42 127t-111 42q-108 0 -156 -88v79h-150v-57h80v-331h-78v-57h226v57h-78v208q2 53 39.5 91.5t95.5 38.5q103 0 103 -131v-207h-77v-57zM243 -83v-91h77v91h-77z" />
    <glyph glyph-name="uni1E62" unicode="&#x1e62;" horiz-adv-x="529" 
d="M-24 -213v1130h553v-1130h-553zM476 182q0 41 -14 72.5t-31 49t-49.5 32t-51.5 20t-55 13.5q-9 2 -13 3l-44 11t-38 13.5t-33.5 20.5t-20.5 29.5t-9 41.5q0 51 37 79t99 28q74 0 124 -27l10 -97l60 6l-6 129q-31 24 -86 39t-109 15q-89 0 -148 -46.5t-59 -133.5
q0 -37 12.5 -65.5t29 -45t46.5 -29.5t51.5 -19t56.5 -13q34 -8 48.5 -11.5t41.5 -14.5t39 -23t22.5 -33.5t10.5 -50.5q0 -62 -43.5 -91.5t-113.5 -29.5q-77 0 -135 29l4 82l-60 6l-14 -128q73 -53 209 -53q103 0 167.5 50.5t64.5 141.5zM223 -83v-91h77v91h-77z" />
    <glyph glyph-name="uni1E63" unicode="&#x1e63;" horiz-adv-x="433" 
d="M-24 -213v1130h457v-1130h-457zM385 129q0 49 -28.5 77t-69 37.5t-81 16t-69 22.5t-28.5 48q0 66 96 66q49 0 91 -22l11 -72l58 7l-11 104q-69 41 -155 41q-68 0 -116.5 -32t-48.5 -97q0 -48 28.5 -75t69.5 -36.5t82.5 -16t70 -24t28.5 -50.5q0 -36 -35 -55.5t-85 -19.5
q-53 0 -99 22l3 59l-56 6l-14 -101q67 -44 169 -44q82 0 135.5 37.5t53.5 101.5zM166 -83v-91h77v91h-77z" />
    <glyph glyph-name="uni1E80" unicode="&#x1e80;" horiz-adv-x="887" 
d="M212 586v64h-236v267h911v-267h-234v-64h95l-107 -470h-4l-151 470h65v64h-225v-64h66l-150 -467h-5l-116 467h91zM500 703l10 37l-191 73l-17 -68zM887 -213h-911v799h67l165 -586h60l165 520h5l170 -520h59l154 586h66v-799z" />
    <glyph glyph-name="uni1E81" unicode="&#x1e81;" horiz-adv-x="762" 
d="M-24 -213v1130h786v-1130h-786zM387 520l21 31l-154 132l-40 -59zM681 388h61v57h-200v-57h71l-72 -281h-5l-139 338h-47l-132 -338h-5l-83 281h75v57h-210v-57h59l126 -388h52l133 340h5l136 -340h54z" />
    <glyph glyph-name="uni1E82" unicode="&#x1e82;" horiz-adv-x="887" 
d="M212 586v64h-236v267h911v-267h-234v-64h95l-107 -470h-4l-151 470h65v64h-225v-64h66l-150 -467h-5l-116 467h91zM382 703l197 42l-17 68l-191 -73zM887 -213h-911v799h67l165 -586h60l165 520h5l170 -520h59l154 586h66v-799z" />
    <glyph glyph-name="uni1E83" unicode="&#x1e83;" horiz-adv-x="762" 
d="M-24 -213v1130h786v-1130h-786zM365 520l172 104l-40 59l-154 -132zM681 388h61v57h-200v-57h71l-72 -281h-5l-139 338h-47l-132 -338h-5l-83 281h75v57h-210v-57h59l126 -388h52l133 340h5l136 -340h54z" />
    <glyph glyph-name="uni1E84" unicode="&#x1e84;" horiz-adv-x="887" 
d="M212 586v64h-236v267h911v-267h-234v-64h95l-107 -470h-4l-151 470h65v64h-225v-64h66l-150 -467h-5l-116 467h91zM317 803v-85h81v85h-81zM489 803v-85h80v85h-80zM887 -213h-911v799h67l165 -586h60l165 520h5l170 -520h59l154 586h66v-799z" />
    <glyph glyph-name="uni1E85" unicode="&#x1e85;" horiz-adv-x="762" 
d="M-24 -213v1130h786v-1130h-786zM250 640v-85h81v85h-81zM421 640v-85h81v85h-81zM681 388h61v57h-200v-57h71l-72 -281h-5l-139 338h-47l-132 -338h-5l-83 281h75v57h-210v-57h59l126 -388h52l133 340h5l136 -340h54z" />
    <glyph glyph-name="uni1EBC" unicode="&#x1ebc;" horiz-adv-x="584" 
d="M-24 -213v1130h608v-1130h-608zM455 798l-36 9q-12 -42 -47 -42q-24 0 -61 17.5t-58 17.5q-35 0 -56.5 -25.5t-25.5 -56.5l33 -13q12 39 50 39q18 0 57 -17.5t66 -17.5q62 0 78 89zM28 0h484l19 184l-63 7l-20 -127h-265v234h307v64h-307v224h256l20 -127l64 7l-20 184
h-475v-64h82v-522h-82v-64z" />
    <glyph glyph-name="uni1EBD" unicode="&#x1ebd;" horiz-adv-x="466" 
d="M-24 -213v1130h490v-1130h-490zM366 646l-36 9q-13 -43 -47 -43q-24 0 -61 18.5t-59 18.5q-35 0 -55.5 -28t-25.5 -60l33 -12q13 43 51 43q17 0 56 -19.5t67 -19.5q61 0 77 93zM421 128l-59 13q-23 -91 -123 -91q-66 0 -102 40.5t-39 115.5h313q6 27 6 53q-1 83 -51 139
t-138 56q-93 0 -148.5 -66.5t-55.5 -171.5q0 -106 57 -166t153 -60q79 0 128.5 39t58.5 99zM343 258h-244q7 62 38 100t89 38q61 0 92 -42t25 -96z" />
    <glyph glyph-name="uni1EF2" unicode="&#x1ef2;" horiz-adv-x="570" 
d="M220 586v64h-244v267h594v-267h-240v-64h89l-138 -270h-5l-145 270h89zM330 703l10 37l-191 73l-17 -68zM570 -213h-594v799h72l190 -337v-185h-111v-64h299v64h-115v184l182 338h77v-799z" />
    <glyph glyph-name="uni1EF3" unicode="&#x1ef3;" horiz-adv-x="507" 
d="M-24 -213v1130h531v-1130h-213v57h-76l60 156l157 388h53v57h-196v-57h72l-111 -299h-6l-125 299h78v57h-206v-57h53l162 -387l-58 -157h-83v-57h-92zM280 520l21 31l-154 132l-40 -59z" />
    <glyph glyph-name="uni2002" unicode="&#x2002;" horiz-adv-x="593" 
d="M-30 -213v1130h626v-1130h-626z" />
    <glyph glyph-name="uni2003" unicode="&#x2003;" horiz-adv-x="876" 
d="M-20 -213v1130h897v-1130h-897z" />
    <glyph glyph-name="uni2004" unicode="&#x2004;" horiz-adv-x="332" 
d="M-30 -213v1130h364v-1130h-364z" />
    <glyph glyph-name="uni2005" unicode="&#x2005;" horiz-adv-x="600" 
d="M-30 -213v1130h633v-1130h-633z" />
    <glyph glyph-name="uni2006" unicode="&#x2006;" horiz-adv-x="332" 
d="M-30 -213v1130h364v-1130h-364z" />
    <glyph glyph-name="uni2007" unicode="&#x2007;" horiz-adv-x="601" 
d="M-30 -213v1130h633v-1130h-633z" />
    <glyph glyph-name="uni2008" unicode="&#x2008;" horiz-adv-x="200" 
d="M-30 -213v1130h229v-1130h-229z" />
    <glyph glyph-name="uni2009" unicode="&#x2009;" horiz-adv-x="160" 
d="M-30 -213v1130h193v-1130h-193z" />
    <glyph glyph-name="uni200A" unicode="&#x200a;" horiz-adv-x="79" 
d="M-30 -213v1130h108v-1130h-108z" />
    <glyph glyph-name="uni2012" unicode="&#x2012;" horiz-adv-x="323" 
d="M-24 917h347v-636h-347v636zM323 221v-434h-347v434h347z" />
    <glyph glyph-name="uni2013" unicode="&#x2013;" horiz-adv-x="619" 
d="M-24 917h643v-1130h-643v1130zM47 206h502v51h-502v-51z" />
    <glyph glyph-name="uni2014" unicode="&#x2014;" horiz-adv-x="1075" 
d="M-24 917h1099v-1130h-1099v1130zM60 206h940v51h-940v-51z" />
    <glyph glyph-name="uni2018" unicode="&#x2018;" horiz-adv-x="199" 
d="M-24 -213v1130h223v-1130h-223zM100 440l53 216h-69l-53 -216h69z" />
    <glyph glyph-name="uni2019" unicode="&#x2019;" horiz-adv-x="197" 
d="M-24 -213v1130h221v-1130h-221zM82 695l-52 -216h69l53 216h-70z" />
    <glyph glyph-name="uni201A" unicode="&#x201a;" horiz-adv-x="197" 
d="M-24 -213v1130h221v-1130h-221zM62 114l-52 -216h69l53 216h-70z" />
    <glyph glyph-name="uni201C" unicode="&#x201c;" horiz-adv-x="361" 
d="M361 917v-1130h-385v1130h385zM102 452l52 216h-69l-53 -216h70zM266 452l53 216h-70l-52 -216h69z" />
    <glyph glyph-name="uni201D" unicode="&#x201d;" horiz-adv-x="360" 
d="M-24 -213v1130h384v-1130h-384zM77 670l-53 -217h69l53 217h-69zM241 670l-53 -217h69l53 217h-69z" />
    <glyph glyph-name="uni201E" unicode="&#x201e;" horiz-adv-x="363" 
d="M-24 -213v1130h387v-1130h-387zM62 114l-52 -216h69l53 216h-70zM229 114l-53 -216h69l53 216h-69z" />
    <glyph glyph-name="uni2020" unicode="&#x2020;" horiz-adv-x="463" 
d="M-24 917h487v-1130h-487v1130zM15 366h173v-507h63v507h174v62h-174v222h-63v-222h-173v-62z" />
    <glyph glyph-name="uni2021" unicode="&#x2021;" horiz-adv-x="509" 
d="M-24 917h533v-1130h-533v1130zM38 366h173v-247h-173v-62h173v-198h63v198h174v62h-174v247h174v62h-174v222h-63v-222h-173v-62z" />
    <glyph glyph-name="uni2022" unicode="&#x2022;" horiz-adv-x="353" 
d="M-24 917h377v-1130h-377v1130zM55 244q0 -47 31 -78.5t77 -31.5q47 0 79.5 32t32.5 78t-32.5 78.5t-79.5 32.5q-45 0 -76.5 -32.5t-31.5 -78.5z" />
    <glyph glyph-name="uni2026" unicode="&#x2026;" horiz-adv-x="581" 
d="M-24 917h605v-1130h-605v1130zM43 0h97v108h-97v-108zM229 0h97v108h-97v-108zM416 0h98v108h-98v-108z" />
    <glyph glyph-name="uni2030" unicode="&#x2030;" horiz-adv-x="987" 
d="M-24 917h1011v-1130h-1011v1130zM161 244q70 0 108.5 39.5t38.5 108.5t-37.5 104t-101.5 35q-66 0 -106.5 -38.5t-40.5 -109.5q0 -68 38 -103.5t101 -35.5zM492 521l-174 -234l-230 -287h75l202 267l202 254h-75zM162 294q-80 0 -80 90q0 97 85 97q81 0 81 -90
q0 -97 -86 -97zM492 -10q69 0 108 39.5t39 108.5q0 68 -37.5 103.5t-101.5 35.5q-67 0 -107 -38.5t-40 -109.5q0 -69 38 -104t101 -35zM800 -10q69 0 107.5 39.5t38.5 108.5q0 68 -37.5 103.5t-100.5 35.5q-67 0 -107.5 -38.5t-40.5 -109.5q0 -69 38 -104t102 -35zM492 40
q-79 0 -79 90q0 97 85 97q81 0 81 -90q0 -97 -87 -97zM800 40q-80 0 -80 90q0 97 86 97q80 0 80 -90q0 -97 -86 -97z" />
    <glyph glyph-name="uni2039" unicode="&#x2039;" horiz-adv-x="283" 
d="M-24 917h307v-1130h-307v1130zM225 25l-129 246l129 240h-60l-138 -240l138 -246h60z" />
    <glyph glyph-name="uni203A" unicode="&#x203a;" horiz-adv-x="283" 
d="M-24 917h307v-1130h-307v1130zM94 25l138 246l-138 240h-60l128 -240l-128 -246h60z" />
    <glyph glyph-name="uni203D" unicode="&#x203d;" horiz-adv-x="637" 
d="M-24 917h661v-1130h-661v1130zM279 466l28 98q36 25 76 25q46 0 89 -25.5t43 -72.5q0 -34 -26.5 -59.5t-65 -44t-76.5 -39.5t-66 -57t-29 -86l50 -14q4 44 35.5 76.5t74 53t84 41.5t70.5 54t29 78q0 70 -58.5 112t-138.5 42q-92 0 -151 -52l-24 -118zM230 204l-137 440
l-77 -32l165 -429zM201 0h89v97h-89v-97z" />
    <glyph glyph-name="uni2044" unicode="&#x2044;" horiz-adv-x="401" 
d="M348 650h53l-190 -325l-182 -325h-53l197 337z" />
    <glyph glyph-name="uni2070" unicode="&#x2070;" horiz-adv-x="375" 
d="M-24 917h399v-1130h-399v1130zM25 593q0 -184 148 -184q153 0 153 189q0 187 -150 187q-151 0 -151 -192zM88 599q0 65 18.5 102t68.5 37q52 0 70 -36.5t18 -100.5q0 -70 -19.5 -107.5t-69.5 -37.5q-49 0 -67.5 37.5t-18.5 105.5z" />
    <glyph glyph-name="uni2071" unicode="&#x2071;" horiz-adv-x="202" 
d="M-24 917h226v-1130h-226v1130zM60 781h61v63h-61v-63zM13 662h51v-204h-49v-43h155v43h-48v247h-109v-43z" />
    <glyph glyph-name="uni2074" unicode="&#x2074;" horiz-adv-x="353" 
d="M-24 917h377v-1130h-377v1130zM194 414h58v90h57l4 44h-61v231h-114l-130 -232l6 -43h180v-90zM167 734h27v-186h-133z" />
    <glyph glyph-name="uni2075" unicode="&#x2075;" horiz-adv-x="331" 
d="M-24 917h355v-1130h-355v1130zM288 524q0 115 -163 115h-27v95h123l6 -50l46 5l-5 90h-225v-169l20 -16q51 3 55 3q108 0 108 -73q0 -33 -21 -51.5t-59 -18.5q-67 0 -83 63l-42 -12q6 -45 39.5 -71t84.5 -26q62 0 102.5 29.5t40.5 86.5z" />
    <glyph glyph-name="uni2076" unicode="&#x2076;" horiz-adv-x="344" 
d="M-24 917h368v-1130h-368v1130zM181 740q41 0 73 -38l32 34q-46 49 -112 49q-72 0 -110.5 -56t-38.5 -146q0 -174 138 -174q64 0 97.5 34.5t33.5 89.5q0 48 -26 79.5t-82 31.5q-75 0 -99 -55q1 79 23 115t71 36zM169 600q66 0 66 -70q0 -74 -70 -74q-38 0 -55 20t-21 58
q2 27 21 46.5t59 19.5z" />
    <glyph glyph-name="uni2077" unicode="&#x2077;" horiz-adv-x="304" 
d="M-24 917h328v-1130h-328v1130zM15 779v-107h51v62h149l-139 -319h58l144 337l-8 27h-255z" />
    <glyph glyph-name="uni2078" unicode="&#x2078;" horiz-adv-x="349" 
d="M-24 917h373v-1130h-373v1130zM158 409q64 0 104 27t40 73q0 37 -24.5 60t-68.5 42q38 15 59 34t21 50q0 40 -36 65t-91 25q-58 0 -93.5 -26.5t-35.5 -69.5q0 -31 21 -52t58 -39q-42 -16 -65.5 -37t-23.5 -57q0 -45 37.5 -70t97.5 -25zM96 695q0 21 18 34t48 13
q29 0 48 -13.5t19 -40.5q0 -22 -14 -35t-41 -26q-27 11 -40.5 18.5t-25.5 20.5t-12 29zM161 452q-37 0 -58 16.5t-21 45.5q0 24 16.5 39t47.5 30q33 -14 47.5 -21t30 -22.5t15.5 -34.5q0 -24 -22 -38.5t-56 -14.5z" />
    <glyph glyph-name="uni2079" unicode="&#x2079;" horiz-adv-x="343" 
d="M-24 917h367v-1130h-367v1130zM142 454q-45 0 -76 38l-32 -34q45 -49 115 -49q72 0 109 55t37 145q0 176 -139 176q-63 0 -97 -34.5t-34 -89.5q0 -48 26 -79.5t83 -31.5q73 0 98 54q-1 -80 -21.5 -115t-68.5 -35zM150 594q-66 0 -66 70q0 74 71 74q37 0 54 -20t22 -59
q-3 -26 -22.5 -45.5t-58.5 -19.5z" />
    <glyph glyph-name="uni207A" unicode="&#x207a;" horiz-adv-x="286" 
d="M-24 917h310v-1130h-310v1130zM15 578h98v-93h41v93h93v39h-93v94h-41v-94h-98v-39z" />
    <glyph glyph-name="uni207B" unicode="&#x207b;" horiz-adv-x="323" 
d="M-24 917h347v-1130h-347v1130zM35 578h232v39h-232v-39z" />
    <glyph glyph-name="uni207C" unicode="&#x207c;" horiz-adv-x="390" 
d="M-24 917h414v-1130h-414v1130zM35 645h297v40h-297v-40zM35 510h297v39h-297v-39z" />
    <glyph glyph-name="uni207D" unicode="&#x207d;" horiz-adv-x="214" 
d="M-24 917h238v-1130h-238v1130zM129 855q-104 -127 -104 -274q0 -150 103 -277h52q-106 125 -106 277q0 144 106 274h-51z" />
    <glyph glyph-name="uni207E" unicode="&#x207e;" horiz-adv-x="214" 
d="M-24 917h238v-1130h-238v1130zM62 303q104 129 104 274q0 146 -103 277h-53q107 -128 107 -277q0 -146 -107 -274h52z" />
    <glyph glyph-name="uni207F" unicode="&#x207f;" horiz-adv-x="402" 
d="M-24 917h426v-1130h-426v1130zM220 415h155v43h-47v144q0 54 -29.5 81.5t-75.5 27.5q-71 0 -101 -56v50h-110v-43h51v-204h-48v-43h154v43h-47v133q1 33 23 55t59 22q65 0 65 -83v-127h-49v-43z" />
    <glyph glyph-name="uni2080" unicode="&#x2080;" horiz-adv-x="375" 
d="M-24 917h399v-1130h-399v1130zM25 178q0 -184 148 -184q153 0 153 189q0 187 -150 187q-151 0 -151 -192zM88 184q0 65 18.5 102t68.5 37q52 0 70 -36.5t18 -100.5q0 -70 -19.5 -107.5t-69.5 -37.5q-49 0 -67.5 37.5t-18.5 105.5z" />
    <glyph glyph-name="uni2081" unicode="&#x2081;" horiz-adv-x="256" 
d="M-24 917h280v-1130h-280v1130zM21 319h75v-274h-75v-45h205v45h-72v319h-133v-45z" />
    <glyph glyph-name="uni2082" unicode="&#x2082;" horiz-adv-x="344" 
d="M-24 917h368v-1130h-368v1130zM73 252l13 56q25 17 57 17q71 0 71 -57q0 -16 -5.5 -32.5t-19 -34.5t-25 -32t-34 -34t-35 -31t-39 -33t-36.5 -30l5 -41h272l10 94l-47 5l-10 -54h-156q5 4 30.5 24t40.5 33t39.5 36.5t38 42.5t24.5 44t11 48q0 41 -30 69t-90 28
q-76 0 -119 -37l-11 -76z" />
    <glyph glyph-name="uni2083" unicode="&#x2083;" horiz-adv-x="338" 
d="M-24 917h362v-1130h-362v1130zM79 258l11 50q28 16 60 16q30 0 46.5 -14t16.5 -38q0 -60 -89 -64v-38q104 -3 104 -63q0 -30 -21 -49t-58 -19q-68 0 -84 63l-42 -12q6 -45 39.5 -71t84.5 -26q62 0 103 28t41 80q0 78 -90 91v2q74 22 74 86q0 40 -30.5 64.5t-80.5 24.5
q-78 0 -121 -37l-9 -69z" />
    <glyph glyph-name="uni2084" unicode="&#x2084;" horiz-adv-x="353" 
d="M-24 917h377v-1130h-377v1130zM194 -1h58v90h57l4 44h-61v231h-114l-130 -232l6 -43h180v-90zM167 319h27v-186h-133z" />
    <glyph glyph-name="uni2085" unicode="&#x2085;" horiz-adv-x="331" 
d="M-24 917h355v-1130h-355v1130zM288 109q0 115 -163 115h-27v95h123l6 -50l46 5l-5 90h-225v-169l20 -16q51 3 55 3q108 0 108 -73q0 -33 -21 -51.5t-59 -18.5q-67 0 -83 63l-42 -12q6 -45 39.5 -71t84.5 -26q62 0 102.5 29.5t40.5 86.5z" />
    <glyph glyph-name="uni2086" unicode="&#x2086;" horiz-adv-x="344" 
d="M-24 917h368v-1130h-368v1130zM181 325q41 0 73 -38l32 34q-46 49 -112 49q-72 0 -110.5 -56t-38.5 -146q0 -174 138 -174q64 0 97.5 34.5t33.5 89.5q0 48 -26 79.5t-82 31.5q-75 0 -99 -55q1 79 23 115t71 36zM169 185q66 0 66 -70q0 -74 -70 -74q-38 0 -55 20t-21 58
q2 27 21 46.5t59 19.5z" />
    <glyph glyph-name="uni2087" unicode="&#x2087;" horiz-adv-x="304" 
d="M-24 917h328v-1130h-328v1130zM15 364v-107h51v62h149l-139 -319h58l144 337l-8 27h-255z" />
    <glyph glyph-name="uni2088" unicode="&#x2088;" horiz-adv-x="349" 
d="M-24 917h373v-1130h-373v1130zM158 -6q64 0 104 27t40 73q0 37 -24.5 60t-68.5 42q38 15 59 34t21 50q0 40 -36 65t-91 25q-58 0 -93.5 -26.5t-35.5 -69.5q0 -32 21 -52.5t58 -38.5q-42 -16 -65.5 -37t-23.5 -57q0 -45 37.5 -70t97.5 -25zM96 280q0 21 18 34t48 13
q29 0 48 -13.5t19 -40.5q0 -22 -14 -35t-41 -26q-27 11 -40.5 18.5t-25.5 20.5t-12 29zM161 37q-37 0 -58 16.5t-21 45.5q0 24 16.5 39t47.5 30q33 -14 47.5 -21t30 -22.5t15.5 -34.5q0 -24 -22 -38.5t-56 -14.5z" />
    <glyph glyph-name="uni2089" unicode="&#x2089;" horiz-adv-x="343" 
d="M-24 917h367v-1130h-367v1130zM142 39q-45 0 -76 38l-32 -34q45 -49 115 -49q72 0 109 55t37 145q0 176 -139 176q-63 0 -97 -34.5t-34 -89.5q0 -48 26 -79.5t83 -31.5q73 0 98 54q-1 -80 -21.5 -115t-68.5 -35zM150 179q-66 0 -66 70q0 74 71 74q37 0 54 -20t22 -59
q-3 -26 -22.5 -45.5t-58.5 -19.5z" />
    <glyph glyph-name="uni208A" unicode="&#x208a;" horiz-adv-x="286" 
d="M-24 917h310v-1130h-310v1130zM15 163h98v-93h41v93h93v39h-93v94h-41v-94h-98v-39z" />
    <glyph glyph-name="uni208B" unicode="&#x208b;" horiz-adv-x="323" 
d="M-24 917h347v-1130h-347v1130zM35 163h232v39h-232v-39z" />
    <glyph glyph-name="uni208C" unicode="&#x208c;" horiz-adv-x="390" 
d="M-24 917h414v-1130h-414v1130zM35 230h297v40h-297v-40zM35 95h297v39h-297v-39z" />
    <glyph glyph-name="uni208D" unicode="&#x208d;" horiz-adv-x="214" 
d="M-24 917h238v-1130h-238v1130zM129 440q-104 -127 -104 -274q0 -150 103 -277h52q-106 125 -106 277q0 146 106 274h-51z" />
    <glyph glyph-name="uni208E" unicode="&#x208e;" horiz-adv-x="214" 
d="M-24 917h238v-1130h-238v1130zM62 -112q104 128 104 273q0 147 -103 278h-53q107 -128 107 -278q0 -145 -107 -273h52z" />
    <glyph glyph-name="uni2090" unicode="&#x2090;" horiz-adv-x="344" 
d="M-24 917h368v-1130h-368v1130zM147 257q64 0 64 -66v-31q-48 3 -54 3q-139 0 -139 -88q0 -42 28 -62t64 -20q64 0 101 60q2 -60 57 -60q24 0 43 11v31q-9 -3 -18 -3q-24 0 -24 30v136q0 49 -30 73.5t-84 24.5q-66 0 -111 -33l-9 -67l45 -5l11 50q32 16 56 16zM132 34
q-22 0 -37.5 12t-15.5 36q0 52 80 52q22 0 52 -4q-1 -46 -24 -71t-55 -25z" />
    <glyph glyph-name="uni2091" unicode="&#x2091;" horiz-adv-x="331" 
d="M-24 917h355v-1130h-355v1130zM158 296q-64 0 -102 -43.5t-38 -112.5t39 -108t105 -39q56 0 90 26.5t39 65.5l-48 10q-12 -56 -76 -56q-83 0 -88 95h205q15 65 -20.5 113.5t-105.5 48.5zM157 253q38 0 56.5 -25t14.5 -57h-148q4 37 23 59.5t54 22.5z" />
    <glyph glyph-name="uni2092" unicode="&#x2092;" horiz-adv-x="361" 
d="M-24 917h385v-1130h-385v1130zM17 142q0 -67 40 -108t108 -41q69 0 111.5 42.5t42.5 109.5q0 65 -39 108t-111 43t-112 -43.5t-40 -110.5zM79 146q0 47 23.5 75t65.5 28t65.5 -27.5t23.5 -75.5t-24 -77.5t-66 -29.5q-43 0 -65.5 30t-22.5 77z" />
    <glyph glyph-name="uni2093" unicode="&#x2093;" horiz-adv-x="357" 
d="M-24 917h381v-1130h-381v1130zM202 247h33l-64 -74l-63 74h39v43h-141v-43h36l95 -102l-93 -102h-39v-43h128v43h-35l66 75l66 -75h-36v-43h137v43h-37l-96 106l90 98h36v43h-122v-43z" />
    <glyph glyph-name="uni2095" unicode="&#x2095;" horiz-adv-x="396" 
d="M-24 917h420v-1130h-420v1130zM114 175q1 33 23.5 55.5t58.5 22.5q66 0 66 -83v-127h-49v-43h155v43h-48v144q0 54 -29 81.5t-75 27.5q-70 0 -102 -56v207h-106v-43h48v-361h-48v-43h154v43h-48v132z" />
    <glyph glyph-name="uni2096" unicode="&#x2096;" horiz-adv-x="366" 
d="M-24 917h390v-1130h-390v1130zM6 404h50v-361h-48v-43h146v43h-40v89h51l75 -89h-42v-43h144v43h-37l-95 114l74 90h44v43h-143v-43h44l-61 -74h-54v274h-108v-43z" />
    <glyph glyph-name="uni2097" unicode="&#x2097;" horiz-adv-x="194" 
d="M-24 917h218v-1130h-218v1130zM6 404h50v-361h-48v-43h155v43h-49v404h-108v-43z" />
    <glyph glyph-name="uni2098" unicode="&#x2098;" horiz-adv-x="596" 
d="M-24 917h620v-1130h-620v1130zM214 0h155v43h-48v132q2 31 22.5 54.5t55.5 23.5q63 0 63 -83v-127h-49v-43h155v43h-48v144q0 54 -28 81.5t-73 27.5q-71 0 -104 -69q-9 34 -35 51.5t-61 17.5q-65 0 -97 -57v51h-109v-43h51v-204h-49v-43h153v43h-46v135q2 30 22.5 52.5
t55.5 22.5q63 0 63 -83v-127h-49v-43z" />
    <glyph glyph-name="uni2099" unicode="&#x2099;" horiz-adv-x="403" 
d="M-24 917h427v-1130h-427v1130zM220 0h156v43h-48v144q0 54 -29 81.5t-75 27.5q-72 0 -102 -56v50h-109v-43h51v-204h-49v-43h155v43h-48v133q1 33 23.5 55t58.5 22q65 0 65 -83v-127h-49v-43z" />
    <glyph glyph-name="uni209A" unicode="&#x209a;" horiz-adv-x="390" 
d="M-24 917h414v-1130h-414v1130zM5 247h51v-342h-48v-43h171v43h-65v136q28 -48 98 -48q67 0 101.5 47t34.5 113t-35.5 104.5t-92.5 38.5q-74 0 -106 -65v59h-109v-43zM198 39q-36 0 -60 21.5t-24 57.5v42q1 34 26.5 62t63.5 28q36 0 59 -26.5t23 -75.5q0 -48 -22.5 -78.5
t-65.5 -30.5z" />
    <glyph glyph-name="uni209B" unicode="&#x209b;" horiz-adv-x="313" 
d="M-24 917h337v-1130h-337v1130zM143 37q-45 0 -70 18l1 38l-45 5l-9 -70q52 -35 134 -35q53 0 84.5 24t31.5 67q0 39 -28.5 59t-63 23t-63 14.5t-28.5 35.5q0 37 60 37q28 0 55 -11l10 -42l45 6l-9 63q-48 27 -112 27q-45 0 -78.5 -21t-33.5 -65q0 -31 19.5 -49
t46.5 -24.5t54.5 -11t47 -15t19.5 -30.5q0 -43 -68 -43z" />
    <glyph glyph-name="uni209C" unicode="&#x209c;" horiz-adv-x="280" 
d="M-24 917h304v-1130h-304v1130zM7 247h46v-161q0 -44 26 -68.5t72 -24.5q87 0 99 87l-42 13q-9 -54 -51 -54q-45 0 -45 55v153h113v43h-113v92h-59v-92h-46v-43z" />
    <glyph glyph-name="uni20A1" unicode="&#x20a1;" horiz-adv-x="686" 
d="M-24 917h710v-1130h-710v1130zM316 -71h54l23 63q116 11 176 58l17 125l-62 6l-19 -96q-33 -16 -88 -25l225 629h-54l-48 -136q-20 37 -59 64l26 72h-53l-18 -49q-50 20 -102 20q-133 0 -219 -95.5t-86 -242.5q0 -113 49.5 -192.5t133.5 -114.5l-30 -86h53l25 70
q28 -7 78 -9zM107 325q0 123 65 196t172 73q38 0 71 -13l-179 -498q-129 60 -129 242zM283 64l178 496q43 -31 54 -74l-154 -430q-41 0 -78 8z" />
    <glyph glyph-name="uni20A2" unicode="&#x20a2;" horiz-adv-x="642" 
d="M-24 -213v1130h666v-1130h-666zM561 50l17 125l-62 6l-19 -96q-53 -26 -127 -29v146q0 49 25 81t63 32q19 0 33 -5l16 -69l53 7l-15 103q-27 22 -73 22q-36 0 -65 -24t-41 -62v79h-147v-58h80v-246q-92 16 -144 86t-52 176q0 119 66 194.5t172 75.5q92 0 161 -46l18 -95
l63 6l-18 125q-90 76 -230 76q-138 0 -223.5 -99.5t-85.5 -239.5q0 -143 89 -237t229 -94q139 0 217 60z" />
    <glyph glyph-name="uni20A3" unicode="&#x20a3;" horiz-adv-x="779" 
d="M-24 917h803v-1130h-803v1130zM183 586h253l20 -130l65 7l-20 187h-473v-64h82v-522h-82v-64h268v64h-113v241h266v-248h-78v-57h252v57h-103v142q0 52 25.5 84.5t64.5 32.5q17 0 35 -6l17 -76l57 7l-17 112q-29 23 -77 23q-37 0 -66.5 -24.5t-43.5 -63.5v81h-332v217z
" />
    <glyph glyph-name="uni20A4" unicode="&#x20a4;" horiz-adv-x="576" 
d="M-24 917h600v-1130h-600v1130zM37 360h76v-81h-76v-49h75q-2 -127 -90 -169v-61h340q57 0 98 33.5t59 70.5l-40 37q-51 -77 -132 -77h-239q74 48 76 166h228v49h-227v81h227v49h-227v17q7 168 128 168q64 0 103 -25l17 -88l61 7l-18 124q-54 48 -169 48q-82 0 -137.5 -59
t-56.5 -179v-13h-76v-49z" />
    <glyph glyph-name="uni20A5" unicode="&#x20a5;" horiz-adv-x="859" 
d="M-24 -213v1130h883v-1130h-883zM627 0h213v57h-78v228q0 85 -41 127t-108 42q-23 0 -49 -7l52 118h-53l-71 -162q-24 -26 -37 -56q-13 54 -51 80.5t-91 26.5q-100 0 -149 -92v83h-149v-57h79v-331h-78v-57h230v57h-82v206q2 49 36.5 90.5t91.5 41.5q100 0 100 -131v-89
l-52 -118h-13v-30l-69 -157h53l57 130h172v57h-77v159l72 165q25 14 56 14q101 0 101 -131v-207h-65v-57z" />
    <glyph glyph-name="uni20A6" unicode="&#x20a6;" horiz-adv-x="733" 
d="M-24 -213v1130h757v-1130h-757zM26 285v-41h84v-180h-75v-64h248v64h-103v180h199l182 -244h47v244h82v41h-82v85h82v42h-82v174h81v64h-249v-64h98v-174h-196l-178 238h-140v-64h86v-174h-84v-42h84v-85h-84zM180 512h4l71 -100h-75v100zM434 285l-61 85h165v-85h-104z
M180 285v85h107l61 -85h-168zM534 149l-68 95h72v-95h-4z" />
    <glyph glyph-name="uni20A7" unicode="&#x20a7;" horiz-adv-x="1308" 
d="M-24 -213v1130h1332v-1130h-1332zM530 451q0 88 -56 143.5t-170 55.5h-276v-64h82v-522h-82v-64h267v64h-112v178h127q99 0 159.5 55t60.5 154zM890 120l-54 17q-14 -86 -79 -86q-75 0 -75 89v249h174v56h-174v143h-70v-143h-71v-56h71v-258q0 -66 35.5 -103.5
t101.5 -37.5q121 0 141 130zM452 449q0 -68 -39 -105.5t-112 -37.5h-118v280h115q77 0 115.5 -36t38.5 -101zM1260 129q0 49 -28.5 77t-69 37.5t-81 16t-69 22.5t-28.5 48q0 66 96 66q49 0 91 -22l11 -72l58 7l-10 104q-71 41 -156 41q-68 0 -116.5 -32t-48.5 -97
q0 -48 28.5 -75t69.5 -36.5t82.5 -16t70 -24t28.5 -50.5q0 -36 -34.5 -55.5t-85.5 -19.5q-53 0 -99 22l3 59l-56 6l-13 -101q29 -19 75.5 -31.5t92.5 -12.5q82 0 135.5 37.5t53.5 101.5z" />
    <glyph glyph-name="uni20A8" unicode="&#x20a8;" horiz-adv-x="938" 
d="M-24 917h962v-1130h-962v1130zM28 0h243v64h-88v208h140l56 -98q44 -82 128.5 -133t189.5 -51q95 0 144 38t49 102q0 41 -20.5 67t-51 35.5t-66.5 18t-66.5 14t-51 22t-20.5 43.5q0 34 26 50.5t69 16.5q40 0 92 -24l11 -71l57 7l-10 104q-71 41 -156 41q-68 0 -116 -32
t-48 -97q0 -48 28.5 -74.5t69.5 -35.5t82.5 -16t70 -24t28.5 -51q0 -38 -31.5 -57.5t-84.5 -19.5q-78 0 -149.5 43.5t-108.5 110.5l-49 85q67 18 103 66t36 115q0 83 -56 133t-170 50h-280v-64h81v-522h-81v-64zM299 586q83 0 120 -29.5t37 -93.5q0 -130 -155 -130h-118v253
h116z" />
    <glyph glyph-name="uni20A9" unicode="&#x20a9;" horiz-adv-x="887" 
d="M192 650h-216v267h911v-267h-214v-64h95l-44 -161h-187l-51 161h65v64h-225v-64h66l-52 -161h-193l-46 161h91v64zM-6 292v-44h135l79 -248h60l79 248h179l82 -248h59l74 248h132v44h-119l26 88h93v45h-80l48 161h46v-799h-911v799h47l50 -161h-79v-45h93l28 -88h-121z
M433 520h5l30 -95h-65zM186 292l-25 88h164l-28 -88h-111zM580 292l-28 88h160l-23 -88h-109zM361 292l27 88h95l28 -88h-150zM637 116l-42 132h81l-35 -132h-4zM237 119l-37 129h83l-41 -129h-5z" />
    <glyph glyph-name="uni20AA" unicode="&#x20aa;" horiz-adv-x="776" 
d="M-24 917h800v-1130h-800v1130zM74 0h72v588h142q44 0 70 -5.5t43.5 -16t25 -37.5t10 -57.5t2.5 -89.5v-138h73v133q0 83 -7.5 130.5t-31.5 82.5t-67.5 47.5t-117.5 12.5h-214v-650zM328 62v344h-72v-406h227q42 0 73.5 5t54 14t37.5 27t24.5 37.5t14 52.5t6 64.5
t1.5 80.5v369h-73v-374v-49t-1.5 -40.5t-4 -36t-7 -28t-11.5 -23.5t-17 -16t-24 -12.5t-31.5 -6t-40.5 -2.5h-156z" />
    <glyph glyph-name="uni20AB" unicode="&#x20ab;" horiz-adv-x="547" 
d="M-24 917h571v-1130h-571v1130zM357 137h135v49h-69v400h61v48h-61v54h-66v-54h-165v-48h165v-131q-40 73 -143 73q-93 0 -137.5 -57.5t-44.5 -145.5q0 -94 47 -145.5t128 -51.5q104 0 150 91v-82zM229 477q60 0 94 -32t34 -83v-49q0 -50 -37.5 -91.5t-96.5 -41.5
q-55 0 -88 37.5t-33 111.5q0 66 31 107t96 41zM60 0h388v52h-388v-52z" />
    <glyph glyph-name="uni20AC" unicode="&#x20ac;" horiz-adv-x="597" 
d="M-24 917h621v-1130h-621v1130zM23 297h59q-2 -11 -2 -39q0 -29 2 -40h-59v-45h67q23 -83 85 -132t150 -49q110 0 183 50l16 119l-60 6l-19 -96q-45 -21 -107 -21q-64 0 -108 32.5t-62 90.5h164v45h-174q-3 20 -3 42q0 26 2 37h200v46h-191q18 60 61.5 94.5t108.5 34.5
q67 0 106 -20l19 -97l60 6l-16 118q-63 50 -178 50q-89 0 -152 -51.5t-85 -134.5h-67v-46z" />
    <glyph glyph-name="uni20AD" unicode="&#x20ad;" horiz-adv-x="638" 
d="M-24 -213v1130h662v-1130h-662zM387 0h234v64h-73l-172 235h173v63h-183l169 225h74v64h-229v-64h77l-167 -225h-106v224h76v64h-232v-64h82v-224h-66v-63h66v-235h-82v-64h231v64h-75v235h108l172 -235h-77v-64z" />
    <glyph glyph-name="uni20AE" unicode="&#x20ae;" horiz-adv-x="568" 
d="M-24 -213v1130h592v-1130h-592zM104 193v-55l131 47v-121h-112v-64h300v64h-115v146l140 52v54l-140 -51v71l140 51v56l-140 -53v196h145l20 -139l65 5l-20 198h-492l-19 -198l64 -5l20 139h144v-220l-131 -48v-54l131 48v-71z" />
    <glyph glyph-name="uni20B1" unicode="&#x20b1;" horiz-adv-x="628" 
d="M-24 -213v1130h652v-1130h-652zM530 451q0 10 -2 26h62v45h-71q-19 59 -73 93.5t-142 34.5h-276v-64h82v-64h-85v-45h85v-62h-85v-45h85v-306h-82v-64h267v64h-112v178h127q76 0 130.5 33t75.5 95h74v45h-63q3 17 3 36zM298 586q102 0 136 -64h-251v64h115zM452 449
q0 -4 -3 -34h-266v62h267q2 -18 2 -28zM301 306h-118v64h248q-35 -64 -130 -64z" />
    <glyph glyph-name="uni20B4" unicode="&#x20b4;" horiz-adv-x="585" 
d="M-24 917h609v-1130h-609v1130zM26 371h268q-5 -2 -71 -26.5t-94 -43.5h-103v-39h62q-30 -39 -30 -99q0 -86 62 -129.5t164 -43.5q123 0 198 60l17 122l-63 7l-18 -94q-46 -30 -128 -30q-154 0 -154 116q0 58 41 91h357v39h-282q18 7 55 20t66.5 25t50.5 25h110v39h-68
q26 36 26 87q0 84 -56 123.5t-144 39.5q-53 0 -112.5 -13.5t-93.5 -33.5l-9 -136l58 -6l13 99q55 25 132 25q62 0 98 -26t36 -79q0 -50 -39 -80h-349v-39z" />
    <glyph glyph-name="uni20B9" unicode="&#x20b9;" horiz-adv-x="529" 
d="M-24 917h553v-1130h-553v1130zM337 0h114v56h-66l-96 173q49 13 78.5 45t35.5 76h52v43h-51q-5 44 -34 73h98v55h-421v-56h159q110 0 122 -72h-281v-43h281q-13 -81 -126 -81h-155v-53h173z" />
    <glyph glyph-name="uni20BA" unicode="&#x20ba;" horiz-adv-x="595" 
d="M-24 917h619v-1130h-619v1130zM47 586h82v-195l-85 -36v-51l85 37v-75l-85 -36v-51l85 36v-151h-82v-64h222q146 0 215.5 89.5t69.5 244.5h-72q0 -132 -51 -201t-165 -69h-63v183l206 89v51l-206 -89v75l206 88v51l-206 -89v163h97v64h-253v-64z" />
    <glyph glyph-name="uni20BD" unicode="&#x20bd;" horiz-adv-x="588" 
d="M-24 917h612v-1130h-612v1130zM44 255h82v-65h-82v-52h82v-74h-82v-64h266v64h-111v74h254v52h-254v65h127q100 0 160 51.5t60 150.5q0 87 -55.5 140t-170.5 53h-276v-64h82v-268h-82v-63zM314 586q154 0 154 -132q0 -136 -152 -136h-117v268h115z" />
    <glyph glyph-name="uni2113" unicode="&#x2113;" horiz-adv-x="387" 
d="M-24 917h411v-1130h-411v1130zM44 191l49 32v-80q0 -153 123 -153q68 0 114 40l-15 51q-44 -31 -88 -31q-30 0 -46.5 22.5t-16.5 80.5v118q89 66 138 130.5t49 136.5q0 54 -29.5 88t-90.5 34q-70 0 -104 -45t-34 -124v-210l-73 -50zM164 478q0 63 11.5 92t49.5 29
q57 0 57 -70q0 -54 -29 -100.5t-89 -95.5v145z" />
    <glyph glyph-name="uni2116" unicode="&#x2116;" horiz-adv-x="977" 
d="M-24 -213v1130h1001v-1130h-1001zM605 375q0 -67 40 -108t108 -41q69 0 111.5 42.5t42.5 109.5q0 65 -39 108t-111 43q-73 0 -112.5 -43.5t-39.5 -110.5zM373 521v-56h82v-332h-4l-305 388h-122v-56h71v-409h-63v-56h215v56h-85v342h4l312 -398h44v465h67v56h-216z
M667 379q0 47 23 75t66 28q41 0 65 -27.5t24 -75.5t-24 -77.5t-66 -29.5q-43 0 -65.5 30t-22.5 77zM606 190v-50h303v50h-303z" />
    <glyph glyph-name="uni2117" unicode="&#x2117;" horiz-adv-x="620" 
d="M-24 917h644v-1130h-644v1130zM298 -7q111 0 189.5 78t78.5 189q0 112 -77.5 190.5t-189.5 78.5q-113 0 -191 -78.5t-78 -190.5t78.5 -189.5t189.5 -77.5zM298 34q-97 0 -161 65.5t-64 160.5q0 96 64 161.5t162 65.5t161 -65.5t63 -161.5q0 -94 -65 -160t-160 -66z
M181 100h148v37h-59v72h67q54 0 87.5 29.5t33.5 82.5q0 46 -31.5 76t-93.5 30h-152v-37h44v-253h-44v-37zM329 390q80 0 80 -71q0 -73 -79 -73h-60v144h59z" />
    <glyph glyph-name="uni2120" unicode="&#x2120;" horiz-adv-x="995" 
d="M-24 917h1019v-1130h-1019v1130zM203 222q65 0 105.5 33.5t40.5 93.5q0 32 -12.5 55.5t-34.5 36t-42 19.5t-46 13q-7 1 -10 2q-31 7 -46 12t-30 20t-15 38q0 31 22.5 47.5t61.5 16.5q40 0 78 -19l8 -63l46 5l-5 89q-21 16 -59 26.5t-76 10.5q-60 0 -100 -30.5t-40 -88.5
q0 -30 11 -51t34 -32.5t39.5 -16.5t47.5 -11q50 -11 77 -28.5t27 -54.5q0 -36 -23.5 -54.5t-65.5 -18.5q-57 0 -98 21l3 56l-47 4l-9 -88q23 -17 69.5 -30t88.5 -13zM387 602h55v-327h-52v-48h159v48h-50v253h3l142 -277h30l138 274h3v-250h-49v-48h161v48h-53v327h56v48
h-108l-159 -319h-3l-165 319h-108v-48z" />
    <glyph glyph-name="uni2122" unicode="&#x2122;" horiz-adv-x="1062" 
d="M-24 917h1086v-1130h-1086v1130zM997 602v48h-109l-158 -319h-3l-166 319h-108v-48h57v-327h-53v-48h159v48h-50v253h3l142 -277h30l137 274h3v-250h-48v-48h160v48h-52v327h56zM439 514l-10 136h-381l-10 -136l50 -2l11 90h111v-327h-74v-48h208v48h-75v327h110l10 -90z
" />
    <glyph glyph-name="uni2126" unicode="&#x2126;" horiz-adv-x="711" 
d="M-24 917h735v-1130h-735v1130zM344 594q109 0 170 -59.5t61 -171.5q0 -89 -37 -144t-126 -54v-165h241v61h-182v58q88 5 135 76t47 172q0 98 -46 166t-114 97.5t-149 29.5q-60 0 -114.5 -17.5t-99 -52t-71 -92t-26.5 -131.5q0 -105 52 -174t136 -74v-58h-188v-61h251v165
q-88 1 -130 52.5t-42 144.5q0 113 61.5 172.5t170.5 59.5z" />
    <glyph glyph-name="uni212E" unicode="&#x212e;" horiz-adv-x="608" 
d="M-24 917h632v-1130h-632v1130zM566 235v7q0 107 -77 180.5t-192 73.5t-191 -73.5t-76 -180.5t76 -180.5t191 -73.5q124 0 209 99h-24q-71 -84 -185 -84q-48 0 -89.5 21.5t-67.5 53.5q-6 8 -6 17v137q0 3 4 3h428zM461 255q0 -4 -1 -4h-322q-4 0 -4 4v133q0 8 7 19
q19 28 64 51t92 23t92 -21.5t67 -49.5q5 -5 5 -18v-137z" />
    <glyph glyph-name="uni2153" unicode="&#x2153;" horiz-adv-x="740" 
d="M-24 917h764v-1130h-764v1130zM488 650l-175 -313l-197 -337h53l182 325l190 325h-53zM27 605h75v-274h-75v-45h205v45h-72v319h-133v-45zM485 258l11 50q28 16 60 16q30 0 46.5 -14t16.5 -38q0 -60 -90 -64v-38q105 -3 105 -63q0 -30 -21.5 -49t-58.5 -19q-69 0 -83 63
l-42 -12q6 -45 39.5 -71t84.5 -26q62 0 103 28t41 80q0 78 -90 91v2q74 22 74 86q0 41 -30.5 65t-81.5 24q-77 0 -120 -37l-10 -69z" />
    <glyph glyph-name="uni2154" unicode="&#x2154;" horiz-adv-x="791" 
d="M-24 917h815v-1130h-815v1130zM77 542l13 56q26 17 58 17q70 0 70 -57q0 -16 -5.5 -32.5t-19 -34.5t-25 -32t-34 -34t-35 -31t-39 -33t-36.5 -30l5 -41h272l10 94l-47 5l-10 -54h-156q5 4 30.5 24t40.5 33t39.5 36.5t38 42.5t24.5 44t11 48q0 41 -30 69t-90 28
q-76 0 -119 -37l-11 -76zM549 650l-175 -313l-197 -337h53l183 325l189 325h-53zM536 258l11 50q28 16 60 16q30 0 47 -14t17 -38q0 -60 -90 -64v-38q104 -3 104 -63q0 -30 -21 -49t-58 -19q-68 0 -84 63l-42 -12q6 -45 39.5 -71t84.5 -26q62 0 103 28t41 80q0 78 -90 91v2
q74 22 74 86q0 40 -30.5 64.5t-80.5 24.5q-79 0 -120 -37l-10 -69z" />
    <glyph glyph-name="uni215B" unicode="&#x215b;" horiz-adv-x="732" 
d="M-24 917h756v-1130h-756v1130zM497 650l-175 -313l-197 -337h53l183 325l189 325h-53zM27 605h75v-274h-75v-45h205v45h-72v319h-133v-45zM546 -6q64 0 104 27t40 73q0 37 -24.5 60t-68.5 42q38 15 58.5 33.5t20.5 50.5q0 40 -35.5 65t-90.5 25q-58 0 -94 -26.5
t-36 -69.5q0 -54 80 -91q-42 -16 -65.5 -37t-23.5 -57q0 -45 37.5 -70t97.5 -25zM484 280q0 21 18 34t48 13q29 0 48 -13.5t19 -40.5q0 -22 -14 -35t-41 -26q-27 11 -40.5 18.5t-25.5 20.5t-12 29zM549 37q-37 0 -58 16.5t-21 45.5q0 24 16 39t47 30q32 -13 47.5 -20.5
t30.5 -23t15 -34.5q0 -24 -22 -38.5t-55 -14.5z" />
    <glyph glyph-name="uni2190" unicode="&#x2190;" horiz-adv-x="751" 
d="M-24 917h775v-636h-596l147 130v65l-273 -213v-25l274 -209v65l-149 127h597v-434h-775v1130z" />
    <glyph glyph-name="uni2191" unicode="&#x2191;" horiz-adv-x="528" 
d="M-24 917h552v-1130h-552v1130zM267 701h-25l-213 -273h65l129 145v-594h61v597l127 -149h65z" />
    <glyph glyph-name="uni2192" unicode="&#x2192;" horiz-adv-x="752" 
d="M-24 917h776v-1130h-776v434h597l-149 -127v-65l275 209v25l-274 213v-65l148 -130h-597v636z" />
    <glyph glyph-name="uni2193" unicode="&#x2193;" horiz-adv-x="528" 
d="M-24 917h552v-1130h-552v1130zM476 253h-65l-128 -147v595h-62v-596l-127 148h-65l210 -274h26z" />
    <glyph glyph-name="uni2196" unicode="&#x2196;" 
d="M-24 917h646v-1130h-646v1130zM47 590l-18 -17l42 -344l47 45l-12 195l421 -420l43 43l-421 421l194 -15l46 46z" />
    <glyph glyph-name="uni2197" unicode="&#x2197;" 
d="M-24 917h646v-1130h-646v1130zM210 544l47 -46l193 15l-421 -421l44 -43l421 420l-14 -195l47 -45l43 344l-18 17z" />
    <glyph glyph-name="uni2198" unicode="&#x2198;" 
d="M-24 917h646v-1130h-646v1130zM552 49l18 17l-43 345l-47 -46l14 -196l-421 421l-44 -43l421 -421l-193 16l-47 -47z" />
    <glyph glyph-name="uni2199" unicode="&#x2199;" 
d="M-24 917h646v-1130h-646v1130zM389 95l-46 47l-194 -16l421 421l-43 43l-421 -421l12 196l-47 46l-42 -345l18 -17z" />
    <glyph glyph-name="uni2202" unicode="&#x2202;" horiz-adv-x="476" 
d="M-24 917h500v-1130h-500v1130zM76 321q0 -49 28 -88l-95 -95l30 -31l96 95q40 -32 92 -32t91 31l95 -94l31 31l-95 95q29 39 29 88q0 47 -29 87l95 94l-31 30l-94 -93q-41 33 -92 33q-53 0 -94 -33l-94 93l-30 -30l95 -94q-28 -39 -28 -87zM137 321q0 42 26.5 68t64.5 26
q37 0 62.5 -26.5t25.5 -67.5t-25.5 -67.5t-62.5 -26.5q-38 0 -64.5 26.5t-26.5 67.5z" />
    <glyph glyph-name="uni2206" unicode="&#x2206;" horiz-adv-x="538" 
d="M-24 917h562v-1130h-562v1130zM11 0h491l-240 661zM93 57l168 449l160 -449h-328z" />
    <glyph glyph-name="uni220F" unicode="&#x220f;" horiz-adv-x="677" 
d="M-24 917h701v-1130h-701v1130zM182 586h289v-522h-82v-64h236v64h-82v522h82v64h-598v-64h82v-522h-82v-64h237v64h-82v522z" />
    <glyph glyph-name="uni2211" unicode="&#x2211;" horiz-adv-x="560" 
d="M-24 917h584v-1130h-584v1130zM18 -140h494v63h-411l242 321v22l-242 321h411v63h-494v-63l252 -334l-252 -330v-63z" />
    <glyph glyph-name="uni2212" unicode="&#x2212;" horiz-adv-x="465" 
d="M-24 917h489v-1130h-489v1130zM47 254h347v54h-347v-54z" />
    <glyph glyph-name="uni221A" unicode="&#x221a;" horiz-adv-x="578" 
d="M-24 917h602v-1130h-602v1130zM256 0h51l257 697h-59l-219 -602l-126 346h-154v-56h110z" />
    <glyph glyph-name="uni221E" unicode="&#x221e;" horiz-adv-x="723" 
d="M-24 917h747v-1130h-747v1130zM511 79q67 0 112 50.5t45 127.5q0 74 -42 124.5t-108 50.5q-56 0 -93.5 -36.5t-75.5 -103.5q-17 32 -30 52.5t-32.5 43t-44 33.5t-53.5 11q-66 0 -112 -51.5t-46 -126.5q0 -73 43.5 -124t111.5 -51q55 0 91 35t71 99q35 -64 71.5 -99
t91.5 -35zM502 133q-43 0 -73 31t-60 88q33 61 64 93t77 32t71 -34t25 -86q0 -57 -29.5 -90.5t-74.5 -33.5zM191 133q-45 0 -72.5 34t-27.5 87t29.5 88t73.5 35q43 0 72 -31.5t62 -92.5q-33 -58 -63.5 -89t-73.5 -31z" />
    <glyph glyph-name="uni222B" unicode="&#x222b;" horiz-adv-x="371" 
d="M-24 917h395v-1130h-395v1130zM-9 -140h37q90 0 130.5 48t40.5 146v438q0 77 23 106.5t80 29.5h55v61h-47q-95 0 -134 -47t-39 -147v-436q0 -78 -22.5 -108.5t-81.5 -30.5h-42v-60z" />
    <glyph glyph-name="uni2248" unicode="&#x2248;" horiz-adv-x="625" 
d="M-24 917h649v-1130h-649v1130zM412 318q46 0 82.5 27t69.5 86l-46 29q-27 -44 -50 -60.5t-56 -16.5q-43 0 -112 36.5t-112 36.5q-89 0 -145 -103l42 -28q41 65 100 65q41 0 110.5 -36t116.5 -36zM412 118q88 0 152 112l-46 31q-27 -45 -50.5 -61.5t-55.5 -16.5
q-43 0 -112 36t-112 36q-90 0 -145 -102l42 -28q42 65 100 65q41 0 110.5 -36t116.5 -36z" />
    <glyph glyph-name="uni2260" unicode="&#x2260;" horiz-adv-x="571" 
d="M-24 917h595v-1130h-595v1130zM44 364h258l-125 -168h-133v-52h96l-56 -76h71l55 76h291v52h-255l122 168h133v54h-95l54 74h-65l-55 -74h-296v-54z" />
    <glyph glyph-name="uni2264" unicode="&#x2264;" horiz-adv-x="424" 
d="M-24 917h448v-1130h-448v1130zM351 100v65l-237 146l236 147v65l-318 -199v-30zM32 0h319v53h-319v-53z" />
    <glyph glyph-name="uni2265" unicode="&#x2265;" horiz-adv-x="424" 
d="M424 917v-1130h-448v1130h448zM49 100l319 194v30l-318 199v-65l236 -147l-237 -146v-65zM368 0v53h-319v-53h319z" />
    <glyph glyph-name="uni24CA" unicode="&#x24ca;" horiz-adv-x="620" 
d="M-24 917h644v-1130h-644v1130zM298 -7q111 0 189.5 78t78.5 189q0 112 -77.5 190.5t-189.5 78.5q-113 0 -191 -78.5t-78 -190.5t78.5 -189.5t189.5 -77.5zM298 34q-97 0 -161 65.5t-64 160.5q0 96 64 161.5t162 65.5t161 -65.5t63 -161.5q0 -94 -65 -160t-160 -66z
M139 365h35v-136q0 -135 125 -135q129 0 129 141v130h33v36h-121v-36h47v-130q0 -105 -86 -105q-45 0 -64.5 25.5t-19.5 75.5v134h46v36h-124v-36z" />
    <glyph glyph-name="uni24EA" unicode="&#x24ea;" horiz-adv-x="0" 
 />
    <glyph glyph-name="uni24FF" unicode="&#x24ff;" horiz-adv-x="0" 
 />
    <glyph glyph-name="uni25B2" unicode="&#x25b2;" horiz-adv-x="646" 
d="M-24 917h670v-1130h-670v1130zM598 23l-287 458l-287 -458h574z" />
    <glyph glyph-name="uni25B6" unicode="&#x25b6;" horiz-adv-x="587" 
d="M-24 917h611v-1130h-611v1130zM80 -35l459 287l-459 288v-575z" />
    <glyph glyph-name="uni25B8" unicode="&#x25b8;" horiz-adv-x="414" 
d="M-24 917h438v-1130h-438v1130zM367 234l-287 288v-575z" />
    <glyph glyph-name="uni25BA" unicode="&#x25ba;" horiz-adv-x="901" 
d="M-24 917h925v-1130h-925v1130zM850 234l-774 288v-575z" />
    <glyph glyph-name="uni25BC" unicode="&#x25bc;" horiz-adv-x="646" 
d="M-24 917h670v-1130h-670v1130zM24 480l287 -458l287 458h-574z" />
    <glyph glyph-name="uni25C0" unicode="&#x25c0;" horiz-adv-x="587" 
d="M-24 917h611v-1130h-611v1130zM483 -35v575l-459 -288z" />
    <glyph glyph-name="uni25C2" unicode="&#x25c2;" horiz-adv-x="414" 
d="M-24 917h438v-1130h-438v1130zM310 -53v575l-286 -287z" />
    <glyph glyph-name="uni25C4" unicode="&#x25c4;" horiz-adv-x="903" 
d="M-24 917h927v-1130h-927v1130zM800 -53v575l-774 -289z" />
    <glyph glyph-name="uni25CA" unicode="&#x25ca;" horiz-adv-x="591" 
d="M-24 917h615v-1130h-615v1130zM284 -11l267 331l-267 340l-268 -340zM284 72l-199 248l199 251l198 -251z" />
    <glyph glyph-name="uni2610" unicode="&#x2610;" horiz-adv-x="876" 
d="M-24 917h900v-1130h-900v1130zM87 0h677v651h-677v-651zM146 592h560v-534h-560v534z" />
    <glyph glyph-name="uni2611" unicode="&#x2611;" horiz-adv-x="876" 
d="M-24 917h900v-1130h-900v1130zM87 0h677v651h-677v-651zM146 592h560v-534h-560v534zM288 319l-77 -69l162 -141l286 397l-86 51l-199 -384z" />
    <glyph glyph-name="uni261A" unicode="&#x261a;" horiz-adv-x="924" 
d="M-24 917h948v-1130h-948v1130zM861 394h-154q-4 -32 -5 -47q-79 45 -146 68.5t-141 23.5q-21 0 -64 -15.5t-76 -18.5q-19 -27 -11 -51h-168q-30 0 -44.5 -14.5t-14.5 -37.5q0 -21 14 -36t45 -15l132 -1q-6 -10 -6 -21q0 -22 21 -40q-11 -11 -11 -28q0 -23 22 -40
q-15 -15 -15 -31q0 -27 18 -36.5t51 -9.5q44 0 56 2q69 -10 114 -10q80 0 225 56q2 -34 4 -50h154v352z" />
    <glyph glyph-name="uni261B" unicode="&#x261b;" horiz-adv-x="924" 
d="M-24 917h948v-1130h-948v1130zM68 42h154l4 50q145 -56 225 -56q20 0 48.5 2.5t46.5 5.5l19 2q12 -2 56 -2q33 0 51 9.5t18 36.5q0 16 -15 31q22 17 22 40q0 17 -11 28q21 18 21 40q0 11 -6 21l132 1q31 0 45 15t14 36q0 23 -14.5 37.5t-44.5 14.5h-168q8 24 -11 51
q-33 3 -76 18.5t-64 15.5q-75 0 -141.5 -23.5t-146.5 -68.5l-4 47h-154v-352z" />
    <glyph glyph-name="uni261C" unicode="&#x261c;" horiz-adv-x="924" 
d="M-24 917h948v-1130h-948v1130zM830 394h-154q-2 -13 -4 -43q-150 96 -272 96q-76 0 -146 -28q-14 -27 -14 -46q0 -10 3 -19h-148q-30 0 -44.5 -14.5t-14.5 -37.5q0 -21 14 -36t45 -15l102 -1q-6 -10 -6 -21q0 -22 21 -40q-11 -11 -11 -28q0 -23 22 -40q-15 -15 -15 -31
q0 -27 18 -36.5t51 -9.5q44 0 56 2q69 -10 114 -10q80 0 225 56q2 -34 4 -50h154v352zM670 131q-150 -59 -223 -59l-47 2q4 9 4 22l-4 23q17 20 17 41q0 7 -2.5 16t-4.5 14l-3 6q10 16 10 34q0 28 -27 55l-298 2q-23 0 -23 15q0 16 23 16h318q19 -39 72 -87q15 13 15 31
q-7 7 -13 13.5t-11.5 14.5t-8.5 12t-8 15t-6.5 14t-7.5 17.5t-8 18.5q-21 12 -48 12q-39 0 -94 -15q-19 0 -19 9l1 13q51 29 115 29q45 0 100.5 -18.5t89 -36t90.5 -50.5q-2 -50 -2 -75q0 -53 3 -104zM377 248q4 -6 4 -41l-152 4q-6 0 -6 18l6 19h148zM379 180q2 -2 2 -24
v-17l-142 4q-7 4 -7 18l7 19h140zM365 112q1 -2 1 -17q0 -12 -2 -16h-23q-4 0 -15.5 -0.5t-17.5 -0.5q-10 -1 -31 -1q-15 0 -25.5 4.5t-10.5 10.5l6 20h118z" />
    <glyph glyph-name="uni261D" unicode="&#x261d;" horiz-adv-x="529" 
d="M-24 917h553v-1130h-553v1130zM58 -98h352v154l-43 4q96 148 96 272q0 76 -28 146q-27 14 -46 14q-10 0 -19 -3v148q0 30 -14.5 44.5t-37.5 14.5q-21 0 -36 -14t-15 -45l-1 -102q-10 6 -21 6q-22 0 -40 -21q-11 11 -28 11q-23 0 -40 -22q-15 15 -31 15q-27 0 -36.5 -18
t-9.5 -51q0 -44 2 -56q-10 -69 -10 -114q0 -80 56 -225l-50 -4v-154zM88 285l2 47q9 -4 22 -4l23 4q20 -17 41 -17q7 0 16 2.5t14 4.5l6 3q16 -10 34 -10q28 0 55 27l2 298q0 23 15 23q16 0 16 -23v-318q-39 -19 -87 -72q13 -15 31 -15q7 7 13.5 13t14.5 11.5t12 8.5t15 8
t14 6.5t17.5 7.5t18.5 8q12 21 12 48q0 39 -15 94q0 19 9 19l13 -1q29 -51 29 -115q0 -45 -18.5 -100.5t-36.5 -90t-50 -90.5q-60 2 -90 2q-31 0 -89 -2q-59 150 -59 223zM264 355q-6 -4 -41 -4l4 152q0 6 18 6l19 -6v-148zM196 353q-2 -2 -24 -2h-17l4 142q4 7 18 7l19 -7
v-140zM128 367q-2 -1 -17 -1q-12 0 -16 2v23q0 4 -0.5 15.5t-0.5 17.5q-1 10 -1 31q0 15 4.5 25.5t10.5 10.5l20 -6v-118z" />
    <glyph glyph-name="uni261E" unicode="&#x261e;" horiz-adv-x="924" 
d="M-24 917h948v-1130h-948v1130zM69 42h154l4 50q145 -56 225 -56q20 0 48.5 2.5t47.5 5.5l18 2q12 -2 56 -2q33 0 51 9.5t18 36.5q0 16 -15 31q22 17 22 40q0 17 -11 28q21 18 21 40q0 11 -6 21l102 1q31 0 45 15t14 36q0 23 -14.5 37.5t-44.5 14.5h-148q3 9 3 19
q0 8 -3.5 19.5t-7.5 19.5l-3 7q-70 28 -146 28q-122 0 -272 -96l-4 43h-154v-352zM510 415q64 0 115 -29q1 -8 1 -13q0 -9 -19 -9q-55 15 -94 15q-27 0 -48 -12q-2 -5 -7 -16.5t-7 -15.5t-6 -13t-6.5 -13t-6.5 -11t-8 -12t-10 -11.5t-12 -12.5q0 -18 15 -31q53 48 72 87h318
q23 0 23 -16q0 -15 -23 -15l-298 -2q-27 -27 -27 -55q0 -18 10 -34q-10 -21 -10 -36q0 -21 17 -41q-4 -15 -4 -23q0 -13 4 -22q-1 -2 -47 -2q-74 0 -223 59q2 58 2 89q0 30 -2 90q56 32 90.5 50t90 36.5t100.5 18.5zM670 248q6 -13 6 -19q0 -18 -6 -18l-152 -4q0 35 4 41
h148zM660 180q7 -13 7 -19q0 -14 -7 -18l-142 -4v17q0 22 2 24h140zM652 112q6 -17 6 -20q0 -6 -10.5 -10.5t-25.5 -4.5q-21 0 -31 1q-6 0 -17.5 0.5t-15.5 0.5h-23q-2 4 -2 16q0 15 1 17h118z" />
    <glyph glyph-name="uni261F" unicode="&#x261f;" horiz-adv-x="529" 
d="M-24 917h553v-1130h-553v1130zM58 696v-154q16 -2 50 -4q-56 -145 -56 -225q0 -20 2.5 -48.5t5.5 -46.5l2 -19q-2 -12 -2 -56q0 -33 9.5 -51t36.5 -18q16 0 31 15q17 -22 40 -22q17 0 28 11q18 -21 40 -21q11 0 21 6l1 -102q0 -31 15 -45t36 -14q23 0 37.5 14.5
t14.5 44.5v148q9 -3 19 -3q8 0 19.5 3.5t19.5 6.5l7 4q28 70 28 146q0 122 -96 272q30 2 43 4v154h-352zM326 535q33 -57 50.5 -90.5t36 -89t18.5 -100.5q0 -64 -29 -115q-8 -1 -13 -1q-9 0 -9 19q15 55 15 94q0 27 -12 48q-5 2 -16.5 7t-15.5 7t-13 6t-13 6.5t-11 6.5
t-12 8t-11.5 10t-12.5 12q-18 0 -31 -15q48 -53 87 -72v-318q0 -23 -16 -23q-15 0 -15 23l-2 298q-27 27 -55 27q-18 0 -34 -10q-21 10 -36 10q-21 0 -41 -17q-15 4 -23 4q-13 0 -22 -4q-2 1 -2 47q0 73 59 223q51 -3 104 -3q25 0 75 2zM264 95q-13 -6 -19 -6q-18 0 -18 6
l-4 152q35 0 41 -4v-148zM196 105q-13 -7 -19 -7q-14 0 -18 7l-4 142h17q22 0 24 -2v-140zM128 113q-17 -6 -20 -6q-6 0 -10.5 10.5t-4.5 25.5q0 21 1 31q0 6 0.5 17.5t0.5 15.5v23q4 2 16 2q15 0 17 -1v-118z" />
    <glyph glyph-name="uni267E" unicode="&#x267e;" horiz-adv-x="620" 
d="M-24 917h644v-1130h-644v1130zM298 -7q111 0 189.5 78t78.5 190q0 111 -77.5 189.5t-189.5 78.5q-113 0 -191 -78.5t-78 -190.5t78.5 -189.5t189.5 -77.5zM298 34q-97 0 -161 65.5t-64 160.5q0 96 64 161.5t162 65.5t161 -65.5t63 -160.5t-65 -161t-160 -66zM396 156
q40 0 65.5 29t25.5 80q0 49 -24 78t-62 29q-35 0 -57 -21t-44 -61q-20 39 -41 60.5t-54 21.5q-38 0 -65 -30t-27 -79q0 -48 25.5 -77.5t65.5 -29.5q34 0 55.5 20t40.5 56q19 -36 40.5 -56t55.5 -20zM398 336q26 0 40 -19.5t14 -51.5q0 -36 -16.5 -55t-41.5 -19q-45 0 -79 69
q12 24 20.5 37.5t25.5 26t37 12.5zM205 191q-25 0 -41 19.5t-16 53.5q0 35 16.5 53.5t41.5 18.5q14 0 25.5 -5.5t21.5 -18.5t15.5 -22t16.5 -29q-13 -23 -22 -35.5t-24.5 -23.5t-33.5 -11z" />
    <glyph glyph-name="uni2713" unicode="&#x2713;" horiz-adv-x="638" 
d="M-24 917h662v-1130h-662v1130zM168 339l-83 -76l175 -152l310 428l-94 57l-215 -415z" />
    <glyph glyph-name="uni301A" unicode="&#x301a;" horiz-adv-x="447" 
d="M-24 917h471v-1130h-471v1130zM70 -206h336v52h-114v852h114v52h-336v-956zM133 698h97v-852h-97v852z" />
    <glyph glyph-name="uni301B" unicode="&#x301b;" horiz-adv-x="447" 
d="M447 917v-1130h-471v1130h471zM353 -206v956h-336v-52h114v-852h-114v-52h336zM290 698v-852h-97v852h97z" />
    <glyph glyph-name="uniF8FF" unicode="&#xf8ff;" horiz-adv-x="1017" 
d="M547 338h-11v39h-19v-39h-11v70h11v-20h20v-10h10v-40zM137 377h-11v10h-10v11h11v-10h10v-11zM877 387h-10v-10h-11v11h10v10h11v-11zM187 387h-10v-10h-11v11h10v10h11v-11zM827 377h-11v10h-10v11h11v-10h10v-11zM247 338h-21v9h-10v30h-10v11h10v10h11v-10h20v-11
h-20v-29h20v-10zM487 338h-21v9h-10v30h-10v11h10v10h11v-10h20v-11h-20v-29h20v-10zM367 347h-10v-9h-20v-20h-11v70h31v-10h10v-31zM957 377h-11v11h11v-11zM47 377h-11v11h11v-11zM917 377h-11v11h11v-11zM87 377h-11v11h11v-11zM307 347h-10v-9h-10v-10h-10v-10h-11v11
h10v18h-10v41h11v-40h19v40h11v-41zM787 338h-31v9h-10v31h10v10h21v-10h10v-21h-30v-9h30v-10zM727 338h-31v9h-10v41h11v-40h19v40h11v-50zM667 318h-11v20h-20v9h-10v31h10v10h31v-70zM607 338h-31v9h-10v31h10v10h21v-10h10v-21h-30v-9h30v-10zM427 347h-10v-9h-21v9
h-10v31h10v10h21v-10h10v-31zM1017 357h-10v-10h-11v10h-10v11h10v10h11v-10h10v-11zM857 357h-10v-10h-11v10h-10v11h10v10h11v-10h10v-11zM167 357h-10v-10h-11v10h-10v11h10v10h11v-10h10v-11zM947 357h-10v-10h-11v10h-10v11h10v10h11v-10h10v-11zM77 357h-10v-10h-11
v10h-10v11h10v10h11v-10h10v-11zM7 357h-10v-10h-11v10h-10v11h10v10h11v-10h10v-11zM776 368v9h-19v-9h19zM656 348v29h-19v-29h19zM596 368v9h-19v-9h19zM416 348v29h-19v-29h19zM356 348v29h-19v-29h19zM827 338h-10v-10h-11v10h10v10h11v-10zM877 328h-11v10h-10v10h11
v-10h10v-10zM187 328h-11v10h-10v10h11v-10h10v-10zM917 338h-11v10h11v-10zM137 338h-10v-10h-11v10h10v10h11v-10zM87 338h-11v10h11v-10zM957 338h-11v10h11v-10zM47 338h-11v10h11v-10z" />
    <glyph glyph-name="CR" horiz-adv-x="187" 
 />
    <glyph glyph-name="uni0030.zero" horiz-adv-x="571" 
d="M-24 917h595v-1130h-595v1130zM515 259q0 121 -60.5 196.5t-178.5 75.5q-116 0 -179.5 -76.5t-63.5 -198.5q0 -124 61.5 -195t177.5 -71t179.5 72t63.5 197zM438 262q0 -101 -42.5 -154t-121.5 -53q-80 0 -121.5 53.5t-41.5 152.5t41 152t123 53t122.5 -53.5t40.5 -150.5
zM306 212v111h-63v-111h63z" />
    <glyph glyph-name="Iacute_Jacute" horiz-adv-x="775" 
d="M-24 -213v1130h799v-1130h-799zM72 703l198 42l-17 68l-191 -73zM523 703l197 42l-17 68l-191 -73zM656 586h72v64h-274v-64h129v-420q0 -107 -101 -107q-35 0 -59 15.5t-44 54.5l-53 -40q47 -99 163 -99q79 0 123 44.5t44 131.5v420zM28 0h237v64h-81v522h81v64h-237
v-64h82v-522h-82v-64z" />
    <glyph glyph-name="iacute_jacute" horiz-adv-x="526" 
d="M-24 -213v1130h550v-1130h-244q160 5 160 209v449h-169v-57h99v-392q0 -42 -7.5 -71.5t-17.5 -45t-27 -24.5t-31 -11t-34 -2v-55h-279zM55 520l173 104l-40 59l-154 -132zM311 520l173 104l-40 59l-154 -132zM20 0h226v57h-78v388h-150v-57h80v-331h-78v-57z" />
    <glyph glyph-name="uni0069.TRK" horiz-adv-x="277" 
d="M-24 -213v1130h301v-1130h-301zM91 651v-91h76v91h-76zM20 0h226v57h-78v388h-150v-57h80v-331h-78v-57z" />
    <glyph glyph-name="uni00BF.cap" horiz-adv-x="444" 
d="M444 -213h-468v1130h468v-1130zM267 655h-90v-97h90v97zM328 195l-14 -96q-44 -39 -108 -39q-53 0 -82 22.5t-29 57.5q0 29 20.5 54.5t50.5 45.5t59.5 40t50 48t20.5 61q0 41 -31.5 64.5t-96.5 19.5v-49q53 0 53 -41q0 -24 -21 -46.5t-51 -42t-60 -41.5t-51 -54t-21 -69
q0 -61 53 -98t132 -37q48 0 95.5 21.5t79.5 53.5l9 120z" />
    <glyph glyph-name="uni003F.smcp" horiz-adv-x="387" 
d="M-24 917h411v-1130h-411v1130zM87 355l13 93q35 25 81 25q42 0 65.5 -17.5t23.5 -45.5t-26 -52t-57 -40t-57 -42.5t-26 -58.5q0 -35 28.5 -54.5t87.5 -15.5v44q-43 0 -43 31q0 22 26.5 44t58 39.5t58 48t26.5 66.5q0 50 -42 79.5t-107 29.5q-86 0 -156 -61l-7 -109z
M131 0h86v92h-86v-92z" />
    <glyph glyph-name="uni00BF.smcp" horiz-adv-x="387" 
d="M387 -213h-411v1130h411v-1130zM232 524h-86v-92h86v92zM276 169l-13 -93q-35 -25 -81 -25q-42 0 -65.5 17.5t-23.5 45.5t26 52t57 40t57 42.5t26 58.5q0 35 -28.5 54.5t-87.5 15.5v-44q43 0 43 -31q0 -22 -26.5 -44t-58 -39.5t-58 -48t-26.5 -66.5q0 -50 42 -79.5
t107 -29.5q87 0 155 61l8 109z" />
    <glyph glyph-name="uni00A1.cap" horiz-adv-x="235" 
d="M-24 917h259v-1130h-259v1130zM58 560h90v97h-90v-97zM147 1l-15 458h-53l-15 -458h83z" />
    <glyph glyph-name="uni0021.smcp" horiz-adv-x="230" 
d="M-24 917h254v-1130h-254v1130zM143 521h-80l15 -364h50zM63 0h86v92h-86v-92z" />
    <glyph glyph-name="uni00A1.smcp" horiz-adv-x="230" 
d="M-24 917h254v-1130h-254v1130zM63 429h86v93h-86v-93zM143 1l-15 364h-50l-15 -364h80z" />
    <glyph glyph-name="uni203D.smcp" horiz-adv-x="556" 
d="M-24 917h580v-1130h-580v1130zM252 391l26 67q28 10 51 10q37 0 73 -19.5t36 -57.5q0 -26 -21.5 -46t-52.5 -34.5t-62 -30.5t-53.5 -44.5t-24.5 -66.5l47 -14q4 35 31 60.5t62 41.5t69.5 32.5t58 43t23.5 62.5q0 58 -51 92.5t-125 34.5q-61 0 -114 -31l-24 -85zM205 167
l-118 349l-72 -29l145 -339zM178 0h86v92h-86v-92z" />
    <glyph glyph-name="uni002D.cap" horiz-adv-x="345" 
d="M-24 -213v1130h369v-1130h-369zM44 369v-62h231v62h-231z" />
    <glyph glyph-name="uni2013.cap" horiz-adv-x="619" 
d="M-24 917h643v-1130h-643v1130zM46 316h502v51h-502v-51z" />
    <glyph glyph-name="uni2014.cap" horiz-adv-x="1075" 
d="M-24 917h1099v-1130h-1099v1130zM57 316h940v51h-940v-51z" />
    <glyph glyph-name="uni002F.smcp" horiz-adv-x="307" 
d="M-24 917h331v-1130h-331v1130zM197 521l-175 -521h64l175 521h-64z" />
    <glyph glyph-name="uni005C.smcp" horiz-adv-x="307" 
d="M307 917v-1130h-331v1130h331zM86 521h-64l175 -521h64z" />
    <glyph glyph-name="uni0028.cap" horiz-adv-x="264" 
d="M-24 917h288v-1130h-288v1130zM171 688q-145 -182 -145 -377q0 -194 143 -364h69q-150 173 -150 369q0 185 150 372h-67z" />
    <glyph glyph-name="uni0029.cap" horiz-adv-x="264" 
d="M264 917v-1130h-288v1130h288zM69 688h-67q150 -187 150 -372q0 -196 -150 -369h69q143 170 143 364q0 195 -145 377z" />
    <glyph glyph-name="uni005B.cap" horiz-adv-x="283" 
d="M-24 917h307v-1130h-307v1130zM71 -63h176v52h-114v671h114v52h-176v-775z" />
    <glyph glyph-name="uni005D.cap" horiz-adv-x="283" 
d="M283 917v-1130h-307v1130h307zM188 -63v775h-176v-52h114v-671h-114v-52h176z" />
    <glyph glyph-name="uni007B.cap" horiz-adv-x="288" 
d="M-24 917h312v-1130h-312v1130zM97 325q50 8 73.5 31t23.5 53q0 27 -19 55t-38.5 61t-19.5 69q0 65 63 65h64v52h-64q-60 0 -92 -30.5t-32 -85.5q0 -42 19 -77t38 -61.5t19 -49.5q0 -34 -32 -48t-66 -14h-19v-40h19q20 0 40 -4t39 -19t19 -39q0 -23 -19 -51t-38 -63
t-19 -76q0 -54 31.5 -84.5t92.5 -30.5h64v52h-64q-63 0 -63 64q0 46 38.5 101.5t38.5 85.5q0 31 -23.5 53.5t-73.5 30.5z" />
    <glyph glyph-name="uni007D.cap" horiz-adv-x="288" 
d="M288 917v-1130h-312v1130h312zM167 325q-50 -8 -73.5 -30.5t-23.5 -53.5q0 -30 38.5 -85.5t38.5 -101.5q0 -64 -63 -64h-64v-52h64q61 0 92.5 30.5t31.5 84.5q0 41 -19 76t-38 63t-19 51q0 24 19 39t39 19t40 4h19v40h-19q-34 0 -66 14t-32 48q0 23 19 49.5t38 61.5
t19 77q0 55 -32 85.5t-92 30.5h-64v-52h64q63 0 63 -65q0 -36 -19.5 -69t-38.5 -61t-19 -55q0 -30 23.5 -53t73.5 -31z" />
    <glyph glyph-name="uni301A.cap" horiz-adv-x="443" 
d="M-24 917h467v-1130h-467v1130zM71 -63h335v52h-114v670h114v52h-335v-774zM133 659h97v-670h-97v670z" />
    <glyph glyph-name="uni301B.cap" horiz-adv-x="443" 
d="M443 917v-1130h-467v1130h467zM348 -63v774h-335v-52h114v-670h-114v-52h335zM286 659v-670h-97v670h97z" />
    <glyph glyph-name="dblparenleft" horiz-adv-x="425" 
d="M-24 917h449v-1130h-449v1130zM186 718q-161 -208 -161 -448q0 -242 159 -453h69q-166 206 -166 453q0 237 166 448h-67zM336 718q-161 -208 -161 -448q0 -242 159 -453h70q-166 206 -166 453q0 237 166 448h-68z" />
    <glyph glyph-name="dblparenleft.cap" horiz-adv-x="412" 
d="M-24 917h436v-1130h-436v1130zM171 688q-145 -182 -145 -377q0 -194 143 -364h69q-150 173 -150 369q0 185 150 372h-67zM319 688q-145 -182 -145 -377q0 -194 143 -364h69q-150 173 -150 369q0 185 150 372h-67z" />
    <glyph glyph-name="dblparenright" horiz-adv-x="425" 
d="M425 917v-1130h-449v1130h449zM215 718h-67q166 -211 166 -448q0 -247 -166 -453h69q159 211 159 453q0 240 -161 448zM65 718h-68q166 -211 166 -448q0 -247 -166 -453h70q159 211 159 453q0 240 -161 448z" />
    <glyph glyph-name="dblparenright.cap" horiz-adv-x="412" 
d="M412 917v-1130h-436v1130h436zM217 688h-67q150 -187 150 -372q0 -196 -150 -369h69q143 170 143 364q0 195 -145 377zM69 688h-67q150 -187 150 -372q0 -196 -150 -369h69q143 170 143 364q0 195 -145 377z" />
    <glyph glyph-name="uni00B6.smcp" horiz-adv-x="529" 
d="M-24 917h553v-1130h-553v1130zM199 521q-89 0 -137 -37.5t-48 -95.5q0 -72 49 -105.5t131 -33.5h47v-249h64v467h50v-467h64v467h63v54h-283z" />
    <glyph glyph-name="uni00AA.smcp" horiz-adv-x="413" 
d="M-24 917h437v-1130h-437v1130zM109 657h44l-98 -219h-29v-42h121v42h-42l20 46h137l19 -46h-38v-42h122v42h-31l-111 260h-114v-41zM193 647h3l53 -131h-111z" />
    <glyph glyph-name="uni201C.smcp" horiz-adv-x="366" 
d="M366 917v-1130h-390v1130h390zM105 332l53 216h-70l-52 -216h69zM269 332l53 216h-69l-53 -216h69z" />
    <glyph glyph-name="uni201D.smcp" horiz-adv-x="366" 
d="M-24 -213v1130h390v-1130h-390zM81 550l-53 -217h70l53 217h-70zM246 550l-53 -217h69l53 217h-69z" />
    <glyph glyph-name="uni2018.smcp" horiz-adv-x="203" 
d="M203 917v-1130h-227v1130h227zM105 332l53 216h-70l-52 -216h69z" />
    <glyph glyph-name="uni2019.smcp" horiz-adv-x="201" 
d="M-24 -213v1130h225v-1130h-225zM81 550l-53 -217h70l53 217h-70z" />
    <glyph glyph-name="uni203A.cap" horiz-adv-x="283" 
d="M-24 917h307v-1130h-307v1130zM95 85l138 246l-138 240h-60l128 -240l-128 -246h60z" />
    <glyph glyph-name="uni2039.cap" horiz-adv-x="283" 
d="M-24 917h307v-1130h-307v1130zM225 85l-129 246l129 240h-60l-138 -240l138 -246h60z" />
    <glyph glyph-name="uni00AB.cap" horiz-adv-x="447" 
d="M-24 917h471v-1130h-471v1130zM225 85l-129 246l129 240h-60l-138 -240l138 -246h60zM390 85l-129 246l129 240h-61l-138 -240l138 -246h61z" />
    <glyph glyph-name="uni00BB.cap" horiz-adv-x="447" 
d="M-24 917h471v-1130h-471v1130zM259 85l138 246l-138 240h-60l129 -240l-129 -246h60zM95 85l138 246l-138 240h-60l128 -240l-128 -246h60z" />
    <glyph glyph-name="uni00B7.smcp" horiz-adv-x="226" 
d="M-24 917h250v-1130h-250v1130zM52 201h97v102h-97v-102z" />
    <glyph glyph-name="uni00660069" horiz-adv-x="566" 
d="M-24 -213v1130h590v-1130h-590zM386 388v-331h-77v-57h225v57h-77v388h-297v77q0 61 31.5 89.5t84.5 28.5q56 0 95 -22l18 -75l58 7l-17 104q-62 44 -148 44q-83 0 -138 -48t-55 -130v-75h-64v-57h64v-331h-77v-57h249v57h-101v331h226z" />
    <glyph glyph-name="uni0066006C" horiz-adv-x="566" 
d="M-24 -213v1130h590v-1130h-590zM308 0h226v57h-78v631h-70v-23q-42 33 -127 33q-75 0 -122.5 -48.5t-47.5 -127.5v-77h-64v-57h64v-331h-77v-57h249v57h-101v331h119v57h-119v80q0 55 30.5 86t83.5 31q72 0 112 -39v-546h-78v-57z" />
    <glyph glyph-name="uni00B4.cap" horiz-adv-x="184" 
d="M-13 703l-11 37l191 73l17 -68z" />
    <glyph glyph-name="uni02D8.cap" horiz-adv-x="220" 
d="M220 816q0 -61 -30 -89t-92 -28q-122 0 -122 117h58q0 -38 16 -53.5t48 -15.5q34 0 49 15.5t15 53.5h58z" />
    <glyph glyph-name="uni02C7.cap" horiz-adv-x="250" 
d="M124 701h-22l-126 89l20 34l120 -61l115 64l19 -35z" />
    <glyph glyph-name="uni02C6.cap" horiz-adv-x="250" 
d="M231 702l-120 62l-116 -63l-19 33l127 93h21l126 -90z" />
    <glyph glyph-name="uni00A8.cap" horiz-adv-x="228" 
d="M-24 803h81v-85h-81v85zM148 803h80v-85h-80v85z" />
    <glyph glyph-name="uni02D9.cap" horiz-adv-x="57" 
d="M-24 803h81v-85h-81v85z" />
    <glyph glyph-name="uni02DD.cap" horiz-adv-x="310" 
d="M2 703l-26 26l134 153l49 -51zM112 703l-10 37l190 73l18 -68z" />
    <glyph glyph-name="uni0060.cap" horiz-adv-x="184" 
d="M174 703l-198 42l17 68l191 -73z" />
    <glyph glyph-name="uni00AF.cap" horiz-adv-x="255" 
d="M-24 733v57h279v-57h-279z" />
    <glyph glyph-name="uni02DC.cap" horiz-adv-x="260" 
d="M260 798q-16 -89 -78 -89q-27 0 -66 17.5t-57 17.5q-38 0 -50 -39l-33 13q4 31 25.5 56.5t56.5 25.5q22 0 58 -17.5t61 -17.5q35 0 47 42z" />
    <glyph glyph-name="commaaccent" horiz-adv-x="51" 
d="M33 -218h-57l8 154h67z" />
    <glyph glyph-name="uni02DA.cap" horiz-adv-x="173" 
d="M173 784q0 -43 -25.5 -68.5t-73.5 -25.5t-73 24t-25 68q0 42 26 67t73 25q49 0 73.5 -24.5t24.5 -65.5zM124 784q0 50 -50 50q-49 0 -49 -52t49 -52q50 0 50 54z" />
    <glyph glyph-name="uni02C7.alt" horiz-adv-x="55" 
d="M33 457h-57l13 224h66z" />
    <glyph glyph-name="uni0030.smcp_zero" horiz-adv-x="497" 
d="M-24 917h521v-1130h-521v1130zM31 256q0 -264 203 -264q208 0 208 271q0 266 -204 266q-207 0 -207 -273zM107 263q0 47 5 81t18 65t40 47.5t67 16.5t67 -16.5t39.5 -47.5t17.5 -64t5 -78q0 -106 -28 -161.5t-102 -55.5t-101.5 55t-27.5 158zM207 313v-89h60v89h-60z" />
    <glyph glyph-name="uni0030.smcp" horiz-adv-x="498" 
d="M-24 917h522v-1130h-522v1130zM31 256q0 -264 203 -264q208 0 208 271q0 266 -204 266q-207 0 -207 -273zM107 263q0 47 5 81t18 65t40 47.5t67 16.5t67 -16.5t39.5 -47.5t17.5 -64t5 -78q0 -106 -28 -161.5t-102 -55.5t-101.5 55t-27.5 158z" />
    <glyph glyph-name="uni0031.smcp" horiz-adv-x="329" 
d="M-24 917h353v-1130h-353v1130zM24 465h106v-409h-106v-56h279v56h-102v465h-177v-56z" />
    <glyph glyph-name="uni0032.smcp" horiz-adv-x="453" 
d="M-24 917h477v-1130h-477v1130zM83 374l17 77q38 19 83 19q56 0 86 -26t30 -72q0 -61 -70 -138t-207 -180l7 -54h369l13 140l-61 4l-11 -83h-222q43 30 82.5 63t82.5 76t68.5 90t25.5 89q0 61 -44 106.5t-132 45.5q-84 0 -159 -43l-16 -108z" />
    <glyph glyph-name="uni0033.smcp" horiz-adv-x="448" 
d="M-24 917h472v-1130h-472v1130zM104 370l18 83q36 21 80 21q45 0 70.5 -21.5t25.5 -59.5q0 -45 -34 -70t-97 -29v-46q83 -3 118 -27t35 -73q0 -44 -26 -73t-85 -29q-80 0 -114 66l-52 -31q17 -39 61 -65t105 -26q85 0 136 41.5t51 109.5q0 53 -31.5 88.5t-99.5 44.5v4
q108 32 108 125q0 59 -44 92.5t-112 33.5q-89 0 -152 -45l-14 -107z" />
    <glyph glyph-name="uni0034.smcp" horiz-adv-x="467" 
d="M-24 917h491v-1130h-491v1130zM339 0v127h80l8 54h-88v340h-143l-191 -340l9 -54h255v-127h70zM269 181h-197l158 284h39v-284z" />
    <glyph glyph-name="uni0035.smcp" horiz-adv-x="437" 
d="M-24 917h461v-1130h-461v1130zM391 156q0 164 -229 164h-39v145h183l10 -82l57 5l-7 133h-309v-237l24 -21q36 3 74 3q75 0 118 -23.5t43 -89.5q0 -49 -31 -78t-88 -29q-67 0 -120 58l-43 -37q21 -34 66.5 -54.5t98.5 -20.5q83 0 137.5 45t54.5 119z" />
    <glyph glyph-name="uni0036.smcp" horiz-adv-x="460" 
d="M-24 917h484v-1130h-484v1130zM403 166q0 69 -37.5 114t-116.5 45q-57 0 -92.5 -24t-50.5 -60v10q2 116 31.5 170t100.5 54q66 0 116 -56l34 41q-59 69 -156 69q-102 0 -151 -76.5t-49 -206.5q0 -254 191 -254q89 0 134.5 48.5t45.5 125.5zM331 162q0 -112 -105 -112
q-56 0 -82.5 28.5t-33.5 80.5q1 43 29.5 77t91.5 34q100 0 100 -108z" />
    <glyph glyph-name="uni0037.smcp" horiz-adv-x="399" 
d="M-24 917h423v-1130h-423v1130zM14 521v-144h62v89h224l-200 -466h69l207 485l-10 36h-352z" />
    <glyph glyph-name="uni0038.smcp" horiz-adv-x="466" 
d="M-24 917h490v-1130h-490v1130zM216 -8q86 0 141 38t55 103q0 51 -34 83.5t-94 59.5q54 23 83.5 51t29.5 73q0 58 -50.5 93.5t-126.5 35.5q-78 0 -127 -37.5t-49 -96.5q0 -78 112 -130q-60 -24 -93.5 -55t-33.5 -83q0 -64 51.5 -99.5t135.5 -35.5zM119 401q0 34 28 54.5
t73 20.5t75.5 -21t30.5 -62q0 -33 -23.5 -53.5t-69.5 -41.5q-56 24 -85 46.5t-29 56.5zM219 46q-54 0 -86.5 24.5t-32.5 67.5q0 37 27 60t78 45q33 -14 51 -23t39.5 -23t31.5 -31t10 -38q0 -38 -33 -60t-85 -22z" />
    <glyph glyph-name="uni0039.smcp" horiz-adv-x="460" 
d="M-24 917h484v-1130h-484v1130zM404 276q0 253 -191 253q-89 0 -134.5 -48.5t-45.5 -125.5q0 -69 37.5 -113.5t115.5 -44.5q108 0 144 83q0 -7 -1 -8q-2 -116 -31 -170.5t-100 -54.5q-64 0 -108 54l-35 -41q59 -68 153 -68q101 0 148.5 78t47.5 206zM326 357
q-3 -43 -32 -74.5t-89 -31.5q-100 0 -100 108q0 113 105 113q56 0 82.5 -30t33.5 -85z" />
    <glyph glyph-name="uni0030.pnum_lnum_zero" horiz-adv-x="570" 
d="M-24 917h594v-1130h-594v1130zM33 319q0 -329 238 -329q242 0 242 338q0 332 -237 332q-243 0 -243 -341zM111 327q0 59 6.5 103t23 83.5t50 60.5t83.5 21t83.5 -21t49.5 -61t22 -81.5t6 -97.5q0 -136 -35 -207.5t-127 -71.5q-48 0 -81 20t-50 59t-24 85t-7 108zM243 391
v-111h57v111h-57z" />
    <glyph glyph-name="uni0030.pnum_lnum" horiz-adv-x="570" 
d="M-24 917h594v-1130h-594v1130zM33 319q0 -329 238 -329q242 0 242 338q0 332 -237 332q-243 0 -243 -341zM111 327q0 59 6.5 103t23 83.5t50 60.5t83.5 21t83.5 -21t49.5 -61t22 -81.5t6 -97.5q0 -136 -35 -207.5t-127 -71.5q-48 0 -81 20t-50 59t-24 85t-7 108z" />
    <glyph glyph-name="uni0031.pnum_lnum" horiz-adv-x="370" 
d="M-24 917h394v-1130h-394v1130zM24 586h127v-522h-127v-64h322v64h-122v586h-200v-64z" />
    <glyph glyph-name="uni0032.pnum_lnum" horiz-adv-x="514" 
d="M-24 917h538v-1130h-538v1130zM95 482l19 88q38 27 108 27q59 0 93 -32.5t34 -83.5q0 -23 -5.5 -47t-20 -50t-26 -46t-38.5 -50.5t-40 -46t-48.5 -49t-47.5 -44.5t-52.5 -47.5t-48.5 -43.5l8 -57h418l19 149l-63 7l-19 -92h-266q9 8 46.5 40.5t58 51.5t56.5 54.5t57.5 65
t45 66t34.5 74t11 74.5q0 74 -52.5 122t-138.5 48q-114 0 -184 -60l-17 -111z" />
    <glyph glyph-name="uni0033.pnum_lnum" horiz-adv-x="486" 
d="M-24 917h510v-1130h-510v1130zM52 609l-17 -110l58 -7l17 81q48 25 97 25q56 0 87.5 -28t31.5 -77q0 -50 -38 -86.5t-124 -40.5v-54q102 -3 145.5 -34.5t43.5 -93.5q0 -57 -31 -94.5t-104 -37.5q-105 0 -142 98l-56 -20q13 -64 62.5 -102.5t137.5 -38.5q98 0 154.5 52
t56.5 139q0 138 -154 164v4q126 38 126 154q0 75 -50.5 117t-131.5 42q-92 0 -169 -52z" />
    <glyph glyph-name="uni0034.pnum_lnum" horiz-adv-x="534" 
d="M-24 917h558v-1130h-558v1130zM497 226h-105v424h-156l-233 -424l8 -62h309v-164h72v164h97zM320 226h-246l197 361h49v-361z" />
    <glyph glyph-name="uni0035.pnum_lnum" horiz-adv-x="508" 
d="M-24 918h532v-1130h-532v1130zM456 193q0 61 -22.5 103.5t-63.5 63.5t-85.5 29.5t-102.5 8.5q-34 0 -50 -1v190h232l10 -81l61 6l-9 138h-362v-294l25 -24q41 3 84 3q45 0 78 -5.5t64 -20t47 -44.5t16 -75q0 -65 -35.5 -101.5t-105.5 -36.5q-106 0 -137 97l-57 -20
q13 -63 64 -101.5t136 -38.5q100 0 156.5 54t56.5 150z" />
    <glyph glyph-name="uni0036.pnum_lnum" horiz-adv-x="528" 
d="M-24 917h552v-1130h-552v1130zM469 205q0 87 -45 142.5t-138 55.5q-72 0 -115.5 -31.5t-60.5 -78.5q0 19 1 21q2 145 36.5 214t123.5 69t144 -69l43 44q-72 88 -186 88q-124 0 -181 -95.5t-57 -257.5q0 -72 11 -127t36 -99t70 -67.5t108 -23.5q105 0 157.5 60t52.5 155z
M395 202q0 -146 -134 -146q-69 0 -102.5 37.5t-43.5 106.5q5 55 42 97.5t111 42.5q127 0 127 -138z" />
    <glyph glyph-name="uni0037.pnum_lnum" horiz-adv-x="467" 
d="M-24 918h491v-1130h-491v1130zM441 609l-10 42h-410v-174h65v111h278l-243 -588h73z" />
    <glyph glyph-name="uni0038.pnum_lnum" horiz-adv-x="535" 
d="M-24 917h559v-1130h-559v1130zM481 163q0 66 -42 106.5t-117 75.5q65 27 101.5 61.5t36.5 91.5q0 73 -58.5 117.5t-147.5 44.5q-91 0 -148.5 -46.5t-57.5 -119.5q0 -56 35.5 -93t99.5 -68q-72 -30 -112 -68t-40 -105q0 -82 60 -126t159 -44q101 0 166 47t65 126zM386 493
q0 -43 -28.5 -69.5t-91.5 -54.5q-34 16 -54.5 26.5t-43 27t-33 36t-10.5 43.5q0 44 36 70t93 26q58 0 95 -27t37 -78zM404 160q0 -50 -43 -79t-109 -29q-67 0 -107.5 31t-40.5 87q0 51 33 80.5t99 58.5q34 -15 43.5 -19.5t37 -18.5t37 -22.5t24.5 -23.5t20.5 -30.5
t5.5 -34.5z" />
    <glyph glyph-name="uni0039.pnum_lnum" horiz-adv-x="528" 
d="M-24 917h552v-1130h-552v1130zM34 444q0 -87 45 -142t139 -55q72 0 115 31t60 78v-20q-2 -144 -37 -213.5t-124 -69.5q-88 0 -144 68l-43 -44q73 -88 186 -88q64 0 111 26.5t74.5 75.5t40.5 111t13 140q0 72 -11 127.5t-36.5 99.5t-70.5 67t-108 23q-105 0 -157.5 -60
t-52.5 -155zM109 448q0 145 133 145q70 0 103 -37t43 -107q-5 -55 -41.5 -97.5t-110.5 -42.5q-127 0 -127 139z" />
    <glyph glyph-name="uni0030.tnum_lnum_zero" horiz-adv-x="596" 
d="M-24 917h620v-1130h-620v1130zM47 319q0 -72 11 -128.5t37 -103.5t73.5 -72t115.5 -25q241 0 241 338q0 332 -236 332q-242 0 -242 -341zM124 327q0 59 6.5 103t23 83.5t50 60.5t83.5 21t83.5 -21t49.5 -61t22 -81.5t6 -97.5q0 -66 -7 -113.5t-24.5 -86.5t-50 -59
t-80.5 -20q-39 0 -68 14t-47 37t-28.5 59t-14.5 74.5t-4 87.5zM257 391v-111h57v111h-57z" />
    <glyph glyph-name="uni0030.tnum_lnum" horiz-adv-x="596" 
d="M-24 917h620v-1130h-620v1130zM47 319q0 -72 11 -128.5t37 -103.5t73.5 -72t115.5 -25q241 0 241 338q0 332 -236 332q-242 0 -242 -341zM124 327q0 59 6.5 103t23 83.5t50 60.5t83.5 21t83.5 -21t49.5 -61t22 -81.5t6 -97.5q0 -66 -7 -113.5t-24.5 -86.5t-50 -59
t-80.5 -20q-39 0 -68 14t-47 37t-28.5 59t-14.5 74.5t-4 87.5z" />
    <glyph glyph-name="uni0031.tnum_lnum" horiz-adv-x="596" 
d="M-24 917h620v-1130h-620v1130zM136 586h127v-522h-127v-64h323v64h-123v586h-200v-64z" />
    <glyph glyph-name="uni0032.tnum_lnum" horiz-adv-x="596" 
d="M-24 917h620v-1130h-620v1130zM130 482l19 88q39 27 109 27q59 0 92.5 -32.5t33.5 -83.5q0 -23 -5.5 -47t-20 -50t-26.5 -46.5t-37.5 -49.5t-40.5 -46.5t-48.5 -49t-47.5 -44.5t-52 -47t-48 -44l7 -57h419l19 149l-63 7l-19 -92h-266q9 8 46.5 40.5t58 51.5t56.5 54.5
t57.5 65t45 66t34.5 74t11 74.5q0 74 -52.5 122t-138.5 48q-114 0 -184 -60l-17 -111z" />
    <glyph glyph-name="uni0033.tnum_lnum" horiz-adv-x="596" 
d="M-24 917h620v-1130h-620v1130zM92 609l-17 -110l57 -7l18 81q47 25 97 25q56 0 87 -28t31 -77q0 -50 -37.5 -86.5t-124.5 -40.5v-54q102 -3 145.5 -34.5t43.5 -93.5q0 -57 -30.5 -94.5t-103.5 -37.5q-105 0 -142 98l-57 -20q13 -64 63 -102.5t138 -38.5q97 0 153.5 52
t56.5 139q0 138 -153 164v4q125 39 125 154q0 75 -50.5 117t-131.5 42q-93 0 -168 -52z" />
    <glyph glyph-name="uni0034.tnum_lnum" horiz-adv-x="596" 
d="M-24 917h620v-1130h-620v1130zM422 -1v165h97l8 62h-105v425h-156l-233 -425l8 -62h309v-165h72zM350 226h-246l196 362h50v-362z" />
    <glyph glyph-name="uni0035.tnum_lnum" horiz-adv-x="596" 
d="M-24 917h620v-1130h-620v1130zM501 194q0 49 -15.5 86t-40.5 59t-61.5 36t-73.5 18.5t-83 4.5q-34 0 -50 -1v191h232l10 -81l61 6l-8 138h-362v-294l24 -24q42 3 84 3q46 0 79 -5.5t63.5 -20t46.5 -44.5t16 -75q0 -66 -35.5 -102.5t-105.5 -36.5q-52 0 -87 26t-50 72
l-56 -20q13 -63 64 -101.5t136 -38.5q101 0 156.5 53.5t55.5 150.5z" />
    <glyph glyph-name="uni0036.tnum_lnum" horiz-adv-x="596" 
d="M-24 917h620v-1130h-620v1130zM503 205q0 87 -45 142.5t-139 55.5q-72 0 -115 -31.5t-60 -78.5v21q2 144 37 213.5t124 69.5q88 0 144 -69l43 44q-72 88 -186 88q-64 0 -111 -26.5t-74.5 -75.5t-40.5 -111t-13 -140q0 -149 51.5 -233t173.5 -84q105 0 158 60t53 155z
M428 202q0 -146 -134 -146q-69 0 -102.5 37.5t-42.5 106.5q5 55 41.5 97.5t110.5 42.5q127 0 127 -138z" />
    <glyph glyph-name="uni0037.tnum_lnum" horiz-adv-x="596" 
d="M-24 917h620v-1130h-620v1130zM506 609l-10 42h-411v-174h66v111h277l-242 -588h73z" />
    <glyph glyph-name="uni0038.tnum_lnum" horiz-adv-x="596" 
d="M-24 917h620v-1130h-620v1130zM512 163q0 66 -42 106.5t-117 75.5q65 27 101.5 61.5t36.5 91.5q0 73 -58.5 117.5t-147.5 44.5q-91 0 -148.5 -46.5t-57.5 -119.5q0 -56 35.5 -93t98.5 -68q-72 -30 -111.5 -68.5t-39.5 -104.5q0 -82 60 -126t159 -44q101 0 166 47t65 126z
M417 493q0 -43 -29 -69.5t-91 -54.5q-34 16 -54.5 26.5t-43 27t-33 36t-10.5 43.5q0 44 36 70t93 26q58 0 95 -27t37 -78zM434 160q0 -50 -43 -79t-108 -29q-67 0 -107.5 31t-40.5 87q0 51 32.5 80.5t98.5 58.5q37 -16 51.5 -23t43 -23t40.5 -28.5t22.5 -32.5t10.5 -42z" />
    <glyph glyph-name="uni0039.tnum_lnum" horiz-adv-x="596" 
d="M-24 917h620v-1130h-620v1130zM68 445q0 -87 45 -142.5t139 -55.5q72 0 115 31.5t60 78.5v-21q-2 -144 -37 -213.5t-124 -69.5q-88 0 -144 69l-43 -44q73 -88 186 -88q64 0 111 26.5t74.5 75.5t40.5 111t13 140q0 149 -51.5 233t-173.5 84q-105 0 -158 -60t-53 -155z
M143 448q0 146 134 146q69 0 102.5 -37.5t43.5 -106.5q-5 -55 -42.5 -97.5t-110.5 -42.5q-127 0 -127 138z" />
    <glyph glyph-name="uni0030.tnum_onum_zero" horiz-adv-x="596" 
d="M-24 917h620v-1130h-620v1130zM527 259q0 121 -60.5 196.5t-178.5 75.5q-116 0 -179.5 -76.5t-63.5 -198.5q0 -124 61.5 -195t177.5 -71t179.5 72t63.5 197zM450 262q0 -101 -42.5 -154t-121.5 -53q-80 0 -121.5 53.5t-41.5 152.5t41 152t123 53t122.5 -53.5t40.5 -150.5
zM258 321v-111h57v111h-57z" />
    <glyph glyph-name="uni0030.tnum_onum" horiz-adv-x="596" 
d="M-24 917h620v-1130h-620v1130zM527 259q0 121 -60.5 196.5t-178.5 75.5q-116 0 -179.5 -76.5t-63.5 -198.5q0 -124 61.5 -195t177.5 -71t179.5 72t63.5 197zM450 262q0 -101 -42.5 -154t-121.5 -53q-80 0 -121.5 53.5t-41.5 152.5t41 152t123 53t122.5 -53.5t40.5 -150.5
z" />
    <glyph glyph-name="uni0031.tnum_onum" horiz-adv-x="596" 
d="M-24 917h620v-1130h-620v1130zM458 0v64h-118v457h-195v-64h122v-393h-122v-64h313z" />
    <glyph glyph-name="uni0032.tnum_onum" horiz-adv-x="596" 
d="M-24 917h620v-1130h-620v1130zM104 487l-17 -110l58 -7l17 75q51 23 105 23q57 0 88.5 -26.5t31.5 -73.5q0 -29 -15.5 -59t-37.5 -55t-68 -61.5t-82.5 -62.5t-106.5 -73l7 -57h406l11 139l-61 5l-9 -80h-260q37 22 51.5 31t53 35t57.5 42t48.5 43.5t44.5 50.5t26.5 52
t11.5 58q0 63 -44.5 109t-135.5 46q-105 0 -180 -44z" />
    <glyph glyph-name="uni0033.tnum_onum" horiz-adv-x="596" 
d="M-24 917h620v-1130h-620v1130zM93 479l-17 -110l58 -7l17 81q47 25 97 25q56 0 87 -28t31 -77q0 -50 -37.5 -86.5t-124.5 -40.5v-54q102 -3 145.5 -34.5t43.5 -93.5q0 -57 -30.5 -94.5t-103.5 -37.5q-105 0 -142 98l-57 -20q13 -64 63 -102.5t138 -38.5q97 0 153.5 52
t56.5 139q0 138 -153 164v4q125 39 125 154q0 75 -50.5 117t-131.5 42q-93 0 -168 -52z" />
    <glyph glyph-name="uni0034.tnum_onum" horiz-adv-x="596" 
d="M-24 917h620v-1130h-620v1130zM424 -131v165h97l8 62h-105v425h-155l-234 -425l8 -62h309v-165h72zM352 96h-246l197 362h49v-362z" />
    <glyph glyph-name="uni0035.tnum_onum" horiz-adv-x="596" 
d="M-24 917h620v-1130h-620v1130zM499 64q0 49 -15.5 86t-40.5 59t-61.5 36t-73.5 18.5t-83 4.5q-33 0 -49 -1v191h231l10 -81l62 6l-9 138h-362v-294l25 -24q40 3 83 3q46 0 79 -5.5t63.5 -20t46.5 -44.5t16 -75q0 -66 -35 -102.5t-105 -36.5q-105 0 -137 98l-57 -20
q13 -63 64 -101.5t136 -38.5q101 0 156.5 53.5t55.5 150.5z" />
    <glyph glyph-name="uni0036.tnum_onum" horiz-adv-x="596" 
d="M-24 917h620v-1130h-620v1130zM503 205q0 87 -45 142.5t-139 55.5q-72 0 -115 -31.5t-60 -78.5v21q2 144 37 213.5t124 69.5q88 0 144 -69l43 44q-72 88 -186 88q-64 0 -111 -26.5t-74.5 -75.5t-40.5 -111t-13 -140q0 -149 51.5 -233t173.5 -84q105 0 158 60t53 155z
M428 202q0 -146 -134 -146q-69 0 -102.5 37.5t-42.5 106.5q5 55 41.5 97.5t110.5 42.5q127 0 127 -138z" />
    <glyph glyph-name="uni0037.tnum_onum" horiz-adv-x="596" 
d="M-24 917h620v-1130h-620v1130zM505 479l-10 42h-411v-174h66v111h277l-242 -588h73z" />
    <glyph glyph-name="uni0038.tnum_onum" horiz-adv-x="596" 
d="M-24 917h620v-1130h-620v1130zM512 163q0 66 -42 106.5t-117 75.5q65 27 101.5 61.5t36.5 91.5q0 73 -58.5 117.5t-147.5 44.5q-91 0 -148.5 -46.5t-57.5 -119.5q0 -56 35.5 -93t98.5 -68q-72 -30 -111.5 -68.5t-39.5 -104.5q0 -82 60 -126t159 -44q101 0 166 47t65 126z
M417 493q0 -43 -29 -69.5t-91 -54.5q-34 16 -54.5 26.5t-43 27t-33 36t-10.5 43.5q0 44 36 70t93 26q58 0 95 -27t37 -78zM434 160q0 -50 -43 -79t-108 -29q-67 0 -107.5 31t-40.5 87q0 51 32.5 80.5t98.5 58.5q37 -16 51.5 -23t43 -23t40.5 -28.5t22.5 -32.5t10.5 -42z" />
    <glyph glyph-name="uni0039.tnum_onum" horiz-adv-x="596" 
d="M-24 917h620v-1130h-620v1130zM67 315q0 -87 45.5 -142.5t138.5 -55.5q72 0 115.5 31.5t59.5 78.5v-21q-2 -145 -36.5 -214t-123.5 -69t-145 69l-43 -44q73 -88 187 -88q124 0 181 95.5t57 257.5q0 149 -51.5 233t-173.5 84q-105 0 -158 -60t-53 -155zM142 318
q0 146 134 146q69 0 102.5 -37.5t43.5 -106.5q-5 -56 -42 -98t-111 -42q-127 0 -127 138z" />
    <glyph glyph-name="uni0030.numr" horiz-adv-x="375" 
d="M-24 917h399v-1130h-399v1130zM25 468q0 -184 148 -184q153 0 153 189q0 187 -150 187q-151 0 -151 -192zM88 474q0 65 18.5 102t68.5 37q52 0 70 -36.5t18 -100.5q0 -70 -19.5 -107.5t-69.5 -37.5q-49 0 -67.5 37.5t-18.5 105.5z" />
    <glyph glyph-name="uni0031.numr" horiz-adv-x="256" 
d="M-24 915h280v-1130h-280v1130zM21 607h75v-274h-75v-45h205v45h-72v319h-133v-45z" />
    <glyph glyph-name="uni0032.numr" horiz-adv-x="344" 
d="M-24 917h368v-1130h-368v1130zM73 542l13 56q26 17 57 17q71 0 71 -57q0 -16 -5.5 -32.5t-19 -34.5t-25 -32t-34 -34t-35 -31t-39 -33t-36.5 -30l5 -41h272l10 94l-47 5l-10 -54h-156q5 4 30.5 24t40.5 33t39.5 36.5t38 42.5t24.5 44t11 48q0 41 -30 69t-90 28
q-76 0 -119 -37l-11 -76z" />
    <glyph glyph-name="uni0033.numr" horiz-adv-x="338" 
d="M-24 917h362v-1130h-362v1130zM79 548l12 50q28 16 59 16q30 0 47 -14t17 -38q0 -60 -90 -64v-38q104 -3 104 -63q0 -30 -21 -49t-58 -19q-68 0 -84 63l-42 -12q7 -45 40 -71t84 -26q62 0 103 28t41 80q0 78 -89 91v2q73 22 73 86q0 41 -30 65t-81 24q-79 0 -120 -37
l-10 -69z" />
    <glyph glyph-name="uni0034.numr" horiz-adv-x="353" 
d="M-24 915h377v-1130h-377v1130zM194 287h58v89h57l4 45h-61v231h-114l-130 -232l6 -44h180v-89zM167 607h27v-186h-133z" />
    <glyph glyph-name="uni0035.numr" horiz-adv-x="331" 
d="M-24 915h355v-1130h-355v1130zM288 397q0 115 -163 115h-27v95h123l6 -50l46 5l-5 90h-225v-169l20 -16q34 2 55 2q108 0 108 -72q0 -33 -21 -51.5t-59 -18.5q-67 0 -83 63l-42 -12q6 -45 39.5 -71t84.5 -26q63 0 103 29t40 87z" />
    <glyph glyph-name="uni0036.numr" horiz-adv-x="344" 
d="M-24 917h368v-1130h-368v1130zM181 615q41 0 73 -38l32 34q-46 49 -112 49q-72 0 -110.5 -56t-38.5 -146q0 -174 138 -174q64 0 97.5 34.5t33.5 89.5q0 48 -26 79.5t-82 31.5q-75 0 -99 -55q1 79 23 115t71 36zM169 475q66 0 66 -70q0 -74 -70 -74q-38 0 -55 20t-21 58
q2 27 21 46.5t59 19.5z" />
    <glyph glyph-name="uni0037.numr" horiz-adv-x="304" 
d="M-24 915h328v-1130h-328v1130zM15 652v-107h51v62h149l-139 -319h58l144 336l-8 28h-255z" />
    <glyph glyph-name="uni0038.numr" horiz-adv-x="349" 
d="M-24 917h373v-1130h-373v1130zM158 284q64 0 104 27t40 73q0 37 -24.5 60t-68.5 42q38 15 59 34t21 50q0 40 -36 65t-91 25q-58 0 -93.5 -26.5t-35.5 -69.5q0 -32 21 -52.5t58 -38.5q-42 -16 -65.5 -37t-23.5 -57q0 -45 37.5 -70t97.5 -25zM96 570q0 21 18 34t48 13
q29 0 48 -13.5t19 -40.5q0 -22 -14 -35t-41 -26q-27 11 -40.5 18.5t-25.5 20.5t-12 29zM161 327q-37 0 -58 16.5t-21 45.5q0 24 16.5 39t47.5 30q33 -14 47.5 -21t30 -22.5t15.5 -34.5q0 -24 -22 -38.5t-56 -14.5z" />
    <glyph glyph-name="uni0039.numr" horiz-adv-x="343" 
d="M-24 917h367v-1130h-367v1130zM142 329q-45 0 -76 38l-32 -34q45 -49 115 -49q72 0 109 55t37 145q0 176 -139 176q-63 0 -97 -34.5t-34 -89.5q0 -48 26 -79.5t83 -31.5q73 0 98 54q-1 -80 -21.5 -115t-68.5 -35zM150 469q-66 0 -66 70q0 74 71 74q37 0 54 -20t22 -59
q-3 -26 -22.5 -45.5t-58.5 -19.5z" />
    <glyph glyph-name="uni00A9.pnum_lnum" horiz-adv-x="763" 
d="M-24 917h787v-1130h-787v1130zM703 327q0 138 -97.5 235.5t-236.5 97.5q-138 0 -235.5 -97.5t-97.5 -235.5t97.5 -235.5t235.5 -97.5q139 0 236.5 97.5t97.5 235.5zM660 326q0 -123 -84.5 -207t-205.5 -84q-120 0 -205.5 86t-85.5 206q0 121 83.5 206.5t206.5 85.5
q122 0 206.5 -85.5t84.5 -207.5zM494 185l10 68l-43 4l-10 -46q-31 -16 -70 -16q-61 0 -94 35.5t-33 102.5q0 65 31 102t88 37q44 0 80 -24l10 -47l43 4l-10 69q-49 42 -126 42q-74 0 -122.5 -53.5t-48.5 -130.5q0 -78 48.5 -129t126.5 -51q81 0 120 33z" />
    <glyph glyph-name="uni2117.pnum_lnum" horiz-adv-x="762" 
d="M-24 917h786v-1130h-786v1130zM369 -6q139 0 236.5 97.5t97.5 235.5t-97.5 235.5t-236.5 97.5q-138 0 -235.5 -97.5t-97.5 -235.5t97.5 -235.5t235.5 -97.5zM369 35q-120 0 -205 86t-85 206q0 122 83.5 207t206.5 85q122 0 206.5 -85.5t84.5 -206.5q0 -124 -84.5 -208
t-206.5 -84zM226 114h178v47h-70v104h78q65 0 105.5 35t40.5 98q0 55 -37.5 90.5t-112.5 35.5h-182v-46h52v-317h-52v-47zM403 478q94 0 94 -82q0 -86 -93 -86h-70v168h69z" />
    <glyph glyph-name="uni267E.pnum_lnum" horiz-adv-x="763" 
d="M-24 917h787v-1130h-787v1130zM369 -6q139 0 236.5 97.5t97.5 235.5t-97.5 235.5t-236.5 97.5q-138 0 -235.5 -97.5t-97.5 -235.5t97.5 -235.5t235.5 -97.5zM369 35q-120 0 -205 86t-85 206q0 122 83.5 207t206.5 85q122 0 206.5 -85.5t84.5 -206.5q0 -124 -84.5 -208
t-206.5 -84zM474 219q44 0 72.5 30.5t28.5 81.5t-26.5 81t-69.5 30q-38 0 -62 -22.5t-49 -63.5q-14 26 -25.5 42t-32.5 30t-46 14q-43 0 -72 -31t-29 -82q0 -50 28 -80t72 -30q37 0 60 20.5t45 59.5q22 -38 45.5 -59t60.5 -21zM475 403q28 0 43.5 -19.5t15.5 -51.5
q0 -37 -18.5 -56.5t-45.5 -19.5q-50 0 -87 71q14 24 24 38t28 26t40 12zM264 256q-27 0 -44 20t-17 53q0 36 17.5 55t44.5 19q29 0 48.5 -19.5t39.5 -56.5q-42 -71 -89 -71z" />
    <glyph glyph-name="uni0061.smcp" horiz-adv-x="528" 
d="M117 521v-56h86l-177 -409h-50v861h552v-861h-53l-197 465h-161zM249 428h5l89 -228h-187zM-24 -213v213h197v56h-75l37 92h229l36 -92h-70v-56h198v-213h-552z" />
    <glyph glyph-name="uni0062.smcp" horiz-adv-x="522" 
d="M-24 917h546v-1130h-546v1130zM28 521v-56h67v-409h-67v-56h261q88 0 135.5 41.5t47.5 107.5q0 51 -29.5 87t-87.5 45v4q44 8 69 38.5t25 74.5q0 56 -42.5 89.5t-121.5 33.5h-257zM271 465q103 0 103 -81q0 -43 -28.5 -66t-78.5 -23h-101v170h105zM292 243q51 0 77.5 -24
t26.5 -68q0 -95 -121 -95h-109v187h126z" />
    <glyph glyph-name="uni0063.smcp" horiz-adv-x="540" 
d="M-24 -213v1130h564v-1130h-564zM469 42l16 119l-60 6l-19 -96q-51 -21 -112 -21q-85 0 -138.5 57.5t-53.5 152.5q0 94 52.5 153t138.5 59q67 0 110 -20l19 -97l60 6l-17 118q-61 50 -180 50q-112 0 -185.5 -78.5t-73.5 -192.5q0 -115 73 -190.5t184 -75.5q113 0 186 50z
" />
    <glyph glyph-name="uni0064.smcp" horiz-adv-x="603" 
d="M-24 -213v1130h627v-1130h-627zM95 55h-66v-55h248q127 0 201.5 72t74.5 189t-73.5 188.5t-206.5 71.5h-244v-56h66v-410zM272 465q98 0 151.5 -54.5t53.5 -149.5q0 -96 -53.5 -151t-151.5 -55h-106v410h106z" />
    <glyph glyph-name="uni0065.smcp" horiz-adv-x="508" 
d="M-24 -213v1130h532v-1130h-532zM28 0h408l20 147l-61 7l-18 -98h-212v181h253v55h-253v173h212l18 -97l60 9l-18 144h-409v-56h67v-409h-67v-56z" />
    <glyph glyph-name="uni0066.smcp" horiz-adv-x="482" 
d="M-24 917h506v-1130h-506v1130zM442 370l-17 151h-397v-56h67v-409h-67v-56h232v56h-95v157h246v57h-246v195h200l15 -101z" />
    <glyph glyph-name="uni0067.smcp" horiz-adv-x="594" 
d="M-24 -213v1130h618v-1130h-618zM449 68l6 -68h57v215h39v55h-237v-55h128v-46q-2 -50 -43 -84.5t-108 -34.5q-86 0 -137.5 57.5t-51.5 153.5q0 95 51 153t140 58q69 0 118 -26l19 -94l61 6l-17 118q-63 53 -186 53q-114 0 -188 -78t-74 -193q0 -113 70.5 -189.5
t181.5 -76.5q57 0 101.5 21t69.5 55z" />
    <glyph glyph-name="uni0068.smcp" horiz-adv-x="644" 
d="M-24 -213v1130h668v-1130h-668zM388 56v-56h204v56h-67v409h67v56h-204v-56h67v-172h-289v172h66v56h-204v-56h67v-409h-67v-56h204v56h-66v182h289v-182h-67z" />
    <glyph glyph-name="uni0069.smcp" horiz-adv-x="284" 
d="M-24 -213v1130h308v-1130h-308zM28 521v-56h67v-409h-67v-56h204v56h-66v409h66v56h-204z" />
    <glyph glyph-name="uni006A.smcp" horiz-adv-x="399" 
d="M-24 -213v1130h423v-1130h-423zM116 521v-56h106v-330q0 -83 -79 -83q-56 0 -86 56l-50 -35q41 -81 139 -81q69 0 108 36.5t39 106.5v330h59v56h-236z" />
    <glyph glyph-name="uni006B.smcp" horiz-adv-x="556" 
d="M-24 -213v1130h580v-1130h-580zM321 522v-56h63l-133 -173h-85v172h61v56h-199v-56h67v-409h-67v-56h197v56h-59v182h82l140 -182h-61v-56h204v56h-61l-165 214l155 196h61v56h-200z" />
    <glyph glyph-name="uni006C.smcp" horiz-adv-x="472" 
d="M-24 -213v1130h496v-1130h-496zM28 0h395l19 167l-61 6l-19 -117h-197v409h88v56h-225v-56h67v-409h-67v-56z" />
    <glyph glyph-name="uni006D.smcp" horiz-adv-x="753" 
d="M-24 -213v1130h777v-1130h-777zM24 521v-56h71v-409h-67v-56h198v56h-64v316h4l181 -344h36l177 342h3v-314h-62v-56h198v56h-66v409h71v56h-132l-202 -395h-3l-211 395h-132z" />
    <glyph glyph-name="uni006E.smcp" horiz-adv-x="633" 
d="M-24 -213v1130h657v-1130h-657zM373 521v-56h82v-332h-4l-305 388h-122v-56h71v-409h-63v-56h215v56h-85v342h4l312 -398h44v465h67v56h-216z" />
    <glyph glyph-name="uni006F.smcp" 
d="M-24 -213v1130h646v-1130h-646zM300 529q-121 0 -197.5 -77t-76.5 -192q0 -114 74.5 -191t197.5 -77t199 77.5t76 191.5t-76 191t-197 77zM300 50q-91 0 -145 61t-54 150q0 91 54 151t144 60q89 0 144 -59.5t55 -153.5q0 -91 -53.5 -150t-144.5 -59z" />
    <glyph glyph-name="uni0070.smcp" horiz-adv-x="497" 
d="M-24 -213v1130h521v-1130h-521zM28 56v-56h229v56h-91v137h102q83 0 135 44t52 122q0 73 -47.5 117.5t-144.5 44.5h-235v-56h67v-409h-67zM256 465q124 0 124 -107q0 -110 -123 -110h-91v217h90z" />
    <glyph glyph-name="uni0071.smcp" horiz-adv-x="628" 
d="M-24 -213v1130h652v-1130h-652zM300 529q-121 0 -197.5 -77t-76.5 -192q0 -114 74.5 -191t197.5 -77q86 0 151 41l69 -65l41 39l-64 61q78 76 78 193q0 114 -76 191t-197 77zM307 171l97 -94q-42 -27 -104 -27q-91 0 -145 61t-54 150q0 91 54 151t144 60q89 0 144 -59.5
t55 -153.5q0 -87 -50 -145l-100 97z" />
    <glyph glyph-name="uni0072.smcp" horiz-adv-x="532" 
d="M-24 -213v1130h556v-1130h-556zM28 56v-56h208v56h-70v160h97q8 0 11 1l117 -217h114v56h-67l-95 172q49 13 82.5 49.5t33.5 96.5q0 67 -48 107t-145 40h-238v-56h67v-409h-67zM256 465q68 0 98 -22t30 -72q0 -102 -128 -102h-90v196h90z" />
    <glyph glyph-name="uni0073.smcp" horiz-adv-x="466" 
d="M-24 -213v1130h490v-1130h-490zM411 148q0 41 -15 70t-48 46t-52 23.5t-58 14.5q-5 1 -8 2q-29 6 -45 11t-35 14.5t-27.5 25t-8.5 37.5q0 38 29 59.5t78 21.5q59 0 103 -27l11 -84l59 4l-7 115q-67 48 -170 48q-76 0 -127 -36.5t-51 -108.5q0 -29 10.5 -52t24 -36
t39.5 -23.5t42.5 -15t48.5 -11.5q33 -7 51.5 -13t40 -18t31 -30t9.5 -44q0 -46 -30.5 -68.5t-84.5 -22.5q-60 0 -118 28l8 73l-60 5l-17 -114q77 -50 192 -50q84 0 134.5 41t50.5 115z" />
    <glyph glyph-name="uni0074.smcp" horiz-adv-x="539" 
d="M-24 -213v1130h563v-1130h-563zM444 354l64 7l-20 160h-461l-20 -160l64 -7l18 111h134v-409h-93v-56h258v56h-94v409h132z" />
    <glyph glyph-name="uni0075.smcp" horiz-adv-x="613" 
d="M-24 -213v1130h637v-1130h-637zM566 521h-194v-56h75v-251q0 -164 -151 -164q-74 0 -111.5 40.5t-37.5 116.5v258h74v56h-199v-56h55v-260q0 -94 51 -153.5t164 -59.5q61 0 105.5 18.5t69 51t35.5 70.5t11 82v251h53v56z" />
    <glyph glyph-name="uni0076.smcp" horiz-adv-x="528" 
d="M-24 917h552v-396h-196v-56h74l-146 -370h-5l-150 370h74v56h-203v396zM29 465l197 -465h55l197 465h50v-678h-552v678h53z" />
    <glyph glyph-name="uni0077.smcp" horiz-adv-x="763" 
d="M171 465v56h-195v396h787v-396h-192v-56h76l-99 -360h-5l-123 360h54v56h-195v-56h55l-122 -358h-5l-110 358h74zM-24 -213v678h47l155 -465h58l136 407h3l140 -407h57l146 465h45v-678h-787z" />
    <glyph glyph-name="uni0078.smcp" horiz-adv-x="551" 
d="M-24 917h575v-1130h-575v1130zM202 521h-192v-56h55l159 -197l-167 -212h-57v-56h196v56h-60l124 168l132 -168h-63v-56h196v56h-49l-173 214l157 195h57v56h-191v-56h54l-113 -150l-120 150h55v56z" />
    <glyph glyph-name="uni0079.smcp" horiz-adv-x="495" 
d="M179 465v56h-203v396h519v-396h-196v-56h73l-127 -206h-5l-131 206h70zM-24 -213v678h53l175 -264v-145h-93v-56h259v56h-96v143l169 266h52v-678h-519z" />
    <glyph glyph-name="uni007A.smcp" horiz-adv-x="502" 
d="M-24 -213v1130h526v-1130h-526zM22 0h418l19 159l-61 6l-19 -109h-258v2l307 429l-1 34h-387l-19 -155l62 -6l18 105h226v-2l-307 -425z" />
    <glyph glyph-name="uni00E6.smcp" horiz-adv-x="773" 
d="M-24 -213v213h196v56h-71l47 92h212v-92h-66v-56h410l19 148l-62 6l-18 -98h-212v181h253v55h-253v173h213l17 -97l60 8l-17 145h-542v-56h81l-214 -409h-53v861h797v-1130h-797zM360 200h-186l135 265h51v-265z" />
    <glyph glyph-name="uni0153.smcp" horiz-adv-x="852" 
d="M-24 917h876v-1130h-876v1130zM783 0l19 147l-62 7l-18 -98h-212v181h252v55h-252v173h212l18 -97l62 8l-19 145h-344v-29q-61 37 -139 37q-120 0 -197.5 -77t-77.5 -191t76.5 -191.5t198.5 -77.5q79 0 139 37v-29h344zM439 98q-45 -48 -135 -48q-95 0 -149.5 61.5
t-54.5 150.5q0 90 55 150t147 60q81 0 137 -48v-326z" />
    </font>
</defs>
</svg>
