<?xml version="1.0" standalone="no"?>
<!DOCTYPE svg PUBLIC "-//W3C//DTD SVG 1.1//EN" "http://www.w3.org/Graphics/SVG/1.1/DTD/svg11.dtd" >
<svg xmlns="http://www.w3.org/2000/svg" xmlns:xlink="http://www.w3.org/1999/xlink" version="1.1">
<metadata>
Created by FontForge 20170731 at Tue Jul  4 11:58:38 2017
 By Aleksey,,,
Copyright 2017, The Mozilla Foundation
</metadata>
<defs>
<font id="ZillaSlab-SemiBoldItalic" horiz-adv-x="605" >
  <font-face 
    font-family="Zilla Slab SemiBold"
    font-weight="600"
    font-style="italic"
    font-stretch="normal"
    units-per-em="1000"
    panose-1="0 0 0 0 0 0 0 0 0 0"
    ascent="787"
    descent="-213"
    x-height="449"
    cap-height="650"
    bbox="-346 -235 1280 897"
    underline-thickness="50"
    underline-position="-175"
    slope="-6"
    unicode-range="U+0020-FB04"
  />
<missing-glyph horiz-adv-x="712" 
d="M460 675v27h27v-27h-27zM685 675v27h27v-27h-27zM610 675v27h27v-27h-27zM535 675v27h27v-27h-27zM385 675v27h27v-27h-27zM310 675v27h27v-27h-27zM235 675v27h27v-27h-27zM160 675v27h27v-27h-27zM685 600v27h27v-27h-27zM160 600v27h27v-27h-27zM460 525v27h27v-27
h-27zM385 525v27h27v-27h-27zM310 525v27h27v-27h-27zM685 525v27h27v-27h-27zM535 525v27h27v-27h-27zM160 525v27h27v-27h-27zM160 450v27h27v-27h-27zM685 450v27h27v-27h-27zM535 450v27h27v-27h-27zM160 375v27h27v-27h-27zM460 375v27h27v-27h-27zM535 375v27h27v-27
h-27zM685 375v27h27v-27h-27zM385 375v27h27v-27h-27zM160 300v27h27v-27h-27zM385 300v27h27v-27h-27zM685 300v27h27v-27h-27zM160 225v27h27v-27h-27zM685 225v27h27v-27h-27zM160 150v27h27v-27h-27zM385 150v27h27v-27h-27zM685 150v27h27v-27h-27zM160 75v27h27v-27
h-27zM685 75v27h27v-27h-27zM460 0v27h27v-27h-27zM610 0v27h27v-27h-27zM535 0v27h27v-27h-27zM685 0v27h27v-27h-27zM385 0v27h27v-27h-27zM310 0v27h27v-27h-27zM235 0v27h27v-27h-27zM160 0v27h27v-27h-27z" />
    <glyph glyph-name="uniFB00" unicode="ff" horiz-adv-x="576" 
d="M-142 366l5 56l30 27h55l11 85q10 79 57 120.5t111 41.5q95 0 123 -85q24 42 64.5 64.5t87.5 22.5q73 0 120 -37l6 -115l-79 -9l-12 73q-22 7 -43 7q-57 0 -66 -79l-11 -89h115l-7 -55l-30 -28h-88l-50 -403q-23 -185 -167 -185q-101 0 -128 80q-41 -80 -136 -80
q-63 0 -100.5 34.5t-36.5 105.5l81 24q-1 -82 52 -82t67 105l49 401h-80zM61 530l-10 -81h162l11 83q0 2 0.5 5t0.5 5q-1 34 -22 53.5t-56 19.5q-76 0 -86 -85zM203 366h-162l-49 -403l-6 -35l49 14q-1 -82 51 -82q54 0 68 105z" />
    <glyph glyph-name="uniFB01" unicode="fi" horiz-adv-x="532" 
d="M318 449l-45 -367h64l-8 -60l-26 -22h-143l45 366h-164l-49 -403q-23 -185 -166 -185q-63 0 -100.5 34.5t-36.5 105.5l81 24q-1 -82 52 -82t67 105l49 401h-80l5 56l30 27h55l9 73q10 79 61 127.5t145 48.5q91 0 154 -37l7 -119l-83 -9l-12 71q-28 13 -64 13
q-54 0 -76 -22.5t-28 -69.5l-10 -76h267z" />
    <glyph glyph-name="uniFB02" unicode="fl" horiz-adv-x="530" 
d="M346 688l-74 -606h65l-8 -60l-26 -22h-144l66 544q0 34 -21 53.5t-57 19.5q-75 0 -85 -85l-11 -83h116l-7 -55l-30 -28h-89l-49 -403q-23 -185 -166 -185q-63 0 -100.5 34.5t-36.5 105.5l81 24q-1 -82 52 -82t67 105l50 401h-81l5 56l30 27h56l11 87q9 79 56 120.5
t112 41.5q75 0 109 -59l6 49h103z" />
    <glyph glyph-name="uniFB03" unicode="ffi" horiz-adv-x="798" 
d="M583 449l-45 -367h64l-7 -60l-27 -22h-142l45 366h-165l-49 -403q-23 -185 -166 -185q-101 0 -128 81q-42 -81 -137 -81q-63 0 -100.5 34.5t-36.5 105.5l81 24q-1 -82 52 -82t67 105l49 401h-80l5 56l30 27h55l11 85q10 79 57 120.5t111 41.5q49 0 80.5 -25t41.5 -65
q52 92 179 92q91 0 154 -37l7 -119l-83 -9l-12 71q-28 13 -64 13q-54 0 -76 -22.5t-28 -69.5l-10 -76h267zM214 449l9 73q0 5 2 17q1 35 -20 55.5t-58 20.5q-76 0 -86 -85l-10 -81h163zM-8 -37l-6 -35l50 14q-2 -82 51 -82q55 0 67 105l49 401h-162z" />
    <glyph glyph-name="uniFB04" unicode="ffl" horiz-adv-x="795" 
d="M612 688l-74 -606h64l-7 -60l-27 -22h-143l65 532q4 40 -17 62.5t-60 22.5q-76 0 -86 -85l-11 -83h117l-8 -55l-30 -28h-89l-49 -403q-21 -185 -166 -185q-102 0 -128 81q-43 -81 -137 -81q-63 0 -100.5 34.5t-36.5 105.5l81 24q-1 -82 52 -82t67 105l49 401h-80l5 56
l30 27h55l11 85q10 79 57 120.5t111 41.5q47 0 78 -23t43 -61q22 42 60.5 64t84.5 22q76 0 110 -59l6 49h103zM147 615q-76 0 -86 -85l-10 -81h163l11 87v4q1 35 -20.5 55t-57.5 20zM-8 -37l-6 -36l50 15q-1 -82 52 -82q54 0 66 105l50 401h-163z" />
    <glyph glyph-name="uni00660068" unicode="fh" horiz-adv-x="804" 
d="M347 688l-39 -316q51 86 142 86q66 0 103 -41t28 -120l-26 -215h64l-7 -60l-27 -22h-142l31 258q15 117 -70 117q-45 0 -72 -29t-36 -76l-33 -270h-103l66 544q0 34 -21.5 53.5t-57.5 19.5q-75 0 -85 -85l-11 -83h116l-7 -55l-30 -28h-89l-49 -403q-23 -185 -166 -185
q-63 0 -100.5 34.5t-36.5 105.5l81 24q-1 -82 52 -82t67 105l50 401h-81l5 56l30 27h56l11 87q9 79 56 120.5t112 41.5q77 0 110 -60l6 50h103z" />
    <glyph glyph-name="uni00660062" unicode="fb" horiz-adv-x="796" 
d="M347 688l-40 -324q51 94 143 94q77 0 118 -53.5t41 -136.5q0 -67 -21 -128t-71.5 -105.5t-121.5 -44.5q-99 0 -129 80l-18 -70h-103q27 92 32 135l49 408q0 35 -21.5 54.5t-57.5 19.5q-75 0 -85 -85l-11 -83h116l-7 -55l-30 -28h-89l-49 -403q-24 -185 -166 -185
q-63 0 -100.5 34.5t-36.5 105.5l81 24q-1 -82 52 -82t67 105l50 401h-81l5 56l30 27h56l11 87q9 79 56 120.5t111 41.5q77 0 111 -61l6 51h103zM383 72q37 0 64.5 30t39 70t11.5 83q0 55 -21 87.5t-63 32.5q-49 0 -81.5 -41t-41.5 -95l-7 -57q-1 -49 26 -79.5t73 -30.5z" />
    <glyph glyph-name="uni0066006A" unicode="fj" horiz-adv-x="512" 
d="M-43 522q10 79 61 127.5t145 48.5q91 0 154 -37l7 -119l-83 -9l-12 71q-28 13 -64 13q-54 0 -76 -22.5t-28 -69.5l-10 -76h267l-56 -446q-27 -222 -148 -225q-52 -1 -93 25l4 71q56 -23 89 2.5t46 126.5l45 363h-164l-49 -403q-23 -185 -166 -185q-63 0 -100.5 34.5
t-36.5 105.5l81 24q-1 -82 52 -82t67 105l49 401h-80l5 56l30 27h55z" />
    <glyph glyph-name="uni0066006B" unicode="fk" horiz-adv-x="748" 
d="M346 688l-51 -421h64q81 82 92 182h104q-1 -60 -37 -117t-98 -99l83 -151h66l-8 -60l-27 -22h-94l-105 195h-49l-24 -195h-103l66 544q-1 34 -22 53.5t-56 19.5q-75 0 -85 -85l-11 -83h116l-7 -55l-30 -28h-89l-49 -403q-23 -185 -166 -185q-63 0 -100.5 34.5
t-36.5 105.5l81 24q-1 -82 52 -82t67 105l50 401h-81l5 56l30 27h56l11 87q9 79 56 120.5t112 41.5q75 0 109 -59l6 49h103z" />
    <glyph glyph-name="uni00660066006A" unicode="ffj" horiz-adv-x="776" 
d="M527 3q-13 -105 -50.5 -165t-101.5 -60q-48 0 -90 25l4 71q57 -22 90 3t46 126l45 363h-164l-49 -403q-23 -185 -166 -185q-101 0 -128 81q-42 -81 -137 -81q-63 0 -100.5 34.5t-36.5 105.5l81 24q-1 -82 52 -82t67 105l49 401h-80l5 56l30 27h55l11 85q10 79 57 120.5
t111 41.5q49 0 80.5 -25t41.5 -65q52 92 179 92q91 0 154 -37l7 -119l-83 -9l-12 71q-28 13 -64 13q-54 0 -76 -22.5t-28 -69.5l-10 -76h266zM214 449l9 73q0 5 2 17q1 35 -20 55.5t-58 20.5q-76 0 -86 -85l-10 -81h163zM-8 -37l-6 -35l50 14q-2 -82 51 -82q55 0 67 105
l49 401h-162z" />
    <glyph glyph-name="uni006600EC" unicode="f&#xec;" horiz-adv-x="533" 
d="M374 513l-139 137l81 69l101 -173zM-42 520q10 88 51.5 133t108.5 45q53 0 105 -29l-23 -81q-38 26 -70 26q-30 0 -46.5 -21t-22.5 -68l-10 -76h267l-45 -367h64l-8 -60l-26 -22h-143l45 366h-164l-49 -403q-23 -185 -166 -185q-63 0 -100.5 34.5t-36.5 105.5l81 24
q-1 -82 52 -82t67 105l50 401h-81l5 56l30 27h56z" />
    <glyph glyph-name="uni006600EF" unicode="f&#xef;" horiz-adv-x="532" 
d="M318 449l-45 -367h64l-8 -60l-26 -22h-143l45 366h-163l-50 -403q-23 -185 -166 -185q-63 0 -100.5 34.5t-36.5 105.5l81 24q-1 -82 52 -82t67 105l49 401h-80l5 56l30 27h55l9 69q10 79 59 129.5t129 50.5q61 0 99.5 -26.5t34.5 -63.5l-7 -68h-108l5 49q1 14 -11 20.5
t-30 6.5q-57 0 -65 -79l-11 -88h266zM333 540l11 101h108l-10 -101h-109z" />
    <glyph glyph-name=".notdef" horiz-adv-x="712" 
d="M460 675v27h27v-27h-27zM685 675v27h27v-27h-27zM610 675v27h27v-27h-27zM535 675v27h27v-27h-27zM385 675v27h27v-27h-27zM310 675v27h27v-27h-27zM235 675v27h27v-27h-27zM160 675v27h27v-27h-27zM685 600v27h27v-27h-27zM160 600v27h27v-27h-27zM460 525v27h27v-27
h-27zM385 525v27h27v-27h-27zM310 525v27h27v-27h-27zM685 525v27h27v-27h-27zM535 525v27h27v-27h-27zM160 525v27h27v-27h-27zM160 450v27h27v-27h-27zM685 450v27h27v-27h-27zM535 450v27h27v-27h-27zM160 375v27h27v-27h-27zM460 375v27h27v-27h-27zM535 375v27h27v-27
h-27zM685 375v27h27v-27h-27zM385 375v27h27v-27h-27zM160 300v27h27v-27h-27zM385 300v27h27v-27h-27zM685 300v27h27v-27h-27zM160 225v27h27v-27h-27zM685 225v27h27v-27h-27zM160 150v27h27v-27h-27zM385 150v27h27v-27h-27zM685 150v27h27v-27h-27zM160 75v27h27v-27
h-27zM685 75v27h27v-27h-27zM460 0v27h27v-27h-27zM610 0v27h27v-27h-27zM535 0v27h27v-27h-27zM685 0v27h27v-27h-27zM385 0v27h27v-27h-27zM310 0v27h27v-27h-27zM235 0v27h27v-27h-27zM160 0v27h27v-27h-27z" />
    <glyph glyph-name=".null" horiz-adv-x="0" 
 />
    <glyph glyph-name="nonmarkingreturn" horiz-adv-x="333" 
 />
    <glyph glyph-name="uni0020" unicode=" " horiz-adv-x="195" 
 />
    <glyph glyph-name="uni0021" unicode="!" horiz-adv-x="249" 
d="M263 650l-70 -433h-77l22 433h125zM74 0l13 127h125l-13 -127h-125z" />
    <glyph glyph-name="uni0022" unicode="&#x22;" horiz-adv-x="374" 
d="M217 377h-89l21 273h105zM393 377h-89l21 273h105z" />
    <glyph glyph-name="uni0023" unicode="#" horiz-adv-x="569" 
d="M536 521l-32 -108h62l-9 -82h-77l-41 -139h74l-8 -82h-90l-32 -110h-91l32 110h-144l-32 -110h-90l32 110h-58l8 82h74l41 139h-70l9 82h85l32 108h90l-32 -108h144l32 108h91zM204 192h144l41 139h-144z" />
    <glyph glyph-name="uni0024" unicode="$" horiz-adv-x="476" 
d="M448 167q0 -76 -52.5 -122t-141.5 -52l-6 -58h-54l6 58q-106 8 -164 52l29 125l87 -7l-10 -65q28 -15 67 -20l16 155q-74 16 -112.5 44t-38.5 87q0 77 52.5 117t129.5 47l7 65h54l-7 -65q88 -7 144 -48l-2 -123l-89 -7l-4 75q-27 16 -58 19l-14 -128q26 -5 43 -10
t41.5 -16.5t39.5 -26t26 -39.5t11 -57zM188 383q0 -38 47 -55l12 114q-59 -12 -59 -59zM334 150q0 48 -57 69l-14 -140q71 10 71 71z" />
    <glyph glyph-name="uni0025" unicode="%" horiz-adv-x="705" 
d="M217 241q-64 0 -98.5 34.5t-34.5 93.5q0 71 46 116.5t121 45.5q64 0 98 -34.5t34 -93.5q0 -70 -45 -116t-121 -46zM670 521l-228 -259l-222 -262h-109l258 286l192 235h109zM223 311q35 0 55 22.5t20 63.5q0 63 -55 63q-34 0 -54.5 -21t-20.5 -64q0 -64 55 -64zM538 -10
q-64 0 -99 34t-35 94q0 71 46.5 116.5t121.5 45.5q63 0 97.5 -35t34.5 -94q0 -70 -44.5 -115.5t-121.5 -45.5zM545 60q34 0 54 22.5t20 63.5q0 64 -55 64q-33 0 -53.5 -21.5t-20.5 -63.5q0 -65 55 -65z" />
    <glyph glyph-name="uni0026" unicode="&#x26;" horiz-adv-x="699" 
d="M455 376h256l-10 -94h-77q-44 -88 -132 -167q46 -23 92 -23q35 0 70 16l14 -91q-51 -27 -111 -27q-82 0 -163 54q-90 -54 -173 -54q-76 0 -129.5 42.5t-53.5 116.5q0 63 39 100.5t107 70.5q-25 69 -25 129q0 90 53 150.5t150 60.5q74 0 117.5 -37t43.5 -100
q0 -29 -12 -54t-27 -42.5t-49 -39t-57.5 -33.5t-73.5 -36q47 -99 128 -164q52 51 78 128h-65zM414 518q0 25 -14 42t-46 17q-44 0 -66 -32.5t-22 -80.5q0 -43 16 -94q132 74 132 148zM206 267q-62 -42 -62 -102q0 -84 110 -84q39 0 78 12q-80 75 -126 174z" />
    <glyph glyph-name="uni0027" unicode="'" horiz-adv-x="198" 
d="M217 377h-89l21 273h105z" />
    <glyph glyph-name="uni0028" unicode="(" horiz-adv-x="281" 
d="M260 718h95q-214 -244 -214 -506q0 -221 119 -395h-97q-111 177 -111 391q0 270 208 510z" />
    <glyph glyph-name="uni0029" unicode=")" horiz-adv-x="281" 
d="M-5 -183h-95q214 244 214 506q0 221 -119 395h97q111 -177 111 -391q0 -270 -208 -510z" />
    <glyph glyph-name="uni002A" unicode="*" horiz-adv-x="406" 
d="M449 541l-116 -58l103 -58l-46 -63l-90 66l-6 -110h-74l18 110l-105 -66l-33 63l115 58l-103 58l46 64l92 -68l5 113h74l-19 -112l106 67z" />
    <glyph glyph-name="uni002B" unicode="+" horiz-adv-x="401" 
d="M54 244l7 74h137l15 137h73l-15 -137h130l-7 -74h-131l-14 -136h-74l15 136h-136z" />
    <glyph glyph-name="uni002C" unicode="," horiz-adv-x="213" 
d="M-54 -92l81 228h102l-80 -228h-103z" />
    <glyph glyph-name="uni002D" unicode="-" horiz-adv-x="325" 
d="M85 278h232l-9 -90h-232z" />
    <glyph glyph-name="uni002E" unicode="." horiz-adv-x="218" 
d="M36 0l14 139h128l-14 -139h-128z" />
    <glyph glyph-name="uni002F" unicode="/" horiz-adv-x="385" 
d="M408 688l-282 -688h-98l281 688h99z" />
    <glyph glyph-name="uni0030" unicode="0" horiz-adv-x="566" 
d="M64 223q0 132 74.5 219t203.5 87q108 0 163.5 -64.5t55.5 -178.5q0 -138 -75 -217t-200 -79q-105 0 -163.5 59t-58.5 174zM182 234q0 -75 25 -110.5t87 -35.5q70 0 111 48t41 151q0 75 -26.5 109.5t-89.5 34.5q-148 0 -148 -197z" />
    <glyph glyph-name="uni0031" unicode="1" horiz-adv-x="387" 
d="M43 95h113l35 331h-112l10 95h220l-45 -426h105l-10 -95h-325z" />
    <glyph glyph-name="uni0032" unicode="2" horiz-adv-x="518" 
d="M160 341l-84 9l35 140q93 41 194 41q93 0 136 -40t43 -100q0 -47 -22.5 -88t-76 -80t-84.5 -57.5t-102 -55.5q-19 -10 -28 -15h217l13 77l86 -8l-22 -164h-428l-1 87q22 14 59.5 37t57 35t50.5 31.5t47 31.5t38 29t33.5 30t23 28.5t16 30t4.5 29.5q0 67 -91 67
q-54 0 -90 -18z" />
    <glyph glyph-name="uni0033" unicode="3" horiz-adv-x="516" 
d="M160 341l-83 9l34 137q96 44 187 44q82 0 132 -37t50 -108q0 -121 -131 -167l-1 -4q124 -25 124 -147q0 -98 -67 -153.5t-175 -55.5q-98 0 -151.5 45t-51.5 120l90 28q3 -41 31 -69.5t84 -28.5q64 0 93.5 36t29.5 84t-36 71t-116 27l7 74q48 1 81 14t47 33t19 35.5
t5 30.5q0 77 -91 77q-50 0 -86 -18z" />
    <glyph glyph-name="uni0034" unicode="4" horiz-adv-x="547" 
d="M389 -130h-109l18 169h-289l-1 93l247 389h202l-41 -389h100l-19 -93h-90zM308 132l31 294h-48l-182 -294h199z" />
    <glyph glyph-name="uni0035" unicode="5" horiz-adv-x="508" 
d="M467 83q0 -108 -67.5 -166t-177.5 -58q-97 0 -149 44t-50 121l90 28q2 -42 29.5 -70t81.5 -28q62 0 93.5 35.5t31.5 87.5q0 62 -42 85t-115 23q-20 0 -90 -5l-32 35l32 306h378l-3 -166l-92 -8l-8 79h-184l-16 -151q13 1 41 1q55 0 97 -8.5t78 -29t55 -59.5t19 -96z" />
    <glyph glyph-name="uni0036" unicode="6" horiz-adv-x="527" 
d="M522 235q0 -104 -63.5 -174.5t-174.5 -70.5q-208 0 -208 273q0 58 9 112.5t30 107t53 91t82 62.5t113 24q127 0 182 -89l-70 -65q-39 59 -120 59q-73 0 -112 -61t-49 -183q22 39 65 65.5t103 26.5q83 0 121.5 -50t38.5 -128zM410 222q0 50 -21 75t-70 25
q-56 0 -88.5 -31.5t-40.5 -77.5q0 -63 22.5 -94t77.5 -31q61 0 90.5 37t29.5 97z" />
    <glyph glyph-name="uni0037" unicode="7" horiz-adv-x="477" 
d="M84 521h427l8 -55l-293 -596h-110l281 557h-227l-11 -110h-97z" />
    <glyph glyph-name="uni0038" unicode="8" horiz-adv-x="528" 
d="M250 -10q-95 0 -150.5 40.5t-55.5 117.5q0 67 40.5 106t114.5 70q-50 29 -77.5 64.5t-27.5 87.5q0 80 66 132t167 52q87 0 140 -40.5t53 -110.5q0 -58 -36 -93.5t-101 -63.5q58 -31 91 -70t33 -98q0 -88 -72.5 -141t-184.5 -53zM211 491q0 -19 8.5 -34.5t27.5 -29.5
t35.5 -23t45.5 -23q81 45 81 109q0 79 -91 79q-48 0 -77.5 -21.5t-29.5 -56.5zM267 81q54 0 88.5 25t34.5 65q0 21 -9.5 38.5t-34.5 34.5t-40.5 25t-53.5 26q-46 -24 -71 -51.5t-25 -68.5q0 -45 29.5 -69.5t81.5 -24.5z" />
    <glyph glyph-name="uni0039" unicode="9" horiz-adv-x="526" 
d="M55 285q0 104 63.5 174.5t174.5 70.5q208 0 208 -273q0 -58 -9 -112.5t-30 -107t-53 -91t-82 -62.5t-113 -24q-127 0 -182 89l70 65q39 -59 120 -59q73 0 112 61t49 183q-22 -39 -65 -65.5t-103 -26.5q-83 0 -121.5 50t-38.5 128zM167 298q0 -50 21 -75t70 -25
q56 0 88.5 31.5t40.5 77.5q0 63 -22.5 94t-77.5 31q-61 0 -90.5 -37t-29.5 -97z" />
    <glyph glyph-name="uni003A" unicode=":" horiz-adv-x="234" 
d="M124 449h117l-16 -139h-117zM89 139h117l-17 -139h-117z" />
    <glyph glyph-name="uni003B" unicode=";" horiz-adv-x="240" 
d="M50 307l14 139h128l-14 -139h-128zM-44 -92l81 228h102l-80 -228h-103z" />
    <glyph glyph-name="uni003C" unicode="&#x3c;" horiz-adv-x="390" 
d="M334 14l-286 248l4 34l338 253l-11 -102l-220 -166l186 -165z" />
    <glyph glyph-name="uni003D" unicode="=" horiz-adv-x="545" 
d="M89 354l9 74h448l-9 -74h-448zM66 132l8 75h448l-8 -75h-448z" />
    <glyph glyph-name="uni003E" unicode="&#x3e;" horiz-adv-x="392" 
d="M390 262l-338 -248l11 102l221 165l-187 166l11 102l286 -253z" />
    <glyph glyph-name="uni003F" unicode="?" horiz-adv-x="458" 
d="M193 458l-83 8l31 141q95 52 189 52q81 0 131.5 -35t50.5 -97q0 -49 -34 -86.5t-74.5 -56.5t-74.5 -43t-34 -48q0 -29 41 -29l-7 -68q-149 -16 -149 82q0 36 21.5 63.5t52.5 44.5t62.5 32.5t53 36.5t21.5 49t-22 43t-60 15q-54 0 -93 -24zM179 0l13 127h125l-13 -127
h-125z" />
    <glyph glyph-name="uni0040" unicode="@" horiz-adv-x="884" 
d="M657 297l-18 -159q0 -1 -1.5 -11.5t-1.5 -12.5q-3 -52 42 -52q51 0 78 63t27 157q0 156 -74.5 224t-197.5 68q-165 0 -268.5 -105t-103.5 -277q0 -107 43.5 -179.5t110.5 -103.5t151 -31q121 0 207 57l28 -65q-114 -72 -250 -72q-163 0 -271 105.5t-108 279.5
q0 197 133 334t326 137q71 0 134.5 -21t116 -62t83.5 -109t31 -154q0 -54 -12.5 -108t-37.5 -102t-70 -78t-102 -30q-55 0 -88 26.5t-35 69.5q-51 -96 -146 -96q-71 0 -110 52.5t-39 138.5q0 47 12 94t35.5 89t65.5 68t95 26q100 0 129 -84q12 50 21 75h100
q-29 -91 -35 -152zM456 375q-56 0 -83.5 -54t-27.5 -127q0 -122 77 -122q42 0 74.5 37t44.5 85v1l9 71q0 49 -27 79t-67 30z" />
    <glyph glyph-name="uni0041" unicode="A" horiz-adv-x="650" 
d="M-29 95h58l238 460h-92l10 95h200l169 -555h60l-10 -95h-239l10 95h63l-22 89h-235l-43 -89h71l-10 -95h-237zM331 491l-110 -226h174l-58 226h-6z" />
    <glyph glyph-name="uni0042" unicode="B" horiz-adv-x="596" 
d="M399 650q83 0 129.5 -37.5t46.5 -101.5q0 -57 -34.5 -99.5t-91.5 -52.5l-1 -4q59 -10 89 -49t30 -98q0 -88 -60.5 -148t-169.5 -60h-317l10 95h72l48 460h-72l10 95h311zM339 377q59 0 89 28t30 73q0 77 -94 77h-107l-19 -178h101zM321 95q63 0 97.5 28.5t34.5 80.5
q0 86 -98 86h-126l-20 -195h112z" />
    <glyph glyph-name="uni0043" unicode="C" horiz-adv-x="622" 
d="M586 62q-36 -32 -102 -52t-131 -20q-134 0 -209.5 83t-75.5 214q0 69 21.5 133.5t63.5 119t111.5 87.5t157.5 33q143 0 218 -77l2 -141l-91 -9l-6 90q-54 39 -135 39q-104 0 -166 -70t-62 -193q0 -211 191 -211q75 0 128 28l26 97l88 -9z" />
    <glyph glyph-name="uni0044" unicode="D" horiz-adv-x="678" 
d="M373 650q142 0 216.5 -77t74.5 -211q0 -159 -97 -260.5t-256 -101.5h-291l10 95h73l48 460h-73l10 95h285zM313 95q112 0 174.5 68t62.5 189q0 203 -189 203h-105l-48 -460h105z" />
    <glyph glyph-name="uni0045" unicode="E" horiz-adv-x="570" 
d="M501 0h-481l9 95h74l48 460h-73l10 95h476v-188l-92 -8l-9 101h-206l-19 -180h283l-10 -95h-283l-19 -185h211l30 101l90 -8z" />
    <glyph glyph-name="uni0046" unicode="F" horiz-adv-x="544" 
d="M555 454l-93 -9l-8 110h-198l-22 -209h274l-10 -94h-274l-16 -157h106l-10 -95h-284l10 95h72l48 460h-72l10 95h467v-196z" />
    <glyph glyph-name="uni0047" unicode="G" horiz-adv-x="663" 
d="M669 255h-39l-26 -255h-84l-3 74q-71 -84 -192 -84q-120 0 -190.5 83t-70.5 215q0 156 95.5 264t258.5 108q72 0 133.5 -22t92.5 -55l3 -134l-89 -9l-10 82q-54 40 -140 40q-101 0 -165 -71.5t-64 -193.5q0 -103 46.5 -156t128.5 -53q71 0 113.5 38.5t51.5 102.5l3 26
h-136l11 95h282z" />
    <glyph glyph-name="uni0048" unicode="H" horiz-adv-x="732" 
d="M30 95h72l48 460h-72l10 95h251l-11 -95h-72l-19 -178h297l19 178h-72l11 95h250l-10 -95h-72l-48 -460h72l-10 -95h-250l10 95h71l19 188h-297l-19 -188h72l-9 -95h-251z" />
    <glyph glyph-name="uni0049" unicode="I" horiz-adv-x="328" 
d="M30 95h72l48 460h-72l10 95h250l-10 -95h-72l-48 -460h72l-10 -95h-250z" />
    <glyph glyph-name="uni004A" unicode="J" horiz-adv-x="456" 
d="M169 650h285l-10 -95h-62l-40 -377q-10 -92 -62.5 -140t-136.5 -48q-127 0 -163 114l81 59q22 -70 83 -70q82 0 91 84l40 378h-116z" />
    <glyph glyph-name="uni004B" unicode="K" horiz-adv-x="638" 
d="M366 95h64l-115 189h-87l-20 -189h60l-10 -95h-238l10 95h72l48 460h-72l10 95h241l-10 -95h-63l-19 -180h89l148 180h-61l10 95h245l-10 -95h-70l-185 -215l151 -245h67l-10 -95h-255z" />
    <glyph glyph-name="uni004C" unicode="L" horiz-adv-x="532" 
d="M486 0h-468l10 95h73l48 460h-73l10 95h277l-10 -95h-97l-48 -460h197l33 135l90 -8z" />
    <glyph glyph-name="uni004D" unicode="M" horiz-adv-x="862" 
d="M34 95h71l48 460h-79l10 95h169l185 -442h4l266 442h171l-10 -95h-79l-48 -460h72l-10 -95h-241l10 95h62l33 311h-4l-220 -360h-48l-153 368h-4l-34 -319h66l-10 -95h-237z" />
    <glyph glyph-name="uni004E" unicode="N" horiz-adv-x="725" 
d="M38 95h70l48 460h-80l10 95h156l288 -430h3l35 335h-92l10 95h264l-10 -95h-72l-58 -555l-62 -1l-300 451h-3l-37 -355h92l-10 -95h-262z" />
    <glyph glyph-name="uni004F" unicode="O" horiz-adv-x="695" 
d="M418 660q131 0 209 -86t78 -214q0 -153 -102 -261.5t-255 -108.5q-132 0 -208 86t-76 214q0 155 102 262.5t252 107.5zM364 88q105 0 165 77.5t60 186.5q0 97 -49 153.5t-134 56.5q-101 0 -163.5 -76t-62.5 -186q0 -90 46 -151t138 -61z" />
    <glyph glyph-name="uni0050" unicode="P" horiz-adv-x="571" 
d="M30 95h72l48 460h-72l10 95h277q104 0 158.5 -52t54.5 -139q0 -110 -71 -171t-178 -61h-106l-14 -132h101l-10 -95h-280zM320 321q73 0 108 35.5t35 97.5q0 101 -120 101h-86l-24 -234h87z" />
    <glyph glyph-name="uni0051" unicode="Q" horiz-adv-x="705" 
d="M420 660q131 0 209 -86t78 -214q0 -156 -106 -265l83 -90l-72 -66l-88 96q-78 -45 -174 -45q-132 0 -208 86t-76 214q0 155 102 262.5t252 107.5zM363 213l72 66l99 -110q57 73 57 183q0 97 -49 153.5t-134 56.5q-101 0 -163.5 -76t-62.5 -186q0 -90 46 -151t138 -61
q50 0 92 20z" />
    <glyph glyph-name="uni0052" unicode="R" horiz-adv-x="608" 
d="M30 95h72l48 460h-72l10 95h276q106 0 161.5 -45.5t55.5 -128.5q0 -145 -149 -191l79 -190h77l-10 -95h-147l-101 257h-104l-17 -162h74l-10 -95h-253zM317 346q149 0 149 120q0 49 -29.5 69t-100.5 20h-79l-22 -209h82z" />
    <glyph glyph-name="uni0053" unicode="S" horiz-adv-x="532" 
d="M506 200q0 -101 -66 -155.5t-186 -54.5q-67 0 -127 16.5t-91 45.5l33 149l86 -9l-9 -80q45 -26 105 -26q67 0 102.5 24t35.5 81q0 22 -6.5 38t-14.5 25.5t-28 17t-32.5 11t-42.5 9.5q-39 8 -65.5 17.5t-55.5 27.5t-44 50t-15 76q0 99 70.5 148t168.5 49q61 0 114.5 -18
t81.5 -47l-9 -137l-88 -8l-1 84q-42 28 -102 28q-54 0 -87 -22t-33 -64q0 -40 29 -58t87 -31q34 -8 55 -14t50 -20t45 -32t28 -49t12 -72z" />
    <glyph glyph-name="uni0054" unicode="T" horiz-adv-x="618" 
d="M653 438l-94 -8l-7 125h-124l-48 -460h107l-10 -95h-315l10 95h102l48 460h-124l-32 -125l-92 8l40 212h542z" />
    <glyph glyph-name="uni0055" unicode="U" horiz-adv-x="692" 
d="M523 650h238l-10 -95h-59l-30 -287q-6 -56 -23 -102.5t-48.5 -87.5t-85 -64.5t-124.5 -23.5q-134 0 -190.5 76t-44.5 191l31 298h-59l10 95h244l-10 -95h-78l-31 -295q-9 -81 24 -126.5t112 -45.5q155 0 174 180l30 287h-79z" />
    <glyph glyph-name="uni0056" unicode="V" horiz-adv-x="648" 
d="M704 555h-57l-282 -555h-77l-165 555h-61l10 95h247l-10 -95h-69l108 -385h5l185 385h-70l10 95h237z" />
    <glyph glyph-name="uni0057" unicode="W" horiz-adv-x="935" 
d="M988 555h-52l-229 -555h-78l-106 458h-4l-197 -458h-80l-123 555h-53l9 95h237l-10 -95h-70l70 -372h6l164 372h-56l10 95h238l-11 -95h-52l85 -377h6l136 377h-75l10 95h234z" />
    <glyph glyph-name="uni0058" unicode="X" horiz-adv-x="631" 
d="M573 0h-242l10 95h57l-110 166l-137 -166h59l-10 -95h-244l10 95h66l209 239l-154 221h-60l10 95h237l-10 -95h-54l102 -148l125 148h-52l10 95h233l-10 -95h-62l-197 -219l167 -241h57z" />
    <glyph glyph-name="uni0059" unicode="Y" horiz-adv-x="611" 
d="M665 555h-56l-220 -302l-16 -158h104l-10 -95h-312l10 95h101l16 158l-162 302h-58l10 95h247l-10 -95h-65l105 -204h5l144 204h-70l10 95h236z" />
    <glyph glyph-name="uni005A" unicode="Z" horiz-adv-x="565" 
d="M496 0h-493l-1 59l391 494v2h-211l-33 -113l-92 9l43 199h452l2 -53l-392 -500l-1 -2h252l36 127l92 -10z" />
    <glyph glyph-name="uni005B" unicode="[" horiz-adv-x="288" 
d="M38 -235l106 1007h201l-8 -74h-112l-90 -859h112l-8 -74h-201z" />
    <glyph glyph-name="uni005C" unicode="\" horiz-adv-x="470" 
d="M82 688h99l281 -688h-98z" />
    <glyph glyph-name="uni005D" unicode="]" horiz-adv-x="287" 
d="M227 772l-106 -1007h-201l8 74h112l90 859h-112l8 74h201z" />
    <glyph glyph-name="uni005E" unicode="^" horiz-adv-x="455" 
d="M276 652h66l136 -283h-97l-83 179l-114 -179h-96z" />
    <glyph glyph-name="uni005F" unicode="_" horiz-adv-x="505" 
d="M3 -70h424l-7 -72h-424z" />
    <glyph glyph-name="uni0060" unicode="`" horiz-adv-x="431" 
d="M604 512l-196 97l50 84l171 -138z" />
    <glyph glyph-name="uni0061" unicode="a" horiz-adv-x="515" 
d="M499 449q-27 -91 -34 -152l-27 -215h61l-7 -60l-26 -22h-124l-2 91q-51 -101 -149 -101q-71 0 -110 52.5t-39 138.5q0 47 12 94t35.5 89t65.5 68t95 26q100 0 129 -84q12 50 21 75h99zM265 375q-57 0 -84.5 -53.5t-27.5 -127.5q0 -122 77 -122q43 0 76 39t44 89l8 61
q2 51 -25 82.5t-68 31.5z" />
    <glyph glyph-name="uni0062" unicode="b" horiz-adv-x="510" 
d="M61 664l27 24h142l-40 -323q53 93 143 93q77 0 118 -53.5t41 -136.5q0 -49 -12.5 -96.5t-37 -89t-67.5 -67t-97 -25.5q-99 0 -129 80q-1 -6 -18 -70h-103q26 81 32 135l57 471h-63zM266 72q37 0 64.5 29.5t39 70t11.5 82.5q0 56 -21 88.5t-62 32.5q-50 0 -82.5 -42
t-40.5 -98l-1 -6l-6 -46q-1 -49 26 -80t72 -31z" />
    <glyph glyph-name="uni0063" unicode="c" horiz-adv-x="439" 
d="M267 375q-54 0 -84 -49.5t-30 -129.5q0 -124 86 -124q40 0 63 26t39 80l83 -17q-16 -72 -65.5 -121.5t-135.5 -49.5t-133.5 53t-47.5 148q0 49 13 95t39 85t71.5 63t103.5 24q88 0 153 -41l5 -126l-86 -9l-7 78q-28 15 -67 15z" />
    <glyph glyph-name="uni0064" unicode="d" horiz-adv-x="518" 
d="M320 664l27 24h169l-74 -606h64l-7 -60l-27 -22h-127v97q-58 -107 -159 -107q-71 0 -108.5 52.5t-37.5 135.5q0 66 21 127.5t71 107t120 45.5q90 0 124 -69l27 217h-90zM268 375q-57 0 -87 -54t-30 -130q0 -119 75 -119q45 0 81 41t46 90l8 65q1 48 -26 77.5t-67 29.5z
" />
    <glyph glyph-name="uni0065" unicode="e" horiz-adv-x="441" 
d="M242 72q72 0 99 80l83 -17q-12 -61 -64.5 -103t-133.5 -42q-85 0 -135.5 50.5t-50.5 148.5q0 114 65 191.5t172 77.5q68 0 112 -33t44 -86t-37 -87t-123 -52q-47 -11 -121 -19q2 -54 23 -81.5t67 -27.5zM222 256q61 12 82 31t21 45q0 51 -61 51q-49 0 -75 -39t-34 -99
q3 0 67 11z" />
    <glyph glyph-name="uni0066" unicode="f" horiz-adv-x="311" 
d="M137 698q73 0 120 -37l6 -115l-79 -9l-12 73q-22 7 -43 7q-57 0 -66 -79l-11 -89h115l-7 -55l-30 -28h-88l-50 -403q-23 -185 -167 -185q-63 0 -100 34.5t-36 105.5l81 24q-1 -82 51 -82q54 0 68 105l49 401h-80l5 56l30 27h55l11 83q9 77 60 121.5t118 44.5z" />
    <glyph glyph-name="uni0067" unicode="g" horiz-adv-x="521" 
d="M375 449h150l-7 -61l-27 -22h-40l-43 -349q-13 -108 -69 -173.5t-165 -65.5q-70 0 -121.5 34.5t-64.5 103.5l74 40q14 -45 45.5 -67t73.5 -22q107 0 125 151l8 70q-56 -98 -153 -98q-71 0 -108.5 52.5t-37.5 135.5q0 66 21 127.5t71 107t120 45.5q98 0 128 -80zM242 375
q-57 0 -86.5 -54.5t-29.5 -130.5q0 -118 74 -118q44 0 80.5 39.5t47.5 87.5l6 53q6 55 -21 89t-71 34z" />
    <glyph glyph-name="uni0068" unicode="h" horiz-adv-x="516" 
d="M72 664l28 24h142l-39 -318q51 88 143 88q66 0 103 -41t27 -120l-26 -215h64l-7 -60l-27 -22h-142l32 258q14 117 -71 117q-44 0 -71.5 -29t-36.5 -76l-33 -270h-102l74 606h-65z" />
    <glyph glyph-name="uni0069" unicode="i" horiz-adv-x="267" 
d="M142 542l13 118h102l-12 -118h-103zM60 425l27 24h146l-44 -367h63l-7 -60l-27 -22h-142l45 366h-69z" />
    <glyph glyph-name="uni006A" unicode="j" horiz-adv-x="250" 
d="M32 542l12 118h103l-12 -118h-103zM-61 425l27 24h161l-55 -446q-29 -224 -150 -225q-48 -1 -92 25l4 71q57 -22 90 3t46 126l45 363h-84z" />
    <glyph glyph-name="uni006B" unicode="k" horiz-adv-x="461" 
d="M72 664l28 24h142l-51 -421h65q80 81 91 182h104q-1 -60 -37 -117t-98 -99l82 -151h67l-8 -60l-26 -22h-95l-104 195h-50l-24 -195h-102l74 606h-65z" />
    <glyph glyph-name="uni006C" unicode="l" horiz-adv-x="250" 
d="M84 664l27 24h146l-74 -606h64l-7 -60l-27 -22h-143l74 606h-68z" />
    <glyph glyph-name="uni006D" unicode="m" horiz-adv-x="797" 
d="M83 449h129l2 -87q52 96 146 96q51 0 83 -25.5t39 -75.5q52 101 149 101q64 0 98 -40.5t25 -120.5l-26 -215h64l-7 -60l-27 -22h-142l31 258q8 62 -8.5 89.5t-58.5 27.5q-84 0 -102 -106l-32 -269h-102l32 258q7 62 -9.5 89.5t-57.5 27.5q-89 0 -103 -118l-1 2l-31 -259
h-102l45 366h-69l7 59z" />
    <glyph glyph-name="uni006E" unicode="n" horiz-adv-x="534" 
d="M83 449h129l3 -87q51 96 147 96q66 0 103 -41t27 -120l-26 -215h65l-8 -60l-27 -22h-142l32 258q7 62 -10.5 89.5t-60.5 27.5q-47 0 -75 -33t-34 -85v1l-32 -258h-102l45 366h-69l7 59z" />
    <glyph glyph-name="uni006F" unicode="o" horiz-adv-x="482" 
d="M42 192q0 111 62 188.5t176 77.5q97 0 144 -56.5t47 -150.5q0 -115 -66 -188t-175 -73q-91 0 -139.5 53.5t-48.5 148.5zM153 200q0 -62 19.5 -95t67.5 -33q62 0 91.5 49.5t29.5 126.5q0 64 -21.5 95.5t-70.5 31.5q-116 0 -116 -175z" />
    <glyph glyph-name="uni0070" unicode="p" horiz-adv-x="528" 
d="M150 449l1 -94q52 103 147 103q77 0 118 -53.5t41 -136.5q0 -49 -12.5 -96.5t-37 -89t-67.5 -67t-98 -25.5q-91 0 -124 68l-23 -189h91l-7 -58l-28 -24h-229l7 58l27 24h36l61 497h-68l8 59l27 24h130zM230 72q37 0 64.5 29.5t39 70t11.5 82.5q0 55 -21 88t-62 33
q-49 0 -81.5 -42t-40.5 -98l-1 -6l-7 -53q1 -47 27.5 -75.5t70.5 -28.5z" />
    <glyph glyph-name="uni0071" unicode="q" horiz-adv-x="507" 
d="M467 -189l-28 -24h-227l7 58l28 24h65l28 219q-57 -98 -154 -98q-71 0 -108.5 52.5t-37.5 135.5q0 66 21 127.5t71 107t120 45.5q101 0 130 -84q12 50 21 75h100q-25 -80 -35 -152l-52 -428h58zM268 375q-57 0 -87 -54t-30 -130q0 -119 75 -119q44 0 80.5 40.5t47.5 90.5
l7 55q3 52 -24.5 84.5t-68.5 32.5z" />
    <glyph glyph-name="uni0072" unicode="r" horiz-adv-x="352" 
d="M64 449h122l4 -115q18 53 46.5 88.5t65.5 35.5q28 0 51 -18l-17 -109q-26 15 -52 15q-34 0 -59 -24t-35 -64l-24 -176h89l-8 -58l-27 -24h-230l8 58l27 24h38l34 284h-67l7 59z" />
    <glyph glyph-name="uni0073" unicode="s" horiz-adv-x="432" 
d="M200 72q40 0 62.5 14.5t22.5 41.5q0 9 -2.5 17t-10 14t-13 10t-18.5 8t-20.5 6.5t-25 7t-25.5 6.5q-54 15 -85.5 41t-31.5 79q0 70 53 105.5t128 35.5q99 0 166 -41l-1 -111l-83 -10l-2 62q-41 17 -77 17q-32 0 -54.5 -13.5t-22.5 -37.5q0 -22 20.5 -32.5t74.5 -23.5
q30 -8 48 -15t42 -21.5t36 -38.5t12 -57q0 -70 -52 -108t-134 -38q-48 0 -102.5 11.5t-88.5 32.5l28 116l82 -8l-7 -56q31 -14 81 -14z" />
    <glyph glyph-name="uni0074" unicode="t" horiz-adv-x="353" 
d="M44 422l29 27h39l13 105l33 34h74l-17 -139h141l-8 -55l-29 -28h-114l-27 -223q-9 -71 39 -71q21 0 37 17t29 66l73 -25q-19 -74 -54 -107t-96 -33q-69 0 -105 38.5t-27 105.5l28 232h-66z" />
    <glyph glyph-name="uni0075" unicode="u" horiz-adv-x="535" 
d="M518 82l-7 -58l-28 -24h-129l-3 86q-50 -95 -146 -95q-66 0 -103 41t-27 120l26 214h-65l8 61l26 22h143l-32 -258q-8 -62 10 -90t61 -28q44 0 71 30t36 78l33 268h102l-44 -367h68z" />
    <glyph glyph-name="uni0076" unicode="v" horiz-adv-x="477" 
d="M247 390l-28 -24h-41l76 -243h6q55 69 79.5 122.5t24.5 110.5q0 48 -19 93h116q28 -136 -62 -261q-62 -90 -164 -188h-48l-118 366h-51l8 59l27 24h201z" />
    <glyph glyph-name="uni0077" unicode="w" horiz-adv-x="726" 
d="M512 123h5q52 67 74 120.5t22 110.5q0 49 -18 95h116q26 -139 -63 -266q-26 -38 -71 -91t-85 -92h-46l-69 288h-5l-151 -288h-56l-98 366h-47l8 59l27 24h198l-7 -59l-28 -24h-44l46 -216h5l149 299h63z" />
    <glyph glyph-name="uni0078" unicode="x" horiz-adv-x="497" 
d="M461 24l-28 -24h-215l7 58l27 24h36l-76 104q-118 -76 -88 -186h-116q-6 17 -6.5 33.5t6 32t12.5 28.5t22 28.5t26.5 25.5t33.5 26.5t34.5 24.5t38.5 26l-112 141h-57l8 59l27 24h211l-8 -59l-27 -24h-37l67 -92q108 84 83 175h116q5 -14 5.5 -28.5t-4.5 -28t-11 -25.5
t-19 -25.5t-22 -23t-26.5 -23t-27 -21t-28.5 -21t-26 -18.5l118 -153h63z" />
    <glyph glyph-name="uni0079" unicode="y" horiz-adv-x="476" 
d="M254 123h6q55 68 79 122t24 111q0 48 -19 93h117q28 -136 -62 -261q-47 -66 -124 -148l-25 -171h69l-8 -58l-27 -24h-220l8 58l27 24h48l26 174l-104 323h-51l8 59l27 24h201l-7 -59l-28 -24h-40z" />
    <glyph glyph-name="uni007A" unicode="z" horiz-adv-x="449" 
d="M383 0h-372l-9 58l290 308h-155l-25 -77l-77 9l30 151h348l14 -59l-287 -308h173l30 78l82 -10z" />
    <glyph glyph-name="uni007B" unicode="{" horiz-adv-x="288" 
d="M125 267q52 -7 76.5 -30.5t24.5 -53.5q0 -28 -28.5 -81.5t-57 -111.5t-28.5 -97q0 -54 56 -54h63l-8 -73h-63q-70 0 -103 33.5t-33 85.5q0 48 28.5 111t57 116t28.5 76q0 30 -29 42t-61 12h-19l6 50h18q21 0 41.5 4t41 19.5t20.5 40.5q0 22 -27 115.5t-27 146.5
q0 69 40 111.5t123 42.5h63l-7 -74h-63q-70 0 -70 -77q0 -44 28.5 -136.5t28.5 -120.5q0 -35 -29.5 -62t-90.5 -35z" />
    <glyph glyph-name="uni007C" unicode="|" horiz-adv-x="235" 
d="M245 730l-85 -810h-90l85 810h90z" />
    <glyph glyph-name="uni007D" unicode="}" horiz-adv-x="288" 
d="M143 271q-52 7 -76.5 30.5t-24.5 53.5q0 28 28.5 81.5t57 111.5t28.5 97q0 54 -56 54h-63l8 73h63q70 0 103 -33.5t33 -85.5q0 -48 -28.5 -111t-57 -116t-28.5 -76q0 -30 29 -42t61 -12h19l-6 -50h-18q-21 0 -41.5 -4t-41 -19.5t-20.5 -40.5q0 -22 27 -115.5t27 -146.5
q0 -69 -40 -111.5t-123 -42.5h-63l7 74h63q70 0 70 77q0 44 -28.5 136.5t-28.5 120.5q0 35 29.5 62t90.5 35z" />
    <glyph glyph-name="uni007E" unicode="~" horiz-adv-x="576" 
d="M404 185q-44 0 -105.5 34t-97.5 34q-49 0 -94 -63l-55 40q70 121 163 121q37 0 95.5 -34t101.5 -34q30 0 52.5 15t50.5 57l63 -44q-79 -126 -174 -126z" />
    <glyph glyph-name="uni00A0" unicode="&#xa0;" horiz-adv-x="195" 
 />
    <glyph glyph-name="uni00A1" unicode="&#xa1;" horiz-adv-x="233" 
d="M199 452l-13 -127h-125l13 127h125zM10 -198l70 433h77l-22 -433h-125z" />
    <glyph glyph-name="uni00A2" unicode="&#xa2;" horiz-adv-x="455" 
d="M196 -84l8 76q-71 9 -110.5 61t-39.5 138q0 63 19 118t65.5 97.5t113.5 49.5l8 73h60l-8 -73q70 -7 122 -39l5 -126l-86 -9l-7 78q-20 11 -42 14l-32 -300q55 12 81 104l83 -17q-14 -65 -57 -113t-115 -56l-8 -76h-60zM165 196q0 -94 48 -117l30 289q-38 -15 -58 -61
t-20 -111z" />
    <glyph glyph-name="uni00A3" unicode="&#xa3;" horiz-adv-x="489" 
d="M51 285h60l5 49q10 96 65 145t131 49q93 0 138 -46l2 -116l-83 -8l-7 74q-21 13 -50 13q-40 0 -62.5 -25.5t-28.5 -84.5l-5 -50h152l-7 -64h-152v-7q-3 -29 -8 -48t-21 -43.5t-44 -40.5h146q73 0 122 51l42 -50q-14 -27 -55.5 -55t-95.5 -28h-271l8 80q39 20 53 50.5
t19 83.5v7h-60z" />
    <glyph glyph-name="uni00A4" unicode="&#xa4;" horiz-adv-x="481" 
d="M103 252q0 52 30 93l-74 85l45 41l73 -83q42 29 89 29q49 0 84 -30l92 84l36 -41l-93 -86q15 -33 15 -65q0 -51 -33 -96l76 -87l-45 -41l-76 86q-41 -26 -86 -26q-46 0 -81 27l-95 -87l-36 41l95 88q-16 32 -16 68zM193 263q-1 -28 14 -46t38 -18q27 0 46 21.5t19 52.5
q0 26 -14.5 43t-37.5 17q-25 0 -44.5 -20t-20.5 -50z" />
    <glyph glyph-name="uni00A5" unicode="&#xa5;" horiz-adv-x="581" 
d="M185 82h84l4 36h-130l6 58h130l3 28l-6 10h-123l6 58h82l-99 167h-46l8 82h219l-9 -82h-52l84 -151h5l111 151h-56l9 82h208l-9 -82h-44l-130 -167h82l-6 -58h-121l-10 -13l-2 -25h129l-6 -58h-129l-4 -36h89l-8 -82h-277z" />
    <glyph glyph-name="uni00A6" unicode="&#xa6;" horiz-adv-x="225" 
d="M235 730l-32 -304h-89l32 304h89zM182 224l-32 -304h-90l32 304h90z" />
    <glyph glyph-name="uni00A7" unicode="&#xa7;" horiz-adv-x="604" 
d="M538 156q0 -73 -60.5 -119.5t-158.5 -46.5q-53 0 -119 12.5t-109 36.5l31 126l80 -9l-11 -69q45 -21 130 -21q50 0 81.5 21t31.5 56q0 15 -7 25.5t-15.5 16.5t-28 11t-32 7t-40.5 5q-2 0 -4 0.5t-4 0.5q-38 4 -62 8t-58 13t-54 20.5t-34.5 32t-14.5 47.5q0 71 90 110
q-18 28 -18 64q0 71 60 113.5t163 42.5q104 0 187 -41l-3 -128l-84 -9l-2 79q-42 23 -109 23q-47 0 -76.5 -16t-29.5 -50q0 -33 28 -49.5t79 -25.5q14 -2 51 -7.5t58 -9.5t52 -13.5t48.5 -21.5t30.5 -33t13 -49q0 -73 -87 -120q7 -13 7 -33zM520 289q0 13 -6.5 23
t-19.5 17.5t-26.5 12.5t-35 9t-37 6.5t-39.5 5.5t-37 5q-64 9 -102 29q-39 -19 -39 -49q0 -19 18.5 -30.5t49.5 -17.5t92 -14q7 -1 10 -1q101 -13 140 -37q32 14 32 41z" />
    <glyph glyph-name="uni00A8" unicode="&#xa8;" horiz-adv-x="398" 
d="M230 540l12 115h108l-12 -115h-108zM406 540l11 115h110l-12 -115h-109z" />
    <glyph glyph-name="uni00A9" unicode="&#xa9;" horiz-adv-x="594" 
d="M649 285q0 -120 -87.5 -206t-203.5 -86q-103 0 -170.5 70t-67.5 173q0 119 87.5 206t204.5 87q104 0 170.5 -70.5t66.5 -173.5zM590 282q0 82 -49 136t-134 54q-98 0 -163 -68.5t-65 -164.5q0 -82 50 -136t133 -54q96 0 162 68.5t66 164.5zM484 143q-41 -35 -116 -35
q-60 0 -96.5 35t-36.5 100q0 75 47 125.5t122 50.5q68 0 105 -35l1 -70l-46 -5l-3 44q-23 18 -61 18q-48 0 -75.5 -33t-27.5 -89q0 -93 85 -93q33 0 59 14l13 48l44 -5z" />
    <glyph glyph-name="uni00AA" unicode="&#xaa;" horiz-adv-x="380" 
d="M425 697q-17 -52 -24 -102l-17 -128h40l-5 -46l-19 -16h-87l-2 61q-35 -68 -99 -68q-48 0 -74 35t-26 90q0 69 35.5 124.5t103.5 55.5q67 0 87 -54q8 32 14 48h73zM263 642q-34 0 -51.5 -31.5t-17.5 -77.5q0 -73 47 -73q27 0 47.5 22.5t28.5 52.5l6 43q-1 30 -18.5 47
t-41.5 17z" />
    <glyph glyph-name="uni00AB" unicode="&#xab;" horiz-adv-x="453" 
d="M257 25h-88l-109 246l160 240h88l-145 -240zM421 25h-87l-109 246l160 240h87l-144 -240z" />
    <glyph glyph-name="uni00AC" unicode="&#xac;" horiz-adv-x="569" 
d="M469 84l17 160h-398l7 75h471l-24 -235h-73z" />
    <glyph glyph-name="uni00AE" unicode="&#xae;" horiz-adv-x="572" 
d="M322 159q-104 0 -177 72.5t-73 177.5q0 104 73 177.5t178 73.5t177.5 -73t72.5 -178q0 -104 -73.5 -177t-177.5 -73zM322 215q84 0 137.5 56.5t53.5 137.5q0 82 -52.5 138.5t-137.5 56.5t-138 -56.5t-53 -138.5t53 -138t137 -56zM207 324h30v183h-30v42h125
q50 0 76.5 -20.5t26.5 -58.5q0 -53 -54 -73l40 -73h33v-42h-70l-55 104h-39v-62h31v-42h-114v42zM320 426q32 0 45 10t13 32q0 21 -13 30t-44 9h-31v-81h30z" />
    <glyph glyph-name="uni00AF" unicode="&#xaf;" horiz-adv-x="328" 
d="M205 629h254l-9 -82h-254z" />
    <glyph glyph-name="uni00B0" unicode="&#xb0;" horiz-adv-x="370" 
d="M241 342q-66 0 -103.5 39t-37.5 102q0 74 50 125.5t126 51.5q67 0 103 -39.5t36 -101.5q0 -75 -48 -126t-126 -51zM249 418q35 0 57.5 24t22.5 71q0 35 -16.5 53t-44.5 18q-36 0 -59 -24t-23 -72q0 -35 17.5 -52.5t45.5 -17.5z" />
    <glyph glyph-name="uni00B1" unicode="&#xb1;" horiz-adv-x="422" 
d="M54 253l8 75h137l14 136h73l-14 -136h130l-8 -75h-130l-14 -136h-73l14 136h-137zM28 0l7 75h340l-7 -75h-340z" />
    <glyph glyph-name="uni00B2" unicode="&#xb2;" horiz-adv-x="353" 
d="M189 659l-64 6l23 90q54 30 127 30q63 0 94 -26t31 -64q0 -16 -7 -33.5t-15.5 -32t-25.5 -32.5t-28.5 -28.5t-34 -27.5t-31.5 -23.5t-31.5 -22t-24.5 -16.5h123l8 50l70 -8l-16 -106h-288l-1 59q10 7 30.5 22.5t32.5 24t31 23.5t30.5 24.5t26.5 23t24 24.5t17.5 22.5
t12.5 22.5t4 21q0 39 -52 39q-29 0 -50 -13z" />
    <glyph glyph-name="uni00B3" unicode="&#xb3;" horiz-adv-x="340" 
d="M199 664l-63 5l20 86q53 29 125 29q54 0 85 -23.5t31 -61.5q0 -61 -74 -89v-2q69 -15 69 -84q0 -53 -41.5 -84.5t-108.5 -31.5q-56 0 -92 24.5t-40 73.5l63 20q11 -54 66 -54q31 0 47.5 15.5t16.5 41.5t-20 37.5t-62 13.5l5 48q80 5 80 55q0 37 -46 37q-24 0 -47 -12z
" />
    <glyph glyph-name="uni00B4" unicode="&#xb4;" horiz-adv-x="431" 
d="M676 609l-195 -97l-25 43l170 138z" />
    <glyph glyph-name="uni00B5" unicode="&#xb5;" horiz-adv-x="570" 
d="M552 0h-174l7 73q-53 -82 -154 -82q-28 0 -47 10l-22 -214h-105l60 579h-65l10 83h170l-28 -259q-11 -117 74 -117q46 0 78.5 31.5t40.5 78.5l19 183h-78l9 83h183l-39 -367h71z" />
    <glyph glyph-name="uni00B6" unicode="&#xb6;" horiz-adv-x="630" 
d="M678 650l-9 -91h-68l-58 -559h-98l59 559h-48l-59 -559h-98l32 310h-49q-86 0 -137 37t-51 116q0 81 61 134t169 53h354z" />
    <glyph glyph-name="uni00B7" unicode="&#xb7;" horiz-adv-x="223" 
d="M92 253l14 139h128l-14 -139h-128z" />
    <glyph glyph-name="uni00B8" unicode="&#xb8;" horiz-adv-x="251" 
d="M222 6l-7 -49h8q41 0 60 -20t19 -53q0 -47 -38 -70t-91 -23q-71 0 -103 30l26 59q29 -23 73 -23t44 31q0 28 -42 28h-33l12 90h72z" />
    <glyph glyph-name="uni00B9" unicode="&#xb9;" horiz-adv-x="266" 
d="M97 479h71l25 236h-72l7 64h155l-32 -300h67l-7 -64h-221z" />
    <glyph glyph-name="uni00BA" unicode="&#xba;" horiz-adv-x="346" 
d="M110 531q0 72 42 122t120 50q66 0 98.5 -36.5t32.5 -98.5q0 -76 -45 -123t-119 -47q-62 0 -95.5 34.5t-33.5 98.5zM193 538q0 -39 11.5 -58.5t41.5 -19.5q39 0 57.5 29.5t18.5 76.5q0 76 -58 76q-71 0 -71 -104z" />
    <glyph glyph-name="uni00BB" unicode="&#xbb;" horiz-adv-x="454" 
d="M271 25h-87l145 246l-93 240h86l111 -240zM107 25h-87l145 246l-94 240h87l110 -240z" />
    <glyph glyph-name="uni00BC" unicode="&#xbc;" horiz-adv-x="714" 
d="M647 650l-220 -325l-213 -325h-73l229 337l204 313h73zM83 350h71l25 236h-72l7 64h155l-32 -300h67l-7 -64h-221zM556 0l9 92h-167l-2 61l135 211h145l-23 -214h60l-13 -58h-53l-9 -92h-82zM561 300l-95 -150h105l16 150h-26z" />
    <glyph glyph-name="uni00BD" unicode="&#xbd;" horiz-adv-x="754" 
d="M643 650l-220 -325l-213 -325h-73l229 337l204 313h73zM79 350h71l25 236h-72l7 64h155l-32 -300h67l-7 -64h-221zM535 244l-64 6l23 90q54 30 127 30q63 0 94 -26t31 -64q0 -16 -7 -33.5t-15.5 -32t-25.5 -32.5t-28.5 -28.5t-34 -27.5t-31.5 -23.5t-31.5 -22
t-24.5 -16.5h123l8 50l70 -8l-16 -106h-288l-1 59q10 7 30.5 22.5t32.5 24t31 23.5t30.5 24.5t26.5 23t24 24.5t17.5 22.5t12.5 22.5t4 21q0 39 -52 39q-29 0 -50 -13z" />
    <glyph glyph-name="uni00BE" unicode="&#xbe;" horiz-adv-x="744" 
d="M179 540l-63 5l20 86q53 29 125 29q54 0 85 -23.5t31 -61.5q0 -61 -74 -89v-2q69 -15 69 -84q0 -53 -41.5 -84.5t-108.5 -31.5q-56 0 -92 24.5t-40 73.5l63 20q11 -54 66 -54q31 0 47.5 15.5t16.5 41.5t-20 37.5t-62 13.5l5 48q80 5 80 55q0 37 -46 37q-24 0 -47 -12z
M681 650l-220 -325l-213 -325h-73l229 337l204 313h73zM594 0l9 92h-167l-2 61l135 211h145l-23 -214h60l-13 -58h-53l-9 -92h-82zM599 300l-95 -150h105l16 150h-26z" />
    <glyph glyph-name="uni00BF" unicode="&#xbf;" horiz-adv-x="451" 
d="M307 452l-13 -127h-125l13 127h125zM293 -6l83 -8l-31 -141q-95 -52 -189 -52q-81 0 -131.5 35t-50.5 97q0 49 34 86.5t74.5 56.5t74.5 43t34 48q0 29 -41 29l7 68q149 16 149 -82q0 -36 -21.5 -63.5t-52.5 -44.5t-62.5 -32.5t-53 -36.5t-21.5 -49t22 -43t60 -15
q54 0 93 24z" />
    <glyph glyph-name="uni00C0" unicode="&#xc0;" horiz-adv-x="650" 
d="M412 694l-215 33l22 99l204 -83zM-29 95h58l238 460h-92l10 95h200l169 -555h60l-10 -95h-239l10 95h63l-22 89h-235l-43 -89h71l-10 -95h-237zM331 491l-110 -226h174l-58 226h-6z" />
    <glyph glyph-name="uni00C1" unicode="&#xc1;" horiz-adv-x="650" 
d="M524 727l-215 -33l-12 49l204 83zM-29 95h58l238 460h-92l10 95h200l169 -555h60l-10 -95h-239l10 95h63l-22 89h-235l-43 -89h71l-10 -95h-237zM331 491l-110 -226h174l-58 226h-6z" />
    <glyph glyph-name="uni00C2" unicode="&#xc2;" horiz-adv-x="650" 
d="M380 837l118 -100l-28 -46l-120 61l-125 -61l-22 45l141 101h36zM-29 95h58l238 460h-92l10 95h200l169 -555h60l-10 -95h-239l10 95h63l-22 89h-235l-43 -89h71l-10 -95h-237zM331 491l-110 -226h174l-58 226h-6z" />
    <glyph glyph-name="uni00C3" unicode="&#xc3;" horiz-adv-x="650" 
d="M234 701l-41 15q4 33 28.5 66t64.5 33q23 0 58 -16.5t53 -16.5q35 0 51 40l45 -10q-17 -108 -91 -108q-25 0 -62 16t-58 16q-33 0 -48 -35zM-29 95h58l238 460h-92l10 95h200l169 -555h60l-10 -95h-239l10 95h63l-22 89h-235l-43 -89h71l-10 -95h-237zM331 491l-110 -226
h174l-58 226h-6z" />
    <glyph glyph-name="uni00C4" unicode="&#xc4;" horiz-adv-x="650" 
d="M385 710l12 115h109l-12 -115h-109zM209 710l12 115h108l-11 -115h-109zM-29 95h58l238 460h-92l10 95h200l169 -555h60l-10 -95h-239l10 95h63l-22 89h-235l-43 -89h71l-10 -95h-237zM331 491l-110 -226h174l-58 226h-6z" />
    <glyph glyph-name="uni00C5" unicode="&#xc5;" horiz-adv-x="650" 
d="M349 689q-91 0 -91 82q0 46 29.5 74t82.5 28q91 0 91 -81q0 -44 -29 -73.5t-83 -29.5zM355 742q39 0 39 47q0 32 -30 32q-38 0 -38 -48q0 -31 29 -31zM-29 95h58l238 460h-92l10 95h200l169 -555h60l-10 -95h-239l10 95h63l-22 89h-235l-43 -89h71l-10 -95h-237zM331 491
l-110 -226h174l-58 226h-6z" />
    <glyph glyph-name="uni00C6" unicode="&#xc6;" horiz-adv-x="912" 
d="M802 0h-487l9 95h73l10 89h-228l-51 -89h67l-9 -95h-242l10 95h63l274 460h-85l9 95h648l-1 -187l-91 -9l-9 101h-208l-19 -180h281l-10 -95h-280l-20 -185h214l31 101l90 -8zM415 265l31 290h-54l-167 -290h190z" />
    <glyph glyph-name="uni00C7" unicode="&#xc7;" horiz-adv-x="621" 
d="M586 62q-34 -31 -97 -50.5t-127 -21.5l-4 -33h8q41 0 60 -20t19 -53q0 -47 -38 -70t-91 -23q-71 0 -103 30l26 59q29 -23 73 -23t44 31q0 28 -42 28h-33l10 80q-106 18 -164.5 97t-58.5 194q0 69 21.5 133.5t63.5 119t111.5 87.5t157.5 33q143 0 218 -77l2 -141l-91 -9
l-6 90q-54 39 -135 39q-104 0 -166 -70t-62 -193q0 -211 191 -211q75 0 128 28l26 97l88 -9z" />
    <glyph glyph-name="uni00C8" unicode="&#xc8;" horiz-adv-x="570" 
d="M451 694l-215 33l22 99l204 -83zM501 0h-481l9 95h74l48 460h-73l10 95h476v-188l-92 -8l-9 101h-206l-19 -180h283l-10 -95h-283l-19 -185h211l30 101l90 -8z" />
    <glyph glyph-name="uni00C9" unicode="&#xc9;" horiz-adv-x="570" 
d="M520 727l-215 -33l-12 49l204 83zM501 0h-481l9 95h74l48 460h-73l10 95h476v-188l-92 -8l-9 101h-206l-19 -180h283l-10 -95h-283l-19 -185h211l30 101l90 -8z" />
    <glyph glyph-name="uni00CA" unicode="&#xca;" horiz-adv-x="570" 
d="M402 837l118 -100l-28 -46l-120 61l-125 -61l-22 45l141 101h36zM501 0h-481l9 95h74l48 460h-73l10 95h476v-188l-92 -8l-9 101h-206l-19 -180h283l-10 -95h-283l-19 -185h211l30 101l90 -8z" />
    <glyph glyph-name="uni00CB" unicode="&#xcb;" horiz-adv-x="570" 
d="M229 710l12 115h108l-11 -115h-109zM405 710l12 115h109l-12 -115h-109zM501 0h-481l9 95h74l48 460h-73l10 95h476v-188l-92 -8l-9 101h-206l-19 -180h283l-10 -95h-283l-19 -185h211l30 101l90 -8z" />
    <glyph glyph-name="uni00CC" unicode="&#xcc;" horiz-adv-x="328" 
d="M284 694l-215 33l22 99l204 -83zM30 95h72l48 460h-72l10 95h250l-10 -95h-72l-48 -460h72l-10 -95h-250z" />
    <glyph glyph-name="uni00CD" unicode="&#xcd;" horiz-adv-x="328" 
d="M367 727l-215 -33l-12 49l204 83zM30 95h72l48 460h-72l10 95h250l-10 -95h-72l-48 -460h72l-10 -95h-250z" />
    <glyph glyph-name="uni00CE" unicode="&#xce;" horiz-adv-x="328" 
d="M251 837l118 -100l-28 -46l-120 61l-125 -61l-22 45l141 101h36zM30 95h72l48 460h-72l10 95h250l-10 -95h-72l-48 -460h72l-10 -95h-250z" />
    <glyph glyph-name="uni00CF" unicode="&#xcf;" horiz-adv-x="328" 
d="M253 710l12 115h109l-12 -115h-109zM77 710l12 115h108l-11 -115h-109zM30 95h72l48 460h-72l10 95h250l-10 -95h-72l-48 -460h72l-10 -95h-250z" />
    <glyph glyph-name="uni00D0" unicode="&#xd0;" horiz-adv-x="680" 
d="M60 384h77l18 171h-73l10 95h285q142 0 216.5 -77t74.5 -211q0 -159 -97 -260.5t-256 -101.5h-291l10 95h73l21 205h-78zM317 95q112 0 174.5 68t62.5 189q0 203 -189 203h-105l-18 -171h119l-9 -84h-119l-21 -205h105z" />
    <glyph glyph-name="uni00D1" unicode="&#xd1;" horiz-adv-x="725" 
d="M304 701l-41 15q4 33 28.5 66t64.5 33q23 0 58 -16.5t53 -16.5q35 0 51 40l45 -10q-17 -108 -91 -108q-25 0 -62 16t-58 16q-33 0 -48 -35zM38 95h70l48 460h-80l10 95h156l288 -430h3l35 335h-92l10 95h264l-10 -95h-72l-58 -555l-62 -1l-300 451h-3l-37 -355h92
l-10 -95h-262z" />
    <glyph glyph-name="uni00D2" unicode="&#xd2;" horiz-adv-x="695" 
d="M483 694l-215 33l22 99l204 -83zM420 660q131 0 209 -86t78 -214q0 -153 -102 -261.5t-255 -108.5q-132 0 -208 86t-76 214q0 155 102 262.5t252 107.5zM366 88q105 0 165 77.5t60 186.5q0 97 -49 153.5t-134 56.5q-101 0 -163.5 -76t-62.5 -186q0 -90 46 -151t138 -61z
" />
    <glyph glyph-name="uni00D3" unicode="&#xd3;" horiz-adv-x="695" 
d="M579 727l-215 -33l-12 49l204 83zM420 660q131 0 209 -86t78 -214q0 -153 -102 -261.5t-255 -108.5q-132 0 -208 86t-76 214q0 155 102 262.5t252 107.5zM366 88q105 0 165 77.5t60 186.5q0 97 -49 153.5t-134 56.5q-101 0 -163.5 -76t-62.5 -186q0 -90 46 -151t138 -61z
" />
    <glyph glyph-name="uni00D4" unicode="&#xd4;" horiz-adv-x="695" 
d="M467 837l118 -100l-28 -46l-120 61l-125 -61l-22 45l141 101h36zM420 660q131 0 209 -86t78 -214q0 -153 -102 -261.5t-255 -108.5q-132 0 -208 86t-76 214q0 155 102 262.5t252 107.5zM366 88q105 0 165 77.5t60 186.5q0 97 -49 153.5t-134 56.5q-101 0 -163.5 -76
t-62.5 -186q0 -90 46 -151t138 -61z" />
    <glyph glyph-name="uni00D5" unicode="&#xd5;" horiz-adv-x="695" 
d="M331 701l-41 15q4 33 28.5 66t64.5 33q23 0 58 -16.5t53 -16.5q35 0 51 40l45 -10q-17 -108 -91 -108q-25 0 -62 16t-58 16q-33 0 -48 -35zM420 660q131 0 209 -86t78 -214q0 -153 -102 -261.5t-255 -108.5q-132 0 -208 86t-76 214q0 155 102 262.5t252 107.5zM366 88
q105 0 165 77.5t60 186.5q0 97 -49 153.5t-134 56.5q-101 0 -163.5 -76t-62.5 -186q0 -90 46 -151t138 -61z" />
    <glyph glyph-name="uni00D6" unicode="&#xd6;" horiz-adv-x="695" 
d="M291 710l12 115h108l-11 -115h-109zM467 710l12 115h109l-12 -115h-109zM420 660q131 0 209 -86t78 -214q0 -153 -102 -261.5t-255 -108.5q-132 0 -208 86t-76 214q0 155 102 262.5t252 107.5zM366 88q105 0 165 77.5t60 186.5q0 97 -49 153.5t-134 56.5
q-101 0 -163.5 -76t-62.5 -186q0 -90 46 -151t138 -61z" />
    <glyph glyph-name="uni00D7" unicode="&#xd7;" horiz-adv-x="371" 
d="M102 124l-46 53l107 98l-84 97l57 53l84 -97l103 95l45 -53l-102 -94l84 -96l-57 -54l-85 97z" />
    <glyph glyph-name="uni00D8" unicode="&#xd8;" horiz-adv-x="691" 
d="M416 660q89 0 157 -43l27 33h105l-72 -85q70 -84 70 -205q0 -153 -102 -261.5t-255 -108.5q-92 0 -160 44l-29 -34h-95l69 83q-69 81 -69 207q0 155 102 262.5t252 107.5zM178 300q0 -72 28 -125l298 359q-42 28 -100 28q-101 0 -163.5 -76t-62.5 -186zM362 88
q105 0 165 77.5t60 186.5q0 72 -29 124l-302 -358q43 -30 106 -30z" />
    <glyph glyph-name="uni00D9" unicode="&#xd9;" horiz-adv-x="692" 
d="M511 694l-215 33l22 99l204 -83zM523 650h238l-10 -95h-59l-30 -287q-6 -56 -23 -102.5t-48.5 -87.5t-85 -64.5t-124.5 -23.5q-134 0 -190.5 76t-44.5 191l31 298h-59l10 95h244l-10 -95h-78l-31 -295q-9 -81 24 -126.5t112 -45.5q155 0 174 180l30 287h-79z" />
    <glyph glyph-name="uni00DA" unicode="&#xda;" horiz-adv-x="692" 
d="M619 727l-215 -33l-12 49l204 83zM523 650h238l-10 -95h-59l-30 -287q-6 -56 -23 -102.5t-48.5 -87.5t-85 -64.5t-124.5 -23.5q-134 0 -190.5 76t-44.5 191l31 298h-59l10 95h244l-10 -95h-78l-31 -295q-9 -81 24 -126.5t112 -45.5q155 0 174 180l30 287h-79z" />
    <glyph glyph-name="uni00DB" unicode="&#xdb;" horiz-adv-x="692" 
d="M483 837l118 -100l-28 -46l-120 61l-125 -61l-22 45l141 101h36zM523 650h238l-10 -95h-59l-30 -287q-6 -56 -23 -102.5t-48.5 -87.5t-85 -64.5t-124.5 -23.5q-134 0 -190.5 76t-44.5 191l31 298h-59l10 95h244l-10 -95h-78l-31 -295q-9 -81 24 -126.5t112 -45.5
q155 0 174 180l30 287h-79z" />
    <glyph glyph-name="uni00DC" unicode="&#xdc;" horiz-adv-x="692" 
d="M491 710l12 115h109l-12 -115h-109zM315 710l12 115h108l-11 -115h-109zM523 650h238l-10 -95h-59l-30 -287q-6 -56 -23 -102.5t-48.5 -87.5t-85 -64.5t-124.5 -23.5q-134 0 -190.5 76t-44.5 191l31 298h-59l10 95h244l-10 -95h-78l-31 -295q-9 -81 24 -126.5t112 -45.5
q155 0 174 180l30 287h-79z" />
    <glyph glyph-name="uni00DD" unicode="&#xdd;" horiz-adv-x="612" 
d="M536 727l-215 -33l-12 49l204 83zM667 555h-56l-220 -302l-16 -158h104l-10 -95h-312l10 95h101l16 158l-162 302h-58l10 95h247l-10 -95h-65l105 -204h5l144 204h-70l10 95h236z" />
    <glyph glyph-name="uni00DE" unicode="&#xde;" horiz-adv-x="565" 
d="M30 95h72l48 460h-72l10 95h250l-10 -95h-72l-4 -36h99q108 0 162 -42t54 -122q0 -105 -70.5 -158.5t-179.5 -53.5h-104l-5 -48h72l-10 -95h-250zM305 214q74 0 109.5 36t35.5 98q0 99 -119 99h-86l-25 -233h85z" />
    <glyph glyph-name="uni00DF" unicode="&#xdf;" horiz-adv-x="630" 
d="M-142 366l5 56l30 27h56l7 52q13 103 80 150t172 47q104 0 156.5 -40t52.5 -107q0 -42 -21 -72.5t-50.5 -47.5t-59 -30.5t-50.5 -31.5t-21 -41t18.5 -34.5t55.5 -21.5q2 0 21 -5t22.5 -6t20.5 -6.5t22 -8.5t19 -10t18.5 -13t13.5 -15.5t12.5 -19.5t6.5 -23.5t3 -28.5
q0 -70 -50 -108t-130 -38q-124 0 -197 44l28 116l81 -8l-7 -56q32 -14 83 -14q38 0 61 15t23 42q0 26 -20.5 37.5t-65.5 22.5q-29 8 -41.5 11.5t-37.5 14t-36 22t-21 32.5t-10 47q0 40 21 68.5t50.5 44t59.5 29.5t51 35t21 51q0 33 -28 53t-84 20q-68 0 -101.5 -31.5
t-41.5 -93.5l-64 -529q-24 -185 -166 -185q-63 0 -100.5 34.5t-36.5 105.5l81 24q-1 -82 52 -82t67 105l50 401h-81z" />
    <glyph glyph-name="uni00E0" unicode="&#xe0;" horiz-adv-x="515" 
d="M339 512l-196 97l50 84l171 -138zM497 449q-27 -91 -34 -152l-27 -215h61l-7 -60l-26 -22h-124l-2 91q-51 -101 -149 -101q-71 0 -110 52.5t-39 138.5q0 47 12 94t35.5 89t65.5 68t95 26q100 0 129 -84q12 50 21 75h99zM263 375q-57 0 -84.5 -53.5t-27.5 -127.5
q0 -122 77 -122q43 0 76 39t44 89l8 61q2 51 -25 82.5t-68 31.5z" />
    <glyph glyph-name="uni00E1" unicode="&#xe1;" horiz-adv-x="515" 
d="M476 609l-195 -97l-25 43l170 138zM497 449q-27 -91 -34 -152l-27 -215h61l-7 -60l-26 -22h-124l-2 91q-51 -101 -149 -101q-71 0 -110 52.5t-39 138.5q0 47 12 94t35.5 89t65.5 68t95 26q100 0 129 -84q12 50 21 75h99zM263 375q-57 0 -84.5 -53.5t-27.5 -127.5
q0 -122 77 -122q43 0 76 39t44 89l8 61q2 51 -25 82.5t-68 31.5z" />
    <glyph glyph-name="uni00E2" unicode="&#xe2;" horiz-adv-x="515" 
d="M345 679l116 -126l-35 -41l-111 76l-118 -76l-29 41l142 126h35zM497 449q-27 -91 -34 -152l-27 -215h61l-7 -60l-26 -22h-124l-2 91q-51 -101 -149 -101q-71 0 -110 52.5t-39 138.5q0 47 12 94t35.5 89t65.5 68t95 26q100 0 129 -84q12 50 21 75h99zM263 375
q-57 0 -84.5 -53.5t-27.5 -127.5q0 -122 77 -122q43 0 76 39t44 89l8 61q2 51 -25 82.5t-68 31.5z" />
    <glyph glyph-name="uni00E3" unicode="&#xe3;" horiz-adv-x="515" 
d="M216 528l-42 14q4 36 29.5 73.5t65.5 37.5q22 0 57 -19t54 -19q33 0 50 42l45 -10q-18 -116 -91 -116q-27 0 -63.5 20t-53.5 20q-34 0 -51 -43zM497 449q-27 -91 -34 -152l-27 -215h61l-7 -60l-26 -22h-124l-2 91q-51 -101 -149 -101q-71 0 -110 52.5t-39 138.5
q0 47 12 94t35.5 89t65.5 68t95 26q100 0 129 -84q12 50 21 75h99zM263 375q-57 0 -84.5 -53.5t-27.5 -127.5q0 -122 77 -122q43 0 76 39t44 89l8 61q2 51 -25 82.5t-68 31.5z" />
    <glyph glyph-name="uni00E4" unicode="&#xe4;" horiz-adv-x="515" 
d="M355 540l11 115h110l-12 -115h-109zM179 540l12 115h108l-12 -115h-108zM497 449q-27 -91 -34 -152l-27 -215h61l-7 -60l-26 -22h-124l-2 91q-51 -101 -149 -101q-71 0 -110 52.5t-39 138.5q0 47 12 94t35.5 89t65.5 68t95 26q100 0 129 -84q12 50 21 75h99zM263 375
q-57 0 -84.5 -53.5t-27.5 -127.5q0 -122 77 -122q43 0 76 39t44 89l8 61q2 51 -25 82.5t-68 31.5z" />
    <glyph glyph-name="uni00E5" unicode="&#xe5;" horiz-adv-x="515" 
d="M317 514q-91 0 -91 82q0 46 29.5 74t82.5 28q45 0 68 -21.5t23 -59.5q0 -44 -29 -73.5t-83 -29.5zM322 566q40 0 40 47q0 33 -30 33q-38 0 -38 -47q0 -33 28 -33zM497 449q-27 -91 -34 -152l-27 -215h61l-7 -60l-26 -22h-124l-2 91q-51 -101 -149 -101q-71 0 -110 52.5
t-39 138.5q0 47 12 94t35.5 89t65.5 68t95 26q100 0 129 -84q12 50 21 75h99zM263 375q-57 0 -84.5 -53.5t-27.5 -127.5q0 -122 77 -122q43 0 76 39t44 89l8 61q2 51 -25 82.5t-68 31.5z" />
    <glyph glyph-name="uni00E6" unicode="&#xe6;" horiz-adv-x="709" 
d="M242 382q-35 0 -71 -19l-25 -69l-83 10l30 111q74 43 160 43q96 0 141 -51q61 51 145 51q69 0 113 -33t44 -90q0 -101 -160 -135q-54 -12 -122 -19q2 -54 23 -81.5t67 -27.5q72 0 99 80l84 -17q-13 -62 -65.5 -103.5t-133.5 -41.5q-118 0 -163 89q-57 -89 -159 -89
q-57 0 -96.5 29t-39.5 90q0 51 31 84.5t76 46.5t102 13q3 0 69 -3v1q1 1 1 2l2 22q6 50 -7 78.5t-62 28.5zM527 383q-49 0 -75.5 -39t-34.5 -99q20 2 64 11q61 12 84 30.5t23 44.5q0 52 -61 52zM197 68q38 0 67.5 28.5t38.5 78.5v21q-35 5 -64 5q-95 0 -95 -76q0 -57 53 -57
z" />
    <glyph glyph-name="uni00E7" unicode="&#xe7;" horiz-adv-x="439" 
d="M267 375q-54 0 -84 -49.5t-30 -129.5q0 -124 86 -124q40 0 63 26t39 80l83 -17q-14 -66 -58.5 -114.5t-119.5 -55.5l-5 -34h8q41 0 60 -20t19 -53q0 -47 -38 -70t-91 -23q-71 0 -103 30l26 59q29 -23 73 -23t44 31q0 28 -42 28h-33l10 79q-63 14 -97.5 64.5t-34.5 131.5
q0 49 13 95t39 85t71.5 63t103.5 24q88 0 153 -41l5 -126l-86 -9l-7 78q-28 15 -67 15z" />
    <glyph glyph-name="uni00E8" unicode="&#xe8;" horiz-adv-x="441" 
d="M337 512l-196 97l50 84l171 -138zM242 72q72 0 99 80l83 -17q-12 -61 -64.5 -103t-133.5 -42q-85 0 -135.5 50.5t-50.5 148.5q0 114 65 191.5t172 77.5q68 0 112 -33t44 -86t-37 -87t-123 -52q-47 -11 -121 -19q2 -54 23 -81.5t67 -27.5zM222 256q61 12 82 31t21 45
q0 51 -61 51q-49 0 -75 -39t-34 -99q3 0 67 11z" />
    <glyph glyph-name="uni00E9" unicode="&#xe9;" horiz-adv-x="441" 
d="M461 609l-195 -97l-25 43l170 138zM242 72q72 0 99 80l83 -17q-12 -61 -64.5 -103t-133.5 -42q-85 0 -135.5 50.5t-50.5 148.5q0 114 65 191.5t172 77.5q68 0 112 -33t44 -86t-37 -87t-123 -52q-47 -11 -121 -19q2 -54 23 -81.5t67 -27.5zM222 256q61 12 82 31t21 45
q0 51 -61 51q-49 0 -75 -39t-34 -99q3 0 67 11z" />
    <glyph glyph-name="uni00EA" unicode="&#xea;" horiz-adv-x="441" 
d="M327 679l116 -126l-35 -41l-111 76l-118 -76l-29 41l142 126h35zM242 72q72 0 99 80l83 -17q-12 -61 -64.5 -103t-133.5 -42q-85 0 -135.5 50.5t-50.5 148.5q0 114 65 191.5t172 77.5q68 0 112 -33t44 -86t-37 -87t-123 -52q-47 -11 -121 -19q2 -54 23 -81.5t67 -27.5z
M222 256q61 12 82 31t21 45q0 51 -61 51q-49 0 -75 -39t-34 -99q3 0 67 11z" />
    <glyph glyph-name="uni00EB" unicode="&#xeb;" horiz-adv-x="441" 
d="M330 540l11 115h110l-12 -115h-109zM154 540l12 115h108l-12 -115h-108zM242 72q72 0 99 80l83 -17q-12 -61 -64.5 -103t-133.5 -42q-85 0 -135.5 50.5t-50.5 148.5q0 114 65 191.5t172 77.5q68 0 112 -33t44 -86t-37 -87t-123 -52q-47 -11 -121 -19q2 -54 23 -81.5
t67 -27.5zM222 256q61 12 82 31t21 45q0 51 -61 51q-49 0 -75 -39t-34 -99q3 0 67 11z" />
    <glyph glyph-name="uni00EC" unicode="&#xec;" horiz-adv-x="267" 
d="M220 512l-196 97l50 84l171 -138zM46 425l27 24h146l-44 -367h63l-7 -60l-27 -22h-142l45 366h-69z" />
    <glyph glyph-name="uni00ED" unicode="&#xed;" horiz-adv-x="267" 
d="M334 609l-195 -97l-25 43l170 138zM60 425l27 24h146l-44 -367h63l-7 -60l-27 -22h-142l45 366h-69z" />
    <glyph glyph-name="uni00EE" unicode="&#xee;" horiz-adv-x="267" 
d="M209 679l116 -126l-35 -41l-111 76l-118 -76l-29 41l142 126h35zM50 425l27 24h146l-44 -367h63l-7 -60l-27 -22h-142l45 366h-69z" />
    <glyph glyph-name="uni00EF" unicode="&#xef;" horiz-adv-x="267" 
d="M212 540l11 115h110l-12 -115h-109zM36 540l12 115h108l-12 -115h-108zM52 425l27 24h146l-44 -367h63l-7 -60l-27 -22h-142l45 366h-69z" />
    <glyph glyph-name="uni00F0" unicode="&#xf0;" horiz-adv-x="491" 
d="M149 516l55 68q-32 20 -61 36l53 78q55 -31 69 -40l44 54l54 -36l-46 -56q160 -131 160 -325q0 -80 -23.5 -146.5t-80.5 -112.5t-140 -46q-91 0 -141 54.5t-50 151.5q0 113 62.5 187.5t158.5 74.5q48 0 80 -23q-25 62 -87 111l-55 -67zM267 375q-111 0 -111 -173
q0 -130 86 -130q105 0 119 169l3 37q-3 41 -27.5 69t-69.5 28z" />
    <glyph glyph-name="uni00F1" unicode="&#xf1;" horiz-adv-x="534" 
d="M216 528l-42 14q4 36 29.5 73.5t65.5 37.5q22 0 57 -19t54 -19q33 0 50 42l45 -10q-18 -116 -91 -116q-27 0 -63.5 20t-53.5 20q-34 0 -51 -43zM83 449h129l3 -87q51 96 147 96q66 0 103 -41t27 -120l-26 -215h65l-8 -60l-27 -22h-142l32 258q7 62 -10.5 89.5t-60.5 27.5
q-47 0 -75 -33t-34 -85v1l-32 -258h-102l45 366h-69l7 59z" />
    <glyph glyph-name="uni00F2" unicode="&#xf2;" horiz-adv-x="483" 
d="M332 512l-196 97l50 84l171 -138zM44 192q0 111 62 188.5t176 77.5q97 0 144 -56.5t47 -150.5q0 -115 -66 -188t-175 -73q-91 0 -139.5 53.5t-48.5 148.5zM155 200q0 -62 19.5 -95t67.5 -33q62 0 91.5 49.5t29.5 126.5q0 64 -21.5 95.5t-70.5 31.5q-116 0 -116 -175z" />
    <glyph glyph-name="uni00F3" unicode="&#xf3;" horiz-adv-x="483" 
d="M456 609l-195 -97l-25 43l170 138zM44 192q0 111 62 188.5t176 77.5q97 0 144 -56.5t47 -150.5q0 -115 -66 -188t-175 -73q-91 0 -139.5 53.5t-48.5 148.5zM155 200q0 -62 19.5 -95t67.5 -33q62 0 91.5 49.5t29.5 126.5q0 64 -21.5 95.5t-70.5 31.5q-116 0 -116 -175z
" />
    <glyph glyph-name="uni00F4" unicode="&#xf4;" horiz-adv-x="483" 
d="M320 679l116 -126l-35 -41l-111 76l-118 -76l-29 41l142 126h35zM44 192q0 111 62 188.5t176 77.5q97 0 144 -56.5t47 -150.5q0 -115 -66 -188t-175 -73q-91 0 -139.5 53.5t-48.5 148.5zM155 200q0 -62 19.5 -95t67.5 -33q62 0 91.5 49.5t29.5 126.5q0 64 -21.5 95.5
t-70.5 31.5q-116 0 -116 -175z" />
    <glyph glyph-name="uni00F5" unicode="&#xf5;" horiz-adv-x="483" 
d="M186 528l-42 14q4 36 29.5 73.5t65.5 37.5q22 0 57 -19t54 -19q33 0 50 42l45 -10q-18 -116 -91 -116q-27 0 -63.5 20t-53.5 20q-34 0 -51 -43zM44 192q0 111 62 188.5t176 77.5q97 0 144 -56.5t47 -150.5q0 -115 -66 -188t-175 -73q-91 0 -139.5 53.5t-48.5 148.5z
M155 200q0 -62 19.5 -95t67.5 -33q62 0 91.5 49.5t29.5 126.5q0 64 -21.5 95.5t-70.5 31.5q-116 0 -116 -175z" />
    <glyph glyph-name="uni00F6" unicode="&#xf6;" horiz-adv-x="483" 
d="M156 540l12 115h108l-12 -115h-108zM332 540l11 115h110l-12 -115h-109zM44 192q0 111 62 188.5t176 77.5q97 0 144 -56.5t47 -150.5q0 -115 -66 -188t-175 -73q-91 0 -139.5 53.5t-48.5 148.5zM155 200q0 -62 19.5 -95t67.5 -33q62 0 91.5 49.5t29.5 126.5
q0 64 -21.5 95.5t-70.5 31.5q-116 0 -116 -175z" />
    <glyph glyph-name="uni00F7" unicode="&#xf7;" horiz-adv-x="412" 
d="M186 366l14 139h128l-14 -139h-128zM66 244l8 74h340l-8 -74h-340zM153 59l14 139h128l-14 -139h-128z" />
    <glyph glyph-name="uni00F8" unicode="&#xf8;" horiz-adv-x="480" 
d="M38 192q0 111 62 188.5t176 77.5q62 0 104 -25l13 16h74l-43 -54q43 -55 43 -144q0 -115 -66 -188t-175 -73q-61 0 -105 25l-12 -15h-73l42 53q-40 50 -40 139zM149 200q0 -32 4 -53l168 211q-22 17 -56 17q-116 0 -116 -175zM236 72q62 0 91.5 49.5t29.5 126.5
q0 29 -5 56l-172 -214q20 -18 56 -18z" />
    <glyph glyph-name="uni00F9" unicode="&#xf9;" horiz-adv-x="534" 
d="M341 512l-196 97l50 84l171 -138zM518 82l-7 -58l-28 -24h-129l-3 86q-50 -95 -146 -95q-66 0 -103 41t-27 120l26 214h-65l8 61l26 22h143l-32 -258q-8 -62 10 -90t61 -28q44 0 71 30t36 78l33 268h102l-44 -367h68z" />
    <glyph glyph-name="uni00FA" unicode="&#xfa;" horiz-adv-x="534" 
d="M480 609l-195 -97l-25 43l170 138zM518 82l-7 -58l-28 -24h-129l-3 86q-50 -95 -146 -95q-66 0 -103 41t-27 120l26 214h-65l8 61l26 22h143l-32 -258q-8 -62 10 -90t61 -28q44 0 71 30t36 78l33 268h102l-44 -367h68z" />
    <glyph glyph-name="uni00FB" unicode="&#xfb;" horiz-adv-x="534" 
d="M343 679l116 -126l-35 -41l-111 76l-118 -76l-29 41l142 126h35zM518 82l-7 -58l-28 -24h-129l-3 86q-50 -95 -146 -95q-66 0 -103 41t-27 120l26 214h-65l8 61l26 22h143l-32 -258q-8 -62 10 -90t61 -28q44 0 71 30t36 78l33 268h102l-44 -367h68z" />
    <glyph glyph-name="uni00FC" unicode="&#xfc;" horiz-adv-x="534" 
d="M337 540l11 115h110l-12 -115h-109zM161 540l12 115h108l-12 -115h-108zM518 82l-7 -58l-28 -24h-129l-3 86q-50 -95 -146 -95q-66 0 -103 41t-27 120l26 214h-65l8 61l26 22h143l-32 -258q-8 -62 10 -90t61 -28q44 0 71 30t36 78l33 268h102l-44 -367h68z" />
    <glyph glyph-name="uni00FD" unicode="&#xfd;" horiz-adv-x="476" 
d="M446 609l-195 -97l-25 43l170 138zM256 123h6q55 68 79 122t24 111q0 48 -19 93h117q28 -136 -62 -261q-47 -66 -124 -148l-25 -171h69l-8 -58l-27 -24h-220l8 58l27 24h48l26 174l-104 323h-51l8 59l27 24h201l-7 -59l-28 -24h-40z" />
    <glyph glyph-name="uni00FE" unicode="&#xfe;" horiz-adv-x="508" 
d="M139 -189l-28 -24h-229l7 58l27 24h36l91 737h-68l7 58l27 24h147l-16 -139l-23 -181q50 90 141 90q77 0 118 -53.5t41 -137.5q0 -67 -21 -127.5t-71.5 -105t-122.5 -44.5q-91 0 -124 68l-23 -189h91zM190 72q37 0 64.5 30t39 70t11.5 83q0 54 -21 87t-62 33
q-47 0 -78 -38t-42 -90l-9 -69q1 -48 27 -77t70 -29z" />
    <glyph glyph-name="uni00FF" unicode="&#xff;" horiz-adv-x="476" 
d="M321 540l11 115h110l-12 -115h-109zM145 540l12 115h108l-12 -115h-108zM256 123h6q55 68 79 122t24 111q0 48 -19 93h117q28 -136 -62 -261q-47 -66 -124 -148l-25 -171h69l-8 -58l-27 -24h-220l8 58l27 24h48l26 174l-104 323h-51l8 59l27 24h201l-7 -59l-28 -24h-40z
" />
    <glyph glyph-name="uni0100" unicode="&#x100;" horiz-adv-x="650" 
d="M214 808h291l-9 -82h-290zM-29 95h58l238 460h-92l10 95h200l169 -555h60l-10 -95h-239l10 95h63l-22 89h-235l-43 -89h71l-10 -95h-237zM331 491l-110 -226h174l-58 226h-6z" />
    <glyph glyph-name="uni0101" unicode="&#x101;" horiz-adv-x="515" 
d="M198 629h254l-9 -82h-254zM497 449q-27 -91 -34 -152l-27 -215h61l-7 -60l-26 -22h-124l-2 91q-51 -101 -149 -101q-71 0 -110 52.5t-39 138.5q0 47 12 94t35.5 89t65.5 68t95 26q100 0 129 -84q12 50 21 75h99zM263 375q-57 0 -84.5 -53.5t-27.5 -127.5q0 -122 77 -122
q43 0 76 39t44 89l8 61q2 51 -25 82.5t-68 31.5z" />
    <glyph glyph-name="uni0102" unicode="&#x102;" horiz-adv-x="650" 
d="M418 827h84q-14 -131 -145 -131q-63 0 -93 33t-23 98h84q-8 -65 39 -65q46 0 54 65zM-29 95h58l238 460h-92l10 95h200l169 -555h60l-10 -95h-239l10 95h63l-22 89h-235l-43 -89h71l-10 -95h-237zM331 491l-110 -226h174l-58 226h-6z" />
    <glyph glyph-name="uni0103" unicode="&#x103;" horiz-adv-x="515" 
d="M370 654h84q-15 -132 -147 -132q-61 0 -91 33.5t-23 98.5h84q-6 -66 39 -66q46 0 54 66zM497 449q-27 -91 -34 -152l-27 -215h61l-7 -60l-26 -22h-124l-2 91q-51 -101 -149 -101q-71 0 -110 52.5t-39 138.5q0 47 12 94t35.5 89t65.5 68t95 26q100 0 129 -84q12 50 21 75
h99zM263 375q-57 0 -84.5 -53.5t-27.5 -127.5q0 -122 77 -122q43 0 76 39t44 89l8 61q2 51 -25 82.5t-68 31.5z" />
    <glyph glyph-name="uni0104" unicode="&#x104;" horiz-adv-x="650" 
d="M-29 95h58l238 460h-92l10 95h200l169 -555h60l-10 -95h-49q-59 -37 -59 -88q0 -25 11 -34.5t32 -9.5q27 0 50 13l1 -69q-38 -20 -86 -20q-46 0 -74 21t-28 62q0 38 23.5 70.5t60.5 54.5h-121l10 95h63l-22 89h-235l-43 -89h71l-10 -95h-237zM331 491l-110 -226h174
l-58 226h-6z" />
    <glyph glyph-name="uni0105" unicode="&#x105;" horiz-adv-x="515" 
d="M478 -188q-38 -20 -86 -20q-46 0 -74 21t-28 62q0 38 23.5 70.5t60.5 54.5h-34l-2 91q-51 -101 -149 -101q-71 0 -110 52.5t-39 138.5q0 47 12 94t35.5 89t65.5 68t95 26q100 0 129 -84q12 50 21 75h99q-27 -91 -34 -152l-27 -215h61l-7 -60l-26 -22h-21q-59 -37 -59 -88
q0 -25 11 -34.5t32 -9.5q27 0 50 13zM263 375q-57 0 -84.5 -53.5t-27.5 -127.5q0 -122 77 -122q43 0 76 39t44 89l8 61q2 51 -25 82.5t-68 31.5z" />
    <glyph glyph-name="uni0106" unicode="&#x106;" horiz-adv-x="622" 
d="M571 727l-215 -33l-12 49l204 83zM586 62q-36 -32 -102 -52t-131 -20q-134 0 -209.5 83t-75.5 214q0 69 21.5 133.5t63.5 119t111.5 87.5t157.5 33q143 0 218 -77l2 -141l-91 -9l-6 90q-54 39 -135 39q-104 0 -166 -70t-62 -193q0 -211 191 -211q75 0 128 28l26 97l88 -9
z" />
    <glyph glyph-name="uni0107" unicode="&#x107;" horiz-adv-x="439" 
d="M446 609l-195 -97l-25 43l170 138zM267 375q-54 0 -84 -49.5t-30 -129.5q0 -124 86 -124q40 0 63 26t39 80l83 -17q-16 -72 -65.5 -121.5t-135.5 -49.5t-133.5 53t-47.5 148q0 49 13 95t39 85t71.5 63t103.5 24q88 0 153 -41l5 -126l-86 -9l-7 78q-28 15 -67 15z" />
    <glyph glyph-name="uni0108" unicode="&#x108;" horiz-adv-x="622" 
d="M448 837l118 -100l-28 -46l-120 61l-125 -61l-22 45l141 101h36zM586 62q-36 -32 -102 -52t-131 -20q-134 0 -209.5 83t-75.5 214q0 69 21.5 133.5t63.5 119t111.5 87.5t157.5 33q143 0 218 -77l2 -141l-91 -9l-6 90q-54 39 -135 39q-104 0 -166 -70t-62 -193
q0 -211 191 -211q75 0 128 28l26 97l88 -9z" />
    <glyph glyph-name="uni0109" unicode="&#x109;" horiz-adv-x="439" 
d="M316 679l116 -126l-35 -41l-111 76l-118 -76l-29 41l142 126h35zM267 375q-54 0 -84 -49.5t-30 -129.5q0 -124 86 -124q40 0 63 26t39 80l83 -17q-16 -72 -65.5 -121.5t-135.5 -49.5t-133.5 53t-47.5 148q0 49 13 95t39 85t71.5 63t103.5 24q88 0 153 -41l5 -126l-86 -9
l-7 78q-28 15 -67 15z" />
    <glyph glyph-name="uni010A" unicode="&#x10a;" horiz-adv-x="622" 
d="M363 710l12 115h109l-12 -115h-109zM586 62q-36 -32 -102 -52t-131 -20q-134 0 -209.5 83t-75.5 214q0 69 21.5 133.5t63.5 119t111.5 87.5t157.5 33q143 0 218 -77l2 -141l-91 -9l-6 90q-54 39 -135 39q-104 0 -166 -70t-62 -193q0 -211 191 -211q75 0 128 28l26 97
l88 -9z" />
    <glyph glyph-name="uni010B" unicode="&#x10b;" horiz-adv-x="439" 
d="M233 539l12 118h107l-12 -118h-107zM267 375q-54 0 -84 -49.5t-30 -129.5q0 -124 86 -124q40 0 63 26t39 80l83 -17q-16 -72 -65.5 -121.5t-135.5 -49.5t-133.5 53t-47.5 148q0 49 13 95t39 85t71.5 63t103.5 24q88 0 153 -41l5 -126l-86 -9l-7 78q-28 15 -67 15z" />
    <glyph glyph-name="uni010C" unicode="&#x10c;" horiz-adv-x="622" 
d="M396 691l-119 100l28 45l120 -62l126 63l21 -46l-140 -100h-36zM586 62q-36 -32 -102 -52t-131 -20q-134 0 -209.5 83t-75.5 214q0 69 21.5 133.5t63.5 119t111.5 87.5t157.5 33q143 0 218 -77l2 -141l-91 -9l-6 90q-54 39 -135 39q-104 0 -166 -70t-62 -193
q0 -211 191 -211q75 0 128 28l26 97l88 -9z" />
    <glyph glyph-name="uni010D" unicode="&#x10d;" horiz-adv-x="439" 
d="M257 512l-114 123l34 42l110 -75l119 77l27 -44l-140 -123h-36zM267 375q-54 0 -84 -49.5t-30 -129.5q0 -124 86 -124q40 0 63 26t39 80l83 -17q-16 -72 -65.5 -121.5t-135.5 -49.5t-133.5 53t-47.5 148q0 49 13 95t39 85t71.5 63t103.5 24q88 0 153 -41l5 -126l-86 -9
l-7 78q-28 15 -67 15z" />
    <glyph glyph-name="uni010E" unicode="&#x10e;" horiz-adv-x="678" 
d="M362 691l-119 100l28 45l120 -62l126 63l21 -46l-140 -100h-36zM20 0l10 95h73l48 460h-73l10 95h285q142 0 216.5 -77t74.5 -211q0 -159 -97 -260.5t-256 -101.5h-291zM313 95q112 0 174.5 68t62.5 189q0 203 -189 203h-105l-48 -460h105z" />
    <glyph glyph-name="uni010F" unicode="&#x10f;" horiz-adv-x="528" 
d="M320 664l27 24h169l-74 -606h64l-7 -60l-27 -22h-127v97q-58 -107 -159 -107q-71 0 -108.5 52.5t-37.5 135.5q0 66 21 127.5t71 107t120 45.5q90 0 124 -69l27 217h-90zM681 681l-54 -224h-81l36 224h99zM268 375q-57 0 -87 -54t-30 -130q0 -119 75 -119q45 0 81 41
t46 90l8 65q1 48 -26 77.5t-67 29.5z" />
    <glyph glyph-name="uni0110" unicode="&#x110;" horiz-adv-x="680" 
d="M60 384h77l18 171h-73l10 95h285q142 0 216.5 -77t74.5 -211q0 -159 -97 -260.5t-256 -101.5h-291l10 95h73l21 205h-78zM317 95q112 0 174.5 68t62.5 189q0 203 -189 203h-105l-18 -171h119l-9 -84h-119l-21 -205h105z" />
    <glyph glyph-name="uni0111" unicode="&#x111;" horiz-adv-x="517" 
d="M320 664l27 24h169l-16 -126h63l-6 -35l-30 -27h-34l-51 -418h64l-7 -60l-27 -22h-127v97q-58 -107 -159 -107q-71 0 -108.5 52.5t-37.5 135.5q0 66 21 127.5t71 107t120 45.5q90 0 124 -69l14 111h-166l4 35l30 27h139l6 44h-90zM268 375q-57 0 -87 -54t-30 -130
q0 -119 75 -119q45 0 81 41t46 90l8 65q1 48 -26 77.5t-67 29.5z" />
    <glyph glyph-name="uni0112" unicode="&#x112;" horiz-adv-x="570" 
d="M232 808h291l-9 -82h-290zM501 0h-481l9 95h74l48 460h-73l10 95h476v-188l-92 -8l-9 101h-206l-19 -180h283l-10 -95h-283l-19 -185h211l30 101l90 -8z" />
    <glyph glyph-name="uni0113" unicode="&#x113;" horiz-adv-x="441" 
d="M175 629h254l-9 -82h-254zM242 72q72 0 99 80l83 -17q-12 -61 -64.5 -103t-133.5 -42q-85 0 -135.5 50.5t-50.5 148.5q0 114 65 191.5t172 77.5q68 0 112 -33t44 -86t-37 -87t-123 -52q-47 -11 -121 -19q2 -54 23 -81.5t67 -27.5zM222 256q61 12 82 31t21 45q0 51 -61 51
q-49 0 -75 -39t-34 -99q3 0 67 11z" />
    <glyph glyph-name="uni0114" unicode="&#x114;" horiz-adv-x="570" 
d="M429 827h84q-14 -131 -145 -131q-63 0 -93 33t-23 98h84q-8 -65 39 -65q46 0 54 65zM501 0h-481l9 95h74l48 460h-73l10 95h476v-188l-92 -8l-9 101h-206l-19 -180h283l-10 -95h-283l-19 -185h211l30 101l90 -8z" />
    <glyph glyph-name="uni0115" unicode="&#x115;" horiz-adv-x="441" 
d="M351 654h84q-15 -132 -147 -132q-62 0 -91.5 33.5t-22.5 98.5h84q-6 -66 39 -66q46 0 54 66zM242 72q72 0 99 80l83 -17q-12 -61 -64.5 -103t-133.5 -42q-85 0 -135.5 50.5t-50.5 148.5q0 114 65 191.5t172 77.5q68 0 112 -33t44 -86t-37 -87t-123 -52q-47 -11 -121 -19
q2 -54 23 -81.5t67 -27.5zM222 256q61 12 82 31t21 45q0 51 -61 51q-49 0 -75 -39t-34 -99q3 0 67 11z" />
    <glyph glyph-name="uni0116" unicode="&#x116;" horiz-adv-x="570" 
d="M314 710l12 115h109l-12 -115h-109zM501 0h-481l9 95h74l48 460h-73l10 95h476v-188l-92 -8l-9 101h-206l-19 -180h283l-10 -95h-283l-19 -185h211l30 101l90 -8z" />
    <glyph glyph-name="uni0117" unicode="&#x117;" horiz-adv-x="441" 
d="M231 539l12 118h107l-12 -118h-107zM242 72q72 0 99 80l83 -17q-12 -61 -64.5 -103t-133.5 -42q-85 0 -135.5 50.5t-50.5 148.5q0 114 65 191.5t172 77.5q68 0 112 -33t44 -86t-37 -87t-123 -52q-47 -11 -121 -19q2 -54 23 -81.5t67 -27.5zM222 256q61 12 82 31t21 45
q0 51 -61 51q-49 0 -75 -39t-34 -99q3 0 67 11z" />
    <glyph glyph-name="uni0118" unicode="&#x118;" horiz-adv-x="570" 
d="M501 0h-44q-59 -37 -59 -88q0 -25 11 -34.5t32 -9.5q27 0 50 13l1 -69q-38 -20 -86 -20q-46 0 -74 21t-28 62q0 38 23.5 70.5t60.5 54.5h-368l9 95h74l48 460h-73l10 95h476v-188l-92 -8l-9 101h-206l-19 -180h283l-10 -95h-283l-19 -185h211l30 101l90 -8z" />
    <glyph glyph-name="uni0119" unicode="&#x119;" horiz-adv-x="441" 
d="M330 -188q-38 -20 -86 -20q-46 0 -74 21t-28 62q0 66 69 116q-78 4 -124.5 54t-46.5 144q0 114 65 191.5t172 77.5q68 0 112 -33t44 -86t-37 -87t-123 -52q-47 -11 -121 -19q2 -54 23 -81.5t67 -27.5q72 0 99 80l83 -17q-9 -47 -43 -84t-87 -52q-58 -37 -58 -87
q0 -25 11 -34.5t32 -9.5q27 0 50 13zM222 256q61 12 82 31t21 45q0 51 -61 51q-49 0 -75 -39t-34 -99q3 0 67 11z" />
    <glyph glyph-name="uni011A" unicode="&#x11a;" horiz-adv-x="570" 
d="M344 691l-119 100l28 45l120 -62l126 63l21 -46l-140 -100h-36zM501 0h-481l9 95h74l48 460h-73l10 95h476v-188l-92 -8l-9 101h-206l-19 -180h283l-10 -95h-283l-19 -185h211l30 101l90 -8z" />
    <glyph glyph-name="uni011B" unicode="&#x11b;" horiz-adv-x="441" 
d="M268 512l-114 123l34 42l110 -75l119 77l27 -44l-140 -123h-36zM242 72q72 0 99 80l83 -17q-12 -61 -64.5 -103t-133.5 -42q-85 0 -135.5 50.5t-50.5 148.5q0 114 65 191.5t172 77.5q68 0 112 -33t44 -86t-37 -87t-123 -52q-47 -11 -121 -19q2 -54 23 -81.5t67 -27.5z
M222 256q61 12 82 31t21 45q0 51 -61 51q-49 0 -75 -39t-34 -99q3 0 67 11z" />
    <glyph glyph-name="uni011C" unicode="&#x11c;" horiz-adv-x="663" 
d="M442 837l118 -100l-28 -46l-120 61l-125 -61l-22 45l141 101h36zM669 255h-39l-26 -255h-84l-3 74q-71 -84 -192 -84q-120 0 -190.5 83t-70.5 215q0 156 95.5 264t258.5 108q72 0 133.5 -22t92.5 -55l3 -134l-89 -9l-10 82q-54 40 -140 40q-101 0 -165 -71.5t-64 -193.5
q0 -103 46.5 -156t128.5 -53q71 0 113.5 38.5t51.5 102.5l3 26h-136l11 95h282z" />
    <glyph glyph-name="uni011D" unicode="&#x11d;" horiz-adv-x="521" 
d="M319 679l116 -126l-35 -41l-111 76l-118 -76l-29 41l142 126h35zM373 449h150l-7 -61l-27 -22h-40l-43 -349q-13 -108 -69 -173.5t-165 -65.5q-70 0 -121.5 34.5t-64.5 103.5l74 40q14 -45 45.5 -67t73.5 -22q107 0 125 151l8 70q-56 -98 -153 -98q-71 0 -108.5 52.5
t-37.5 135.5q0 66 21 127.5t71 107t120 45.5q98 0 128 -80zM240 375q-57 0 -86.5 -54.5t-29.5 -130.5q0 -118 74 -118q44 0 80.5 39.5t47.5 87.5l6 53q6 55 -21 89t-71 34z" />
    <glyph glyph-name="uni011E" unicode="&#x11e;" horiz-adv-x="663" 
d="M468 827h84q-14 -131 -145 -131q-63 0 -93 33t-23 98h84q-8 -65 39 -65q46 0 54 65zM669 255h-39l-26 -255h-84l-3 74q-71 -84 -192 -84q-120 0 -190.5 83t-70.5 215q0 156 95.5 264t258.5 108q72 0 133.5 -22t92.5 -55l3 -134l-89 -9l-10 82q-54 40 -140 40
q-101 0 -165 -71.5t-64 -193.5q0 -103 46.5 -156t128.5 -53q71 0 113.5 38.5t51.5 102.5l3 26h-136l11 95h282z" />
    <glyph glyph-name="uni011F" unicode="&#x11f;" horiz-adv-x="521" 
d="M348 654h84q-15 -132 -147 -132q-61 0 -91 33.5t-23 98.5h84q-6 -66 39 -66q46 0 54 66zM373 449h150l-7 -61l-27 -22h-40l-43 -349q-13 -108 -69 -173.5t-165 -65.5q-70 0 -121.5 34.5t-64.5 103.5l74 40q14 -45 45.5 -67t73.5 -22q107 0 125 151l8 70q-56 -98 -153 -98
q-71 0 -108.5 52.5t-37.5 135.5q0 66 21 127.5t71 107t120 45.5q98 0 128 -80zM240 375q-57 0 -86.5 -54.5t-29.5 -130.5q0 -118 74 -118q44 0 80.5 39.5t47.5 87.5l6 53q6 55 -21 89t-71 34z" />
    <glyph glyph-name="uni0120" unicode="&#x120;" horiz-adv-x="663" 
d="M358 710l12 115h109l-12 -115h-109zM669 255h-39l-26 -255h-84l-3 74q-71 -84 -192 -84q-120 0 -190.5 83t-70.5 215q0 156 95.5 264t258.5 108q72 0 133.5 -22t92.5 -55l3 -134l-89 -9l-10 82q-54 40 -140 40q-101 0 -165 -71.5t-64 -193.5q0 -103 46.5 -156t128.5 -53
q71 0 113.5 38.5t51.5 102.5l3 26h-136l11 95h282z" />
    <glyph glyph-name="uni0121" unicode="&#x121;" horiz-adv-x="521" 
d="M236 539l12 118h107l-12 -118h-107zM373 449h150l-7 -61l-27 -22h-40l-43 -349q-13 -108 -69 -173.5t-165 -65.5q-70 0 -121.5 34.5t-64.5 103.5l74 40q14 -45 45.5 -67t73.5 -22q107 0 125 151l8 70q-56 -98 -153 -98q-71 0 -108.5 52.5t-37.5 135.5q0 66 21 127.5
t71 107t120 45.5q98 0 128 -80zM240 375q-57 0 -86.5 -54.5t-29.5 -130.5q0 -118 74 -118q44 0 80.5 39.5t47.5 87.5l6 53q6 55 -21 89t-71 34z" />
    <glyph glyph-name="uni0122" unicode="&#x122;" horiz-adv-x="663" 
d="M669 255h-39l-26 -255h-84l-3 74q-71 -84 -192 -84q-120 0 -190.5 83t-70.5 215q0 156 95.5 264t258.5 108q72 0 133.5 -22t92.5 -55l3 -134l-89 -9l-10 82q-54 40 -140 40q-101 0 -165 -71.5t-64 -193.5q0 -103 46.5 -156t128.5 -53q71 0 113.5 38.5t51.5 102.5l3 26
h-136l11 95h282zM393 -60l-39 -155h-81l21 155h99z" />
    <glyph glyph-name="uni0123" unicode="&#x123;" horiz-adv-x="521" 
d="M233 540l39 155h81l-21 -155h-99zM373 449h150l-7 -61l-27 -22h-40l-43 -349q-13 -108 -69 -173.5t-165 -65.5q-70 0 -121.5 34.5t-64.5 103.5l74 40q14 -45 45.5 -67t73.5 -22q107 0 125 151l8 70q-56 -98 -153 -98q-71 0 -108.5 52.5t-37.5 135.5q0 66 21 127.5t71 107
t120 45.5q98 0 128 -80zM240 375q-57 0 -86.5 -54.5t-29.5 -130.5q0 -118 74 -118q44 0 80.5 39.5t47.5 87.5l6 53q6 55 -21 89t-71 34z" />
    <glyph glyph-name="uni0124" unicode="&#x124;" horiz-adv-x="732" 
d="M455 837l118 -100l-28 -46l-120 61l-125 -61l-22 45l141 101h36zM30 95h72l48 460h-72l10 95h251l-11 -95h-72l-19 -178h297l19 178h-72l11 95h250l-10 -95h-72l-48 -460h72l-10 -95h-250l10 95h71l19 188h-297l-19 -188h72l-9 -95h-251z" />
    <glyph glyph-name="uni0125" unicode="&#x125;" horiz-adv-x="516" 
d="M201 875l116 -126l-35 -41l-111 76l-118 -76l-29 41l142 126h35zM56 664l28 24h142l-39 -318q51 88 143 88q66 0 103 -41t27 -120l-26 -215h64l-7 -60l-27 -22h-142l32 258q14 117 -71 117q-44 0 -71.5 -29t-36.5 -76l-33 -270h-102l74 606h-65z" />
    <glyph glyph-name="uni0126" unicode="&#x126;" horiz-adv-x="733" 
d="M436 95h71l19 188h-297l-19 -188h72l-9 -95h-251l10 95h72l36 343h-74l7 66h74l5 51h-72l10 95h251l-11 -95h-72l-5 -51h297l5 51h-72l11 95h250l-10 -95h-72l-5 -51h74l-7 -66h-74l-36 -343h72l-10 -95h-250zM239 377h297l7 61h-297z" />
    <glyph glyph-name="uni0127" unicode="&#x127;" horiz-adv-x="516" 
d="M55 664l28 24h142l-16 -126h153l-7 -35l-30 -27h-123l-16 -130q51 88 143 88q66 0 103 -41t27 -120l-26 -215h64l-7 -60l-27 -22h-142l32 258q14 117 -71 117q-44 0 -71.5 -29t-36.5 -76l-33 -270h-102l61 500h-78l5 35l29 27h51l6 44h-65z" />
    <glyph glyph-name="uni0128" unicode="&#x128;" horiz-adv-x="328" 
d="M120 701l-41 15q4 33 28.5 66t64.5 33q23 0 58 -16.5t53 -16.5q35 0 51 40l45 -10q-17 -108 -91 -108q-25 0 -62 16t-58 16q-33 0 -48 -35zM30 95h72l48 460h-72l10 95h250l-10 -95h-72l-48 -460h72l-10 -95h-250z" />
    <glyph glyph-name="uni0129" unicode="&#x129;" horiz-adv-x="267" 
d="M70 528l-42 14q4 36 29.5 73.5t65.5 37.5q22 0 57 -19t54 -19q33 0 50 42l45 -10q-18 -116 -91 -116q-27 0 -63.5 20t-53.5 20q-34 0 -51 -43zM48 425l27 24h146l-44 -367h63l-7 -60l-27 -22h-142l45 366h-69z" />
    <glyph glyph-name="uni012A" unicode="&#x12a;" horiz-adv-x="328" 
d="M86 808h291l-9 -82h-290zM30 95h72l48 460h-72l10 95h250l-10 -95h-72l-48 -460h72l-10 -95h-250z" />
    <glyph glyph-name="uni012B" unicode="&#x12b;" horiz-adv-x="267" 
d="M55 629h254l-9 -82h-254zM57 425l27 24h146l-44 -367h63l-7 -60l-27 -22h-142l45 366h-69z" />
    <glyph glyph-name="uni012C" unicode="&#x12c;" horiz-adv-x="328" 
d="M274 827h84q-14 -131 -145 -131q-63 0 -93 33t-23 98h84q-8 -65 39 -65q46 0 54 65zM30 95h72l48 460h-72l10 95h250l-10 -95h-72l-48 -460h72l-10 -95h-250z" />
    <glyph glyph-name="uni012D" unicode="&#x12d;" horiz-adv-x="267" 
d="M247 654h84q-15 -132 -147 -132q-62 0 -91.5 33.5t-22.5 98.5h84q-6 -66 39 -66q46 0 54 66zM60 425l27 24h146l-44 -367h63l-7 -60l-27 -22h-142l45 366h-69z" />
    <glyph glyph-name="uni012E" unicode="&#x12e;" horiz-adv-x="329" 
d="M219 -188q-38 -20 -86 -20q-46 0 -74 21t-28 62q0 38 23.5 70.5t60.5 54.5h-93l10 95h72l48 460h-72l10 95h250l-10 -95h-72l-48 -460h72l-10 -95h-88q-59 -37 -59 -88q0 -25 11 -34.5t32 -9.5q27 0 50 13z" />
    <glyph glyph-name="uni012F" unicode="&#x12f;" horiz-adv-x="267" 
d="M125 542l13 118h102l-12 -118h-103zM206 -188q-38 -20 -86 -20q-46 0 -74 21t-28 62q0 38 23.5 70.5t60.5 54.5h-43l45 366h-69l8 59l27 24h146l-45 -367h64l-7 -60l-27 -22h-30q-59 -37 -59 -88q0 -25 11 -34.5t32 -9.5q27 0 50 13z" />
    <glyph glyph-name="uni0130" unicode="&#x130;" horiz-adv-x="328" 
d="M165 710l12 115h109l-12 -115h-109zM30 95h72l48 460h-72l10 95h250l-10 -95h-72l-48 -460h72l-10 -95h-250z" />
    <glyph glyph-name="uni0131" unicode="&#x131;" horiz-adv-x="267" 
d="M60 425l27 24h146l-44 -367h63l-7 -60l-27 -22h-142l45 366h-69z" />
    <glyph glyph-name="uni0132" unicode="&#x132;" horiz-adv-x="784" 
d="M517 650h285l-10 -95h-62l-40 -377q-10 -92 -62.5 -140t-136.5 -48q-127 0 -163 114l81 59q22 -70 83 -70q82 0 91 84l40 378h-116zM30 95h72l48 460h-72l10 95h250l-10 -95h-72l-48 -460h72l-10 -95h-250z" />
    <glyph glyph-name="uni0133" unicode="&#x133;" horiz-adv-x="517" 
d="M410 542l12 118h103l-12 -118h-103zM142 542l13 118h102l-12 -118h-103zM317 425l27 24h161l-55 -446q-29 -224 -150 -225q-48 -1 -92 25l4 71q57 -22 90 3t46 126l45 363h-84zM60 425l27 24h146l-44 -367h63l-7 -60l-27 -22h-142l45 366h-69z" />
    <glyph glyph-name="uni0134" unicode="&#x134;" horiz-adv-x="456" 
d="M348 837l118 -100l-28 -46l-120 61l-125 -61l-22 45l141 101h36zM169 650h285l-10 -95h-62l-40 -377q-10 -92 -62.5 -140t-136.5 -48q-127 0 -163 114l81 59q22 -70 83 -70q82 0 91 84l40 378h-116z" />
    <glyph glyph-name="uni0135" unicode="&#x135;" horiz-adv-x="252" 
d="M103 679l116 -126l-35 -41l-111 76l-118 -76l-29 41l142 126h35zM-57 425l27 24h161l-55 -446q-13 -105 -50.5 -164.5t-100.5 -60.5q-47 -1 -91 25l4 71q56 -23 89.5 2.5t46.5 126.5l44 363h-83z" />
    <glyph glyph-name="uni0136" unicode="&#x136;" horiz-adv-x="638" 
d="M366 95h64l-115 189h-87l-20 -189h60l-10 -95h-238l10 95h72l48 460h-72l10 95h241l-10 -95h-63l-19 -180h89l148 180h-61l10 95h245l-10 -95h-70l-185 -215l151 -245h67l-10 -95h-255zM352 -60l-39 -155h-81l21 155h99z" />
    <glyph glyph-name="uni0137" unicode="&#x137;" horiz-adv-x="461" 
d="M72 664l28 24h142l-51 -421h65q80 81 91 182h104q-1 -60 -37 -117t-98 -99l82 -151h67l-8 -60l-26 -22h-95l-104 195h-50l-24 -195h-102l74 606h-65zM290 -60l-39 -155h-81l21 155h99z" />
    <glyph glyph-name="uni0139" unicode="&#x139;" horiz-adv-x="532" 
d="M362 727l-215 -33l-12 49l204 83zM486 0h-468l10 95h73l48 460h-73l10 95h277l-10 -95h-97l-48 -460h197l33 135l90 -8z" />
    <glyph glyph-name="uni013A" unicode="&#x13a;" horiz-adv-x="250" 
d="M334 749l-215 -33l-12 49l204 83zM84 664l27 24h146l-74 -606h64l-7 -60l-27 -22h-143l74 606h-68z" />
    <glyph glyph-name="uni013B" unicode="&#x13b;" horiz-adv-x="532" 
d="M486 0h-468l10 95h73l48 460h-73l10 95h277l-10 -95h-97l-48 -460h197l33 135l90 -8zM309 -60l-39 -155h-81l21 155h99z" />
    <glyph glyph-name="uni013C" unicode="&#x13c;" horiz-adv-x="250" 
d="M78 664l27 24h146l-74 -606h64l-7 -60l-27 -22h-143l74 606h-68zM178 -60l-39 -155h-81l21 155h99z" />
    <glyph glyph-name="uni013D" unicode="&#x13d;" horiz-adv-x="533" 
d="M518 681l-54 -224h-81l36 224h99zM486 0h-468l10 95h73l48 460h-73l10 95h277l-10 -95h-97l-48 -460h197l33 135l90 -8z" />
    <glyph glyph-name="uni013E" unicode="&#x13e;" horiz-adv-x="262" 
d="M84 664l27 24h146l-74 -606h64l-7 -60l-27 -22h-143l74 606h-68zM423 681l-54 -224h-81l36 224h99z" />
    <glyph glyph-name="uni013F" unicode="&#x13f;" horiz-adv-x="532" 
d="M486 0h-468l10 95h73l48 460h-73l10 95h277l-10 -95h-97l-48 -460h197l33 135l90 -8zM313 279l12 118h107l-12 -118h-107z" />
    <glyph glyph-name="uni0140" unicode="&#x140;" horiz-adv-x="342" 
d="M84 664l27 24h146l-74 -606h64l-7 -60l-27 -22h-143l74 606h-68zM259 279l12 118h107l-12 -118h-107z" />
    <glyph glyph-name="uni0141" unicode="&#x141;" horiz-adv-x="534" 
d="M490 0h-468l10 95h73l17 168l-83 -28l9 84l83 28l22 208h-73l10 95h277l-10 -95h-97l-18 -171l145 50l-8 -84l-146 -49l-21 -206h197l33 135l90 -8z" />
    <glyph glyph-name="uni0142" unicode="&#x142;" horiz-adv-x="275" 
d="M33 320l77 35l31 251h-68l8 58l27 24h146l-35 -284l78 35l-9 -85l-79 -36l-29 -236h64l-7 -60l-27 -22h-143l33 270l-76 -34z" />
    <glyph glyph-name="uni0143" unicode="&#x143;" horiz-adv-x="725" 
d="M579 727l-215 -33l-12 49l204 83zM38 95h70l48 460h-80l10 95h156l288 -430h3l35 335h-92l10 95h264l-10 -95h-72l-58 -555l-62 -1l-300 451h-3l-37 -355h92l-10 -95h-262z" />
    <glyph glyph-name="uni0144" unicode="&#x144;" horiz-adv-x="534" 
d="M505 609l-195 -97l-25 43l170 138zM83 449h129l3 -87q51 96 147 96q66 0 103 -41t27 -120l-26 -215h65l-8 -60l-27 -22h-142l32 258q7 62 -10.5 89.5t-60.5 27.5q-47 0 -75 -33t-34 -85v1l-32 -258h-102l45 366h-69l7 59z" />
    <glyph glyph-name="uni0145" unicode="&#x145;" horiz-adv-x="725" 
d="M38 95h70l48 460h-80l10 95h156l288 -430h3l35 335h-92l10 95h264l-10 -95h-72l-58 -555l-62 -1l-300 451h-3l-37 -355h92l-10 -95h-262zM405 -60l-39 -155h-81l21 155h99z" />
    <glyph glyph-name="uni0146" unicode="&#x146;" horiz-adv-x="534" 
d="M83 449h129l3 -87q51 96 147 96q66 0 103 -41t27 -120l-26 -215h65l-8 -60l-27 -22h-142l32 258q7 62 -10.5 89.5t-60.5 27.5q-47 0 -75 -33t-34 -85v1l-32 -258h-102l45 366h-69l7 59zM311 -60l-39 -155h-81l21 155h99z" />
    <glyph glyph-name="uni0147" unicode="&#x147;" horiz-adv-x="725" 
d="M398 691l-119 100l28 45l120 -62l126 63l21 -46l-140 -100h-36zM486 650h264l-10 -95h-72l-58 -555l-62 -1l-300 451h-3l-37 -355h92l-10 -95h-262l10 95h70l48 460h-80l10 95h156l288 -430h3l35 335h-92z" />
    <glyph glyph-name="uni0148" unicode="&#x148;" horiz-adv-x="534" 
d="M311 512l-114 123l34 42l110 -75l119 77l27 -44l-140 -123h-36zM83 449h129l3 -87q51 96 147 96q66 0 103 -41t27 -120l-26 -215h65l-8 -60l-27 -22h-142l32 258q7 62 -10.5 89.5t-60.5 27.5q-47 0 -75 -33t-34 -85v1l-32 -258h-102l45 366h-69l7 59z" />
    <glyph glyph-name="uni0149" unicode="&#x149;" horiz-adv-x="534" 
d="M57 505l74 208h93l-73 -208h-94zM83 449h129l3 -87q51 96 147 96q66 0 103 -41t27 -120l-26 -215h65l-8 -60l-27 -22h-142l32 258q7 62 -10.5 89.5t-60.5 27.5q-47 0 -75 -33t-34 -85v1l-32 -258h-102l45 366h-69l7 59z" />
    <glyph glyph-name="uni014A" unicode="&#x14a;" horiz-adv-x="725" 
d="M288 0h-262l10 95h71l48 460h-80l10 95h156l288 -430h3l34 335h-91l10 95h264l-10 -95h-72l-60 -574q-8 -90 -61.5 -139t-140.5 -49q-129 0 -167 114l83 59q23 -70 84 -70q43 0 66.5 23t26.5 61l8 78l-259 392h-3l-38 -355h92z" />
    <glyph glyph-name="uni014B" unicode="&#x14b;" horiz-adv-x="519" 
d="M55 425l28 24h129l3 -87q51 96 147 96q66 0 103 -41t27 -120l-37 -309q-25 -210 -150 -210q-49 0 -91 25l5 71q34 -13 60 -14.5t45 29t28 99.5l34 270q7 62 -10.5 89.5t-60.5 27.5q-47 0 -75 -33t-34 -85v1l-32 -258h-102l45 366h-69z" />
    <glyph glyph-name="uni014C" unicode="&#x14c;" horiz-adv-x="695" 
d="M303 808h291l-9 -82h-290zM420 660q131 0 209 -86t78 -214q0 -153 -102 -261.5t-255 -108.5q-132 0 -208 86t-76 214q0 155 102 262.5t252 107.5zM366 88q105 0 165 77.5t60 186.5q0 97 -49 153.5t-134 56.5q-101 0 -163.5 -76t-62.5 -186q0 -90 46 -151t138 -61z" />
    <glyph glyph-name="uni014D" unicode="&#x14d;" horiz-adv-x="483" 
d="M184 629h254l-9 -82h-254zM44 192q0 111 62 188.5t176 77.5q97 0 144 -56.5t47 -150.5q0 -115 -66 -188t-175 -73q-91 0 -139.5 53.5t-48.5 148.5zM155 200q0 -62 19.5 -95t67.5 -33q62 0 91.5 49.5t29.5 126.5q0 64 -21.5 95.5t-70.5 31.5q-116 0 -116 -175z" />
    <glyph glyph-name="uni014E" unicode="&#x14e;" horiz-adv-x="695" 
d="M497 827h84q-14 -131 -145 -131q-63 0 -93 33t-23 98h84q-8 -65 39 -65q46 0 54 65zM420 660q131 0 209 -86t78 -214q0 -153 -102 -261.5t-255 -108.5q-132 0 -208 86t-76 214q0 155 102 262.5t252 107.5zM366 88q105 0 165 77.5t60 186.5q0 97 -49 153.5t-134 56.5
q-101 0 -163.5 -76t-62.5 -186q0 -90 46 -151t138 -61z" />
    <glyph glyph-name="uni014F" unicode="&#x14f;" horiz-adv-x="483" 
d="M349 654h84q-15 -132 -147 -132q-62 0 -91.5 33.5t-22.5 98.5h84q-6 -66 39 -66q46 0 54 66zM44 192q0 111 62 188.5t176 77.5q97 0 144 -56.5t47 -150.5q0 -115 -66 -188t-175 -73q-91 0 -139.5 53.5t-48.5 148.5zM155 200q0 -62 19.5 -95t67.5 -33q62 0 91.5 49.5
t29.5 126.5q0 64 -21.5 95.5t-70.5 31.5q-116 0 -116 -175z" />
    <glyph glyph-name="uni0150" unicode="&#x150;" horiz-adv-x="695" 
d="M534 826l-175 -133l-32 35l146 169zM674 727l-204 -33l-12 49l194 80zM420 660q131 0 209 -86t78 -214q0 -153 -102 -261.5t-255 -108.5q-132 0 -208 86t-76 214q0 155 102 262.5t252 107.5zM366 88q105 0 165 77.5t60 186.5q0 97 -49 153.5t-134 56.5q-101 0 -163.5 -76
t-62.5 -186q0 -90 46 -151t138 -61z" />
    <glyph glyph-name="uni0151" unicode="&#x151;" horiz-adv-x="482" 
d="M381 668l-155 -156l-38 30l118 185zM533 609l-193 -97l-25 43l171 138zM44 192q0 111 62 188.5t176 77.5q97 0 144 -56.5t47 -150.5q0 -115 -66 -188t-175 -73q-91 0 -139.5 53.5t-48.5 148.5zM155 200q0 -62 19.5 -95t67.5 -33q62 0 91.5 49.5t29.5 126.5
q0 64 -21.5 95.5t-70.5 31.5q-116 0 -116 -175z" />
    <glyph glyph-name="uni0152" unicode="&#x152;" horiz-adv-x="978" 
d="M941 0h-426l3 33q-70 -43 -160 -43q-135 0 -213.5 89t-78.5 220q0 153 102 257t257 104q87 0 154 -44l4 34h420v-188l-92 -8l-8 101h-221l-19 -180h281l-10 -95h-281l-19 -185h225l31 101l90 -8zM375 88q101 0 155 59l37 355q-54 60 -148 60q-112 0 -174 -74t-62 -183
q0 -94 48.5 -155.5t143.5 -61.5z" />
    <glyph glyph-name="uni0153" unicode="&#x153;" horiz-adv-x="759" 
d="M44 192q0 111 62 188.5t176 77.5q102 0 152 -68q65 68 163 68q68 0 112 -33t44 -86t-37 -87t-123 -52q-47 -11 -121 -19q2 -54 23 -81.5t67 -27.5q72 0 99 80l83 -17q-12 -61 -64.5 -103t-133.5 -42q-100 0 -148 64q-64 -64 -166 -64q-91 0 -139.5 53.5t-48.5 148.5z
M542 256q61 12 82 31t21 45q0 51 -61 51q-49 0 -75 -39t-34 -99q3 0 67 11zM155 200q0 -62 19.5 -95t67.5 -33q99 0 118 128q0 18 3 34v14q0 64 -21.5 95.5t-70.5 31.5q-116 0 -116 -175z" />
    <glyph glyph-name="uni0154" unicode="&#x154;" horiz-adv-x="608" 
d="M509 727l-215 -33l-12 49l204 83zM30 95h72l48 460h-72l10 95h276q106 0 161.5 -45.5t55.5 -128.5q0 -145 -149 -191l79 -190h77l-10 -95h-147l-101 257h-104l-17 -162h74l-10 -95h-253zM317 346q149 0 149 120q0 49 -29.5 69t-100.5 20h-79l-22 -209h82z" />
    <glyph glyph-name="uni0155" unicode="&#x155;" horiz-adv-x="352" 
d="M400 609l-195 -97l-25 43l170 138zM64 449h122l4 -115q18 53 46.5 88.5t65.5 35.5q28 0 51 -18l-17 -109q-26 15 -52 15q-34 0 -59 -24t-35 -64l-24 -176h89l-8 -58l-27 -24h-230l8 58l27 24h38l34 284h-67l7 59z" />
    <glyph glyph-name="uni0156" unicode="&#x156;" horiz-adv-x="608" 
d="M30 95h72l48 460h-72l10 95h276q106 0 161.5 -45.5t55.5 -128.5q0 -145 -149 -191l79 -190h77l-10 -95h-147l-101 257h-104l-17 -162h74l-10 -95h-253zM317 346q149 0 149 120q0 49 -29.5 69t-100.5 20h-79l-22 -209h82zM362 -60l-39 -155h-81l21 155h99z" />
    <glyph glyph-name="uni0157" unicode="&#x157;" horiz-adv-x="352" 
d="M64 449h122l4 -115q18 53 46.5 88.5t65.5 35.5q28 0 51 -18l-17 -109q-26 15 -52 15q-34 0 -59 -24t-35 -64l-24 -176h89l-8 -58l-27 -24h-230l8 58l27 24h38l34 284h-67l7 59zM141 -60l-39 -155h-81l21 155h99z" />
    <glyph glyph-name="uni0158" unicode="&#x158;" horiz-adv-x="608" 
d="M324 691l-119 100l28 45l120 -62l126 63l21 -46l-140 -100h-36zM30 95h72l48 460h-72l10 95h276q106 0 161.5 -45.5t55.5 -128.5q0 -145 -149 -191l79 -190h77l-10 -95h-147l-101 257h-104l-17 -162h74l-10 -95h-253zM317 346q149 0 149 120q0 49 -29.5 69t-100.5 20h-79
l-22 -209h82z" />
    <glyph glyph-name="uni0159" unicode="&#x159;" horiz-adv-x="352" 
d="M207 512l-114 123l34 42l110 -75l119 77l27 -44l-140 -123h-36zM64 449h122l4 -115q18 53 46.5 88.5t65.5 35.5q28 0 51 -18l-17 -109q-26 15 -52 15q-34 0 -59 -24t-35 -64l-24 -176h89l-8 -58l-27 -24h-230l8 58l27 24h38l34 284h-67l7 59z" />
    <glyph glyph-name="uni015A" unicode="&#x15a;" horiz-adv-x="532" 
d="M471 727l-215 -33l-12 49l204 83zM506 200q0 -101 -66 -155.5t-186 -54.5q-67 0 -127 16.5t-91 45.5l33 149l86 -9l-9 -80q45 -26 105 -26q67 0 102.5 24t35.5 81q0 22 -6.5 38t-14.5 25.5t-28 17t-32.5 11t-42.5 9.5q-39 8 -65.5 17.5t-55.5 27.5t-44 50t-15 76
q0 99 70.5 148t168.5 49q61 0 114.5 -18t81.5 -47l-9 -137l-88 -8l-1 84q-42 28 -102 28q-54 0 -87 -22t-33 -64q0 -40 29 -58t87 -31q34 -8 55 -14t50 -20t45 -32t28 -49t12 -72z" />
    <glyph glyph-name="uni015B" unicode="&#x15b;" horiz-adv-x="432" 
d="M411 609l-195 -97l-25 43l170 138zM200 72q40 0 62.5 14.5t22.5 41.5q0 9 -2.5 17t-10 14t-13 10t-18.5 8t-20.5 6.5t-25 7t-25.5 6.5q-54 15 -85.5 41t-31.5 79q0 70 53 105.5t128 35.5q99 0 166 -41l-1 -111l-83 -10l-2 62q-41 17 -77 17q-32 0 -54.5 -13.5
t-22.5 -37.5q0 -22 20.5 -32.5t74.5 -23.5q30 -8 48 -15t42 -21.5t36 -38.5t12 -57q0 -70 -52 -108t-134 -38q-48 0 -102.5 11.5t-88.5 32.5l28 116l82 -8l-7 -56q31 -14 81 -14z" />
    <glyph glyph-name="uni015C" unicode="&#x15c;" horiz-adv-x="532" 
d="M356 837l118 -100l-28 -46l-120 61l-125 -61l-22 45l141 101h36zM506 200q0 -101 -66 -155.5t-186 -54.5q-67 0 -127 16.5t-91 45.5l33 149l86 -9l-9 -80q45 -26 105 -26q67 0 102.5 24t35.5 81q0 22 -6.5 38t-14.5 25.5t-28 17t-32.5 11t-42.5 9.5q-39 8 -65.5 17.5
t-55.5 27.5t-44 50t-15 76q0 99 70.5 148t168.5 49q61 0 114.5 -18t81.5 -47l-9 -137l-88 -8l-1 84q-42 28 -102 28q-54 0 -87 -22t-33 -64q0 -40 29 -58t87 -31q34 -8 55 -14t50 -20t45 -32t28 -49t12 -72z" />
    <glyph glyph-name="uni015D" unicode="&#x15d;" horiz-adv-x="432" 
d="M278 679l116 -126l-35 -41l-111 76l-118 -76l-29 41l142 126h35zM200 72q40 0 62.5 14.5t22.5 41.5q0 9 -2.5 17t-10 14t-13 10t-18.5 8t-20.5 6.5t-25 7t-25.5 6.5q-54 15 -85.5 41t-31.5 79q0 70 53 105.5t128 35.5q99 0 166 -41l-1 -111l-83 -10l-2 62q-41 17 -77 17
q-32 0 -54.5 -13.5t-22.5 -37.5q0 -22 20.5 -32.5t74.5 -23.5q30 -8 48 -15t42 -21.5t36 -38.5t12 -57q0 -70 -52 -108t-134 -38q-48 0 -102.5 11.5t-88.5 32.5l28 116l82 -8l-7 -56q31 -14 81 -14z" />
    <glyph glyph-name="uni015E" unicode="&#x15e;" horiz-adv-x="532" 
d="M506 200q0 -92 -55 -145.5t-155 -62.5l-5 -35h8q41 0 60 -20t19 -53q0 -47 -38 -70t-91 -23q-71 0 -103 30l26 59q29 -23 73 -23t44 31q0 28 -42 28h-33l10 75q-133 9 -188 61l33 149l86 -9l-9 -80q45 -26 105 -26q67 0 102.5 24t35.5 81q0 22 -6.5 38t-14.5 25.5t-28 17
t-32.5 11t-42.5 9.5q-39 8 -65.5 17.5t-55.5 27.5t-44 50t-15 76q0 99 70.5 148t168.5 49q61 0 114.5 -18t81.5 -47l-9 -137l-88 -8l-1 84q-42 28 -102 28q-54 0 -87 -22t-33 -64q0 -40 29 -58t87 -31q34 -8 55 -14t50 -20t45 -32t28 -49t12 -72z" />
    <glyph glyph-name="uni015F" unicode="&#x15f;" horiz-adv-x="432" 
d="M200 72q40 0 62.5 14.5t22.5 41.5q0 9 -2.5 17t-10 14t-13 10t-18.5 8t-20.5 6.5t-25 7t-25.5 6.5q-54 15 -85.5 41t-31.5 79q0 70 53 105.5t128 35.5q99 0 166 -41l-1 -111l-83 -10l-2 62q-41 17 -77 17q-32 0 -54.5 -13.5t-22.5 -37.5q0 -22 20.5 -32.5t74.5 -23.5
q30 -8 48 -15t42 -21.5t36 -38.5t12 -57q0 -65 -45 -102t-117 -43l-5 -34h8q41 0 60 -20t19 -53q0 -47 -38 -70t-91 -23q-71 0 -103 30l26 59q29 -23 73 -23t44 31q0 28 -42 28h-33l10 77q-94 11 -143 41l28 116l82 -8l-7 -56q31 -14 81 -14z" />
    <glyph glyph-name="uni0160" unicode="&#x160;" horiz-adv-x="532" 
d="M298 691l-119 100l28 45l120 -62l126 63l21 -46l-140 -100h-36zM506 200q0 -101 -66 -155.5t-186 -54.5q-67 0 -127 16.5t-91 45.5l33 149l86 -9l-9 -80q45 -26 105 -26q67 0 102.5 24t35.5 81q0 22 -6.5 38t-14.5 25.5t-28 17t-32.5 11t-42.5 9.5q-39 8 -65.5 17.5
t-55.5 27.5t-44 50t-15 76q0 99 70.5 148t168.5 49q61 0 114.5 -18t81.5 -47l-9 -137l-88 -8l-1 84q-42 28 -102 28q-54 0 -87 -22t-33 -64q0 -40 29 -58t87 -31q34 -8 55 -14t50 -20t45 -32t28 -49t12 -72z" />
    <glyph glyph-name="uni0161" unicode="&#x161;" horiz-adv-x="432" 
d="M226 512l-114 123l34 42l110 -75l119 77l27 -44l-140 -123h-36zM200 72q40 0 62.5 14.5t22.5 41.5q0 9 -2.5 17t-10 14t-13 10t-18.5 8t-20.5 6.5t-25 7t-25.5 6.5q-54 15 -85.5 41t-31.5 79q0 70 53 105.5t128 35.5q99 0 166 -41l-1 -111l-83 -10l-2 62q-41 17 -77 17
q-32 0 -54.5 -13.5t-22.5 -37.5q0 -22 20.5 -32.5t74.5 -23.5q30 -8 48 -15t42 -21.5t36 -38.5t12 -57q0 -70 -52 -108t-134 -38q-48 0 -102.5 11.5t-88.5 32.5l28 116l82 -8l-7 -56q31 -14 81 -14z" />
    <glyph glyph-name="uni0162" unicode="&#x162;" horiz-adv-x="618" 
d="M653 438l-94 -8l-7 125h-124l-48 -460h107l-10 -95h-315l10 95h102l48 460h-124l-32 -125l-92 8l40 212h542zM358 -60l-39 -155h-81l21 155h99z" />
    <glyph glyph-name="uni0163" unicode="&#x163;" horiz-adv-x="352" 
d="M42 422l29 27h39l13 105l33 34h74l-17 -139h141l-8 -55l-29 -28h-114l-27 -223q-9 -71 39 -71q21 0 37 17t29 66l73 -25q-19 -74 -54 -107t-96 -33q-69 0 -105 38.5t-27 105.5l28 232h-66zM254 -60l-39 -155h-81l21 155h99z" />
    <glyph glyph-name="uni0164" unicode="&#x164;" horiz-adv-x="618" 
d="M365 691l-119 100l28 45l120 -62l126 63l21 -46l-140 -100h-36zM653 438l-94 -8l-7 125h-124l-48 -460h107l-10 -95h-315l10 95h102l48 460h-124l-32 -125l-92 8l40 212h542z" />
    <glyph glyph-name="uni0165" unicode="&#x165;" horiz-adv-x="352" 
d="M428 761l-54 -224h-81l36 224h99zM42 422l29 27h39l13 105l33 34h74l-17 -139h141l-8 -55l-29 -28h-114l-27 -223q-9 -71 39 -71q21 0 37 17t29 66l73 -25q-19 -74 -54 -107t-96 -33q-69 0 -105 38.5t-27 105.5l28 232h-66z" />
    <glyph glyph-name="uni0166" unicode="&#x166;" horiz-adv-x="618" 
d="M653 438l-94 -8l-7 125h-124l-23 -217h129l-7 -66h-129l-18 -177h107l-10 -95h-315l10 95h102l18 177h-136l7 66h136l23 217h-124l-32 -125l-92 8l40 212h542z" />
    <glyph glyph-name="uni0167" unicode="&#x167;" horiz-adv-x="357" 
d="M38 422l29 27h39l13 105l33 34h74l-17 -139h141l-8 -55l-29 -28h-114l-10 -80h146l-7 -34l-29 -28h-117l-10 -81q-9 -71 39 -71q21 0 37 17t29 66l73 -25q-19 -74 -54 -107t-96 -33q-69 0 -105 38.5t-27 105.5l11 90h-61l5 35l30 27h33l10 80h-66z" />
    <glyph glyph-name="uni0168" unicode="&#x168;" horiz-adv-x="692" 
d="M351 701l-41 15q4 33 28.5 66t64.5 33q23 0 58 -16.5t53 -16.5q35 0 51 40l45 -10q-17 -108 -91 -108q-25 0 -62 16t-58 16q-33 0 -48 -35zM523 650h238l-10 -95h-59l-30 -287q-6 -56 -23 -102.5t-48.5 -87.5t-85 -64.5t-124.5 -23.5q-134 0 -190.5 76t-44.5 191l31 298
h-59l10 95h244l-10 -95h-78l-31 -295q-9 -81 24 -126.5t112 -45.5q155 0 174 180l30 287h-79z" />
    <glyph glyph-name="uni0169" unicode="&#x169;" horiz-adv-x="534" 
d="M210 528l-42 14q4 36 29.5 73.5t65.5 37.5q22 0 57 -19t54 -19q33 0 50 42l45 -10q-18 -116 -91 -116q-27 0 -63.5 20t-53.5 20q-34 0 -51 -43zM518 82l-7 -58l-28 -24h-129l-3 86q-50 -95 -146 -95q-66 0 -103 41t-27 120l26 214h-65l8 61l26 22h143l-32 -258
q-8 -62 10 -90t61 -28q44 0 71 30t36 78l33 268h102l-44 -367h68z" />
    <glyph glyph-name="uni016A" unicode="&#x16a;" horiz-adv-x="692" 
d="M326 808h291l-9 -82h-290zM523 650h238l-10 -95h-59l-30 -287q-6 -56 -23 -102.5t-48.5 -87.5t-85 -64.5t-124.5 -23.5q-134 0 -190.5 76t-44.5 191l31 298h-59l10 95h244l-10 -95h-78l-31 -295q-9 -81 24 -126.5t112 -45.5q155 0 174 180l30 287h-79z" />
    <glyph glyph-name="uni016B" unicode="&#x16b;" horiz-adv-x="534" 
d="M193 629h254l-9 -82h-254zM518 82l-7 -58l-28 -24h-129l-3 86q-50 -95 -146 -95q-66 0 -103 41t-27 120l26 214h-65l8 61l26 22h143l-32 -258q-8 -62 10 -90t61 -28q44 0 71 30t36 78l33 268h102l-44 -367h68z" />
    <glyph glyph-name="uni016C" unicode="&#x16c;" horiz-adv-x="692" 
d="M512 827h84q-14 -131 -145 -131q-63 0 -93 33t-23 98h84q-8 -65 39 -65q46 0 54 65zM523 650h238l-10 -95h-59l-30 -287q-6 -56 -23 -102.5t-48.5 -87.5t-85 -64.5t-124.5 -23.5q-134 0 -190.5 76t-44.5 191l31 298h-59l10 95h244l-10 -95h-78l-31 -295q-9 -81 24 -126.5
t112 -45.5q155 0 174 180l30 287h-79z" />
    <glyph glyph-name="uni016D" unicode="&#x16d;" horiz-adv-x="534" 
d="M362 654h84q-15 -132 -147 -132q-61 0 -91 33.5t-23 98.5h84q-6 -66 39 -66q46 0 54 66zM518 82l-7 -58l-28 -24h-129l-3 86q-50 -95 -146 -95q-66 0 -103 41t-27 120l26 214h-65l8 61l26 22h143l-32 -258q-8 -62 10 -90t61 -28q44 0 71 30t36 78l33 268h102l-44 -367h68
z" />
    <glyph glyph-name="uni016E" unicode="&#x16e;" horiz-adv-x="692" 
d="M452 689q-91 0 -91 82q0 46 29.5 74t82.5 28q91 0 91 -81q0 -44 -29 -73.5t-83 -29.5zM458 742q39 0 39 47q0 32 -30 32q-38 0 -38 -48q0 -31 29 -31zM523 650h238l-10 -95h-59l-30 -287q-6 -56 -23 -102.5t-48.5 -87.5t-85 -64.5t-124.5 -23.5q-134 0 -190.5 76
t-44.5 191l31 298h-59l10 95h244l-10 -95h-78l-31 -295q-9 -81 24 -126.5t112 -45.5q155 0 174 180l30 287h-79z" />
    <glyph glyph-name="uni016F" unicode="&#x16f;" horiz-adv-x="534" 
d="M306 514q-91 0 -91 82q0 46 29.5 74t82.5 28q45 0 68 -21.5t23 -59.5q0 -44 -29 -73.5t-83 -29.5zM311 566q40 0 40 47q0 33 -30 33q-38 0 -38 -47q0 -33 28 -33zM518 82l-7 -58l-28 -24h-129l-3 86q-50 -95 -146 -95q-66 0 -103 41t-27 120l26 214h-65l8 61l26 22h143
l-32 -258q-8 -62 10 -90t61 -28q44 0 71 30t36 78l33 268h102l-44 -367h68z" />
    <glyph glyph-name="uni0170" unicode="&#x170;" horiz-adv-x="692" 
d="M539 826l-175 -133l-32 35l146 169zM679 727l-204 -33l-12 49l194 80zM523 650h238l-10 -95h-59l-30 -287q-6 -56 -23 -102.5t-48.5 -87.5t-85 -64.5t-124.5 -23.5q-134 0 -190.5 76t-44.5 191l31 298h-59l10 95h244l-10 -95h-78l-31 -295q-9 -81 24 -126.5t112 -45.5
q155 0 174 180l30 287h-79z" />
    <glyph glyph-name="uni0171" unicode="&#x171;" horiz-adv-x="534" 
d="M384 668l-155 -156l-38 30l118 185zM536 609l-193 -97l-25 43l171 138zM518 82l-7 -58l-28 -24h-129l-3 86q-50 -95 -146 -95q-66 0 -103 41t-27 120l26 214h-65l8 61l26 22h143l-32 -258q-8 -62 10 -90t61 -28q44 0 71 30t36 78l33 268h102l-44 -367h68z" />
    <glyph glyph-name="uni0172" unicode="&#x172;" horiz-adv-x="693" 
d="M128 650h244l-10 -95h-78l-31 -295q-9 -81 24 -126.5t112 -45.5q155 0 174 180l30 287h-79l9 95h238l-10 -95h-59l-30 -287q-5 -48 -18.5 -90t-37.5 -80t-64 -64.5t-93 -36.5q-54 -35 -54 -85q0 -25 11 -34.5t32 -9.5q27 0 50 13l1 -69q-38 -20 -86 -20q-46 0 -74 21
t-28 62q0 67 68 115q-128 4 -181.5 79t-41.5 188l31 298h-59z" />
    <glyph glyph-name="uni0173" unicode="&#x173;" horiz-adv-x="536" 
d="M356 0l-3 86q-50 -95 -146 -95q-66 0 -103 41t-27 120l26 214h-65l8 61l26 22h143l-32 -258q-8 -62 10 -90t61 -28q44 0 71 30t36 78l33 268h102l-45 -367h69l-7 -58l-28 -24h-31q-59 -37 -59 -88q0 -25 11 -34.5t32 -9.5q27 0 50 13l1 -69q-38 -20 -86 -20q-46 0 -74 21
t-28 62q0 38 23.5 70.5t60.5 54.5h-29z" />
    <glyph glyph-name="uni0174" unicode="&#x174;" horiz-adv-x="934" 
d="M580 837l118 -100l-28 -46l-120 61l-125 -61l-22 45l141 101h36zM986 555h-52l-229 -555h-78l-106 458h-4l-197 -458h-80l-123 555h-53l9 95h237l-10 -95h-70l70 -372h6l164 372h-56l10 95h238l-11 -95h-52l85 -377h6l136 377h-75l10 95h234z" />
    <glyph glyph-name="uni0175" unicode="&#x175;" horiz-adv-x="727" 
d="M437 679l116 -126l-35 -41l-111 76l-118 -76l-29 41l142 126h35zM514 123h5q52 67 74 120.5t22 110.5q0 49 -18 95h116q26 -139 -63 -266q-26 -38 -71 -91t-85 -92h-46l-69 288h-5l-151 -288h-56l-98 366h-47l8 59l27 24h198l-7 -59l-28 -24h-44l46 -216h5l149 299h63z
" />
    <glyph glyph-name="uni0176" unicode="&#x176;" horiz-adv-x="612" 
d="M418 837l118 -100l-28 -46l-120 61l-125 -61l-22 45l141 101h36zM667 555h-56l-220 -302l-16 -158h104l-10 -95h-312l10 95h101l16 158l-162 302h-58l10 95h247l-10 -95h-65l105 -204h5l144 204h-70l10 95h236z" />
    <glyph glyph-name="uni0177" unicode="&#x177;" horiz-adv-x="476" 
d="M318 679l116 -126l-35 -41l-111 76l-118 -76l-29 41l142 126h35zM256 123h6q55 68 79 122t24 111q0 48 -19 93h117q28 -136 -62 -261q-47 -66 -124 -148l-25 -171h69l-8 -58l-27 -24h-220l8 58l27 24h48l26 174l-104 323h-51l8 59l27 24h201l-7 -59l-28 -24h-40z" />
    <glyph glyph-name="uni0178" unicode="&#x178;" horiz-adv-x="612" 
d="M417 710l12 115h109l-12 -115h-109zM241 710l12 115h108l-11 -115h-109zM667 555h-56l-220 -302l-16 -158h104l-10 -95h-312l10 95h101l16 158l-162 302h-58l10 95h247l-10 -95h-65l105 -204h5l144 204h-70l10 95h236z" />
    <glyph glyph-name="uni0179" unicode="&#x179;" horiz-adv-x="565" 
d="M494 727l-215 -33l-12 49l204 83zM496 0h-493l-1 59l391 494v2h-211l-33 -113l-92 9l43 199h452l2 -53l-392 -500l-1 -2h252l36 127l92 -10z" />
    <glyph glyph-name="uni017A" unicode="&#x17a;" horiz-adv-x="450" 
d="M414 609l-195 -97l-25 43l170 138zM383 0h-372l-9 58l290 308h-155l-25 -77l-77 9l30 151h348l14 -59l-287 -308h173l30 78l82 -10z" />
    <glyph glyph-name="uni017B" unicode="&#x17b;" horiz-adv-x="565" 
d="M275 710l12 115h109l-12 -115h-109zM496 0h-493l-1 59l391 494v2h-211l-33 -113l-92 9l43 199h452l2 -53l-392 -500l-1 -2h252l36 127l92 -10z" />
    <glyph glyph-name="uni017C" unicode="&#x17c;" horiz-adv-x="450" 
d="M205 539l12 118h107l-12 -118h-107zM383 0h-372l-9 58l290 308h-155l-25 -77l-77 9l30 151h348l14 -59l-287 -308h173l30 78l82 -10z" />
    <glyph glyph-name="uni017D" unicode="&#x17d;" horiz-adv-x="565" 
d="M302 691l-119 100l28 45l120 -62l126 63l21 -46l-140 -100h-36zM496 0h-493l-1 59l391 494v2h-211l-33 -113l-92 9l43 199h452l2 -53l-392 -500l-1 -2h252l36 127l92 -10z" />
    <glyph glyph-name="uni017E" unicode="&#x17e;" horiz-adv-x="450" 
d="M235 512l-114 123l34 42l110 -75l119 77l27 -44l-140 -123h-36zM383 0h-372l-9 58l290 308h-155l-25 -77l-77 9l30 151h348l14 -59l-287 -308h173l30 78l82 -10z" />
    <glyph glyph-name="uni018F" unicode="&#x18f;" horiz-adv-x="673" 
d="M170 436l-83 10l34 158q128 56 240 56q154 0 230.5 -84t76.5 -212q0 -73 -22.5 -139.5t-65 -119.5t-110.5 -84t-152 -31q-133 0 -205.5 75.5t-60.5 209.5l9 85h488q-2 99 -54.5 149.5t-142.5 50.5q-79 0 -158 -34zM544 280h-374v-4q-1 -22 -1 -47t10.5 -50t27 -45.5
t49.5 -33t78 -12.5q96 0 146.5 53.5t63.5 138.5z" />
    <glyph glyph-name="uni0192" unicode="&#x192;" horiz-adv-x="364" 
d="M-1 282h69l16 99q12 71 62 109.5t122 38.5q39 0 66 -4l-9 -73q-33 5 -53 5q-37 0 -57.5 -17.5t-26.5 -60.5l-16 -97h103l-7 -64h-106l-32 -200q-20 -130 -162 -130q-15 0 -44 4l8 71q18 -4 36 -4q28 0 40.5 15t20.5 64l29 180h-66z" />
    <glyph glyph-name="uni01C4" unicode="&#x1c4;" horiz-adv-x="1243" 
d="M989 691l-119 100l28 45l120 -62l126 63l21 -46l-140 -100h-36zM373 650q142 0 216.5 -77t74.5 -211q0 -159 -97 -260.5t-256 -101.5h-291l10 95h73l48 460h-73l10 95h285zM1183 0h-493l-1 59l391 494v2h-211l-33 -113l-92 9l43 199h452l2 -53l-392 -500l-1 -2h252
l36 127l92 -10zM313 95q112 0 174.5 68t62.5 189q0 203 -189 203h-105l-48 -460h105z" />
    <glyph glyph-name="uni01C5" unicode="&#x1c5;" horiz-adv-x="1128" 
d="M922 512l-114 123l34 42l110 -75l119 77l27 -44l-140 -123h-36zM373 650q142 0 216.5 -77t74.5 -211q0 -159 -97 -260.5t-256 -101.5h-291l10 95h73l48 460h-73l10 95h285zM313 95q112 0 174.5 68t62.5 189q0 203 -189 203h-105l-48 -460h105zM1070 0h-372l-9 58l290 308
h-155l-25 -77l-77 9l30 151h348l14 -59l-287 -308h173l30 78l82 -10z" />
    <glyph glyph-name="uni01C6" unicode="&#x1c6;" horiz-adv-x="968" 
d="M320 664l27 24h169l-74 -606h64l-7 -60l-27 -22h-127v97q-58 -107 -159 -107q-71 0 -108.5 52.5t-37.5 135.5q0 66 21 127.5t71 107t120 45.5q90 0 124 -69l27 217h-90zM772 512l-114 123l34 42l110 -75l119 77l27 -44l-140 -123h-36zM920 0h-372l-9 58l290 308h-155
l-25 -77l-77 9l30 151h348l14 -59l-287 -308h173l30 78l82 -10zM268 375q-57 0 -87 -54t-30 -130q0 -119 75 -119q45 0 81 41t46 90l8 65q1 48 -26 77.5t-67 29.5z" />
    <glyph glyph-name="uni01C7" unicode="&#x1c7;" horiz-adv-x="988" 
d="M486 0h-468l10 95h73l48 460h-73l10 95h277l-10 -95h-97l-48 -460h197l33 135l90 -8zM720 650h285l-10 -95h-62l-40 -377q-10 -92 -62.5 -140t-136.5 -48q-127 0 -163 114l81 59q22 -70 83 -70q82 0 91 84l40 378h-116z" />
    <glyph glyph-name="uni01C8" unicode="&#x1c8;" horiz-adv-x="783" 
d="M658 542l12 118h103l-12 -118h-103zM486 0h-468l10 95h73l48 460h-73l10 95h277l-10 -95h-97l-48 -460h197l33 135l90 -8zM565 425l27 24h161l-55 -446q-29 -224 -150 -225q-48 -1 -92 25l4 71q57 -22 90 3t46 126l45 363h-84z" />
    <glyph glyph-name="uni01C9" unicode="&#x1c9;" horiz-adv-x="501" 
d="M84 664l27 24h146l-74 -606h64l-7 -60l-27 -22h-143l74 606h-68zM402 542l12 118h103l-12 -118h-103zM309 425l27 24h161l-55 -446q-29 -224 -150 -225q-48 -1 -92 25l4 71q57 -22 90 3t46 126l45 363h-84z" />
    <glyph glyph-name="uni01CA" unicode="&#x1ca;" horiz-adv-x="1172" 
d="M38 95h70l48 460h-80l10 95h156l288 -430h3l35 335h-92l10 95h264l-10 -95h-72l-58 -555l-62 -1l-300 451h-3l-37 -355h92l-10 -95h-262zM909 650h285l-10 -95h-62l-40 -377q-10 -92 -62.5 -140t-136.5 -48q-127 0 -163 114l81 59q22 -70 83 -70q82 0 91 84l40 378h-116z
" />
    <glyph glyph-name="uni01CB" unicode="&#x1cb;" horiz-adv-x="976" 
d="M856 542l12 118h103l-12 -118h-103zM38 95h70l48 460h-80l10 95h156l288 -430h3l35 335h-92l10 95h264l-10 -95h-72l-58 -555l-62 -1l-300 451h-3l-37 -355h92l-10 -95h-262zM763 425l27 24h161l-55 -446q-29 -224 -150 -225q-48 -1 -92 25l4 71q57 -22 90 3t46 126
l45 363h-84z" />
    <glyph glyph-name="uni01CC" unicode="&#x1cc;" horiz-adv-x="784" 
d="M675 542l12 118h103l-12 -118h-103zM83 449h129l3 -87q51 96 147 96q66 0 103 -41t27 -120l-26 -215h65l-8 -60l-27 -22h-142l32 258q7 62 -10.5 89.5t-60.5 27.5q-47 0 -75 -33t-34 -85v1l-32 -258h-102l45 366h-69l7 59zM582 425l27 24h161l-55 -446
q-29 -224 -150 -225q-48 -1 -92 25l4 71q57 -22 90 3t46 126l45 363h-84z" />
    <glyph glyph-name="uni01D3" unicode="&#x1d3;" horiz-adv-x="692" 
d="M431 691l-119 100l28 45l120 -62l126 63l21 -46l-140 -100h-36zM523 650h238l-10 -95h-59l-30 -287q-6 -56 -23 -102.5t-48.5 -87.5t-85 -64.5t-124.5 -23.5q-134 0 -190.5 76t-44.5 191l31 298h-59l10 95h244l-10 -95h-78l-31 -295q-9 -81 24 -126.5t112 -45.5
q155 0 174 180l30 287h-79z" />
    <glyph glyph-name="uni01D4" unicode="&#x1d4;" horiz-adv-x="534" 
d="M289 512l-114 123l34 42l110 -75l119 77l27 -44l-140 -123h-36zM518 82l-7 -58l-28 -24h-129l-3 86q-50 -95 -146 -95q-66 0 -103 41t-27 120l26 214h-65l8 61l26 22h143l-32 -258q-8 -62 10 -90t61 -28q44 0 71 30t36 78l33 268h102l-44 -367h68z" />
    <glyph glyph-name="uni01E2" unicode="&#x1e2;" horiz-adv-x="912" 
d="M504 808h291l-9 -82h-290zM802 0h-487l9 95h73l10 89h-228l-51 -89h67l-9 -95h-242l10 95h63l274 460h-85l9 95h648l-1 -187l-91 -9l-9 101h-208l-19 -180h281l-10 -95h-280l-20 -185h214l31 101l90 -8zM415 265l31 290h-54l-167 -290h190z" />
    <glyph glyph-name="uni01E3" unicode="&#x1e3;" horiz-adv-x="709" 
d="M291 629h254l-9 -82h-254zM242 382q-35 0 -71 -19l-25 -69l-83 10l30 111q74 43 160 43q96 0 141 -51q61 51 145 51q69 0 113 -33t44 -90q0 -101 -160 -135q-54 -12 -122 -19q2 -54 23 -81.5t67 -27.5q72 0 99 80l84 -17q-13 -62 -65.5 -103.5t-133.5 -41.5
q-118 0 -163 89q-57 -89 -159 -89q-57 0 -96.5 29t-39.5 90q0 51 31 84.5t76 46.5t102 13q3 0 69 -3l1 3l2 22q6 50 -7 78.5t-62 28.5zM527 383q-49 0 -75.5 -39t-34.5 -99q20 2 64 11q61 12 84 30.5t23 44.5q0 52 -61 52zM197 68q38 0 67.5 28.5t38.5 78.5v21q-35 5 -64 5
q-95 0 -95 -76q0 -57 53 -57z" />
    <glyph glyph-name="uni01F1" unicode="&#x1f1;" horiz-adv-x="1237" 
d="M20 0l10 95h73l48 460h-73l10 95h285q142 0 216.5 -77t74.5 -211q0 -159 -97 -260.5t-256 -101.5h-291zM1177 0h-493l-1 59l391 494v2h-211l-33 -113l-92 9l43 199h452l2 -53l-392 -500l-1 -2h252l36 127l92 -10zM313 95q112 0 174.5 68t62.5 189q0 203 -189 203h-105
l-48 -460h105z" />
    <glyph glyph-name="uni01F2" unicode="&#x1f2;" horiz-adv-x="1127" 
d="M20 0l10 95h73l48 460h-73l10 95h285q142 0 216.5 -77t74.5 -211q0 -159 -97 -260.5t-256 -101.5h-291zM313 95q112 0 174.5 68t62.5 189q0 203 -189 203h-105l-48 -460h105zM1070 0h-372l-9 58l290 308h-155l-25 -77l-77 9l30 151h348l14 -59l-287 -308h173l30 78
l82 -10z" />
    <glyph glyph-name="uni01F3" unicode="&#x1f3;" horiz-adv-x="967" 
d="M320 664l27 24h169l-74 -606h64l-7 -60l-27 -22h-127v97q-58 -107 -159 -107q-71 0 -108.5 52.5t-37.5 135.5q0 66 21 127.5t71 107t120 45.5q90 0 124 -69l27 217h-90zM920 0h-372l-9 58l290 308h-155l-25 -77l-77 9l30 151h348l14 -59l-287 -308h173l30 78l82 -10z
M268 375q-57 0 -87 -54t-30 -130q0 -119 75 -119q45 0 81 41t46 90l8 65q1 48 -26 77.5t-67 29.5z" />
    <glyph glyph-name="uni01FC" unicode="&#x1fc;" horiz-adv-x="912" 
d="M800 727l-215 -33l-12 49l204 83zM802 0h-487l9 95h73l10 89h-228l-51 -89h67l-9 -95h-242l10 95h63l274 460h-85l9 95h648l-1 -187l-91 -9l-9 101h-208l-19 -180h281l-10 -95h-280l-20 -185h214l31 101l90 -8zM415 265l31 290h-54l-167 -290h190z" />
    <glyph glyph-name="uni01FD" unicode="&#x1fd;" horiz-adv-x="709" 
d="M598 609l-195 -97l-25 43l170 138zM242 382q-35 0 -71 -19l-25 -69l-83 10l30 111q74 43 160 43q96 0 141 -51q61 51 145 51q69 0 113 -33t44 -90q0 -101 -160 -135q-54 -12 -122 -19q2 -54 23 -81.5t67 -27.5q72 0 99 80l84 -17q-13 -62 -65.5 -103.5t-133.5 -41.5
q-118 0 -163 89q-57 -89 -159 -89q-57 0 -96.5 29t-39.5 90q0 51 31 84.5t76 46.5t102 13q3 0 69 -3l1 3l2 22q6 50 -7 78.5t-62 28.5zM527 383q-49 0 -75.5 -39t-34.5 -99q20 2 64 11q61 12 84 30.5t23 44.5q0 52 -61 52zM197 68q38 0 67.5 28.5t38.5 78.5v21q-35 5 -64 5
q-95 0 -95 -76q0 -57 53 -57z" />
    <glyph glyph-name="uni01FE" unicode="&#x1fe;" horiz-adv-x="691" 
d="M590 727l-215 -33l-12 49l204 83zM416 660q89 0 157 -43l27 33h105l-72 -85q70 -84 70 -205q0 -153 -102 -261.5t-255 -108.5q-92 0 -160 44l-29 -34h-95l69 83q-69 81 -69 207q0 155 102 262.5t252 107.5zM178 300q0 -72 28 -125l298 359q-42 28 -100 28
q-101 0 -163.5 -76t-62.5 -186zM362 88q105 0 165 77.5t60 186.5q0 72 -29 124l-302 -358q43 -30 106 -30z" />
    <glyph glyph-name="uni01FF" unicode="&#x1ff;" horiz-adv-x="480" 
d="M459 609l-195 -97l-25 43l170 138zM38 192q0 111 62 188.5t176 77.5q62 0 104 -25l13 16h74l-43 -54q43 -55 43 -144q0 -115 -66 -188t-175 -73q-61 0 -105 25l-12 -15h-73l42 53q-40 50 -40 139zM149 200q0 -32 4 -53l168 211q-22 17 -56 17q-116 0 -116 -175zM236 72
q62 0 91.5 49.5t29.5 126.5q0 29 -5 56l-172 -214q20 -18 56 -18z" />
    <glyph glyph-name="uni0218" unicode="&#x218;" horiz-adv-x="532" 
d="M506 200q0 -101 -66 -155.5t-186 -54.5q-67 0 -127 16.5t-91 45.5l33 149l86 -9l-9 -80q45 -26 105 -26q67 0 102.5 24t35.5 81q0 22 -6.5 38t-14.5 25.5t-28 17t-32.5 11t-42.5 9.5q-39 8 -65.5 17.5t-55.5 27.5t-44 50t-15 76q0 99 70.5 148t168.5 49q61 0 114.5 -18
t81.5 -47l-9 -137l-88 -8l-1 84q-42 28 -102 28q-54 0 -87 -22t-33 -64q0 -40 29 -58t87 -31q34 -8 55 -14t50 -20t45 -32t28 -49t12 -72zM297 -60l-39 -155h-81l21 155h99z" />
    <glyph glyph-name="uni0219" unicode="&#x219;" horiz-adv-x="432" 
d="M200 72q40 0 62.5 14.5t22.5 41.5q0 9 -2.5 17t-10 14t-13 10t-18.5 8t-20.5 6.5t-25 7t-25.5 6.5q-54 15 -85.5 41t-31.5 79q0 70 53 105.5t128 35.5q99 0 166 -41l-1 -111l-83 -10l-2 62q-41 17 -77 17q-32 0 -54.5 -13.5t-22.5 -37.5q0 -22 20.5 -32.5t74.5 -23.5
q30 -8 48 -15t42 -21.5t36 -38.5t12 -57q0 -70 -52 -108t-134 -38q-48 0 -102.5 11.5t-88.5 32.5l28 116l82 -8l-7 -56q31 -14 81 -14zM245 -60l-39 -155h-81l21 155h99z" />
    <glyph glyph-name="uni021A" unicode="&#x21a;" horiz-adv-x="618" 
d="M653 438l-94 -8l-7 125h-124l-48 -460h107l-10 -95h-315l10 95h102l48 460h-124l-32 -125l-92 8l40 212h542zM358 -60l-39 -155h-81l21 155h99z" />
    <glyph glyph-name="uni021B" unicode="&#x21b;" horiz-adv-x="352" 
d="M42 422l29 27h39l13 105l33 34h74l-17 -139h141l-8 -55l-29 -28h-114l-27 -223q-9 -71 39 -71q21 0 37 17t29 66l73 -25q-19 -74 -54 -107t-96 -33q-69 0 -105 38.5t-27 105.5l28 232h-66zM254 -60l-39 -155h-81l21 155h99z" />
    <glyph glyph-name="uni0232" unicode="&#x232;" horiz-adv-x="612" 
d="M248 808h291l-9 -82h-290zM667 555h-56l-220 -302l-16 -158h104l-10 -95h-312l10 95h101l16 158l-162 302h-58l10 95h247l-10 -95h-65l105 -204h5l144 204h-70l10 95h236z" />
    <glyph glyph-name="uni0233" unicode="&#x233;" horiz-adv-x="476" 
d="M163 629h254l-9 -82h-254zM256 123h6q55 68 79 122t24 111q0 48 -19 93h117q28 -136 -62 -261q-47 -66 -124 -148l-25 -171h69l-8 -58l-27 -24h-220l8 58l27 24h48l26 174l-104 323h-51l8 59l27 24h201l-7 -59l-28 -24h-40z" />
    <glyph glyph-name="uni0237" unicode="&#x237;" horiz-adv-x="252" 
d="M-57 425l27 24h161l-55 -446q-13 -105 -50.5 -164.5t-100.5 -60.5q-47 -1 -91 25l4 71q56 -23 89.5 2.5t46.5 126.5l44 363h-83z" />
    <glyph glyph-name="uni0259" unicode="&#x259;" horiz-adv-x="441" 
d="M225 376q-72 0 -99 -80l-83 17q12 61 64.5 103t133.5 42q85 0 135.5 -50.5t50.5 -148.5q0 -114 -65 -191.5t-172 -77.5q-68 0 -112 33t-44 86t37 87t123 52q63 12 121 19q-2 54 -23 81.5t-67 27.5zM245 192q-61 -12 -82 -31t-21 -45q0 -51 61 -51q48 0 74.5 39t34.5 98
q-21 -2 -67 -10z" />
    <glyph glyph-name="uni02C6" unicode="&#x2c6;" horiz-adv-x="331" 
d="M387 679l116 -126l-35 -41l-111 76l-118 -76l-29 41l142 126h35z" />
    <glyph glyph-name="uni02C7" unicode="&#x2c7;" horiz-adv-x="331" 
d="M346 512l-114 123l34 42l110 -75l119 77l27 -44l-140 -123h-36z" />
    <glyph glyph-name="uni02D8" unicode="&#x2d8;" horiz-adv-x="391" 
d="M432 654h84q-15 -132 -147 -132q-61 0 -91 33.5t-23 98.5h84q-6 -66 39 -66q46 0 54 66z" />
    <glyph glyph-name="uni02D9" unicode="&#x2d9;" horiz-adv-x="216" 
d="M210 539l12 118h107l-12 -118h-107z" />
    <glyph glyph-name="uni02DA" unicode="&#x2da;" horiz-adv-x="255" 
d="M271 514q-91 0 -91 82q0 46 29.5 74t82.5 28q45 0 68 -21.5t23 -59.5q0 -44 -29 -73.5t-83 -29.5zM276 566q40 0 40 47q0 33 -30 33q-38 0 -38 -47q0 -33 28 -33z" />
    <glyph glyph-name="uni02DB" unicode="&#x2db;" horiz-adv-x="274" 
d="M232 -188q-38 -20 -86 -20q-46 0 -74 21t-28 62q0 44 31.5 81t76.5 56l60 -4q-74 -39 -74 -96q0 -25 11 -34.5t32 -9.5q27 0 50 13z" />
    <glyph glyph-name="uni02DC" unicode="&#x2dc;" horiz-adv-x="367" 
d="M226 528l-42 14q4 36 29.5 73.5t65.5 37.5q22 0 57 -19t54 -19q33 0 50 42l45 -10q-18 -116 -91 -116q-27 0 -63.5 20t-53.5 20q-34 0 -51 -43z" />
    <glyph glyph-name="uni02DD" unicode="&#x2dd;" horiz-adv-x="421" 
d="M407 668l-155 -156l-38 30l118 185zM559 609l-193 -97l-25 43l171 138z" />
    <glyph glyph-name="uni0323" unicode="&#x323;" horiz-adv-x="816" 
d="M116 -188l12 117h107l-12 -117h-107z" />
    <glyph glyph-name="uni0394" unicode="&#x394;" horiz-adv-x="472" 
d="M-68 0l315 661l166 -661h-481zM57 82h247l-83 355z" />
    <glyph glyph-name="uni03A3" unicode="&#x3a3;" horiz-adv-x="538" 
d="M10 0l10 94l203 224l-156 237l11 95h477l-10 -95h-351l143 -217l-4 -33l-187 -211h351l-10 -94h-477z" />
    <glyph glyph-name="uni03C0" unicode="&#x3c0;" horiz-adv-x="580" 
d="M10 82h64l30 284h-68l9 83h530l-8 -83h-72l-29 -284h65l-8 -82h-235l8 82h65l30 284h-182l-29 -284h65l-8 -82h-235z" />
    <glyph glyph-name="uni1E46" unicode="&#x1e46;" horiz-adv-x="725" 
d="M38 95h70l48 460h-80l10 95h156l288 -430h3l35 335h-92l10 95h264l-10 -95h-72l-58 -555l-62 -1l-300 451h-3l-37 -355h92l-10 -95h-262zM289 -188l12 117h107l-12 -117h-107z" />
    <glyph glyph-name="uni1E47" unicode="&#x1e47;" horiz-adv-x="534" 
d="M83 449h129l3 -87q51 96 147 96q66 0 103 -41t27 -120l-26 -215h65l-8 -60l-27 -22h-142l32 258q7 62 -10.5 89.5t-60.5 27.5q-47 0 -75 -33t-34 -85v1l-32 -258h-102l45 366h-69l7 59zM197 -188l12 117h107l-12 -117h-107z" />
    <glyph glyph-name="uni1E62" unicode="&#x1e62;" horiz-adv-x="532" 
d="M506 200q0 -101 -66 -155.5t-186 -54.5q-67 0 -127 16.5t-91 45.5l33 149l86 -9l-9 -80q45 -26 105 -26q67 0 102.5 24t35.5 81q0 22 -6.5 38t-14.5 25.5t-28 17t-32.5 11t-42.5 9.5q-39 8 -65.5 17.5t-55.5 27.5t-44 50t-15 76q0 99 70.5 148t168.5 49q61 0 114.5 -18
t81.5 -47l-9 -137l-88 -8l-1 84q-42 28 -102 28q-54 0 -87 -22t-33 -64q0 -40 29 -58t87 -31q34 -8 55 -14t50 -20t45 -32t28 -49t12 -72zM185 -188l12 117h107l-12 -117h-107z" />
    <glyph glyph-name="uni1E63" unicode="&#x1e63;" horiz-adv-x="432" 
d="M200 72q40 0 62.5 14.5t22.5 41.5q0 9 -2.5 17t-10 14t-13 10t-18.5 8t-20.5 6.5t-25 7t-25.5 6.5q-54 15 -85.5 41t-31.5 79q0 70 53 105.5t128 35.5q99 0 166 -41l-1 -111l-83 -10l-2 62q-41 17 -77 17q-32 0 -54.5 -13.5t-22.5 -37.5q0 -22 20.5 -32.5t74.5 -23.5
q30 -8 48 -15t42 -21.5t36 -38.5t12 -57q0 -70 -52 -108t-134 -38q-48 0 -102.5 11.5t-88.5 32.5l28 116l82 -8l-7 -56q31 -14 81 -14zM123 -188l12 117h107l-12 -117h-107z" />
    <glyph glyph-name="uni1E80" unicode="&#x1e80;" horiz-adv-x="934" 
d="M634 694l-215 33l22 99l204 -83zM986 555h-52l-229 -555h-78l-106 458h-4l-197 -458h-80l-123 555h-53l9 95h237l-10 -95h-70l70 -372h6l164 372h-56l10 95h238l-11 -95h-52l85 -377h6l136 377h-75l10 95h234z" />
    <glyph glyph-name="uni1E81" unicode="&#x1e81;" horiz-adv-x="727" 
d="M434 512l-196 97l50 84l171 -138zM514 123h5q52 67 74 120.5t22 110.5q0 49 -18 95h116q26 -139 -63 -266q-26 -38 -71 -91t-85 -92h-46l-69 288h-5l-151 -288h-56l-98 366h-47l8 59l27 24h198l-7 -59l-28 -24h-44l46 -216h5l149 299h63z" />
    <glyph glyph-name="uni1E82" unicode="&#x1e82;" horiz-adv-x="934" 
d="M690 727l-215 -33l-12 49l204 83zM986 555h-52l-229 -555h-78l-106 458h-4l-197 -458h-80l-123 555h-53l9 95h237l-10 -95h-70l70 -372h6l164 372h-56l10 95h238l-11 -95h-52l85 -377h6l136 377h-75l10 95h234z" />
    <glyph glyph-name="uni1E83" unicode="&#x1e83;" horiz-adv-x="727" 
d="M587 609l-195 -97l-25 43l170 138zM514 123h5q52 67 74 120.5t22 110.5q0 49 -18 95h116q26 -139 -63 -266q-26 -38 -71 -91t-85 -92h-46l-69 288h-5l-151 -288h-56l-98 366h-47l8 59l27 24h198l-7 -59l-28 -24h-44l46 -216h5l149 299h63z" />
    <glyph glyph-name="uni1E84" unicode="&#x1e84;" horiz-adv-x="934" 
d="M579 710l12 115h109l-12 -115h-109zM403 710l12 115h108l-11 -115h-109zM986 555h-52l-229 -555h-78l-106 458h-4l-197 -458h-80l-123 555h-53l9 95h237l-10 -95h-70l70 -372h6l164 372h-56l10 95h238l-11 -95h-52l85 -377h6l136 377h-75l10 95h234z" />
    <glyph glyph-name="uni1E85" unicode="&#x1e85;" horiz-adv-x="727" 
d="M441 540l11 115h110l-12 -115h-109zM265 540l12 115h108l-12 -115h-108zM514 123h5q52 67 74 120.5t22 110.5q0 49 -18 95h116q26 -139 -63 -266q-26 -38 -71 -91t-85 -92h-46l-69 288h-5l-151 -288h-56l-98 366h-47l8 59l27 24h198l-7 -59l-28 -24h-44l46 -216h5
l149 299h63z" />
    <glyph glyph-name="uni1EBC" unicode="&#x1ebc;" horiz-adv-x="570" 
d="M260 701l-41 15q4 33 28.5 66t64.5 33q23 0 58 -16.5t53 -16.5q35 0 51 40l45 -10q-17 -108 -91 -108q-25 0 -62 16t-58 16q-33 0 -48 -35zM501 0h-481l9 95h74l48 460h-73l10 95h476v-188l-92 -8l-9 101h-206l-19 -180h283l-10 -95h-283l-19 -185h211l30 101l90 -8z" />
    <glyph glyph-name="uni1EBD" unicode="&#x1ebd;" horiz-adv-x="441" 
d="M184 528l-42 14q4 36 29.5 73.5t65.5 37.5q22 0 57 -19t54 -19q33 0 50 42l45 -10q-18 -116 -91 -116q-27 0 -63.5 20t-53.5 20q-34 0 -51 -43zM242 72q72 0 99 80l83 -17q-12 -61 -64.5 -103t-133.5 -42q-85 0 -135.5 50.5t-50.5 148.5q0 114 65 191.5t172 77.5
q68 0 112 -33t44 -86t-37 -87t-123 -52q-47 -11 -121 -19q2 -54 23 -81.5t67 -27.5zM222 256q61 12 82 31t21 45q0 51 -61 51q-49 0 -75 -39t-34 -99q3 0 67 11z" />
    <glyph glyph-name="uni1EF2" unicode="&#x1ef2;" horiz-adv-x="612" 
d="M435 694l-215 33l22 99l204 -83zM667 555h-56l-220 -302l-16 -158h104l-10 -95h-312l10 95h101l16 158l-162 302h-58l10 95h247l-10 -95h-65l105 -204h5l144 204h-70l10 95h236z" />
    <glyph glyph-name="uni1EF3" unicode="&#x1ef3;" horiz-adv-x="476" 
d="M334 512l-196 97l50 84l171 -138zM256 123h6q55 68 79 122t24 111q0 48 -19 93h117q28 -136 -62 -261q-47 -66 -124 -148l-25 -171h69l-8 -58l-27 -24h-220l8 58l27 24h48l26 174l-104 323h-51l8 59l27 24h201l-7 -59l-28 -24h-40z" />
    <glyph glyph-name="uni2004" unicode="&#x2004;" horiz-adv-x="326" 
 />
    <glyph glyph-name="uni2007" unicode="&#x2007;" horiz-adv-x="588" 
 />
    <glyph glyph-name="uni2009" unicode="&#x2009;" horiz-adv-x="157" 
 />
    <glyph glyph-name="uni200A" unicode="&#x200a;" horiz-adv-x="78" 
 />
    <glyph glyph-name="uni200B" unicode="&#x200b;" horiz-adv-x="0" 
 />
    <glyph glyph-name="uni2012" unicode="&#x2012;" horiz-adv-x="347" 
d="M347 296v-90h-347v90h347z" />
    <glyph glyph-name="uni2013" unicode="&#x2013;" horiz-adv-x="591" 
d="M89 270h492l-7 -72h-492z" />
    <glyph glyph-name="uni2014" unicode="&#x2014;" horiz-adv-x="1026" 
d="M98 270h921l-8 -72h-921z" />
    <glyph glyph-name="uni2018" unicode="&#x2018;" horiz-adv-x="219" 
d="M281 646l-81 -228h-102l80 228h103z" />
    <glyph glyph-name="uni2019" unicode="&#x2019;" horiz-adv-x="213" 
d="M104 489l81 228h102l-80 -228h-103z" />
    <glyph glyph-name="uni201A" unicode="&#x201a;" horiz-adv-x="213" 
d="M-54 -92l81 228h102l-80 -228h-103z" />
    <glyph glyph-name="uni201C" unicode="&#x201c;" horiz-adv-x="382" 
d="M287 669l-81 -228h-102l80 228h103zM455 669l-81 -228h-102l80 228h103z" />
    <glyph glyph-name="uni201D" unicode="&#x201d;" horiz-adv-x="376" 
d="M78 442l81 228h102l-80 -228h-103zM246 442l81 228h102l-80 -228h-103z" />
    <glyph glyph-name="uni201E" unicode="&#x201e;" horiz-adv-x="383" 
d="M-54 -92l81 228h102l-80 -228h-103zM116 -92l81 228h102l-80 -228h-103z" />
    <glyph glyph-name="uni2020" unicode="&#x2020;" horiz-adv-x="452" 
d="M75 436h156l23 214h89l-23 -214h156l-9 -92h-156l-51 -485h-90l51 485h-155z" />
    <glyph glyph-name="uni2021" unicode="&#x2021;" horiz-adv-x="483" 
d="M47 144h156l21 200h-156l10 92h155l23 214h90l-23 -214h156l-10 -92h-155l-21 -200h155l-9 -91h-156l-20 -194h-90l20 194h-155z" />
    <glyph glyph-name="uni2022" unicode="&#x2022;" horiz-adv-x="346" 
d="M104 232q0 54 38.5 93t90.5 39q46 0 76 -31.5t30 -78.5q0 -53 -39 -91.5t-91 -38.5q-47 0 -76 31t-29 77z" />
    <glyph glyph-name="uni2026" unicode="&#x2026;" horiz-adv-x="619" 
d="M36 0l14 139h128l-14 -139h-128zM237 0l14 139h128l-14 -139h-128zM437 0l14 139h128l-14 -139h-128z" />
    <glyph glyph-name="uni2030" unicode="&#x2030;" horiz-adv-x="1015" 
d="M216 242q-64 0 -99 34t-35 93q0 71 46.5 116.5t121.5 45.5q64 0 98 -34.5t34 -93.5q0 -70 -45 -115.5t-121 -45.5zM669 521l-228 -259l-222 -262h-109l258 286l192 235h109zM222 311q35 0 54.5 22t19.5 64q0 63 -54 63q-34 0 -54.5 -21t-20.5 -64q0 -64 55 -64zM536 -10
q-63 0 -98 34t-35 94q0 71 46.5 116.5t121.5 45.5q63 0 97.5 -34.5t34.5 -94.5q0 -70 -45 -115.5t-122 -45.5zM849 -10q-64 0 -99 34t-35 93q0 71 47 117t121 46q63 0 97.5 -34.5t34.5 -94.5q0 -70 -44.5 -115.5t-121.5 -45.5zM544 60q34 0 54 22.5t20 63.5q0 64 -55 64
q-33 0 -53.5 -21.5t-20.5 -63.5q0 -65 55 -65zM856 60q34 0 53.5 22.5t19.5 63.5q0 64 -53 64q-34 0 -54.5 -21.5t-20.5 -64.5q0 -64 55 -64z" />
    <glyph glyph-name="uni2039" unicode="&#x2039;" horiz-adv-x="288" 
d="M257 25h-88l-109 246l160 240h88l-145 -240z" />
    <glyph glyph-name="uni203A" unicode="&#x203a;" horiz-adv-x="289" 
d="M107 25h-87l145 246l-94 240h87l110 -240z" />
    <glyph glyph-name="uni203D" unicode="&#x203d;" horiz-adv-x="692" 
d="M233 653l108 -425l-74 -32l-153 403zM518 563q-29 0 -57 -13l-38 -85l-76 21l47 136q65 30 139 30q90 0 150 -36.5t60 -112.5q0 -49 -28 -84.5t-70 -56.5t-85.5 -40.5t-81 -48t-49.5 -66.5l-67 25q7 44 36.5 77t66 52t71.5 36.5t59 40.5t24 53q0 39 -32 55.5t-69 16.5z
M269 0l14 127h125l-14 -127h-125z" />
    <glyph glyph-name="uni2044" unicode="&#x2044;" horiz-adv-x="151" 
d="M160 650l-220 -325l-213 -325h-73l229 337l204 313h73z" />
    <glyph glyph-name="uni2070" unicode="&#x2070;" horiz-adv-x="379" 
d="M124 567q0 37 8.5 72.5t27.5 69.5t56 55t87 21q143 0 143 -163q0 -90 -45.5 -151.5t-136.5 -61.5q-140 0 -140 158zM213 573q0 -47 12.5 -72.5t45.5 -25.5q44 0 64.5 42t20.5 107q0 47 -13 71t-45 24q-42 0 -63.5 -38.5t-21.5 -107.5z" />
    <glyph glyph-name="uni2071" unicode="&#x2071;" horiz-adv-x="194" 
d="M173 768l8 83h78l-9 -83h-77zM118 690l19 17h103l-29 -230h40l-5 -46l-20 -16h-99l29 231h-44z" />
    <glyph glyph-name="uni2074" unicode="&#x2074;" horiz-adv-x="356" 
d="M256 415l9 92h-167l-2 61l135 211h145l-23 -214h60l-13 -58h-53l-9 -92h-82zM261 715l-95 -150h105l16 150h-26z" />
    <glyph glyph-name="uni2075" unicode="&#x2075;" horiz-adv-x="332" 
d="M382 537q0 -60 -43 -94.5t-111 -34.5q-57 0 -92.5 25t-39.5 73l63 20q10 -54 71 -54q30 0 46.5 15t16.5 41q0 56 -84 56q-1 0 -55 -3l-23 22l18 176h229l-3 -101l-69 -7l-1 44h-86l-8 -71h22q149 0 149 -107z" />
    <glyph glyph-name="uni2076" unicode="&#x2076;" horiz-adv-x="341" 
d="M299 721q-80 0 -89 -121q29 50 92 50q49 0 73.5 -29t24.5 -73q0 -59 -41 -99t-107 -40q-64 0 -97 41t-33 114q0 91 44 156t129 65q74 0 114 -48l-50 -48q-23 32 -60 32zM270 589q-51 0 -61 -48q1 -34 11.5 -50t37.5 -16q57 0 57 66q0 48 -45 48z" />
    <glyph glyph-name="uni2077" unicode="&#x2077;" horiz-adv-x="309" 
d="M137 779h266l6 -35l-168 -330h-82l158 302h-116l-6 -61h-71z" />
    <glyph glyph-name="uni2078" unicode="&#x2078;" horiz-adv-x="345" 
d="M236 409q-58 0 -93 22.5t-35 65.5q0 38 23 59.5t63 38.5q-59 35 -59 83q0 47 40.5 77t104.5 30q55 0 88 -23t33 -61q0 -32 -20 -51.5t-56 -34.5q70 -38 70 -94q0 -53 -44.5 -82.5t-114.5 -29.5zM226 689q0 -16 14 -27t42 -25q34 21 34 51q0 37 -42 37q-23 0 -35.5 -10.5
t-12.5 -25.5zM246 469q27 0 43 12.5t16 29.5q0 4 -1 8t-2.5 7.5t-5 7.5t-5.5 6.5t-7.5 6t-8.5 5.5t-9.5 5.5t-9.5 5t-10.5 5.5t-10.5 6q-42 -24 -42 -59q0 -21 13.5 -33.5t39.5 -12.5z" />
    <glyph glyph-name="uni2079" unicode="&#x2079;" horiz-adv-x="344" 
d="M236 473q42 0 62.5 29t25.5 91q-28 -49 -91 -49q-49 0 -74 29.5t-25 73.5q0 60 40.5 99t106.5 39q64 0 98 -41t34 -114q0 -91 -43.5 -156t-128.5 -65q-75 0 -115 48l50 48q23 -32 60 -32zM265 605q25 0 40.5 13t20.5 34q-2 34 -12.5 50.5t-36.5 16.5q-57 0 -57 -66
q0 -48 45 -48z" />
    <glyph glyph-name="uni207A" unicode="&#x207a;" horiz-adv-x="275" 
d="M110 571l5 53h87l10 87h56l-10 -87h84l-5 -53h-84l-9 -86h-56l9 86h-87z" />
    <glyph glyph-name="uni207B" unicode="&#x207b;" horiz-adv-x="308" 
d="M142 571l5 53h227l-5 -53h-227z" />
    <glyph glyph-name="uni207C" unicode="&#x207c;" horiz-adv-x="364" 
d="M141 635l6 53h284l-6 -53h-284zM128 506l5 53h284l-5 -53h-284z" />
    <glyph glyph-name="uni207D" unicode="&#x207d;" horiz-adv-x="219" 
d="M250 831h70q-130 -142 -130 -291q0 -129 75 -231h-71q-70 105 -70 229q0 157 126 293z" />
    <glyph glyph-name="uni207E" unicode="&#x207e;" horiz-adv-x="218" 
d="M112 309h-70q130 142 130 292q0 127 -74 230h70q71 -103 71 -228q0 -154 -127 -294z" />
    <glyph glyph-name="uni207F" unicode="&#x207f;" horiz-adv-x="380" 
d="M138 707h90l2 -53q36 59 98 59q44 0 69 -25.5t18 -75.5l-17 -135h42l-6 -46l-19 -16h-99l21 166q10 71 -44 71q-52 0 -67 -55v-1l-23 -181h-75l28 231h-44l6 44z" />
    <glyph glyph-name="uni2080" unicode="&#x2080;" horiz-adv-x="380" 
d="M38 152q0 37 8.5 72.5t27.5 69.5t56 55t87 21q143 0 143 -163q0 -90 -45.5 -151.5t-136.5 -61.5q-140 0 -140 158zM127 158q0 -47 12.5 -72.5t45.5 -25.5q44 0 64.5 42t20.5 107q0 47 -13 71t-45 24q-42 0 -63.5 -38.5t-21.5 -107.5z" />
    <glyph glyph-name="uni2081" unicode="&#x2081;" horiz-adv-x="267" 
d="M9 64h71l25 236h-72l7 64h155l-32 -300h67l-7 -64h-221z" />
    <glyph glyph-name="uni2082" unicode="&#x2082;" horiz-adv-x="352" 
d="M101 244l-64 6l23 90q54 30 127 30q63 0 94 -26t31 -64q0 -16 -7 -33.5t-15.5 -32t-25.5 -32.5t-28.5 -28.5t-34 -27.5t-31.5 -23.5t-31.5 -22t-24.5 -16.5h123l8 50l70 -8l-16 -106h-288l-1 59q10 7 30.5 22.5t32.5 24t31 23.5t30.5 24.5t26.5 23t24 24.5t17.5 22.5
t12.5 22.5t4 21q0 39 -52 39q-29 0 -50 -13z" />
    <glyph glyph-name="uni2083" unicode="&#x2083;" horiz-adv-x="340" 
d="M111 249l-63 5l20 86q53 29 125 29q54 0 85 -23.5t31 -61.5q0 -61 -74 -89v-2q69 -15 69 -84q0 -53 -41.5 -84.5t-108.5 -31.5q-56 0 -92 24.5t-40 73.5l63 20q11 -54 66 -54q31 0 47.5 15.5t16.5 41.5t-20 37.5t-62 13.5l5 48q80 5 80 55q0 37 -46 37q-24 0 -47 -12z
" />
    <glyph glyph-name="uni2084" unicode="&#x2084;" horiz-adv-x="356" 
d="M168 0l9 92h-167l-2 61l135 211h145l-23 -214h60l-13 -58h-53l-9 -92h-82zM173 300l-95 -150h105l16 150h-26z" />
    <glyph glyph-name="uni2085" unicode="&#x2085;" horiz-adv-x="332" 
d="M296 122q0 -60 -43 -94.5t-111 -34.5q-57 0 -92.5 25t-39.5 73l63 20q10 -54 71 -54q30 0 46.5 15t16.5 41q0 56 -84 56q-1 0 -55 -3l-23 22l18 176h229l-3 -101l-69 -7l-1 44h-86l-8 -71h22q149 0 149 -107z" />
    <glyph glyph-name="uni2086" unicode="&#x2086;" horiz-adv-x="342" 
d="M213 306q-80 0 -89 -121q29 50 92 50q49 0 73.5 -29t24.5 -73q0 -59 -41 -99t-107 -40q-64 0 -97 41t-33 114q0 91 44 156t129 65q74 0 114 -48l-50 -48q-23 32 -60 32zM184 174q-51 0 -61 -48q1 -34 11.5 -50t37.5 -16q57 0 57 66q0 48 -45 48z" />
    <glyph glyph-name="uni2087" unicode="&#x2087;" horiz-adv-x="310" 
d="M51 364h266l6 -35l-168 -330h-82l158 302h-116l-6 -61h-71z" />
    <glyph glyph-name="uni2088" unicode="&#x2088;" horiz-adv-x="344" 
d="M148 -6q-58 0 -93 22.5t-35 65.5q0 38 23 59.5t63 38.5q-59 35 -59 83q0 47 40.5 77t104.5 30q55 0 88 -23t33 -61q0 -32 -20 -51.5t-56 -34.5q70 -38 70 -94q0 -52 -44.5 -82t-114.5 -30zM138 274q0 -16 14 -27t42 -25q34 21 34 51q0 37 -42 37q-23 0 -35.5 -10.5
t-12.5 -25.5zM158 54q27 0 43 12.5t16 29.5q0 4 -1 8t-2.5 7.5t-5 7.5t-5.5 6.5t-7.5 6t-8.5 5.5t-9.5 5.5t-9.5 5t-10.5 5.5t-10.5 6q-42 -25 -42 -59q0 -21 13.5 -33.5t39.5 -12.5z" />
    <glyph glyph-name="uni2089" unicode="&#x2089;" horiz-adv-x="343" 
d="M148 58q42 0 62.5 29t25.5 91q-28 -49 -91 -49q-49 0 -74 29.5t-25 73.5q0 60 40.5 99t106.5 39q64 0 98 -41t34 -114q0 -91 -43.5 -156t-128.5 -65q-75 0 -115 48l50 48q23 -32 60 -32zM177 190q25 0 40.5 13t20.5 34q-2 34 -12.5 50.5t-36.5 16.5q-57 0 -57 -66
q0 -48 45 -48z" />
    <glyph glyph-name="uni208A" unicode="&#x208a;" horiz-adv-x="274" 
d="M22 156l5 53h87l10 87h56l-10 -87h84l-5 -53h-84l-9 -86h-56l9 86h-87z" />
    <glyph glyph-name="uni208B" unicode="&#x208b;" horiz-adv-x="307" 
d="M54 156l5 53h227l-5 -53h-227z" />
    <glyph glyph-name="uni208C" unicode="&#x208c;" horiz-adv-x="365" 
d="M55 220l6 53h284l-6 -53h-284zM42 91l5 53h284l-5 -53h-284z" />
    <glyph glyph-name="uni208D" unicode="&#x208d;" horiz-adv-x="218" 
d="M162 416h70q-130 -142 -130 -291q0 -129 75 -231h-71q-70 105 -70 229q0 157 126 293z" />
    <glyph glyph-name="uni208E" unicode="&#x208e;" horiz-adv-x="218" 
d="M26 -107h-70q130 142 130 292q0 127 -74 230h70q71 -103 71 -228q0 -154 -127 -294z" />
    <glyph glyph-name="uni2090" unicode="&#x2090;" horiz-adv-x="365" 
d="M329 292q-17 -52 -24 -102l-17 -128h40l-5 -46l-19 -16h-87l-2 61q-35 -68 -99 -68q-48 0 -74 35t-26 90q0 69 35.5 124.5t103.5 55.5q67 0 87 -54q8 32 14 48h73zM167 237q-34 0 -51.5 -31.5t-17.5 -77.5q0 -73 47 -73q27 0 47.5 22.5t28.5 52.5l6 43q-1 30 -18.5 47
t-41.5 17z" />
    <glyph glyph-name="uni2091" unicode="&#x2091;" horiz-adv-x="311" 
d="M155 55q7 0 13.5 1t11.5 3.5l9 4.5t8 6.5t6 6.5t5 7t3.5 7t2.5 7l3 6l62 -13q-8 -40 -44.5 -69t-91.5 -29q-57 0 -92 33t-35 98q0 74 44 124t117 50q48 0 78 -22t30 -59q0 -68 -109 -89q-33 -8 -78 -12q5 -61 57 -61zM138 169q67 11 67 44q0 31 -38 31q-55 0 -67 -81z
" />
    <glyph glyph-name="uni2092" unicode="&#x2092;" horiz-adv-x="337" 
d="M16 126q0 72 42 122t120 50q66 0 98.5 -36.5t32.5 -98.5q0 -76 -45 -123t-119 -47q-62 0 -95.5 34.5t-33.5 98.5zM99 133q0 -39 11.5 -58.5t41.5 -19.5q39 0 57.5 29.5t18.5 76.5q0 76 -58 76q-71 0 -71 -104z" />
    <glyph glyph-name="uni2093" unicode="&#x2093;" horiz-adv-x="358" 
d="M311 18l-20 -18h-150l5 45l20 17h17l-44 55q-72 -46 -52 -117h-85q-14 38 11 66.5t87 68.5q9 6 14 9l-76 87h-37l6 44l19 17h146l-6 -44l-20 -17h-17l38 -49q67 54 50 110h85q3 -10 3.5 -19.5t-3 -18.5t-8 -17t-12.5 -16.5t-15 -14.5t-18 -14t-17.5 -13t-18.5 -13
t-17 -11l78 -93h42z" />
    <glyph glyph-name="uni2095" unicode="&#x2095;" horiz-adv-x="369" 
d="M43 430l19 17h100l-26 -204q33 55 95 55q43 0 68.5 -25.5t19.5 -75.5l-17 -135h40l-5 -46l-20 -16h-98l20 166q5 37 -5.5 54t-38.5 17q-59 0 -68 -70l-1 2l-21 -169h-75l48 385h-40z" />
    <glyph glyph-name="uni2096" unicode="&#x2096;" horiz-adv-x="329" 
d="M43 430l19 17h100l-35 -271h41q51 54 58 116h77q0 -38 -24.5 -75.5t-66.5 -64.5l52 -90h46l-5 -46l-19 -16h-68l-67 123h-31l-15 -123h-75l48 385h-40z" />
    <glyph glyph-name="uni2097" unicode="&#x2097;" horiz-adv-x="182" 
d="M40 430l20 17h102l-49 -385h41l-5 -46l-20 -16h-99l48 385h-43z" />
    <glyph glyph-name="uni2098" unicode="&#x2098;" horiz-adv-x="556" 
d="M50 292h90l2 -54q34 60 98 60q70 0 81 -63q33 63 100 63q43 0 65.5 -25.5t15.5 -75.5l-17 -135h42l-6 -46l-19 -16h-99l21 166q9 71 -43 71q-50 0 -62 -58l-1 -5l-21 -174h-75l20 166q5 38 -5 54.5t-37 16.5q-53 0 -63 -64l-22 -173h-75l28 231h-44l6 44z" />
    <glyph glyph-name="uni2099" unicode="&#x2099;" horiz-adv-x="381" 
d="M50 292h90l2 -53q36 59 98 59q44 0 69 -25.5t18 -75.5l-17 -135h42l-6 -46l-19 -16h-99l21 166q10 71 -44 71q-52 0 -67 -55v-1l-23 -181h-75l28 231h-44l6 44z" />
    <glyph glyph-name="uni209A" unicode="&#x209a;" horiz-adv-x="369" 
d="M8 292h90l1 -60q33 66 99 66q50 0 77.5 -35t27.5 -91q0 -68 -37 -123.5t-106 -55.5q-60 0 -83 45l-14 -115h59l-5 -44l-20 -17h-157l5 44l20 17h23l39 308h-45l6 44zM146 55q37 0 56 34t19 75q0 73 -52 73q-31 0 -52 -27.5t-26 -64.5l-1 -10l-1 -5q-3 -33 13 -54t44 -21z
" />
    <glyph glyph-name="uni209B" unicode="&#x209b;" horiz-adv-x="306" 
d="M130 55q55 0 55 31q0 9 -4 14.5t-16 10t-18.5 6t-26.5 6.5q-26 6 -42.5 12.5t-31.5 25t-15 46.5q0 48 36.5 69.5t87.5 21.5q71 0 113 -28l3 -65l-64 -7l-4 32q-18 7 -48 7q-45 0 -45 -27q0 -14 12.5 -20.5t39.5 -12.5q23 -4 36 -7.5t31 -12.5t27 -25.5t9 -39.5
q0 -47 -34.5 -73t-92.5 -26q-76 0 -128 35l15 81l63 -7l-2 -37q23 -10 44 -10z" />
    <glyph glyph-name="uni209C" unicode="&#x209c;" horiz-adv-x="264" 
d="M30 274l21 18h22l9 65l24 25h55l-12 -90h93l-6 -41l-21 -20h-73l-17 -136q-4 -40 23 -40q28 0 42 53l54 -18q-12 -51 -36.5 -74t-67.5 -23q-47 0 -72.5 25.5t-19.5 69.5l18 143h-42z" />
    <glyph glyph-name="uni20A1" unicode="&#x20a1;" horiz-adv-x="673" 
d="M649 689h74l-270 -593q33 8 58 20l25 97l89 -9l-29 -142q-30 -26 -82.5 -44.5t-107.5 -24.5l-29 -64h-74l28 62q-32 4 -48 8l-32 -70h-74l42 94q-65 36 -101 105t-36 161q0 154 92 262.5t236 108.5q52 0 93 -15l20 44h75l-35 -76q18 -14 34 -37zM415 562
q-100 0 -158.5 -72.5t-58.5 -189.5q0 -124 67 -177l197 433q-21 6 -47 6zM523 525l-197 -431q22 -6 49 -6l177 389q-8 28 -29 48z" />
    <glyph glyph-name="uni20A2" unicode="&#x20a2;" horiz-adv-x="644" 
d="M594 62q-36 -32 -102 -52t-131 -20q-134 0 -209.5 83t-75.5 214q0 69 21.5 133.5t63.5 119t111.5 87.5t157.5 33q143 0 218 -77l2 -141l-91 -9l-6 90q-54 39 -135 39q-104 0 -166 -70t-62 -193q0 -170 124 -203l24 202h-67l7 59l27 24h122l4 -115q18 53 46.5 88.5
t65.5 35.5q29 0 51 -18l-17 -109q-26 15 -52 15q-33 0 -58 -23.5t-36 -62.5l-13 -102q53 6 91 26l26 97l88 -9z" />
    <glyph glyph-name="uni20A3" unicode="&#x20a3;" horiz-adv-x="739" 
d="M34 95h72l48 460h-73l10 95h474v-196l-93 -9l-8 110h-201l-18 -171h298l1 -112q44 122 112 122q28 0 52 -18l-18 -110q-28 16 -52 16q-34 0 -59.5 -25.5t-35.5 -67.5l-14 -107h90l-7 -58l-28 -24h-229l7 58l27 24h37l24 208h-215l-20 -195h100l-10 -95h-281z" />
    <glyph glyph-name="uni20A4" unicode="&#x20a4;" horiz-adv-x="566" 
d="M58 284h74l7 63h-74l7 67h74l1 3q12 120 76 181.5t159 61.5q45 0 90 -13t71 -41l1 -141l-90 -9l-6 87q-29 19 -77 19q-51 0 -79.5 -33t-36.5 -111l-1 -4h192l-6 -67h-193l-6 -63h192l-7 -67h-194q-16 -82 -81 -122h191q86 0 142 66l46 -57q-19 -36 -66.5 -70t-109.5 -34
h-326l10 92q69 35 85 125h-72z" />
    <glyph glyph-name="uni20A5" unicode="&#x20a5;" horiz-adv-x="833" 
d="M119 449h129l2 -87q52 96 146 96q99 0 120 -88l104 195h75l-59 -110q15 3 31 3q64 0 98 -40.5t25 -120.5l-26 -215h64l-7 -60l-27 -22h-142l31 258q8 62 -8.5 89.5t-58.5 27.5q-14 0 -24 -3l-84 -156l-26 -216h-90l-69 -130h-75l151 282l13 106q7 62 -9.5 89.5
t-57.5 27.5q-89 0 -103 -118l-1 2l-31 -259h-102l45 366h-69l7 59z" />
    <glyph glyph-name="uni20A6" unicode="&#x20a6;" horiz-adv-x="757" 
d="M70 95h70l14 137h-86l7 66h86l6 60h-85l7 67h85l14 130h-80l10 95h156l150 -225h162l14 130h-92l10 95h264l-10 -95h-72l-14 -130h77l-7 -67h-77l-6 -60h76l-7 -66h-76l-24 -232l-62 -1l-155 233h-171l-14 -137h92l-10 -95h-262zM277 450l-3 -25h22l-16 25h-3zM261 298
h120l-40 60h-74zM509 298h64l6 60h-110zM562 220h3l1 12h-12z" />
    <glyph glyph-name="uni20A7" unicode="&#x20a7;" horiz-adv-x="1314" 
d="M28 95h72l48 460h-72l10 95h277q104 0 158.5 -52t54.5 -139q0 -110 -71 -171t-178 -61h-106l-14 -132h101l-10 -95h-280zM585 422l29 27h39l13 105l33 34h74l-17 -139h141l-8 -55l-29 -28h-114l-27 -223q-9 -71 39 -71q21 0 37 17t29 66l73 -25q-19 -74 -54 -107t-96 -33
q-69 0 -105 38.5t-27 105.5l28 232h-66zM318 321q73 0 108 35.5t35 97.5q0 101 -120 101h-86l-24 -234h87zM1080 72q40 0 62.5 14.5t22.5 41.5q0 9 -2.5 17t-10 14t-13 10t-18.5 8t-20.5 6.5t-25 7t-25.5 6.5q-54 15 -85.5 41t-31.5 79q0 70 53 105.5t128 35.5q99 0 166 -41
l-1 -111l-83 -10l-2 62q-41 17 -77 17q-32 0 -54.5 -13.5t-22.5 -37.5q0 -22 20.5 -32.5t74.5 -23.5q30 -8 48 -15t42 -21.5t36 -38.5t12 -57q0 -70 -52 -108t-134 -38q-48 0 -102.5 11.5t-88.5 32.5l28 116l82 -8l-7 -56q31 -14 81 -14z" />
    <glyph glyph-name="uni20A8" unicode="&#x20a8;" horiz-adv-x="963" 
d="M759 375q-32 0 -53 -13.5t-21 -37.5q0 -25 25 -38t61 -19.5t72 -16t61 -35.5t25 -69q0 -69 -60.5 -112.5t-175.5 -43.5t-203 49.5t-126 146.5l-29 71h-105l-17 -162h75l-10 -95h-256l10 95h72l48 460h-72l10 95h283q108 0 163 -44.5t55 -127.5q0 -72 -40 -124t-108 -74
l28 -66q20 -50 63.5 -83.5t88 -46t89.5 -12.5q50 0 79.5 15.5t29.5 44.5q0 22 -18.5 35t-46.5 17t-60 12t-60 18t-46.5 35.5t-18.5 64.5q0 75 55 109.5t133 34.5q98 0 165 -41l-1 -111l-82 -10l-3 62q-41 17 -79 17zM322 346q151 0 151 119q0 50 -28.5 70t-100.5 20h-83
l-22 -209h83z" />
    <glyph glyph-name="uni20A9" unicode="&#x20a9;" horiz-adv-x="985" 
d="M100 337h106l-13 60h-86l7 75h62l-18 83h-53l9 95h237l-10 -95h-70l16 -83h187l37 83h-56l10 95h238l-11 -95h-52l19 -83h178l30 83h-75l10 95h234l-9 -95h-52l-34 -83h68l-8 -75h-91l-25 -60h109l-7 -74h-133l-108 -263h-78l-61 263h-133l-113 -263h-80l-58 263h-131z
M312 337h103l26 60h-140zM689 337h99l22 60h-134zM506 337h84l-14 60h-44zM725 178h6l30 85h-55zM341 183h6l35 80h-56z" />
    <glyph glyph-name="uni20AA" unicode="&#x20aa;" horiz-adv-x="778" 
d="M96 0l68 650h234q142 0 181.5 -54.5t23.5 -211.5l-15 -140h-108l15 146q6 50 6 76.5t-3.5 48t-18.5 29.5t-35 11.5t-57 3.5h-124l-59 -559h-108zM391 91h143q27 0 46 4.5t32.5 17.5t21.5 25t13.5 37.5t8 44.5t6.5 56l39 374h108l-39 -369q-9 -84 -21 -132t-38.5 -84.5
t-71 -50.5t-116.5 -14h-248l43 406h107z" />
    <glyph glyph-name="uni20AB" unicode="&#x20ab;" horiz-adv-x="541" 
d="M276 636h148l6 52h96l-6 -52h54l-7 -65h-53l-38 -363h59l-8 -66h-154l7 71q-50 -79 -149 -79q-72 0 -112.5 43t-40.5 120q0 92 52 155.5t150 63.5q95 0 125 -66l13 121h-149zM300 444q-55 0 -86.5 -36.5t-31.5 -98.5q0 -51 23.5 -77t63.5 -26q46 0 79.5 31t41.5 72l4 36
q5 45 -20.5 72t-73.5 27zM85 74h402l-8 -74h-401z" />
    <glyph glyph-name="uni20AC" unicode="&#x20ac;" horiz-adv-x="584" 
d="M51 284l6 64h61q29 82 95 131.5t161 49.5q56 0 105 -17t73 -41l2 -121l-89 -8l-6 79q-31 24 -85 24q-106 0 -145 -97h156l-6 -64h-165q-3 -22 -3 -47v-10h136l-6 -64h-122q24 -87 117 -87q57 0 91 22l23 84l87 -7l-26 -125q-30 -24 -85 -41t-110 -17q-88 0 -142 45.5
t-69 125.5h-67l7 64h54v1q0 31 4 56h-52z" />
    <glyph glyph-name="uni20AD" unicode="&#x20ad;" horiz-adv-x="668" 
d="M380 95h64l-115 189h-87l-20 -189h60l-10 -95h-238l10 95h72l20 189h-68l10 91h67l19 180h-72l10 95h241l-10 -95h-63l-19 -180h89l148 180h-61l10 95h245l-10 -95h-70l-155 -180h126l-10 -91h-111l116 -189h67l-10 -95h-255z" />
    <glyph glyph-name="uni20AE" unicode="&#x20ae;" horiz-adv-x="630" 
d="M663 438l-94 -8l-7 125h-124l-15 -138l110 32l-7 -77l-111 -32l-4 -45l110 32l-8 -77l-110 -32l-13 -123h107l-10 -95h-315l10 95h102l9 91l-108 -31l7 77l109 31l5 46l-108 -31l8 76l108 31l18 170h-124l-32 -125l-92 8l40 212h542z" />
    <glyph glyph-name="uni20B1" unicode="&#x20b1;" horiz-adv-x="646" 
d="M52 95h72l27 264h-70l6 60h71l4 37h-71l7 59h70l4 40h-72l10 95h277q86 0 138 -36t68 -99h70l-7 -59h-56q0 -1 -3 -37h56l-6 -60h-67q-28 -64 -89.5 -98t-139.5 -34h-106l-14 -132h101l-10 -95h-280zM365 555h-86l-4 -40h194q-28 40 -104 40zM485 454v2h-216l-4 -37h216
q4 22 4 35zM342 321q74 0 110 38h-193l-4 -38h87z" />
    <glyph glyph-name="uni20B4" unicode="&#x20b4;" horiz-adv-x="591" 
d="M71 361l5 49h332q48 30 48 80q0 72 -102 72q-52 0 -111 -21l-25 -91l-83 9l34 159q116 42 215 42q53 0 93 -12.5t68.5 -49t28.5 -93.5q0 -56 -29 -95h56l-5 -49h-108q-34 -19 -138 -51h240l-5 -48h-341q-44 -34 -44 -90q0 -84 114 -84q74 0 119 28l25 90l89 -9l-29 -135
q-37 -33 -97 -52.5t-125 -19.5q-93 0 -153 42.5t-60 129.5q0 59 30 100h-53l6 48h100q40 26 118 51h-213z" />
    <glyph glyph-name="uni20B9" unicode="&#x20b9;" horiz-adv-x="525" 
d="M86 280h161q96 0 115 52h-271l7 62h269q-6 24 -29.5 34.5t-71.5 10.5h-163l8 82h436l-8 -82h-68q8 -20 10 -45h44l-7 -62h-44q-24 -80 -113 -109l64 -141h63l-10 -82h-133l-88 204h-179z" />
    <glyph glyph-name="uni20BA" unicode="&#x20ba;" horiz-adv-x="591" 
d="M76 240l77 32l6 55l-78 -33l8 68l77 32l17 161h-73l10 95h267l-10 -95h-86l-12 -113l183 78l-7 -69l-183 -77l-6 -54l183 77l-7 -69l-183 -77l-16 -156h36q93 0 145 57t65 182h107q-16 -159 -98 -246.5t-228 -87.5h-218l10 95h73l11 109l-77 -32z" />
    <glyph glyph-name="uni20BD" unicode="&#x20bd;" horiz-adv-x="600" 
d="M58 95h73l5 50h-73l7 60h72l5 46h-73l11 94h72l22 210h-73l10 95h284q108 0 162 -45.5t54 -132.5q0 -108 -72 -164.5t-181 -56.5h-108l-5 -46h240l-6 -60h-240l-5 -50h103l-10 -95h-284zM355 345q75 0 109 27.5t34 87.5q0 49 -27.5 72t-93.5 23h-90l-22 -210h90z" />
    <glyph glyph-name="uni2113" unicode="&#x2113;" horiz-adv-x="418" 
d="M66 187l-30 59q7 4 33.5 17.5t39.5 21.5v181q0 83 43.5 138.5t132.5 55.5q73 0 108.5 -37.5t35.5 -92.5q0 -70 -55.5 -133t-156.5 -126v-98q0 -95 62 -95q42 0 89 30l15 -78q-49 -40 -123 -40q-72 0 -111.5 40.5t-39.5 122.5v56zM217 449v-96q110 79 110 157q0 60 -52 60
q-36 0 -47 -29t-11 -92z" />
    <glyph glyph-name="uni2116" unicode="&#x2116;" horiz-adv-x="978" 
d="M658 356q0 72 42 122t120 50q66 0 98.5 -36.5t32.5 -98.5q0 -76 -45 -123t-119 -47q-62 0 -95.5 34.5t-33.5 98.5zM49 82h57l38 357h-67l10 82h141l238 -331h4l26 249h-77l9 82h234l-9 -82h-59l-46 -439l-59 -1l-253 349h-4l-28 -266h76l-9 -82h-231zM741 363
q0 -39 11.5 -58.5t41.5 -19.5q39 0 57.5 29.5t18.5 76.5q0 76 -58 76q-71 0 -71 -104zM634 121l7 71h315l-8 -71h-314z" />
    <glyph glyph-name="uni2117" unicode="&#x2117;" horiz-adv-x="594" 
d="M358 -7q-103 0 -170.5 70t-67.5 173q0 119 87.5 206t204.5 87q104 0 170.5 -70.5t66.5 -173.5q0 -120 -87.5 -206t-203.5 -86zM362 49q96 0 162 68.5t66 165.5q0 81 -49 135t-134 54q-98 0 -163 -68.5t-65 -163.5q0 -82 49.5 -136.5t133.5 -54.5zM264 159h36l22 209h-35
l4 48h143q53 0 81 -24.5t28 -67.5q0 -52 -37 -82t-90 -30h-51l-5 -53h48l-4 -48h-144zM410 260q67 0 67 59q0 25 -12 37t-42 12h-41l-12 -108h40z" />
    <glyph glyph-name="uni2120" unicode="&#x2120;" horiz-adv-x="1001" 
d="M266 223q-45 0 -93.5 13t-72.5 33l13 103l62 -6l-3 -53q38 -19 84 -19q75 0 75 57q0 30 -22 43.5t-69 24.5q-72 15 -97 33q-40 27 -40 82q0 63 45.5 94t108.5 31q42 0 82 -12.5t61 -32.5l5 -94l-64 -6l-6 56q-35 20 -73 20q-65 0 -65 -48q0 -17 11.5 -28.5t24 -15
t40.5 -10.5q76 -19 102 -36q49 -33 50 -96q0 -64 -45 -98.5t-114 -34.5zM453 295h48v287h-54v68h127l155 -276h3l146 276h128v-68h-53v-287h47v-68h-174v68h40v182h-3l-116 -218h-38l-124 225h-3v-189h42v-68h-171v68z" />
    <glyph glyph-name="uni2122" unicode="&#x2122;" horiz-adv-x="1082" 
d="M1083 582h-53v-287h47v-68h-174v68h39v182h-3l-116 -218h-37l-125 225h-2v-189h42v-68h-171v68h47v287h-53v68h126l156 -276h3l146 276h128v-68zM512 503l-69 -5l-12 84h-83v-287h72v-68h-226v68h67v287h-84l-13 -84l-68 5l13 147h390z" />
    <glyph glyph-name="uni2126" unicode="&#x2126;" horiz-adv-x="686" 
d="M378 562q-97 0 -152 -58.5t-55 -146.5q0 -67 33.5 -112t96.5 -51l-21 -194h-260l9 90h171l4 40q-59 7 -102.5 65t-43.5 156q0 75 27.5 135t73.5 97.5t103 57t119 19.5q118 0 203 -68t85 -196q0 -105 -56 -182t-140 -84l-4 -40h168l-9 -90h-250l20 194q76 1 115 59t39 137
q0 84 -46 128t-128 44z" />
    <glyph glyph-name="uni212E" unicode="&#x212e;" horiz-adv-x="599" 
d="M602 235h-428q-4 0 -4 -3v-137q0 -9 6 -17q26 -32 67.5 -53.5t89.5 -21.5q114 0 185 84h24q-85 -99 -209 -99q-115 0 -191 73.5t-76 180.5t76 180.5t191 73.5t192 -73.5t77 -180.5v-7zM497 255v137q0 13 -5 18q-22 28 -67 49.5t-92 21.5t-92 -23t-64 -51q-7 -11 -7 -19
v-133q0 -4 4 -4h322q1 0 1 4z" />
    <glyph glyph-name="uni2153" unicode="&#x2153;" horiz-adv-x="753" 
d="M645 650l-220 -325l-213 -325h-73l229 337l204 313h73zM81 350h71l25 236h-72l7 64h155l-32 -300h67l-7 -64h-221zM551 249l-63 5l20 86q53 29 125 29q54 0 85 -23.5t31 -61.5q0 -61 -74 -89v-2q69 -15 69 -84q0 -53 -41.5 -84.5t-108.5 -31.5q-56 0 -92 24.5t-40 73.5
l63 20q11 -54 66 -54q31 0 47.5 15.5t16.5 41.5t-20 37.5t-62 13.5l5 48q80 5 80 55q0 37 -46 37q-24 0 -47 -12z" />
    <glyph glyph-name="uni2154" unicode="&#x2154;" horiz-adv-x="808" 
d="M173 534l-64 6l23 90q54 30 127 30q63 0 94 -26t31 -64q0 -16 -7 -33.5t-15.5 -32t-25.5 -32.5t-28.5 -28.5t-34 -27.5t-31.5 -23.5t-31.5 -22t-24.5 -16.5h123l8 50l70 -8l-16 -106h-288l-1 59q10 7 30.5 22.5t32.5 24t31 23.5t30.5 24.5t26.5 23t24 24.5t17.5 22.5
t12.5 22.5t4 21q0 39 -52 39q-29 0 -50 -13zM711 650l-220 -325l-213 -325h-73l229 337l204 313h73zM610 249l-63 5l20 86q53 29 125 29q54 0 85 -23.5t31 -61.5q0 -61 -74 -89v-2q69 -15 69 -84q0 -53 -41.5 -84.5t-108.5 -31.5q-56 0 -92 24.5t-40 73.5l63 20
q11 -54 66 -54q31 0 47.5 15.5t16.5 41.5t-20 37.5t-62 13.5l5 48q80 5 80 55q0 37 -46 37q-24 0 -47 -12z" />
    <glyph glyph-name="uni215B" unicode="&#x215b;" horiz-adv-x="735" 
d="M650 650l-220 -325l-213 -325h-73l229 337l204 313h73zM81 350h71l25 236h-72l7 64h155l-32 -300h67l-7 -64h-221zM566 -6q-58 0 -93 22.5t-35 65.5q0 38 23 59.5t63 38.5q-59 35 -59 83q0 47 40.5 77t104.5 30q55 0 88 -23t33 -61q0 -32 -20 -51.5t-56 -34.5
q70 -38 70 -94q0 -52 -44.5 -82t-114.5 -30zM556 274q0 -16 14 -27t42 -25q34 21 34 51q0 37 -42 37q-23 0 -35.5 -10.5t-12.5 -25.5zM576 54q27 0 43 12.5t16 29.5q0 4 -1 8t-2.5 7.5t-5 7.5t-5.5 6.5t-7.5 6t-8.5 5.5t-9.5 5.5t-9.5 5t-10.5 5.5t-10.5 6q-42 -25 -42 -59
q0 -21 13.5 -33.5t39.5 -12.5z" />
    <glyph glyph-name="uni2190" unicode="&#x2190;" horiz-adv-x="765" 
d="M343 23l-271 211v33l270 215v-95l-91 -91h550v-90h-550l92 -88v-95z" />
    <glyph glyph-name="uni2191" unicode="&#x2191;" horiz-adv-x="529" 
d="M319 709l211 -271h-94l-89 92v-550h-90v550l-91 -91h-94l214 270h33z" />
    <glyph glyph-name="uni2192" unicode="&#x2192;" horiz-adv-x="765" 
d="M730 234l-271 -211v95l91 88h-550v90h550l-90 91v95l270 -215v-33z" />
    <glyph glyph-name="uni2193" unicode="&#x2193;" horiz-adv-x="529" 
d="M530 250l-212 -270h-33l-213 270h94l90 -91v550h91v-550l89 91h94z" />
    <glyph glyph-name="uni2196" unicode="&#x2196;" horiz-adv-x="630" 
d="M94 605l341 -42l-66 -67l-128 2l390 -389l-65 -63l-389 387v-127l-67 -67l-38 343z" />
    <glyph glyph-name="uni2197" unicode="&#x2197;" horiz-adv-x="630" 
d="M267 563l341 42l23 -23l-39 -343l-67 67v128l-389 -388l-64 63l389 389l-127 -2z" />
    <glyph glyph-name="uni2198" unicode="&#x2198;" horiz-adv-x="630" 
d="M608 46l-341 42l67 67l127 -3l-389 390l64 63l389 -388v128l67 67l39 -344z" />
    <glyph glyph-name="uni2199" unicode="&#x2199;" horiz-adv-x="630" 
d="M435 88l-341 -42l-22 22l38 344l67 -67v-128l389 388l65 -63l-390 -390l128 3z" />
    <glyph glyph-name="uni2202" unicode="&#x2202;" horiz-adv-x="452" 
d="M85 307q0 52 30 93l-74 85l45 41l73 -83q42 29 89 29q49 0 84 -30l92 84l36 -41l-93 -86q15 -33 15 -65q0 -51 -33 -96l76 -87l-45 -41l-76 86q-41 -26 -86 -26q-46 0 -81 27l-95 -87l-36 41l95 88q-16 32 -16 68zM175 318q-1 -28 14 -46t38 -18q27 0 46 21.5t19 52.5
q0 26 -14.5 43t-37.5 17q-25 0 -44.5 -20t-20.5 -50z" />
    <glyph glyph-name="uni2206" unicode="&#x2206;" horiz-adv-x="527" 
d="M-10 0l315 661l166 -661h-481zM115 82h247l-83 355z" />
    <glyph glyph-name="uni220F" unicode="&#x220f;" horiz-adv-x="670" 
d="M28 95h73l48 460h-73l10 95h594l-10 -95h-73l-48 -460h73l-10 -95h-255l10 95h73l48 460h-230l-48 -460h72l-10 -95h-254z" />
    <glyph glyph-name="uni2211" unicode="&#x2211;" horiz-adv-x="547" 
d="M-28 -140l10 94l266 299l-203 302l10 95h484l-10 -95h-357l190 -281l-4 -34l-249 -286h357l-10 -94h-484z" />
    <glyph glyph-name="uni2212" unicode="&#x2212;" horiz-adv-x="438" 
d="M90 244l8 74h340l-8 -74h-340z" />
    <glyph glyph-name="uni221A" unicode="&#x221a;" horiz-adv-x="573" 
d="M239 0l-81 360h-116l9 81h179l67 -295l259 551h87l-333 -697h-71z" />
    <glyph glyph-name="uni221E" unicode="&#x221e;" horiz-adv-x="700" 
d="M516 79q-57 0 -89 30.5t-56 86.5q-34 -56 -71 -86.5t-94 -30.5q-67 0 -105.5 45t-38.5 112q0 81 53.5 138.5t130.5 57.5q57 0 87 -32.5t52 -92.5q39 60 78 92.5t96 32.5q65 0 101 -43.5t36 -112.5q0 -83 -51 -140t-129 -57zM223 158q38 0 66.5 24.5t59.5 71.5
q-20 48 -42 73t-61 25q-44 0 -70.5 -33t-26.5 -79q0 -37 19.5 -59.5t54.5 -22.5zM507 158q45 0 72.5 30t27.5 81q0 83 -73 83q-41 0 -70.5 -26t-58.5 -75q19 -45 41.5 -69t60.5 -24z" />
    <glyph glyph-name="uni222B" unicode="&#x222b;" horiz-adv-x="368" 
d="M-76 -140l9 89h41q54 0 73.5 22t26.5 88l46 436q10 101 54.5 147.5t149.5 46.5h46l-10 -90h-54q-50 0 -70.5 -21.5t-27.5 -85.5l-46 -438q-10 -99 -57 -146.5t-145 -47.5h-36z" />
    <glyph glyph-name="uni2248" unicode="&#x2248;" horiz-adv-x="594" 
d="M422 295q-43 0 -104.5 34t-96.5 34q-51 0 -96 -63l-55 41q72 120 164 120q37 0 95.5 -34t100.5 -34q30 0 52.5 15t51.5 57l62 -44q-77 -126 -174 -126zM400 86q-43 0 -104.5 34.5t-96.5 34.5q-49 0 -95 -63l-56 40q72 121 164 121q37 0 95.5 -34t101.5 -34q30 0 52.5 15
t50.5 57l62 -45q-78 -126 -174 -126z" />
    <glyph glyph-name="uni2260" unicode="&#x2260;" horiz-adv-x="538" 
d="M84 354l8 74h273l54 72h88l-52 -72h85l-8 -74h-130l-106 -147h220l-8 -75h-266l-52 -72h-97l53 72h-86l8 75h134l109 147h-227z" />
    <glyph glyph-name="uni2264" unicode="&#x2264;" horiz-adv-x="401" 
d="M339 96l-293 188l6 50l331 193l-10 -94l-212 -120l188 -123zM16 0l8 75h312l-7 -75h-313z" />
    <glyph glyph-name="uni2265" unicode="&#x2265;" horiz-adv-x="400" 
d="M102 526l292 -187l-5 -51l-331 -193l10 95l212 120l-188 122zM368 75l-7 -75h-313l7 75h313z" />
    <glyph glyph-name="uni24CA" unicode="&#x24ca;" horiz-adv-x="594" 
d="M358 -7q-103 0 -170.5 70t-67.5 173q0 119 87.5 206t204.5 87q104 0 170.5 -70.5t66.5 -173.5q0 -120 -87.5 -206t-203.5 -86zM362 49q96 0 162 68.5t66 165.5q0 81 -49 135t-134 54q-98 0 -163 -68.5t-65 -163.5q0 -82 49.5 -136.5t133.5 -54.5zM432 394h119l-5 -46h-27
l-12 -118q-6 -55 -39.5 -92t-99.5 -37q-63 0 -88.5 34.5t-20.5 88.5l13 124h-26l4 46h121l-5 -46h-35l-13 -122q-9 -77 58 -77t77 81l12 118h-37z" />
    <glyph glyph-name="uni25B2" unicode="&#x25b2;" horiz-adv-x="650" 
d="M650 23h-574l287 458z" />
    <glyph glyph-name="uni25B6" unicode="&#x25b6;" horiz-adv-x="591" 
d="M188 -35v575l459 -288z" />
    <glyph glyph-name="uni25B8" unicode="&#x25b8;" horiz-adv-x="418" 
d="M475 234l-287 -287v575z" />
    <glyph glyph-name="uni25BA" unicode="&#x25ba;" horiz-adv-x="905" 
d="M954 234l-774 -287v575z" />
    <glyph glyph-name="uni25BC" unicode="&#x25bc;" horiz-adv-x="650" 
d="M76 480h574l-287 -458z" />
    <glyph glyph-name="uni25C0" unicode="&#x25c0;" horiz-adv-x="591" 
d="M535 -35l-459 287l459 288v-575z" />
    <glyph glyph-name="uni25C2" unicode="&#x25c2;" horiz-adv-x="418" 
d="M362 -53l-286 288l286 287v-575z" />
    <glyph glyph-name="uni25C4" unicode="&#x25c4;" horiz-adv-x="906" 
d="M854 -53l-774 286l774 289v-575z" />
    <glyph glyph-name="uni25CA" unicode="&#x25ca;" horiz-adv-x="573" 
d="M286 -11l-228 331l299 340l225 -340zM300 112l182 208l-139 208l-184 -208z" />
    <glyph glyph-name="uni2610" unicode="&#x2610;" horiz-adv-x="879" 
d="M202 0v651h677v-651h-677zM286 567v-484h510v484h-510z" />
    <glyph glyph-name="uni2611" unicode="&#x2611;" horiz-adv-x="879" 
d="M202 0v651h677v-651h-677zM286 567v-484h510v484h-510zM419 325l70 -124l175 343l98 -60l-272 -363l-157 124z" />
    <glyph glyph-name="uni261A" unicode="&#x261a;" horiz-adv-x="957" 
d="M926 394v-352h-154q-2 16 -4 50q-145 -56 -225 -56q-20 0 -48.5 2.5t-46.5 5.5l-19 2q-12 -2 -56 -2q-33 0 -51 9.5t-18 36.5q0 16 15 31q-22 17 -22 40q0 17 11 28q-21 18 -21 40q0 11 6 21l-132 1q-31 0 -45 15t-14 36q0 23 14.5 37.5t44.5 14.5h168q-8 24 11 51
q33 3 76 18.5t64 15.5q74 0 141 -23.5t146 -68.5q1 15 5 47h154z" />
    <glyph glyph-name="uni261B" unicode="&#x261b;" horiz-adv-x="957" 
d="M164 42v352h154l4 -47q80 45 146.5 68.5t141.5 23.5q21 0 64 -15.5t76 -18.5q19 -27 11 -51h168q30 0 44.5 -14.5t14.5 -37.5q0 -21 -14 -36t-45 -15l-132 -1q6 -10 6 -21q0 -22 -21 -40q11 -11 11 -28q0 -23 -22 -40q15 -15 15 -31q0 -27 -18 -36.5t-51 -9.5
q-44 0 -56 2q-69 -10 -114 -10q-80 0 -225 56l-4 -50h-154z" />
    <glyph glyph-name="uni261C" unicode="&#x261c;" horiz-adv-x="927" 
d="M894 394v-352h-154q-2 16 -4 50q-145 -56 -225 -56q-20 0 -48.5 2.5t-46.5 5.5l-19 2q-12 -2 -56 -2q-33 0 -51 9.5t-18 36.5q0 16 15 31q-22 17 -22 40q0 17 11 28q-21 18 -21 40q0 11 6 21l-102 1q-31 0 -45 15t-14 36q0 23 14.5 37.5t44.5 14.5h148q-3 9 -3 19
q0 8 3.5 19.5t6.5 19.5l4 7q70 28 146 28q122 0 272 -96q2 30 4 43h154zM734 131q-3 51 -3 104q0 25 2 75q-57 33 -90.5 50.5t-89 36t-100.5 18.5q-64 0 -115 -29q-1 -8 -1 -13q0 -9 19 -9q55 15 94 15q27 0 48 -12q2 -5 7 -16.5t7 -15.5t6 -13t6.5 -13t6.5 -11t8 -12
t10 -11.5t12 -12.5q0 -18 -15 -31q-53 48 -72 87h-318q-23 0 -23 -16q0 -15 23 -15l298 -2q27 -27 27 -55q0 -18 -10 -34q10 -21 10 -36q0 -21 -17 -41q4 -15 4 -23q0 -13 -4 -22q1 -2 47 -2q73 0 223 59zM441 248h-148q-6 -13 -6 -19q0 -18 6 -18l152 -4q0 35 -4 41z
M443 180h-140q-7 -13 -7 -19q0 -14 7 -18l142 -4v17q0 22 -2 24zM429 112h-118q-6 -17 -6 -20q0 -6 10.5 -10.5t25.5 -4.5q21 0 31 1q6 0 17.5 0.5t15.5 0.5h23q2 4 2 16q0 15 -1 17z" />
    <glyph glyph-name="uni261D" unicode="&#x261d;" horiz-adv-x="535" 
d="M138 -98v154l50 4q-56 145 -56 225q0 20 2.5 48.5t5.5 46.5l2 19q-2 12 -2 56q0 33 9.5 51t36.5 18q16 0 31 -15q17 22 40 22q17 0 28 -11q18 21 40 21q11 0 21 -6l1 102q0 31 15 45t36 14q23 0 37.5 -14.5t14.5 -44.5v-148q9 3 19 3q8 0 19.5 -3.5t19.5 -6.5l7 -4
q28 -70 28 -146q0 -124 -96 -272l43 -4v-154h-352zM168 285q0 -73 59 -223q58 2 89 2q30 0 90 -2q32 56 50 90.5t36.5 90t18.5 100.5q0 64 -29 115q-8 1 -13 1q-9 0 -9 -19q15 -55 15 -94q0 -27 -12 -48q-5 -2 -16.5 -7t-15.5 -7t-13 -6t-13 -6.5t-11 -6.5t-12 -8t-11.5 -10
t-12.5 -12q-18 0 -31 15q48 53 87 72v318q0 23 -16 23q-15 0 -15 -23l-2 -298q-27 -27 -55 -27q-18 0 -34 10q-21 -10 -36 -10q-21 0 -41 17q-15 -4 -23 -4q-13 0 -22 4q-2 -1 -2 -47zM344 355v148q-13 6 -19 6q-18 0 -18 -6l-4 -152q35 0 41 4zM276 353v140q-13 7 -19 7
q-14 0 -18 -7l-4 -142h17q22 0 24 2zM208 367v118q-17 6 -20 6q-6 0 -10.5 -10.5t-4.5 -25.5q0 -21 1 -31q0 -6 0.5 -17.5t0.5 -15.5v-23q4 -2 16 -2q15 0 17 1z" />
    <glyph glyph-name="uni261E" unicode="&#x261e;" horiz-adv-x="927" 
d="M166 42v352h154l4 -43q150 96 272 96q76 0 146 -28q14 -27 14 -46q0 -10 -3 -19h148q30 0 44.5 -14.5t14.5 -37.5q0 -21 -14 -36t-45 -15l-102 -1q6 -10 6 -21q0 -22 -21 -40q11 -11 11 -28q0 -23 -22 -40q15 -15 15 -31q0 -27 -18 -36.5t-51 -9.5q-44 0 -56 2
q-69 -10 -114 -10q-80 0 -225 56l-4 -50h-154zM607 415q-45 0 -100.5 -18.5t-90 -36.5t-90.5 -50q2 -60 2 -90q0 -31 -2 -89q149 -59 223 -59l47 2q-4 9 -4 22l4 23q-17 20 -17 41q0 7 2.5 16t4.5 14l3 6q-10 16 -10 34q0 28 27 55l298 2q23 0 23 15q0 16 -23 16h-318
q-19 -39 -72 -87q-15 14 -15 31q7 7 13 13.5t11.5 14.5t8.5 12t8 15t6.5 14t7.5 17.5t8 18.5q21 12 48 12q39 0 94 -15q19 0 19 9l-1 13q-51 29 -115 29zM767 248h-148q-4 -6 -4 -41l152 4q6 0 6 18zM757 180h-140q-2 -2 -2 -24v-17l142 4q7 4 7 18zM749 112h-118
q-1 -2 -1 -17q0 -12 2 -16h23q4 0 15.5 -0.5t17.5 -0.5q10 -1 31 -1q15 0 25.5 4.5t10.5 10.5z" />
    <glyph glyph-name="uni261F" unicode="&#x261f;" horiz-adv-x="536" 
d="M138 696h352v-154q-13 -2 -43 -4q96 -150 96 -272q0 -76 -28 -146q-27 -14 -46 -14q-10 0 -19 3v-148q0 -30 -14.5 -44.5t-37.5 -14.5q-21 0 -36 14t-15 45l-1 102q-10 -6 -21 -6q-22 0 -40 21q-11 -11 -28 -11q-23 0 -40 22q-15 -15 -31 -15q-27 0 -36.5 18t-9.5 51
q0 44 2 56q-10 69 -10 114q0 80 56 225q-34 2 -50 4v154zM406 535q-50 -2 -75 -2q-53 0 -104 3q-59 -150 -59 -223l2 -47q9 4 22 4l23 -4q20 17 41 17q7 0 16 -2.5t14 -4.5l6 -3q16 10 34 10q28 0 55 -27l2 -298q0 -23 15 -23q16 0 16 23v318q-39 19 -87 72q13 15 31 15
q7 -7 13.5 -13t14.5 -11.5t12 -8.5t15 -8t14 -6.5t17.5 -7.5t18.5 -8q12 -21 12 -48q0 -39 -15 -94q0 -19 9 -19l13 1q29 51 29 115q0 45 -18.5 100.5t-36 89t-50.5 90.5zM344 95v148q-6 4 -41 4l4 -152q0 -6 18 -6zM276 105v140q-2 2 -24 2h-17l4 -142q4 -7 18 -7zM208 113
v118q-2 1 -17 1q-12 0 -16 -2v-23q0 -4 -0.5 -15.5t-0.5 -17.5q-1 -10 -1 -31q0 -15 4.5 -25.5t10.5 -10.5z" />
    <glyph glyph-name="uni267E" unicode="&#x267e;" horiz-adv-x="594" 
d="M358 -7q-103 0 -170.5 70t-67.5 173q0 119 87.5 206t204.5 87q104 0 170.5 -70.5t66.5 -173.5q0 -120 -87.5 -206t-203.5 -86zM362 49q96 0 162 68.5t66 165.5q0 81 -49 135t-134 54q-98 0 -163 -68.5t-65 -163.5q0 -82 49.5 -136.5t133.5 -54.5zM458 157
q-31 0 -47.5 18.5t-29.5 51.5q-19 -34 -39 -52t-50 -18q-36 0 -56.5 26.5t-20.5 68.5q0 51 29.5 86t70.5 35q30 0 46.5 -19.5t26.5 -55.5q15 24 26 37.5t29.5 25.5t39.5 12q34 0 53.5 -26t19.5 -68q0 -53 -27.5 -87.5t-70.5 -34.5zM471 323q-23 0 -38.5 -16t-32.5 -46
q18 -55 56 -55q23 0 38 18.5t15 49.5q0 49 -38 49zM300 206q34 0 68 57q-20 60 -54 60q-24 0 -38.5 -19t-14.5 -48q0 -50 39 -50z" />
    <glyph glyph-name="uni2713" unicode="&#x2713;" horiz-adv-x="683" 
d="M300 348l81 -144l204 398l114 -70l-317 -421l-182 144z" />
    <glyph glyph-name="uni301A" unicode="&#x301a;" horiz-adv-x="460" 
d="M38 -235l106 1007h363l-8 -74h-112l-90 -859h112l-8 -74h-363zM225 698l-90 -859h74l90 859h-74z" />
    <glyph glyph-name="uni301B" unicode="&#x301b;" horiz-adv-x="459" 
d="M409 772l-106 -1007h-363l8 74h112l90 859h-112l8 74h363zM312 698h-74l-90 -859h74z" />
    <glyph glyph-name="uniF8FF" unicode="&#xf8ff;" horiz-adv-x="1241" 
d="M771 338h-11v39h-19v-39h-11v70h11v-20h20v-10h10v-40zM361 377h-11v10h-10v11h11v-10h10v-11zM1101 387h-10v-10h-11v11h10v10h11v-11zM411 387h-10v-10h-11v11h10v10h11v-11zM1051 377h-11v10h-10v11h11v-10h10v-11zM471 338h-21v9h-10v30h-10v11h10v10h11v-10h20v-11
h-20v-29h20v-10zM711 338h-21v9h-10v30h-10v11h10v10h11v-10h20v-11h-20v-29h20v-10zM591 347h-10v-9h-20v-20h-11v70h31v-10h10v-31zM1181 377h-11v11h11v-11zM271 377h-11v11h11v-11zM1141 377h-11v11h11v-11zM311 377h-11v11h11v-11zM531 347h-10v-9h-10v-10h-10v-10h-11
v11h10v18h-10v41h11v-40h19v40h11v-41zM1011 338h-31v9h-10v31h10v10h21v-10h10v-21h-30v-9h30v-10zM951 338h-31v9h-10v41h11v-40h19v40h11v-50zM891 318h-11v20h-20v9h-10v31h10v10h31v-70zM831 338h-31v9h-10v31h10v10h21v-10h10v-21h-30v-9h30v-10zM651 347h-10v-9h-21
v9h-10v31h10v10h21v-10h10v-31zM1241 357h-10v-10h-11v10h-10v11h10v10h11v-10h10v-11zM1081 357h-10v-10h-11v10h-10v11h10v10h11v-10h10v-11zM391 357h-10v-10h-11v10h-10v11h10v10h11v-10h10v-11zM1171 357h-10v-10h-11v10h-10v11h10v10h11v-10h10v-11zM301 357h-10v-10
h-11v10h-10v11h10v10h11v-10h10v-11zM231 357h-10v-10h-11v10h-10v11h10v10h11v-10h10v-11zM1000 368v9h-19v-9h19zM880 348v29h-19v-29h19zM820 368v9h-19v-9h19zM640 348v29h-19v-29h19zM580 348v29h-19v-29h19zM1051 338h-10v-10h-11v10h10v10h11v-10zM1101 328h-11v10
h-10v10h11v-10h10v-10zM411 328h-11v10h-10v10h11v-10h10v-10zM1141 338h-11v10h11v-10zM361 338h-10v-10h-11v10h10v10h11v-10zM311 338h-11v10h11v-10zM1181 338h-11v10h11v-10zM271 338h-11v10h11v-10z" />
    <glyph glyph-name="uni0030.zero" horiz-adv-x="566" 
d="M64 223q0 132 74.5 219t203.5 87q108 0 163.5 -64.5t55.5 -178.5q0 -138 -75 -217t-200 -79q-105 0 -163.5 59t-58.5 174zM182 234q0 -75 25 -110.5t87 -35.5q70 0 111 48t41 151q0 75 -26.5 109.5t-89.5 34.5q-148 0 -148 -197zM360 320l-12 -110h-80l12 110h80z" />
    <glyph glyph-name="Iacute_Jacute" horiz-adv-x="784" 
d="M367 727l-215 -33l-12 49l204 83zM814 727l-215 -33l-12 49l204 83zM517 650h285l-10 -95h-62l-40 -377q-10 -92 -62.5 -140t-136.5 -48q-127 0 -163 114l81 59q22 -70 83 -70q82 0 91 84l40 378h-116zM30 95h72l48 460h-72l10 95h250l-10 -95h-72l-48 -460h72l-10 -95
h-250z" />
    <glyph glyph-name="iacute_jacute" horiz-adv-x="519" 
d="M594 609l-195 -97l-25 43l170 138zM334 609l-195 -97l-25 43l170 138zM319 425l27 24h161l-55 -446q-13 -105 -50.5 -164.5t-100.5 -60.5q-47 -1 -91 25l4 71q56 -23 89.5 2.5t46.5 126.5l44 363h-83zM60 425l27 24h146l-44 -367h63l-7 -60l-27 -22h-142l45 366h-69z" />
    <glyph glyph-name="uni0069.TRK" horiz-adv-x="267" 
d="M142 542l13 118h102l-12 -118h-103zM60 425l27 24h146l-44 -367h63l-7 -60l-27 -22h-142l45 366h-69z" />
    <glyph glyph-name="FL989" horiz-adv-x="650" 
d="M421 693l-175 133l62 71l146 -169zM311 694l-204 33l26 91l190 -75zM-29 95h58l238 460h-92l10 95h200l169 -555h60l-10 -95h-239l10 95h63l-22 89h-235l-43 -89h71l-10 -95h-237zM331 491l-110 -226h174l-58 226h-6z" />
    <glyph glyph-name="FL990" horiz-adv-x="515" 
d="M409 512l-156 156l76 59l118 -185zM295 512l-194 97l50 81l168 -135zM499 449q-27 -91 -34 -152l-27 -215h61l-7 -60l-26 -22h-124l-2 91q-51 -101 -149 -101q-71 0 -110 52.5t-39 138.5q0 47 12 94t35.5 89t65.5 68t95 26q100 0 129 -84q12 50 21 75h99zM265 375
q-57 0 -84.5 -53.5t-27.5 -127.5q0 -122 77 -122q43 0 76 39t44 89l8 61q2 51 -25 82.5t-68 31.5z" />
    <glyph glyph-name="FL991" horiz-adv-x="650" 
d="M307 696h-84q13 131 144 131q130 0 117 -131h-84q8 65 -39 65t-54 -65zM-29 95h58l238 460h-92l10 95h200l169 -555h60l-10 -95h-239l10 95h63l-22 89h-235l-43 -89h71l-10 -95h-237zM331 491l-110 -226h174l-58 226h-6z" />
    <glyph glyph-name="FL992" horiz-adv-x="515" 
d="M269 522h-84q7 66 45.5 99t100.5 33t92 -33.5t23 -98.5h-84q8 66 -39 66q-46 0 -54 -66zM499 449q-27 -91 -34 -152l-27 -215h61l-7 -60l-26 -22h-124l-2 91q-51 -101 -149 -101q-71 0 -110 52.5t-39 138.5q0 47 12 94t35.5 89t65.5 68t95 26q100 0 129 -84q12 50 21 75
h99zM265 375q-57 0 -84.5 -53.5t-27.5 -127.5q0 -122 77 -122q43 0 76 39t44 89l8 61q2 51 -25 82.5t-68 31.5z" />
    <glyph glyph-name="FL993" horiz-adv-x="570" 
d="M465 693l-175 133l62 71l146 -169zM355 694l-204 33l26 91l190 -75zM501 0h-481l9 95h74l48 460h-73l10 95h476v-188l-92 -8l-9 101h-206l-19 -180h283l-10 -95h-283l-19 -185h211l30 101l90 -8z" />
    <glyph glyph-name="FL994" horiz-adv-x="441" 
d="M392 512l-156 156l76 59l118 -185zM278 512l-194 97l50 81l168 -135zM242 72q72 0 99 80l83 -17q-12 -61 -64.5 -103t-133.5 -42q-85 0 -135.5 50.5t-50.5 148.5q0 114 65 191.5t172 77.5q68 0 112 -33t44 -86t-37 -87t-123 -52q-47 -11 -121 -19q2 -54 23 -81.5
t67 -27.5zM222 256q61 12 82 31t21 45q0 51 -61 51q-49 0 -75 -39t-34 -99q3 0 67 11z" />
    <glyph glyph-name="FL995" horiz-adv-x="570" 
d="M322 696h-84q13 131 144 131q130 0 117 -131h-84q8 65 -39 65t-54 -65zM501 0h-481l9 95h74l48 460h-73l10 95h476v-188l-92 -8l-9 101h-206l-19 -180h283l-10 -95h-283l-19 -185h211l30 101l90 -8z" />
    <glyph glyph-name="FL996" horiz-adv-x="441" 
d="M249 522h-84q7 66 45.5 99t100.5 33t92 -33.5t23 -98.5h-84q8 66 -39 66q-46 0 -54 -66zM242 72q72 0 99 80l83 -17q-12 -61 -64.5 -103t-133.5 -42q-85 0 -135.5 50.5t-50.5 148.5q0 114 65 191.5t172 77.5q68 0 112 -33t44 -86t-37 -87t-123 -52q-47 -11 -121 -19
q2 -54 23 -81.5t67 -27.5zM222 256q61 12 82 31t21 45q0 51 -61 51q-49 0 -75 -39t-34 -99q3 0 67 11z" />
    <glyph glyph-name="FL997" horiz-adv-x="328" 
d="M332 693l-175 133l62 71l146 -169zM222 694l-204 33l26 91l190 -75zM29 95h72l48 460h-72l10 95h250l-10 -95h-72l-48 -460h72l-10 -95h-250z" />
    <glyph glyph-name="FL998" horiz-adv-x="267" 
d="M166 512l-156 156l76 59l118 -185zM52 512l-194 97l50 81l168 -135zM-37 425l27 24h146l-44 -367h63l-7 -60l-27 -22h-142l45 366h-69z" />
    <glyph glyph-name="FL999" horiz-adv-x="328" 
d="M178 696h-84q13 131 144 131q130 0 117 -131h-84q8 65 -39 65t-54 -65zM30 95h72l48 460h-72l10 95h250l-10 -95h-72l-48 -460h72l-10 -95h-250z" />
    <glyph glyph-name="FL1000" horiz-adv-x="267" 
d="M138 522h-84q7 66 45.5 99t100.5 33q128 0 115 -132h-84q8 66 -39 66q-46 0 -54 -66zM60 425l27 24h146l-44 -367h63l-7 -60l-27 -22h-142l45 366h-69z" />
    <glyph glyph-name="FL1001" horiz-adv-x="694" 
d="M560 693l-175 133l62 71l146 -169zM450 694l-204 33l26 91l190 -75zM418 660q131 0 209 -86t78 -214q0 -153 -102 -261.5t-255 -108.5q-132 0 -208 86t-76 214q0 155 102 262.5t252 107.5zM364 88q105 0 165 77.5t60 186.5q0 97 -49 153.5t-134 56.5q-101 0 -163.5 -76
t-62.5 -186q0 -90 46 -151t138 -61z" />
    <glyph glyph-name="FL1002" horiz-adv-x="482" 
d="M382 512l-156 156l76 59l118 -185zM268 512l-194 97l50 81l168 -135zM42 192q0 111 62 188.5t176 77.5q97 0 144 -56.5t47 -150.5q0 -115 -66 -188t-175 -73q-91 0 -139.5 53.5t-48.5 148.5zM153 200q0 -62 19.5 -95t67.5 -33q62 0 91.5 49.5t29.5 126.5q0 64 -21.5 95.5
t-70.5 31.5q-116 0 -116 -175z" />
    <glyph glyph-name="FL1003" horiz-adv-x="695" 
d="M385 696h-84q13 131 144 131q130 0 117 -131h-84q8 65 -39 65t-54 -65zM418 660q131 0 209 -86t78 -214q0 -153 -102 -261.5t-255 -108.5q-132 0 -208 86t-76 214q0 155 102 262.5t252 107.5zM364 88q105 0 165 77.5t60 186.5q0 97 -49 153.5t-134 56.5
q-101 0 -163.5 -76t-62.5 -186q0 -90 46 -151t138 -61z" />
    <glyph glyph-name="FL1004" horiz-adv-x="482" 
d="M245 522h-84q7 66 45.5 99t100.5 33t92 -33.5t23 -98.5h-84q8 66 -39 66q-46 0 -54 -66zM42 192q0 111 62 188.5t176 77.5q97 0 144 -56.5t47 -150.5q0 -115 -66 -188t-175 -73q-91 0 -139.5 53.5t-48.5 148.5zM153 200q0 -62 19.5 -95t67.5 -33q62 0 91.5 49.5
t29.5 126.5q0 64 -21.5 95.5t-70.5 31.5q-116 0 -116 -175z" />
    <glyph glyph-name="FL1009" horiz-adv-x="692" 
d="M566 693l-175 133l62 71l146 -169zM456 694l-204 33l26 91l190 -75zM523 650h238l-10 -95h-59l-30 -287q-6 -56 -23 -102.5t-48.5 -87.5t-85 -64.5t-124.5 -23.5q-134 0 -190.5 76t-44.5 191l31 298h-59l10 95h244l-10 -95h-78l-31 -295q-9 -81 24 -126.5t112 -45.5
q155 0 174 180l30 287h-79z" />
    <glyph glyph-name="FL1010" horiz-adv-x="534" 
d="M382 512l-156 156l76 59l118 -185zM268 512l-194 97l50 81l168 -135zM518 82l-7 -58l-28 -24h-129l-3 86q-50 -95 -146 -95q-66 0 -103 41t-27 120l26 214h-65l8 61l26 22h143l-32 -258q-8 -62 10 -90t61 -28q44 0 71 30t36 78l33 268h102l-44 -367h68z" />
    <glyph glyph-name="FL1011" horiz-adv-x="692" 
d="M403 696h-84q13 131 144 131q130 0 117 -131h-84q8 65 -39 65t-54 -65zM523 650h238l-10 -95h-59l-30 -287q-6 -56 -23 -102.5t-48.5 -87.5t-85 -64.5t-124.5 -23.5q-134 0 -190.5 76t-44.5 191l31 298h-59l10 95h244l-10 -95h-78l-31 -295q-9 -81 24 -126.5t112 -45.5
q155 0 174 180l30 287h-79z" />
    <glyph glyph-name="FL1012" horiz-adv-x="535" 
d="M257 522h-84q7 66 45.5 99t100.5 33t92 -33.5t23 -98.5h-84q8 66 -39 66q-46 0 -54 -66zM518 82l-7 -58l-28 -24h-129l-3 86q-50 -95 -146 -95q-66 0 -103 41t-27 120l26 214h-65l8 61l26 22h143l-32 -258q-8 -62 10 -90t61 -28q44 0 71 30t36 78l33 268h102l-44 -367h68
z" />
    <glyph glyph-name="uni00BF.cap" horiz-adv-x="458" 
d="M357 654l-13 -127h-125l13 127h125zM343 196l83 -8l-31 -141q-95 -52 -189 -52q-81 0 -131.5 35t-50.5 97q0 49 34 86.5t74.5 56.5t74.5 43t34 48q0 29 -41 29l7 68q149 16 149 -82q0 -36 -21.5 -63.5t-52.5 -44.5t-62.5 -32.5t-53 -36.5t-21.5 -49t22 -43t60 -15
q54 0 93 24z" />
    <glyph glyph-name="uni003F.smcp" horiz-adv-x="395" 
d="M153 359l-75 5l28 126q78 39 159 39q72 0 115.5 -29t43.5 -80q0 -39 -28 -68t-61.5 -43t-61.5 -32t-28 -36q0 -23 33 -23l-6 -58q-137 -14 -137 67q0 36 27 61.5t59 37t59 31t27 43.5q0 45 -64 45q-40 0 -70 -17zM137 0l11 112h116l-12 -112h-115z" />
    <glyph glyph-name="uni00BF.smcp" horiz-adv-x="400" 
d="M313 524l-11 -112h-116l12 112h115zM297 165l75 -5l-28 -126q-78 -39 -159 -39q-72 0 -115.5 29t-43.5 80q0 39 28 68t61.5 43t61.5 32t28 36q0 23 -33 23l6 58q137 14 137 -67q0 -36 -27 -61.5t-59 -37t-59 -31t-27 -43.5q0 -45 64 -45q40 0 70 17z" />
    <glyph glyph-name="uni00A1.cap" horiz-adv-x="249" 
d="M257 654l-13 -127h-125l13 127h125zM68 4l70 433h77l-22 -433h-125z" />
    <glyph glyph-name="uni0021.smcp" horiz-adv-x="239" 
d="M240 521l-60 -343h-73l13 343h120zM70 0l12 112h115l-12 -112h-115z" />
    <glyph glyph-name="uni00A1.smcp" horiz-adv-x="239" 
d="M232 524l-12 -112h-115l12 112h115zM62 3l60 343h73l-13 -343h-120z" />
    <glyph glyph-name="uni203D.smcp" horiz-adv-x="606" 
d="M362 380l-73 20l37 110q48 16 106 16q82 0 140.5 -33.5t58.5 -97.5q0 -37 -23 -64t-57.5 -43.5t-70.5 -31t-66.5 -36.5t-40.5 -51l-65 22q4 33 27 58t52.5 40t58 28t48.5 30.5t20 40.5q0 30 -28.5 43t-56.5 13q-18 0 -41 -7zM290 187l-69 -28l-137 319l113 46zM230 0
l11 112h115l-12 -112h-114z" />
    <glyph glyph-name="uni002D.cap" horiz-adv-x="326" 
d="M107 384h232l-9 -90h-232z" />
    <glyph glyph-name="uni2013.cap" horiz-adv-x="590" 
d="M111 380h492l-7 -72h-492z" />
    <glyph glyph-name="uni2014.cap" horiz-adv-x="1025" 
d="M116 380h921l-8 -72h-921z" />
    <glyph glyph-name="uni002F.smcp" horiz-adv-x="318" 
d="M314 520l-226 -520h-94l227 520h93z" />
    <glyph glyph-name="uni005C.smcp" horiz-adv-x="413" 
d="M90 520h93l227 -520h-94z" />
    <glyph glyph-name="uni0028.cap" horiz-adv-x="271" 
d="M248 688h95q-99 -111 -144 -208.5t-45 -207.5q0 -177 112 -325h-97q-105 145 -105 322q0 210 184 419z" />
    <glyph glyph-name="uni0029.cap" horiz-adv-x="271" 
d="M33 -53h-95q99 111 144 208.5t45 207.5q0 177 -112 325h97q105 -145 105 -322q0 -210 -184 -419z" />
    <glyph glyph-name="uni005B.cap" horiz-adv-x="293" 
d="M70 -84l86 817h201l-8 -74h-112l-70 -669h112l-8 -74h-201z" />
    <glyph glyph-name="uni005D.cap" horiz-adv-x="293" 
d="M249 733l-86 -817h-201l8 74h112l70 669h-112l8 74h201z" />
    <glyph glyph-name="uni007B.cap" horiz-adv-x="296" 
d="M144 326q52 -7 76.5 -30.5t24.5 -53.5q0 -24 -16 -48t-35 -41.5t-35 -47t-16 -62.5q0 -54 56 -54h63l-7 -73h-63q-70 0 -103 33t-33 86q0 40 16 74t34.5 53t34.5 42t16 43q0 30 -29 42t-61 12h-19l6 51h19q20 0 40.5 3.5t41 19t20.5 40.5q0 20 -30.5 69.5t-30.5 97.5
q0 67 40.5 109t123.5 42h63l-8 -74h-63q-70 0 -70 -76q0 -40 32 -87.5t32 -73.5q0 -33 -29 -60.5t-91 -35.5z" />
    <glyph glyph-name="uni007D.cap" horiz-adv-x="296" 
d="M175 323q-52 7 -76.5 30.5t-24.5 53.5q0 24 16 48t35 41.5t35 47t16 62.5q0 54 -56 54h-63l7 73h63q70 0 103 -33t33 -86q0 -40 -16 -74t-34.5 -53t-34.5 -42t-16 -43q0 -30 29 -42t61 -12h19l-6 -51h-19q-20 0 -40.5 -3.5t-41 -19t-20.5 -40.5q0 -20 30.5 -69.5
t30.5 -97.5q0 -67 -40.5 -109t-123.5 -42h-63l8 74h63q70 0 70 76q0 40 -32 87.5t-32 73.5q0 33 29 60.5t91 35.5z" />
    <glyph glyph-name="uni301A.cap" horiz-adv-x="455" 
d="M70 -85l86 818h363l-7 -74h-112l-71 -670h112l-8 -74h-363zM237 659l-70 -670h74l70 670h-74z" />
    <glyph glyph-name="uni301B.cap" horiz-adv-x="455" 
d="M413 733l-86 -818h-363l7 74h112l71 670h-112l8 74h363zM316 659h-74l-70 -670h74z" />
    <glyph glyph-name="dblparenleft" horiz-adv-x="437" 
d="M260 718h95q-214 -244 -214 -506q0 -221 119 -395h-97q-111 177 -111 391q0 270 208 510zM416 718h95q-214 -244 -214 -506q0 -221 119 -395h-97q-112 177 -112 391q0 269 209 510z" />
    <glyph glyph-name="dblparenleft.cap" horiz-adv-x="423" 
d="M248 688h95q-99 -111 -144 -208.5t-45 -207.5q0 -177 112 -325h-97q-105 145 -105 322q0 210 184 419zM401 688h94q-99 -111 -144 -208.5t-45 -207.5q0 -177 112 -325h-96q-105 145 -105 322q0 210 184 419z" />
    <glyph glyph-name="dblparenright" horiz-adv-x="437" 
d="M151 -183h-95q214 244 214 506q0 221 -119 395h97q111 -177 111 -391q0 -270 -208 -510zM-5 -183h-95q214 244 214 506q0 221 -119 395h97q112 -177 112 -391q0 -269 -209 -510z" />
    <glyph glyph-name="dblparenright.cap" horiz-adv-x="424" 
d="M185 -53h-95q99 111 144 208.5t45 207.5q0 177 -112 325h97q105 -145 105 -322q0 -210 -184 -419zM32 -53h-94q99 111 144 208.5t45 207.5q0 177 -112 325h96q105 -145 105 -322q0 -210 -184 -419z" />
    <glyph glyph-name="uni00B6.smcp" horiz-adv-x="545" 
d="M260 521h311l-8 -78h-54l-47 -443h-94l47 443h-35l-47 -443h-94l26 249h-39q-71 0 -113.5 29.5t-42.5 93.5t51 106.5t139 42.5z" />
    <glyph glyph-name="uni0023.pnum_lnum" horiz-adv-x="565" 
d="M564 652l-49 -168h64l-10 -83h-79l-40 -138h75l-9 -83h-91l-52 -180h-91l52 180h-143l-53 -180h-90l52 180h-56l9 83h72l40 138h-69l10 83h84l49 168h91l-50 -168h144l49 168h91zM215 263h144l40 138h-143z" />
    <glyph glyph-name="uni0025.pnum_lnum" horiz-adv-x="673" 
d="M237 344q-62 0 -98.5 38t-36.5 102q0 75 49.5 125.5t124.5 50.5q64 0 98.5 -38t34.5 -100q0 -76 -49 -127t-123 -51zM676 651l-237 -322l-226 -329h-109l265 354l199 297h108zM246 420q34 0 54.5 25t20.5 69q0 70 -56 70q-33 0 -54 -24t-21 -70q0 -70 56 -70zM512 -10
q-62 0 -98.5 37.5t-36.5 100.5q0 77 49.5 127.5t124.5 50.5q63 0 98 -38t35 -100q0 -76 -49 -127t-123 -51zM521 66q35 0 55 24.5t20 69.5q0 70 -56 70q-34 0 -54.5 -24t-20.5 -70q0 -70 56 -70z" />
    <glyph glyph-name="uni2030.pnum_lnum" horiz-adv-x="991" 
d="M237 344q-62 0 -98.5 38t-36.5 102q0 75 49.5 125.5t124.5 50.5q64 0 98.5 -38t34.5 -100q0 -76 -49 -127t-123 -51zM676 651l-237 -322l-226 -329h-109l265 354l199 297h108zM246 420q34 0 54.5 25t20.5 69q0 70 -56 70q-33 0 -54 -24t-21 -70q0 -70 56 -70zM512 -10
q-62 0 -98.5 37.5t-36.5 100.5q0 77 49.5 127.5t124.5 50.5q63 0 98 -38t35 -100q0 -76 -49 -127t-123 -51zM831 -10q-62 0 -98 37.5t-36 100.5q0 76 50 127t124 51q63 0 97.5 -38t34.5 -100q0 -76 -48.5 -127t-123.5 -51zM521 66q35 0 55 24.5t20 69.5q0 70 -56 70
q-34 0 -54.5 -24t-20.5 -70q0 -70 56 -70zM841 66q35 0 55 24.5t20 69.5q0 70 -55 70q-34 0 -54.5 -24.5t-20.5 -69.5q0 -70 55 -70z" />
    <glyph glyph-name="uni00AA.smcp" horiz-adv-x="418" 
d="M91 455h34l110 185h-44l6 57h135l86 -242h34l-6 -58h-138l6 58h27l-10 32h-117l-17 -32h31l-6 -58h-136zM286 620l-49 -91h81l-29 91h-3z" />
    <glyph glyph-name="uni201C.smcp" horiz-adv-x="391" 
d="M265 549l-81 -228h-102l80 228h103zM433 549l-81 -228h-102l80 228h103z" />
    <glyph glyph-name="uni201D.smcp" horiz-adv-x="391" 
d="M82 322l81 228h102l-80 -228h-103zM250 322l81 228h102l-80 -228h-103z" />
    <glyph glyph-name="uni2018.smcp" horiz-adv-x="223" 
d="M265 549l-81 -228h-102l80 228h103z" />
    <glyph glyph-name="uni2019.smcp" horiz-adv-x="223" 
d="M82 322l81 228h102l-80 -228h-103z" />
    <glyph glyph-name="uni203A.cap" horiz-adv-x="290" 
d="M121 85h-87l145 246l-94 240h87l111 -240z" />
    <glyph glyph-name="uni2039.cap" horiz-adv-x="289" 
d="M267 85h-88l-109 246l160 240h88l-145 -240z" />
    <glyph glyph-name="uni00AB.cap" horiz-adv-x="454" 
d="M267 85h-88l-109 246l160 240h88l-145 -240zM431 85h-87l-109 246l160 240h88l-145 -240z" />
    <glyph glyph-name="uni00BB.cap" horiz-adv-x="455" 
d="M286 85h-87l145 246l-94 240h87l111 -240zM122 85h-88l145 246l-94 240h88l110 -240z" />
    <glyph glyph-name="uni00B7.smcp" horiz-adv-x="232" 
d="M90 196l14 139h128l-14 -139h-128z" />
    <glyph glyph-name="uni00660069" horiz-adv-x="533" 
d="M318 449l-45 -367h64l-8 -60l-26 -22h-143l45 366h-164l-49 -403q-23 -185 -166 -185q-63 0 -100.5 34.5t-36.5 105.5l81 24q-1 -82 52 -82t67 105l49 401h-80l5 56l30 27h55l9 73q10 79 61 127.5t145 48.5q91 0 154 -37l7 -119l-83 -9l-12 71q-28 13 -64 13
q-54 0 -76 -22.5t-28 -69.5l-10 -76h267z" />
    <glyph glyph-name="uni0066006C" horiz-adv-x="530" 
d="M346 688l-74 -606h65l-8 -60l-26 -22h-144l66 544q0 34 -21 53.5t-57 19.5q-75 0 -85 -85l-11 -83h116l-7 -55l-30 -28h-89l-49 -403q-23 -185 -166 -185q-63 0 -100.5 34.5t-36.5 105.5l81 24q-1 -82 52 -82t67 105l50 401h-81l5 56l30 27h56l11 87q9 79 56 120.5
t112 41.5q75 0 109 -59l6 49h103z" />
    <glyph glyph-name="uni00B4.cap" horiz-adv-x="269" 
d="M459 727l-215 -33l-12 49l204 83z" />
    <glyph glyph-name="uni02D8.cap" horiz-adv-x="342" 
d="M411 827h84q-14 -131 -145 -131q-63 0 -93 33t-23 98h84q-8 -65 39 -65q46 0 54 65z" />
    <glyph glyph-name="uni02C7.cap" horiz-adv-x="334" 
d="M339 691l-119 100l28 45l120 -62l126 63l21 -46l-140 -100h-36z" />
    <glyph glyph-name="uni02C6.cap" horiz-adv-x="334" 
d="M383 837l118 -100l-28 -46l-120 61l-125 -61l-22 45l141 101h36z" />
    <glyph glyph-name="uni00A8.cap" horiz-adv-x="382" 
d="M246 710l12 115h108l-11 -115h-109zM422 710l12 115h109l-12 -115h-109z" />
    <glyph glyph-name="uni02D9.cap" horiz-adv-x="180" 
d="M222 710l12 115h109l-12 -115h-109z" />
    <glyph glyph-name="uni02DD.cap" horiz-adv-x="409" 
d="M487 826l-175 -133l-32 35l146 169zM627 727l-204 -33l-12 49l194 80z" />
    <glyph glyph-name="uni0060.cap" horiz-adv-x="269" 
d="M439 694l-215 33l22 99l204 -83z" />
    <glyph glyph-name="uni00AF.cap" horiz-adv-x="358" 
d="M240 808h291l-9 -82h-290z" />
    <glyph glyph-name="uni02DC.cap" horiz-adv-x="367" 
d="M283 701l-41 15q4 33 28.5 66t64.5 33q23 0 58 -16.5t53 -16.5q35 0 51 40l45 -10q-17 -108 -91 -108q-25 0 -62 16t-58 16q-33 0 -48 -35z" />
    <glyph glyph-name="commaaccent" horiz-adv-x="199" 
d="M166 -60l-39 -155h-81l21 155h99z" />
    <glyph glyph-name="uni02DA.cap" horiz-adv-x="255" 
d="M307 689q-91 0 -91 82q0 46 29.5 74t82.5 28q91 0 91 -81q0 -44 -29 -73.5t-83 -29.5zM313 742q39 0 39 47q0 32 -30 32q-38 0 -38 -48q0 -31 29 -31z" />
    <glyph glyph-name="uni02C7.alt" horiz-adv-x="205" 
d="M357 681l-54 -224h-81l36 224h99z" />
    <glyph glyph-name="downbreve" horiz-adv-x="391" 
d="M344 522h-84q7 66 45.5 99t100.5 33q128 0 115 -132h-84q8 66 -39 66q-46 0 -54 -66z" />
    <glyph glyph-name="downbreve.cap" horiz-adv-x="342" 
d="M324 696h-84q13 131 144 131q130 0 117 -131h-84q8 65 -39 65t-54 -65z" />
    <glyph glyph-name="horumlaut" horiz-adv-x="421" 
d="M508 512l-156 156l76 59l118 -185zM394 512l-194 97l50 81l168 -135z" />
    <glyph glyph-name="horumlaut.cap" horiz-adv-x="409" 
d="M594 693l-175 133l62 71l146 -169zM484 694l-204 33l26 91l190 -75z" />
    <glyph glyph-name="uni0030.smcp_zero" horiz-adv-x="503" 
d="M60 215q0 59 12.5 111.5t40 99.5t77.5 75t118 28q192 0 192 -230q0 -59 -13.5 -111.5t-41.5 -97.5t-78 -71.5t-116 -26.5q-191 0 -191 223zM172 223q0 -72 19 -109t69 -37q47 0 77 34.5t40.5 81.5t10.5 106q0 71 -20 108.5t-70 37.5q-63 0 -94.5 -59t-31.5 -163zM323 310
l-9 -89h-78l10 89h77z" />
    <glyph glyph-name="uni0030.smcp" horiz-adv-x="503" 
d="M60 215q0 59 12.5 111.5t40 99.5t77.5 75t118 28q192 0 192 -230q0 -59 -13.5 -111.5t-41.5 -97.5t-78 -71.5t-116 -26.5q-191 0 -191 223zM172 223q0 -72 19 -109t69 -37q47 0 77 34.5t40.5 81.5t10.5 106q0 71 -20 108.5t-70 37.5q-63 0 -94.5 -59t-31.5 -163z" />
    <glyph glyph-name="uni0031.smcp" horiz-adv-x="345" 
d="M16 82h102l38 357h-102l9 82h207l-47 -439h94l-8 -82h-301z" />
    <glyph glyph-name="uni0032.smcp" horiz-adv-x="466" 
d="M136 357l-83 8l31 126q83 38 176 38q86 0 127.5 -37.5t41.5 -90.5q0 -45 -28 -93.5t-74.5 -91t-89 -74.5t-89.5 -60h182l15 81l90 -8l-24 -155h-394l-1 77q143 105 219.5 178t76.5 131q0 61 -72 61q-49 0 -82 -19z" />
    <glyph glyph-name="uni0033.smcp" horiz-adv-x="450" 
d="M163 356l-81 8l29 127q82 39 166 39q66 0 112 -30.5t46 -89.5q0 -91 -108 -131l-1 -3q102 -17 102 -118q0 -81 -61.5 -124t-146.5 -43q-79 0 -124.5 36t-47.5 93l91 29q8 -76 81 -76q51 0 73.5 27t22.5 63q0 39 -29 56.5t-92 19.5l7 64q118 8 118 85q0 60 -68 60
q-37 0 -67 -17z" />
    <glyph glyph-name="uni0034.smcp" horiz-adv-x="474" 
d="M240 0l14 132h-240l-2 80l198 309h189l-33 -309h82l-16 -80h-74l-14 -132h-104zM247 439l-137 -227h152l24 227h-39z" />
    <glyph glyph-name="uni0035.smcp" horiz-adv-x="441" 
d="M414 169q0 -85 -60 -131t-145 -46q-71 0 -125 32t-60 91l87 31q16 -72 90 -72q43 0 71.5 22t28.5 65q0 87 -127 87q-25 0 -73 -4l-30 30l26 247h321l-6 -148l-83 -7l-5 73h-140l-12 -113q7 1 33 1q92 0 150.5 -37t58.5 -121z" />
    <glyph glyph-name="uni0036.smcp" horiz-adv-x="457" 
d="M441 190q0 -86 -55 -142t-148 -56q-178 0 -178 218q0 139 61.5 229.5t174.5 90.5q51 0 93.5 -19t65.5 -51l-51 -58q-41 47 -100 47q-65 0 -96 -49t-36 -143q15 32 48.5 54.5t81.5 22.5q70 0 104.5 -41t34.5 -103zM333 179q0 76 -70 76q-40 0 -64 -24.5t-28 -60.5
q2 -49 18 -71.5t55 -22.5q46 0 67.5 28t21.5 75z" />
    <glyph glyph-name="uni0037.smcp" horiz-adv-x="408" 
d="M77 521h367l9 -47l-241 -474h-104l228 440h-176l-9 -88h-91z" />
    <glyph glyph-name="uni0038.smcp" horiz-adv-x="460" 
d="M433 148q0 -72 -62.5 -114t-158.5 -42q-81 0 -128.5 32t-47.5 95q0 54 32.5 84.5t91.5 55.5q-84 49 -84 121q0 66 55 107.5t144 41.5q76 0 120.5 -32t44.5 -89q0 -45 -28.5 -73.5t-79.5 -50.5q101 -53 101 -136zM190 394q0 -26 22 -44t65 -38q58 33 58 80q0 60 -69 60
q-35 0 -55.5 -16.5t-20.5 -41.5zM143 142q0 -34 21.5 -53t62.5 -19q42 0 67 19t25 48q0 21 -17 39.5t-35.5 28.5t-54.5 27q-69 -36 -69 -90z" />
    <glyph glyph-name="uni0039.smcp" horiz-adv-x="457" 
d="M71 332q0 86 55 142t149 56q178 0 178 -218q0 -139 -61.5 -229.5t-174.5 -90.5q-51 0 -93.5 19t-65.5 51l51 58q39 -47 100 -47q65 0 96 49t36 143q-16 -33 -49 -55t-81 -22q-70 0 -105 41t-35 103zM179 342q0 -76 71 -76q40 0 64 25t28 61q-2 49 -18 71t-55 22
q-90 0 -90 -103z" />
    <glyph glyph-name="uni0030.pnum_lnum_zero" horiz-adv-x="578" 
d="M76 264q0 74 14.5 140t46.5 125.5t91 95t138 35.5q222 0 222 -283q0 -80 -16.5 -147.5t-50.5 -122.5t-91.5 -86t-133.5 -31q-220 0 -220 274zM192 277q0 -93 25 -141t90 -48q47 0 81 26t51 70.5t24.5 91t7.5 100.5q0 91 -25 138.5t-90 47.5q-82 0 -123 -75.5t-41 -209.5z
M380 387l-12 -111h-81l12 111h81z" />
    <glyph glyph-name="uni0030.pnum_lnum" horiz-adv-x="578" 
d="M76 264q0 74 14.5 140t46.5 125.5t91 95t138 35.5q222 0 222 -283q0 -80 -16.5 -147.5t-50.5 -122.5t-91.5 -86t-133.5 -31q-220 0 -220 274zM192 277q0 -93 25 -141t90 -48q47 0 81 26t51 70.5t24.5 91t7.5 100.5q0 91 -25 138.5t-90 47.5q-82 0 -123 -75.5t-41 -209.5z
" />
    <glyph glyph-name="uni0031.pnum_lnum" horiz-adv-x="389" 
d="M18 95h123l48 460h-123l10 95h231l-58 -555h114l-10 -95h-345z" />
    <glyph glyph-name="uni0032.pnum_lnum" horiz-adv-x="527" 
d="M159 463l-85 10l35 142q88 45 193 45q87 0 140 -38.5t53 -113.5q0 -31 -10.5 -63.5t-25 -60t-41.5 -59t-48 -53t-56 -51.5t-55 -45.5t-56 -43.5t-48 -37h231l16 93l94 -9l-28 -179h-451l-1 87q12 10 52 42t56.5 45.5t52.5 43.5t53 46.5t45 44t41.5 46.5t29 42.5t22 44.5
t6.5 41q0 38 -25.5 60t-73.5 22q-58 0 -90 -20z" />
    <glyph glyph-name="uni0033.pnum_lnum" horiz-adv-x="515" 
d="M186 471l-83 9l34 137q96 44 187 44q82 0 132 -37t50 -108q0 -121 -131 -167l-1 -4q124 -25 124 -147q0 -98 -67 -153.5t-175 -55.5q-98 0 -151.5 45t-51.5 120l90 28q3 -41 31 -69.5t84 -28.5q64 0 93.5 36t29.5 84t-36 71t-116 27l7 74q48 1 81 14t47 33t19 35.5
t5 30.5q0 77 -91 77q-50 0 -86 -18z" />
    <glyph glyph-name="uni0034.pnum_lnum" horiz-adv-x="541" 
d="M405 0h-109l18 169h-289l-1 93l247 389h202l-41 -389h100l-19 -93h-90zM324 262l31 294h-48l-182 -294h199z" />
    <glyph glyph-name="uni0035.pnum_lnum" horiz-adv-x="503" 
d="M491 213q0 -108 -67.5 -166t-177.5 -58q-97 0 -149 44t-50 121l90 28q2 -42 29.5 -70t81.5 -28q62 0 93.5 35.5t31.5 87.5q0 62 -42 85t-115 23q-20 0 -90 -5l-32 35l32 306h378l-3 -166l-92 -8l-8 79h-184l-16 -151q13 1 41 1q55 0 97 -8.5t78 -29t55 -59.5t19 -96z" />
    <glyph glyph-name="uni0036.pnum_lnum" horiz-adv-x="527" 
d="M522 235q0 -104 -63.5 -174.5t-174.5 -70.5q-208 0 -208 273q0 58 9 112.5t30 107t53 91t82 62.5t113 24q127 0 182 -89l-70 -65q-39 59 -120 59q-73 0 -112 -61t-49 -183q22 39 65 65.5t103 26.5q83 0 121.5 -50t38.5 -128zM410 222q0 50 -21 75t-70 25
q-56 0 -88.5 -31.5t-40.5 -77.5q0 -63 22.5 -94t77.5 -31q61 0 90.5 37t29.5 97z" />
    <glyph glyph-name="uni0037.pnum_lnum" horiz-adv-x="467" 
d="M100 651h427l8 -55l-293 -596h-110l281 557h-227l-11 -110h-97z" />
    <glyph glyph-name="uni0038.pnum_lnum" horiz-adv-x="528" 
d="M250 -10q-95 0 -150.5 40.5t-55.5 117.5q0 67 40.5 106t114.5 70q-50 29 -77.5 64.5t-27.5 87.5q0 80 66 132t167 52q87 0 140 -40.5t53 -110.5q0 -58 -36 -93.5t-101 -63.5q58 -31 91 -70t33 -98q0 -88 -72.5 -141t-184.5 -53zM211 491q0 -19 8.5 -34.5t27.5 -29.5
t35.5 -23t45.5 -23q81 45 81 109q0 79 -91 79q-48 0 -77.5 -21.5t-29.5 -56.5zM267 81q54 0 88.5 25t34.5 65q0 21 -9.5 38.5t-34.5 34.5t-40.5 25t-53.5 26q-46 -24 -71 -51.5t-25 -68.5q0 -45 29.5 -69.5t81.5 -24.5z" />
    <glyph glyph-name="uni0039.pnum_lnum" horiz-adv-x="527" 
d="M83 415q0 104 63.5 174.5t174.5 70.5q208 0 208 -273q0 -58 -9 -112.5t-30 -107t-53 -91t-82 -62.5t-113 -24q-127 0 -182 89l70 65q39 -59 120 -59q73 0 112 61t49 183q-22 -39 -65 -65.5t-103 -26.5q-83 0 -121.5 50t-38.5 128zM195 428q0 -50 21 -75t70 -25
q56 0 88.5 31.5t40.5 77.5q0 63 -22.5 94t-77.5 31q-61 0 -90.5 -37t-29.5 -97z" />
    <glyph glyph-name="uni0030.tnum_lnum_zero" horiz-adv-x="600" 
d="M96 264q0 74 14.5 140t46.5 125.5t91 95t139 35.5q221 0 221 -283q0 -80 -16.5 -147.5t-50.5 -122.5t-91.5 -86t-133.5 -31q-220 0 -220 274zM213 277q0 -93 24.5 -141t89.5 -48q47 0 81.5 26t51.5 70.5t24.5 91.5t7.5 100q0 91 -25.5 138.5t-90.5 47.5
q-82 0 -122.5 -75.5t-40.5 -209.5zM400 387l-12 -111h-82l12 111h82z" />
    <glyph glyph-name="uni0030.tnum_lnum" horiz-adv-x="600" 
d="M96 264q0 74 14.5 140t46.5 125.5t91 95t139 35.5q221 0 221 -283q0 -80 -16.5 -147.5t-50.5 -122.5t-91.5 -86t-133.5 -31q-220 0 -220 274zM213 277q0 -93 24.5 -141t89.5 -48q47 0 81.5 26t51.5 70.5t24.5 91.5t7.5 100q0 91 -25.5 138.5t-90.5 47.5
q-82 0 -122.5 -75.5t-40.5 -209.5z" />
    <glyph glyph-name="uni0031.tnum_lnum" horiz-adv-x="600" 
d="M229 95h122l48 460h-123l10 95h231l-58 -555h115l-10 -95h-346z" />
    <glyph glyph-name="uni0032.tnum_lnum" horiz-adv-x="600" 
d="M233 463l-85 10l35 142q86 45 193 45q87 0 140 -38.5t53 -113.5q0 -31 -10.5 -63.5t-25 -60t-41.5 -59t-48 -53t-56 -51.5t-55 -45.5t-56 -43.5t-48 -37h231l16 93l94 -9l-28 -179h-451l-1 87q12 10 52 42t56.5 45.5t52.5 43.5t53 46.5t45 44t41.5 46.5t29 42.5t22 44.5
t6.5 41q0 38 -25.5 60t-73.5 22q-58 0 -90 -20z" />
    <glyph glyph-name="uni0033.tnum_lnum" horiz-adv-x="600" 
d="M272 471l-83 9l34 137q96 44 187 44q82 0 132 -37t50 -108q0 -121 -131 -167l-1 -4q124 -25 124 -147q0 -98 -67 -153.5t-175 -55.5q-98 0 -151.5 45t-51.5 120l90 28q3 -41 31 -69.5t84 -28.5q64 0 93.5 36t29.5 84t-36 71t-116 27l7 74q48 1 81 14t47 33t19 35.5
t5 30.5q0 77 -91 77q-50 0 -86 -18z" />
    <glyph glyph-name="uni0034.tnum_lnum" horiz-adv-x="600" 
d="M463 0h-109l18 169h-289l-1 93l247 389h202l-41 -389h100l-19 -93h-90zM382 262l31 294h-48l-182 -294h199z" />
    <glyph glyph-name="uni0035.tnum_lnum" horiz-adv-x="600" 
d="M587 213q0 -108 -67.5 -166t-177.5 -58q-97 0 -149 44t-50 121l90 28q2 -42 29.5 -70t81.5 -28q62 0 93.5 35.5t31.5 87.5q0 62 -42 85t-115 23q-20 0 -90 -5l-32 35l32 306h378l-3 -166l-92 -8l-8 79h-184l-16 -151q13 1 41 1q55 0 97 -8.5t78 -29t55 -59.5t19 -96z" />
    <glyph glyph-name="uni0036.tnum_lnum" horiz-adv-x="600" 
d="M594 235q0 -104 -63.5 -174.5t-174.5 -70.5q-208 0 -208 273q0 58 9 112.5t30 107t53 91t82 62.5t113 24q127 0 182 -89l-70 -65q-39 59 -120 59q-73 0 -112 -61t-49 -183q22 39 65 65.5t103 26.5q83 0 121.5 -50t38.5 -128zM482 222q0 50 -21 75t-70 25
q-56 0 -88.5 -31.5t-40.5 -77.5q0 -63 22.5 -94t77.5 -31q61 0 90.5 37t29.5 97z" />
    <glyph glyph-name="uni0037.tnum_lnum" horiz-adv-x="600" 
d="M232 651h427l8 -55l-293 -596h-110l281 557h-227l-11 -110h-97z" />
    <glyph glyph-name="uni0038.tnum_lnum" horiz-adv-x="600" 
d="M322 -10q-95 0 -150.5 40.5t-55.5 117.5q0 67 40.5 106t114.5 70q-50 29 -77.5 64.5t-27.5 87.5q0 80 66 132t167 52q87 0 140 -40.5t53 -110.5q0 -58 -36 -93.5t-101 -63.5q58 -31 91 -70t33 -98q0 -88 -72.5 -141t-184.5 -53zM283 491q0 -19 8.5 -34.5t27.5 -29.5
t35.5 -23t45.5 -23q81 45 81 109q0 79 -91 79q-48 0 -77.5 -21.5t-29.5 -56.5zM339 81q54 0 88.5 25t34.5 65q0 21 -9.5 38.5t-34.5 34.5t-40.5 25t-53.5 26q-46 -24 -71 -51.5t-25 -68.5q0 -45 29.5 -69.5t81.5 -24.5z" />
    <glyph glyph-name="uni0039.tnum_lnum" horiz-adv-x="600" 
d="M157 415q0 104 63.5 174.5t174.5 70.5q208 0 208 -273q0 -58 -9 -112.5t-30 -107t-53 -91t-82 -62.5t-113 -24q-127 0 -182 89l70 65q39 -59 120 -59q73 0 112 61t49 183q-22 -39 -65 -65.5t-103 -26.5q-83 0 -121.5 50t-38.5 128zM269 428q0 -50 21 -75t70 -25
q56 0 88.5 31.5t40.5 77.5q0 63 -22.5 94t-77.5 31q-61 0 -90.5 -37t-29.5 -97z" />
    <glyph glyph-name="uni0030.tnum_onum_zero" horiz-adv-x="600" 
d="M98 223q0 132 74.5 219t203.5 87q108 0 163.5 -64.5t55.5 -178.5q0 -138 -75 -217t-200 -79q-105 0 -163.5 59t-58.5 174zM216 234q0 -75 25 -110.5t87 -35.5q70 0 111 48t41 151q0 75 -26.5 109.5t-89.5 34.5q-148 0 -148 -197zM395 320l-12 -111h-81l12 111h81z" />
    <glyph glyph-name="uni0030.tnum_onum" horiz-adv-x="600" 
d="M98 223q0 132 74.5 219t203.5 87q108 0 163.5 -64.5t55.5 -178.5q0 -138 -75 -217t-200 -79q-105 0 -163.5 59t-58.5 174zM216 234q0 -75 25 -110.5t87 -35.5q70 0 111 48t41 151q0 75 -26.5 109.5t-89.5 34.5q-148 0 -148 -197z" />
    <glyph glyph-name="uni0031.tnum_onum" horiz-adv-x="600" 
d="M257 95h113l35 331h-112l10 95h220l-45 -426h105l-10 -95h-325z" />
    <glyph glyph-name="uni0032.tnum_onum" horiz-adv-x="600" 
d="M242 341l-84 9l35 140q93 41 194 41q93 0 136 -40t43 -100q0 -47 -22.5 -88t-76 -80t-84.5 -57.5t-102 -55.5q-19 -10 -28 -15h217l13 77l86 -8l-22 -164h-428l-1 87q22 14 59.5 37t57 35t50.5 31.5t47 31.5t38 29t33.5 30t23 28.5t16 30t4.5 29.5q0 67 -91 67
q-54 0 -90 -18z" />
    <glyph glyph-name="uni0033.tnum_onum" horiz-adv-x="600" 
d="M244 341l-83 9l34 137q96 44 187 44q82 0 132 -37t50 -108q0 -121 -131 -167l-1 -4q124 -25 124 -147q0 -98 -67 -153.5t-175 -55.5q-98 0 -151.5 45t-51.5 120l90 28q3 -41 31 -69.5t84 -28.5q64 0 93.5 36t29.5 84t-36 71t-116 27l7 74q48 1 81 14t47 33t19 35.5
t5 30.5q0 77 -91 77q-50 0 -86 -18z" />
    <glyph glyph-name="uni0034.tnum_onum" horiz-adv-x="600" 
d="M441 -130h-109l18 169h-289l-1 93l247 389h202l-41 -389h100l-19 -93h-90zM360 132l31 294h-48l-182 -294h199z" />
    <glyph glyph-name="uni0035.tnum_onum" horiz-adv-x="600" 
d="M559 83q0 -108 -67.5 -166t-177.5 -58q-97 0 -149 44t-50 121l90 28q2 -42 29.5 -70t81.5 -28q62 0 93.5 35.5t31.5 87.5q0 62 -42 85t-115 23q-20 0 -90 -5l-32 35l32 306h378l-3 -166l-92 -8l-8 79h-184l-16 -151q13 1 41 1q55 0 97 -8.5t78 -29t55 -59.5t19 -96z" />
    <glyph glyph-name="uni0036.tnum_onum" horiz-adv-x="600" 
d="M594 235q0 -104 -63.5 -174.5t-174.5 -70.5q-208 0 -208 273q0 58 9 112.5t30 107t53 91t82 62.5t113 24q127 0 182 -89l-70 -65q-39 59 -120 59q-73 0 -112 -61t-49 -183q22 39 65 65.5t103 26.5q83 0 121.5 -50t38.5 -128zM482 222q0 50 -21 75t-70 25
q-56 0 -88.5 -31.5t-40.5 -77.5q0 -63 22.5 -94t77.5 -31q61 0 90.5 37t29.5 97z" />
    <glyph glyph-name="uni0037.tnum_onum" horiz-adv-x="600" 
d="M206 521h427l8 -55l-293 -596h-110l281 557h-227l-11 -110h-97z" />
    <glyph glyph-name="uni0038.tnum_onum" horiz-adv-x="600" 
d="M322 -10q-95 0 -150.5 40.5t-55.5 117.5q0 67 40.5 106t114.5 70q-50 29 -77.5 64.5t-27.5 87.5q0 80 66 132t167 52q87 0 140 -40.5t53 -110.5q0 -58 -36 -93.5t-101 -63.5q58 -31 91 -70t33 -98q0 -88 -72.5 -141t-184.5 -53zM283 491q0 -19 8.5 -34.5t27.5 -29.5
t35.5 -23t45.5 -23q81 45 81 109q0 79 -91 79q-48 0 -77.5 -21.5t-29.5 -56.5zM339 81q54 0 88.5 25t34.5 65q0 21 -9.5 38.5t-34.5 34.5t-40.5 25t-53.5 26q-46 -24 -71 -51.5t-25 -68.5q0 -45 29.5 -69.5t81.5 -24.5z" />
    <glyph glyph-name="uni0039.tnum_onum" horiz-adv-x="600" 
d="M129 285q0 104 63.5 174.5t174.5 70.5q208 0 208 -273q0 -58 -9 -112.5t-30 -107t-53 -91t-82 -62.5t-113 -24q-127 0 -182 89l70 65q39 -59 120 -59q73 0 112 61t49 183q-22 -39 -65 -65.5t-103 -26.5q-83 0 -121.5 50t-38.5 128zM241 298q0 -50 21 -75t70 -25
q56 0 88.5 31.5t40.5 77.5q0 63 -22.5 94t-77.5 31q-61 0 -90.5 -37t-29.5 -97z" />
    <glyph glyph-name="uni0030.numr" horiz-adv-x="379" 
d="M98 442q0 37 8.5 72.5t27.5 69.5t56 55t87 21q143 0 143 -163q0 -90 -45.5 -151.5t-136.5 -61.5q-140 0 -140 158zM187 448q0 -47 12.5 -72.5t45.5 -25.5q44 0 64.5 42t20.5 107q0 47 -13 71t-45 24q-42 0 -63.5 -38.5t-21.5 -107.5z" />
    <glyph glyph-name="uni0031.numr" horiz-adv-x="267" 
d="M71 351h71l25 236h-72l7 64h155l-32 -300h67l-7 -64h-221z" />
    <glyph glyph-name="uni0032.numr" horiz-adv-x="352" 
d="M161 534l-64 6l23 90q54 30 127 30q63 0 94 -26t31 -64q0 -16 -7 -33.5t-15.5 -32t-25.5 -32.5t-28.5 -28.5t-34 -27.5t-31.5 -23.5t-31.5 -22t-24.5 -16.5h123l8 50l70 -8l-16 -106h-288l-1 59q10 7 30.5 22.5t32.5 24t31 23.5t30.5 24.5t26.5 23t24 24.5t17.5 22.5
t12.5 22.5t4 21q0 39 -52 39q-29 0 -50 -13z" />
    <glyph glyph-name="uni0033.numr" horiz-adv-x="340" 
d="M173 539l-63 5l20 86q53 29 125 29q54 0 85 -23.5t31 -61.5q0 -61 -74 -89v-2q69 -15 69 -84q0 -53 -41.5 -84.5t-108.5 -31.5q-56 0 -92 24.5t-40 73.5l63 20q11 -54 66 -54q31 0 47.5 15.5t16.5 41.5t-20 37.5t-62 13.5l5 48q80 5 80 55q0 37 -46 37q-24 0 -47 -12z
" />
    <glyph glyph-name="uni0034.numr" horiz-adv-x="357" 
d="M230 287l9 92h-167l-2 61l135 211h145l-23 -214h60l-13 -58h-53l-9 -92h-82zM235 587l-95 -150h105l16 150h-26z" />
    <glyph glyph-name="uni0035.numr" horiz-adv-x="332" 
d="M356 409q0 -60 -43 -94.5t-111 -34.5q-57 0 -92.5 25t-39.5 73l63 20q10 -54 71 -54q30 0 46.5 15t16.5 41q0 56 -84 56q-1 0 -55 -3l-23 22l18 176h229l-3 -101l-69 -7l-1 44h-86l-8 -71h22q149 0 149 -107z" />
    <glyph glyph-name="uni0036.numr" horiz-adv-x="342" 
d="M273 596q-80 0 -89 -121q29 50 92 50q49 0 73.5 -29t24.5 -73q0 -59 -41 -99t-107 -40q-64 0 -97 41t-33 114q0 91 44 156t129 65q74 0 114 -48l-50 -48q-23 32 -60 32zM244 464q-51 0 -61 -48q1 -34 11.5 -50t37.5 -16q57 0 57 66q0 48 -45 48z" />
    <glyph glyph-name="uni0037.numr" horiz-adv-x="310" 
d="M111 651h266l6 -35l-168 -330h-82l158 302h-116l-6 -61h-71z" />
    <glyph glyph-name="uni0038.numr" horiz-adv-x="345" 
d="M210 284q-58 0 -93 22.5t-35 65.5q0 38 23 59.5t63 38.5q-59 35 -59 83q0 47 40.5 77t104.5 30q55 0 88 -23t33 -61q0 -32 -20 -51.5t-56 -34.5q70 -38 70 -94q0 -52 -44.5 -82t-114.5 -30zM200 564q0 -16 14 -27t42 -25q34 21 34 51q0 37 -42 37q-23 0 -35.5 -10.5
t-12.5 -25.5zM220 344q27 0 43 12.5t16 29.5q0 4 -1 8t-2.5 7.5t-5 7.5t-5.5 6.5t-7.5 6t-8.5 5.5t-9.5 5.5t-9.5 5t-10.5 5.5t-10.5 6q-42 -25 -42 -59q0 -21 13.5 -33.5t39.5 -12.5z" />
    <glyph glyph-name="uni0039.numr" horiz-adv-x="343" 
d="M208 348q42 0 62.5 29t25.5 91q-28 -49 -91 -49q-49 0 -74 29.5t-25 73.5q0 60 40.5 99t106.5 39q64 0 98 -41t34 -114q0 -91 -43.5 -156t-128.5 -65q-75 0 -115 48l50 48q23 -32 60 -32zM237 480q25 0 40.5 13t20.5 34q-2 34 -12.5 50.5t-36.5 16.5q-57 0 -57 -66
q0 -48 45 -48z" />
    <glyph glyph-name="uni00A9.pnum_lnum" horiz-adv-x="752" 
d="M820 356q0 -147 -109 -254.5t-253 -107.5q-128 0 -212 88t-84 216q0 147 109 254.5t253 107.5q128 0 212 -88t84 -216zM760 350q0 109 -68 181.5t-176 72.5q-122 0 -208.5 -90t-86.5 -211q0 -107 69 -180t175 -73q117 0 206 87t89 213zM611 186q-21 -21 -60 -33t-80 -12
q-79 0 -123.5 46.5t-44.5 122.5q0 89 59 150.5t150 61.5q79 0 127 -46l1 -83l-60 -5l-4 47q-30 25 -70 25q-56 0 -88.5 -39t-32.5 -107q0 -110 101 -110q35 0 69 17l15 50l57 -5z" />
    <glyph glyph-name="uni2117.pnum_lnum" horiz-adv-x="752" 
d="M458 -6q-128 0 -212 88t-84 216q0 147 109 254.5t253 107.5q128 0 212 -88t84 -216q0 -147 -109 -254.5t-253 -107.5zM464 50q118 0 207 87t89 213q0 108 -67.5 181t-177.5 73q-122 0 -208 -89.5t-86 -210.5q0 -107 68.5 -180.5t174.5 -73.5zM333 184h44l29 271h-44l7 64
h184q68 0 103 -31.5t35 -86.5q0 -67 -48 -105.5t-115 -38.5h-64l-8 -73h63l-7 -64h-186zM521 319q84 0 84 75q0 30 -15 45.5t-54 15.5h-51l-15 -136h51z" />
    <glyph glyph-name="uni267E.pnum_lnum" horiz-adv-x="752" 
d="M458 -6q-128 0 -212 88t-84 216q0 147 109 254.5t253 107.5q128 0 212 -88t84 -216q0 -147 -109 -254.5t-253 -107.5zM464 50q118 0 207 87t89 213q0 108 -67.5 181t-177.5 73q-122 0 -208 -89.5t-86 -210.5q0 -107 68.5 -180.5t174.5 -73.5zM582 216q-37 0 -57.5 19.5
t-37.5 54.5q-44 -74 -106 -74q-44 0 -69.5 28t-25.5 73q0 53 35 89.5t85 36.5q37 0 56 -20.5t33 -58.5q26 38 51.5 58.5t62.5 20.5q42 0 65.5 -27.5t23.5 -72.5q0 -55 -32.5 -91t-83.5 -36zM593 390q-44 0 -84 -64q24 -58 68 -58q28 0 45.5 19t17.5 51q0 52 -47 52zM391 268
q42 0 82 60q-9 20 -16 31.5t-20.5 21t-30.5 9.5q-29 0 -46 -19.5t-17 -49.5q0 -25 13 -39t35 -14z" />
    <glyph glyph-name="uni24CA.pnum_lnum" horiz-adv-x="752" 
d="M458 -6q-128 0 -212 88t-84 216q0 147 109 254.5t253 107.5q128 0 212 -88t84 -216q0 -147 -109 -254.5t-253 -107.5zM464 50q118 0 207 87t89 213q0 108 -67.5 181t-177.5 73q-122 0 -208 -89.5t-86 -210.5q0 -107 68.5 -180.5t174.5 -73.5zM552 497h152l-6 -60h-35
l-17 -164q-8 -71 -52 -118t-129 -47q-83 0 -116.5 45t-26.5 113l18 171h-35l5 60h157l-6 -60h-46l-17 -169q-10 -97 76 -97q90 0 100 102l17 164h-45z" />
    <glyph glyph-name="uni20AC.pnum_lnum" horiz-adv-x="669" 
d="M61 358l7 74h71q33 100 110.5 164t201.5 64q132 0 207 -77l1 -141l-90 -9l-5 90q-54 39 -126 39q-137 0 -184 -130h203l-7 -74h-213q-5 -30 -5 -77v-1h180l-8 -74h-165q27 -118 157 -118q70 0 123 28l25 97l89 -9l-29 -142q-37 -33 -98.5 -52.5t-125.5 -19.5
q-108 0 -174.5 57.5t-84.5 158.5h-77l8 74h63q0 38 6 78h-60z" />
    <glyph glyph-name="uni0024.pnum_lnum" horiz-adv-x="530" 
d="M502 200q0 -94 -58 -148t-164 -61l-7 -72h-59l7 72q-132 7 -189 61l33 149l86 -9l-9 -80q38 -22 89 -26l22 208q-37 8 -63 17.5t-53.5 28t-41.5 49.5t-14 74q0 92 60 140t150 56l9 80h59l-9 -80q113 -10 166 -64l-9 -137l-88 -8l-1 84q-34 22 -78 27l-18 -176
q32 -7 53 -13.5t47.5 -21t42 -32.5t26.5 -48.5t11 -69.5zM196 476q0 -55 68 -77l17 160q-85 -13 -85 -83zM385 191q0 40 -18 59t-56 30l-20 -192q94 15 94 103z" />
    <glyph glyph-name="uni00A2.pnum_lnum" horiz-adv-x="456" 
d="M220 16l8 75q-73 9 -112.5 61t-39.5 139q0 63 19.5 118.5t66 97.5t114.5 49l8 73h59l-8 -73q69 -7 121 -39l5 -126l-86 -9l-7 78q-18 9 -41 13l-32 -299q29 6 48 31.5t32 72.5l83 -17q-15 -65 -57 -112.5t-114 -56.5l-8 -76h-59zM187 296q0 -96 50 -118l30 291
q-38 -15 -59 -61t-21 -112z" />
    <glyph glyph-name="uni00A3.pnum_lnum" horiz-adv-x="560" 
d="M55 354h73l7 63q13 120 76.5 181.5t158.5 61.5q45 0 90 -13t71 -41l1 -141l-89 -9l-6 87q-31 19 -78 19q-51 0 -79 -33t-37 -111l-7 -64h194l-9 -75h-193l-1 -16q-6 -55 -24 -97.5t-64 -70.5h191q87 0 143 66l45 -57q-18 -35 -65.5 -69.5t-109.5 -34.5h-327l11 92
q48 25 66.5 65t25.5 106l1 16h-74z" />
    <glyph glyph-name="uni0192.pnum_lnum" horiz-adv-x="420" 
d="M4 349h87l21 126q14 89 71 137t143 48q35 0 77 -5l-9 -85q-53 7 -75 7q-48 0 -70.5 -24t-30.5 -80l-20 -124h128l-8 -75h-132l-39 -252q-24 -162 -183 -162q-18 0 -52 5l8 82q37 -5 47 -5q35 0 50.5 20t25.5 83l36 229h-84z" />
    <glyph glyph-name="uni00A5.pnum_lnum" horiz-adv-x="657" 
d="M213 95h101l5 50h-159l7 67h159l4 42l-6 11h-151l7 67h108l-120 223h-58l10 95h247l-10 -95h-65l105 -204h5l144 204h-70l10 95h236l-9 -95h-56l-163 -223h107l-8 -67h-148l-8 -12l-4 -41h155l-7 -67h-155l-5 -50h104l-10 -95h-312z" />
    <glyph glyph-name="uni20B9.pnum_lnum" horiz-adv-x="579" 
d="M81 346h191q117 0 141 73h-323l7 72h321q-6 34 -35.5 49t-90.5 15h-189l11 95h507l-10 -95h-87q14 -29 15 -64h55l-8 -72h-58q-28 -73 -144 -125l84 -199h78l-10 -95h-149l-104 257h-211z" />
    <glyph glyph-name="threesup_fraction_eightinf" horiz-adv-x="760" 
d="M177 540l-63 5l20 86q53 29 125 29q54 0 85 -23.5t31 -61.5q0 -61 -74 -89v-2q69 -15 69 -84q0 -53 -41.5 -84.5t-108.5 -31.5q-56 0 -92 24.5t-40 73.5l63 20q11 -54 66 -54q31 0 47.5 15.5t16.5 41.5t-20 37.5t-62 13.5l5 48q80 5 80 55q0 37 -46 37q-24 0 -47 -12z
M681 650l-220 -325l-213 -325h-73l229 337l204 313h73zM598 -6q-58 0 -93 22.5t-35 65.5q0 38 23 59.5t63 38.5q-59 35 -59 83q0 47 40.5 77t104.5 30q55 0 88 -23t33 -61q0 -32 -20 -51.5t-56 -34.5q70 -38 70 -94q0 -52 -44.5 -82t-114.5 -30zM588 274q0 -16 14 -27
t42 -25q34 21 34 51q0 37 -42 37q-23 0 -35.5 -10.5t-12.5 -25.5zM608 54q27 0 43 12.5t16 29.5q0 4 -1 8t-2.5 7.5t-5 7.5t-5.5 6.5t-7.5 6t-8.5 5.5t-9.5 5.5t-9.5 5t-10.5 5.5t-10.5 6q-42 -25 -42 -59q0 -21 13.5 -33.5t39.5 -12.5z" />
    <glyph glyph-name="fivesup_fraction_eightinf" horiz-adv-x="758" 
d="M362 408q0 -60 -43 -94.5t-111 -34.5q-57 0 -92.5 25t-39.5 73l63 20q10 -54 71 -54q30 0 46.5 15t16.5 41q0 56 -84 56q-1 0 -55 -3l-23 22l18 176h229l-3 -101l-69 -7l-1 44h-86l-8 -71h22q149 0 149 -107zM670 650l-220 -325l-213 -325h-73l229 337l204 313h73z
M589 -6q-58 0 -93 22.5t-35 65.5q0 38 23 59.5t63 38.5q-59 35 -59 83q0 47 40.5 77t104.5 30q55 0 88 -23t33 -61q0 -32 -20 -51.5t-56 -34.5q70 -38 70 -94q0 -52 -44.5 -82t-114.5 -30zM579 274q0 -16 14 -27t42 -25q34 21 34 51q0 37 -42 37q-23 0 -35.5 -10.5
t-12.5 -25.5zM599 54q27 0 43 12.5t16 29.5q0 4 -1 8t-2.5 7.5t-5 7.5t-5.5 6.5t-7.5 6t-8.5 5.5t-9.5 5.5t-9.5 5t-10.5 5.5t-10.5 6q-42 -25 -42 -59q0 -21 13.5 -33.5t39.5 -12.5z" />
    <glyph glyph-name="sevensup_fraction_eightinf" horiz-adv-x="729" 
d="M123 650h266l6 -35l-168 -330h-82l158 302h-116l-6 -61h-71zM635 650l-220 -325l-213 -325h-73l229 337l204 313h73zM579 -6q-58 0 -93 22.5t-35 65.5q0 38 23 59.5t63 38.5q-59 35 -59 83q0 47 40.5 77t104.5 30q55 0 88 -23t33 -61q0 -32 -20 -51.5t-56 -34.5
q70 -38 70 -94q0 -52 -44.5 -82t-114.5 -30zM569 274q0 -16 14 -27t42 -25q34 21 34 51q0 37 -42 37q-23 0 -35.5 -10.5t-12.5 -25.5zM589 54q27 0 43 12.5t16 29.5q0 4 -1 8t-2.5 7.5t-5 7.5t-5.5 6.5t-7.5 6t-8.5 5.5t-9.5 5.5t-9.5 5t-10.5 5.5t-10.5 6q-42 -25 -42 -59
q0 -21 13.5 -33.5t39.5 -12.5z" />
    <glyph glyph-name="uni0061.smcp" horiz-adv-x="568" 
d="M-23 82h46l197 357h-78l10 82h180l148 -439h49l-8 -82h-211l8 82h49l-17 64h-188l-32 -64h54l-8 -82h-208zM280 384l-84 -169h135l-46 169h-5z" />
    <glyph glyph-name="uni0062.smcp" horiz-adv-x="526" 
d="M348 521q70 0 111 -30.5t41 -82.5q0 -44 -29.5 -77.5t-79.5 -41.5l-1 -4q103 -15 103 -120q0 -69 -50 -117t-144 -48h-279l9 82h57l38 357h-58l9 82h273zM292 304q50 0 71 21.5t21 52.5t-17 46t-55 15h-83l-14 -135h77zM280 82q101 0 101 81q0 35 -18.5 50.5t-58.5 15.5
h-97l-16 -147h89z" />
    <glyph glyph-name="uni0063.smcp" horiz-adv-x="543" 
d="M494 47q-30 -25 -87.5 -40t-111.5 -15q-105 0 -172 63.5t-67 177.5q0 125 79 210.5t209 85.5q57 0 111.5 -17t79.5 -40l1 -122l-89 -8l-5 81q-35 22 -94 22q-85 0 -132 -54t-47 -147q0 -85 39 -126.5t106 -41.5q51 0 95 22l23 84l88 -7z" />
    <glyph glyph-name="uni0064.smcp" horiz-adv-x="590" 
d="M319 521q122 0 186.5 -61.5t64.5 -167.5q0 -130 -82 -211t-217 -81h-251l9 82h57l38 357h-58l9 82h244zM270 82q91 0 139 52t48 154q0 151 -149 151h-79l-38 -357h79z" />
    <glyph glyph-name="uni0065.smcp" horiz-adv-x="503" 
d="M432 0h-414l9 82h58l38 357h-59l9 82h416v-148l-89 -10l-5 76h-167l-15 -136h229l-9 -81h-228l-15 -140h165l22 77l90 -9z" />
    <glyph glyph-name="uni0066.smcp" horiz-adv-x="480" 
d="M476 365l-93 -9l-3 83h-150l-18 -159h228l-9 -82h-227l-12 -116h88l-9 -82h-251l8 82h59l38 357h-59l9 82h399z" />
    <glyph glyph-name="uni0067.smcp" horiz-adv-x="580" 
d="M438 57q-63 -65 -160 -65q-103 0 -162.5 69.5t-59.5 175.5q0 125 81.5 208.5t212.5 83.5q59 0 113 -17t78 -42l2 -121l-91 -8l-6 79q-39 25 -96 25q-87 0 -134 -53t-47 -146q0 -84 36.5 -127t100.5 -43q53 0 87.5 28.5t42.5 75.5l2 22h-107l9 81h240l-8 -81h-29l-21 -202
h-81z" />
    <glyph glyph-name="uni0068.smcp" horiz-adv-x="638" 
d="M28 82h59l38 357h-59l9 82h221l-9 -82h-58l-14 -133h235l14 133h-60l10 82h222l-10 -82h-58l-38 -357h59l-8 -82h-223l9 82h59l15 142h-235l-15 -142h59l-9 -82h-221z" />
    <glyph glyph-name="uni0069.smcp" horiz-adv-x="299" 
d="M28 82h59l38 357h-59l9 82h222l-10 -82h-58l-38 -357h59l-8 -82h-222z" />
    <glyph glyph-name="uni006A.smcp" horiz-adv-x="410" 
d="M145 521h251l-9 -82h-51l-31 -294q-8 -75 -56.5 -114t-123.5 -39q-112 0 -143 94l79 51q17 -56 69 -56q64 0 71 63l30 295h-94z" />
    <glyph glyph-name="uni006B.smcp" horiz-adv-x="566" 
d="M312 82h55l-93 142h-67l-15 -142h47l-9 -82h-210l8 82h59l38 357h-59l9 82h213l-10 -82h-48l-14 -136h68l118 136h-51l9 82h218l-9 -82h-57l-152 -167l127 -190h54l-8 -82h-229z" />
    <glyph glyph-name="uni006C.smcp" horiz-adv-x="472" 
d="M419 0h-399l9 82h59l38 357h-60l10 82h239l-9 -82h-76l-38 -357h149l26 105l91 -8z" />
    <glyph glyph-name="uni006D.smcp" horiz-adv-x="753" 
d="M31 82h58l38 357h-66l9 82h154l159 -338h3l214 338h157l-10 -82h-65l-38 -357h58l-8 -82h-212l8 82h49l25 231h-3l-174 -274h-45l-127 277h-3l-25 -234h54l-9 -82h-210z" />
    <glyph glyph-name="uni006E.smcp" horiz-adv-x="637" 
d="M33 82h57l38 357h-67l10 82h141l238 -331h4l26 249h-77l9 82h234l-9 -82h-59l-46 -439l-59 -1l-253 349h-4l-28 -266h76l-9 -82h-231z" />
    <glyph glyph-name="uni006F.smcp" horiz-adv-x="604" 
d="M354 529q117 0 182 -68.5t65 -173.5q0 -122 -84.5 -208.5t-218.5 -86.5q-117 0 -181.5 68.5t-64.5 173.5q0 124 85.5 209.5t216.5 85.5zM311 76q82 0 129 58.5t47 146.5q0 77 -37.5 120.5t-104.5 43.5q-82 0 -131 -59t-49 -146q0 -72 37 -118t109 -46z" />
    </font>
</defs>
</svg>
