<?xml version="1.0" standalone="no"?>
<!DOCTYPE svg PUBLIC "-//W3C//DTD SVG 1.1//EN" "http://www.w3.org/Graphics/SVG/1.1/DTD/svg11.dtd" >
<svg xmlns="http://www.w3.org/2000/svg" xmlns:xlink="http://www.w3.org/1999/xlink" version="1.1">
<metadata>
Created by FontForge 20170731 at Tue Jul  4 11:56:41 2017
 By Aleksey,,,
Copyright 2017, The Mozilla Foundation
</metadata>
<defs>
<font id="ZillaSlab-Light" horiz-adv-x="510" >
  <font-face 
    font-family="Zilla Slab Light"
    font-weight="300"
    font-stretch="normal"
    units-per-em="1000"
    panose-1="0 0 0 0 0 0 0 0 0 0"
    ascent="787"
    descent="-213"
    x-height="444"
    cap-height="650"
    bbox="-286 -224.818 3290 881"
    underline-thickness="50"
    underline-position="-175"
    unicode-range="U+000D-FB04"
  />
<missing-glyph horiz-adv-x="712" 
d="M460 675v27h27v-27h-27zM685 675v27h27v-27h-27zM610 675v27h27v-27h-27zM535 675v27h27v-27h-27zM385 675v27h27v-27h-27zM310 675v27h27v-27h-27zM235 675v27h27v-27h-27zM160 675v27h27v-27h-27zM685 600v27h27v-27h-27zM160 600v27h27v-27h-27zM460 525v27h27v-27
h-27zM385 525v27h27v-27h-27zM310 525v27h27v-27h-27zM685 525v27h27v-27h-27zM535 525v27h27v-27h-27zM160 525v27h27v-27h-27zM160 450v27h27v-27h-27zM685 450v27h27v-27h-27zM535 450v27h27v-27h-27zM160 375v27h27v-27h-27zM460 375v27h27v-27h-27zM535 375v27h27v-27
h-27zM685 375v27h27v-27h-27zM385 375v27h27v-27h-27zM160 300v27h27v-27h-27zM385 300v27h27v-27h-27zM685 300v27h27v-27h-27zM160 225v27h27v-27h-27zM685 225v27h27v-27h-27zM160 150v27h27v-27h-27zM385 150v27h27v-27h-27zM685 150v27h27v-27h-27zM160 75v27h27v-27
h-27zM685 75v27h27v-27h-27zM460 0v27h27v-27h-27zM610 0v27h27v-27h-27zM535 0v27h27v-27h-27zM685 0v27h27v-27h-27zM385 0v27h27v-27h-27zM310 0v27h27v-27h-27zM235 0v27h27v-27h-27zM160 0v27h27v-27h-27z" />
    <glyph glyph-name="uniFB00" unicode="ff" horiz-adv-x="607" 
d="M426 46v351h-239v-351h108v-46h-245v46h82v351h-66v47h66v71q0 77 49.5 125t118.5 48q88 0 151 -61q21 34 54.5 52.5t70.5 18.5q61 0 95 -29l16 -99l-46 -6l-18 78q-20 8 -55 8q-42 0 -64.5 -30.5t-22.5 -87.5v-88h117v-47h-117v-351h108v-46h-245v46h82zM187 516v-72
h239v86q0 29 8 56q-58 56 -125 56q-53 0 -87.5 -33.5t-34.5 -92.5z" />
    <glyph glyph-name="uniFB01" unicode="fi" horiz-adv-x="562" 
d="M428 46v351h-241v-351h108v-46h-245v46h82v351h-66v47h66v76q0 84 54 131t132 47q88 0 140 -45l16 -99l-46 -6l-18 78q-39 24 -100 24q-54 0 -88.5 -30t-34.5 -98v-78h296v-398h82v-46h-219v46h82z" />
    <glyph glyph-name="uniFB02" unicode="fl" horiz-adv-x="561" 
d="M565 0h-220v46h82v566q-40 40 -119 40q-56 0 -88.5 -33t-32.5 -93v-82h127v-47h-127v-351h108v-46h-245v46h82v351h-66v47h66v81q0 78 46.5 125.5t118.5 47.5q90 0 130 -32v22h55v-642h83v-46z" />
    <glyph glyph-name="uniFB03" unicode="ffi" horiz-adv-x="857" 
d="M428 46v351h-241v-351h108v-46h-245v46h82v351h-66v47h66v71q0 77 49.5 125t118.5 48q93 0 156 -67q51 77 158 77q88 0 140 -45l16 -99l-46 -6l-18 78q-39 24 -100 24q-54 0 -88.5 -30t-34.5 -98v-78h296v-398h82v-46h-219v46h82v351h-241v-351h108v-46h-245v46h82z
M187 516v-72h241v76q0 36 10 63q-61 59 -129 59q-53 0 -87.5 -33.5t-34.5 -92.5z" />
    <glyph glyph-name="uniFB04" unicode="ffl" horiz-adv-x="856" 
d="M427 46v351h-240v-351h108v-46h-245v46h82v351h-66v47h66v71q0 77 49.5 125t118.5 48q48 0 90 -17.5t65 -43.5q46 71 137 71q90 0 130 -32v22h55v-642h82v-46h-219v46h82v566q-40 40 -119 40q-56 0 -88.5 -33t-32.5 -93v-82h127v-47h-127v-351h108v-46h-245v46h82z
M187 516v-72h240v81q0 37 11 68q-19 21 -55.5 35t-73.5 14q-53 0 -87.5 -33.5t-34.5 -92.5z" />
    <glyph glyph-name="uni00660062" unicode="fb" horiz-adv-x="851" 
d="M427 688h55v-338q52 103 161 103q85 0 138 -58.5t53 -161.5q0 -45 -11 -86t-33.5 -77.5t-61.5 -58t-90 -21.5q-53 0 -96 22.5t-64 63.5q-3 -36 -9 -76h-55q13 96 13 127v485q-40 40 -119 40q-56 0 -88.5 -33t-32.5 -93v-82h127v-47h-127v-351h108v-46h-245v46h82v351h-66
v47h66v81q0 78 46.5 125.5t118.5 47.5q90 0 130 -32v22zM775 228q0 84 -40.5 130t-100.5 46q-64 0 -107 -48t-45 -103v-81q2 -54 45 -93.5t100 -39.5q76 0 112 55.5t36 133.5z" />
    <glyph glyph-name="uni00660066006A" unicode="ffj" horiz-adv-x="834" 
d="M483 522v-78h295v-465q0 -61 -15 -104t-41.5 -64.5t-57.5 -29.5t-68 -5l-2 42q25 0 44 5.5t40 20.5t33 49.5t12 85.5v418h-240v-351h108v-46h-245v46h82v351h-241v-351h108v-46h-245v46h82v351h-66v47h66v71q0 77 49.5 125t118.5 48q93 0 156 -67q51 77 158 77
q88 0 140 -45l16 -99l-46 -6l-18 78q-39 24 -100 24q-54 0 -88.5 -30t-34.5 -98zM187 516v-72h241v76q0 36 10 63q-61 59 -129 59q-53 0 -87.5 -33.5t-34.5 -92.5z" />
    <glyph glyph-name="uni00660068" unicode="fh" horiz-adv-x="858" 
d="M482 262v-216h83v-46h-220v46h82v566q-40 40 -119 40q-56 0 -88.5 -33t-32.5 -93v-82h127v-47h-127v-351h108v-46h-245v46h82v351h-66v47h66v81q0 78 46.5 125.5t118.5 47.5q90 0 130 -32v22h55v-327q50 92 159 92q69 0 110 -43t41 -130v-234h82v-46h-219v46h82v221
q0 72 -29.5 104.5t-79.5 32.5q-64 0 -105 -43.5t-41 -98.5z" />
    <glyph glyph-name="uni006600EF" unicode="f&#xef;" horiz-adv-x="562" 
d="M334 562v49q0 20 -14.5 32.5t-41.5 12.5q-51 0 -71 -31.5t-20 -98.5v-82h296v-398h82v-46h-219v46h82v351h-241v-351h108v-46h-245v46h82v351h-66v47h66v87q0 80 39.5 123.5t108.5 43.5q59 0 90.5 -27.5t31.5 -56.5v-52h-68zM502 562v71h68v-71h-68z" />
    <glyph glyph-name="uni006600EC" unicode="f&#xec;" horiz-adv-x="562" 
d="M565 0h-219v46h82v351h-241v-351h108v-46h-245v46h82v351h-66v47h66v92q0 84 31 123t96 39q34 0 76 -19v-50q-26 23 -68 23q-43 0 -61.5 -26t-18.5 -88v-94h296v-398h82v-46zM575 547l-21 -24l-160 119l39 42z" />
    <glyph glyph-name="uni0066006A" unicode="fj" horiz-adv-x="537" 
d="M187 522v-78h295v-465q0 -61 -15 -104t-41.5 -64.5t-57.5 -29.5t-68 -5l-2 42q25 0 44 5.5t40 20.5t33 49.5t12 85.5v418h-240v-351h108v-46h-245v46h82v351h-66v47h66v76q0 84 54 131t132 47q88 0 140 -45l16 -99l-46 -6l-18 78q-39 24 -100 24q-54 0 -88.5 -30
t-34.5 -98z" />
    <glyph glyph-name="uni0066006B" unicode="fk" horiz-adv-x="813" 
d="M345 46h82v566q-40 40 -119 40q-56 0 -88.5 -33t-32.5 -93v-82h127v-47h-127v-351h108v-46h-245v46h82v351h-66v47h66v81q0 78 46.5 125.5t118.5 47.5q90 0 130 -32v22h55v-430h84l111 139h-75v47h203v-47h-73l-125 -156l153 -195h69v-46h-205v46h74l-134 168h-82v-168
h70v-46h-207v46z" />
    <glyph glyph-name=".notdef" horiz-adv-x="712" 
d="M460 675v27h27v-27h-27zM685 675v27h27v-27h-27zM610 675v27h27v-27h-27zM535 675v27h27v-27h-27zM385 675v27h27v-27h-27zM310 675v27h27v-27h-27zM235 675v27h27v-27h-27zM160 675v27h27v-27h-27zM685 600v27h27v-27h-27zM160 600v27h27v-27h-27zM460 525v27h27v-27
h-27zM385 525v27h27v-27h-27zM310 525v27h27v-27h-27zM685 525v27h27v-27h-27zM535 525v27h27v-27h-27zM160 525v27h27v-27h-27zM160 450v27h27v-27h-27zM685 450v27h27v-27h-27zM535 450v27h27v-27h-27zM160 375v27h27v-27h-27zM460 375v27h27v-27h-27zM535 375v27h27v-27
h-27zM685 375v27h27v-27h-27zM385 375v27h27v-27h-27zM160 300v27h27v-27h-27zM385 300v27h27v-27h-27zM685 300v27h27v-27h-27zM160 225v27h27v-27h-27zM685 225v27h27v-27h-27zM160 150v27h27v-27h-27zM385 150v27h27v-27h-27zM685 150v27h27v-27h-27zM160 75v27h27v-27
h-27zM685 75v27h27v-27h-27zM460 0v27h27v-27h-27zM610 0v27h27v-27h-27zM535 0v27h27v-27h-27zM685 0v27h27v-27h-27zM385 0v27h27v-27h-27zM310 0v27h27v-27h-27zM235 0v27h27v-27h-27zM160 0v27h27v-27h-27z" />
    <glyph glyph-name="uni0000" horiz-adv-x="0" 
 />
    <glyph glyph-name="uni0000" horiz-adv-x="0" 
 />
    <glyph glyph-name="uni000D" unicode="&#xd;" horiz-adv-x="238" 
 />
    <glyph glyph-name="uni0020" unicode=" " horiz-adv-x="238" 
 />
    <glyph glyph-name="uni0021" unicode="!" horiz-adv-x="234" 
d="M232 650l-11 -469h-43l-10 469h64zM166 0v84h73v-84h-73z" />
    <glyph glyph-name="uni0022" unicode="&#x22;" horiz-adv-x="367" 
d="M184 377h-49l-3 273h55zM364 377h-49l-3 273h55z" />
    <glyph glyph-name="uni0023" unicode="#" horiz-adv-x="595" 
d="M529 521l-24 -123h87v-46h-96l-33 -175h99v-46h-108l-25 -131h-51l25 131h-188l-25 -131h-51l25 131h-84v46h93l33 175h-96v46h105l24 123h51l-24 -123h188l24 123h51zM224 177h188l33 175h-188z" />
    <glyph glyph-name="uni0024" unicode="$" horiz-adv-x="465" 
d="M467 144q0 -68 -44.5 -108t-118.5 -43v-58h-36v58q-100 5 -166 48l17 109l47 -4l-9 -77q57 -27 111 -31v214q-30 7 -47.5 11.5t-42 15t-38 23.5t-23.5 35t-10 51q0 65 45 102t116 39v64h36v-65q82 -7 140 -46l5 -112l-46 -3l-11 88q-42 26 -88 29v-189q34 -8 56.5 -16
t50 -24t42 -44t14.5 -67zM165 394q0 -42 26 -60.5t77 -30.5v181q-49 -3 -76 -26.5t-27 -63.5zM409 139q0 45 -27 67.5t-78 36.5v-204q105 9 105 100z" />
    <glyph glyph-name="uni0025" unicode="%" horiz-adv-x="674" 
d="M212 245q-60 0 -97 34t-37 104q0 72 39.5 110t103.5 38q61 0 98 -34t37 -104t-38 -109t-106 -39zM606 521l-200 -252l-204 -269h-60l229 287l175 234h60zM213 287q94 0 94 105q0 97 -88 97q-93 0 -93 -105q0 -97 87 -97zM533 -10q-61 0 -98 33.5t-37 104.5q0 72 39.5 110
t104.5 38q61 0 97.5 -34t36.5 -104t-38 -109t-105 -39zM533 32q95 0 95 105q0 97 -88 97q-93 0 -93 -105q0 -97 86 -97z" />
    <glyph glyph-name="uni0026" unicode="&#x26;" horiz-adv-x="738" 
d="M478 356h287v-49h-116q-50 -126 -141 -216q79 -47 149 -47q47 0 85 23l14 -48q-48 -29 -107 -29q-90 0 -185 63q-83 -63 -172 -63q-77 0 -131.5 44.5t-54.5 120.5q0 59 33.5 98t95.5 74q-37 85 -37 153q0 80 48.5 130t127.5 50q68 0 111 -36.5t43 -94.5q0 -28 -13 -53.5
t-28 -42.5t-49 -39t-52 -31.5t-61 -30.5l-24 -12q64 -123 172 -205q79 78 116 192h-111v49zM471 526q0 36 -26.5 61.5t-72.5 25.5q-53 0 -85 -34.5t-32 -93.5q0 -61 31 -132q43 22 67.5 36t56 36.5t46.5 47.5t15 53zM251 293q-88 -52 -88 -131q0 -60 40.5 -91t101.5 -31
q67 0 123 39q-109 85 -177 214z" />
    <glyph glyph-name="uni0027" unicode="'" horiz-adv-x="187" 
d="M184 377h-49l-3 273h55z" />
    <glyph glyph-name="uni0028" unicode="(" horiz-adv-x="270" 
d="M247 718h55q-166 -211 -166 -448q0 -247 166 -453h-57q-159 211 -159 453q0 240 161 448z" />
    <glyph glyph-name="uni0029" unicode=")" horiz-adv-x="271" 
d="M77 -183h-55q166 211 166 448q0 247 -166 453h57q159 -211 159 -453q0 -240 -161 -448z" />
    <glyph glyph-name="uni002A" unicode="*" horiz-adv-x="415" 
d="M415 562l-121 -70l121 -69l-24 -37l-114 73l4 -120h-45l4 119l-114 -72l-24 37l121 69l-121 70l25 37l113 -74l-4 125h45l-5 -126l115 75z" />
    <glyph glyph-name="uni002B" unicode="+" horiz-adv-x="426" 
d="M80 259v44h154v152h44v-152h149v-44h-149v-151h-44v151h-154z" />
    <glyph glyph-name="uni002C" unicode="," horiz-adv-x="195" 
d="M58 -107l51 212h54l-51 -212h-54z" />
    <glyph glyph-name="uni002D" unicode="-" horiz-adv-x="355" 
d="M126 254h229v-49h-229v49z" />
    <glyph glyph-name="uni002E" unicode="." horiz-adv-x="207" 
d="M124 0v94h83v-94h-83z" />
    <glyph glyph-name="uni002F" unicode="/" horiz-adv-x="329" 
d="M334 688l-220 -688h-54l220 688h54z" />
    <glyph glyph-name="uni0030" unicode="0" horiz-adv-x="576" 
d="M576 260q0 -123 -62.5 -196.5t-176.5 -73.5t-174.5 73t-60.5 194t62 197.5t177 76.5q116 0 175.5 -75.5t59.5 -195.5zM516 262q0 100 -43 159t-132 59q-88 0 -133.5 -58t-45.5 -161t45 -161.5t132 -58.5q86 0 131.5 58.5t45.5 162.5z" />
    <glyph glyph-name="uni0031" unicode="1" horiz-adv-x="380" 
d="M414 0h-304v51h125v419h-125v51h182v-470h122v-51z" />
    <glyph glyph-name="uni0032" unicode="2" horiz-adv-x="509" 
d="M129 486q30 20 79 32.5t96 12.5q86 0 129 -47t43 -109q0 -34 -13.5 -67.5t-41 -65.5t-53 -57t-66 -53.5t-62 -43t-58.5 -37.5h273l10 85l48 -3l-10 -133h-393l-6 44q169 116 240.5 185.5t71.5 141.5q0 51 -33 80.5t-95 29.5q-54 0 -112 -25l-17 -75l-46 6z" />
    <glyph glyph-name="uni0033" unicode="3" horiz-adv-x="477" 
d="M98 476q24 21 67 38t93 17q78 0 126.5 -42t48.5 -117q0 -118 -129 -154v-4q158 -25 158 -165q0 -86 -52.5 -138t-147.5 -52q-83 0 -131.5 36.5t-64.5 94.5l43 16q45 -98 151 -98q142 0 142 142q0 65 -45 99t-154 38v44q90 6 130.5 44.5t40.5 92.5q0 53 -34 83t-94 30
q-48 0 -100 -27l-18 -83l-46 6z" />
    <glyph glyph-name="uni0034" unicode="4" horiz-adv-x="531" 
d="M417 -131h-56v166h-314l-7 49l243 437h134v-437h107l-8 -49h-99v-166zM361 84v387h-52l-213 -387h265z" />
    <glyph glyph-name="uni0035" unicode="5" horiz-adv-x="509" 
d="M526 62q0 -93 -52 -147.5t-150 -54.5q-80 0 -130 36.5t-66 93.5l43 16q38 -97 145 -97q75 0 112.5 38.5t37.5 110.5q0 49 -17 81.5t-50 48.5t-68 21.5t-84 5.5q-41 0 -81 -3l-20 20v289h352l6 -126l-47 -5l-8 81h-250v-207q17 1 53 1q58 0 102.5 -8t85.5 -29t63.5 -63
t22.5 -103z" />
    <glyph glyph-name="uni0036" unicode="6" horiz-adv-x="530" 
d="M530 202q0 -93 -50 -152.5t-155 -59.5q-63 0 -107.5 23t-68.5 67.5t-34.5 99t-10.5 126.5q0 164 55.5 259t176.5 95q61 0 103 -21t81 -66l-34 -36q-59 73 -150 73q-97 0 -134.5 -77t-38.5 -233v-20q17 50 62 84t121 34q94 0 139 -54t45 -142zM472 199q0 149 -137 149
q-81 0 -121 -47t-46 -106q11 -73 47.5 -113t111.5 -40q145 0 145 157z" />
    <glyph glyph-name="uni0037" unicode="7" horiz-adv-x="464" 
d="M483 484l-252 -614h-57l249 601h-297v-111h-52v161h400z" />
    <glyph glyph-name="uni0038" unicode="8" horiz-adv-x="538" 
d="M540 161q0 -78 -64 -124.5t-164 -46.5q-96 0 -155 44t-59 126q0 68 41.5 107t115.5 70q-66 31 -102.5 67.5t-36.5 92.5q0 71 56.5 117t144.5 46q87 0 144.5 -44.5t57.5 -117.5q0 -59 -38 -93.5t-106 -63.5q79 -36 122 -75.5t43 -104.5zM461 498q0 53 -40.5 82.5
t-103.5 29.5q-62 0 -102 -28.5t-40 -77.5q0 -48 37 -78t109 -62q74 31 107 58.5t33 75.5zM480 158q0 29 -13 52.5t-43 43.5t-51.5 30.5t-66.5 29.5q-76 -31 -113.5 -62t-37.5 -87q0 -60 44 -92.5t115 -32.5t118.5 31t47.5 87z" />
    <glyph glyph-name="uni0039" unicode="9" horiz-adv-x="530" 
d="M104 319q0 93 50 152.5t155 59.5q63 0 107.5 -23t68.5 -67.5t34.5 -99t10.5 -126.5q0 -164 -55.5 -259t-176.5 -95q-61 0 -103 21t-81 66l34 36q59 -73 150 -73q97 0 134.5 77t38.5 233v20q-17 -50 -62 -84t-121 -34q-94 0 -139 54t-45 142zM162 322q0 -149 137 -149
q81 0 121 47t46 106q-11 73 -47.5 113t-111.5 40q-145 0 -145 -157z" />
    <glyph glyph-name="uni003A" unicode=":" horiz-adv-x="218" 
d="M134 350v94h83v-94h-83zM134 0v94h83v-94h-83z" />
    <glyph glyph-name="uni003B" unicode=";" horiz-adv-x="230" 
d="M123 350v94h83v-94h-83zM183 105l-51 -212h-54l51 212h54z" />
    <glyph glyph-name="uni003C" unicode="&#x3c;" horiz-adv-x="410" 
d="M381 14l-319 258v14l318 263v-55l-255 -214l256 -211v-55z" />
    <glyph glyph-name="uni003D" unicode="=" horiz-adv-x="587" 
d="M130 369v44h457v-44h-457zM130 149v43h457v-43h-457z" />
    <glyph glyph-name="uni003E" unicode="&#x3e;" horiz-adv-x="410" 
d="M437 272l-319 -258v55l257 211l-256 214v55l318 -263v-14z" />
    <glyph glyph-name="uni003F" unicode="?" horiz-adv-x="437" 
d="M150 461l-46 3l5 112q24 34 71 59t99 25q76 0 127.5 -36t51.5 -96q0 -37 -21.5 -69.5t-52 -56t-60.5 -45t-51.5 -46t-21.5 -50.5q0 -44 56 -44v-42q-59 -2 -86.5 21.5t-27.5 61.5q0 32 21 61t51.5 50.5t60.5 43.5t51 49.5t21 58.5q0 38 -31 63t-89 25q-65 0 -115 -45z
M223 0v84h73v-84h-73z" />
    <glyph glyph-name="uni0040" unicode="@" horiz-adv-x="909" 
d="M342 401q72 52 165 52q71 0 107.5 -38.5t36.5 -110.5v-192q0 -36 22.5 -58.5t59.5 -22.5q45 0 74 37t39 85t10 105q0 79 -21.5 141.5t-56 101t-81 64t-93 35.5t-95.5 10q-165 0 -270.5 -109.5t-105.5 -277.5q0 -173 110 -277t266 -104q130 0 222 64l20 -36
q-110 -72 -248 -72q-177 0 -297 120t-120 302q0 181 119.5 307.5t301.5 126.5q54 0 107 -11.5t106.5 -40.5t93.5 -71t65 -109.5t25 -150.5q0 -70 -15.5 -130t-58.5 -105.5t-108 -45.5q-51 0 -82.5 26.5t-40.5 71.5q-22 -41 -63 -69.5t-92 -28.5q-53 0 -94.5 29.5t-41.5 94.5
q0 133 208 133q8 0 80 -3v50q0 115 -102 115q-61 0 -109 -33l-18 -79l-41 5zM596 208q-50 4 -84 4q-146 0 -146 -92q0 -44 28 -64.5t65 -20.5q52 0 94.5 39t42.5 95v39z" />
    <glyph glyph-name="uni0041" unicode="A" horiz-adv-x="638" 
d="M644 0h-223v51h96l-53 141h-293l-56 -141h103v-51h-222v51h61l220 548h-107v51h175l233 -599h66v-51zM447 238l-124 328h-5l-129 -328h258z" />
    <glyph glyph-name="uni0042" unicode="B" horiz-adv-x="599" 
d="M598 182q0 -80 -57.5 -131t-160.5 -51h-294v51h85v548h-85v51h289q98 0 146.5 -42t48.5 -115q0 -53 -30.5 -91.5t-79.5 -49.5v-4q68 -11 103 -56t35 -110zM509 481q0 64 -35 91t-105 27h-141v-238h139q62 0 102 31t40 89zM537 185q0 59 -35 93.5t-102 34.5h-172v-262h145
q76 0 120 33t44 101z" />
    <glyph glyph-name="uni0043" unicode="C" horiz-adv-x="647" 
d="M614 45q-76 -55 -210 -55q-140 0 -228 95t-88 238q0 141 87 239t216 98q138 0 229 -76l18 -117l-50 -6l-20 98q-74 49 -168 49q-111 0 -181.5 -80.5t-70.5 -203.5q0 -125 71.5 -203.5t194.5 -78.5q88 0 148 30l20 96l50 -6z" />
    <glyph glyph-name="uni0044" unicode="D" horiz-adv-x="707" 
d="M706 325q0 -144 -89 -234.5t-240 -90.5h-291v50h85v550h-85v50h289q153 0 242 -90.5t89 -234.5zM645 325q0 124 -71 199.5t-200 75.5h-146v-550h146q129 0 200 74.5t71 200.5z" />
    <glyph glyph-name="uni0045" unicode="E" horiz-adv-x="587" 
d="M565 0h-479v51h85v548h-85v51h469l20 -182l-51 -6l-20 137h-276v-243h315v-51h-315v-254h286l20 137l50 -5z" />
    <glyph glyph-name="uni0046" unicode="F" horiz-adv-x="556" 
d="M575 466l-53 -6l-20 139h-274v-271h306v-51h-306v-226h117v-51h-259v51h85v548h-85v51h468z" />
    <glyph glyph-name="uni0047" unicode="G" horiz-adv-x="694" 
d="M709 277h-55v-277h-44l-8 96q-30 -47 -86 -76.5t-127 -29.5q-131 0 -216 96t-85 237t89.5 239t222.5 98q146 0 230 -76l18 -117l-50 -6l-20 97q-77 50 -171 50q-115 0 -187 -80t-72 -202q0 -125 69 -204.5t181 -79.5q90 0 144.5 49.5t54.5 112.5v73h-163v51h275v-51z" />
    <glyph glyph-name="uni0048" unicode="H" horiz-adv-x="754" 
d="M753 0h-227v51h85v256h-383v-256h85v-51h-227v51h85v548h-85v51h227v-51h-85v-243h383v243h-85v51h227v-51h-84v-548h84v-51z" />
    <glyph glyph-name="uni0049" unicode="I" horiz-adv-x="314" 
d="M313 0h-227v51h85v548h-85v51h227v-51h-84v-548h84v-51z" />
    <glyph glyph-name="uni004A" unicode="J" horiz-adv-x="448" 
d="M428 599h-75v-438q0 -85 -41 -128t-118 -43q-108 0 -154 92l42 32q21 -38 46 -54t61 -16q107 0 107 117v438h-133v51h265v-51z" />
    <glyph glyph-name="uni004B" unicode="K" horiz-adv-x="633" 
d="M670 0h-221v51h81l-186 255h-115v-255h80v-51h-223v51h85v548h-85v51h224v-51h-81v-243h113l180 244h-82v51h218v-51h-75l-195 -263l208 -286h74v-51z" />
    <glyph glyph-name="uni004C" unicode="L" horiz-adv-x="541" 
d="M550 0h-464v51h85v548h-85v51h255v-51h-113v-548h270l20 155l52 -4z" />
    <glyph glyph-name="uni004D" unicode="M" horiz-adv-x="877" 
d="M877 599h-87v-548h85v-51h-223v51h81v458h-4l-231 -481h-35l-233 482h-4v-459h82v-51h-222v51h85v548h-87v51h138l259 -537h4l254 537h138v-51z" />
    <glyph glyph-name="uni004E" unicode="N" horiz-adv-x="732" 
d="M736 599h-84v-599h-39l-385 538h-4v-487h107v-51h-239v51h77v548h-87v51h130l381 -532h4v481h-99v51h238v-51z" />
    <glyph glyph-name="uni004F" unicode="O" horiz-adv-x="733" 
d="M733 325q0 -140 -91.5 -237.5t-233.5 -97.5q-141 0 -231.5 97t-90.5 238t91.5 238t231.5 97q142 0 233 -97t91 -238zM672 324q0 123 -72.5 203.5t-190.5 80.5t-190 -81t-72 -201t72 -202t191 -82q118 0 190 80.5t72 201.5z" />
    <glyph glyph-name="uni0050" unicode="P" horiz-adv-x="567" 
d="M576 455q0 -98 -58 -152t-156 -54h-134v-198h115v-51h-257v51h85v548h-85v51h270q113 0 166.5 -55.5t53.5 -139.5zM516 453q0 69 -41 107.5t-122 38.5h-125v-300h129q75 0 117 40t42 114z" />
    <glyph glyph-name="uni0051" unicode="Q" horiz-adv-x="741" 
d="M733 325q0 -141 -93 -239l78 -79l-36 -36l-81 81q-83 -62 -193 -62q-141 0 -231.5 97t-90.5 238t91.5 238t231.5 97q142 0 233 -97t91 -238zM672 324q0 123 -72.5 203.5t-190.5 80.5t-190 -81t-72 -201t72 -202t191 -82q89 0 154 48l-127 128l37 36l128 -130
q70 79 70 200z" />
    <glyph glyph-name="uni0052" unicode="R" horiz-adv-x="611" 
d="M645 0h-120l-143 279h-153v-228h92v-51h-235v51h85v548h-85v51h277q114 0 166.5 -50t52.5 -131q0 -65 -37 -114.5t-107 -65.5l124 -238h83v-51zM522 467q0 68 -39 100t-125 32h-129v-272h132q161 0 161 140z" />
    <glyph glyph-name="uni0053" unicode="S" horiz-adv-x="526" 
d="M533 178q0 -89 -63.5 -138.5t-162.5 -49.5q-129 0 -201 49l12 119l47 -5l-4 -82q59 -30 144 -30q74 0 120.5 32.5t46.5 99.5q0 31 -11 54t-23.5 36t-41 24.5t-43.5 15.5t-51 12q-35 8 -56 13.5t-50.5 19t-45.5 29.5t-28.5 44t-12.5 64q0 84 56 129.5t143 45.5
q52 0 106.5 -13.5t84.5 -35.5l6 -126l-47 -5l-11 103q-53 26 -130 26q-68 0 -108 -31.5t-40 -87.5q0 -25 9.5 -45t21.5 -31.5t37 -21.5t40 -14.5t46 -11.5q97 -23 134 -45q76 -46 76 -143z" />
    <glyph glyph-name="uni0054" unicode="T" horiz-adv-x="612" 
d="M612 458l-52 -4l-20 145h-185v-548h117v-51h-289v51h115v548h-185l-20 -145l-51 4l19 192h531z" />
    <glyph glyph-name="uni0055" unicode="U" horiz-adv-x="718" 
d="M715 599h-64v-333q0 -44 -7.5 -82t-26 -74.5t-47 -62.5t-73.5 -41.5t-102 -15.5q-69 0 -119.5 21t-77.5 59.5t-39.5 83.5t-12.5 101v344h-70v51h221v-51h-94v-342q0 -104 49 -159.5t146 -55.5q96 0 147 56.5t51 167.5v333h-97v51h216v-51z" />
    <glyph glyph-name="uni0056" unicode="V" horiz-adv-x="638" 
d="M635 599h-61l-236 -599h-49l-237 599h-64v51h225v-51h-99l200 -517h5l196 517h-101v51h221v-51z" />
    <glyph glyph-name="uni0057" unicode="W" horiz-adv-x="919" 
d="M915 599h-56l-172 -599h-50l-175 547h-4l-171 -547h-50l-184 599h-55v51h216v-51h-100l147 -508h4l159 508h-69v51h215v-51h-70l161 -510h4l137 510h-101v51h214v-51z" />
    <glyph glyph-name="uni0058" unicode="X" horiz-adv-x="623" 
d="M622 0h-217v51h90l-181 246l-174 -246h83v-51h-211v51h66l207 286l-197 262h-66v51h211v-51h-80l164 -222l157 222h-71v51h211v-51h-76l-192 -261l213 -287h63v-51z" />
    <glyph glyph-name="uni0059" unicode="Y" horiz-adv-x="604" 
d="M597 599h-66l-206 -352v-196h117v-51h-288v51h115v196l-215 352h-66v51h228v-51h-98l179 -298h5l172 298h-97v51h220v-51z" />
    <glyph glyph-name="uni005A" unicode="Z" horiz-adv-x="574" 
d="M539 0h-467l-2 37l398 559v3h-308l-30 -141l-48 8l27 184h438l1 -35l-399 -561v-3h338l30 143l50 -9z" />
    <glyph glyph-name="uni005B" unicode="[" horiz-adv-x="277" 
d="M178 -204v945h164v-43h-114v-859h114v-43h-164z" />
    <glyph glyph-name="uni005C" unicode="\" horiz-adv-x="378" 
d="M202 688h54l220 -688h-54z" />
    <glyph glyph-name="uni005D" unicode="]" horiz-adv-x="278" 
d="M210 -204h-164v43h114v859h-114v43h164v-945z" />
    <glyph glyph-name="uni005E" unicode="^" horiz-adv-x="448" 
d="M249 657h36l164 -283h-52l-131 229l-126 -229h-52z" />
    <glyph glyph-name="uni005F" unicode="_" horiz-adv-x="543" 
d="M112 -75h432v-43h-432v43z" />
    <glyph glyph-name="uni0060" unicode="`" horiz-adv-x="440" 
d="M507 550l-18 -27l-167 108l33 47z" />
    <glyph glyph-name="uni0061" unicode="a" horiz-adv-x="477" 
d="M128 409q53 44 147 44q154 0 154 -149v-216q0 -51 39 -51q20 0 33 7l1 -40q-22 -14 -52 -14q-36 0 -56 24t-20 66v2q-23 -39 -63 -65.5t-90 -26.5q-53 0 -94 29.5t-41 94.5q0 137 208 137q32 0 80 -4v47q0 54 -24.5 82t-83.5 28q-50 0 -90 -20l-18 -80l-46 6zM374 163v41
q-65 5 -87 5q-143 0 -143 -89q0 -43 27.5 -62t63.5 -19q52 0 94 35.5t45 88.5z" />
    <glyph glyph-name="uni0062" unicode="b" horiz-adv-x="529" 
d="M487 233q0 -45 -11 -86t-33 -77.5t-61.5 -58t-90.5 -21.5q-53 0 -95.5 22.5t-63.5 63.5l-9 -76h-55q13 96 13 127v515h-81v46h136v-338q52 103 161 103q85 0 137.5 -58.5t52.5 -161.5zM429 228q0 84 -40.5 130t-102.5 46q-63 0 -105.5 -47t-44.5 -101v-82
q0 -56 42.5 -95.5t102.5 -39.5q75 0 111.5 55.5t36.5 133.5z" />
    <glyph glyph-name="uni0063" unicode="c" horiz-adv-x="459" 
d="M463 145q-11 -65 -56 -110t-126 -45q-92 0 -144.5 60t-52.5 165q0 95 51.5 166.5t149.5 71.5q91 0 149 -48l16 -99l-46 -6l-17 75q-41 29 -102 29q-74 0 -108 -52.5t-34 -132.5q0 -85 37.5 -132.5t106.5 -47.5q106 0 129 117z" />
    <glyph glyph-name="uni0064" unicode="d" horiz-adv-x="544" 
d="M572 0h-137v92q-55 -102 -160 -102q-87 0 -139 58.5t-52 160.5q0 46 11 87.5t33.5 77.5t63 57.5t93.5 21.5q48 0 88 -21.5t62 -60.5v271h-112v46h167v-642h82v-46zM435 189v87q-2 54 -43 91t-98 37q-77 0 -114.5 -55.5t-37.5 -135.5q0 -83 40 -128.5t104 -45.5
q59 0 103 48t46 102z" />
    <glyph glyph-name="uni0065" unicode="e" horiz-adv-x="467" 
d="M469 124q-10 -59 -57.5 -96.5t-122.5 -37.5q-94 0 -149.5 60t-55.5 166q0 105 54.5 171t144.5 66q86 0 134 -56.5t48 -138.5q0 -22 -5 -50h-318q2 -81 41.5 -125t109.5 -44q105 0 130 96zM407 254q6 59 -27.5 104.5t-99.5 45.5q-62 0 -96 -42t-41 -108h264z" />
    <glyph glyph-name="uni0066" unicode="f" horiz-adv-x="313" 
d="M282 698q61 0 95 -29l16 -99l-46 -6l-18 78q-20 8 -55 8q-42 0 -64.5 -30.5t-22.5 -87.5v-88h117v-47h-117v-351h108v-46h-245v46h82v351h-66v47h66v86q0 77 44.5 122.5t105.5 45.5z" />
    <glyph glyph-name="uni0067" unicode="g" horiz-adv-x="543" 
d="M567 397h-75v-395q0 -104 -56.5 -164.5t-154.5 -60.5q-72 0 -124 34t-67 96l44 20q15 -51 57.5 -76t93.5 -25q69 0 110.5 47t41.5 132v88q-53 -100 -162 -100q-82 0 -135.5 57.5t-53.5 158.5q0 61 19 114.5t65.5 91.5t113.5 38q50 0 90.5 -20.5t62.5 -59.5v71h130v-47z
M437 182v95q0 55 -41 91t-99 36q-78 0 -116 -55.5t-38 -134.5q0 -83 40 -128t101 -45q63 0 107 44t46 97z" />
    <glyph glyph-name="uni0068" unicode="h" horiz-adv-x="555" 
d="M564 0h-220v46h83v221q0 137 -113 137q-59 0 -100 -41.5t-43 -94.5v-222h82v-46h-219v46h82v596h-82v46h137v-328q51 93 159 93q70 0 111 -43t41 -130v-234h82v-46z" />
    <glyph glyph-name="uni0069" unicode="i" horiz-adv-x="275" 
d="M143 568v79h62v-79h-62zM287 0h-220v46h83v351h-84v47h139v-398h82v-46z" />
    <glyph glyph-name="uni006A" unicode="j" horiz-adv-x="248" 
d="M90 568v79h62v-79h-62zM152 -21q0 -61 -15 -104t-41.5 -64.5t-57.5 -29.5t-68 -5l-2 45q25 0 44 5t40.5 19.5t33 48.5t11.5 85v418h-107v47h162v-465z" />
    <glyph glyph-name="uni006B" unicode="k" horiz-adv-x="511" 
d="M517 0h-205v46h74l-133 168h-83v-168h71v-46h-208v46h82v596h-83v46h138v-430h82l111 139h-73v47h203v-47h-72l-126 -156l153 -195h69v-46z" />
    <glyph glyph-name="uni006C" unicode="l" horiz-adv-x="261" 
d="M260 0h-219v46h82v596h-83v46h138v-642h82v-46z" />
    <glyph glyph-name="uni006D" unicode="m" horiz-adv-x="859" 
d="M880 0h-219v46h82v221q0 137 -107 137q-60 0 -98.5 -46.5t-40.5 -94.5v-217h82v-46h-219v46h82v221q0 137 -106 137q-61 0 -99 -45.5t-40 -93.5v-219h80v-46h-218v46h83v351h-84v47h139v-87q51 96 152 96q115 0 141 -110q22 50 63 80t97 30q68 0 108 -43t40 -130v-234h82
v-46z" />
    <glyph glyph-name="uni006E" unicode="n" horiz-adv-x="568" 
d="M589 0h-219v46h82v221q0 137 -110 137q-62 0 -102.5 -41t-42.5 -96v-221h82v-46h-220v46h83v351h-84v47h139v-82q49 91 158 91q70 0 111 -43t41 -130v-234h82v-46z" />
    <glyph glyph-name="uni006F" unicode="o" 
d="M510 222q0 -102 -59 -167t-158 -65q-98 0 -154.5 64t-56.5 165t57 167.5t158 66.5t157 -66t56 -165zM451 223q0 80 -41 130.5t-115 50.5q-73 0 -114 -51t-41 -131t40.5 -131.5t114.5 -51.5t115 51.5t41 132.5z" />
    <glyph glyph-name="uni0070" unicode="p" horiz-adv-x="544" 
d="M514 235q0 -46 -11.5 -87.5t-34 -78t-63 -58t-93.5 -21.5q-48 0 -87.5 20t-61.5 57v-234h109v-46h-247v46h83v564h-84v47h139v-95q54 104 159 104q87 0 139.5 -58.5t52.5 -159.5zM456 230q0 82 -40 128t-104 46q-59 0 -103 -49t-46 -102v-79q0 -56 41 -95.5t99 -39.5
q78 0 115.5 55.5t37.5 135.5z" />
    <glyph glyph-name="uni0071" unicode="q" horiz-adv-x="530" 
d="M562 -213h-236v46h110v260q-52 -103 -161 -103q-84 0 -137.5 58t-53.5 161q0 61 18.5 114t64.5 91.5t113 38.5q53 0 96.5 -23t64.5 -65q4 52 9 79h55q-14 -79 -14 -133v-478h71v-46zM436 189v82q0 56 -43 94.5t-103 38.5q-75 0 -111 -55.5t-36 -133.5q0 -85 40 -130.5
t102 -45.5t105.5 47.5t45.5 102.5z" />
    <glyph glyph-name="uni0072" unicode="r" horiz-adv-x="414" 
d="M305 452q47 0 73 -23l16 -99l-46 -6l-17 76q-15 4 -34 4q-44 0 -72 -37t-28 -94v-227h109v-46h-247v46h83v351h-84v47h136v-79q14 38 44.5 62.5t66.5 24.5z" />
    <glyph glyph-name="uni0073" unicode="s" horiz-adv-x="432" 
d="M434 126q0 -61 -52 -98.5t-130 -37.5q-45 0 -91 13t-71 31l12 94l45 -4l-4 -60q47 -25 107 -25q54 0 91 20.5t37 60.5q0 37 -29 56t-70 26t-82.5 15.5t-70.5 35t-29 73.5q0 63 45.5 95t110.5 32q84 0 152 -41l10 -102l-46 -6l-12 75q-47 25 -97 25q-105 0 -105 -72
q0 -34 28.5 -52t69.5 -24.5t82.5 -15.5t70 -37t28.5 -77z" />
    <glyph glyph-name="uni0074" unicode="t" horiz-adv-x="364" 
d="M374 115q-20 -125 -135 -125q-63 0 -96.5 37t-33.5 103v267h-73v47h73v144h55v-144h177v-47h-177v-261q0 -97 81 -97q33 0 54.5 19.5t31.5 70.5z" />
    <glyph glyph-name="uni0075" unicode="u" horiz-adv-x="555" 
d="M547 0h-138v88q-22 -45 -63 -71.5t-94 -26.5q-70 0 -112 43t-42 130v234h-82v47h137v-268q0 -137 115 -137q57 0 98 45t43 97v216h-98v47h153v-398h83v-46z" />
    <glyph glyph-name="uni0076" unicode="v" horiz-adv-x="504" 
d="M503 397h-57l-163 -397h-43l-170 397h-54v47h199v-47h-86l133 -320h6l123 320h-81v47h193v-47z" />
    <glyph glyph-name="uni0077" unicode="w" horiz-adv-x="767" 
d="M767 397h-54l-133 -397h-43l-141 358h-4l-141 -358h-41l-139 397h-51v47h202v-47h-91l103 -309h4l139 356h39l143 -357h5l94 310h-87v47h196v-47z" />
    <glyph glyph-name="uni0078" unicode="x" horiz-adv-x="508" 
d="M510 0h-187v46h64l-114 143l-115 -143h59v-46h-178v46h60l145 176l-143 175h-63v47h196v-47h-68l110 -142l114 142h-59v47h173v-47h-54l-144 -174l145 -177h59v-46z" />
    <glyph glyph-name="uni0079" unicode="y" horiz-adv-x="506" 
d="M506 397h-56l-160 -397l-65 -167h81v-46h-220v46h86l64 170l-163 394h-55v47h200v-47h-87l134 -323h6l122 323h-81v47h194v-47z" />
    <glyph glyph-name="uni007A" unicode="z" horiz-adv-x="461" 
d="M448 0h-369l-1 36l291 361h-231l-11 -94l-46 6l11 135h348l1 -36l-290 -362h251l24 95l44 -8z" />
    <glyph glyph-name="uni007B" unicode="{" horiz-adv-x="275" 
d="M142 267q91 -17 91 -81q0 -31 -43 -133t-43 -149q0 -64 63 -64h64v-43h-64q-52 0 -81 28.5t-29 79.5q0 53 42.5 154t42.5 127q0 35 -32 49t-66 14h-19v35h19q20 0 39.5 4t39 19.5t19.5 39.5q0 26 -42.5 129.5t-42.5 156.5q0 52 29 80t81 28h64v-43h-64q-63 0 -63 -64
q0 -47 43 -151.5t43 -134.5q0 -66 -91 -81z" />
    <glyph glyph-name="uni007C" unicode="|" horiz-adv-x="230" 
d="M230 730v-810h-50v810h50z" />
    <glyph glyph-name="uni007D" unicode="}" horiz-adv-x="275" 
d="M202 271q-91 17 -91 81q0 31 43 133t43 149q0 64 -63 64h-64v43h64q52 0 81 -28.5t29 -79.5q0 -53 -42.5 -154t-42.5 -127q0 -35 32 -49t66 -14h19v-35h-19q-20 0 -39.5 -4t-39 -19.5t-19.5 -39.5q0 -26 42.5 -129.5t42.5 -156.5q0 -52 -29 -80t-81 -28h-64v43h64
q63 0 63 64q0 47 -43 151.5t-43 134.5q0 66 91 81z" />
    <glyph glyph-name="uni007E" unicode="~" horiz-adv-x="622" 
d="M482 206q-48 0 -119.5 36.5t-115.5 36.5q-61 0 -103 -65l-34 22q53 94 141 94q45 0 117 -36.5t115 -36.5q32 0 56.5 17t50.5 62l37 -24q-61 -106 -145 -106z" />
    <glyph glyph-name="uni00A0" unicode="&#xa0;" horiz-adv-x="238" 
 />
    <glyph glyph-name="uni00A1" unicode="&#xa1;" horiz-adv-x="216" 
d="M138 360v84h73v-84h-73zM209 -214h-64l11 469h43z" />
    <glyph glyph-name="uni00A2" unicode="&#xa2;" horiz-adv-x="470" 
d="M463 145q-10 -59 -49.5 -102.5t-107.5 -50.5v-76h-40v75q-85 5 -133.5 64.5t-48.5 159.5q0 90 46.5 159.5t135.5 77.5v77h40v-77q77 -5 128 -47l16 -99l-46 -6l-17 75q-34 24 -81 28v-363q88 10 110 116zM143 219q0 -79 31.5 -125.5t91.5 -53.5v363q-64 -7 -93.5 -58
t-29.5 -126z" />
    <glyph glyph-name="uni00A3" unicode="&#xa3;" horiz-adv-x="513" 
d="M502 83q-16 -29 -49 -56t-80 -27h-287v43q47 21 63 65.5t16 132.5h-70v38h70v55q0 99 45.5 147t111.5 48q52 0 80.5 -8.5t59.5 -27.5l18 -117l-48 -6l-19 95q-33 19 -82 19q-111 0 -111 -149v-56h189v-38h-189q0 -79 -14 -125.5t-53 -70.5h208q68 0 110 64z" />
    <glyph glyph-name="uni00A4" unicode="&#xa4;" horiz-adv-x="524" 
d="M154 271q0 51 30 90l-98 98l25 26l98 -98q41 35 96 35q52 0 94 -34l98 97l26 -26l-98 -98q31 -41 31 -90q0 -50 -31 -91l98 -98l-26 -26l-98 97q-41 -33 -94 -33t-95 34l-99 -98l-25 26l98 98q-30 41 -30 91zM202 271q0 -47 30 -76t74 -29q43 0 72 29t29 76t-29 76.5
t-72 29.5t-73.5 -29.5t-30.5 -76.5z" />
    <glyph glyph-name="uni00A5" unicode="&#xa5;" horiz-adv-x="585" 
d="M265 476h-79l145 -230h5l139 230h-79v45h188v-45h-54l-146 -237h111v-36h-133l-4 -7v-54h137v-35h-137v-62h98v-45h-248v45h95v62h-138v35h138v58l-2 3h-136v36h113l-153 237h-55v45h195v-45z" />
    <glyph glyph-name="uni00A6" unicode="&#xa6;" horiz-adv-x="225" 
d="M225 730v-304h-51v304h51zM225 224v-304h-51v304h51z" />
    <glyph glyph-name="uni00A7" unicode="&#xa7;" horiz-adv-x="578" 
d="M536 133q0 -68 -53.5 -105.5t-145.5 -37.5q-60 0 -119 16.5t-98 44.5l11 103l47 -5l-4 -79q71 -36 166 -36q60 0 100 23t40 72q0 47 -38.5 65t-134.5 33q-39 5 -65 10t-59 15t-53 22t-34 31.5t-14 44.5q0 63 80 94q-38 31 -38 82q0 64 53.5 99t135.5 35q114 0 195 -40
l6 -126l-47 -5l-11 99q-63 28 -138 28q-63 0 -100.5 -22t-37.5 -65t37 -62t111 -32q136 -24 179 -42q73 -32 74 -89q0 -62 -73 -97q28 -28 28 -74zM527 296q0 21 -15 36.5t-47.5 26t-58.5 16t-70 13.5q-20 3 -29 5q-70 11 -109 28q-62 -21 -62 -66q0 -19 11 -31.5
t40.5 -22.5t57 -15.5t83.5 -15.5q100 -17 141 -35q58 24 58 61z" />
    <glyph glyph-name="uni00A8" unicode="&#xa8;" horiz-adv-x="391" 
d="M126 562v71h68v-71h-68zM294 562v71h68v-71h-68z" />
    <glyph glyph-name="uni00A9" unicode="&#xa9;" horiz-adv-x="632" 
d="M632 260q0 -111 -78.5 -189t-189.5 -78t-189.5 77.5t-78.5 189.5t78 190.5t191 78.5q112 0 189.5 -78.5t77.5 -190.5zM596 260q0 99 -65.5 166.5t-165.5 67.5t-166.5 -68t-66.5 -166t66.5 -165.5t165.5 -67.5q97 0 164.5 68t67.5 165zM482 113q-39 -29 -112 -29
q-75 0 -122 50.5t-47 126.5t46.5 128t115.5 52q75 0 123 -40l9 -63l-32 -3l-10 52q-36 24 -85 24q-59 0 -94 -41.5t-35 -107.5q0 -68 36 -108t101 -40q47 0 74 13l10 52l32 -3z" />
    <glyph glyph-name="uni00AA" unicode="&#xaa;" horiz-adv-x="377" 
d="M227 667q-30 0 -62 -17l-12 -54l-35 4l10 67q39 33 105 33q105 0 105 -97v-140q0 -32 25 -32q12 0 20 4v-27q-17 -10 -38 -10q-54 0 -54 61q-36 -61 -102 -61q-36 0 -63.5 19.5t-27.5 61.5q0 88 136 88q9 0 57 -3v29q0 74 -64 74zM291 514v24q-48 3 -56 3q-88 0 -88 -56
q0 -27 17.5 -40t40.5 -13q33 0 59 23t27 59z" />
    <glyph glyph-name="uni00AB" unicode="&#xab;" horiz-adv-x="446" 
d="M276 25h-48l-138 246l138 240h48l-132 -240zM439 25h-48l-138 246l138 240h48l-132 -240z" />
    <glyph glyph-name="uni00AC" unicode="&#xac;" horiz-adv-x="615" 
d="M574 105v156h-438v43h481v-199h-43z" />
    <glyph glyph-name="uni00AE" unicode="&#xae;" horiz-adv-x="599" 
d="M350 159q-104 0 -177 72.5t-73 177.5q0 104 73 177.5t178 73.5t177.5 -73t72.5 -178q0 -104 -73.5 -177t-177.5 -73zM351 193q90 0 152 63t62 153q0 91 -61.5 154t-152.5 63q-92 0 -154 -63t-62 -154t62 -153.5t154 -62.5zM230 301h38v236h-38v27h131q53 0 78 -22.5
t25 -58.5q0 -65 -66 -82l54 -100h39v-27h-61l-64 122h-65v-95h41v-27h-112v27zM355 422q73 0 73 60q0 55 -73 55h-54v-115h54z" />
    <glyph glyph-name="uni00AF" unicode="&#xaf;" horiz-adv-x="335" 
d="M322 572h-238v46h238v-46z" />
    <glyph glyph-name="uni00B0" unicode="&#xb0;" horiz-adv-x="405" 
d="M245 342q-70 0 -114.5 45t-44.5 113t45.5 114t115.5 46q71 0 114.5 -45.5t43.5 -113.5t-44.5 -113.5t-115.5 -45.5zM246 385q50 0 81 31.5t31 83.5q0 54 -31 85.5t-81 31.5t-81.5 -31.5t-31.5 -84.5t31.5 -84.5t81.5 -31.5z" />
    <glyph glyph-name="uni00B1" unicode="&#xb1;" horiz-adv-x="460" 
d="M114 262v44h154v152h44v-152h149v-44h-149v-151h-44v151h-154zM114 0v44h347v-44h-347z" />
    <glyph glyph-name="uni00B2" unicode="&#xb2;" horiz-adv-x="342" 
d="M117 670l-37 5l10 70q40 40 115 40q56 0 85 -28t29 -69q0 -28 -13 -57t-40 -58t-44.5 -46t-51.5 -44.5t-37 -30.5h170l9 54l38 -4l-10 -87h-264l-4 33q8 7 36.5 31t39.5 34t35 32t34.5 36t24.5 33t19.5 36.5t5.5 34.5q0 63 -76 63q-35 0 -60 -18z" />
    <glyph glyph-name="uni00B3" unicode="&#xb3;" horiz-adv-x="340" 
d="M127 677l-37 5l9 62q40 40 117 40q48 0 77 -23.5t29 -64.5q0 -67 -77 -87v-2q94 -13 94 -91q0 -52 -40.5 -80t-99.5 -28q-50 0 -83 27t-38 70l34 8q6 -28 28.5 -48t61.5 -20q40 0 63 20.5t23 54.5q0 65 -111 68v32q96 6 96 70q0 26 -18.5 41.5t-51.5 15.5q-34 0 -64 -18z
" />
    <glyph glyph-name="uni00B4" unicode="&#xb4;" horiz-adv-x="440" 
d="M523 631l-167 -108l-18 27l152 128z" />
    <glyph glyph-name="uni00B5" unicode="&#xb5;" horiz-adv-x="567" 
d="M120 -213v610h-82v47h137v-268q0 -72 30.5 -106t83.5 -34q58 0 98.5 42t42.5 93v226h-97v47h152v-398h84v-46h-139v86q-22 -44 -63 -70t-94 -26q-59 0 -98 30v-233h-55z" />
    <glyph glyph-name="uni00B6" unicode="&#xb6;" horiz-adv-x="607" 
d="M288 650h310v-50h-79v-600h-53v600h-70v-600h-53v310h-61q-101 0 -160.5 42t-59.5 132q0 72 58 119t168 47z" />
    <glyph glyph-name="uni00B7" unicode="&#xb7;" horiz-adv-x="216" 
d="M130 257v86h82v-86h-82z" />
    <glyph glyph-name="uni00B8" unicode="&#xb8;" horiz-adv-x="256" 
d="M303 -126q0 -41 -28.5 -62t-73.5 -21q-57 0 -91 30l16 33q30 -23 73 -23q55 0 55 46q0 26 -17 35t-46 9h-28v85h43v-54h8q43 0 66 -21.5t23 -56.5z" />
    <glyph glyph-name="uni00B9" unicode="&#xb9;" horiz-adv-x="254" 
d="M72 452h76v290h-76v37h123v-327h73v-37h-196v37z" />
    <glyph glyph-name="uni00BA" unicode="&#xba;" horiz-adv-x="380" 
d="M86 547q0 67 39 110t109 43t108 -42.5t38 -107.5q0 -67 -41 -109.5t-108 -42.5t-106 41.5t-39 107.5zM136 550q0 -50 25 -82t71 -32t72 32t26 82t-25.5 80.5t-71.5 30.5t-71.5 -31t-25.5 -80z" />
    <glyph glyph-name="uni00BB" unicode="&#xbb;" horiz-adv-x="446" 
d="M315 25h-48l132 246l-132 240h48l138 -240zM152 25h-48l132 246l-132 240h48l138 -240z" />
    <glyph glyph-name="uni00BC" unicode="&#xbc;" horiz-adv-x="698" 
d="M605 650l-189 -325l-183 -325h-44l197 337l175 313h44zM90 323h76v290h-76v37h123v-327h73v-37h-196v37zM601 -1v96h-184l-5 36l137 233h98v-234h63l-4 -35h-59v-96h-46zM571 327l-115 -197h145v197h-30z" />
    <glyph glyph-name="uni00BD" unicode="&#xbd;" horiz-adv-x="736" 
d="M595 650l-189 -325l-183 -325h-44l197 337l175 313h44zM84 323h76v290h-76v37h123v-327h73v-37h-196v37zM521 255l-37 5l10 70q40 40 115 40q56 0 85 -28t29 -69q0 -28 -13 -57t-40 -58t-44.5 -46t-51.5 -44.5t-37 -30.5h170l9 54l38 -4l-10 -87h-264l-4 33q8 7 36.5 31
t39.5 34t35 32t34.5 36t24.5 33t19.5 36.5t5.5 34.5q0 63 -76 63q-35 0 -60 -18z" />
    <glyph glyph-name="uni00BE" unicode="&#xbe;" horiz-adv-x="723" 
d="M135 553l-37 5l9 62q40 40 117 40q48 0 77 -23.5t29 -64.5q0 -67 -77 -87v-2q94 -13 94 -91q0 -52 -40.5 -80t-99.5 -28q-50 0 -83 27t-38 70l34 8q6 -28 28.5 -48t61.5 -20q40 0 63 20.5t23 54.5q0 65 -111 68v32q96 6 96 70q0 26 -18.5 41.5t-51.5 15.5q-34 0 -64 -18z
M631 650l-189 -325l-183 -325h-44l197 337l175 313h44zM624 -1v96h-184l-5 36l137 233h98v-234h63l-4 -35h-59v-96h-46zM594 327l-115 -197h145v197h-30z" />
    <glyph glyph-name="uni00BF" unicode="&#xbf;" horiz-adv-x="431" 
d="M293 444v-84h-73v84h73zM366 -17l46 -3l-5 -112q-24 -34 -71 -59t-99 -25q-76 0 -127.5 36t-51.5 96q0 37 21.5 69.5t52 56t60.5 45t51.5 46t21.5 50.5q0 44 -56 44v42q59 2 86.5 -21.5t27.5 -61.5q0 -32 -21 -61t-51.5 -50.5t-60.5 -43.5t-51 -49.5t-21 -58.5
q0 -38 31 -63t89 -25q65 0 115 45z" />
    <glyph glyph-name="uni00C0" unicode="&#xc0;" horiz-adv-x="638" 
d="M359 739l-8 -32l-193 46l14 55zM644 0h-223v51h96l-53 141h-293l-56 -141h103v-51h-222v51h61l220 548h-107v51h175l233 -599h66v-51zM447 238l-124 328h-5l-129 -328h258z" />
    <glyph glyph-name="uni00C1" unicode="&#xc1;" horiz-adv-x="638" 
d="M473 753l-193 -46l-9 32l188 69zM644 0h-223v51h96l-53 141h-293l-56 -141h103v-51h-222v51h61l220 548h-107v51h175l233 -599h66v-51zM447 238l-124 328h-5l-129 -328h258z" />
    <glyph glyph-name="uni00C2" unicode="&#xc2;" horiz-adv-x="638" 
d="M449 737l-17 -31l-116 63l-113 -64l-17 28l125 89h15zM644 0h-223v51h96l-53 141h-293l-56 -141h103v-51h-222v51h61l220 548h-107v51h175l233 -599h66v-51zM447 238l-124 328h-5l-129 -328h258z" />
    <glyph glyph-name="uni00C3" unicode="&#xc3;" horiz-adv-x="638" 
d="M446 792q-18 -80 -76 -80q-27 0 -66 18t-56 18q-38 0 -52 -41l-29 12q6 29 27.5 51.5t53.5 22.5q21 0 57.5 -18t62.5 -18q33 0 47 43zM644 0h-223v51h96l-53 141h-293l-56 -141h103v-51h-222v51h61l220 548h-107v51h175l233 -599h66v-51zM447 238l-124 328h-5l-129 -328
h258z" />
    <glyph glyph-name="uni00C4" unicode="&#xc4;" horiz-adv-x="638" 
d="M199 722v71h68v-71h-68zM367 722v71h68v-71h-68zM644 0h-223v51h96l-53 141h-293l-56 -141h103v-51h-222v51h61l220 548h-107v51h175l233 -599h66v-51zM447 238l-124 328h-5l-129 -328h258z" />
    <glyph glyph-name="uni00C5" unicode="&#xc5;" horiz-adv-x="638" 
d="M413 784q0 -42 -25.5 -68t-72.5 -26t-72 24.5t-25 68.5q0 41 26.5 66t71.5 25q48 0 72.5 -24.5t24.5 -65.5zM372 784q0 25 -14 40.5t-43 15.5q-27 0 -41.5 -16t-14.5 -41q0 -58 56 -58q28 0 42.5 16.5t14.5 42.5zM644 0h-223v51h96l-53 141h-293l-56 -141h103v-51h-222
v51h61l220 548h-107v51h175l233 -599h66v-51zM447 238l-124 328h-5l-129 -328h258z" />
    <glyph glyph-name="uni00C6" unicode="&#xc6;" horiz-adv-x="915" 
d="M838 0h-478v51h84v141h-271l-70 -141h99v-51h-222v51h66l271 548h-101v51h613l18 -181l-50 -7l-20 137h-275v-243h314v-51h-314v-254h285l20 137l50 -6zM444 238v361h-71l-178 -361h249z" />
    <glyph glyph-name="uni00C7" unicode="&#xc7;" horiz-adv-x="646" 
d="M504 -126q0 -41 -28.5 -62t-73.5 -21q-57 0 -91 30l16 33q30 -23 73 -23q55 0 55 46q0 26 -17 35t-46 9h-28v71q-125 13 -201.5 105.5t-76.5 225.5q0 141 87 239t216 98q138 0 229 -76l18 -117l-50 -6l-20 98q-74 49 -168 49q-111 0 -181.5 -80.5t-70.5 -203.5
q0 -125 71.5 -203.5t194.5 -78.5q88 0 148 30l20 96l50 -6l-18 -117q-73 -53 -205 -55v-38h8q43 0 66 -21.5t23 -56.5z" />
    <glyph glyph-name="uni00C8" unicode="&#xc8;" horiz-adv-x="588" 
d="M435 739l-8 -32l-193 46l14 55zM565 0h-479v51h85v548h-85v51h469l20 -182l-51 -6l-20 137h-276v-243h315v-51h-315v-254h286l20 137l50 -5z" />
    <glyph glyph-name="uni00C9" unicode="&#xc9;" horiz-adv-x="588" 
d="M504 753l-193 -46l-9 32l188 69zM565 0h-479v51h85v548h-85v51h469l20 -182l-51 -6l-20 137h-276v-243h315v-51h-315v-254h286l20 137l50 -5z" />
    <glyph glyph-name="uni00CA" unicode="&#xca;" horiz-adv-x="588" 
d="M505 737l-17 -31l-116 63l-113 -64l-17 28l125 89h15zM565 0h-479v51h85v548h-85v51h469l20 -182l-51 -6l-20 137h-276v-243h315v-51h-315v-254h286l20 137l50 -5z" />
    <glyph glyph-name="uni00CB" unicode="&#xcb;" horiz-adv-x="588" 
d="M248 722v71h68v-71h-68zM416 722v71h68v-71h-68zM565 0h-479v51h85v548h-85v51h469l20 -182l-51 -6l-20 137h-276v-243h315v-51h-315v-254h286l20 137l50 -5z" />
    <glyph glyph-name="uni00CC" unicode="&#xcc;" horiz-adv-x="314" 
d="M277 739l-8 -32l-193 46l14 55zM308 0h-227v51h85v548h-85v51h227v-51h-84v-548h84v-51z" />
    <glyph glyph-name="uni00CD" unicode="&#xcd;" horiz-adv-x="314" 
d="M321 753l-193 -46l-9 32l188 69zM313 0h-227v51h85v548h-85v51h227v-51h-84v-548h84v-51z" />
    <glyph glyph-name="uni00CE" unicode="&#xce;" horiz-adv-x="314" 
d="M317 737l-17 -31l-116 63l-113 -64l-17 28l125 89h15zM297 0h-227v51h85v548h-85v51h227v-51h-84v-548h84v-51z" />
    <glyph glyph-name="uni00CF" unicode="&#xcf;" horiz-adv-x="314" 
d="M84 722v71h68v-71h-68zM252 722v71h68v-71h-68zM312 0h-227v51h85v548h-85v51h227v-51h-84v-548h84v-51z" />
    <glyph glyph-name="uni00D0" unicode="&#xd0;" horiz-adv-x="707" 
d="M706 325q0 -144 -89 -234.5t-240 -90.5h-291v50h85v264h-82v49h82v237h-85v50h289q153 0 242 -90.5t89 -234.5zM645 325q0 124 -71 199.5t-200 75.5h-146v-237h138v-49h-138v-264h146q129 0 200 74.5t71 200.5z" />
    <glyph glyph-name="uni00D1" unicode="&#xd1;" horiz-adv-x="732" 
d="M542 792q-18 -80 -76 -80q-27 0 -66 18t-56 18q-38 0 -52 -41l-29 12q6 29 27.5 51.5t53.5 22.5q21 0 57.5 -18t62.5 -18q33 0 47 43zM736 599h-84v-599h-39l-385 538h-4v-487h107v-51h-239v51h77v548h-87v51h130l381 -532h4v481h-99v51h238v-51z" />
    <glyph glyph-name="uni00D2" unicode="&#xd2;" horiz-adv-x="733" 
d="M472 739l-8 -32l-193 46l14 55zM733 325q0 -140 -91.5 -237.5t-233.5 -97.5q-141 0 -231.5 97t-90.5 238t91.5 238t231.5 97q142 0 233 -97t91 -238zM672 324q0 123 -72.5 203.5t-190.5 80.5t-190 -81t-72 -201t72 -202t191 -82q118 0 190 80.5t72 201.5z" />
    <glyph glyph-name="uni00D3" unicode="&#xd3;" horiz-adv-x="733" 
d="M561 753l-193 -46l-9 32l188 69zM733 325q0 -140 -91.5 -237.5t-233.5 -97.5q-141 0 -231.5 97t-90.5 238t91.5 238t231.5 97q142 0 233 -97t91 -238zM672 324q0 123 -72.5 203.5t-190.5 80.5t-190 -81t-72 -201t72 -202t191 -82q118 0 190 80.5t72 201.5z" />
    <glyph glyph-name="uni00D4" unicode="&#xd4;" horiz-adv-x="733" 
d="M543 737l-17 -31l-116 63l-113 -64l-17 28l125 89h15zM733 325q0 -140 -91.5 -237.5t-233.5 -97.5q-141 0 -231.5 97t-90.5 238t91.5 238t231.5 97q142 0 233 -97t91 -238zM672 324q0 123 -72.5 203.5t-190.5 80.5t-190 -81t-72 -201t72 -202t191 -82q118 0 190 80.5
t72 201.5z" />
    <glyph glyph-name="uni00D5" unicode="&#xd5;" horiz-adv-x="733" 
d="M553 792q-18 -80 -76 -80q-27 0 -66 18t-56 18q-38 0 -52 -41l-29 12q6 29 27.5 51.5t53.5 22.5q21 0 57.5 -18t62.5 -18q33 0 47 43zM733 325q0 -140 -91.5 -237.5t-233.5 -97.5q-141 0 -231.5 97t-90.5 238t91.5 238t231.5 97q142 0 233 -97t91 -238zM672 324
q0 123 -72.5 203.5t-190.5 80.5t-190 -81t-72 -201t72 -202t191 -82q118 0 190 80.5t72 201.5z" />
    <glyph glyph-name="uni00D6" unicode="&#xd6;" horiz-adv-x="733" 
d="M294 722v71h68v-71h-68zM462 722v71h68v-71h-68zM733 325q0 -140 -91.5 -237.5t-233.5 -97.5q-141 0 -231.5 97t-90.5 238t91.5 238t231.5 97q142 0 233 -97t91 -238zM672 324q0 123 -72.5 203.5t-190.5 80.5t-190 -81t-72 -201t72 -202t191 -82q118 0 190 80.5t72 201.5
z" />
    <glyph glyph-name="uni00D7" unicode="&#xd7;" horiz-adv-x="392" 
d="M145 134l-31 31l108 109l-107 108l31 31l107 -108l106 106l31 -31l-106 -106l107 -106l-31 -32l-107 107z" />
    <glyph glyph-name="uni00D8" unicode="&#xd8;" horiz-adv-x="741" 
d="M741 325q0 -140 -91.5 -237.5t-233.5 -97.5q-118 0 -205 71l-55 -61h-62l84 94q-84 93 -84 231q0 141 91.5 238t231.5 97q117 0 204 -71l55 61h66l-85 -95q84 -95 84 -230zM155 326q0 -111 61 -189l369 411q-69 60 -168 60q-118 0 -190 -81t-72 -201zM680 324
q0 112 -61 189l-371 -411q69 -60 170 -60q118 0 190 80.5t72 201.5z" />
    <glyph glyph-name="uni00D9" unicode="&#xd9;" horiz-adv-x="717" 
d="M477 739l-8 -32l-193 46l14 55zM715 599h-64v-333q0 -44 -7.5 -82t-26 -74.5t-47 -62.5t-73.5 -41.5t-102 -15.5q-69 0 -119.5 21t-77.5 59.5t-39.5 83.5t-12.5 101v344h-70v51h221v-51h-94v-342q0 -104 49 -159.5t146 -55.5q96 0 147 56.5t51 167.5v333h-97v51h216v-51z
" />
    <glyph glyph-name="uni00DA" unicode="&#xda;" horiz-adv-x="717" 
d="M544 753l-193 -46l-9 32l188 69zM715 599h-64v-333q0 -44 -7.5 -82t-26 -74.5t-47 -62.5t-73.5 -41.5t-102 -15.5q-69 0 -119.5 21t-77.5 59.5t-39.5 83.5t-12.5 101v344h-70v51h221v-51h-94v-342q0 -104 49 -159.5t146 -55.5q96 0 147 56.5t51 167.5v333h-97v51h216v-51
z" />
    <glyph glyph-name="uni00DB" unicode="&#xdb;" horiz-adv-x="717" 
d="M530 737l-17 -31l-116 63l-113 -64l-17 28l125 89h15zM715 599h-64v-333q0 -44 -7.5 -82t-26 -74.5t-47 -62.5t-73.5 -41.5t-102 -15.5q-69 0 -119.5 21t-77.5 59.5t-39.5 83.5t-12.5 101v344h-70v51h221v-51h-94v-342q0 -104 49 -159.5t146 -55.5q96 0 147 56.5
t51 167.5v333h-97v51h216v-51z" />
    <glyph glyph-name="uni00DC" unicode="&#xdc;" horiz-adv-x="717" 
d="M283 722v71h68v-71h-68zM451 722v71h68v-71h-68zM715 599h-64v-333q0 -44 -7.5 -82t-26 -74.5t-47 -62.5t-73.5 -41.5t-102 -15.5q-69 0 -119.5 21t-77.5 59.5t-39.5 83.5t-12.5 101v344h-70v51h221v-51h-94v-342q0 -104 49 -159.5t146 -55.5q96 0 147 56.5t51 167.5v333
h-97v51h216v-51z" />
    <glyph glyph-name="uni00DD" unicode="&#xdd;" horiz-adv-x="604" 
d="M425 753l-193 -46l-9 32l188 69zM597 599h-66l-206 -352v-196h117v-51h-288v51h115v196l-215 352h-66v51h228v-51h-98l179 -298h5l172 298h-97v51h220v-51z" />
    <glyph glyph-name="uni00DE" unicode="&#xde;" horiz-adv-x="564" 
d="M313 0h-227v51h85v548h-85v51h227v-51h-84v-71h130q113 0 167 -52.5t54 -134.5q0 -95 -58.5 -149t-156.5 -54h-136v-87h84v-51zM356 481h-127v-296h130q76 0 118 40t42 114q0 68 -40.5 105t-122.5 37z" />
    <glyph glyph-name="uni00DF" unicode="&#xdf;" horiz-adv-x="643" 
d="M645 125q0 -61 -49 -98t-120 -37q-50 0 -100.5 12t-74.5 32l12 94l45 -4l-4 -57q38 -29 118 -29q50 0 83.5 21t33.5 61q0 37 -29 56.5t-70.5 27t-83 16t-70.5 33t-29 68.5q0 39 23 67.5t55.5 44.5t65 31.5t55.5 37.5t23 53q0 44 -43.5 69t-117.5 25q-181 0 -181 -162
v-487h-137v46h82v351h-66v47h66v46q0 93 62.5 150.5t178.5 57.5q97 0 154 -39t57 -101q0 -37 -22.5 -64.5t-54.5 -44.5t-64 -32t-54.5 -37.5t-22.5 -51.5q0 -30 28.5 -46t69.5 -23t82.5 -17t70 -39t28.5 -78z" />
    <glyph glyph-name="uni00E0" unicode="&#xe0;" horiz-adv-x="477" 
d="M328 550l-18 -27l-167 108l33 47zM128 409q53 44 147 44q154 0 154 -149v-216q0 -51 39 -51q20 0 33 7l1 -40q-22 -14 -52 -14q-36 0 -56 24t-20 66v2q-23 -39 -63 -65.5t-90 -26.5q-53 0 -94 29.5t-41 94.5q0 137 208 137q32 0 80 -4v47q0 54 -24.5 82t-83.5 28
q-50 0 -90 -20l-18 -80l-46 6zM374 163v41q-65 5 -87 5q-143 0 -143 -89q0 -43 27.5 -62t63.5 -19q52 0 94 35.5t45 88.5z" />
    <glyph glyph-name="uni00E1" unicode="&#xe1;" horiz-adv-x="477" 
d="M414 631l-167 -108l-18 27l152 128zM128 409q53 44 147 44q154 0 154 -149v-216q0 -51 39 -51q20 0 33 7l1 -40q-22 -14 -52 -14q-36 0 -56 24t-20 66v2q-23 -39 -63 -65.5t-90 -26.5q-53 0 -94 29.5t-41 94.5q0 137 208 137q32 0 80 -4v47q0 54 -24.5 82t-83.5 28
q-50 0 -90 -20l-18 -80l-46 6zM374 163v41q-65 5 -87 5q-143 0 -143 -89q0 -43 27.5 -62t63.5 -19q52 0 94 35.5t45 88.5z" />
    <glyph glyph-name="uni00E2" unicode="&#xe2;" horiz-adv-x="477" 
d="M397 552l-24 -30l-105 89l-98 -89l-23 27l118 118h15zM128 409q53 44 147 44q154 0 154 -149v-216q0 -51 39 -51q20 0 33 7l1 -40q-22 -14 -52 -14q-36 0 -56 24t-20 66v2q-23 -39 -63 -65.5t-90 -26.5q-53 0 -94 29.5t-41 94.5q0 137 208 137q32 0 80 -4v47
q0 54 -24.5 82t-83.5 28q-50 0 -90 -20l-18 -80l-46 6zM374 163v41q-65 5 -87 5q-143 0 -143 -89q0 -43 27.5 -62t63.5 -19q52 0 94 35.5t45 88.5z" />
    <glyph glyph-name="uni00E3" unicode="&#xe3;" horiz-adv-x="477" 
d="M403 646q-17 -83 -75 -83q-28 0 -67 19t-55 19q-39 0 -53 -43l-29 11q6 30 27.5 54.5t53.5 24.5q21 0 57.5 -18.5t62.5 -18.5q35 0 47 43zM128 409q53 44 147 44q154 0 154 -149v-216q0 -51 39 -51q20 0 33 7l1 -40q-22 -14 -52 -14q-36 0 -56 24t-20 66v2
q-23 -39 -63 -65.5t-90 -26.5q-53 0 -94 29.5t-41 94.5q0 137 208 137q32 0 80 -4v47q0 54 -24.5 82t-83.5 28q-50 0 -90 -20l-18 -80l-46 6zM374 163v41q-65 5 -87 5q-143 0 -143 -89q0 -43 27.5 -62t63.5 -19q52 0 94 35.5t45 88.5z" />
    <glyph glyph-name="uni00E4" unicode="&#xe4;" horiz-adv-x="477" 
d="M153 562v71h68v-71h-68zM321 562v71h68v-71h-68zM128 409q53 44 147 44q154 0 154 -149v-216q0 -51 39 -51q20 0 33 7l1 -40q-22 -14 -52 -14q-36 0 -56 24t-20 66v2q-23 -39 -63 -65.5t-90 -26.5q-53 0 -94 29.5t-41 94.5q0 137 208 137q32 0 80 -4v47q0 54 -24.5 82
t-83.5 28q-50 0 -90 -20l-18 -80l-46 6zM374 163v41q-65 5 -87 5q-143 0 -143 -89q0 -43 27.5 -62t63.5 -19q52 0 94 35.5t45 88.5z" />
    <glyph glyph-name="uni00E5" unicode="&#xe5;" horiz-adv-x="477" 
d="M371 607q0 -42 -25.5 -67.5t-72.5 -25.5t-72 24.5t-25 67.5q0 41 26.5 66.5t71.5 25.5q48 0 72.5 -25t24.5 -66zM330 608q0 24 -14 39.5t-43 15.5q-27 0 -41.5 -16t-14.5 -41q0 -57 56 -57q28 0 42.5 16.5t14.5 42.5zM128 409q53 44 147 44q154 0 154 -149v-216
q0 -51 39 -51q20 0 33 7l1 -40q-22 -14 -52 -14q-36 0 -56 24t-20 66v2q-23 -39 -63 -65.5t-90 -26.5q-53 0 -94 29.5t-41 94.5q0 137 208 137q32 0 80 -4v47q0 54 -24.5 82t-83.5 28q-50 0 -90 -20l-18 -80l-46 6zM374 163v41q-65 5 -87 5q-143 0 -143 -89q0 -43 27.5 -62
t63.5 -19q52 0 94 35.5t45 88.5z" />
    <glyph glyph-name="uni00E6" unicode="&#xe6;" horiz-adv-x="755" 
d="M760 124q-10 -59 -57.5 -96.5t-122.5 -37.5q-131 0 -181 109q-64 -109 -176 -109q-53 0 -94 29.5t-41 94.5q0 137 209 137q31 0 79 -4v47q0 110 -103 110q-55 0 -95 -20l-18 -80l-46 6l16 99q55 44 157 44q103 0 132 -79q56 79 155 79q86 0 134 -56.5t48 -138.5
q0 -22 -5 -50h-318q2 -81 41.5 -125t109.5 -44q105 0 130 96zM698 254q6 59 -27.5 104.5t-99.5 45.5q-63 0 -96.5 -42t-40.5 -108h264zM146 120q0 -43 27.5 -62t63.5 -19q52 0 94 35.5t45 88.5v41q-65 5 -85 5q-145 0 -145 -89z" />
    <glyph glyph-name="uni00E7" unicode="&#xe7;" horiz-adv-x="459" 
d="M396 -127q0 -41 -28.5 -62t-73.5 -21q-57 0 -91 30l16 33q30 -23 73 -23q55 0 55 46q0 26 -17 35t-46 9h-28v72q-80 8 -126 67t-46 156q0 95 51.5 166.5t149.5 71.5q91 0 149 -48l16 -99l-46 -6l-17 75q-41 29 -102 29q-74 0 -108 -52.5t-34 -132.5q0 -85 37.5 -132.5
t106.5 -47.5q106 0 129 117l47 -11q-11 -62 -51.5 -105.5t-112.5 -48.5v-40h8q43 0 66 -21.5t23 -56.5z" />
    <glyph glyph-name="uni00E8" unicode="&#xe8;" horiz-adv-x="467" 
d="M340 550l-18 -27l-167 108l33 47zM469 124q-10 -59 -57.5 -96.5t-122.5 -37.5q-94 0 -149.5 60t-55.5 166q0 105 54.5 171t144.5 66q86 0 134 -56.5t48 -138.5q0 -22 -5 -50h-318q2 -81 41.5 -125t109.5 -44q105 0 130 96zM407 254q6 59 -27.5 104.5t-99.5 45.5
q-62 0 -96 -42t-41 -108h264z" />
    <glyph glyph-name="uni00E9" unicode="&#xe9;" horiz-adv-x="467" 
d="M431 631l-167 -108l-18 27l152 128zM469 124q-10 -59 -57.5 -96.5t-122.5 -37.5q-94 0 -149.5 60t-55.5 166q0 105 54.5 171t144.5 66q86 0 134 -56.5t48 -138.5q0 -22 -5 -50h-318q2 -81 41.5 -125t109.5 -44q105 0 130 96zM407 254q6 59 -27.5 104.5t-99.5 45.5
q-62 0 -96 -42t-41 -108h264z" />
    <glyph glyph-name="uni00EA" unicode="&#xea;" horiz-adv-x="467" 
d="M412 552l-24 -30l-105 89l-98 -89l-23 27l118 118h15zM469 124q-10 -59 -57.5 -96.5t-122.5 -37.5q-94 0 -149.5 60t-55.5 166q0 105 54.5 171t144.5 66q86 0 134 -56.5t48 -138.5q0 -22 -5 -50h-318q2 -81 41.5 -125t109.5 -44q105 0 130 96zM407 254q6 59 -27.5 104.5
t-99.5 45.5q-62 0 -96 -42t-41 -108h264z" />
    <glyph glyph-name="uni00EB" unicode="&#xeb;" horiz-adv-x="467" 
d="M168 562v71h68v-71h-68zM336 562v71h68v-71h-68zM469 124q-10 -59 -57.5 -96.5t-122.5 -37.5q-94 0 -149.5 60t-55.5 166q0 105 54.5 171t144.5 66q86 0 134 -56.5t48 -138.5q0 -22 -5 -50h-318q2 -81 41.5 -125t109.5 -44q105 0 130 96zM407 254q6 59 -27.5 104.5
t-99.5 45.5q-62 0 -96 -42t-41 -108h264z" />
    <glyph glyph-name="uni00EC" unicode="&#xec;" horiz-adv-x="275" 
d="M175 550l-18 -27l-167 108l33 47zM29 46h83v351h-84v47h139v-398h82v-46h-220v46z" />
    <glyph glyph-name="uni00ED" unicode="&#xed;" horiz-adv-x="275" 
d="M263 631l-167 -108l-18 27l152 128zM67 46h83v351h-84v47h139v-398h82v-46h-220v46z" />
    <glyph glyph-name="uni00EE" unicode="&#xee;" horiz-adv-x="274" 
d="M266 552l-24 -30l-105 89l-98 -89l-23 27l118 118h15zM42 46h83v351h-84v47h139v-398h82v-46h-220v46z" />
    <glyph glyph-name="uni00EF" unicode="&#xef;" horiz-adv-x="275" 
d="M178 562v71h68v-71h-68zM10 562v71h68v-71h-68zM39 46h83v351h-84v47h139v-398h82v-46h-220v46z" />
    <glyph glyph-name="uni00F0" unicode="&#xf0;" horiz-adv-x="523" 
d="M209 530l61 71q-34 25 -87 56l23 41q61 -35 95 -61l52 60l32 -24l-52 -61q175 -148 175 -354v-36q0 -102 -58 -167t-157 -65q-98 0 -154.5 64t-56.5 165t57 167.5t150 66.5q86 0 142 -63q-32 103 -130 186l-59 -70zM291 404q-71 0 -111 -51t-40 -131t41 -131.5t115 -51.5
q73 0 113.5 50.5t40.5 130.5v39q0 48 -44 96.5t-115 48.5z" />
    <glyph glyph-name="uni00F1" unicode="&#xf1;" horiz-adv-x="568" 
d="M458 646q-17 -83 -75 -83q-28 0 -67 19t-55 19q-39 0 -53 -43l-29 11q6 30 27.5 54.5t53.5 24.5q21 0 57.5 -18.5t62.5 -18.5q35 0 47 43zM589 0h-219v46h82v221q0 137 -110 137q-62 0 -102.5 -41t-42.5 -96v-221h82v-46h-220v46h83v351h-84v47h139v-82q49 91 158 91
q70 0 111 -43t41 -130v-234h82v-46z" />
    <glyph glyph-name="uni00F2" unicode="&#xf2;" 
d="M352 550l-18 -27l-167 108l33 47zM510 222q0 -102 -59 -167t-158 -65q-98 0 -154.5 64t-56.5 165t57 167.5t158 66.5t157 -66t56 -165zM451 223q0 80 -41 130.5t-115 50.5q-73 0 -114 -51t-41 -131t40.5 -131.5t114.5 -51.5t115 51.5t41 132.5z" />
    <glyph glyph-name="uni00F3" unicode="&#xf3;" 
d="M442 631l-167 -108l-18 27l152 128zM510 222q0 -102 -59 -167t-158 -65q-98 0 -154.5 64t-56.5 165t57 167.5t158 66.5t157 -66t56 -165zM451 223q0 80 -41 130.5t-115 50.5q-73 0 -114 -51t-41 -131t40.5 -131.5t114.5 -51.5t115 51.5t41 132.5z" />
    <glyph glyph-name="uni00F4" unicode="&#xf4;" 
d="M422 552l-24 -30l-105 89l-98 -89l-23 27l118 118h15zM510 222q0 -102 -59 -167t-158 -65q-98 0 -154.5 64t-56.5 165t57 167.5t158 66.5t157 -66t56 -165zM451 223q0 80 -41 130.5t-115 50.5q-73 0 -114 -51t-41 -131t40.5 -131.5t114.5 -51.5t115 51.5t41 132.5z" />
    <glyph glyph-name="uni00F5" unicode="&#xf5;" 
d="M431 646q-17 -83 -75 -83q-28 0 -67 19t-55 19q-39 0 -53 -43l-29 11q6 30 27.5 54.5t53.5 24.5q21 0 57.5 -18.5t62.5 -18.5q35 0 47 43zM510 222q0 -102 -59 -167t-158 -65q-98 0 -154.5 64t-56.5 165t57 167.5t158 66.5t157 -66t56 -165zM451 223q0 80 -41 130.5
t-115 50.5q-73 0 -114 -51t-41 -131t40.5 -131.5t114.5 -51.5t115 51.5t41 132.5z" />
    <glyph glyph-name="uni00F6" unicode="&#xf6;" 
d="M178 562v71h68v-71h-68zM346 562v71h68v-71h-68zM510 222q0 -102 -59 -167t-158 -65q-98 0 -154.5 64t-56.5 165t57 167.5t158 66.5t157 -66t56 -165zM451 223q0 80 -41 130.5t-115 50.5q-73 0 -114 -51t-41 -131t40.5 -131.5t114.5 -51.5t115 51.5t41 132.5z" />
    <glyph glyph-name="uni00F7" unicode="&#xf7;" horiz-adv-x="459" 
d="M241 378v87h83v-87h-83zM459 259h-347v44h347v-44zM241 99v87h83v-87h-83z" />
    <glyph glyph-name="uni00F8" unicode="&#xf8;" horiz-adv-x="514" 
d="M514 222q0 -102 -59 -167t-158 -65q-77 0 -131 41l-26 -31h-54l51 60q-51 63 -51 159q0 101 57 167.5t158 66.5q77 0 130 -42l28 33h55l-52 -62q52 -64 52 -160zM144 222q0 -70 30 -117l223 265q-40 34 -98 34q-73 0 -114 -51t-41 -131zM455 223q0 69 -30 115l-224 -265
q39 -34 98 -34q74 0 115 51.5t41 132.5z" />
    <glyph glyph-name="uni00F9" unicode="&#xf9;" horiz-adv-x="556" 
d="M313 550l-18 -27l-167 108l33 47zM547 0h-138v88q-22 -45 -63 -71.5t-94 -26.5q-70 0 -112 43t-42 130v234h-82v47h137v-268q0 -137 115 -137q57 0 98 45t43 97v216h-98v47h153v-398h83v-46z" />
    <glyph glyph-name="uni00FA" unicode="&#xfa;" horiz-adv-x="556" 
d="M422 631l-167 -108l-18 27l152 128zM547 0h-138v88q-22 -45 -63 -71.5t-94 -26.5q-70 0 -112 43t-42 130v234h-82v47h137v-268q0 -137 115 -137q57 0 98 45t43 97v216h-98v47h153v-398h83v-46z" />
    <glyph glyph-name="uni00FB" unicode="&#xfb;" horiz-adv-x="556" 
d="M399 552l-24 -30l-105 89l-98 -89l-23 27l118 118h15zM547 0h-138v88q-22 -45 -63 -71.5t-94 -26.5q-70 0 -112 43t-42 130v234h-82v47h137v-268q0 -137 115 -137q57 0 98 45t43 97v216h-98v47h153v-398h83v-46z" />
    <glyph glyph-name="uni00FC" unicode="&#xfc;" horiz-adv-x="556" 
d="M146 562v71h68v-71h-68zM314 562v71h68v-71h-68zM547 0h-138v88q-22 -45 -63 -71.5t-94 -26.5q-70 0 -112 43t-42 130v234h-82v47h137v-268q0 -137 115 -137q57 0 98 45t43 97v216h-98v47h153v-398h83v-46z" />
    <glyph glyph-name="uni00FD" unicode="&#xfd;" horiz-adv-x="506" 
d="M407 631l-167 -108l-18 27l152 128zM506 397h-56l-160 -397l-65 -167h81v-46h-220v46h86l64 170l-163 394h-55v47h200v-47h-87l134 -323h6l122 323h-81v47h194v-47z" />
    <glyph glyph-name="uni00FE" unicode="&#xfe;" horiz-adv-x="519" 
d="M-24 -167h82v809h-84v46h139v-339q53 104 162 104q85 0 137 -58.5t52 -159.5q0 -62 -19 -115.5t-66 -91.5t-116 -38q-48 0 -88 20t-62 57v-234h110v-46h-247v46zM257 39q74 0 111.5 56t37.5 135q0 82 -39.5 128t-100.5 46q-63 0 -107 -49.5t-46 -103.5v-75
q0 -57 41.5 -97t102.5 -40z" />
    <glyph glyph-name="uni00FF" unicode="&#xff;" horiz-adv-x="506" 
d="M156 562v71h68v-71h-68zM324 562v71h68v-71h-68zM506 397h-56l-160 -397l-65 -167h81v-46h-220v46h86l64 170l-163 394h-55v47h200v-47h-87l134 -323h6l122 323h-81v47h194v-47z" />
    <glyph glyph-name="uni0100" unicode="&#x100;" horiz-adv-x="638" 
d="M450 736h-271v46h271v-46zM644 0h-223v51h96l-53 141h-293l-56 -141h103v-51h-222v51h61l220 548h-107v51h175l233 -599h66v-51zM447 238l-124 328h-5l-129 -328h258z" />
    <glyph glyph-name="uni0101" unicode="&#x101;" horiz-adv-x="477" 
d="M389 572h-238v46h238v-46zM128 409q53 44 147 44q154 0 154 -149v-216q0 -51 39 -51q20 0 33 7l1 -40q-22 -14 -52 -14q-36 0 -56 24t-20 66v2q-23 -39 -63 -65.5t-90 -26.5q-53 0 -94 29.5t-41 94.5q0 137 208 137q32 0 80 -4v47q0 54 -24.5 82t-83.5 28q-50 0 -90 -20
l-18 -80l-46 6zM374 163v41q-65 5 -87 5q-143 0 -143 -89q0 -43 27.5 -62t63.5 -19q52 0 94 35.5t45 88.5z" />
    <glyph glyph-name="uni0102" unicode="&#x102;" horiz-adv-x="638" 
d="M437 812q0 -59 -28.5 -85.5t-88.5 -26.5q-61 0 -89.5 26.5t-28.5 85.5h47q0 -41 17 -56.5t53 -15.5q39 0 55 15.5t16 56.5h47zM644 0h-223v51h96l-53 141h-293l-56 -141h103v-51h-222v51h61l220 548h-107v51h175l233 -599h66v-51zM447 238l-124 328h-5l-129 -328h258z
" />
    <glyph glyph-name="uni0103" unicode="&#x103;" horiz-adv-x="477" 
d="M387 655q0 -118 -118 -118q-117 0 -117 118h47q0 -42 18 -60t53 -18q36 0 53 18.5t17 59.5h47zM128 409q53 44 147 44q154 0 154 -149v-216q0 -51 39 -51q20 0 33 7l1 -40q-22 -14 -52 -14q-36 0 -56 24t-20 66v2q-23 -39 -63 -65.5t-90 -26.5q-53 0 -94 29.5t-41 94.5
q0 137 208 137q32 0 80 -4v47q0 54 -24.5 82t-83.5 28q-50 0 -90 -20l-18 -80l-46 6zM374 163v41q-65 5 -87 5q-143 0 -143 -89q0 -43 27.5 -62t63.5 -19q52 0 94 35.5t45 88.5z" />
    <glyph glyph-name="uni0104" unicode="&#x104;" horiz-adv-x="637" 
d="M634 -189q-37 -20 -76 -20q-47 0 -74 24.5t-27 66.5q0 74 72 118h-108v51h96l-53 141h-293l-56 -141h103v-51h-222v51h61l220 548h-107v51h175l233 -599h66v-51h-67q-70 -42 -70 -106q0 -59 62 -59q31 0 56 16zM447 238l-124 328h-5l-129 -328h258z" />
    <glyph glyph-name="uni0105" unicode="&#x105;" horiz-adv-x="477" 
d="M519 -189q-37 -20 -76 -20q-47 0 -74 24.5t-27 66.5q0 72 70 117q-38 20 -38 81v2q-23 -39 -63 -65.5t-90 -26.5q-53 0 -94 29.5t-41 94.5q0 137 208 137q32 0 80 -4v47q0 54 -24.5 82t-83.5 28q-50 0 -90 -20l-18 -80l-46 6l16 99q53 44 147 44q154 0 154 -149v-216
q0 -51 39 -51q20 0 33 7l1 -40q-22 -14 -52 -14h-4q-54 -39 -54 -96q0 -59 62 -59q31 0 56 16zM374 163v41q-65 5 -87 5q-143 0 -143 -89q0 -43 27.5 -62t63.5 -19q52 0 94 35.5t45 88.5z" />
    <glyph glyph-name="uni0106" unicode="&#x106;" horiz-adv-x="647" 
d="M550 753l-193 -46l-9 32l188 69zM614 45q-76 -55 -210 -55q-140 0 -228 95t-88 238q0 141 87 239t216 98q138 0 229 -76l18 -117l-50 -6l-20 98q-74 49 -168 49q-111 0 -181.5 -80.5t-70.5 -203.5q0 -125 71.5 -203.5t194.5 -78.5q88 0 148 30l20 96l50 -6z" />
    <glyph glyph-name="uni0107" unicode="&#x107;" horiz-adv-x="459" 
d="M415 631l-167 -108l-18 27l152 128zM463 145q-11 -65 -56 -110t-126 -45q-92 0 -144.5 60t-52.5 165q0 95 51.5 166.5t149.5 71.5q91 0 149 -48l16 -99l-46 -6l-17 75q-41 29 -102 29q-74 0 -108 -52.5t-34 -132.5q0 -85 37.5 -132.5t106.5 -47.5q106 0 129 117z" />
    <glyph glyph-name="uni0108" unicode="&#x108;" horiz-adv-x="647" 
d="M535 737l-17 -31l-116 63l-113 -64l-17 28l125 89h15zM614 45q-76 -55 -210 -55q-140 0 -228 95t-88 238q0 141 87 239t216 98q138 0 229 -76l18 -117l-50 -6l-20 98q-74 49 -168 49q-111 0 -181.5 -80.5t-70.5 -203.5q0 -125 71.5 -203.5t194.5 -78.5q88 0 148 30l20 96
l50 -6z" />
    <glyph glyph-name="uni0109" unicode="&#x109;" horiz-adv-x="459" 
d="M410 552l-24 -30l-105 89l-98 -89l-23 27l118 118h15zM463 145q-11 -65 -56 -110t-126 -45q-92 0 -144.5 60t-52.5 165q0 95 51.5 166.5t149.5 71.5q91 0 149 -48l16 -99l-46 -6l-17 75q-41 29 -102 29q-74 0 -108 -52.5t-34 -132.5q0 -85 37.5 -132.5t106.5 -47.5
q106 0 129 117z" />
    <glyph glyph-name="uni010A" unicode="&#x10a;" horiz-adv-x="647" 
d="M362 722v71h68v-71h-68zM614 45q-76 -55 -210 -55q-140 0 -228 95t-88 238q0 141 87 239t216 98q138 0 229 -76l18 -117l-50 -6l-20 98q-74 49 -168 49q-111 0 -181.5 -80.5t-70.5 -203.5q0 -125 71.5 -203.5t194.5 -78.5q88 0 148 30l20 96l50 -6z" />
    <glyph glyph-name="uni010B" unicode="&#x10b;" horiz-adv-x="459" 
d="M248 559v79h62v-79h-62zM463 145q-11 -65 -56 -110t-126 -45q-92 0 -144.5 60t-52.5 165q0 95 51.5 166.5t149.5 71.5q91 0 149 -48l16 -99l-46 -6l-17 75q-41 29 -102 29q-74 0 -108 -52.5t-34 -132.5q0 -85 37.5 -132.5t106.5 -47.5q106 0 129 117z" />
    <glyph glyph-name="uni010C" unicode="&#x10c;" horiz-adv-x="647" 
d="M533 792l-124 -87h-16l-123 84l18 30l116 -62l112 65zM614 45q-76 -55 -210 -55q-140 0 -228 95t-88 238q0 141 87 239t216 98q138 0 229 -76l18 -117l-50 -6l-20 98q-74 49 -168 49q-111 0 -181.5 -80.5t-70.5 -203.5q0 -125 71.5 -203.5t194.5 -78.5q88 0 148 30l20 96
l50 -6z" />
    <glyph glyph-name="uni010D" unicode="&#x10d;" horiz-adv-x="459" 
d="M409 639l-117 -117h-16l-117 115l24 30l104 -89l99 89zM463 145q-11 -65 -56 -110t-126 -45q-92 0 -144.5 60t-52.5 165q0 95 51.5 166.5t149.5 71.5q91 0 149 -48l16 -99l-46 -6l-17 75q-41 29 -102 29q-74 0 -108 -52.5t-34 -132.5q0 -85 37.5 -132.5t106.5 -47.5
q106 0 129 117z" />
    <glyph glyph-name="uni010E" unicode="&#x10e;" horiz-adv-x="707" 
d="M480 792l-124 -87h-16l-123 84l18 30l116 -62l112 65zM706 325q0 -144 -89 -234.5t-240 -90.5h-291v50h85v550h-85v50h289q153 0 242 -90.5t89 -234.5zM645 325q0 124 -71 199.5t-200 75.5h-146v-550h146q129 0 200 74.5t71 200.5z" />
    <glyph glyph-name="uni010F" unicode="&#x10f;" horiz-adv-x="554" 
d="M572 0h-137v92q-55 -102 -160 -102q-87 0 -139 58.5t-52 160.5q0 46 11 87.5t33.5 77.5t63 57.5t93.5 21.5q48 0 88 -21.5t62 -60.5v271h-112v46h167v-642h82v-46zM627 681l-19 -224h-46l13 224h52zM435 189v87q-2 54 -43 91t-98 37q-77 0 -114.5 -55.5t-37.5 -135.5
q0 -83 40 -128.5t104 -45.5q59 0 103 48t46 102z" />
    <glyph glyph-name="uni0110" unicode="&#x110;" horiz-adv-x="707" 
d="M706 325q0 -144 -89 -234.5t-240 -90.5h-291v50h85v264h-82v49h82v237h-85v50h289q153 0 242 -90.5t89 -234.5zM645 325q0 124 -71 199.5t-200 75.5h-146v-237h138v-49h-138v-264h146q129 0 200 74.5t71 200.5z" />
    <glyph glyph-name="uni0111" unicode="&#x111;" horiz-adv-x="544" 
d="M572 0h-137v92q-55 -102 -160 -102q-87 0 -139 58.5t-52 160.5q0 46 11 87.5t33.5 77.5t63 57.5t93.5 21.5q48 0 88 -21.5t62 -60.5v156h-178v43h178v72h-112v46h167v-118h68v-43h-68v-481h82v-46zM435 189v87q-2 54 -43 91t-98 37q-77 0 -114.5 -55.5t-37.5 -135.5
q0 -83 40 -128.5t104 -45.5q59 0 103 48t46 102z" />
    <glyph glyph-name="uni0112" unicode="&#x112;" horiz-adv-x="588" 
d="M501 736h-271v46h271v-46zM565 0h-479v51h85v548h-85v51h469l20 -182l-51 -6l-20 137h-276v-243h315v-51h-315v-254h286l20 137l50 -5z" />
    <glyph glyph-name="uni0113" unicode="&#x113;" horiz-adv-x="467" 
d="M404 572h-238v46h238v-46zM469 124q-10 -59 -57.5 -96.5t-122.5 -37.5q-94 0 -149.5 60t-55.5 166q0 105 54.5 171t144.5 66q86 0 134 -56.5t48 -138.5q0 -22 -5 -50h-318q2 -81 41.5 -125t109.5 -44q105 0 130 96zM407 254q6 59 -27.5 104.5t-99.5 45.5q-62 0 -96 -42
t-41 -108h264z" />
    <glyph glyph-name="uni0114" unicode="&#x114;" horiz-adv-x="588" 
d="M486 812q0 -59 -28.5 -85.5t-88.5 -26.5q-61 0 -89.5 26.5t-28.5 85.5h47q0 -41 17 -56.5t53 -15.5q39 0 55 15.5t16 56.5h47zM565 0h-479v51h85v548h-85v51h469l20 -182l-51 -6l-20 137h-276v-243h315v-51h-315v-254h286l20 137l50 -5z" />
    <glyph glyph-name="uni0115" unicode="&#x115;" horiz-adv-x="467" 
d="M400 655q0 -118 -118 -118q-117 0 -117 118h47q0 -42 18 -60t53 -18q36 0 53 18.5t17 59.5h47zM469 124q-10 -59 -57.5 -96.5t-122.5 -37.5q-94 0 -149.5 60t-55.5 166q0 105 54.5 171t144.5 66q86 0 134 -56.5t48 -138.5q0 -22 -5 -50h-318q2 -81 41.5 -125t109.5 -44
q105 0 130 96zM407 254q6 59 -27.5 104.5t-99.5 45.5q-62 0 -96 -42t-41 -108h264z" />
    <glyph glyph-name="uni0116" unicode="&#x116;" horiz-adv-x="588" 
d="M328 722v71h68v-71h-68zM565 0h-479v51h85v548h-85v51h469l20 -182l-51 -6l-20 137h-276v-243h315v-51h-315v-254h286l20 137l50 -5z" />
    <glyph glyph-name="uni0117" unicode="&#x117;" horiz-adv-x="467" 
d="M249 559v79h62v-79h-62zM469 124q-10 -59 -57.5 -96.5t-122.5 -37.5q-94 0 -149.5 60t-55.5 166q0 105 54.5 171t144.5 66q86 0 134 -56.5t48 -138.5q0 -22 -5 -50h-318q2 -81 41.5 -125t109.5 -44q105 0 130 96zM407 254q6 59 -27.5 104.5t-99.5 45.5q-62 0 -96 -42
t-41 -108h264z" />
    <glyph glyph-name="uni0118" unicode="&#x118;" horiz-adv-x="587" 
d="M565 0h-41q-70 -42 -70 -106q0 -59 62 -59q31 0 56 16l9 -40q-37 -20 -76 -20q-47 0 -74 24.5t-27 66.5q0 74 72 118h-390v51h85v548h-85v51h469l20 -182l-51 -6l-20 137h-276v-243h315v-51h-315v-254h286l20 137l50 -5z" />
    <glyph glyph-name="uni0119" unicode="&#x119;" horiz-adv-x="467" 
d="M469 124q-9 -47 -40.5 -81t-82.5 -46q-64 -40 -64 -103q0 -59 62 -59q31 0 56 16l9 -40q-37 -20 -76 -20q-47 0 -74 24.5t-27 66.5q0 65 57 108q-94 0 -149.5 60t-55.5 166q0 105 54.5 171t144.5 66q86 0 134 -56.5t48 -138.5q0 -22 -5 -50h-318q2 -81 41.5 -125
t109.5 -44q105 0 130 96zM407 254q6 59 -27.5 104.5t-99.5 45.5q-62 0 -96 -42t-41 -108h264z" />
    <glyph glyph-name="uni011A" unicode="&#x11a;" horiz-adv-x="588" 
d="M490 792l-124 -87h-16l-123 84l18 30l116 -62l112 65zM565 0h-479v51h85v548h-85v51h469l20 -182l-51 -6l-20 137h-276v-243h315v-51h-315v-254h286l20 137l50 -5z" />
    <glyph glyph-name="uni011B" unicode="&#x11b;" horiz-adv-x="467" 
d="M408 639l-117 -117h-16l-117 115l24 30l104 -89l99 89zM469 124q-10 -59 -57.5 -96.5t-122.5 -37.5q-94 0 -149.5 60t-55.5 166q0 105 54.5 171t144.5 66q86 0 134 -56.5t48 -138.5q0 -22 -5 -50h-318q2 -81 41.5 -125t109.5 -44q105 0 130 96zM407 254q6 59 -27.5 104.5
t-99.5 45.5q-62 0 -96 -42t-41 -108h264z" />
    <glyph glyph-name="uni011C" unicode="&#x11c;" horiz-adv-x="694" 
d="M530 737l-17 -31l-116 63l-113 -64l-17 28l125 89h15zM709 277h-55v-277h-44l-8 96q-30 -47 -86 -76.5t-127 -29.5q-131 0 -216 96t-85 237t89.5 239t222.5 98q146 0 230 -76l18 -117l-50 -6l-20 97q-77 50 -171 50q-115 0 -187 -80t-72 -202q0 -125 69 -204.5t181 -79.5
q90 0 144.5 49.5t54.5 112.5v73h-163v51h275v-51z" />
    <glyph glyph-name="uni011D" unicode="&#x11d;" horiz-adv-x="543" 
d="M426 552l-24 -30l-105 89l-98 -89l-23 27l118 118h15zM567 397h-75v-395q0 -104 -56.5 -164.5t-154.5 -60.5q-72 0 -124 34t-67 96l44 20q15 -51 57.5 -76t93.5 -25q69 0 110.5 47t41.5 132v88q-53 -100 -162 -100q-82 0 -135.5 57.5t-53.5 158.5q0 61 19 114.5
t65.5 91.5t113.5 38q50 0 90.5 -20.5t62.5 -59.5v71h130v-47zM437 182v95q0 55 -41 91t-99 36q-78 0 -116 -55.5t-38 -134.5q0 -83 40 -128t101 -45q63 0 107 44t46 97z" />
    <glyph glyph-name="uni011E" unicode="&#x11e;" horiz-adv-x="694" 
d="M516 812q0 -59 -28.5 -85.5t-88.5 -26.5q-61 0 -89.5 26.5t-28.5 85.5h47q0 -41 17 -56.5t53 -15.5q39 0 55 15.5t16 56.5h47zM709 277h-55v-277h-44l-8 96q-30 -47 -86 -76.5t-127 -29.5q-131 0 -216 96t-85 237t89.5 239t222.5 98q146 0 230 -76l18 -117l-50 -6l-20 97
q-77 50 -171 50q-115 0 -187 -80t-72 -202q0 -125 69 -204.5t181 -79.5q90 0 144.5 49.5t54.5 112.5v73h-163v51h275v-51z" />
    <glyph glyph-name="uni011F" unicode="&#x11f;" horiz-adv-x="543" 
d="M419 655q0 -118 -118 -118q-117 0 -117 118h47q0 -42 18 -60t53 -18q36 0 53 18.5t17 59.5h47zM567 397h-75v-395q0 -104 -56.5 -164.5t-154.5 -60.5q-72 0 -124 34t-67 96l44 20q15 -51 57.5 -76t93.5 -25q69 0 110.5 47t41.5 132v88q-53 -100 -162 -100
q-82 0 -135.5 57.5t-53.5 158.5q0 61 19 114.5t65.5 91.5t113.5 38q50 0 90.5 -20.5t62.5 -59.5v71h130v-47zM437 182v95q0 55 -41 91t-99 36q-78 0 -116 -55.5t-38 -134.5q0 -83 40 -128t101 -45q63 0 107 44t46 97z" />
    <glyph glyph-name="uni0120" unicode="&#x120;" horiz-adv-x="694" 
d="M364 722v71h68v-71h-68zM709 277h-55v-277h-44l-8 96q-30 -47 -86 -76.5t-127 -29.5q-131 0 -216 96t-85 237t89.5 239t222.5 98q146 0 230 -76l18 -117l-50 -6l-20 97q-77 50 -171 50q-115 0 -187 -80t-72 -202q0 -125 69 -204.5t181 -79.5q90 0 144.5 49.5t54.5 112.5
v73h-163v51h275v-51z" />
    <glyph glyph-name="uni0121" unicode="&#x121;" horiz-adv-x="543" 
d="M270 559v79h62v-79h-62zM567 397h-75v-395q0 -104 -56.5 -164.5t-154.5 -60.5q-72 0 -124 34t-67 96l44 20q15 -51 57.5 -76t93.5 -25q69 0 110.5 47t41.5 132v88q-53 -100 -162 -100q-82 0 -135.5 57.5t-53.5 158.5q0 61 19 114.5t65.5 91.5t113.5 38q50 0 90.5 -20.5
t62.5 -59.5v71h130v-47zM437 182v95q0 55 -41 91t-99 36q-78 0 -116 -55.5t-38 -134.5q0 -83 40 -128t101 -45q63 0 107 44t46 97z" />
    <glyph glyph-name="uni0122" unicode="&#x122;" horiz-adv-x="694" 
d="M709 277h-55v-277h-44l-8 96q-30 -47 -86 -76.5t-127 -29.5q-131 0 -216 96t-85 237t89.5 239t222.5 98q146 0 230 -76l18 -117l-50 -6l-20 97q-77 50 -171 50q-115 0 -187 -80t-72 -202q0 -125 69 -204.5t181 -79.5q90 0 144.5 49.5t54.5 112.5v73h-163v51h275v-51z
M421 -66l-16 -153h-46l10 153h52z" />
    <glyph glyph-name="uni0123" unicode="&#x123;" horiz-adv-x="543" 
d="M273 546l16 153h46l-10 -153h-52zM567 397h-75v-395q0 -104 -56.5 -164.5t-154.5 -60.5q-72 0 -124 34t-67 96l44 20q15 -51 57.5 -76t93.5 -25q69 0 110.5 47t41.5 132v88q-53 -100 -162 -100q-82 0 -135.5 57.5t-53.5 158.5q0 61 19 114.5t65.5 91.5t113.5 38
q50 0 90.5 -20.5t62.5 -59.5v71h130v-47zM437 182v95q0 55 -41 91t-99 36q-78 0 -116 -55.5t-38 -134.5q0 -83 40 -128t101 -45q63 0 107 44t46 97z" />
    <glyph glyph-name="uni0124" unicode="&#x124;" horiz-adv-x="754" 
d="M555 737l-17 -31l-116 63l-113 -64l-17 28l125 89h15zM753 0h-227v51h85v256h-383v-256h85v-51h-227v51h85v548h-85v51h227v-51h-85v-243h383v243h-85v51h227v-51h-84v-548h84v-51z" />
    <glyph glyph-name="uni0125" unicode="&#x125;" horiz-adv-x="555" 
d="M204 748l-24 -30l-105 89l-98 -89l-23 27l118 118h15zM524 0h-220v46h83v221q0 137 -113 137q-59 0 -100 -41.5t-43 -94.5v-222h82v-46h-219v46h82v596h-82v46h137v-328q51 93 159 93q70 0 111 -43t41 -130v-234h82v-46z" />
    <glyph glyph-name="uni0126" unicode="&#x126;" horiz-adv-x="755" 
d="M95 472v47h76v80h-85v51h227v-51h-85v-80h383v80h-85v51h227v-51h-84v-80h76v-47h-76v-421h84v-51h-227v51h85v256h-383v-256h85v-51h-227v51h85v421h-76zM228 356h383v116h-383v-116z" />
    <glyph glyph-name="uni0127" unicode="&#x127;" horiz-adv-x="555" 
d="M564 0h-220v46h83v221q0 137 -113 137q-59 0 -100 -41.5t-43 -94.5v-222h82v-46h-219v46h82v479h-76v43h76v74h-82v46h137v-120h170v-43h-170v-165q51 93 159 93q70 0 111 -43t41 -130v-234h82v-46z" />
    <glyph glyph-name="uni0128" unicode="&#x128;" horiz-adv-x="314" 
d="M325 792q-18 -80 -76 -80q-27 0 -66 18t-56 18q-38 0 -52 -41l-29 12q6 29 27.5 51.5t53.5 22.5q21 0 57.5 -18t62.5 -18q33 0 47 43zM293 0h-227v51h85v548h-85v51h227v-51h-84v-548h84v-51z" />
    <glyph glyph-name="uni0129" unicode="&#x129;" horiz-adv-x="274" 
d="M261 646q-17 -83 -75 -83q-28 0 -67 19t-55 19q-39 0 -53 -43l-29 11q6 30 27.5 54.5t53.5 24.5q21 0 57.5 -18.5t62.5 -18.5q35 0 47 43zM25 46h83v351h-84v47h139v-398h82v-46h-220v46z" />
    <glyph glyph-name="uni012A" unicode="&#x12a;" horiz-adv-x="314" 
d="M319 736h-271v46h271v-46zM294 0h-227v51h85v548h-85v51h227v-51h-84v-548h84v-51z" />
    <glyph glyph-name="uni012B" unicode="&#x12b;" horiz-adv-x="275" 
d="M254 572h-238v46h238v-46zM42 46h83v351h-84v47h139v-398h82v-46h-220v46z" />
    <glyph glyph-name="uni012C" unicode="&#x12c;" horiz-adv-x="314" 
d="M315 812q0 -59 -28.5 -85.5t-88.5 -26.5q-61 0 -89.5 26.5t-28.5 85.5h47q0 -41 17 -56.5t53 -15.5q39 0 55 15.5t16 56.5h47zM310 0h-227v51h85v548h-85v51h227v-51h-84v-548h84v-51z" />
    <glyph glyph-name="uni012D" unicode="&#x12d;" horiz-adv-x="274" 
d="M283 655q0 -118 -118 -118q-117 0 -117 118h47q0 -42 18 -60t53 -18q36 0 53 18.5t17 59.5h47zM58 46h83v351h-84v47h139v-398h82v-46h-220v46z" />
    <glyph glyph-name="uni012E" unicode="&#x12e;" horiz-adv-x="314" 
d="M283 -189q-37 -20 -76 -20q-47 0 -74 24.5t-27 66.5q0 74 72 118h-92v51h85v548h-85v51h227v-51h-84v-548h84v-51h-87q-70 -42 -70 -106q0 -59 62 -59q31 0 56 16z" />
    <glyph glyph-name="uni012F" unicode="&#x12f;" horiz-adv-x="274" 
d="M143 568v79h62v-79h-62zM255 -149l9 -40q-37 -20 -76 -20q-47 0 -74 24.5t-27 66.5q0 74 72 118h-92v46h83v351h-84v47h139v-398h82v-46h-80q-70 -42 -70 -106q0 -59 62 -59q31 0 56 16z" />
    <glyph glyph-name="uni0130" unicode="&#x130;" horiz-adv-x="314" 
d="M165 722v71h68v-71h-68zM313 0h-227v51h85v548h-85v51h227v-51h-84v-548h84v-51z" />
    <glyph glyph-name="uni0131" unicode="&#x131;" horiz-adv-x="275" 
d="M67 46h83v351h-84v47h139v-398h82v-46h-220v46z" />
    <glyph glyph-name="uni0132" unicode="&#x132;" horiz-adv-x="761" 
d="M313 0h-227v51h85v548h-85v51h227v-51h-84v-548h84v-51zM764 599h-75v-438q0 -85 -41 -128t-118 -43q-108 0 -154 92l42 32q21 -38 46 -54t61 -16q107 0 107 117v438h-133v51h265v-51z" />
    <glyph glyph-name="uni0133" unicode="&#x133;" horiz-adv-x="523" 
d="M143 568v79h62v-79h-62zM413 568v79h62v-79h-62zM287 0h-220v46h83v351h-84v47h139v-398h82v-46zM475 -21q0 -61 -15 -104t-41.5 -64.5t-57.5 -29.5t-68 -5l-2 45q25 0 44 5t40.5 19.5t33 48.5t11.5 85v418h-107v47h162v-465z" />
    <glyph glyph-name="uni0134" unicode="&#x134;" horiz-adv-x="448" 
d="M436 737l-17 -31l-116 63l-113 -64l-17 28l125 89h15zM428 599h-75v-438q0 -85 -41 -128t-118 -43q-108 0 -154 92l42 32q21 -38 46 -54t61 -16q107 0 107 117v438h-133v51h265v-51z" />
    <glyph glyph-name="uni0135" unicode="&#x135;" horiz-adv-x="248" 
d="M221 552l-24 -30l-105 89l-98 -89l-23 27l118 118h15zM-10 444h162v-465q0 -61 -15 -104t-41.5 -64.5t-57.5 -29.5t-68 -5l-2 42q25 0 44 5.5t40 20.5t33 49.5t12 85.5v418h-107v47z" />
    <glyph glyph-name="uni0136" unicode="&#x136;" horiz-adv-x="632" 
d="M670 0h-221v51h81l-186 255h-115v-255h80v-51h-223v51h85v548h-85v51h224v-51h-81v-243h113l180 244h-82v51h218v-51h-75l-195 -263l208 -286h74v-51zM410 -66l-16 -153h-46l10 153h52z" />
    <glyph glyph-name="uni0137" unicode="&#x137;" horiz-adv-x="511" 
d="M517 0h-205v46h74l-133 168h-83v-168h71v-46h-208v46h82v596h-83v46h138v-430h82l111 139h-73v47h203v-47h-72l-126 -156l153 -195h69v-46zM299 -66l-16 -153h-46l10 153h52z" />
    <glyph glyph-name="uni0139" unicode="&#x139;" horiz-adv-x="541" 
d="M337 753l-193 -46l-9 32l188 69zM550 0h-464v51h85v548h-85v51h255v-51h-113v-548h270l20 155l52 -4z" />
    <glyph glyph-name="uni013A" unicode="&#x13a;" horiz-adv-x="262" 
d="M240 758l-193 -46l-9 32l188 69zM259 0h-219v46h82v596h-83v46h138v-642h82v-46z" />
    <glyph glyph-name="uni013B" unicode="&#x13b;" horiz-adv-x="541" 
d="M550 0h-464v51h85v548h-85v51h255v-51h-113v-548h270l20 155l52 -4zM377 -66l-16 -153h-46l10 153h52z" />
    <glyph glyph-name="uni013C" unicode="&#x13c;" horiz-adv-x="262" 
d="M260 0h-219v46h82v596h-83v46h138v-642h82v-46zM181 -66l-16 -153h-46l10 153h52z" />
    <glyph glyph-name="uni013D" unicode="&#x13d;" horiz-adv-x="541" 
d="M459 682l-19 -224h-46l13 224h52zM550 0h-464v51h85v548h-85v51h255v-51h-113v-548h270l20 155l52 -4z" />
    <glyph glyph-name="uni013E" unicode="&#x13e;" horiz-adv-x="271" 
d="M260 0h-219v46h82v596h-83v46h138v-642h82v-46zM317 681l-19 -224h-46l13 224h52z" />
    <glyph glyph-name="uni013F" unicode="&#x13f;" horiz-adv-x="541" 
d="M550 0h-464v51h85v548h-85v51h255v-51h-113v-548h270l20 155l52 -4zM382 299v79h62v-79h-62z" />
    <glyph glyph-name="uni0140" unicode="&#x140;" horiz-adv-x="271" 
d="M260 0h-219v46h82v596h-83v46h138v-642h82v-46zM245 299v79h62v-79h-62z" />
    <glyph glyph-name="uni0141" unicode="&#x141;" horiz-adv-x="542" 
d="M552 0h-464v51h85v219l-84 -35v48l84 35v281h-85v51h255v-51h-113v-257l158 66v-48l-158 -66v-243h270l20 155l52 -4z" />
    <glyph glyph-name="uni0142" unicode="&#x142;" horiz-adv-x="268" 
d="M47 247v48l82 38v309h-83v46h138v-330l84 40v-48l-84 -40v-264h82v-46h-219v46h82v239z" />
    <glyph glyph-name="uni0143" unicode="&#x143;" horiz-adv-x="732" 
d="M550 753l-193 -46l-9 32l188 69zM736 599h-84v-599h-39l-385 538h-4v-487h107v-51h-239v51h77v548h-87v51h130l381 -532h4v481h-99v51h238v-51z" />
    <glyph glyph-name="uni0144" unicode="&#x144;" horiz-adv-x="568" 
d="M470 631l-167 -108l-18 27l152 128zM589 0h-219v46h82v221q0 137 -110 137q-62 0 -102.5 -41t-42.5 -96v-221h82v-46h-220v46h83v351h-84v47h139v-82q49 91 158 91q70 0 111 -43t41 -130v-234h82v-46z" />
    <glyph glyph-name="uni0145" unicode="&#x145;" horiz-adv-x="732" 
d="M736 599h-84v-599h-39l-385 538h-4v-487h107v-51h-239v51h77v548h-87v51h130l381 -532h4v481h-99v51h238v-51zM445 -66l-16 -153h-46l10 153h52z" />
    <glyph glyph-name="uni0146" unicode="&#x146;" horiz-adv-x="568" 
d="M589 0h-219v46h82v221q0 137 -110 137q-62 0 -102.5 -41t-42.5 -96v-221h82v-46h-220v46h83v351h-84v47h139v-82q49 91 158 91q70 0 111 -43t41 -130v-234h82v-46zM358 -66l-16 -153h-46l10 153h52z" />
    <glyph glyph-name="uni0147" unicode="&#x147;" horiz-adv-x="732" 
d="M536 792l-124 -87h-16l-123 84l18 30l116 -62l112 65zM736 599h-84v-599h-39l-385 538h-4v-487h107v-51h-239v51h77v548h-87v51h130l381 -532h4v481h-99v51h238v-51z" />
    <glyph glyph-name="uni0148" unicode="&#x148;" horiz-adv-x="568" 
d="M451 639l-117 -117h-16l-117 115l24 30l104 -89l99 89zM589 0h-219v46h82v221q0 137 -110 137q-62 0 -102.5 -41t-42.5 -96v-221h82v-46h-220v46h83v351h-84v47h139v-82q49 91 158 91q70 0 111 -43t41 -130v-234h82v-46z" />
    <glyph glyph-name="uni0149" unicode="&#x149;" horiz-adv-x="568" 
d="M70 519l47 194h49l-46 -194h-50zM589 0h-219v46h82v221q0 137 -110 137q-62 0 -102.5 -41t-42.5 -96v-221h82v-46h-220v46h83v351h-84v47h139v-82q49 91 158 91q70 0 111 -43t41 -130v-234h82v-46z" />
    <glyph glyph-name="uni014A" unicode="&#x14a;" horiz-adv-x="732" 
d="M736 599h-84v-620q0 -85 -41.5 -128t-118.5 -43q-108 0 -153 92l42 31q22 -38 46.5 -54t60.5 -16q106 0 106 118v47l-366 512h-4v-487h107v-51h-239v51h77v548h-87v51h130l381 -532h4v481h-99v51h238v-51z" />
    <glyph glyph-name="uni014B" unicode="&#x14b;" horiz-adv-x="550" 
d="M59 46h83v351h-84v47h139v-82q49 91 158 91q70 0 111 -43t41 -130v-301q0 -61 -15 -104t-41.5 -64.5t-57.5 -29.5t-69 -5l-1 42q25 0 44 5.5t40 20.5t33 49.5t12 85.5v288q0 137 -112 137q-62 0 -102.5 -42.5t-40.5 -97.5v-218h82v-46h-220v46z" />
    <glyph glyph-name="uni014C" unicode="&#x14c;" horiz-adv-x="733" 
d="M554 736h-271v46h271v-46zM733 325q0 -140 -91.5 -237.5t-233.5 -97.5q-141 0 -231.5 97t-90.5 238t91.5 238t231.5 97q142 0 233 -97t91 -238zM672 324q0 123 -72.5 203.5t-190.5 80.5t-190 -81t-72 -201t72 -202t191 -82q118 0 190 80.5t72 201.5z" />
    <glyph glyph-name="uni014D" unicode="&#x14d;" 
d="M415 572h-238v46h238v-46zM510 222q0 -102 -59 -167t-158 -65q-98 0 -154.5 64t-56.5 165t57 167.5t158 66.5t157 -66t56 -165zM451 223q0 80 -41 130.5t-115 50.5q-73 0 -114 -51t-41 -131t40.5 -131.5t114.5 -51.5t115 51.5t41 132.5z" />
    <glyph glyph-name="uni014E" unicode="&#x14e;" horiz-adv-x="733" 
d="M533 812q0 -59 -28.5 -85.5t-88.5 -26.5q-61 0 -89.5 26.5t-28.5 85.5h47q0 -41 17 -56.5t53 -15.5q39 0 55 15.5t16 56.5h47zM733 325q0 -140 -91.5 -237.5t-233.5 -97.5q-141 0 -231.5 97t-90.5 238t91.5 238t231.5 97q142 0 233 -97t91 -238zM672 324
q0 123 -72.5 203.5t-190.5 80.5t-190 -81t-72 -201t72 -202t191 -82q118 0 190 80.5t72 201.5z" />
    <glyph glyph-name="uni014F" unicode="&#x14f;" 
d="M418 655q0 -118 -118 -118q-117 0 -117 118h47q0 -42 18 -60t53 -18q36 0 53 18.5t17 59.5h47zM510 222q0 -102 -59 -167t-158 -65q-98 0 -154.5 64t-56.5 165t57 167.5t158 66.5t157 -66t56 -165zM451 223q0 80 -41 130.5t-115 50.5q-73 0 -114 -51t-41 -131
t40.5 -131.5t114.5 -51.5t115 51.5t41 132.5z" />
    <glyph glyph-name="uni0150" unicode="&#x150;" horiz-adv-x="733" 
d="M491 834l-153 -127l-22 23l136 145zM641 753l-193 -46l-8 32l187 69zM733 325q0 -140 -91.5 -237.5t-233.5 -97.5q-141 0 -231.5 97t-90.5 238t91.5 238t231.5 97q142 0 233 -97t91 -238zM672 324q0 123 -72.5 203.5t-190.5 80.5t-190 -81t-72 -201t72 -202t191 -82
q118 0 190 80.5t72 201.5z" />
    <glyph glyph-name="uni0151" unicode="&#x151;" 
d="M345 682l-120 -160l-26 19l99 173zM498 631l-167 -108l-18 27l152 128zM510 222q0 -102 -59 -167t-158 -65q-98 0 -154.5 64t-56.5 165t57 167.5t158 66.5t157 -66t56 -165zM451 223q0 80 -41 130.5t-115 50.5q-73 0 -114 -51t-41 -131t40.5 -131.5t114.5 -51.5t115 51.5
t41 132.5z" />
    <glyph glyph-name="uni0152" unicode="&#x152;" horiz-adv-x="999" 
d="M976 0h-394v40q-77 -50 -172 -50q-141 0 -232.5 97.5t-91.5 237.5q0 141 92 238t232 97q93 0 172 -51v41h384l20 -183l-52 -5l-20 137h-275v-243h314v-51h-314v-254h285l20 137l52 -5zM582 103v444q-72 61 -170 61q-119 0 -192 -81t-73 -201q0 -119 72.5 -201.5
t192.5 -82.5q104 0 170 61z" />
    <glyph glyph-name="uni0153" unicode="&#x153;" horiz-adv-x="835" 
d="M836 124q-10 -59 -57.5 -96.5t-122.5 -37.5q-127 0 -178 102q-58 -102 -185 -102q-98 0 -154.5 64t-56.5 165t57 167.5t158 66.5q128 0 183 -105q53 105 170 105q86 0 134 -56.5t48 -138.5q0 -22 -5 -50h-317q0 -1 -0.5 -3.5t-0.5 -3.5q4 -77 43 -119.5t108 -42.5
q105 0 130 96zM451 223q0 80 -41 130.5t-115 50.5q-73 0 -114 -51t-41 -131t40.5 -131.5t114.5 -51.5q72 0 113 49t43 127v8zM774 254q6 59 -27.5 104.5t-99.5 45.5q-63 0 -96.5 -42t-40.5 -108h264z" />
    <glyph glyph-name="uni0154" unicode="&#x154;" horiz-adv-x="611" 
d="M485 753l-193 -46l-9 32l188 69zM645 0h-120l-143 279h-153v-228h92v-51h-235v51h85v548h-85v51h277q114 0 166.5 -50t52.5 -131q0 -65 -37 -114.5t-107 -65.5l124 -238h83v-51zM522 467q0 68 -39 100t-125 32h-129v-272h132q161 0 161 140z" />
    <glyph glyph-name="uni0155" unicode="&#x155;" horiz-adv-x="414" 
d="M430 631l-167 -108l-18 27l152 128zM305 452q47 0 73 -23l16 -99l-46 -6l-17 76q-15 4 -34 4q-44 0 -72 -37t-28 -94v-227h109v-46h-247v46h83v351h-84v47h136v-79q14 38 44.5 62.5t66.5 24.5z" />
    <glyph glyph-name="uni0156" unicode="&#x156;" horiz-adv-x="611" 
d="M645 0h-120l-143 279h-153v-228h92v-51h-235v51h85v548h-85v51h277q114 0 166.5 -50t52.5 -131q0 -65 -37 -114.5t-107 -65.5l124 -238h83v-51zM522 467q0 68 -39 100t-125 32h-129v-272h132q161 0 161 140zM411 -66l-16 -153h-46l10 153h52z" />
    <glyph glyph-name="uni0157" unicode="&#x157;" horiz-adv-x="414" 
d="M305 452q47 0 73 -23l16 -99l-46 -6l-17 76q-15 4 -34 4q-44 0 -72 -37t-28 -94v-227h109v-46h-247v46h83v351h-84v47h136v-79q14 38 44.5 62.5t66.5 24.5zM195 -66l-16 -153h-46l10 153h52z" />
    <glyph glyph-name="uni0158" unicode="&#x158;" horiz-adv-x="611" 
d="M472 792l-124 -87h-16l-123 84l18 30l116 -62l112 65zM645 0h-120l-143 279h-153v-228h92v-51h-235v51h85v548h-85v51h277q114 0 166.5 -50t52.5 -131q0 -65 -37 -114.5t-107 -65.5l124 -238h83v-51zM522 467q0 68 -39 100t-125 32h-129v-272h132q161 0 161 140z" />
    <glyph glyph-name="uni0159" unicode="&#x159;" horiz-adv-x="414" 
d="M399 639l-117 -117h-16l-117 115l24 30l104 -89l99 89zM305 452q47 0 73 -23l16 -99l-46 -6l-17 76q-15 4 -34 4q-44 0 -72 -37t-28 -94v-227h109v-46h-247v46h83v351h-84v47h136v-79q14 38 44.5 62.5t66.5 24.5z" />
    <glyph glyph-name="uni015A" unicode="&#x15a;" horiz-adv-x="526" 
d="M456 753l-193 -46l-9 32l188 69zM533 178q0 -89 -63.5 -138.5t-162.5 -49.5q-129 0 -201 49l12 119l47 -5l-4 -82q59 -30 144 -30q74 0 120.5 32.5t46.5 99.5q0 31 -11 54t-23.5 36t-41 24.5t-43.5 15.5t-51 12q-35 8 -56 13.5t-50.5 19t-45.5 29.5t-28.5 44t-12.5 64
q0 84 56 129.5t143 45.5q52 0 106.5 -13.5t84.5 -35.5l6 -126l-47 -5l-11 103q-53 26 -130 26q-68 0 -108 -31.5t-40 -87.5q0 -25 9.5 -45t21.5 -31.5t37 -21.5t40 -14.5t46 -11.5q97 -23 134 -45q76 -46 76 -143z" />
    <glyph glyph-name="uni015B" unicode="&#x15b;" horiz-adv-x="432" 
d="M403 631l-167 -108l-18 27l152 128zM434 126q0 -61 -52 -98.5t-130 -37.5q-45 0 -91 13t-71 31l12 94l45 -4l-4 -60q47 -25 107 -25q54 0 91 20.5t37 60.5q0 37 -29 56t-70 26t-82.5 15.5t-70.5 35t-29 73.5q0 63 45.5 95t110.5 32q84 0 152 -41l10 -102l-46 -6l-12 75
q-47 25 -97 25q-105 0 -105 -72q0 -34 28.5 -52t69.5 -24.5t82.5 -15.5t70 -37t28.5 -77z" />
    <glyph glyph-name="uni015C" unicode="&#x15c;" horiz-adv-x="526" 
d="M452 737l-17 -31l-116 63l-113 -64l-17 28l125 89h15zM533 178q0 -89 -63.5 -138.5t-162.5 -49.5q-129 0 -201 49l12 119l47 -5l-4 -82q59 -30 144 -30q74 0 120.5 32.5t46.5 99.5q0 31 -11 54t-23.5 36t-41 24.5t-43.5 15.5t-51 12q-35 8 -56 13.5t-50.5 19t-45.5 29.5
t-28.5 44t-12.5 64q0 84 56 129.5t143 45.5q52 0 106.5 -13.5t84.5 -35.5l6 -126l-47 -5l-11 103q-53 26 -130 26q-68 0 -108 -31.5t-40 -87.5q0 -25 9.5 -45t21.5 -31.5t37 -21.5t40 -14.5t46 -11.5q97 -23 134 -45q76 -46 76 -143z" />
    <glyph glyph-name="uni015D" unicode="&#x15d;" horiz-adv-x="432" 
d="M389 552l-24 -30l-105 89l-98 -89l-23 27l118 118h15zM434 126q0 -61 -52 -98.5t-130 -37.5q-45 0 -91 13t-71 31l12 94l45 -4l-4 -60q47 -25 107 -25q54 0 91 20.5t37 60.5q0 37 -29 56t-70 26t-82.5 15.5t-70.5 35t-29 73.5q0 63 45.5 95t110.5 32q84 0 152 -41
l10 -102l-46 -6l-12 75q-47 25 -97 25q-105 0 -105 -72q0 -34 28.5 -52t69.5 -24.5t82.5 -15.5t70 -37t28.5 -77z" />
    <glyph glyph-name="uni015E" unicode="&#x15e;" horiz-adv-x="526" 
d="M433 -126q0 -41 -28.5 -62t-73.5 -21q-57 0 -91 30l16 33q30 -23 73 -23q55 0 55 46q0 26 -17 35t-46 9h-28v69q-121 3 -187 49l12 119l47 -5l-4 -82q59 -30 144 -30q74 0 120.5 32.5t46.5 99.5q0 31 -11 54t-23.5 36t-41 24.5t-43.5 15.5t-51 12q-35 8 -56 13.5
t-50.5 19t-45.5 29.5t-28.5 44t-12.5 64q0 84 56 129.5t143 45.5q52 0 106.5 -13.5t84.5 -35.5l6 -126l-47 -5l-11 103q-53 26 -130 26q-68 0 -108 -31.5t-40 -87.5q0 -25 9.5 -45t21.5 -31.5t37 -21.5t40 -14.5t46 -11.5q97 -23 134 -45q76 -46 76 -143q0 -83 -54.5 -131.5
t-142.5 -55.5v-39h8q43 0 66 -21.5t23 -56.5z" />
    <glyph glyph-name="uni015F" unicode="&#x15f;" horiz-adv-x="432" 
d="M374 -126q0 -41 -28.5 -62t-73.5 -21q-57 0 -91 30l16 33q30 -23 73 -23q55 0 55 46q0 26 -17 35t-46 9h-28v70q-91 5 -144 43l12 94l45 -4l-4 -60q47 -25 107 -25q54 0 91 20.5t37 60.5q0 37 -29 56t-70 26t-82.5 15.5t-70.5 35t-29 73.5q0 63 45.5 95t110.5 32
q84 0 152 -41l10 -102l-46 -6l-12 75q-47 25 -97 25q-105 0 -105 -72q0 -34 28.5 -52t69.5 -24.5t82.5 -15.5t70 -37t28.5 -77q0 -56 -44 -92.5t-113 -42.5v-39h8q43 0 66 -21.5t23 -56.5z" />
    <glyph glyph-name="uni0160" unicode="&#x160;" horiz-adv-x="526" 
d="M441 792l-124 -87h-16l-123 84l18 30l116 -62l112 65zM533 178q0 -89 -63.5 -138.5t-162.5 -49.5q-129 0 -201 49l12 119l47 -5l-4 -82q59 -30 144 -30q74 0 120.5 32.5t46.5 99.5q0 31 -11 54t-23.5 36t-41 24.5t-43.5 15.5t-51 12q-35 8 -56 13.5t-50.5 19t-45.5 29.5
t-28.5 44t-12.5 64q0 84 56 129.5t143 45.5q52 0 106.5 -13.5t84.5 -35.5l6 -126l-47 -5l-11 103q-53 26 -130 26q-68 0 -108 -31.5t-40 -87.5q0 -25 9.5 -45t21.5 -31.5t37 -21.5t40 -14.5t46 -11.5q97 -23 134 -45q76 -46 76 -143z" />
    <glyph glyph-name="uni0161" unicode="&#x161;" horiz-adv-x="432" 
d="M386 639l-117 -117h-16l-117 115l24 30l104 -89l99 89zM434 126q0 -61 -52 -98.5t-130 -37.5q-45 0 -91 13t-71 31l12 94l45 -4l-4 -60q47 -25 107 -25q54 0 91 20.5t37 60.5q0 37 -29 56t-70 26t-82.5 15.5t-70.5 35t-29 73.5q0 63 45.5 95t110.5 32q84 0 152 -41
l10 -102l-46 -6l-12 75q-47 25 -97 25q-105 0 -105 -72q0 -34 28.5 -52t69.5 -24.5t82.5 -15.5t70 -37t28.5 -77z" />
    <glyph glyph-name="uni0162" unicode="&#x162;" horiz-adv-x="613" 
d="M612 458l-52 -4l-20 145h-185v-548h117v-51h-289v51h115v548h-185l-20 -145l-51 4l19 192h531zM356 -66l-16 -153h-46l10 153h52z" />
    <glyph glyph-name="uni0163" unicode="&#x163;" horiz-adv-x="364" 
d="M374 115q-20 -125 -135 -125q-63 0 -96.5 37t-33.5 103v267h-73v47h73v144h55v-144h177v-47h-177v-261q0 -97 81 -97q33 0 54.5 19.5t31.5 70.5zM273 -66l-16 -153h-46l10 153h52z" />
    <glyph glyph-name="uni0164" unicode="&#x164;" horiz-adv-x="613" 
d="M458 792l-124 -87h-16l-123 84l18 30l116 -62l112 65zM612 458l-52 -4l-20 145h-185v-548h117v-51h-289v51h115v548h-185l-20 -145l-51 4l19 192h531z" />
    <glyph glyph-name="uni0165" unicode="&#x165;" horiz-adv-x="364" 
d="M326 761l-19 -224h-46l13 224h52zM374 115q-20 -125 -135 -125q-63 0 -96.5 37t-33.5 103v267h-73v47h73v144h55v-144h177v-47h-177v-261q0 -97 81 -97q33 0 54.5 19.5t31.5 70.5z" />
    <glyph glyph-name="uni0166" unicode="&#x166;" horiz-adv-x="617" 
d="M616 458l-52 -4l-20 145h-185v-279h159v-46h-159v-223h117v-51h-289v51h115v223h-157v46h157v279h-185l-20 -145l-51 4l19 192h531z" />
    <glyph glyph-name="uni0167" unicode="&#x167;" horiz-adv-x="365" 
d="M43 235v43h68v119h-73v47h73v144h55v-144h177v-47h-177v-119h168v-43h-168v-99q0 -97 81 -97q33 0 54.5 19.5t31.5 70.5l43 -14q-20 -125 -135 -125q-63 0 -96.5 37t-33.5 103v105h-68z" />
    <glyph glyph-name="uni0168" unicode="&#x168;" horiz-adv-x="717" 
d="M545 792q-18 -80 -76 -80q-27 0 -66 18t-56 18q-38 0 -52 -41l-29 12q6 29 27.5 51.5t53.5 22.5q21 0 57.5 -18t62.5 -18q33 0 47 43zM715 599h-64v-333q0 -44 -7.5 -82t-26 -74.5t-47 -62.5t-73.5 -41.5t-102 -15.5q-69 0 -119.5 21t-77.5 59.5t-39.5 83.5t-12.5 101
v344h-70v51h221v-51h-94v-342q0 -104 49 -159.5t146 -55.5q96 0 147 56.5t51 167.5v333h-97v51h216v-51z" />
    <glyph glyph-name="uni0169" unicode="&#x169;" horiz-adv-x="556" 
d="M418 646q-17 -83 -75 -83q-28 0 -67 19t-55 19q-39 0 -53 -43l-29 11q6 30 27.5 54.5t53.5 24.5q21 0 57.5 -18.5t62.5 -18.5q35 0 47 43zM547 0h-138v88q-22 -45 -63 -71.5t-94 -26.5q-70 0 -112 43t-42 130v234h-82v47h137v-268q0 -137 115 -137q57 0 98 45t43 97v216
h-98v47h153v-398h83v-46z" />
    <glyph glyph-name="uni016A" unicode="&#x16a;" horiz-adv-x="717" 
d="M536 736h-271v46h271v-46zM715 599h-64v-333q0 -44 -7.5 -82t-26 -74.5t-47 -62.5t-73.5 -41.5t-102 -15.5q-69 0 -119.5 21t-77.5 59.5t-39.5 83.5t-12.5 101v344h-70v51h221v-51h-94v-342q0 -104 49 -159.5t146 -55.5q96 0 147 56.5t51 167.5v333h-97v51h216v-51z" />
    <glyph glyph-name="uni016B" unicode="&#x16b;" horiz-adv-x="556" 
d="M394 572h-238v46h238v-46zM547 0h-138v88q-22 -45 -63 -71.5t-94 -26.5q-70 0 -112 43t-42 130v234h-82v47h137v-268q0 -137 115 -137q57 0 98 45t43 97v216h-98v47h153v-398h83v-46z" />
    <glyph glyph-name="uni016C" unicode="&#x16c;" horiz-adv-x="717" 
d="M516 812q0 -59 -28.5 -85.5t-88.5 -26.5q-61 0 -89.5 26.5t-28.5 85.5h47q0 -41 17 -56.5t53 -15.5q39 0 55 15.5t16 56.5h47zM715 599h-64v-333q0 -44 -7.5 -82t-26 -74.5t-47 -62.5t-73.5 -41.5t-102 -15.5q-69 0 -119.5 21t-77.5 59.5t-39.5 83.5t-12.5 101v344h-70
v51h221v-51h-94v-342q0 -104 49 -159.5t146 -55.5q96 0 147 56.5t51 167.5v333h-97v51h216v-51z" />
    <glyph glyph-name="uni016D" unicode="&#x16d;" horiz-adv-x="556" 
d="M389 655q0 -118 -118 -118q-117 0 -117 118h47q0 -42 18 -60t53 -18q36 0 53 18.5t17 59.5h47zM547 0h-138v88q-22 -45 -63 -71.5t-94 -26.5q-70 0 -112 43t-42 130v234h-82v47h137v-268q0 -137 115 -137q57 0 98 45t43 97v216h-98v47h153v-398h83v-46z" />
    <glyph glyph-name="uni016E" unicode="&#x16e;" horiz-adv-x="717" 
d="M499 784q0 -42 -25.5 -68t-72.5 -26t-72 24.5t-25 68.5q0 41 26.5 66t71.5 25q48 0 72.5 -24.5t24.5 -65.5zM458 784q0 25 -14 40.5t-43 15.5q-27 0 -41.5 -16t-14.5 -41q0 -58 56 -58q28 0 42.5 16.5t14.5 42.5zM715 599h-64v-333q0 -44 -7.5 -82t-26 -74.5t-47 -62.5
t-73.5 -41.5t-102 -15.5q-69 0 -119.5 21t-77.5 59.5t-39.5 83.5t-12.5 101v344h-70v51h221v-51h-94v-342q0 -104 49 -159.5t146 -55.5q96 0 147 56.5t51 167.5v333h-97v51h216v-51z" />
    <glyph glyph-name="uni016F" unicode="&#x16f;" horiz-adv-x="556" 
d="M367 607q0 -42 -25.5 -67.5t-72.5 -25.5t-72 24.5t-25 67.5q0 41 26.5 66.5t71.5 25.5q48 0 72.5 -25t24.5 -66zM326 608q0 24 -14 39.5t-43 15.5q-27 0 -41.5 -16t-14.5 -41q0 -57 56 -57q28 0 42.5 16.5t14.5 42.5zM547 0h-138v88q-22 -45 -63 -71.5t-94 -26.5
q-70 0 -112 43t-42 130v234h-82v47h137v-268q0 -137 115 -137q57 0 98 45t43 97v216h-98v47h153v-398h83v-46z" />
    <glyph glyph-name="uni0170" unicode="&#x170;" horiz-adv-x="717" 
d="M460 834l-153 -127l-22 23l136 145zM610 753l-193 -46l-8 32l187 69zM715 599h-64v-333q0 -44 -7.5 -82t-26 -74.5t-47 -62.5t-73.5 -41.5t-102 -15.5q-69 0 -119.5 21t-77.5 59.5t-39.5 83.5t-12.5 101v344h-70v51h221v-51h-94v-342q0 -104 49 -159.5t146 -55.5
q96 0 147 56.5t51 167.5v333h-97v51h216v-51z" />
    <glyph glyph-name="uni0171" unicode="&#x171;" horiz-adv-x="556" 
d="M314 682l-120 -160l-26 19l99 173zM467 631l-167 -108l-18 27l152 128zM547 0h-138v88q-22 -45 -63 -71.5t-94 -26.5q-70 0 -112 43t-42 130v234h-82v47h137v-268q0 -137 115 -137q57 0 98 45t43 97v216h-98v47h153v-398h83v-46z" />
    <glyph glyph-name="uni0172" unicode="&#x172;" horiz-adv-x="719" 
d="M717 599h-64v-333q0 -68 -17 -122t-64 -96.5t-121 -53.5q-60 -39 -60 -100q0 -59 62 -59q31 0 56 16l9 -40q-37 -20 -76 -20q-47 0 -74 24.5t-27 66.5q0 65 58 108h-2q-69 0 -119.5 21t-77.5 59.5t-39.5 83.5t-12.5 101v344h-70v51h221v-51h-94v-342q0 -104 49 -159.5
t146 -55.5q96 0 147 56.5t51 167.5v333h-97v51h216v-51z" />
    <glyph glyph-name="uni0173" unicode="&#x173;" horiz-adv-x="556" 
d="M547 0h-44q-70 -42 -70 -106q0 -59 62 -59q31 0 56 16l9 -40q-37 -20 -76 -20q-47 0 -74 24.5t-27 66.5q0 74 72 118h-46v88q-22 -45 -63 -71.5t-94 -26.5q-70 0 -112 43t-42 130v234h-82v47h137v-268q0 -137 115 -137q57 0 98 45t43 97v216h-98v47h153v-398h83v-46z" />
    <glyph glyph-name="uni0174" unicode="&#x174;" horiz-adv-x="920" 
d="M595 737l-17 -31l-116 63l-113 -64l-17 28l125 89h15zM915 599h-56l-172 -599h-50l-175 547h-4l-171 -547h-50l-184 599h-55v51h216v-51h-100l147 -508h4l159 508h-69v51h215v-51h-70l161 -510h4l137 510h-101v51h214v-51z" />
    <glyph glyph-name="uni0175" unicode="&#x175;" horiz-adv-x="766" 
d="M522 552l-24 -30l-105 89l-98 -89l-23 27l118 118h15zM767 397h-54l-133 -397h-43l-141 358h-4l-141 -358h-41l-139 397h-51v47h202v-47h-91l103 -309h4l139 356h39l143 -357h5l94 310h-87v47h196v-47z" />
    <glyph glyph-name="uni0176" unicode="&#x176;" horiz-adv-x="604" 
d="M433 737l-17 -31l-116 63l-113 -64l-17 28l125 89h15zM597 599h-66l-206 -352v-196h117v-51h-288v51h115v196l-215 352h-66v51h228v-51h-98l179 -298h5l172 298h-97v51h220v-51z" />
    <glyph glyph-name="uni0177" unicode="&#x177;" horiz-adv-x="506" 
d="M394 552l-24 -30l-105 89l-98 -89l-23 27l118 118h15zM506 397h-56l-160 -397l-65 -167h81v-46h-220v46h86l64 170l-163 394h-55v47h200v-47h-87l134 -323h6l122 323h-81v47h194v-47z" />
    <glyph glyph-name="uni0178" unicode="&#x178;" horiz-adv-x="604" 
d="M180 722v71h68v-71h-68zM348 722v71h68v-71h-68zM597 599h-66l-206 -352v-196h117v-51h-288v51h115v196l-215 352h-66v51h228v-51h-98l179 -298h5l172 298h-97v51h220v-51z" />
    <glyph glyph-name="uni0179" unicode="&#x179;" horiz-adv-x="574" 
d="M462 753l-193 -46l-9 32l188 69zM539 0h-467l-2 37l398 559v3h-308l-30 -141l-48 8l27 184h438l1 -35l-399 -561v-3h338l30 143l50 -9z" />
    <glyph glyph-name="uni017A" unicode="&#x17a;" horiz-adv-x="461" 
d="M409 631l-167 -108l-18 27l152 128zM448 0h-369l-1 36l291 361h-231l-11 -94l-46 6l11 135h348l1 -36l-290 -362h251l24 95l44 -8z" />
    <glyph glyph-name="uni017B" unicode="&#x17b;" horiz-adv-x="574" 
d="M294 722v71h68v-71h-68zM539 0h-467l-2 37l398 559v3h-308l-30 -141l-48 8l27 184h438l1 -35l-399 -561v-3h338l30 143l50 -9z" />
    <glyph glyph-name="uni017C" unicode="&#x17c;" horiz-adv-x="461" 
d="M245 559v79h62v-79h-62zM448 0h-369l-1 36l291 361h-231l-11 -94l-46 6l11 135h348l1 -36l-290 -362h251l24 95l44 -8z" />
    <glyph glyph-name="uni017D" unicode="&#x17d;" horiz-adv-x="574" 
d="M457 792l-124 -87h-16l-123 84l18 30l116 -62l112 65zM539 0h-467l-2 37l398 559v3h-308l-30 -141l-48 8l27 184h438l1 -35l-399 -561v-3h338l30 143l50 -9z" />
    <glyph glyph-name="uni017E" unicode="&#x17e;" horiz-adv-x="461" 
d="M400 639l-117 -117h-16l-117 115l24 30l104 -89l99 89zM448 0h-369l-1 36l291 361h-231l-11 -94l-46 6l11 135h348l1 -36l-290 -362h251l24 95l44 -8z" />
    <glyph glyph-name="uni018F" unicode="&#x18f;" horiz-adv-x="683" 
d="M161 435l-47 5l6 126q101 94 274 94q135 0 213 -96t78 -243q0 -142 -79.5 -236.5t-224.5 -94.5q-132 0 -209.5 79.5t-77.5 215.5v55h530q-5 122 -65.5 195t-170.5 73q-127 0 -214 -60zM624 292h-469v-7q0 -108 57 -175.5t171 -67.5q116 0 175.5 69.5t65.5 180.5z" />
    <glyph glyph-name="uni0192" unicode="&#x192;" horiz-adv-x="393" 
d="M82 267h84l7 114q9 148 156 148q38 0 66 -4v-43q-50 6 -66 6q-48 0 -73.5 -23.5t-29.5 -85.5l-7 -112h124v-38h-126l-11 -211q-3 -61 -26.5 -95.5t-90.5 -34.5q-14 0 -43 4v41q15 -4 46 -4q33 0 45.5 20.5t15.5 75.5l11 204h-82v38z" />
    <glyph glyph-name="uni01C4" unicode="&#x1c4;" horiz-adv-x="1280" 
d="M1171 792l-124 -87h-16l-123 84l18 30l116 -62l112 65zM1253 0h-467l-2 37l398 559v3h-308l-30 -141l-48 8l27 184h438l1 -35l-399 -561v-3h338l30 143l50 -9zM706 325q0 -144 -89 -234.5t-240 -90.5h-291v50h85v550h-85v50h289q153 0 242 -90.5t89 -234.5zM645 325
q0 124 -71 199.5t-200 75.5h-146v-550h146q129 0 200 74.5t71 200.5z" />
    <glyph glyph-name="uni01C5" unicode="&#x1c5;" horiz-adv-x="1167" 
d="M1111 639l-117 -117h-16l-117 115l24 30l104 -89l99 89zM706 325q0 -144 -89 -234.5t-240 -90.5h-291v50h85v550h-85v50h289q153 0 242 -90.5t89 -234.5zM645 325q0 124 -71 199.5t-200 75.5h-146v-550h146q129 0 200 74.5t71 200.5zM1158 0h-369l-1 36l291 361h-231
l-11 -94l-46 6l11 135h348l1 -36l-290 -362h251l24 95l44 -8z" />
    <glyph glyph-name="uni01C6" unicode="&#x1c6;" horiz-adv-x="1005" 
d="M572 0h-137v92q-55 -102 -160 -102q-87 0 -139 58.5t-52 160.5q0 46 11 87.5t33.5 77.5t63 57.5t93.5 21.5q48 0 88 -21.5t62 -60.5v271h-112v46h167v-642h82v-46zM948 639l-117 -117h-16l-117 115l24 30l104 -89l99 89zM995 0h-369l-1 36l291 361h-231l-11 -94l-46 6
l11 135h348l1 -36l-290 -362h251l24 95l44 -8zM435 189v87q-2 54 -43 91t-98 37q-77 0 -114.5 -55.5t-37.5 -135.5q0 -83 40 -128.5t104 -45.5q59 0 103 48t46 102z" />
    <glyph glyph-name="uni01C7" unicode="&#x1c7;" horiz-adv-x="988" 
d="M991 599h-75v-438q0 -85 -41 -128t-118 -43q-108 0 -154 92l42 32q21 -38 46 -54t61 -16q107 0 107 117v438h-133v51h265v-51zM550 0h-464v51h85v548h-85v51h255v-51h-113v-548h270l20 155l52 -4z" />
    <glyph glyph-name="uni01C8" unicode="&#x1c8;" horiz-adv-x="770" 
d="M550 0h-464v51h85v548h-85v51h255v-51h-113v-548h270l20 155l52 -4zM671 568v79h62v-79h-62zM733 -21q0 -61 -15 -104t-41.5 -64.5t-57.5 -29.5t-68 -5l-2 45q25 0 44 5t40.5 19.5t33 48.5t11.5 85v418h-107v47h162v-465z" />
    <glyph glyph-name="uni01C9" unicode="&#x1c9;" horiz-adv-x="509" 
d="M260 0h-219v46h82v596h-83v46h138v-642h82v-46zM387 568v79h62v-79h-62zM449 -21q0 -61 -15 -104t-41.5 -64.5t-57.5 -29.5t-68 -5l-2 45q25 0 44 5t40.5 19.5t33 48.5t11.5 85v418h-107v47h162v-465z" />
    <glyph glyph-name="uni01CA" unicode="&#x1ca;" horiz-adv-x="1172" 
d="M1172 599h-75v-438q0 -85 -41 -128t-118 -43q-108 0 -154 92l42 32q21 -38 46 -54t61 -16q107 0 107 117v438h-133v51h265v-51zM736 599h-84v-599h-39l-385 538h-4v-487h107v-51h-239v51h77v548h-87v51h130l381 -532h4v481h-99v51h238v-51z" />
    <glyph glyph-name="uni01CB" unicode="&#x1cb;" horiz-adv-x="965" 
d="M736 599h-84v-599h-39l-385 538h-4v-487h107v-51h-239v51h77v548h-87v51h130l381 -532h4v481h-99v51h238v-51zM864 568v79h62v-79h-62zM926 -21q0 -61 -15 -104t-41.5 -64.5t-57.5 -29.5t-68 -5l-2 45q25 0 44 5t40.5 19.5t33 48.5t11.5 85v418h-107v47h162v-465z" />
    <glyph glyph-name="uni01CC" unicode="&#x1cc;" horiz-adv-x="816" 
d="M703 568v79h62v-79h-62zM589 0h-219v46h82v221q0 137 -110 137q-62 0 -102.5 -41t-42.5 -96v-221h82v-46h-220v46h83v351h-84v47h139v-82q49 91 158 91q70 0 111 -43t41 -130v-234h82v-46zM765 -21q0 -61 -15 -104t-41.5 -64.5t-57.5 -29.5t-68 -5l-2 45q25 0 44 5
t40.5 19.5t33 48.5t11.5 85v418h-107v47h162v-465z" />
    <glyph glyph-name="uni01D3" unicode="&#x1d3;" horiz-adv-x="717" 
d="M530 792l-124 -87h-16l-123 84l18 30l116 -62l112 65zM715 599h-64v-333q0 -44 -7.5 -82t-26 -74.5t-47 -62.5t-73.5 -41.5t-102 -15.5q-69 0 -119.5 21t-77.5 59.5t-39.5 83.5t-12.5 101v344h-70v51h221v-51h-94v-342q0 -104 49 -159.5t146 -55.5q96 0 147 56.5
t51 167.5v333h-97v51h216v-51z" />
    <glyph glyph-name="uni01D4" unicode="&#x1d4;" horiz-adv-x="556" 
d="M398 640l-117 -117h-16l-117 115l24 30l104 -89l99 89zM547 0h-138v88q-22 -45 -63 -71.5t-94 -26.5q-70 0 -112 43t-42 130v234h-82v47h137v-268q0 -137 115 -137q57 0 98 45t43 97v216h-98v47h153v-398h83v-46z" />
    <glyph glyph-name="uni01E2" unicode="&#x1e2;" horiz-adv-x="915" 
d="M781 736h-271v46h271v-46zM838 0h-478v51h84v141h-271l-70 -141h99v-51h-222v51h66l271 548h-101v51h613l18 -181l-50 -7l-20 137h-275v-243h314v-51h-314v-254h285l20 137l50 -6zM444 238v361h-71l-178 -361h249z" />
    <glyph glyph-name="uni01E3" unicode="&#x1e3;" horiz-adv-x="755" 
d="M543 572h-238v46h238v-46zM760 124q-10 -59 -57.5 -96.5t-122.5 -37.5q-131 0 -181 109q-64 -109 -176 -109q-53 0 -94 29.5t-41 94.5q0 137 209 137q31 0 79 -4v47q0 110 -103 110q-55 0 -95 -20l-18 -80l-46 6l16 99q55 44 157 44q103 0 132 -79q56 79 155 79
q86 0 134 -56.5t48 -138.5q0 -22 -5 -50h-318q2 -81 41.5 -125t109.5 -44q105 0 130 96zM698 254q6 59 -27.5 104.5t-99.5 45.5q-63 0 -96.5 -42t-40.5 -108h264zM146 120q0 -43 27.5 -62t63.5 -19q52 0 94 35.5t45 88.5v41q-65 5 -85 5q-145 0 -145 -89z" />
    <glyph glyph-name="uni01F1" unicode="&#x1f1;" horiz-adv-x="1278" 
d="M1250 0h-467l-2 37l398 559v3h-308l-30 -141l-48 8l27 184h438l1 -35l-399 -561v-3h338l30 143l50 -9zM706 325q0 -144 -89 -234.5t-240 -90.5h-291v50h85v550h-85v50h289q153 0 242 -90.5t89 -234.5zM645 325q0 124 -71 199.5t-200 75.5h-146v-550h146q129 0 200 74.5
t71 200.5z" />
    <glyph glyph-name="uni01F2" unicode="&#x1f2;" horiz-adv-x="1167" 
d="M706 325q0 -144 -89 -234.5t-240 -90.5h-291v50h85v550h-85v50h289q153 0 242 -90.5t89 -234.5zM645 325q0 124 -71 199.5t-200 75.5h-146v-550h146q129 0 200 74.5t71 200.5zM1158 0h-369l-1 36l291 361h-231l-11 -94l-46 6l11 135h348l1 -36l-290 -362h251l24 95l44 -8
z" />
    <glyph glyph-name="uni01F3" unicode="&#x1f3;" horiz-adv-x="1005" 
d="M572 0h-137v92q-55 -102 -160 -102q-87 0 -139 58.5t-52 160.5q0 46 11 87.5t33.5 77.5t63 57.5t93.5 21.5q48 0 88 -21.5t62 -60.5v271h-112v46h167v-642h82v-46zM995 0h-369l-1 36l291 361h-231l-11 -94l-46 6l11 135h348l1 -36l-290 -362h251l24 95l44 -8zM435 189v87
q-2 54 -43 91t-98 37q-77 0 -114.5 -55.5t-37.5 -135.5q0 -83 40 -128.5t104 -45.5q59 0 103 48t46 102z" />
    <glyph glyph-name="uni01FC" unicode="&#x1fc;" horiz-adv-x="915" 
d="M786 753l-193 -46l-9 32l188 69zM838 0h-478v51h84v141h-271l-70 -141h99v-51h-222v51h66l271 548h-101v51h613l18 -181l-50 -7l-20 137h-275v-243h314v-51h-314v-254h285l20 137l50 -6zM444 238v361h-71l-178 -361h249z" />
    <glyph glyph-name="uni01FD" unicode="&#x1fd;" horiz-adv-x="755" 
d="M595 631l-167 -108l-18 27l152 128zM760 124q-10 -59 -57.5 -96.5t-122.5 -37.5q-131 0 -181 109q-64 -109 -176 -109q-53 0 -94 29.5t-41 94.5q0 137 209 137q31 0 79 -4v47q0 110 -103 110q-55 0 -95 -20l-18 -80l-46 6l16 99q55 44 157 44q103 0 132 -79q56 79 155 79
q86 0 134 -56.5t48 -138.5q0 -22 -5 -50h-318q2 -81 41.5 -125t109.5 -44q105 0 130 96zM698 254q6 59 -27.5 104.5t-99.5 45.5q-63 0 -96.5 -42t-40.5 -108h264zM146 120q0 -43 27.5 -62t63.5 -19q52 0 94 35.5t45 88.5v41q-65 5 -85 5q-145 0 -145 -89z" />
    <glyph glyph-name="uni01FE" unicode="&#x1fe;" horiz-adv-x="741" 
d="M581 753l-193 -46l-9 32l188 69zM741 325q0 -140 -91.5 -237.5t-233.5 -97.5q-118 0 -205 71l-55 -61h-62l84 94q-84 93 -84 231q0 141 91.5 238t231.5 97q117 0 204 -71l55 61h66l-85 -95q84 -95 84 -230zM155 326q0 -111 61 -189l369 411q-69 60 -168 60
q-118 0 -190 -81t-72 -201zM680 324q0 112 -61 189l-371 -411q69 -60 170 -60q118 0 190 80.5t72 201.5z" />
    <glyph glyph-name="uni01FF" unicode="&#x1ff;" horiz-adv-x="514" 
d="M466 631l-167 -108l-18 27l152 128zM514 222q0 -102 -59 -167t-158 -65q-77 0 -131 41l-26 -31h-54l51 60q-51 63 -51 159q0 101 57 167.5t158 66.5q77 0 130 -42l28 33h55l-52 -62q52 -64 52 -160zM144 222q0 -70 30 -117l223 265q-40 34 -98 34q-73 0 -114 -51
t-41 -131zM455 223q0 69 -30 115l-224 -265q39 -34 98 -34q74 0 115 51.5t41 132.5z" />
    <glyph glyph-name="uni0218" unicode="&#x218;" horiz-adv-x="526" 
d="M533 178q0 -89 -63.5 -138.5t-162.5 -49.5q-129 0 -201 49l12 119l47 -5l-4 -82q59 -30 144 -30q74 0 120.5 32.5t46.5 99.5q0 31 -11 54t-23.5 36t-41 24.5t-43.5 15.5t-51 12q-35 8 -56 13.5t-50.5 19t-45.5 29.5t-28.5 44t-12.5 64q0 84 56 129.5t143 45.5
q52 0 106.5 -13.5t84.5 -35.5l6 -126l-47 -5l-11 103q-53 26 -130 26q-68 0 -108 -31.5t-40 -87.5q0 -25 9.5 -45t21.5 -31.5t37 -21.5t40 -14.5t46 -11.5q97 -23 134 -45q76 -46 76 -143zM359 -66l-16 -153h-46l10 153h52z" />
    <glyph glyph-name="uni0219" unicode="&#x219;" horiz-adv-x="432" 
d="M434 126q0 -61 -52 -98.5t-130 -37.5q-45 0 -91 13t-71 31l12 94l45 -4l-4 -60q47 -25 107 -25q54 0 91 20.5t37 60.5q0 37 -29 56t-70 26t-82.5 15.5t-70.5 35t-29 73.5q0 63 45.5 95t110.5 32q84 0 152 -41l10 -102l-46 -6l-12 75q-47 25 -97 25q-105 0 -105 -72
q0 -34 28.5 -52t69.5 -24.5t82.5 -15.5t70 -37t28.5 -77zM291 -66l-16 -153h-46l10 153h52z" />
    <glyph glyph-name="uni021A" unicode="&#x21a;" horiz-adv-x="613" 
d="M612 458l-52 -4l-20 145h-185v-548h117v-51h-289v51h115v548h-185l-20 -145l-51 4l19 192h531zM356 -66l-16 -153h-46l10 153h52z" />
    <glyph glyph-name="uni021B" unicode="&#x21b;" horiz-adv-x="364" 
d="M374 115q-20 -125 -135 -125q-63 0 -96.5 37t-33.5 103v267h-73v47h73v144h55v-144h177v-47h-177v-261q0 -97 81 -97q33 0 54.5 19.5t31.5 70.5zM273 -66l-16 -153h-46l10 153h52z" />
    <glyph glyph-name="uni0232" unicode="&#x232;" horiz-adv-x="604" 
d="M435 736h-271v46h271v-46zM597 599h-66l-206 -352v-196h117v-51h-288v51h115v196l-215 352h-66v51h228v-51h-98l179 -298h5l172 298h-97v51h220v-51z" />
    <glyph glyph-name="uni0233" unicode="&#x233;" horiz-adv-x="506" 
d="M386 572h-238v46h238v-46zM506 397h-56l-160 -397l-65 -167h81v-46h-220v46h86l64 170l-163 394h-55v47h200v-47h-87l134 -323h6l122 323h-81v47h194v-47z" />
    <glyph glyph-name="uni0237" unicode="&#x237;" horiz-adv-x="248" 
d="M-10 444h162v-465q0 -61 -15 -104t-41.5 -64.5t-57.5 -29.5t-68 -5l-2 42q25 0 44 5.5t40 20.5t33 49.5t12 85.5v418h-107v47z" />
    <glyph glyph-name="uni0259" unicode="&#x259;" horiz-adv-x="467" 
d="M78 318q10 59 57.5 96.5t122.5 37.5q94 0 149.5 -60t55.5 -166q0 -105 -54.5 -171t-144.5 -66q-86 0 -134 56.5t-48 138.5q0 22 5 50h318q-2 81 -41.5 125t-109.5 44q-105 0 -130 -96zM140 188q-6 -59 27.5 -104.5t99.5 -45.5q63 0 96.5 42t40.5 108h-264z" />
    <glyph glyph-name="uni02C6" unicode="&#x2c6;" horiz-adv-x="338" 
d="M372 552l-24 -30l-105 89l-98 -89l-23 27l118 118h15z" />
    <glyph glyph-name="uni02C7" unicode="&#x2c7;" horiz-adv-x="338" 
d="M372 639l-117 -117h-16l-117 115l24 30l104 -89l99 89z" />
    <glyph glyph-name="uni02D8" unicode="&#x2d8;" horiz-adv-x="399" 
d="M395 655q0 -118 -118 -118q-117 0 -117 118h47q0 -42 18 -60t53 -18q36 0 53 18.5t17 59.5h47z" />
    <glyph glyph-name="uni02D9" unicode="&#x2d9;" horiz-adv-x="204" 
d="M142 559v79h62v-79h-62z" />
    <glyph glyph-name="uni02DA" unicode="&#x2da;" horiz-adv-x="260" 
d="M261 607q0 -42 -25.5 -67.5t-72.5 -25.5t-72 24.5t-25 67.5q0 41 26.5 66.5t71.5 25.5q48 0 72.5 -25t24.5 -66zM220 608q0 24 -14 39.5t-43 15.5q-27 0 -41.5 -16t-14.5 -41q0 -57 56 -57q28 0 42.5 16.5t14.5 42.5z" />
    <glyph glyph-name="uni02DB" unicode="&#x2db;" horiz-adv-x="280" 
d="M271 -189q-37 -20 -76 -20q-47 0 -74 24.5t-27 66.5q0 43 27.5 78t68.5 52l39 -4q-85 -42 -85 -114q0 -59 62 -59q31 0 56 16z" />
    <glyph glyph-name="uni02DC" unicode="&#x2dc;" horiz-adv-x="374" 
d="M347 646q-17 -83 -75 -83q-28 0 -67 19t-55 19q-39 0 -53 -43l-29 11q6 30 27.5 54.5t53.5 24.5q21 0 57.5 -18.5t62.5 -18.5q35 0 47 43z" />
    <glyph glyph-name="uni02DD" unicode="&#x2dd;" horiz-adv-x="430" 
d="M300 682l-120 -160l-26 19l99 173zM453 631l-167 -108l-18 27l152 128z" />
    <glyph glyph-name="uni0323" unicode="&#x323;" horiz-adv-x="833" 
d="M206 -168v79h62v-79h-62z" />
    <glyph glyph-name="uni0394" unicode="&#x394;" horiz-adv-x="496" 
d="M2 0l251 661l240 -661h-491zM68 46h360l-175 490z" />
    <glyph glyph-name="uni03A3" unicode="&#x3a3;" horiz-adv-x="538" 
d="M66 0v49l210 277l-210 274v50h472v-50h-410l205 -264v-17l-205 -270h410v-49h-472z" />
    <glyph glyph-name="uni03C0" unicode="&#x3c0;" horiz-adv-x="579" 
d="M61 46h82v351h-83v47h520v-47h-84v-351h82v-46h-220v46h83v351h-243v-351h82v-46h-219v46z" />
    <glyph glyph-name="uni1E46" unicode="&#x1e46;" horiz-adv-x="732" 
d="M736 599h-84v-599h-39l-385 538h-4v-487h107v-51h-239v51h77v548h-87v51h130l381 -532h4v481h-99v51h238v-51zM379 -168v79h62v-79h-62z" />
    <glyph glyph-name="uni1E47" unicode="&#x1e47;" horiz-adv-x="568" 
d="M589 0h-219v46h82v221q0 137 -110 137q-62 0 -102.5 -41t-42.5 -96v-221h82v-46h-220v46h83v351h-84v47h139v-82q49 91 158 91q70 0 111 -43t41 -130v-234h82v-46zM291 -168v79h62v-79h-62z" />
    <glyph glyph-name="uni1E62" unicode="&#x1e62;" horiz-adv-x="526" 
d="M533 178q0 -89 -63.5 -138.5t-162.5 -49.5q-129 0 -201 49l12 119l47 -5l-4 -82q59 -30 144 -30q74 0 120.5 32.5t46.5 99.5q0 31 -11 54t-23.5 36t-41 24.5t-43.5 15.5t-51 12q-35 8 -56 13.5t-50.5 19t-45.5 29.5t-28.5 44t-12.5 64q0 84 56 129.5t143 45.5
q52 0 106.5 -13.5t84.5 -35.5l6 -126l-47 -5l-11 103q-53 26 -130 26q-68 0 -108 -31.5t-40 -87.5q0 -25 9.5 -45t21.5 -31.5t37 -21.5t40 -14.5t46 -11.5q97 -23 134 -45q76 -46 76 -143zM294 -168v79h62v-79h-62z" />
    <glyph glyph-name="uni1E63" unicode="&#x1e63;" horiz-adv-x="432" 
d="M434 126q0 -61 -52 -98.5t-130 -37.5q-45 0 -91 13t-71 31l12 94l45 -4l-4 -60q47 -25 107 -25q54 0 91 20.5t37 60.5q0 37 -29 56t-70 26t-82.5 15.5t-70.5 35t-29 73.5q0 63 45.5 95t110.5 32q84 0 152 -41l10 -102l-46 -6l-12 75q-47 25 -97 25q-105 0 -105 -72
q0 -34 28.5 -52t69.5 -24.5t82.5 -15.5t70 -37t28.5 -77zM229 -168v79h62v-79h-62z" />
    <glyph glyph-name="uni1E80" unicode="&#x1e80;" horiz-adv-x="920" 
d="M521 739l-8 -32l-193 46l14 55zM915 599h-56l-172 -599h-50l-175 547h-4l-171 -547h-50l-184 599h-55v51h216v-51h-100l147 -508h4l159 508h-69v51h215v-51h-70l161 -510h4l137 510h-101v51h214v-51z" />
    <glyph glyph-name="uni1E81" unicode="&#x1e81;" horiz-adv-x="766" 
d="M425 550l-18 -27l-167 108l33 47zM767 397h-54l-133 -397h-43l-141 358h-4l-141 -358h-41l-139 397h-51v47h202v-47h-91l103 -309h4l139 356h39l143 -357h5l94 310h-87v47h196v-47z" />
    <glyph glyph-name="uni1E82" unicode="&#x1e82;" horiz-adv-x="920" 
d="M600 753l-193 -46l-9 32l188 69zM915 599h-56l-172 -599h-50l-175 547h-4l-171 -547h-50l-184 599h-55v51h216v-51h-100l147 -508h4l159 508h-69v51h215v-51h-70l161 -510h4l137 510h-101v51h214v-51z" />
    <glyph glyph-name="uni1E83" unicode="&#x1e83;" horiz-adv-x="766" 
d="M556 631l-167 -108l-18 27l152 128zM767 397h-54l-133 -397h-43l-141 358h-4l-141 -358h-41l-139 397h-51v47h202v-47h-91l103 -309h4l139 356h39l143 -357h5l94 310h-87v47h196v-47z" />
    <glyph glyph-name="uni1E84" unicode="&#x1e84;" horiz-adv-x="920" 
d="M346 722v71h68v-71h-68zM514 722v71h68v-71h-68zM915 599h-56l-172 -599h-50l-175 547h-4l-171 -547h-50l-184 599h-55v51h216v-51h-100l147 -508h4l159 508h-69v51h215v-51h-70l161 -510h4l137 510h-101v51h214v-51z" />
    <glyph glyph-name="uni1E85" unicode="&#x1e85;" horiz-adv-x="766" 
d="M280 562v71h68v-71h-68zM448 562v71h68v-71h-68zM767 397h-54l-133 -397h-43l-141 358h-4l-141 -358h-41l-139 397h-51v47h202v-47h-91l103 -309h4l139 356h39l143 -357h5l94 310h-87v47h196v-47z" />
    <glyph glyph-name="uni1EBC" unicode="&#x1ebc;" horiz-adv-x="588" 
d="M509 792q-18 -80 -76 -80q-27 0 -66 18t-56 18q-38 0 -52 -41l-29 12q6 29 27.5 51.5t53.5 22.5q21 0 57.5 -18t62.5 -18q33 0 47 43zM565 0h-479v51h85v548h-85v51h469l20 -182l-51 -6l-20 137h-276v-243h315v-51h-315v-254h286l20 137l50 -5z" />
    <glyph glyph-name="uni1EBD" unicode="&#x1ebd;" horiz-adv-x="467" 
d="M416 646q-17 -83 -75 -83q-28 0 -67 19t-55 19q-39 0 -53 -43l-29 11q6 30 27.5 54.5t53.5 24.5q21 0 57.5 -18.5t62.5 -18.5q35 0 47 43zM469 124q-10 -59 -57.5 -96.5t-122.5 -37.5q-94 0 -149.5 60t-55.5 166q0 105 54.5 171t144.5 66q86 0 134 -56.5t48 -138.5
q0 -22 -5 -50h-318q2 -81 41.5 -125t109.5 -44q105 0 130 96zM407 254q6 59 -27.5 104.5t-99.5 45.5q-62 0 -96 -42t-41 -108h264z" />
    <glyph glyph-name="uni1EF2" unicode="&#x1ef2;" horiz-adv-x="604" 
d="M356 739l-8 -32l-193 46l14 55zM597 599h-66l-206 -352v-196h117v-51h-288v51h115v196l-215 352h-66v51h228v-51h-98l179 -298h5l172 298h-97v51h220v-51z" />
    <glyph glyph-name="uni1EF3" unicode="&#x1ef3;" horiz-adv-x="506" 
d="M314 550l-18 -27l-167 108l33 47zM506 397h-56l-160 -397l-65 -167h81v-46h-220v46h86l64 170l-163 394h-55v47h200v-47h-87l134 -323h6l122 323h-81v47h194v-47z" />
    <glyph glyph-name="uni2004" unicode="&#x2004;" horiz-adv-x="333" 
 />
    <glyph glyph-name="uni2007" unicode="&#x2007;" horiz-adv-x="600" 
 />
    <glyph glyph-name="uni2009" unicode="&#x2009;" horiz-adv-x="160" 
 />
    <glyph glyph-name="uni200A" unicode="&#x200a;" horiz-adv-x="80" 
 />
    <glyph glyph-name="uni200B" unicode="&#x200b;" horiz-adv-x="0" 
 />
    <glyph glyph-name="uni2012" unicode="&#x2012;" horiz-adv-x="347" 
d="M347 275v-48h-347v48h347z" />
    <glyph glyph-name="uni2013" unicode="&#x2013;" horiz-adv-x="632" 
d="M130 251h502v-42h-502v42z" />
    <glyph glyph-name="uni2014" unicode="&#x2014;" horiz-adv-x="1092" 
d="M164 251h940v-42h-940v42z" />
    <glyph glyph-name="uni2018" unicode="&#x2018;" horiz-adv-x="196" 
d="M205 661l-51 -212h-54l51 212h54z" />
    <glyph glyph-name="uni2019" unicode="&#x2019;" horiz-adv-x="195" 
d="M98 474l51 212h54l-51 -212h-54z" />
    <glyph glyph-name="uni201A" unicode="&#x201a;" horiz-adv-x="195" 
d="M58 -107l51 212h54l-51 -212h-54z" />
    <glyph glyph-name="uni201C" unicode="&#x201c;" horiz-adv-x="356" 
d="M205 668l-51 -212h-54l51 212h54zM366 668l-51 -212h-54l51 212h54z" />
    <glyph glyph-name="uni201D" unicode="&#x201d;" horiz-adv-x="355" 
d="M94 458l51 212h54l-51 -212h-54zM255 458l51 212h54l-51 -212h-54z" />
    <glyph glyph-name="uni201E" unicode="&#x201e;" horiz-adv-x="358" 
d="M58 -107l51 212h54l-51 -212h-54zM221 -107l51 212h54l-51 -212h-54z" />
    <glyph glyph-name="uni2020" unicode="&#x2020;" horiz-adv-x="469" 
d="M60 425h179v225h51v-225h180v-50h-180v-516h-51v516h-179v50z" />
    <glyph glyph-name="uni2021" unicode="&#x2021;" horiz-adv-x="521" 
d="M112 108h179v267h-179v50h179v225h51v-225h180v-50h-180v-267h180v-50h-180v-199h-51v199h-179v50z" />
    <glyph glyph-name="uni2022" unicode="&#x2022;" horiz-adv-x="358" 
d="M148 244q0 45 30 76t74 31q45 0 76 -31.5t31 -75.5t-31 -74.5t-76 -30.5q-44 0 -74 30.5t-30 74.5z" />
    <glyph glyph-name="uni2026" unicode="&#x2026;" horiz-adv-x="565" 
d="M124 0v94h83v-94h-83zM302 0v94h83v-94h-83zM482 0v94h83v-94h-83z" />
    <glyph glyph-name="uni2030" unicode="&#x2030;" horiz-adv-x="972" 
d="M212 245q-60 0 -97 34t-37 104q0 72 39.5 110t103.5 38q61 0 98 -34t37 -104t-38 -109t-106 -39zM606 521l-200 -252l-204 -269h-60l229 287l175 234h60zM213 287q94 0 94 105q0 97 -88 97q-93 0 -93 -105q0 -97 87 -97zM533 -10q-61 0 -98 33.5t-37 104.5q0 72 39.5 110
t104.5 38q61 0 97.5 -34t36.5 -104t-38 -109t-105 -39zM836 -10q-61 0 -98 33.5t-37 104.5q0 72 39.5 110t104.5 38q61 0 97.5 -34t36.5 -104t-38 -109t-105 -39zM533 32q95 0 95 105q0 97 -88 97q-93 0 -93 -105q0 -97 86 -97zM836 32q94 0 94 105q0 97 -87 97
q-94 0 -94 -105q0 -97 87 -97z" />
    <glyph glyph-name="uni2039" unicode="&#x2039;" horiz-adv-x="283" 
d="M276 25h-48l-138 246l138 240h48l-132 -240z" />
    <glyph glyph-name="uni203A" unicode="&#x203a;" horiz-adv-x="283" 
d="M152 25h-48l132 246l-132 240h48l138 -240z" />
    <glyph glyph-name="uni203D" unicode="&#x203d;" horiz-adv-x="617" 
d="M259 193l-40 -15l-153 446l60 23zM303 466l-45 9l20 110q24 27 66.5 44.5t88.5 17.5q73 0 128.5 -43.5t55.5 -108.5q0 -38 -21.5 -67.5t-53.5 -47t-70 -38t-70.5 -38.5t-55 -49t-24.5 -71l-41 10q1 44 21.5 78.5t51 54t66 38.5t66 34t50.5 39.5t20 55.5q0 51 -45 78.5
t-95 27.5q-46 0 -85 -30zM238 0v84h73v-84h-73z" />
    <glyph glyph-name="uni2044" unicode="&#x2044;" horiz-adv-x="130" 
d="M130 650l-189 -325l-183 -325h-44l197 337l175 313h44z" />
    <glyph glyph-name="uni2070" unicode="&#x2070;" horiz-adv-x="375" 
d="M84 593q0 192 147 192q144 0 144 -186q0 -190 -147 -190q-144 0 -144 184zM135 599q0 -73 20 -112t74 -39t74.5 39.5t20.5 114.5q0 43 -5.5 71.5t-27.5 50.5t-61 22q-55 0 -75 -39t-20 -108z" />
    <glyph glyph-name="uni2071" unicode="&#x2071;" horiz-adv-x="201" 
d="M104 787v54h51v-54h-51zM57 451h52v217h-53v36h100v-253h51v-36h-150v36z" />
    <glyph glyph-name="uni2074" unicode="&#x2074;" horiz-adv-x="352" 
d="M237 414v96h-184l-5 36l137 233h98v-234h63l-4 -35h-59v-96h-46zM207 742l-115 -197h145v197h-30z" />
    <glyph glyph-name="uni2075" unicode="&#x2075;" horiz-adv-x="332" 
d="M334 523q0 -58 -39.5 -86.5t-99.5 -28.5q-50 0 -83 27t-38 70l34 8q6 -28 28.5 -48t61.5 -20q40 0 63 20.5t23 56.5q0 80 -118 80q-21 0 -53 -2l-17 13v166h221l3 -85l-36 -4l-5 52h-138v-105h29q164 0 164 -114z" />
    <glyph glyph-name="uni2076" unicode="&#x2076;" horiz-adv-x="349" 
d="M236 748q-54 0 -78 -40.5t-24 -126.5q23 60 104 60q56 0 82.5 -30.5t26.5 -78.5q0 -54 -32 -88.5t-95 -34.5q-136 0 -136 172q0 91 38 147.5t107 56.5q65 0 110 -50l-26 -28q-33 41 -77 41zM226 604q-45 0 -66.5 -22t-23.5 -51q5 -40 24 -61.5t61 -21.5q78 0 78 81
q0 75 -73 75z" />
    <glyph glyph-name="uni2077" unicode="&#x2077;" horiz-adv-x="304" 
d="M62 779h248l7 -24l-147 -340h-47l144 327h-163v-62h-42v99z" />
    <glyph glyph-name="uni2078" unicode="&#x2078;" horiz-adv-x="353" 
d="M212 409q-58 0 -95 25t-37 70q0 37 24.5 57.5t68.5 38.5q-40 18 -61.5 38.5t-21.5 52.5q0 41 35.5 67.5t90.5 26.5q54 0 89 -25t35 -65q0 -32 -21.5 -51t-62.5 -35q46 -19 71.5 -42t25.5 -60q0 -45 -39 -71.5t-102 -26.5zM141 696q0 -17 13 -31.5t27.5 -22t43.5 -19.5
q22 9 34.5 16.5t22.5 20.5t10 30q0 29 -21.5 44t-54.5 15t-54 -14.5t-21 -38.5zM215 445q37 0 62 16t25 43q0 29 -24 46t-75 37q-37 -16 -56 -32t-19 -44q0 -31 23.5 -48.5t63.5 -17.5z" />
    <glyph glyph-name="uni2079" unicode="&#x2079;" horiz-adv-x="348" 
d="M199 446q53 0 75 39.5t23 126.5q-26 -59 -104 -59q-56 0 -82.5 30.5t-26.5 78.5q0 54 32 88.5t95 34.5q136 0 136 -174q0 -90 -36 -146t-105 -56t-114 50l26 28q33 -41 81 -41zM205 590q44 0 65.5 21.5t24.5 50.5q-10 84 -85 84q-78 0 -78 -81q0 -75 73 -75z" />
    <glyph glyph-name="uni207A" unicode="&#x207a;" horiz-adv-x="296" 
d="M64 581v33h101v97h35v-97h96v-33h-96v-96h-35v96h-101z" />
    <glyph glyph-name="uni207B" unicode="&#x207b;" horiz-adv-x="336" 
d="M104 581v33h232v-33h-232z" />
    <glyph glyph-name="uni207C" unicode="&#x207c;" horiz-adv-x="412" 
d="M110 650v34h301v-34h-301zM110 511v34h301v-34h-301z" />
    <glyph glyph-name="uni207D" unicode="&#x207d;" horiz-adv-x="218" 
d="M189 865h43q-108 -132 -108 -280q0 -155 108 -284h-44q-104 131 -104 284q0 150 105 280z" />
    <glyph glyph-name="uni207E" unicode="&#x207e;" horiz-adv-x="217" 
d="M96 300h-44q109 132 109 280q0 152 -109 284h45q104 -133 104 -284q0 -148 -105 -280z" />
    <glyph glyph-name="uni207F" unicode="&#x207f;" horiz-adv-x="404" 
d="M262 451h53v136q0 87 -71 87q-39 0 -63.5 -23.5t-25.5 -57.5v-142h51v-36h-150v36h52v217h-54v36h101v-52q32 58 104 58q46 0 74.5 -27.5t28.5 -83.5v-148h51v-36h-151v36z" />
    <glyph glyph-name="uni2080" unicode="&#x2080;" horiz-adv-x="375" 
d="M84 178q0 192 147 192q144 0 144 -186q0 -190 -147 -190q-144 0 -144 184zM135 184q0 -73 20 -112t74 -39t74.5 39.5t20.5 114.5q0 43 -5.5 71.5t-27.5 50.5t-61 22q-55 0 -75 -39t-20 -108z" />
    <glyph glyph-name="uni2081" unicode="&#x2081;" horiz-adv-x="254" 
d="M72 37h76v290h-76v37h123v-327h73v-37h-196v37z" />
    <glyph glyph-name="uni2082" unicode="&#x2082;" horiz-adv-x="341" 
d="M117 255l-37 5l10 70q40 40 115 40q56 0 85 -28t29 -69q0 -28 -13 -57t-40 -58t-44.5 -46t-51.5 -44.5t-37 -30.5h170l9 54l38 -4l-10 -87h-264l-4 33q8 7 36.5 31t39.5 34t35 32t34.5 36t24.5 33t19.5 36.5t5.5 34.5q0 63 -76 63q-35 0 -60 -18z" />
    <glyph glyph-name="uni2083" unicode="&#x2083;" horiz-adv-x="340" 
d="M127 262l-37 5l9 62q40 40 117 40q48 0 77 -23.5t29 -64.5q0 -67 -77 -87v-2q94 -13 94 -91q0 -52 -40.5 -80t-99.5 -28q-50 0 -83 27t-38 70l34 8q6 -28 28.5 -48t61.5 -20q40 0 63 20.5t23 54.5q0 65 -111 68v32q96 6 96 70q0 26 -18.5 41.5t-51.5 15.5q-34 0 -64 -18z
" />
    <glyph glyph-name="uni2084" unicode="&#x2084;" horiz-adv-x="352" 
d="M237 -1v96h-184l-5 36l137 233h98v-234h63l-4 -35h-59v-96h-46zM207 327l-115 -197h145v197h-30z" />
    <glyph glyph-name="uni2085" unicode="&#x2085;" horiz-adv-x="332" 
d="M334 108q0 -58 -39.5 -86.5t-99.5 -28.5q-50 0 -83 27t-38 70l34 8q6 -28 28.5 -48t61.5 -20q40 0 63 20.5t23 56.5q0 80 -118 80q-21 0 -53 -2l-17 13v166h221l3 -85l-36 -4l-5 52h-138v-105h29q164 0 164 -114z" />
    <glyph glyph-name="uni2086" unicode="&#x2086;" horiz-adv-x="348" 
d="M236 333q-54 0 -78 -40.5t-24 -126.5q23 60 104 60q56 0 82.5 -30.5t26.5 -78.5q0 -54 -32 -88.5t-95 -34.5q-136 0 -136 172q0 91 38 147.5t107 56.5q65 0 110 -50l-26 -28q-33 41 -77 41zM226 189q-45 0 -66.5 -22t-23.5 -51q5 -40 24 -61.5t61 -21.5q78 0 78 81
q0 75 -73 75z" />
    <glyph glyph-name="uni2087" unicode="&#x2087;" horiz-adv-x="305" 
d="M62 364h248l7 -24l-147 -340h-47l144 327h-163v-62h-42v99z" />
    <glyph glyph-name="uni2088" unicode="&#x2088;" horiz-adv-x="352" 
d="M212 -6q-58 0 -95 25t-37 70q0 37 24.5 57.5t68.5 38.5q-40 18 -61.5 38.5t-21.5 52.5q0 41 35.5 67.5t90.5 26.5q54 0 89 -25t35 -65q0 -32 -21.5 -51t-62.5 -35q46 -19 71.5 -42t25.5 -60q0 -45 -39 -71.5t-102 -26.5zM141 281q0 -17 13 -31.5t27.5 -22t43.5 -19.5
q22 9 34.5 16.5t22.5 20.5t10 30q0 29 -21.5 44t-54.5 15t-54 -14.5t-21 -38.5zM215 30q37 0 62 16t25 43q0 29 -24 46t-75 37q-37 -16 -56 -32t-19 -44q0 -31 23.5 -48.5t63.5 -17.5z" />
    <glyph glyph-name="uni2089" unicode="&#x2089;" horiz-adv-x="348" 
d="M199 31q53 0 75 39.5t23 126.5q-26 -59 -104 -59q-56 0 -82.5 30.5t-26.5 78.5q0 54 32 88.5t95 34.5q136 0 136 -174q0 -90 -36 -146t-105 -56t-114 50l26 28q33 -41 81 -41zM205 175q44 0 65.5 21.5t24.5 50.5q-10 84 -85 84q-78 0 -78 -81q0 -75 73 -75z" />
    <glyph glyph-name="uni208A" unicode="&#x208a;" horiz-adv-x="295" 
d="M62 166v33h101v97h35v-97h96v-33h-96v-96h-35v96h-101z" />
    <glyph glyph-name="uni208B" unicode="&#x208b;" horiz-adv-x="336" 
d="M104 166v33h232v-33h-232z" />
    <glyph glyph-name="uni208C" unicode="&#x208c;" horiz-adv-x="406" 
d="M104 235v34h301v-34h-301zM104 96v34h301v-34h-301z" />
    <glyph glyph-name="uni208D" unicode="&#x208d;" horiz-adv-x="216" 
d="M189 450h43q-108 -132 -108 -280q0 -155 108 -284h-44q-104 131 -104 284q0 150 105 280z" />
    <glyph glyph-name="uni208E" unicode="&#x208e;" horiz-adv-x="217" 
d="M96 -115h-44q109 132 109 280q0 152 -109 284h45q104 -133 104 -284q0 -148 -105 -280z" />
    <glyph glyph-name="uni2090" unicode="&#x2090;" horiz-adv-x="344" 
d="M195 262q-27 0 -61 -18l-10 -51l-37 4l8 64q40 34 107 34q51 0 79.5 -24.5t28.5 -72.5v-140q0 -32 25 -32q12 0 20 4v-27q-17 -10 -38 -10q-54 0 -54 61q-36 -61 -102 -61q-36 0 -63.5 19.5t-27.5 61.5q0 88 137 88q8 0 56 -3v37q0 30 -18 48t-50 18zM263 113v20
q-48 3 -55 3q-89 0 -89 -56q0 -27 17.5 -40t40.5 -13q34 0 60 24.5t26 61.5z" />
    <glyph glyph-name="uni2091" unicode="&#x2091;" horiz-adv-x="333" 
d="M214 31q67 0 82 60l39 -9q-6 -39 -39 -64t-86 -25q-64 0 -102 39t-38 108t37 112t99 43q67 0 101.5 -48.5t20.5 -111.5h-209q2 -50 26 -77t69 -27zM205 259q-39 0 -60 -25.5t-25 -65.5h163q4 36 -16.5 63.5t-61.5 27.5z" />
    <glyph glyph-name="uni2092" unicode="&#x2092;" horiz-adv-x="362" 
d="M68 142q0 67 39 110t109 43t108 -42.5t38 -107.5q0 -67 -41 -109.5t-108 -42.5t-106 41.5t-39 107.5zM118 145q0 -50 25 -82t71 -32t72 32t26 82t-25.5 80.5t-71.5 30.5t-71.5 -31t-25.5 -80z" />
    <glyph glyph-name="uni2093" unicode="&#x2093;" horiz-adv-x="354" 
d="M36 36h39l96 109l-96 108h-39v36h136v-36h-45l71 -84l72 84h-38v36h119v-36h-38l-93 -105l97 -112h40v-36h-131v36h40l-73 85l-73 -85h39v-36h-123v36z" />
    <glyph glyph-name="uni2095" unicode="&#x2095;" horiz-adv-x="397" 
d="M250 36h53v136q0 87 -71 87q-39 0 -63.5 -23.5t-25.5 -57.5v-142h51v-36h-150v36h52v375h-52v36h99v-210q32 58 104 58q46 0 74.5 -27.5t28.5 -83.5v-148h51v-36h-151v36z" />
    <glyph glyph-name="uni2096" unicode="&#x2096;" horiz-adv-x="363" 
d="M231 36h47l-83 100h-53v-100h44v-36h-143v36h52v375h-53v36h100v-277h55l68 83h-48v36h140v-36h-47l-79 -96l99 -121h42v-36h-141v36z" />
    <glyph glyph-name="uni2097" unicode="&#x2097;" horiz-adv-x="194" 
d="M43 36h52v375h-53v36h100v-411h52v-36h-151v36z" />
    <glyph glyph-name="uni2098" unicode="&#x2098;" horiz-adv-x="597" 
d="M456 36h53v136q0 87 -68 87q-37 0 -60 -25.5t-26 -55.5v-142h52v-36h-151v36h52v136q0 87 -67 87q-38 0 -60.5 -25t-25.5 -55v-143h50v-36h-149v36h52v217h-54v36h101v-53q33 59 100 59q76 0 95 -71q33 71 106 71q45 0 72.5 -27.5t27.5 -83.5v-148h51v-36h-151v36z" />
    <glyph glyph-name="uni2099" unicode="&#x2099;" horiz-adv-x="403" 
d="M262 36h53v136q0 87 -71 87q-39 0 -63.5 -23.5t-25.5 -57.5v-142h51v-36h-150v36h52v217h-54v36h101v-52q32 58 104 58q46 0 74.5 -27.5t28.5 -83.5v-148h51v-36h-151v36z" />
    <glyph glyph-name="uni209A" unicode="&#x209a;" horiz-adv-x="390" 
d="M42 -102h51v355h-53v36h100v-61q34 67 108 67q56 0 91.5 -38t35.5 -104q0 -65 -34 -112.5t-100 -47.5q-72 0 -101 50v-145h70v-36h-168v36zM230 31q47 0 71 33.5t24 83.5q0 52 -25 80.5t-63 28.5q-41 0 -68 -28.5t-29 -63.5v-53q0 -36 26 -58.5t64 -22.5z" />
    <glyph glyph-name="uni209B" unicode="&#x209b;" horiz-adv-x="312" 
d="M192 30q74 0 74 49q0 26 -29.5 38.5t-64.5 15.5t-64.5 22t-29.5 56q0 41 31 62.5t73 21.5q63 0 110 -26l9 -63l-37 -5l-10 45q-31 13 -59 13q-66 0 -66 -42q0 -26 29 -38t63.5 -15t63.5 -22.5t29 -58.5q0 -42 -29.5 -66t-79.5 -24q-36 0 -74 10.5t-57 24.5l7 68l37 -4
l-1 -41q30 -21 75 -21z" />
    <glyph glyph-name="uni209C" unicode="&#x209c;" horiz-adv-x="279" 
d="M46 289h47v93h48v-93h116v-36h-116v-162q0 -60 49 -60q21 0 35 12t20 45l35 -11q-12 -84 -94 -84q-45 0 -69 24.5t-24 67.5v168h-47v36z" />
    <glyph glyph-name="uni20A1" unicode="&#x20a1;" horiz-adv-x="692" 
d="M660 689h45l-231 -644q59 7 100 27l20 96l50 -6l-18 -117q-60 -43 -171 -53l-22 -63h-45l22 61h-8q-45 0 -82 10l-25 -71h-44l29 83q-86 33 -137 113t-51 197q0 148 86 243t216 95q57 0 110 -23l19 52h44l-26 -72q46 -31 67 -74zM403 608q-112 0 -181.5 -77.5
t-69.5 -204.5q0 -99 39 -165.5t108 -95.5l189 527q-38 16 -85 16zM421 42h7l160 447q-13 51 -63 84l-187 -522q39 -9 83 -9z" />
    <glyph glyph-name="uni20A2" unicode="&#x20a2;" horiz-adv-x="668" 
d="M618 45q-76 -55 -210 -55q-140 0 -228 95t-88 238q0 141 87 239t216 98q138 0 229 -76l18 -117l-50 -6l-20 98q-74 49 -168 49q-111 0 -181.5 -80.5t-70.5 -203.5q0 -113 59 -189t162 -90v270h-84v47h136v-79q14 38 44.5 62.5t66.5 24.5q47 0 73 -23l16 -99l-46 -6
l-17 76q-15 4 -34 4q-44 0 -72 -37t-28 -94v-149q81 2 138 30l20 96l50 -6z" />
    <glyph glyph-name="uni20A3" unicode="&#x20a3;" horiz-adv-x="778" 
d="M228 599v-237h338v-79q14 38 44.5 62.5t66.5 24.5q47 0 73 -23l16 -99l-46 -6l-17 76q-15 4 -34 4q-44 0 -72 -37t-28 -94v-145h109v-46h-247v46h83v265h-286v-260h117v-51h-259v51h85v548h-85v51h468l21 -184l-53 -6l-20 139h-274z" />
    <glyph glyph-name="uni20A4" unicode="&#x20a4;" horiz-adv-x="580" 
d="M563 104q-12 -22 -28.5 -42.5t-51 -41t-72.5 -20.5h-343v48q97 44 97 186v2h-77v41h77v89h-77v41h77v10q0 124 54 183.5t133 59.5q114 0 168 -45l18 -117l-48 -6l-18 88q-43 28 -111 28q-140 0 -140 -190v-11h239v-41h-239v-89h239v-41h-239v-2q0 -132 -80 -183h258
q48 0 77 22t52 59z" />
    <glyph glyph-name="uni20A5" unicode="&#x20a5;" horiz-adv-x="908" 
d="M934 0h-219v46h82v221q0 137 -107 137q-32 0 -58 -14l-81 -185v-159h82v-46h-172l-57 -130h-44l57 130h-3v46h23l59 134v87q0 137 -106 137q-61 0 -99 -45.5t-40 -93.5v-219h80v-46h-218v46h83v351h-84v47h139v-87q51 96 152 96q115 0 141 -110q20 44 56 74l65 148h44
l-52 -119q24 7 47 7q68 0 108 -43t40 -130v-234h82v-46zM481 46h15v34z" />
    <glyph glyph-name="uni20A6" unicode="&#x20a6;" horiz-adv-x="763" 
d="M768 599h-84v-182h85v-41h-85v-102h85v-41h-85v-233h-39l-167 233h-222v-182h107v-51h-239v51h77v182h-85v41h85v102h-85v41h85v182h-87v51h130l167 -233h218v182h-99v51h238v-51zM256 538v-121h90l-86 121h-4zM256 376v-102h193l-73 102h-120zM440 376l73 -102h116v102
h-189zM625 118h4v115h-86z" />
    <glyph glyph-name="uni20A7" unicode="&#x20a7;" horiz-adv-x="1284" 
d="M574 455q0 -98 -58 -152t-156 -54h-134v-198h115v-51h-257v51h85v548h-85v51h270q113 0 166.5 -55.5t53.5 -139.5zM514 453q0 69 -41 107.5t-122 38.5h-125v-300h129q75 0 117 40t42 114zM924 115q-20 -125 -135 -125q-63 0 -96.5 37t-33.5 103v267h-73v47h73v144h55
v-144h177v-47h-177v-261q0 -97 81 -97q33 0 54.5 19.5t31.5 70.5zM1280 126q0 -61 -52 -98.5t-130 -37.5q-45 0 -91 13t-71 31l12 94l45 -4l-4 -60q47 -25 107 -25q54 0 91 20.5t37 60.5q0 37 -29 56t-70 26t-82.5 15.5t-70.5 35t-29 73.5q0 63 45.5 95t110.5 32
q84 0 152 -41l10 -102l-46 -6l-12 75q-47 25 -97 25q-105 0 -105 -72q0 -34 28.5 -52t69.5 -24.5t82.5 -15.5t70 -37t28.5 -77z" />
    <glyph glyph-name="uni20A8" unicode="&#x20a8;" horiz-adv-x="924" 
d="M751 406q-48 0 -76 -18.5t-28 -56.5q0 -35 28.5 -52.5t69.5 -24.5t82.5 -15.5t70 -36t28.5 -75.5q0 -62 -46.5 -99.5t-133.5 -37.5q-101 0 -180 51.5t-122 127.5l-63 110h-155v-228h93v-51h-235v51h85v548h-85v51h277q113 0 166 -50t53 -130q0 -67 -36.5 -115.5
t-106.5 -65.5l55 -94q37 -66 106.5 -112.5t150.5 -46.5q54 0 87.5 21.5t33.5 64.5q0 37 -29 56t-70.5 26t-83 15.5t-70.5 34t-29 72.5q0 63 45.5 95t110.5 32q84 0 152 -41l10 -102l-46 -6l-12 75q-50 27 -97 27zM359 327q161 0 161 140q0 68 -39 100t-125 32h-130v-272h133
z" />
    <glyph glyph-name="uni20A9" unicode="&#x20a9;" horiz-adv-x="987" 
d="M985 599h-56l-48 -167h80v-43h-92l-30 -102h122v-43h-134l-70 -244h-50l-78 244h-196l-76 -244h-50l-75 244h-135v43h122l-32 102h-90v43h77l-51 167h-55v51h216v-51h-100l48 -167h210l52 167h-69v51h215v-51h-70l52 -167h205l45 167h-101v51h214v-51zM528 547l-36 -115
h77l-37 115h-4zM245 389l29 -102h122l32 102h-183zM636 389l32 -102h120l27 102h-179zM478 389l-32 -102h169l-33 102h-104zM331 91h4l48 153h-96zM731 89h4l41 155h-94z" />
    <glyph glyph-name="uni20AA" unicode="&#x20aa;" horiz-adv-x="775" 
d="M190 0v650h203q74 0 117 -13t65.5 -49t29 -82.5t6.5 -131.5v-130h-57v135q0 52 -1 81t-7 58t-15.5 41.5t-28 23.5t-44 14t-64.5 3h-148v-600h-56zM428 50h160q28 0 48.5 2t36.5 9.5t26.5 14t17.5 23.5t11 29t5.5 40.5t2 48t0.5 59.5v374h57v-369q0 -59 -1.5 -93
t-8.5 -70.5t-19.5 -55t-36 -35t-57.5 -22t-83 -5.5h-215v406h56v-356z" />
    <glyph glyph-name="uni20AB" unicode="&#x20ab;" horiz-adv-x="550" 
d="M258 633h171v55h52v-55h64v-40h-64v-417h73v-41h-125v86q-48 -95 -153 -95q-82 0 -129 52t-47 149q0 89 44 147.5t138 58.5q107 0 147 -76v136h-171v40zM292 491q-73 0 -105 -45t-32 -116q0 -80 35.5 -120.5t94.5 -40.5q61 0 101.5 42.5t42.5 93.5v65q0 53 -36.5 87
t-100.5 34zM127 43h378v-43h-378v43z" />
    <glyph glyph-name="uni20AC" unicode="&#x20ac;" horiz-adv-x="604" 
d="M78 302v38h68q22 85 85 137t150 52q113 0 174 -46l18 -117l-48 -6l-21 104q-43 20 -115 20q-70 0 -117.5 -39t-66.5 -105h207v-38h-215q-2 -14 -2 -42q0 -25 3 -46h189v-37h-181q19 -65 67 -102t117 -37q64 0 118 22l21 101l47 -6l-18 -117q-74 -46 -178 -46
q-87 0 -149.5 50.5t-84.5 134.5h-68v37h61q-3 21 -3 45q0 22 3 43h-61z" />
    <glyph glyph-name="uni20AD" unicode="&#x20ad;" horiz-adv-x="674" 
d="M115 306v50h70v243h-85v51h224v-51h-81v-243h113l180 244h-82v51h218v-51h-75l-181 -244h204v-50h-196l186 -255h74v-51h-221v51h81l-186 255h-115v-255h80v-51h-223v51h85v255h-70z" />
    <glyph glyph-name="uni20AE" unicode="&#x20ae;" horiz-adv-x="623" 
d="M624 458l-52 -4l-20 145h-185v-219l152 60v-46l-152 -59v-82l152 59v-45l-152 -60v-156h117v-51h-289v51h115v134l-143 -55v46l143 55v82l-143 -55v45l143 55v241h-185l-20 -145l-51 4l19 192h531z" />
    <glyph glyph-name="uni20B1" unicode="&#x20b1;" horiz-adv-x="651" 
d="M115 486v39h82v74h-85v51h270q87 0 138.5 -34t70.5 -91h81v-39h-72q2 -20 2 -31q0 -23 -3 -42h73v-39h-83q-21 -61 -73.5 -93t-127.5 -32h-134v-198h115v-51h-257v51h85v323h-82v39h82v73h-82zM254 599v-74h273q-35 74 -148 74h-125zM542 453q0 17 -3 33h-285v-73h284
q4 24 4 40zM383 299q105 0 142 75h-271v-75h129z" />
    <glyph glyph-name="uni20B4" unicode="&#x20b4;" horiz-adv-x="583" 
d="M86 375v35h353q39 31 39 84q0 57 -39 86t-105 29q-88 0 -141 -26l-11 -103l-47 5l6 126q30 21 89.5 35t112.5 14q86 0 140.5 -39.5t54.5 -121.5q0 -54 -27 -89h71v-35h-110q-14 -9 -33 -17.5t-33 -14t-40.5 -15t-38.5 -13.5q-23 -8 -46 -18h301v-35h-361q-43 -35 -43 -95
q0 -126 166 -126q86 0 132 31l20 96l50 -6l-18 -117q-75 -55 -188 -55q-102 0 -162 42.5t-60 127.5q0 61 33 102h-65v35h103q36 24 126 56q37 12 60 22h-289z" />
    <glyph glyph-name="uni20B9" unicode="&#x20b9;" horiz-adv-x="531" 
d="M132 264h152q123 0 133 93h-285v36h285q-10 83 -134 83h-151v45h411v-44h-109q36 -33 41 -84h54v-36h-54q-5 -46 -35.5 -79.5t-83.5 -46.5l102 -186h68v-45h-105l-119 221h-170v43z" />
    <glyph glyph-name="uni20BA" unicode="&#x20ba;" horiz-adv-x="597" 
d="M120 225l88 38v84l-88 -38v43l88 38v209h-85v51h245v-51h-102v-184l219 94v-43l-219 -94v-84l219 94v-43l-219 -94v-194h75q123 0 175 73.5t52 209.5h57q0 -154 -67.5 -244t-213.5 -90h-221v51h85v169l-88 -38v43z" />
    <glyph glyph-name="uni20BD" unicode="&#x20bd;" horiz-adv-x="584" 
d="M120 51h85v85h-85v47h85v74h-85v50h85v292h-85v51h270q113 0 166.5 -54t53.5 -138q0 -97 -58 -149t-156 -52h-134v-74h257v-47h-257v-85h114v-51h-256v51zM390 307q76 0 118 37.5t42 111.5q0 68 -40.5 105.5t-122.5 37.5h-125v-292h128z" />
    <glyph glyph-name="uni2113" unicode="&#x2113;" horiz-adv-x="367" 
d="M87 192l-21 33l73 54v223q0 158 122 158q56 0 83 -33t27 -86q0 -72 -46 -137.5t-130 -132.5v-127q0 -60 16.5 -83t47.5 -23q45 0 87 32l15 -40q-45 -40 -110 -40q-112 0 -112 148v90zM195 490v-165q121 105 121 212q0 74 -59 74q-28 0 -42 -17t-17 -39t-3 -65z" />
    <glyph glyph-name="uni2116" unicode="&#x2116;" horiz-adv-x="970" 
d="M669 376q0 67 39 110t109 43t108 -42.5t38 -107.5q0 -67 -41 -109.5t-108 -42.5t-106 41.5t-39 107.5zM448 521h205v-45h-70v-476h-36l-320 419h-4v-374h89v-45h-206v45h65v431h-73v45h113l316 -413h3v368h-82v45zM719 379q0 -50 25 -82t71 -32t72 32t26 82t-25.5 80.5
t-71.5 30.5t-71.5 -31t-25.5 -80zM670 148v41h295v-41h-295z" />
    <glyph glyph-name="uni2117" unicode="&#x2117;" horiz-adv-x="632" 
d="M364 -7q-111 0 -189.5 77.5t-78.5 189.5t78 190.5t191 78.5q112 0 189.5 -78.5t77.5 -190.5q0 -111 -78.5 -189t-189.5 -78zM364 27q97 0 164.5 68t67.5 165q0 99 -65.5 166.5t-165.5 67.5t-166.5 -68t-66.5 -166t66.5 -165.5t165.5 -67.5zM245 128h47v271h-47v32h154
q64 0 95.5 -31t31.5 -77q0 -54 -33.5 -84.5t-89.5 -30.5h-73v-80h63v-32h-148v32zM398 240q87 0 87 81q0 78 -88 78h-67v-159h68z" />
    <glyph glyph-name="uni2120" unicode="&#x2120;" horiz-adv-x="997" 
d="M281 222q-42 0 -87.5 12.5t-67.5 28.5l8 82l39 -3l-3 -57q41 -22 105 -22q44 0 69.5 20.5t25.5 59.5t-29 58.5t-81 30.5q-30 6 -47 11t-39.5 17t-33 32t-10.5 50q0 56 38 86t96 30q84 0 132 -34l5 -87l-39 -4l-8 65q-39 19 -81 19t-67 -18.5t-25 -52.5q0 -19 7.5 -32.5
t24 -22t29.5 -12t37 -9.5q72 -18 96 -33q46 -31 46 -91q0 -59 -39 -91.5t-101 -32.5zM467 267h55v343h-57v40h100l169 -337h3l165 337h100v-40h-57v-343h55v-40h-155v40h52v278h-3l-147 -297h-27l-149 299h-3v-280h53v-40h-154v40z" />
    <glyph glyph-name="uni2122" unicode="&#x2122;" horiz-adv-x="1059" 
d="M1054 610h-57v-343h54v-40h-154v40h51v278h-3l-146 -297h-27l-149 299h-3v-280h53v-40h-154v40h55v343h-58v40h100l170 -337h3l164 337h101v-40zM502 518h-42l-10 92h-121v-343h76v-40h-200v40h76v343h-122l-10 -92h-43l10 132h376z" />
    <glyph glyph-name="uni2126" unicode="&#x2126;" horiz-adv-x="722" 
d="M412 608q-114 0 -181.5 -63t-67.5 -184q0 -95 44 -152t139 -56v-153h-244v49h194v66q-92 4 -143 74t-51 176q0 75 26.5 133t71 92.5t98.5 52t114 17.5t114 -17.5t98.5 -51.5t71 -92t26.5 -133q0 -65 -18.5 -119t-62 -91.5t-106.5 -40.5v-66h187v-49h-235v153
q50 -1 85.5 16.5t54 49t26.5 66.5t8 77q0 121 -67.5 183.5t-181.5 62.5z" />
    <glyph glyph-name="uni212E" unicode="&#x212e;" horiz-adv-x="616" 
d="M628 235h-428q-4 0 -4 -3v-137q0 -9 6 -17q26 -32 67.5 -53.5t89.5 -21.5q114 0 185 84h24q-85 -99 -209 -99q-115 0 -191 73.5t-76 180.5t76 180.5t191 73.5t192 -73.5t77 -180.5v-7zM523 255v137q0 13 -5 18q-22 28 -67 49.5t-92 21.5t-92 -23t-64 -51q-7 -11 -7 -19
v-133q0 -4 4 -4h322q1 0 1 4z" />
    <glyph glyph-name="uni2153" unicode="&#x2153;" horiz-adv-x="733" 
d="M585 650l-189 -325l-183 -325h-44l197 337l175 313h44zM84 323h76v290h-76v37h123v-327h73v-37h-196v37zM528 262l-37 5l9 62q40 40 117 40q48 0 77 -23.5t29 -64.5q0 -67 -77 -87v-2q94 -13 94 -91q0 -52 -40.5 -80t-99.5 -28q-50 0 -83 27t-38 70l34 8q6 -28 28.5 -48
t61.5 -20q40 0 63 20.5t23 54.5q0 65 -111 68v32q96 6 96 70q0 26 -18.5 41.5t-51.5 15.5q-34 0 -64 -18z" />
    <glyph glyph-name="uni2154" unicode="&#x2154;" horiz-adv-x="783" 
d="M125 545l-37 5l10 70q40 40 115 40q56 0 85 -28t29 -69q0 -28 -13 -57t-40 -58t-44.5 -46t-51.5 -44.5t-37 -30.5h170l9 54l38 -4l-10 -87h-264l-4 33q8 7 36.5 31t39.5 34t35 32t34.5 36t24.5 33t19.5 36.5t5.5 34.5q0 63 -76 63q-35 0 -60 -18zM645 650l-189 -325
l-183 -325h-44l197 337l175 313h44zM576 262l-37 5l9 62q40 40 117 40q48 0 77 -23.5t29 -64.5q0 -67 -77 -87v-2q94 -13 94 -91q0 -52 -40.5 -80t-99.5 -28q-50 0 -83 27t-38 70l34 8q6 -28 28.5 -48t61.5 -20q40 0 63 20.5t23 54.5q0 65 -111 68v32q96 6 96 70
q0 26 -18.5 41.5t-51.5 15.5q-34 0 -64 -18z" />
    <glyph glyph-name="uni215B" unicode="&#x215b;" horiz-adv-x="730" 
d="M597 650l-189 -325l-183 -325h-44l197 337l175 313h44zM84 323h76v290h-76v37h123v-327h73v-37h-196v37zM597 -6q-58 0 -95 25t-37 70q0 37 24.5 57.5t68.5 38.5q-40 18 -61.5 38.5t-21.5 52.5q0 41 35.5 67.5t90.5 26.5q54 0 89 -25t35 -65q0 -32 -21.5 -51t-62.5 -35
q46 -19 71.5 -42t25.5 -60q0 -45 -39 -71.5t-102 -26.5zM526 281q0 -17 13 -31.5t27.5 -22t43.5 -19.5q22 9 34.5 16.5t22.5 20.5t10 30q0 29 -21.5 44t-54.5 15t-54 -14.5t-21 -38.5zM600 30q37 0 62 16t25 43q0 29 -24 46t-75 37q-37 -16 -56 -32t-19 -44
q0 -31 23.5 -48.5t63.5 -17.5z" />
    <glyph glyph-name="uni2190" unicode="&#x2190;" horiz-adv-x="765" 
d="M368 31l-276 208v23l275 212v-53l-170 -146h614v-48h-616l173 -143v-53z" />
    <glyph glyph-name="uni2191" unicode="&#x2191;" horiz-adv-x="534" 
d="M326 698l209 -276h-53l-143 172v-615h-49v612l-145 -168h-53l212 275h22z" />
    <glyph glyph-name="uni2192" unicode="&#x2192;" horiz-adv-x="766" 
d="M720 239l-276 -208v53l172 143h-616v48h615l-170 146v53l275 -212v-23z" />
    <glyph glyph-name="uni2193" unicode="&#x2193;" horiz-adv-x="534" 
d="M535 254l-211 -275h-23l-209 275h53l143 -171v615h49v-614l145 170h53z" />
    <glyph glyph-name="uni2196" unicode="&#x2196;" horiz-adv-x="626" 
d="M108 584l342 -48l-37 -37l-222 19l435 -434l-35 -34l-434 433l17 -222l-38 -37l-44 345z" />
    <glyph glyph-name="uni2197" unicode="&#x2197;" horiz-adv-x="626" 
d="M267 536l343 48l16 -15l-45 -345l-38 37l18 222l-434 -433l-35 34l434 434l-221 -19z" />
    <glyph glyph-name="uni2198" unicode="&#x2198;" horiz-adv-x="626" 
d="M610 50l-343 48l38 38l221 -21l-434 435l35 34l434 -434l-18 223l38 38l45 -346z" />
    <glyph glyph-name="uni2199" unicode="&#x2199;" horiz-adv-x="626" 
d="M450 98l-342 -48l-16 15l44 346l38 -38l-17 -223l434 434l35 -34l-435 -435l222 21z" />
    <glyph glyph-name="uni2202" unicode="&#x2202;" horiz-adv-x="489" 
d="M122 321q0 51 30 90l-98 98l25 26l98 -98q41 35 96 35q52 0 94 -34l98 97l26 -26l-98 -98q31 -41 31 -90q0 -50 -31 -91l98 -98l-26 -26l-98 97q-41 -33 -94 -33t-95 34l-99 -98l-25 26l98 98q-30 41 -30 91zM170 321q0 -47 30 -76t74 -29q43 0 72 29t29 76t-29 76.5
t-72 29.5t-73.5 -29.5t-30.5 -76.5z" />
    <glyph glyph-name="uni2206" unicode="&#x2206;" horiz-adv-x="544" 
d="M52 0l251 661l240 -661h-491zM118 46h360l-175 490z" />
    <glyph glyph-name="uni220F" unicode="&#x220f;" horiz-adv-x="680" 
d="M84 51h85v548h-85v51h595v-51h-85v-548h85v-51h-226v51h85v548h-312v-548h85v-51h-227v51z" />
    <glyph glyph-name="uni2211" unicode="&#x2211;" horiz-adv-x="567" 
d="M66 -140v49l256 344l-256 347v50h494v-50h-432l250 -337v-18l-250 -336h432v-49h-494z" />
    <glyph glyph-name="uni2212" unicode="&#x2212;" horiz-adv-x="477" 
d="M130 259v44h347v-44h-347z" />
    <glyph glyph-name="uni221A" unicode="&#x221a;" horiz-adv-x="576" 
d="M299 0l-148 396h-107v45h142l137 -368l225 624h47l-254 -697h-42z" />
    <glyph glyph-name="uni221E" unicode="&#x221e;" horiz-adv-x="732" 
d="M578 79q-55 0 -90.5 36t-73.5 105q-38 -68 -74.5 -104.5t-90.5 -36.5q-65 0 -108 51t-43 124q0 75 45.5 126.5t108.5 51.5q55 0 90.5 -38t72.5 -109q19 34 33.5 55.5t35.5 45t46.5 35t54.5 11.5q64 0 105.5 -50.5t41.5 -124.5q0 -76 -44.5 -127t-109.5 -51zM573 122
q46 0 78 36.5t32 98.5q0 57 -27 94t-75 37q-25 0 -46.5 -10.5t-40.5 -32t-31.5 -41.5t-30.5 -52q34 -63 65 -96.5t76 -33.5zM253 122q44 0 76.5 33.5t68.5 97.5q-18 33 -30 52t-30 41t-38 32t-44 10q-46 0 -78 -38t-32 -96t29.5 -95t77.5 -37z" />
    <glyph glyph-name="uni222B" unicode="&#x222b;" horiz-adv-x="375" 
d="M10 -140v48h42q62 0 86.5 34t24.5 117v436q0 99 38.5 146.5t127.5 47.5h47v-49h-55q-60 0 -84.5 -33t-24.5 -115v-438q0 -98 -39.5 -146t-125.5 -48h-37z" />
    <glyph glyph-name="uni2248" unicode="&#x2248;" horiz-adv-x="639" 
d="M500 326q-48 0 -119.5 36.5t-114.5 36.5q-62 0 -104 -65l-34 22q54 95 142 95q45 0 116.5 -37t114.5 -37q33 0 57 17t51 62l37 -23q-33 -57 -67.5 -82t-78.5 -25zM500 128q-48 0 -119.5 37t-114.5 37q-61 0 -104 -65l-34 22q54 94 142 94q45 0 116.5 -36.5t114.5 -36.5
q33 0 57 17t51 63l37 -25q-33 -57 -68 -82t-78 -25z" />
    <glyph glyph-name="uni2260" unicode="&#x2260;" horiz-adv-x="585" 
d="M126 369v44h303l59 76h54l-58 -76h99v-44h-133l-134 -177h267v-43h-300l-59 -78h-58l60 78h-100v43h133l136 177h-269z" />
    <glyph glyph-name="uni2264" unicode="&#x2264;" horiz-adv-x="436" 
d="M419 101l-319 198v20l318 203v-53l-250 -159l251 -156v-53zM100 0v44h319v-44h-319z" />
    <glyph glyph-name="uni2265" unicode="&#x2265;" horiz-adv-x="436" 
d="M132 101v53l251 156l-250 159v53l318 -203v-20zM451 0h-319v44h319v-44z" />
    <glyph glyph-name="uni24CA" unicode="&#x24ca;" horiz-adv-x="632" 
d="M364 -7q-111 0 -189.5 77.5t-78.5 189.5t78 190.5t191 78.5q112 0 189.5 -78.5t77.5 -190.5q0 -111 -78.5 -189t-189.5 -78zM364 27q97 0 164.5 68t67.5 165q0 99 -65.5 166.5t-165.5 67.5t-166.5 -68t-66.5 -166t66.5 -165.5t165.5 -67.5zM409 404h121v-31h-35v-135
q0 -147 -130 -147q-72 0 -99 38t-27 102v142h-38v31h124v-31h-50v-140q0 -55 21 -83t71 -28q49 0 71 28.5t22 87.5v135h-51v31z" />
    <glyph glyph-name="uni25B2" unicode="&#x25b2;" horiz-adv-x="650" 
d="M650 23h-574l287 458z" />
    <glyph glyph-name="uni25B6" unicode="&#x25b6;" horiz-adv-x="591" 
d="M188 -35v575l459 -288z" />
    <glyph glyph-name="uni25B8" unicode="&#x25b8;" horiz-adv-x="418" 
d="M475 234l-287 -287v575z" />
    <glyph glyph-name="uni25BA" unicode="&#x25ba;" horiz-adv-x="905" 
d="M954 234l-774 -287v575z" />
    <glyph glyph-name="uni25BC" unicode="&#x25bc;" horiz-adv-x="650" 
d="M76 480h574l-287 -458z" />
    <glyph glyph-name="uni25C0" unicode="&#x25c0;" horiz-adv-x="591" 
d="M535 -35l-459 287l459 288v-575z" />
    <glyph glyph-name="uni25C2" unicode="&#x25c2;" horiz-adv-x="418" 
d="M362 -53l-286 288l286 287v-575z" />
    <glyph glyph-name="uni25C4" unicode="&#x25c4;" horiz-adv-x="906" 
d="M854 -53l-774 286l774 289v-575z" />
    <glyph glyph-name="uni25CA" unicode="&#x25ca;" horiz-adv-x="599" 
d="M332 -11l-268 331l268 340l267 -340zM332 55l213 265l-213 270l-214 -270z" />
    <glyph glyph-name="uni2610" unicode="&#x2610;" horiz-adv-x="879" 
d="M202 0v651h677v-651h-677zM250 603v-556h582v556h-582z" />
    <glyph glyph-name="uni2611" unicode="&#x2611;" horiz-adv-x="879" 
d="M202 0v651h677v-651h-677zM250 603v-556h582v556h-582zM396 317l93 -155l209 401l81 -48l-292 -411l-164 148z" />
    <glyph glyph-name="uni261A" unicode="&#x261a;" horiz-adv-x="957" 
d="M926 394v-352h-154q-2 16 -4 50q-145 -56 -225 -56q-20 0 -48.5 2.5t-46.5 5.5l-19 2q-12 -2 -56 -2q-33 0 -51 9.5t-18 36.5q0 16 15 31q-22 17 -22 40q0 17 11 28q-21 18 -21 40q0 11 6 21l-132 1q-31 0 -45 15t-14 36q0 23 14.5 37.5t44.5 14.5h168q-8 24 11 51
q33 3 76 18.5t64 15.5q74 0 141 -23.5t146 -68.5q1 15 5 47h154z" />
    <glyph glyph-name="uni261B" unicode="&#x261b;" horiz-adv-x="957" 
d="M164 42v352h154l4 -47q80 45 146.5 68.5t141.5 23.5q21 0 64 -15.5t76 -18.5q19 -27 11 -51h168q30 0 44.5 -14.5t14.5 -37.5q0 -21 -14 -36t-45 -15l-132 -1q6 -10 6 -21q0 -22 -21 -40q11 -11 11 -28q0 -23 -22 -40q15 -15 15 -31q0 -27 -18 -36.5t-51 -9.5
q-44 0 -56 2q-69 -10 -114 -10q-80 0 -225 56l-4 -50h-154z" />
    <glyph glyph-name="uni261C" unicode="&#x261c;" horiz-adv-x="927" 
d="M894 394v-352h-154q-2 16 -4 50q-145 -56 -225 -56q-20 0 -48.5 2.5t-46.5 5.5l-19 2q-12 -2 -56 -2q-33 0 -51 9.5t-18 36.5q0 16 15 31q-22 17 -22 40q0 17 11 28q-21 18 -21 40q0 11 6 21l-102 1q-31 0 -45 15t-14 36q0 23 14.5 37.5t44.5 14.5h148q-3 9 -3 19
q0 8 3.5 19.5t6.5 19.5l4 7q70 28 146 28q122 0 272 -96q2 30 4 43h154zM734 131q-3 51 -3 104q0 25 2 75q-57 33 -90.5 50.5t-89 36t-100.5 18.5q-64 0 -115 -29q-1 -8 -1 -13q0 -9 19 -9q55 15 94 15q27 0 48 -12q2 -5 7 -16.5t7 -15.5t6 -13t6.5 -13t6.5 -11t8 -12
t10 -11.5t12 -12.5q0 -18 -15 -31q-53 48 -72 87h-318q-23 0 -23 -16q0 -15 23 -15l298 -2q27 -27 27 -55q0 -18 -10 -34q10 -21 10 -36q0 -21 -17 -41q4 -15 4 -23q0 -13 -4 -22q1 -2 47 -2q73 0 223 59zM441 248h-148q-6 -13 -6 -19q0 -18 6 -18l152 -4q0 35 -4 41z
M443 180h-140q-7 -13 -7 -19q0 -14 7 -18l142 -4v17q0 22 -2 24zM429 112h-118q-6 -17 -6 -20q0 -6 10.5 -10.5t25.5 -4.5q21 0 31 1q6 0 17.5 0.5t15.5 0.5h23q2 4 2 16q0 15 -1 17z" />
    <glyph glyph-name="uni261D" unicode="&#x261d;" horiz-adv-x="535" 
d="M138 -98v154l50 4q-56 145 -56 225q0 20 2.5 48.5t5.5 46.5l2 19q-2 12 -2 56q0 33 9.5 51t36.5 18q16 0 31 -15q17 22 40 22q17 0 28 -11q18 21 40 21q11 0 21 -6l1 102q0 31 15 45t36 14q23 0 37.5 -14.5t14.5 -44.5v-148q9 3 19 3q8 0 19.5 -3.5t19.5 -6.5l7 -4
q28 -70 28 -146q0 -124 -96 -272l43 -4v-154h-352zM168 285q0 -73 59 -223q58 2 89 2q30 0 90 -2q32 56 50 90.5t36.5 90t18.5 100.5q0 64 -29 115q-8 1 -13 1q-9 0 -9 -19q15 -55 15 -94q0 -27 -12 -48q-5 -2 -16.5 -7t-15.5 -7t-13 -6t-13 -6.5t-11 -6.5t-12 -8t-11.5 -10
t-12.5 -12q-18 0 -31 15q48 53 87 72v318q0 23 -16 23q-15 0 -15 -23l-2 -298q-27 -27 -55 -27q-18 0 -34 10q-21 -10 -36 -10q-21 0 -41 17q-15 -4 -23 -4q-13 0 -22 4q-2 -1 -2 -47zM344 355v148q-13 6 -19 6q-18 0 -18 -6l-4 -152q35 0 41 4zM276 353v140q-13 7 -19 7
q-14 0 -18 -7l-4 -142h17q22 0 24 2zM208 367v118q-17 6 -20 6q-6 0 -10.5 -10.5t-4.5 -25.5q0 -21 1 -31q0 -6 0.5 -17.5t0.5 -15.5v-23q4 -2 16 -2q15 0 17 1z" />
    <glyph glyph-name="uni261E" unicode="&#x261e;" horiz-adv-x="927" 
d="M166 42v352h154l4 -43q150 96 272 96q76 0 146 -28q14 -27 14 -46q0 -10 -3 -19h148q30 0 44.5 -14.5t14.5 -37.5q0 -21 -14 -36t-45 -15l-102 -1q6 -10 6 -21q0 -22 -21 -40q11 -11 11 -28q0 -23 -22 -40q15 -15 15 -31q0 -27 -18 -36.5t-51 -9.5q-44 0 -56 2
q-69 -10 -114 -10q-80 0 -225 56l-4 -50h-154zM607 415q-45 0 -100.5 -18.5t-90 -36.5t-90.5 -50q2 -60 2 -90q0 -31 -2 -89q149 -59 223 -59l47 2q-4 9 -4 22l4 23q-17 20 -17 41q0 7 2.5 16t4.5 14l3 6q-10 16 -10 34q0 28 27 55l298 2q23 0 23 15q0 16 -23 16h-318
q-19 -39 -72 -87q-15 14 -15 31q7 7 13 13.5t11.5 14.5t8.5 12t8 15t6.5 14t7.5 17.5t8 18.5q21 12 48 12q39 0 94 -15q19 0 19 9l-1 13q-51 29 -115 29zM767 248h-148q-4 -6 -4 -41l152 4q6 0 6 18zM757 180h-140q-2 -2 -2 -24v-17l142 4q7 4 7 18zM749 112h-118
q-1 -2 -1 -17q0 -12 2 -16h23q4 0 15.5 -0.5t17.5 -0.5q10 -1 31 -1q15 0 25.5 4.5t10.5 10.5z" />
    <glyph glyph-name="uni261F" unicode="&#x261f;" horiz-adv-x="536" 
d="M138 696h352v-154q-13 -2 -43 -4q96 -150 96 -272q0 -76 -28 -146q-27 -14 -46 -14q-10 0 -19 3v-148q0 -30 -14.5 -44.5t-37.5 -14.5q-21 0 -36 14t-15 45l-1 102q-10 -6 -21 -6q-22 0 -40 21q-11 -11 -28 -11q-23 0 -40 22q-15 -15 -31 -15q-27 0 -36.5 18t-9.5 51
q0 44 2 56q-10 69 -10 114q0 80 56 225q-34 2 -50 4v154zM406 535q-50 -2 -75 -2q-53 0 -104 3q-59 -150 -59 -223l2 -47q9 4 22 4l23 -4q20 17 41 17q7 0 16 -2.5t14 -4.5l6 -3q16 10 34 10q28 0 55 -27l2 -298q0 -23 15 -23q16 0 16 23v318q-39 19 -87 72q13 15 31 15
q7 -7 13.5 -13t14.5 -11.5t12 -8.5t15 -8t14 -6.5t17.5 -7.5t18.5 -8q12 -21 12 -48q0 -39 -15 -94q0 -19 9 -19l13 1q29 51 29 115q0 45 -18.5 100.5t-36 89t-50.5 90.5zM344 95v148q-6 4 -41 4l4 -152q0 -6 18 -6zM276 105v140q-2 2 -24 2h-17l4 -142q4 -7 18 -7zM208 113
v118q-2 1 -17 1q-12 0 -16 -2v-23q0 -4 -0.5 -15.5t-0.5 -17.5q-1 -10 -1 -31q0 -15 4.5 -25.5t10.5 -10.5z" />
    <glyph glyph-name="uni267E" unicode="&#x267e;" horiz-adv-x="632" 
d="M364 -7q-111 0 -189.5 77.5t-78.5 189.5t78 190.5t191 78.5q112 0 189.5 -78.5t77.5 -189.5q0 -112 -78.5 -190t-189.5 -78zM364 27q97 0 164.5 68t67.5 166t-66 165.5t-165 67.5q-100 0 -166.5 -68t-66.5 -166t66.5 -165.5t165.5 -67.5zM467 155q-35 0 -57.5 21
t-42.5 58q-14 -24 -25.5 -39t-31.5 -27.5t-44 -12.5q-40 0 -66 29t-26 79t27 79.5t66 29.5q33 0 55.5 -22.5t44.5 -63.5q23 41 46.5 63.5t58.5 22.5q38 0 63 -29t25 -78q0 -52 -26.5 -81t-66.5 -29zM472 341q-22 0 -40.5 -14t-26.5 -26.5t-24 -40.5q19 -36 38 -55.5
t48 -19.5q27 0 45 20.5t18 59.5q0 35 -15.5 55.5t-42.5 20.5zM266 185q19 0 36 12t26 25t24 38q-12 22 -17.5 31.5t-17 24t-24 20t-27.5 5.5q-27 0 -45 -19t-18 -58q0 -37 17.5 -58t45.5 -21z" />
    <glyph glyph-name="uni2713" unicode="&#x2713;" horiz-adv-x="623" 
d="M274 335l98 -163l219 421l85 -51l-306 -431l-172 155z" />
    <glyph glyph-name="uni301A" unicode="&#x301a;" horiz-adv-x="443" 
d="M178 -204v945h321v-43h-114v-859h114v-43h-321zM228 698v-859h107v859h-107z" />
    <glyph glyph-name="uni301B" unicode="&#x301b;" horiz-adv-x="443" 
d="M387 -204h-321v43h114v859h-114v43h321v-945zM337 -161v859h-107v-859h107z" />
    <glyph glyph-name="uniF8FF" unicode="&#xf8ff;" horiz-adv-x="1241" 
d="M771 338h-11v39h-19v-39h-11v70h11v-20h20v-10h10v-40zM361 377h-11v10h-10v11h11v-10h10v-11zM1101 387h-10v-10h-11v11h10v10h11v-11zM411 387h-10v-10h-11v11h10v10h11v-11zM1051 377h-11v10h-10v11h11v-10h10v-11zM471 338h-21v9h-10v30h-10v11h10v10h11v-10h20v-11
h-20v-29h20v-10zM711 338h-21v9h-10v30h-10v11h10v10h11v-10h20v-11h-20v-29h20v-10zM591 347h-10v-9h-20v-20h-11v70h31v-10h10v-31zM1181 377h-11v11h11v-11zM271 377h-11v11h11v-11zM1141 377h-11v11h11v-11zM311 377h-11v11h11v-11zM531 347h-10v-9h-10v-10h-10v-10h-11
v11h10v18h-10v41h11v-40h19v40h11v-41zM1011 338h-31v9h-10v31h10v10h21v-10h10v-21h-30v-9h30v-10zM951 338h-31v9h-10v41h11v-40h19v40h11v-50zM891 318h-11v20h-20v9h-10v31h10v10h31v-70zM831 338h-31v9h-10v31h10v10h21v-10h10v-21h-30v-9h30v-10zM651 347h-10v-9h-21
v9h-10v31h10v10h21v-10h10v-31zM1241 357h-10v-10h-11v10h-10v11h10v10h11v-10h10v-11zM1081 357h-10v-10h-11v10h-10v11h10v10h11v-10h10v-11zM391 357h-10v-10h-11v10h-10v11h10v10h11v-10h10v-11zM1171 357h-10v-10h-11v10h-10v11h10v10h11v-10h10v-11zM301 357h-10v-10
h-11v10h-10v11h10v10h11v-10h10v-11zM231 357h-10v-10h-11v10h-10v11h10v10h11v-10h10v-11zM1000 368v9h-19v-9h19zM880 348v29h-19v-29h19zM820 368v9h-19v-9h19zM640 348v29h-19v-29h19zM580 348v29h-19v-29h19zM1051 338h-10v-10h-11v10h10v10h11v-10zM1101 328h-11v10
h-10v10h11v-10h10v-10zM411 328h-11v10h-10v10h11v-10h10v-10zM1141 338h-11v10h11v-10zM361 338h-10v-10h-11v10h10v10h11v-10zM311 338h-11v10h11v-10zM1181 338h-11v10h11v-10zM271 338h-11v10h11v-10z" />
    <glyph glyph-name="uni0041.c2sc" horiz-adv-x="556" 
d="M14 45h51l183 431h-89v45h151l197 -476h54v-45h-191v45h79l-41 104h-244l-43 -104h83v-45h-190v45zM286 446l-104 -253h208l-100 253h-4z" />
    <glyph glyph-name="uni00C1.c2sc" horiz-adv-x="556" 
d="M454 680l-167 -108l-18 27l152 128zM14 45h51l183 431h-89v45h151l197 -476h54v-45h-191v45h79l-41 104h-244l-43 -104h83v-45h-190v45zM286 446l-104 -253h208l-100 253h-4z" />
    <glyph glyph-name="uni0102.c2sc" horiz-adv-x="556" 
d="M407 703q0 -118 -118 -118q-117 0 -117 118h47q0 -42 18 -60t53 -18q36 0 53 18.5t17 59.5h47zM14 45h51l183 431h-89v45h151l197 -476h54v-45h-191v45h79l-41 104h-244l-43 -104h83v-45h-190v45zM286 446l-104 -253h208l-100 253h-4z" />
    <glyph glyph-name="uni00C2.c2sc" horiz-adv-x="556" 
d="M413 601l-24 -30l-105 89l-98 -89l-23 27l118 118h15zM14 45h51l183 431h-89v45h151l197 -476h54v-45h-191v45h79l-41 104h-244l-43 -104h83v-45h-190v45zM286 446l-104 -253h208l-100 253h-4z" />
    <glyph glyph-name="uni00C4.c2sc" horiz-adv-x="556" 
d="M165 614v71h68v-71h-68zM333 614v71h68v-71h-68zM14 45h51l183 431h-89v45h151l197 -476h54v-45h-191v45h79l-41 104h-244l-43 -104h83v-45h-190v45zM286 446l-104 -253h208l-100 253h-4z" />
    <glyph glyph-name="uni00C0.c2sc" horiz-adv-x="556" 
d="M324 599l-18 -27l-167 108l33 47zM14 45h51l183 431h-89v45h151l197 -476h54v-45h-191v45h79l-41 104h-244l-43 -104h83v-45h-190v45zM286 446l-104 -253h208l-100 253h-4z" />
    <glyph glyph-name="uni0100.c2sc" horiz-adv-x="556" 
d="M397 623h-238v46h238v-46zM14 45h51l183 431h-89v45h151l197 -476h54v-45h-191v45h79l-41 104h-244l-43 -104h83v-45h-190v45zM286 446l-104 -253h208l-100 253h-4z" />
    <glyph glyph-name="uni0104.c2sc" horiz-adv-x="556" 
d="M370 45h79l-41 104h-244l-43 -104h83v-45h-190v45h51l183 431h-89v45h151l197 -476h54v-45h-52q-70 -40 -70 -104q0 -56 60 -56q30 0 54 15l8 -39q-36 -19 -73 -19q-44 0 -70.5 24t-26.5 64q0 73 72 115h4l-1 1l-1 -1h-2h-93v45zM286 446l-104 -253h208l-100 253h-4z
M521 6h-2v-1q1 0 1 0.5t1 0.5z" />
    <glyph glyph-name="uni00C5.c2sc" horiz-adv-x="556" 
d="M383 649q0 -42 -25.5 -67.5t-72.5 -25.5t-72 24.5t-25 67.5q0 41 26.5 66.5t71.5 25.5q48 0 72.5 -25t24.5 -66zM342 650q0 24 -14 39.5t-43 15.5q-27 0 -41.5 -16t-14.5 -41q0 -57 56 -57q28 0 42.5 16.5t14.5 42.5zM14 45h51l183 431h-89v45h151l197 -476h54v-45h-191
v45h79l-41 104h-244l-43 -104h83v-45h-190v45zM286 446l-104 -253h208l-100 253h-4z" />
    <glyph glyph-name="uni00C3.c2sc" horiz-adv-x="556" 
d="M419 697q-17 -83 -75 -83q-28 0 -67 19t-55 19q-39 0 -53 -43l-29 11q6 30 27.5 54.5t53.5 24.5q21 0 57.5 -18.5t62.5 -18.5q35 0 47 43zM14 45h51l183 431h-89v45h151l197 -476h54v-45h-191v45h79l-41 104h-244l-43 -104h83v-45h-190v45zM286 446l-104 -253h208
l-100 253h-4z" />
    <glyph glyph-name="uni00C6.c2sc" horiz-adv-x="788" 
d="M726 0h-403v45h69v104h-225l-53 -104h79v-45h-189v45h54l225 431h-85v45h528l18 -144l-47 -7l-20 106h-230v-189h261v-44h-261v-198h230l20 107l48 -5zM392 193v283h-57l-145 -283h202z" />
    <glyph glyph-name="uni01FC.c2sc" horiz-adv-x="789" 
d="M701 681l-167 -108l-18 27l152 128zM726 0h-403v45h69v104h-225l-53 -104h79v-45h-189v45h54l225 431h-85v45h528l18 -144l-47 -7l-20 106h-230v-189h261v-44h-261v-198h230l20 107l48 -5zM392 193v283h-57l-145 -283h202z" />
    <glyph glyph-name="uni01E2.c2sc" horiz-adv-x="789" 
d="M668 622h-238v46h238v-46zM726 0h-403v45h69v104h-225l-53 -104h79v-45h-189v45h54l225 431h-85v45h528l18 -144l-47 -7l-20 106h-230v-189h261v-44h-261v-198h230l20 107l48 -5zM392 193v283h-57l-145 -283h202z" />
    <glyph glyph-name="uni0042.c2sc" horiz-adv-x="521" 
d="M333 521q81 0 122 -33.5t41 -89.5q0 -45 -24.5 -75.5t-67.5 -39.5v-4q57 -9 86.5 -45t29.5 -87q0 -65 -47.5 -106t-135.5 -41h-251v45h70v431h-70v45h247zM323 291q52 0 83.5 24.5t31.5 72.5q0 88 -113 88h-114v-185h112zM329 45q61 0 96.5 25.5t35.5 78.5q0 47 -28 73.5
t-84 26.5h-138v-204h118z" />
    <glyph glyph-name="uni0043.c2sc" horiz-adv-x="540" 
d="M520 38q-74 -46 -178 -46q-109 0 -181.5 76.5t-72.5 190.5q0 113 73 191.5t182 78.5q113 0 174 -46l18 -117l-48 -6l-21 104q-43 20 -115 20q-91 0 -147.5 -63.5t-56.5 -160.5q0 -98 57.5 -160t147.5 -62q64 0 118 22l21 101l47 -6z" />
    <glyph glyph-name="uni0106.c2sc" horiz-adv-x="562" 
d="M472 680l-167 -108l-18 27l152 128zM520 38q-74 -46 -178 -46q-109 0 -181.5 76.5t-72.5 190.5q0 113 73 191.5t182 78.5q113 0 174 -46l18 -117l-48 -6l-21 104q-43 20 -115 20q-91 0 -147.5 -63.5t-56.5 -160.5q0 -98 57.5 -160t147.5 -62q64 0 118 22l21 101l47 -6z
" />
    <glyph glyph-name="uni010C.c2sc" horiz-adv-x="562" 
d="M477 690l-117 -117h-16l-117 115l24 30l104 -89l99 89zM520 38q-74 -46 -178 -46q-109 0 -181.5 76.5t-72.5 190.5q0 113 73 191.5t182 78.5q113 0 174 -46l18 -117l-48 -6l-21 104q-43 20 -115 20q-91 0 -147.5 -63.5t-56.5 -160.5q0 -98 57.5 -160t147.5 -62
q64 0 118 22l21 101l47 -6z" />
    <glyph glyph-name="uni00C7.c2sc" horiz-adv-x="562" 
d="M457 -133q0 -41 -28.5 -62t-73.5 -21q-57 0 -91 30l16 33q30 -23 73 -23q55 0 55 46q0 26 -17 35t-46 9h-28v80q-100 9 -164.5 83.5t-64.5 181.5q0 113 73 191.5t182 78.5q113 0 174 -46l18 -117l-48 -6l-21 104q-43 20 -115 20q-91 0 -147.5 -63.5t-56.5 -160.5
q0 -98 57.5 -160t147.5 -62q64 0 118 22l21 101l47 -6l-18 -117q-66 -41 -160 -45v-48h8q43 0 66 -21.5t23 -56.5z" />
    <glyph glyph-name="uni0108.c2sc" horiz-adv-x="562" 
d="M474 601l-24 -30l-105 89l-98 -89l-23 27l118 118h15zM520 38q-74 -46 -178 -46q-109 0 -181.5 76.5t-72.5 190.5q0 113 73 191.5t182 78.5q113 0 174 -46l18 -117l-48 -6l-21 104q-43 20 -115 20q-91 0 -147.5 -63.5t-56.5 -160.5q0 -98 57.5 -160t147.5 -62
q64 0 118 22l21 101l47 -6z" />
    <glyph glyph-name="uni010A.c2sc" horiz-adv-x="562" 
d="M319 610v79h62v-79h-62zM520 38q-74 -46 -178 -46q-109 0 -181.5 76.5t-72.5 190.5q0 113 73 191.5t182 78.5q113 0 174 -46l18 -117l-48 -6l-21 104q-43 20 -115 20q-91 0 -147.5 -63.5t-56.5 -160.5q0 -98 57.5 -160t147.5 -62q64 0 118 22l21 101l47 -6z" />
    <glyph glyph-name="uni0044.c2sc" horiz-adv-x="609" 
d="M330 521q131 0 205 -72t74 -188t-74.5 -188.5t-201.5 -72.5h-245v44h69v432h-69v45h242zM329 44q105 0 163 59t58 158q0 98 -58 156.5t-163 58.5h-117v-432h117z" />
    <glyph glyph-name="uni01F1.c2sc" horiz-adv-x="1112" 
d="M88 0v44h69v432h-69v45h242q131 0 205 -72t74 -188t-74.5 -188.5t-201.5 -72.5h-245zM1103 0h-411l-2 32l319 442v2h-253l-20 -110l-48 5l19 150h378l1 -30l-318 -444v-2h286l20 113l48 -6zM329 44q105 0 163 59t58 158q0 98 -58 156.5t-163 58.5h-117v-432h117z" />
    <glyph glyph-name="uni01C4.c2sc" horiz-adv-x="1112" 
d="M1032 690l-117 -117h-16l-117 115l24 30l104 -89l99 89zM330 521q131 0 205 -72t74 -188t-74.5 -188.5t-201.5 -72.5h-245v44h69v432h-69v45h242zM1103 0h-411l-2 32l319 442v2h-253l-20 -110l-48 5l19 150h378l1 -30l-318 -444v-2h286l20 113l48 -6zM329 44
q105 0 163 59t58 158q0 98 -58 156.5t-163 58.5h-117v-432h117z" />
    <glyph glyph-name="uni00D0.c2sc" horiz-adv-x="610" 
d="M93 291h66v185h-69v45h242q131 0 205 -72t74 -188t-74.5 -188.5t-201.5 -72.5h-245v44h69v205h-66v42zM331 44q105 0 163 59t58 158q0 98 -58 156.5t-163 58.5h-117v-185h116v-42h-116v-205h117z" />
    <glyph glyph-name="uni010E.c2sc" horiz-adv-x="609" 
d="M453 690l-117 -117h-16l-117 115l24 30l104 -89l99 89zM88 0v44h69v432h-69v45h242q131 0 205 -72t74 -188t-74.5 -188.5t-201.5 -72.5h-245zM329 44q105 0 163 59t58 158q0 98 -58 156.5t-163 58.5h-117v-432h117z" />
    <glyph glyph-name="uni0110.c2sc" horiz-adv-x="610" 
d="M93 291h66v185h-69v45h242q131 0 205 -72t74 -188t-74.5 -188.5t-201.5 -72.5h-245v44h69v205h-66v42zM331 44q105 0 163 59t58 158q0 98 -58 156.5t-163 58.5h-117v-185h116v-42h-116v-205h117z" />
    <glyph glyph-name="uni01F2.c2sc" horiz-adv-x="1112" 
d="M88 0v44h69v432h-69v45h242q131 0 205 -72t74 -188t-74.5 -188.5t-201.5 -72.5h-245zM1103 0h-411l-2 32l319 442v2h-253l-20 -110l-48 5l19 150h378l1 -30l-318 -444v-2h286l20 113l48 -6zM329 44q105 0 163 59t58 158q0 98 -58 156.5t-163 58.5h-117v-432h117z" />
    <glyph glyph-name="uni01C5.c2sc" horiz-adv-x="1112" 
d="M1032 690l-117 -117h-16l-117 115l24 30l104 -89l99 89zM330 521q131 0 205 -72t74 -188t-74.5 -188.5t-201.5 -72.5h-245v44h69v432h-69v45h242zM1103 0h-411l-2 32l319 442v2h-253l-20 -110l-48 5l19 150h378l1 -30l-318 -444v-2h286l20 113l48 -6zM329 44
q105 0 163 59t58 158q0 98 -58 156.5t-163 58.5h-117v-432h117z" />
    <glyph glyph-name="uni0045.c2sc" 
d="M488 0h-402v45h70v431h-70v45h402l19 -143l-47 -8l-20 106h-230v-189h261v-44h-261v-198h230l20 107l48 -6z" />
    <glyph glyph-name="uni00C9.c2sc" 
d="M465 680l-167 -108l-18 27l152 128zM488 0h-402v45h70v431h-70v45h402l19 -143l-47 -8l-20 106h-230v-189h261v-44h-261v-198h230l20 107l48 -6z" />
    <glyph glyph-name="uni0114.c2sc" 
d="M445 703q0 -118 -118 -118q-117 0 -117 118h47q0 -42 18 -60t53 -18q36 0 53 18.5t17 59.5h47zM488 0h-402v45h70v431h-70v45h402l19 -143l-47 -8l-20 106h-230v-189h261v-44h-261v-198h230l20 107l48 -6z" />
    <glyph glyph-name="uni011A.c2sc" 
d="M448 690l-117 -117h-16l-117 115l24 30l104 -89l99 89zM488 0h-402v45h70v431h-70v45h402l19 -143l-47 -8l-20 106h-230v-189h261v-44h-261v-198h230l20 107l48 -6z" />
    <glyph glyph-name="uni00CA.c2sc" 
d="M451 601l-24 -30l-105 89l-98 -89l-23 27l118 118h15zM488 0h-402v45h70v431h-70v45h402l19 -143l-47 -8l-20 106h-230v-189h261v-44h-261v-198h230l20 107l48 -6z" />
    <glyph glyph-name="uni00CB.c2sc" 
d="M213 614v71h68v-71h-68zM381 614v71h68v-71h-68zM488 0h-402v45h70v431h-70v45h402l19 -143l-47 -8l-20 106h-230v-189h261v-44h-261v-198h230l20 107l48 -6z" />
    <glyph glyph-name="uni0116.c2sc" 
d="M295 610v79h62v-79h-62zM488 0h-402v45h70v431h-70v45h402l19 -143l-47 -8l-20 106h-230v-189h261v-44h-261v-198h230l20 107l48 -6z" />
    <glyph glyph-name="uni00C8.c2sc" 
d="M393 599l-18 -27l-167 108l33 47zM488 0h-402v45h70v431h-70v45h402l19 -143l-47 -8l-20 106h-230v-189h261v-44h-261v-198h230l20 107l48 -6z" />
    <glyph glyph-name="uni0112.c2sc" 
d="M444 623h-238v46h238v-46zM488 0h-402v45h70v431h-70v45h402l19 -143l-47 -8l-20 106h-230v-189h261v-44h-261v-198h230l20 107l48 -6z" />
    <glyph glyph-name="uni0118.c2sc" 
d="M498 -183q-36 -19 -73 -19q-44 0 -70.5 24t-26.5 64q0 72 71 114h-313v45h70v431h-70v45h402l19 -143l-47 -8l-20 106h-230v-189h261v-44h-261v-198h230l20 107l48 -6l-20 -146h-44q-68 -40 -68 -103q0 -56 60 -56q30 0 54 15z" />
    <glyph glyph-name="uni1EBC.c2sc" 
d="M463 696q-17 -83 -75 -83q-28 0 -67 19t-55 19q-39 0 -53 -43l-29 11q6 30 27.5 54.5t53.5 24.5q21 0 57.5 -18.5t62.5 -18.5q35 0 47 43zM488 0h-402v45h70v431h-70v45h402l19 -143l-47 -8l-20 106h-230v-189h261v-44h-261v-198h230l20 107l48 -6z" />
    <glyph glyph-name="uni0046.c2sc" horiz-adv-x="484" 
d="M495 373l-49 -6l-16 109h-220v-211h253v-45h-253v-175h97v-45h-221v45h70v431h-70v45h393z" />
    <glyph glyph-name="uni0047.c2sc" horiz-adv-x="601" 
d="M517 73q-25 -36 -71.5 -58.5t-104.5 -22.5q-110 0 -181.5 77t-71.5 190q0 114 74 192t185 78q117 0 180 -50l18 -117l-48 -6l-21 101q-54 27 -126 27q-94 0 -148.5 -62.5t-54.5 -160.5q0 -100 55.5 -161.5t147.5 -61.5q72 0 116.5 37.5t46.5 87.5v58h-135v44h233v-44h-44
v-221h-46z" />
    <glyph glyph-name="uni011E.c2sc" horiz-adv-x="601" 
d="M476 705q0 -118 -118 -118q-117 0 -117 118h47q0 -42 18 -60t53 -18q36 0 53 18.5t17 59.5h47zM517 73q-25 -36 -71.5 -58.5t-104.5 -22.5q-110 0 -181.5 77t-71.5 190q0 114 74 192t185 78q117 0 180 -50l18 -117l-48 -6l-21 101q-54 27 -126 27q-94 0 -148.5 -62.5
t-54.5 -160.5q0 -100 55.5 -161.5t147.5 -61.5q72 0 116.5 37.5t46.5 87.5v58h-135v44h233v-44h-44v-221h-46z" />
    <glyph glyph-name="uni011C.c2sc" horiz-adv-x="601" 
d="M480 601l-24 -30l-105 89l-98 -89l-23 27l118 118h15zM517 73q-25 -36 -71.5 -58.5t-104.5 -22.5q-110 0 -181.5 77t-71.5 190q0 114 74 192t185 78q117 0 180 -50l18 -117l-48 -6l-21 101q-54 27 -126 27q-94 0 -148.5 -62.5t-54.5 -160.5q0 -100 55.5 -161.5
t147.5 -61.5q72 0 116.5 37.5t46.5 87.5v58h-135v44h233v-44h-44v-221h-46z" />
    <glyph glyph-name="uni0122.c2sc" horiz-adv-x="600" 
d="M517 73q-25 -36 -71.5 -58.5t-104.5 -22.5q-110 0 -181.5 77t-71.5 190q0 114 74 192t185 78q117 0 180 -50l18 -117l-48 -6l-21 101q-54 27 -126 27q-94 0 -148.5 -62.5t-54.5 -160.5q0 -100 55.5 -161.5t147.5 -61.5q72 0 116.5 37.5t46.5 87.5v58h-135v44h233v-44h-44
v-221h-46zM382 -66l-16 -153h-46l10 153h52z" />
    <glyph glyph-name="uni0120.c2sc" horiz-adv-x="601" 
d="M327 610v79h62v-79h-62zM517 73q-25 -36 -71.5 -58.5t-104.5 -22.5q-110 0 -181.5 77t-71.5 190q0 114 74 192t185 78q117 0 180 -50l18 -117l-48 -6l-21 101q-54 27 -126 27q-94 0 -148.5 -62.5t-54.5 -160.5q0 -100 55.5 -161.5t147.5 -61.5q72 0 116.5 37.5t46.5 87.5
v58h-135v44h233v-44h-44v-221h-46z" />
    <glyph glyph-name="uni0048.c2sc" horiz-adv-x="647" 
d="M86 45h70v431h-70v45h194v-45h-69v-188h311v188h-70v45h195v-45h-70v-431h70v-45h-195v45h70v199h-311v-199h69v-45h-194v45z" />
    <glyph glyph-name="uni0126.c2sc" horiz-adv-x="648" 
d="M452 45h70v199h-311v-199h69v-45h-194v45h70v331h-65v34h65v66h-70v45h194v-45h-69v-66h311v66h-70v45h195v-45h-70v-66h65v-34h-65v-331h70v-45h-195v45zM211 288h311v88h-311v-88z" />
    <glyph glyph-name="uni0124.c2sc" horiz-adv-x="647" 
d="M495 601l-24 -30l-105 89l-98 -89l-23 27l118 118h15zM86 45h70v431h-70v45h194v-45h-69v-188h311v188h-70v45h195v-45h-70v-431h70v-45h-195v45h70v199h-311v-199h69v-45h-194v45z" />
    <glyph glyph-name="uni0049.c2sc" horiz-adv-x="280" 
d="M86 45h70v431h-70v45h194v-45h-69v-431h69v-45h-194v45z" />
    <glyph glyph-name="uni0132.c2sc" horiz-adv-x="676" 
d="M453 521h227v-45h-62v-345q0 -69 -36 -104t-102 -35q-92 0 -132 76l40 28q32 -56 89 -56q86 0 86 91v345h-110v45zM86 45h70v431h-70v45h194v-45h-69v-431h69v-45h-194v45z" />
    <glyph glyph-name="uni00CD.c2sc" horiz-adv-x="281" 
d="M313 680l-167 -108l-18 27l152 128zM86 45h70v431h-70v45h194v-45h-69v-431h69v-45h-194v45z" />
    <glyph glyph-name="uni012C.c2sc" horiz-adv-x="281" 
d="M285 703q0 -118 -118 -118q-117 0 -117 118h47q0 -42 18 -60t53 -18q36 0 53 18.5t17 59.5h47zM68 45h70v431h-70v45h194v-45h-69v-431h69v-45h-194v45z" />
    <glyph glyph-name="uni00CE.c2sc" horiz-adv-x="281" 
d="M284 601l-24 -30l-105 89l-98 -89l-23 27l118 118h15zM60 45h70v431h-70v45h194v-45h-69v-431h69v-45h-194v45z" />
    <glyph glyph-name="uni00CF.c2sc" horiz-adv-x="281" 
d="M218 614v71h68v-71h-68zM50 614v71h68v-71h-68zM68 45h70v431h-70v45h194v-45h-69v-431h69v-45h-194v45z" />
    <glyph glyph-name="uni0130.c2sc" horiz-adv-x="281" 
d="M150 610v79h62v-79h-62zM86 45h70v431h-70v45h194v-45h-69v-431h69v-45h-194v45z" />
    <glyph glyph-name="uni00CC.c2sc" horiz-adv-x="281" 
d="M225 599l-18 -27l-167 108l33 47zM63 45h70v431h-70v45h194v-45h-69v-431h69v-45h-194v45z" />
    <glyph glyph-name="uni012A.c2sc" horiz-adv-x="281" 
d="M284 623h-238v46h238v-46zM66 45h70v431h-70v45h194v-45h-69v-431h69v-45h-194v45z" />
    <glyph glyph-name="uni012E.c2sc" horiz-adv-x="280" 
d="M223 6l-12 1v-7q-70 -40 -70 -104q0 -56 60 -56q30 0 54 15l8 -39q-36 -19 -73 -19q-44 0 -70.5 24t-26.5 64q0 73 72 115h-79v45h70v431h-70v45h194v-45h-69v-431h69v-45h-69z" />
    <glyph glyph-name="uni0128.c2sc" horiz-adv-x="281" 
d="M283 696q-17 -83 -75 -83q-28 0 -67 19t-55 19q-39 0 -53 -43l-29 11q6 30 27.5 54.5t53.5 24.5q21 0 57.5 -18.5t62.5 -18.5q35 0 47 43zM45 45h70v431h-70v45h194v-45h-69v-431h69v-45h-194v45z" />
    <glyph glyph-name="uni004A.c2sc" horiz-adv-x="396" 
d="M155 521h227v-45h-62v-345q0 -69 -36 -104t-102 -35q-92 0 -132 76l40 28q32 -56 89 -56q86 0 86 91v345h-110v45z" />
    <glyph glyph-name="uni0134.c2sc" horiz-adv-x="396" 
d="M402 600l-24 -30l-105 89l-98 -89l-23 27l118 118h15zM155 521h227v-45h-62v-345q0 -69 -36 -104t-102 -35q-92 0 -132 76l40 28q32 -56 89 -56q86 0 86 91v345h-110v45z" />
    <glyph glyph-name="uni004B.c2sc" horiz-adv-x="552" 
d="M389 45h64l-153 199h-89v-199h65v-45h-190v45h70v431h-70v45h191v-45h-66v-188h92l145 189h-67v45h189v-45h-62l-162 -208l172 -224h62v-45h-191v45z" />
    <glyph glyph-name="uni0136.c2sc" horiz-adv-x="552" 
d="M389 45h64l-153 199h-89v-199h65v-45h-190v45h70v431h-70v45h191v-45h-66v-188h92l145 189h-67v45h189v-45h-62l-162 -208l172 -224h62v-45h-191v45zM362 -66l-16 -153h-46l10 153h52z" />
    <glyph glyph-name="uni004C.c2sc" horiz-adv-x="472" 
d="M476 0h-390v45h70v431h-70v45h216v-45h-92v-431h217l20 122l48 -5z" />
    <glyph glyph-name="uni01C7.c2sc" horiz-adv-x="868" 
d="M476 0h-390v45h70v431h-70v45h216v-45h-92v-431h217l20 122l48 -5zM644 521h227v-45h-62v-345q0 -69 -36 -104t-102 -35q-92 0 -132 76l40 28q32 -56 89 -56q86 0 86 91v345h-110v45z" />
    <glyph glyph-name="uni0139.c2sc" horiz-adv-x="472" 
d="M324 680l-167 -108l-18 27l152 128zM476 0h-390v45h70v431h-70v45h216v-45h-92v-431h217l20 122l48 -5z" />
    <glyph glyph-name="uni013D.c2sc" horiz-adv-x="473" 
d="M425 548l-17 -202h-42l12 202h47zM476 0h-390v45h70v431h-70v45h216v-45h-92v-431h217l20 122l48 -5z" />
    <glyph glyph-name="uni013B.c2sc" horiz-adv-x="472" 
d="M476 0h-390v45h70v431h-70v45h216v-45h-92v-431h217l20 122l48 -5zM354 -66l-16 -153h-46l10 153h52z" />
    <glyph glyph-name="uni013F.c2sc" horiz-adv-x="475" 
d="M476 0h-390v45h70v431h-70v45h216v-45h-92v-431h217l20 122l48 -5zM343 234v86h82v-86h-82z" />
    <glyph glyph-name="uni01C8.c2sc" horiz-adv-x="868" 
d="M476 0h-390v45h70v431h-70v45h216v-45h-92v-431h217l20 122l48 -5zM644 521h227v-45h-62v-345q0 -69 -36 -104t-102 -35q-92 0 -132 76l40 28q32 -56 89 -56q86 0 86 91v345h-110v45z" />
    <glyph glyph-name="uni0141.c2sc" horiz-adv-x="473" 
d="M478 0h-390v45h70v169l-69 -26v43l69 26v219h-70v45h216v-45h-92v-198l133 52v-43l-133 -52v-190h217l20 122l48 -5z" />
    <glyph glyph-name="uni004D.c2sc" horiz-adv-x="752" 
d="M83 45h70v431h-73v45h121l216 -419h3l210 419h121v-45h-72v-431h69v-45h-191v45h67v351h-3l-189 -372h-32l-191 373h-4v-352h68v-45h-190v45z" />
    <glyph glyph-name="uni004E.c2sc" horiz-adv-x="631" 
d="M430 521h205v-45h-70v-476h-36l-320 419h-4v-374h89v-45h-206v45h65v431h-73v45h113l316 -413h3v368h-82v45z" />
    <glyph glyph-name="uni01CA.c2sc" horiz-adv-x="1027" 
d="M430 521h205v-45h-70v-476h-36l-320 419h-4v-374h89v-45h-206v45h65v431h-73v45h113l316 -413h3v368h-82v45zM801 521h227v-45h-62v-345q0 -69 -36 -104t-102 -35q-92 0 -132 76l40 28q32 -56 89 -56q86 0 86 91v345h-110v45z" />
    <glyph glyph-name="uni0143.c2sc" horiz-adv-x="631" 
d="M487 680l-167 -108l-18 27l152 128zM430 521h205v-45h-70v-476h-36l-320 419h-4v-374h89v-45h-206v45h65v431h-73v45h113l316 -413h3v368h-82v45z" />
    <glyph glyph-name="uni0147.c2sc" horiz-adv-x="631" 
d="M485 690l-117 -117h-16l-117 115l24 30l104 -89l99 89zM430 521h205v-45h-70v-476h-36l-320 419h-4v-374h89v-45h-206v45h65v431h-73v45h113l316 -413h3v368h-82v45z" />
    <glyph glyph-name="uni0145.c2sc" horiz-adv-x="631" 
d="M430 521h205v-45h-70v-476h-36l-320 419h-4v-374h89v-45h-206v45h65v431h-73v45h113l316 -413h3v368h-82v45zM396 -66l-16 -153h-46l10 153h52z" />
    <glyph glyph-name="uni1E46.c2sc" horiz-adv-x="631" 
d="M430 521h205v-45h-70v-476h-36l-320 419h-4v-374h89v-45h-206v45h65v431h-73v45h113l316 -413h3v368h-82v45zM336 -168v79h62v-79h-62z" />
    <glyph glyph-name="uni014A.c2sc" horiz-adv-x="630" 
d="M88 45h65v431h-73v45h113l316 -413h3v368h-82v45h205v-45h-70v-476h-1v-36q0 -69 -36 -104.5t-102 -35.5q-93 0 -132 77l40 27q32 -56 88 -56q87 0 87 92v62l-300 393h-4v-374h89v-45h-206v45z" />
    <glyph glyph-name="uni01CB.c2sc" horiz-adv-x="1027" 
d="M430 521h205v-45h-70v-476h-36l-320 419h-4v-374h89v-45h-206v45h65v431h-73v45h113l316 -413h3v368h-82v45zM801 521h227v-45h-62v-345q0 -69 -36 -104t-102 -35q-92 0 -132 76l40 28q32 -56 89 -56q86 0 86 91v345h-110v45z" />
    <glyph glyph-name="uni00D1.c2sc" horiz-adv-x="631" 
d="M497 696q-17 -83 -75 -83q-28 0 -67 19t-55 19q-39 0 -53 -43l-29 11q6 30 27.5 54.5t53.5 24.5q21 0 57.5 -18.5t62.5 -18.5q35 0 47 43zM430 521h205v-45h-70v-476h-36l-320 419h-4v-374h89v-45h-206v45h65v431h-73v45h113l316 -413h3v368h-82v45z" />
    <glyph glyph-name="uni004F.c2sc" horiz-adv-x="632" 
d="M360 529q119 0 195.5 -77.5t76.5 -190.5t-76.5 -191t-196.5 -78t-195.5 77.5t-75.5 190.5q0 114 76.5 191.5t195.5 77.5zM360 38q96 0 155 63t59 158q0 97 -59.5 161t-154.5 64q-96 0 -155 -64t-59 -159q0 -94 58.5 -158.5t155.5 -64.5z" />
    <glyph glyph-name="uni00D3.c2sc" horiz-adv-x="632" 
d="M509 682l-167 -108l-18 27l152 128zM360 529q119 0 195.5 -77.5t76.5 -190.5t-76.5 -191t-196.5 -78t-195.5 77.5t-75.5 190.5q0 114 76.5 191.5t195.5 77.5zM360 38q96 0 155 63t59 158q0 97 -59.5 161t-154.5 64q-96 0 -155 -64t-59 -159q0 -94 58.5 -158.5
t155.5 -64.5z" />
    <glyph glyph-name="uni014E.c2sc" horiz-adv-x="632" 
d="M480 703q0 -118 -118 -118q-117 0 -117 118h47q0 -42 18 -60t53 -18q36 0 53 18.5t17 59.5h47zM360 529q119 0 195.5 -77.5t76.5 -190.5t-76.5 -191t-196.5 -78t-195.5 77.5t-75.5 190.5q0 114 76.5 191.5t195.5 77.5zM360 38q96 0 155 63t59 158q0 97 -59.5 161
t-154.5 64q-96 0 -155 -64t-59 -159q0 -94 58.5 -158.5t155.5 -64.5z" />
    <glyph glyph-name="uni00D4.c2sc" horiz-adv-x="632" 
d="M493 601l-24 -30l-105 89l-98 -89l-23 27l118 118h15zM360 529q119 0 195.5 -77.5t76.5 -190.5t-76.5 -191t-196.5 -78t-195.5 77.5t-75.5 190.5q0 114 76.5 191.5t195.5 77.5zM360 38q96 0 155 63t59 158q0 97 -59.5 161t-154.5 64q-96 0 -155 -64t-59 -159
q0 -94 58.5 -158.5t155.5 -64.5z" />
    <glyph glyph-name="uni00D6.c2sc" horiz-adv-x="632" 
d="M251 614v71h68v-71h-68zM419 614v71h68v-71h-68zM360 529q119 0 195.5 -77.5t76.5 -190.5t-76.5 -191t-196.5 -78t-195.5 77.5t-75.5 190.5q0 114 76.5 191.5t195.5 77.5zM360 38q96 0 155 63t59 158q0 97 -59.5 161t-154.5 64q-96 0 -155 -64t-59 -159
q0 -94 58.5 -158.5t155.5 -64.5z" />
    <glyph glyph-name="uni00D2.c2sc" horiz-adv-x="632" 
d="M433 599l-18 -27l-167 108l33 47zM360 529q119 0 195.5 -77.5t76.5 -190.5t-76.5 -191t-196.5 -78t-195.5 77.5t-75.5 190.5q0 114 76.5 191.5t195.5 77.5zM360 38q96 0 155 63t59 158q0 97 -59.5 161t-154.5 64q-96 0 -155 -64t-59 -159q0 -94 58.5 -158.5t155.5 -64.5z
" />
    <glyph glyph-name="uni0150.c2sc" horiz-adv-x="632" 
d="M417 732l-120 -160l-26 19l99 173zM570 681l-167 -108l-18 27l152 128zM360 529q119 0 195.5 -77.5t76.5 -190.5t-76.5 -191t-196.5 -78t-195.5 77.5t-75.5 190.5q0 114 76.5 191.5t195.5 77.5zM360 38q96 0 155 63t59 158q0 97 -59.5 161t-154.5 64q-96 0 -155 -64
t-59 -159q0 -94 58.5 -158.5t155.5 -64.5z" />
    <glyph glyph-name="uni014C.c2sc" horiz-adv-x="632" 
d="M484 623h-238v46h238v-46zM360 529q119 0 195.5 -77.5t76.5 -190.5t-76.5 -191t-196.5 -78t-195.5 77.5t-75.5 190.5q0 114 76.5 191.5t195.5 77.5zM360 38q96 0 155 63t59 158q0 97 -59.5 161t-154.5 64q-96 0 -155 -64t-59 -159q0 -94 58.5 -158.5t155.5 -64.5z" />
    <glyph glyph-name="uni00D8.c2sc" horiz-adv-x="636" 
d="M364 529q99 0 172 -57l46 49h56l-72 -76q70 -76 70 -184q0 -113 -76.5 -191t-196.5 -78q-102 0 -173 57l-46 -49h-52l70 75q-70 75 -70 185q0 114 76.5 191.5t195.5 77.5zM150 261q0 -87 49 -147l303 322q-58 48 -138 48q-96 0 -155 -64t-59 -159zM364 38q96 0 155 63
t59 158q0 88 -48 148l-305 -321q58 -48 139 -48z" />
    <glyph glyph-name="uni01FE.c2sc" horiz-adv-x="636" 
d="M524 680l-167 -108l-18 27l152 128zM364 529q99 0 172 -57l46 49h56l-72 -76q70 -76 70 -184q0 -113 -76.5 -191t-196.5 -78q-102 0 -173 57l-46 -49h-52l70 75q-70 75 -70 185q0 114 76.5 191.5t195.5 77.5zM150 261q0 -87 49 -147l303 322q-58 48 -138 48
q-96 0 -155 -64t-59 -159zM364 38q96 0 155 63t59 158q0 88 -48 148l-305 -321q58 -48 139 -48z" />
    <glyph glyph-name="uni00D5.c2sc" horiz-adv-x="632" 
d="M502 696q-17 -83 -75 -83q-28 0 -67 19t-55 19q-39 0 -53 -43l-29 11q6 30 27.5 54.5t53.5 24.5q21 0 57.5 -18.5t62.5 -18.5q35 0 47 43zM360 529q119 0 195.5 -77.5t76.5 -190.5t-76.5 -191t-196.5 -78t-195.5 77.5t-75.5 190.5q0 114 76.5 191.5t195.5 77.5zM360 38
q96 0 155 63t59 158q0 97 -59.5 161t-154.5 64q-96 0 -155 -64t-59 -159q0 -94 58.5 -158.5t155.5 -64.5z" />
    <glyph glyph-name="uni0152.c2sc" horiz-adv-x="857" 
d="M835 0h-333v31q-63 -39 -143 -39q-119 0 -196 78t-77 191t77.5 190.5t195.5 77.5q78 0 143 -39v31h333l19 -144l-49 -7l-20 106h-228v-189h260v-44h-260v-198h228l20 107l49 -6zM502 87v348q-60 49 -142 49q-97 0 -156.5 -63.5t-59.5 -158.5q0 -94 59 -159t158 -65
q90 0 141 49z" />
    <glyph glyph-name="uni0050.c2sc" horiz-adv-x="495" 
d="M86 45h70v431h-70v45h229q95 0 141 -44.5t46 -114.5q0 -77 -50 -120.5t-132 -43.5h-109v-153h94v-45h-219v45zM313 242q62 0 96.5 31t34.5 88q0 115 -133 115h-100v-234h102z" />
    <glyph glyph-name="uni00DE.c2sc" horiz-adv-x="493" 
d="M86 45h70v431h-70v45h194v-45h-69v-53h107q96 0 142 -42t46 -108q0 -77 -49.5 -117.5t-133.5 -40.5h-112v-70h69v-45h-194v45zM317 151q62 0 96.5 31t34.5 89q0 54 -33.5 84.5t-99.5 30.5h-104v-235h106z" />
    <glyph glyph-name="uni0051.c2sc" horiz-adv-x="637" 
d="M360 529q119 0 195.5 -77.5t76.5 -190.5q0 -118 -80 -195l65 -62l-33 -31l-68 65q-68 -46 -157 -46q-120 0 -195.5 77.5t-75.5 190.5q0 114 76.5 191.5t195.5 77.5zM377 172l32 32l106 -103q59 62 59 158q0 97 -59.5 161t-154.5 64q-96 0 -155 -64t-59 -159
q0 -94 58.5 -158.5t155.5 -64.5q70 0 121 34z" />
    <glyph glyph-name="uni0052.c2sc" horiz-adv-x="531" 
d="M86 45h70v431h-70v45h234q96 0 141.5 -40t45.5 -105q0 -62 -35 -98.5t-85 -47.5l102 -185h68v-45h-105l-119 222q-3 -1 -10 -1h-112v-176h75v-45h-200v45zM315 264q134 0 134 110q0 53 -32.5 77.5t-102.5 24.5h-103v-212h104z" />
    <glyph glyph-name="uni0154.c2sc" horiz-adv-x="531" 
d="M449 680l-167 -108l-18 27l152 128zM86 45h70v431h-70v45h234q96 0 141.5 -40t45.5 -105q0 -62 -35 -98.5t-85 -47.5l102 -185h68v-45h-105l-119 222q-3 -1 -10 -1h-112v-176h75v-45h-200v45zM315 264q134 0 134 110q0 53 -32.5 77.5t-102.5 24.5h-103v-212h104z" />
    <glyph glyph-name="uni0158.c2sc" horiz-adv-x="531" 
d="M429 690l-117 -117h-16l-117 115l24 30l104 -89l99 89zM86 45h70v431h-70v45h234q96 0 141.5 -40t45.5 -105q0 -62 -35 -98.5t-85 -47.5l102 -185h68v-45h-105l-119 222q-3 -1 -10 -1h-112v-176h75v-45h-200v45zM315 264q134 0 134 110q0 53 -32.5 77.5t-102.5 24.5h-103
v-212h104z" />
    <glyph glyph-name="uni0156.c2sc" horiz-adv-x="531" 
d="M86 45h70v431h-70v45h234q96 0 141.5 -40t45.5 -105q0 -62 -35 -98.5t-85 -47.5l102 -185h68v-45h-105l-119 222q-3 -1 -10 -1h-112v-176h75v-45h-200v45zM315 264q134 0 134 110q0 53 -32.5 77.5t-102.5 24.5h-103v-212h104zM377 -66l-16 -153h-46l10 153h52z" />
    <glyph glyph-name="uni0053.c2sc" horiz-adv-x="464" 
d="M467 144q0 -71 -48 -111.5t-127 -40.5q-112 0 -190 49l17 109l47 -4l-9 -77q67 -31 128 -31q56 0 90 25t34 76q0 28 -10 47.5t-33 32t-42 18.5t-55 15q-38 8 -59.5 15t-49 21.5t-40.5 39.5t-13 60q0 67 47 104t121 37q101 0 169 -47l5 -112l-46 -3l-11 88q-46 30 -110 30
q-55 0 -86 -24t-31 -67q0 -20 7.5 -35t16.5 -24t29 -16.5t32.5 -11t39.5 -9.5q32 -7 47.5 -11t45 -16.5t44.5 -26.5t27.5 -40.5t12.5 -59.5z" />
    <glyph glyph-name="uni015A.c2sc" horiz-adv-x="464" 
d="M421 679l-167 -108l-18 27l152 128zM467 144q0 -71 -48 -111.5t-127 -40.5q-112 0 -190 49l17 109l47 -4l-9 -77q67 -31 128 -31q56 0 90 25t34 76q0 28 -10 47.5t-33 32t-42 18.5t-55 15q-38 8 -59.5 15t-49 21.5t-40.5 39.5t-13 60q0 67 47 104t121 37q101 0 169 -47
l5 -112l-46 -3l-11 88q-46 30 -110 30q-55 0 -86 -24t-31 -67q0 -20 7.5 -35t16.5 -24t29 -16.5t32.5 -11t39.5 -9.5q32 -7 47.5 -11t45 -16.5t44.5 -26.5t27.5 -40.5t12.5 -59.5z" />
    <glyph glyph-name="uni0160.c2sc" horiz-adv-x="464" 
d="M416 690l-117 -117h-16l-117 115l24 30l104 -89l99 89zM467 144q0 -71 -48 -111.5t-127 -40.5q-112 0 -190 49l17 109l47 -4l-9 -77q67 -31 128 -31q56 0 90 25t34 76q0 28 -10 47.5t-33 32t-42 18.5t-55 15q-38 8 -59.5 15t-49 21.5t-40.5 39.5t-13 60q0 67 47 104
t121 37q101 0 169 -47l5 -112l-46 -3l-11 88q-46 30 -110 30q-55 0 -86 -24t-31 -67q0 -20 7.5 -35t16.5 -24t29 -16.5t32.5 -11t39.5 -9.5q32 -7 47.5 -11t45 -16.5t44.5 -26.5t27.5 -40.5t12.5 -59.5z" />
    <glyph glyph-name="uni015E.c2sc" horiz-adv-x="464" 
d="M405 -130q0 -41 -28.5 -62t-73.5 -21q-57 0 -91 30l16 33q30 -23 73 -23q55 0 55 46q0 26 -17 35t-46 9h-28v76q-99 7 -163 48l17 109l47 -4l-9 -77q67 -31 128 -31q56 0 90 25t34 76q0 28 -10 47.5t-33 32t-42 18.5t-55 15q-38 8 -59.5 15t-49 21.5t-40.5 39.5t-13 60
q0 67 47 104t121 37q101 0 169 -47l5 -112l-46 -3l-11 88q-46 30 -110 30q-55 0 -86 -24t-31 -67q0 -20 7.5 -35t16.5 -24t29 -16.5t32.5 -11t39.5 -9.5q32 -7 47.5 -11t45 -16.5t44.5 -26.5t27.5 -40.5t12.5 -59.5q0 -68 -43.5 -107.5t-115.5 -43.5v-45h8q43 0 66 -21.5
t23 -56.5z" />
    <glyph glyph-name="uni015C.c2sc" horiz-adv-x="464" 
d="M413 601l-24 -30l-105 89l-98 -89l-23 27l118 118h15zM467 144q0 -71 -48 -111.5t-127 -40.5q-112 0 -190 49l17 109l47 -4l-9 -77q67 -31 128 -31q56 0 90 25t34 76q0 28 -10 47.5t-33 32t-42 18.5t-55 15q-38 8 -59.5 15t-49 21.5t-40.5 39.5t-13 60q0 67 47 104
t121 37q101 0 169 -47l5 -112l-46 -3l-11 88q-46 30 -110 30q-55 0 -86 -24t-31 -67q0 -20 7.5 -35t16.5 -24t29 -16.5t32.5 -11t39.5 -9.5q32 -7 47.5 -11t45 -16.5t44.5 -26.5t27.5 -40.5t12.5 -59.5z" />
    <glyph glyph-name="uni0218.c2sc" horiz-adv-x="464" 
d="M467 144q0 -71 -48 -111.5t-127 -40.5q-112 0 -190 49l17 109l47 -4l-9 -77q67 -31 128 -31q56 0 90 25t34 76q0 28 -10 47.5t-33 32t-42 18.5t-55 15q-38 8 -59.5 15t-49 21.5t-40.5 39.5t-13 60q0 67 47 104t121 37q101 0 169 -47l5 -112l-46 -3l-11 88q-46 30 -110 30
q-55 0 -86 -24t-31 -67q0 -20 7.5 -35t16.5 -24t29 -16.5t32.5 -11t39.5 -9.5q32 -7 47.5 -11t45 -16.5t44.5 -26.5t27.5 -40.5t12.5 -59.5zM321 -66l-16 -153h-46l10 153h52z" />
    <glyph glyph-name="uni1E62.c2sc" horiz-adv-x="464" 
d="M467 144q0 -71 -48 -111.5t-127 -40.5q-112 0 -190 49l17 109l47 -4l-9 -77q67 -31 128 -31q56 0 90 25t34 76q0 28 -10 47.5t-33 32t-42 18.5t-55 15q-38 8 -59.5 15t-49 21.5t-40.5 39.5t-13 60q0 67 47 104t121 37q101 0 169 -47l5 -112l-46 -3l-11 88q-46 30 -110 30
q-55 0 -86 -24t-31 -67q0 -20 7.5 -35t16.5 -24t29 -16.5t32.5 -11t39.5 -9.5q32 -7 47.5 -11t45 -16.5t44.5 -26.5t27.5 -40.5t12.5 -59.5zM251 -168v79h62v-79h-62z" />
    <glyph glyph-name="uni018F.c2sc" horiz-adv-x="592" 
d="M156 372l-47 8l10 97q29 20 85 36t119 16q92 0 155 -38.5t90 -97.5t27 -132q0 -115 -67 -192t-192 -77q-111 0 -176.5 63.5t-65.5 172.5v43h442q-4 99 -58 156t-155 57q-84 0 -154 -37zM153 228q0 -83 45.5 -136.5t139.5 -53.5q95 0 143 54t54 141h-382v-5z" />
    <glyph glyph-name="uni0054.c2sc" horiz-adv-x="537" 
d="M537 368l-50 -6l-20 114h-146v-431h96v-45h-247v45h96v431h-148l-20 -114l-50 6l20 153h449z" />
    <glyph glyph-name="uni0166.c2sc" horiz-adv-x="539" 
d="M539 368l-50 -6l-20 114h-146v-217h130v-35h-130v-179h96v-45h-247v45h96v179h-128v35h128v217h-148l-20 -114l-50 6l20 153h449z" />
    <glyph glyph-name="uni0164.c2sc" horiz-adv-x="537" 
d="M417 690l-117 -117h-16l-117 115l24 30l104 -89l99 89zM537 368l-50 -6l-20 114h-146v-431h96v-45h-247v45h96v431h-148l-20 -114l-50 6l20 153h449z" />
    <glyph glyph-name="uni0162.c2sc" horiz-adv-x="537" 
d="M537 368l-50 -6l-20 114h-146v-431h96v-45h-247v45h96v431h-148l-20 -114l-50 6l20 153h449zM320 -66l-16 -153h-46l10 153h52z" />
    <glyph glyph-name="uni021A.c2sc" horiz-adv-x="537" 
d="M537 368l-50 -6l-20 114h-146v-431h96v-45h-247v45h96v431h-148l-20 -114l-50 6l20 153h449zM320 -66l-16 -153h-46l10 153h52z" />
    <glyph glyph-name="uni0055.c2sc" horiz-adv-x="616" 
d="M430 521h185v-45h-54v-262q0 -45 -10.5 -82t-34 -70t-67.5 -51.5t-105 -18.5q-112 0 -161.5 59.5t-49.5 153.5v271h-57v45h189v-45h-77v-270q0 -82 40 -125t119 -43q162 0 162 176v262h-79v45z" />
    <glyph glyph-name="uni00DA.c2sc" horiz-adv-x="616" 
d="M505 680l-167 -108l-18 27l152 128zM430 521h185v-45h-54v-262q0 -45 -10.5 -82t-34 -70t-67.5 -51.5t-105 -18.5q-112 0 -161.5 59.5t-49.5 153.5v271h-57v45h189v-45h-77v-270q0 -82 40 -125t119 -43q162 0 162 176v262h-79v45z" />
    <glyph glyph-name="uni016C.c2sc" horiz-adv-x="616" 
d="M469 703q0 -118 -118 -118q-117 0 -117 118h47q0 -42 18 -60t53 -18q36 0 53 18.5t17 59.5h47zM430 521h185v-45h-54v-262q0 -45 -10.5 -82t-34 -70t-67.5 -51.5t-105 -18.5q-112 0 -161.5 59.5t-49.5 153.5v271h-57v45h189v-45h-77v-270q0 -82 40 -125t119 -43
q162 0 162 176v262h-79v45z" />
    <glyph glyph-name="uni01D3.c2sc" horiz-adv-x="616" 
d="M475 690l-117 -117h-16l-117 115l24 30l104 -89l99 89zM430 521h185v-45h-54v-262q0 -45 -10.5 -82t-34 -70t-67.5 -51.5t-105 -18.5q-112 0 -161.5 59.5t-49.5 153.5v271h-57v45h189v-45h-77v-270q0 -82 40 -125t119 -43q162 0 162 176v262h-79v45z" />
    <glyph glyph-name="uni00DB.c2sc" horiz-adv-x="616" 
d="M481 601l-24 -30l-105 89l-98 -89l-23 27l118 118h15zM430 521h185v-45h-54v-262q0 -45 -10.5 -82t-34 -70t-67.5 -51.5t-105 -18.5q-112 0 -161.5 59.5t-49.5 153.5v271h-57v45h189v-45h-77v-270q0 -82 40 -125t119 -43q162 0 162 176v262h-79v45z" />
    <glyph glyph-name="uni00DC.c2sc" horiz-adv-x="616" 
d="M396 614v71h68v-71h-68zM228 614v71h68v-71h-68zM430 521h185v-45h-54v-262q0 -45 -10.5 -82t-34 -70t-67.5 -51.5t-105 -18.5q-112 0 -161.5 59.5t-49.5 153.5v271h-57v45h189v-45h-77v-270q0 -82 40 -125t119 -43q162 0 162 176v262h-79v45z" />
    <glyph glyph-name="uni00D9.c2sc" horiz-adv-x="616" 
d="M405 599l-18 -27l-167 108l33 47zM430 521h185v-45h-54v-262q0 -45 -10.5 -82t-34 -70t-67.5 -51.5t-105 -18.5q-112 0 -161.5 59.5t-49.5 153.5v271h-57v45h189v-45h-77v-270q0 -82 40 -125t119 -43q162 0 162 176v262h-79v45z" />
    <glyph glyph-name="uni0170.c2sc" horiz-adv-x="616" 
d="M402 732l-120 -160l-26 19l99 173zM555 681l-167 -108l-18 27l152 128zM430 521h185v-45h-54v-262q0 -45 -10.5 -82t-34 -70t-67.5 -51.5t-105 -18.5q-112 0 -161.5 59.5t-49.5 153.5v271h-57v45h189v-45h-77v-270q0 -82 40 -125t119 -43q162 0 162 176v262h-79v45z" />
    <glyph glyph-name="uni016A.c2sc" horiz-adv-x="616" 
d="M465 624h-238v46h238v-46zM430 521h185v-45h-54v-262q0 -45 -10.5 -82t-34 -70t-67.5 -51.5t-105 -18.5q-112 0 -161.5 59.5t-49.5 153.5v271h-57v45h189v-45h-77v-270q0 -82 40 -125t119 -43q162 0 162 176v262h-79v45z" />
    <glyph glyph-name="uni0172.c2sc" horiz-adv-x="616" 
d="M468 -181q-36 -19 -73 -19q-44 0 -70.5 24t-26.5 64q0 62 56 104h-10q-112 0 -161.5 59.5t-49.5 153.5v271h-57v45h189v-45h-77v-270q0 -82 40 -125t119 -43q162 0 162 176v262h-79v45h185v-45h-54v-262q0 -81 -36 -139.5t-117 -75.5q-62 -38 -62 -100q0 -56 60 -56
q30 0 54 15z" />
    <glyph glyph-name="uni016E.c2sc" horiz-adv-x="616" 
d="M457 643q0 -42 -25.5 -67.5t-72.5 -25.5t-72 24.5t-25 67.5q0 41 26.5 66.5t71.5 25.5q48 0 72.5 -25t24.5 -66zM416 644q0 24 -14 39.5t-43 15.5q-27 0 -41.5 -16t-14.5 -41q0 -57 56 -57q28 0 42.5 16.5t14.5 42.5zM430 521h185v-45h-54v-262q0 -45 -10.5 -82t-34 -70
t-67.5 -51.5t-105 -18.5q-112 0 -161.5 59.5t-49.5 153.5v271h-57v45h189v-45h-77v-270q0 -82 40 -125t119 -43q162 0 162 176v262h-79v45z" />
    <glyph glyph-name="uni0168.c2sc" horiz-adv-x="616" 
d="M489 696q-17 -83 -75 -83q-28 0 -67 19t-55 19q-39 0 -53 -43l-29 11q6 30 27.5 54.5t53.5 24.5q21 0 57.5 -18.5t62.5 -18.5q35 0 47 43zM430 521h185v-45h-54v-262q0 -45 -10.5 -82t-34 -70t-67.5 -51.5t-105 -18.5q-112 0 -161.5 59.5t-49.5 153.5v271h-57v45h189v-45
h-77v-270q0 -82 40 -125t119 -43q162 0 162 176v262h-79v45z" />
    <glyph glyph-name="uni0056.c2sc" horiz-adv-x="556" 
d="M200 476h-81l163 -403h4l160 403h-82v45h189v-45h-51l-198 -476h-46l-198 476h-54v45h194v-45z" />
    <glyph glyph-name="uni0057.c2sc" horiz-adv-x="794" 
d="M790 476h-46l-144 -476h-48l-145 429h-3l-141 -429h-49l-153 476h-47v45h186v-45h-81l120 -392h4l130 392h-58v45h186v-45h-58l132 -393h4l109 393h-82v45h184v-45z" />
    <glyph glyph-name="uni1E82.c2sc" horiz-adv-x="794" 
d="M539 680l-167 -108l-18 27l152 128zM790 476h-46l-144 -476h-48l-145 429h-3l-141 -429h-49l-153 476h-47v45h186v-45h-81l120 -392h4l130 392h-58v45h186v-45h-58l132 -393h4l109 393h-82v45h184v-45z" />
    <glyph glyph-name="uni0174.c2sc" horiz-adv-x="794" 
d="M535 601l-24 -30l-105 89l-98 -89l-23 27l118 118h15zM790 476h-46l-144 -476h-48l-145 429h-3l-141 -429h-49l-153 476h-47v45h186v-45h-81l120 -392h4l130 392h-58v45h186v-45h-58l132 -393h4l109 393h-82v45h184v-45z" />
    <glyph glyph-name="uni1E84.c2sc" horiz-adv-x="794" 
d="M288 614v71h68v-71h-68zM456 614v71h68v-71h-68zM790 476h-46l-144 -476h-48l-145 429h-3l-141 -429h-49l-153 476h-47v45h186v-45h-81l120 -392h4l130 392h-58v45h186v-45h-58l132 -393h4l109 393h-82v45h184v-45z" />
    <glyph glyph-name="uni1E80.c2sc" horiz-adv-x="794" 
d="M472 599l-18 -27l-167 108l33 47zM790 476h-46l-144 -476h-48l-145 429h-3l-141 -429h-49l-153 476h-47v45h186v-45h-81l120 -392h4l130 392h-58v45h186v-45h-58l132 -393h4l109 393h-82v45h184v-45z" />
    <glyph glyph-name="uni0058.c2sc" horiz-adv-x="547" 
d="M546 0h-186v45h72l-146 188l-138 -188h65v-45h-183v45h56l172 224l-163 207h-56v45h182v-45h-62l132 -169l126 169h-59v45h181v-45h-59l-161 -206l178 -225h49v-45z" />
    <glyph glyph-name="uni0059.c2sc" horiz-adv-x="526" 
d="M520 476h-54l-172 -279v-152h98v-45h-248v45h95v155l-178 276h-55v45h195v-45h-79l145 -230h5l139 230h-79v45h188v-45z" />
    <glyph glyph-name="uni00DD.c2sc" horiz-adv-x="526" 
d="M427 680l-167 -108l-18 27l152 128zM520 476h-54l-172 -279v-152h98v-45h-248v45h95v155l-178 276h-55v45h195v-45h-79l145 -230h5l139 230h-79v45h188v-45z" />
    <glyph glyph-name="uni0176.c2sc" horiz-adv-x="526" 
d="M393 601l-24 -30l-105 89l-98 -89l-23 27l118 118h15zM520 476h-54l-172 -279v-152h98v-45h-248v45h95v155l-178 276h-55v45h195v-45h-79l145 -230h5l139 230h-79v45h188v-45z" />
    <glyph glyph-name="uni0178.c2sc" horiz-adv-x="526" 
d="M321 614v71h68v-71h-68zM153 614v71h68v-71h-68zM520 476h-54l-172 -279v-152h98v-45h-248v45h95v155l-178 276h-55v45h195v-45h-79l145 -230h5l139 230h-79v45h188v-45z" />
    <glyph glyph-name="uni1EF2.c2sc" horiz-adv-x="526" 
d="M326 599l-18 -27l-167 108l33 47zM520 476h-54l-172 -279v-152h98v-45h-248v45h95v155l-178 276h-55v45h195v-45h-79l145 -230h5l139 230h-79v45h188v-45z" />
    <glyph glyph-name="uni0232.c2sc" horiz-adv-x="526" 
d="M387 623h-238v46h238v-46zM520 476h-54l-172 -279v-152h98v-45h-248v45h95v155l-178 276h-55v45h195v-45h-79l145 -230h5l139 230h-79v45h188v-45z" />
    <glyph glyph-name="uni005A.c2sc" horiz-adv-x="503" 
d="M485 0h-411l-2 32l319 442v2h-253l-20 -110l-48 5l19 150h378l1 -30l-318 -444v-2h286l20 113l48 -6z" />
    <glyph glyph-name="uni0179.c2sc" horiz-adv-x="503" 
d="M428 680l-167 -108l-18 27l152 128zM485 0h-411l-2 32l319 442v2h-253l-20 -110l-48 5l19 150h378l1 -30l-318 -444v-2h286l20 113l48 -6z" />
    <glyph glyph-name="uni017D.c2sc" horiz-adv-x="503" 
d="M413 690l-117 -117h-16l-117 115l24 30l104 -89l99 89zM485 0h-411l-2 32l319 442v2h-253l-20 -110l-48 5l19 150h378l1 -30l-318 -444v-2h286l20 113l48 -6z" />
    <glyph glyph-name="uni017B.c2sc" horiz-adv-x="503" 
d="M260 610v79h62v-79h-62zM485 0h-411l-2 32l319 442v2h-253l-20 -110l-48 5l19 150h378l1 -30l-318 -444v-2h286l20 113l48 -6z" />
    <glyph glyph-name="uni0069.TRK" horiz-adv-x="275" 
d="M143 568v79h62v-79h-62zM287 0h-220v46h83v351h-84v47h139v-398h82v-46z" />
    <glyph glyph-name="uni0062.inferior" horiz-adv-x="379" 
d="M22 447h98v-219q34 67 107 67q57 0 92.5 -38t35.5 -105q0 -64 -33.5 -111.5t-98.5 -47.5q-76 0 -106 55q-1 -24 -6 -48h-46q9 58 9 84v327h-52v36zM212 31q46 0 69.5 34t23.5 83q0 52 -25.5 80.5t-64.5 28.5q-41 0 -68 -29t-27 -63v-50q0 -36 27 -60t65 -24z" />
    <glyph glyph-name="uni0063.inferior" horiz-adv-x="327" 
d="M210 257q-47 0 -69 -31.5t-22 -81.5q0 -54 23.5 -83.5t67.5 -29.5q67 0 81 74l39 -8q-6 -43 -37 -73.5t-87 -30.5q-62 0 -99 39.5t-37 104.5t36 111.5t106 46.5q56 0 100 -36l9 -69l-37 -5l-10 51q-29 21 -64 21z" />
    <glyph glyph-name="uni0064.inferior" horiz-adv-x="389" 
d="M233 447h118v-411h53v-36h-99v60q-35 -67 -107 -67q-58 0 -93 38.5t-35 105.5q0 65 33.5 111.5t101.5 46.5q70 0 100 -52v168h-72v36zM216 257q-48 0 -72 -33.5t-24 -83.5q0 -52 25 -80.5t66 -28.5q39 0 66.5 30t27.5 65v51q0 36 -25.5 58t-63.5 22z" />
    <glyph glyph-name="uni00E9.inferior" horiz-adv-x="333" 
d="M301 429l-125 -81l-16 22l115 96zM214 31q67 0 82 60l39 -9q-6 -39 -39 -64t-86 -25q-64 0 -102 39t-38 108t37 112t99 43q67 0 101.5 -48.5t20.5 -111.5h-209q2 -50 26 -77t69 -27zM205 259q-39 0 -60 -25.5t-25 -65.5h163q4 36 -16.5 63.5t-61.5 27.5z" />
    <glyph glyph-name="uni00E8.inferior" horiz-adv-x="333" 
d="M233 348l-126 81l26 37l116 -96zM214 31q67 0 82 60l39 -9q-6 -39 -39 -64t-86 -25q-64 0 -102 39t-38 108t37 112t99 43q67 0 101.5 -48.5t20.5 -111.5h-209q2 -50 26 -77t69 -27zM205 259q-39 0 -60 -25.5t-25 -65.5h163q4 36 -16.5 63.5t-61.5 27.5z" />
    <glyph glyph-name="uni0066.inferior" horiz-adv-x="226" 
d="M54 36h51v217h-42v36h42v56q0 50 29.5 79.5t72.5 29.5q42 0 85 -26l9 -69l-37 -5l-10 51q-23 14 -46 14q-55 0 -55 -72v-58h77v-36h-77v-217h68v-36h-167v36z" />
    <glyph glyph-name="uni0067.inferior" horiz-adv-x="386" 
d="M305 289h94v-36h-48v-249q0 -69 -38.5 -109t-106.5 -40q-49 0 -85.5 22t-47.5 62l36 18q11 -32 38 -48t60 -16q45 0 71.5 29t26.5 83v55q-34 -64 -106 -64q-56 0 -92.5 37.5t-36.5 103.5q0 64 34.5 111t100.5 47q70 0 100 -52v46zM216 257q-47 0 -71 -33.5t-24 -82.5
q0 -52 24 -79.5t63 -27.5q41 0 68 27t29 61v55q0 36 -25.5 58t-63.5 22z" />
    <glyph glyph-name="uni0069.inferior" horiz-adv-x="201" 
d="M104 372v54h51v-54h-51zM57 36h52v217h-53v36h100v-253h51v-36h-150v36z" />
    <glyph glyph-name="uni006A.inferior" horiz-adv-x="188" 
d="M74 372v54h51v-54h-51zM10 289h113v-299q0 -78 -34 -109t-94 -26l-1 31q17 0 29 3.5t25.5 13t21 32t7.5 55.5v263h-67v36z" />
    <glyph glyph-name="uni0071.inferior" horiz-adv-x="378" 
d="M397 -138h-162v36h69v161q-34 -66 -107 -66q-57 0 -92 38t-35 106q0 64 33 111t99 47q76 0 106 -56q2 27 7 50h46q-10 -50 -10 -90v-301h46v-36zM212 257q-46 0 -69.5 -33.5t-23.5 -83.5q0 -52 25 -80.5t64 -28.5q40 0 67 28t29 63v55q0 36 -26.5 58t-65.5 22z" />
    <glyph glyph-name="uni0072.inferior" horiz-adv-x="299" 
d="M250 253q-6 2 -19 2q-31 0 -52.5 -23t-23.5 -57v-139h70v-36h-169v36h52v217h-54v36h98v-57q25 62 84 62q30 0 52 -18l11 -75l-35 -5z" />
    <glyph glyph-name="uni0075.inferior" horiz-adv-x="395" 
d="M391 0h-100v52q-31 -58 -105 -58q-46 0 -74 27.5t-28 82.5v149h-52v36h98v-172q0 -85 70 -85q41 0 66 26t25 59v136h-62v36h108v-253h54v-36z" />
    <glyph glyph-name="uni0076.inferior" horiz-adv-x="353" 
d="M222 289h132v-36h-37l-110 -253h-35l-114 253h-36v36h139v-36h-54l85 -194h4l74 194h-48v36z" />
    <glyph glyph-name="uni0077.inferior" horiz-adv-x="526" 
d="M388 64h4l54 189h-54v36h134v-36h-34l-87 -253h-37l-92 228h-3l-89 -228h-34l-91 253h-33v36h140v-36h-57l63 -190h4l87 226h32z" />
    <glyph glyph-name="uni0079.inferior" horiz-adv-x="352" 
d="M220 289h131v-36h-35l-106 -253l-42 -102h53v-36h-151v36h55l40 103l-110 252h-35v36h138v-36h-53l85 -199h4l74 199h-48v36z" />
    <glyph glyph-name="uni007A.inferior" horiz-adv-x="332" 
d="M333 95l-11 -95h-253l-1 27l190 226h-138l-10 -66l-36 7l10 95h233l2 -26l-190 -227h158l11 67z" />
    <glyph glyph-name="uni0061.superior" horiz-adv-x="344" 
d="M195 677q-27 0 -61 -18l-10 -51l-37 4l8 64q40 34 107 34q51 0 79.5 -24.5t28.5 -72.5v-140q0 -32 25 -32q12 0 20 4v-27q-17 -10 -38 -10q-54 0 -54 61q-36 -61 -102 -61q-36 0 -63.5 19.5t-27.5 61.5q0 88 137 88q8 0 56 -3v37q0 30 -18 48t-50 18zM263 528v20
q-48 3 -55 3q-89 0 -89 -56q0 -27 17.5 -40t40.5 -13q34 0 60 24.5t26 61.5z" />
    <glyph glyph-name="uni0062.superior" horiz-adv-x="379" 
d="M22 862h98v-219q34 67 107 67q57 0 92.5 -38t35.5 -105q0 -64 -33.5 -111.5t-98.5 -47.5q-76 0 -106 55q-1 -24 -6 -48h-46q9 58 9 84v327h-52v36zM212 446q46 0 69.5 34t23.5 83q0 52 -25.5 80.5t-64.5 28.5q-41 0 -68 -29t-27 -63v-50q0 -36 27 -60t65 -24z" />
    <glyph glyph-name="uni0063.superior" horiz-adv-x="327" 
d="M210 672q-47 0 -69 -31.5t-22 -81.5q0 -54 23.5 -83.5t67.5 -29.5q67 0 81 74l39 -8q-6 -43 -37 -73.5t-87 -30.5q-62 0 -99 39.5t-37 104.5t36 111.5t106 46.5q56 0 100 -36l9 -69l-37 -5l-10 51q-29 21 -64 21z" />
    <glyph glyph-name="uni0064.superior" horiz-adv-x="390" 
d="M233 862h118v-411h53v-36h-99v60q-35 -67 -107 -67q-58 0 -93 38.5t-35 105.5q0 65 33.5 111.5t101.5 46.5q70 0 100 -52v168h-72v36zM216 672q-48 0 -72 -33.5t-24 -83.5q0 -52 25 -80.5t66 -28.5q39 0 66.5 30t27.5 65v51q0 36 -25.5 58t-63.5 22z" />
    <glyph glyph-name="uni0065.superior" horiz-adv-x="333" 
d="M214 446q67 0 82 60l39 -9q-6 -39 -39 -64t-86 -25q-64 0 -102 39t-38 108t37 112t99 43q67 0 101.5 -48.5t20.5 -111.5h-209q2 -50 26 -77t69 -27zM205 674q-39 0 -60 -25.5t-25 -65.5h163q4 36 -16.5 63.5t-61.5 27.5z" />
    <glyph glyph-name="uni00E9.superior" horiz-adv-x="333" 
d="M301 844l-125 -81l-16 22l115 96zM214 446q67 0 82 60l39 -9q-6 -39 -39 -64t-86 -25q-64 0 -102 39t-38 108t37 112t99 43q67 0 101.5 -48.5t20.5 -111.5h-209q2 -50 26 -77t69 -27zM205 674q-39 0 -60 -25.5t-25 -65.5h163q4 36 -16.5 63.5t-61.5 27.5z" />
    <glyph glyph-name="uni00E8.superior" horiz-adv-x="333" 
d="M233 763l-126 81l26 37l116 -96zM214 446q67 0 82 60l39 -9q-6 -39 -39 -64t-86 -25q-64 0 -102 39t-38 108t37 112t99 43q67 0 101.5 -48.5t20.5 -111.5h-209q2 -50 26 -77t69 -27zM205 674q-39 0 -60 -25.5t-25 -65.5h163q4 36 -16.5 63.5t-61.5 27.5z" />
    <glyph glyph-name="uni0066.superior" horiz-adv-x="227" 
d="M54 451h51v217h-42v36h42v56q0 50 29.5 79.5t72.5 29.5q42 0 85 -26l9 -69l-37 -5l-10 51q-23 14 -46 14q-55 0 -55 -72v-58h77v-36h-77v-217h68v-36h-167v36z" />
    <glyph glyph-name="uni0067.superior" horiz-adv-x="387" 
d="M305 704h94v-36h-48v-249q0 -69 -38.5 -109t-106.5 -40q-49 0 -85.5 22t-47.5 62l36 18q11 -32 38 -48t60 -16q45 0 71.5 29t26.5 83v55q-34 -64 -106 -64q-56 0 -92.5 37.5t-36.5 103.5q0 64 34.5 111t100.5 47q70 0 100 -52v46zM216 672q-47 0 -71 -33.5t-24 -82.5
q0 -52 24 -79.5t63 -27.5q41 0 68 27t29 61v55q0 36 -25.5 58t-63.5 22z" />
    <glyph glyph-name="uni0068.superior" horiz-adv-x="397" 
d="M250 451h53v136q0 87 -71 87q-39 0 -63.5 -23.5t-25.5 -57.5v-142h51v-36h-150v36h52v375h-52v36h99v-210q32 58 104 58q46 0 74.5 -27.5t28.5 -83.5v-148h51v-36h-151v36z" />
    <glyph glyph-name="uni006A.superior" horiz-adv-x="187" 
d="M74 787v54h51v-54h-51zM10 704h113v-299q0 -78 -34 -109t-94 -26l-1 31q17 0 29 3.5t25.5 13t21 32t7.5 55.5v263h-67v36z" />
    <glyph glyph-name="uni006B.superior" horiz-adv-x="361" 
d="M231 451h47l-83 100h-53v-100h44v-36h-143v36h52v375h-53v36h100v-277h55l68 83h-48v36h140v-36h-47l-79 -96l99 -121h42v-36h-141v36z" />
    <glyph glyph-name="uni006C.superior" horiz-adv-x="194" 
d="M43 451h52v375h-53v36h100v-411h52v-36h-151v36z" />
    <glyph glyph-name="uni006D.superior" horiz-adv-x="598" 
d="M456 451h53v136q0 87 -68 87q-37 0 -60 -25.5t-26 -55.5v-142h52v-36h-151v36h52v136q0 87 -67 87q-38 0 -60.5 -25t-25.5 -55v-143h50v-36h-149v36h52v217h-54v36h101v-53q33 59 100 59q76 0 95 -71q33 71 106 71q45 0 72.5 -27.5t27.5 -83.5v-148h51v-36h-151v36z" />
    <glyph glyph-name="uni006F.superior" horiz-adv-x="362" 
d="M68 557q0 67 39 110t109 43t108 -42.5t38 -107.5q0 -67 -41 -109.5t-108 -42.5t-106 41.5t-39 107.5zM118 560q0 -50 25 -82t71 -32t72 32t26 82t-25.5 80.5t-71.5 30.5t-71.5 -31t-25.5 -80z" />
    <glyph glyph-name="uni0070.superior" horiz-adv-x="390" 
d="M42 313h51v355h-53v36h100v-61q34 67 108 67q56 0 91.5 -38t35.5 -104q0 -65 -34 -112.5t-100 -47.5q-72 0 -101 50v-145h70v-36h-168v36zM230 446q47 0 71 33.5t24 83.5q0 52 -25 80.5t-63 28.5q-41 0 -68 -28.5t-29 -63.5v-53q0 -36 26 -58.5t64 -22.5z" />
    <glyph glyph-name="uni0071.superior" horiz-adv-x="378" 
d="M397 277h-162v36h69v161q-34 -66 -107 -66q-57 0 -92 38t-35 106q0 64 33 111t99 47q76 0 106 -56q2 27 7 50h46q-10 -50 -10 -90v-301h46v-36zM212 672q-46 0 -69.5 -33.5t-23.5 -83.5q0 -52 25 -80.5t64 -28.5q40 0 67 28t29 63v55q0 36 -26.5 58t-65.5 22z" />
    <glyph glyph-name="uni0072.superior" horiz-adv-x="299" 
d="M250 668q-6 2 -19 2q-31 0 -52.5 -23t-23.5 -57v-139h70v-36h-169v36h52v217h-54v36h98v-57q25 62 84 62q30 0 52 -18l11 -75l-35 -5z" />
    <glyph glyph-name="uni0073.superior" horiz-adv-x="312" 
d="M192 445q74 0 74 49q0 26 -29.5 38.5t-64.5 15.5t-64.5 22t-29.5 56q0 41 31 62.5t73 21.5q63 0 110 -26l9 -63l-37 -5l-10 45q-31 13 -59 13q-66 0 -66 -42q0 -26 29 -38t63.5 -15t63.5 -22.5t29 -58.5q0 -42 -29.5 -66t-79.5 -24q-36 0 -74 10.5t-57 24.5l7 68l37 -4
l-1 -41q30 -21 75 -21z" />
    <glyph glyph-name="uni0074.superior" horiz-adv-x="280" 
d="M46 704h47v93h48v-93h116v-36h-116v-162q0 -60 49 -60q21 0 35 12t20 45l35 -11q-12 -84 -94 -84q-45 0 -69 24.5t-24 67.5v168h-47v36z" />
    <glyph glyph-name="uni0075.superior" horiz-adv-x="395" 
d="M391 415h-100v52q-31 -58 -105 -58q-46 0 -74 27.5t-28 82.5v149h-52v36h98v-172q0 -85 70 -85q41 0 66 26t25 59v136h-62v36h108v-253h54v-36z" />
    <glyph glyph-name="uni0076.superior" horiz-adv-x="355" 
d="M222 704h132v-36h-37l-110 -253h-35l-114 253h-36v36h139v-36h-54l85 -194h4l74 194h-48v36z" />
    <glyph glyph-name="uni0077.superior" horiz-adv-x="526" 
d="M388 479h4l54 189h-54v36h134v-36h-34l-87 -253h-37l-92 228h-3l-89 -228h-34l-91 253h-33v36h140v-36h-57l63 -190h4l87 226h32z" />
    <glyph glyph-name="uni0078.superior" horiz-adv-x="355" 
d="M36 451h39l96 109l-96 108h-39v36h136v-36h-45l71 -84l72 84h-38v36h119v-36h-38l-93 -105l97 -112h40v-36h-131v36h40l-73 85l-73 -85h39v-36h-123v36z" />
    <glyph glyph-name="uni0079.superior" horiz-adv-x="354" 
d="M222 704h131v-36h-35l-106 -253l-42 -102h53v-36h-151v36h55l40 103l-110 252h-35v36h138v-36h-53l85 -199h4l74 199h-48v36z" />
    <glyph glyph-name="uni007A.superior" horiz-adv-x="332" 
d="M333 510l-11 -95h-253l-1 27l190 226h-138l-10 -66l-36 7l10 95h233l2 -26l-190 -227h158l11 67z" />
    <glyph glyph-name="Iacute_Jacute" horiz-adv-x="761" 
d="M321 753l-193 -46l-9 32l188 69zM762 753l-193 -46l-9 32l188 69zM313 0h-227v51h85v548h-85v51h227v-51h-84v-548h84v-51zM764 599h-75v-438q0 -85 -41 -128t-118 -43q-108 0 -154 92l42 32q21 -38 46 -54t61 -16q107 0 107 117v438h-133v51h265v-51z" />
    <glyph glyph-name="uni00660069" horiz-adv-x="562" 
d="M428 46v351h-241v-351h108v-46h-245v46h82v351h-66v47h66v76q0 84 54 131t132 47q88 0 140 -45l16 -99l-46 -6l-18 78q-39 24 -100 24q-54 0 -88.5 -30t-34.5 -98v-78h296v-398h82v-46h-219v46h82z" />
    <glyph glyph-name="uni0066006C" horiz-adv-x="561" 
d="M565 0h-220v46h82v566q-40 40 -119 40q-56 0 -88.5 -33t-32.5 -93v-82h127v-47h-127v-351h108v-46h-245v46h82v351h-66v47h66v81q0 78 46.5 125.5t118.5 47.5q90 0 130 -32v22h55v-642h83v-46z" />
    <glyph glyph-name="iacute_jacute" horiz-adv-x="523" 
d="M516 631l-167 -108l-18 27l152 128zM263 631l-167 -108l-18 27l152 128zM313 444h162v-465q0 -61 -15 -104t-41.5 -64.5t-57.5 -29.5t-68 -5l-2 42q25 0 44 5.5t40 20.5t33 49.5t12 85.5v418h-107v47zM67 46h83v351h-84v47h139v-398h82v-46h-220v46z" />
    <glyph glyph-name="Iacute_Jacute.c2sc" horiz-adv-x="676" 
d="M703 680l-167 -108l-18 27l152 128zM313 680l-167 -108l-18 27l152 128zM453 521h227v-45h-62v-345q0 -69 -36 -104t-102 -35q-92 0 -132 76l40 28q32 -56 89 -56q86 0 86 91v345h-110v45zM86 45h70v431h-70v45h194v-45h-69v-431h69v-45h-194v45z" />
    <glyph glyph-name="uni01F2.smcp" horiz-adv-x="1209" 
d="M706 325q0 -144 -89 -234.5t-240 -90.5h-291v50h85v550h-85v50h289q153 0 242 -90.5t89 -234.5zM645 325q0 124 -71 199.5t-200 75.5h-146v-550h146q129 0 200 74.5t71 200.5zM1199 0h-411l-2 32l319 442v2h-253l-20 -110l-48 5l19 150h378l1 -30l-318 -444v-2h286
l20 113l48 -6z" />
    <glyph glyph-name="uni01C5.smcp" horiz-adv-x="1209" 
d="M1128 690l-117 -117h-16l-117 115l24 30l104 -89l99 89zM706 325q0 -144 -89 -234.5t-240 -90.5h-291v50h85v550h-85v50h289q153 0 242 -90.5t89 -234.5zM645 325q0 124 -71 199.5t-200 75.5h-146v-550h146q129 0 200 74.5t71 200.5zM1199 0h-411l-2 32l319 442v2h-253
l-20 -110l-48 5l19 150h378l1 -30l-318 -444v-2h286l20 113l48 -6z" />
    <glyph glyph-name="uni01C8.smcp" horiz-adv-x="937" 
d="M550 0h-464v51h85v548h-85v51h255v-51h-113v-548h270l20 155l52 -4zM713 521h227v-45h-62v-345q0 -69 -36 -104t-102 -35q-92 0 -132 76l40 28q32 -56 89 -56q86 0 86 91v345h-110v45z" />
    <glyph glyph-name="uni01CB.smcp" horiz-adv-x="1097" 
d="M736 599h-84v-599h-39l-385 538h-4v-487h107v-51h-239v51h77v548h-87v51h130l381 -532h4v481h-99v51h238v-51zM871 521h227v-45h-62v-345q0 -69 -36 -104t-102 -35q-92 0 -132 76l40 28q32 -56 89 -56q86 0 86 91v345h-110v45z" />
    <glyph glyph-name="uni0061.smcp" horiz-adv-x="556" 
d="M14 45h51l183 431h-89v45h151l197 -476h54v-45h-191v45h79l-41 104h-244l-43 -104h83v-45h-190v45zM286 446l-104 -253h208l-100 253h-4z" />
    <glyph glyph-name="uni00E1.smcp" horiz-adv-x="556" 
d="M454 680l-167 -108l-18 27l152 128zM14 45h51l183 431h-89v45h151l197 -476h54v-45h-191v45h79l-41 104h-244l-43 -104h83v-45h-190v45zM286 446l-104 -253h208l-100 253h-4z" />
    <glyph glyph-name="uni0103.smcp" horiz-adv-x="556" 
d="M407 703q0 -118 -118 -118q-117 0 -117 118h47q0 -42 18 -60t53 -18q36 0 53 18.5t17 59.5h47zM14 45h51l183 431h-89v45h151l197 -476h54v-45h-191v45h79l-41 104h-244l-43 -104h83v-45h-190v45zM286 446l-104 -253h208l-100 253h-4z" />
    </font>
</defs>
</svg>
