<?xml version="1.0" standalone="no"?>
<!DOCTYPE svg PUBLIC "-//W3C//DTD SVG 1.1//EN" "http://www.w3.org/Graphics/SVG/1.1/DTD/svg11.dtd" >
<svg xmlns="http://www.w3.org/2000/svg" xmlns:xlink="http://www.w3.org/1999/xlink" version="1.1">
<metadata>
Created by FontForge 20170731 at Tue Jul  4 11:56:21 2017
 By Aleksey,,,
Copyright 2017, The Mozilla Foundation
</metadata>
<defs>
<font id="ZillaSlab-RegularItalic" horiz-adv-x="605" >
  <font-face 
    font-family="Zilla Slab Regular"
    font-weight="400"
    font-style="italic"
    font-stretch="normal"
    units-per-em="1000"
    panose-1="0 0 0 0 0 0 0 0 0 0"
    ascent="787"
    descent="-213"
    x-height="445"
    cap-height="650"
    bbox="-338 -223.05 1241 883"
    underline-thickness="50"
    underline-position="-175"
    slope="-6"
    unicode-range="U+0020-FB04"
  />
<missing-glyph horiz-adv-x="712" 
d="M460 675v27h27v-27h-27zM685 675v27h27v-27h-27zM610 675v27h27v-27h-27zM535 675v27h27v-27h-27zM385 675v27h27v-27h-27zM310 675v27h27v-27h-27zM235 675v27h27v-27h-27zM160 675v27h27v-27h-27zM685 600v27h27v-27h-27zM160 600v27h27v-27h-27zM460 525v27h27v-27
h-27zM385 525v27h27v-27h-27zM310 525v27h27v-27h-27zM685 525v27h27v-27h-27zM535 525v27h27v-27h-27zM160 525v27h27v-27h-27zM160 450v27h27v-27h-27zM685 450v27h27v-27h-27zM535 450v27h27v-27h-27zM160 375v27h27v-27h-27zM460 375v27h27v-27h-27zM535 375v27h27v-27
h-27zM685 375v27h27v-27h-27zM385 375v27h27v-27h-27zM160 300v27h27v-27h-27zM385 300v27h27v-27h-27zM685 300v27h27v-27h-27zM160 225v27h27v-27h-27zM685 225v27h27v-27h-27zM160 150v27h27v-27h-27zM385 150v27h27v-27h-27zM685 150v27h27v-27h-27zM160 75v27h27v-27
h-27zM685 75v27h27v-27h-27zM460 0v27h27v-27h-27zM610 0v27h27v-27h-27zM535 0v27h27v-27h-27zM685 0v27h27v-27h-27zM385 0v27h27v-27h-27zM310 0v27h27v-27h-27zM235 0v27h27v-27h-27zM160 0v27h27v-27h-27z" />
    <glyph glyph-name="uniFB00" unicode="ff" horiz-adv-x="561" 
d="M-120 388l4 37l23 20h65l11 90q9 78 51.5 117.5t104.5 39.5q40 0 74 -20t50 -55q42 81 138 81q65 0 107 -31l6 -104l-57 -7l-10 76q-23 10 -54 10q-74 0 -87 -108l-11 -89h130l-5 -36l-23 -21h-109l-55 -446q-21 -165 -145 -165q-53 0 -85.5 29.5t-32.5 91.5
q-31 -121 -136 -121q-55 0 -87.5 30t-31.5 95l55 16q-3 -84 62 -84q64 0 78 109l55 445h-85zM50 533l-11 -88h188l11 86q0 2 0.5 6t0.5 6q2 42 -23 67.5t-67 25.5q-87 0 -99 -103zM220 388h-188l-54 -446q-4 -26 -7 -39l54 15q-3 -84 59 -84q37 0 55.5 27t25.5 82z" />
    <glyph glyph-name="uniFB01" unicode="fi" horiz-adv-x="510" 
d="M296 445l-47 -388h74l-5 -40l-21 -17h-123l47 388h-189l-54 -446q-21 -165 -145 -165q-54 0 -86.5 30t-31.5 95l55 16q-3 -84 61 -84q35 0 53.5 27.5t25.5 81.5l55 445h-85l4 37l23 20h65l10 83q10 81 55.5 125.5t127.5 44.5q87 0 134 -32l7 -111l-58 -7l-11 83
q-26 11 -67 11q-56 0 -84 -24.5t-36 -87.5l-11 -85h257z" />
    <glyph glyph-name="uniFB02" unicode="fl" horiz-adv-x="508" 
d="M325 688l-77 -631h75l-5 -40l-21 -17h-124l68 557q-1 38 -26 61.5t-65 23.5q-87 0 -99 -104l-12 -93h131l-5 -36l-23 -21h-110l-54 -446q-21 -165 -144 -165q-55 0 -87.5 30t-31.5 95l55 16q-3 -84 62 -84q64 0 78 109l54 445h-84l4 37l23 20h64l12 96q10 78 52.5 117.5
t104.5 39.5q77 0 111 -61l6 51h68z" />
    <glyph glyph-name="uniFB03" unicode="ffi" horiz-adv-x="766" 
d="M552 445l-47 -388h74l-5 -40l-21 -17h-122l47 388h-190l-54 -446q-21 -165 -145 -165q-54 0 -86.5 30t-31.5 95q-29 -125 -137 -125q-55 0 -87.5 30t-31.5 95l55 16q-3 -84 62 -84q64 0 78 109l55 445h-85l4 37l23 20h65l11 90q9 78 51.5 117.5t104.5 39.5q43 0 76 -23
t45 -62q45 91 161 91q87 0 134 -32l7 -111l-58 -7l-11 83q-26 11 -67 11q-56 0 -84 -24.5t-36 -87.5l-11 -85h257zM149 636q-87 0 -99 -103l-11 -88h189l10 83l3 19q1 40 -24.5 64.5t-67.5 24.5zM-22 -58q-4 -25 -7 -40l55 16q-3 -84 61 -84q35 0 53.5 27.5t25.5 81.5
l55 445h-189z" />
    <glyph glyph-name="uniFB04" unicode="ffl" horiz-adv-x="764" 
d="M581 688l-77 -631h75l-5 -40l-21 -17h-123l66 541q6 45 -19 73t-70 28q-88 0 -100 -104l-12 -93h132l-5 -36l-23 -21h-111l-54 -446q-20 -165 -144 -165q-55 0 -87 30t-31 95l55 16q-3 -84 61 -84t78 109l55 445h-189l-54 -446q-21 -165 -144 -165q-55 0 -87.5 30
t-31.5 95l55 16q-3 -84 62 -84q64 0 78 109l55 445h-85l4 37l23 20h65l11 90q9 78 51.5 117.5t104.5 39.5q42 0 74.5 -22t45.5 -59q40 87 137 87q36 0 65.5 -16.5t45.5 -45.5l7 52h67zM149 636q-87 0 -99 -103l-11 -88h189l12 96q0 5 1 8q0 39 -25.5 63t-66.5 24z" />
    <glyph glyph-name="uni00660068" unicode="fh" horiz-adv-x="781" 
d="M326 688l-40 -322q53 88 147 88q67 0 102.5 -42t24.5 -127l-27 -228h75l-5 -40l-21 -17h-123l32 264q17 133 -86 133q-50 0 -84.5 -34t-44.5 -83l-34 -280h-68l66 541q5 45 -20 73t-70 28q-87 0 -99 -104l-12 -93h131l-5 -36l-23 -21h-110l-54 -446q-21 -165 -144 -165
q-55 0 -87.5 30t-31.5 95l55 16q-3 -84 62 -84q64 0 78 109l54 445h-84l4 37l23 20h64l12 96q10 78 52.5 117.5t104.5 39.5q77 0 111 -63l7 53h68z" />
    <glyph glyph-name="uni00660062" unicode="fb" horiz-adv-x="777" 
d="M325 688l-41 -332q55 98 152 98q74 0 115.5 -51t41.5 -138q0 -46 -11.5 -92t-34.5 -88t-65.5 -68.5t-97.5 -26.5q-106 0 -139 84q-3 -15 -10 -42.5t-8 -31.5h-68q26 90 30 130l52 426q-1 39 -25.5 62.5t-65.5 23.5q-87 0 -99 -104l-12 -93h131l-5 -36l-23 -21h-110
l-54 -446q-22 -165 -145 -165q-54 0 -86.5 30t-31.5 95l55 16q-4 -84 61 -84t79 109l54 445h-84l4 37l23 20h64l12 96q10 78 53 117.5t103 39.5q77 0 111 -62l7 52h68zM379 47q38 0 66.5 20.5t44 53t23 67t7.5 68.5q0 67 -26.5 104t-76.5 37q-55 0 -93 -41t-51 -94l-12 -97
q0 -51 33 -84.5t85 -33.5z" />
    <glyph glyph-name="uni0066006A" unicode="fj" horiz-adv-x="490" 
d="M-18 528q10 81 55.5 125.5t127.5 44.5q87 0 134 -32l7 -111l-58 -7l-11 83q-26 11 -67 11q-56 0 -84 -24.5t-36 -87.5l-11 -85h257l-57 -463q-25 -195 -132 -204q-41 -3 -84 17l3 51q122 -49 145 136l50 406h-189l-54 -446q-21 -165 -144 -165q-55 0 -87.5 30t-31.5 95
l55 16q-3 -84 62 -84q64 0 78 109l55 445h-85l4 37l23 20h65z" />
    <glyph glyph-name="uni0066006B" unicode="fk" horiz-adv-x="722" 
d="M325 688l-53 -430h81q98 87 106 187h72q-9 -122 -138 -211l97 -177h63l-5 -40l-21 -17h-78l-111 207h-72l-25 -207h-68l66 541q5 45 -20 73t-69 28q-87 0 -99 -104l-12 -93h131l-5 -36l-23 -21h-110l-54 -446q-21 -165 -144 -165q-55 0 -87.5 30t-31.5 95l55 16
q-3 -84 62 -84q64 0 78 109l54 445h-84l4 37l23 20h64l12 96q10 78 52.5 117.5t104.5 39.5q36 0 65.5 -16.5t44.5 -45.5l7 52h68z" />
    <glyph glyph-name="uni00660066006A" unicode="ffj" horiz-adv-x="746" 
d="M495 -18q-12 -99 -49 -151.5t-93 -53.5q-38 0 -74 18l3 51q123 -51 146 136l50 406h-190l-54 -446q-21 -165 -145 -165q-54 0 -86.5 30t-31.5 95q-29 -125 -137 -125q-55 0 -87.5 30t-31.5 95l55 16q-3 -84 62 -84q64 0 78 109l55 445h-85l4 37l23 20h65l11 90
q9 78 51.5 117.5t104.5 39.5q43 0 76 -23t45 -62q45 91 161 91q87 0 134 -32l7 -111l-58 -7l-11 83q-26 11 -67 11q-56 0 -84 -24.5t-36 -87.5l-11 -85h257zM149 636q-87 0 -99 -103l-11 -88h189l10 83l3 19q1 40 -24.5 64.5t-67.5 24.5zM-22 -58q-4 -25 -7 -40l55 16
q-3 -84 61 -84q35 0 53.5 27.5t25.5 81.5l55 445h-189z" />
    <glyph glyph-name="uni006600EC" unicode="f&#xec;" horiz-adv-x="511" 
d="M357 520l-122 143l57 46l97 -165zM-17 532q11 87 46 127t99 40q39 0 83 -22l-11 -60q-26 24 -65 24q-38 0 -57.5 -24.5t-26.5 -81.5l-11 -90h256l-47 -388h74l-5 -40l-21 -17h-123l47 388h-188l-55 -446q-21 -165 -144 -165q-55 0 -87.5 30t-31.5 95l55 16q-3 -84 62 -84
q64 0 78 109l55 445h-85l4 37l23 20h65z" />
    <glyph glyph-name="uni006600EF" unicode="f&#xef;" horiz-adv-x="510" 
d="M296 445l-47 -388h74l-5 -40l-21 -17h-123l47 388h-188l-55 -446q-21 -165 -144 -165q-55 0 -87.5 30t-31.5 95l55 16q-3 -84 62 -84q64 0 78 109l55 445h-85l4 37l23 20h65l10 82q10 80 54.5 125.5t115.5 45.5q58 0 89.5 -27.5t28.5 -58.5l-6 -57h-79l5 49q2 18 -11 29
t-37 11q-44 0 -64.5 -27t-26.5 -85l-11 -87h256zM350 555l9 81h80l-9 -81h-80z" />
    <glyph glyph-name=".notdef" horiz-adv-x="712" 
d="M460 675v27h27v-27h-27zM685 675v27h27v-27h-27zM610 675v27h27v-27h-27zM535 675v27h27v-27h-27zM385 675v27h27v-27h-27zM310 675v27h27v-27h-27zM235 675v27h27v-27h-27zM160 675v27h27v-27h-27zM685 600v27h27v-27h-27zM160 600v27h27v-27h-27zM460 525v27h27v-27
h-27zM385 525v27h27v-27h-27zM310 525v27h27v-27h-27zM685 525v27h27v-27h-27zM535 525v27h27v-27h-27zM160 525v27h27v-27h-27zM160 450v27h27v-27h-27zM685 450v27h27v-27h-27zM535 450v27h27v-27h-27zM160 375v27h27v-27h-27zM460 375v27h27v-27h-27zM535 375v27h27v-27
h-27zM685 375v27h27v-27h-27zM385 375v27h27v-27h-27zM160 300v27h27v-27h-27zM385 300v27h27v-27h-27zM685 300v27h27v-27h-27zM160 225v27h27v-27h-27zM685 225v27h27v-27h-27zM160 150v27h27v-27h-27zM385 150v27h27v-27h-27zM685 150v27h27v-27h-27zM160 75v27h27v-27
h-27zM685 75v27h27v-27h-27zM460 0v27h27v-27h-27zM610 0v27h27v-27h-27zM535 0v27h27v-27h-27zM685 0v27h27v-27h-27zM385 0v27h27v-27h-27zM310 0v27h27v-27h-27zM235 0v27h27v-27h-27zM160 0v27h27v-27h-27z" />
    <glyph glyph-name=".null" horiz-adv-x="0" 
 />
    <glyph glyph-name="nonmarkingreturn" horiz-adv-x="333" 
 />
    <glyph glyph-name="uni0020" unicode=" " horiz-adv-x="220" 
 />
    <glyph glyph-name="uni0021" unicode="!" horiz-adv-x="237" 
d="M247 650l-63 -458h-53l34 458h82zM96 0l10 97h88l-11 -97h-87z" />
    <glyph glyph-name="uni0022" unicode="&#x22;" horiz-adv-x="366" 
d="M210 377h-62l25 273h70zM386 377h-62l25 273h70z" />
    <glyph glyph-name="uni0023" unicode="#" horiz-adv-x="579" 
d="M531 521l-35 -118h80l-7 -57h-90l-48 -164h92l-7 -57h-102l-36 -125h-62l36 125h-172l-36 -125h-62l36 125h-74l6 57h85l48 164h-87l7 57h97l35 118h62l-35 -118h172l35 118h62zM197 182h172l48 164h-172z" />
    <glyph glyph-name="uni0024" unicode="$" horiz-adv-x="463" 
d="M430 159q0 -74 -49.5 -117.5t-133.5 -48.5l-6 -58h-40l6 58q-100 6 -159 49l23 114l59 -5l-10 -73q41 -22 93 -27l20 195q-70 16 -107.5 43.5t-37.5 83.5q0 71 49 111t126 44l7 65h40l-7 -65q84 -6 137 -47l-5 -115l-59 -4l-1 84q-33 23 -78 26l-18 -170q31 -7 53 -15.5
t47 -24t38 -41.5t13 -62zM163 386q0 -33 19.5 -49t57.5 -26l17 161q-44 -5 -69 -27.5t-25 -58.5zM356 148q0 37 -21 56.5t-63 31.5l-19 -185q46 4 74.5 29t28.5 68z" />
    <glyph glyph-name="uni0025" unicode="%" horiz-adv-x="675" 
d="M217 243q-58 0 -90.5 32t-32.5 92q0 75 45 119t116 44q57 0 89.5 -32t32.5 -92q0 -73 -43.5 -118t-116.5 -45zM643 521l-224 -254l-226 -267h-74l256 287l195 234h73zM223 294q47 0 71 29t24 78q0 78 -70 78q-45 0 -70 -27t-25 -80q0 -41 17 -59.5t53 -18.5zM514 -10
q-123 0 -123 125q0 75 45.5 118.5t116.5 43.5q56 0 88.5 -32.5t32.5 -92.5q0 -72 -43 -117t-117 -45zM520 40q47 0 71.5 29.5t24.5 78.5q0 79 -71 79q-44 0 -69.5 -27.5t-25.5 -80.5q0 -79 70 -79z" />
    <glyph glyph-name="uni0026" unicode="&#x26;" horiz-adv-x="716" 
d="M462 362h273l-7 -63h-102q-53 -110 -153 -201q64 -40 126 -40q43 0 82 21l11 -61q-52 -28 -108 -28q-86 0 -171 61q-89 -61 -174 -61q-74 0 -123.5 42t-49.5 113q0 60 38.5 101.5t106.5 78.5q-23 67 -23 128q0 91 54 149t140 58q66 0 107 -35t41 -92q0 -18 -4 -34
t-14 -31t-18.5 -26.5t-27.5 -25t-29.5 -21.5t-35 -21t-34.5 -18t-38.5 -18.5t-36.5 -17.5q50 -116 141 -193q77 69 117 172h-95zM457 529q0 31 -20.5 52t-59.5 21q-53 0 -85 -38t-32 -101q0 -50 18 -106q85 44 132 83.5t47 88.5zM227 286q-90 -54 -90 -130q0 -53 33.5 -78.5
t86.5 -25.5q59 0 115 31q-92 83 -145 203z" />
    <glyph glyph-name="uni0027" unicode="'" horiz-adv-x="190" 
d="M210 377h-62l25 273h70z" />
    <glyph glyph-name="uni0028" unicode="(" horiz-adv-x="273" 
d="M282 718h66q-214 -244 -214 -506q0 -221 119 -395h-68q-111 177 -111 391q0 270 208 510z" />
    <glyph glyph-name="uni0029" unicode=")" horiz-adv-x="272" 
d="M-16 -183h-66q214 244 214 506q0 221 -119 395h68q111 -177 111 -391q0 -270 -208 -510z" />
    <glyph glyph-name="uni002A" unicode="*" horiz-adv-x="407" 
d="M451 556l-123 -67l109 -65l-34 -45l-99 70l-8 -116h-53l16 116l-114 -70l-23 45l122 65l-108 67l32 45l100 -72l9 121h53l-17 -120l113 71z" />
    <glyph glyph-name="uni002B" unicode="+" horiz-adv-x="414" 
d="M70 254l5 54h147l16 147h52l-16 -147h141l-5 -54h-142l-15 -146h-52l15 146h-146z" />
    <glyph glyph-name="uni002C" unicode="," horiz-adv-x="200" 
d="M-30 -102l74 216h68l-74 -216h-68z" />
    <glyph glyph-name="uni002D" unicode="-" horiz-adv-x="342" 
d="M104 261h228l-6 -61h-228z" />
    <glyph glyph-name="uni002E" unicode="." horiz-adv-x="208" 
d="M60 0l10 101h93l-10 -101h-93z" />
    <glyph glyph-name="uni002F" unicode="/" horiz-adv-x="376" 
d="M401 688l-288 -688h-65l286 688h67z" />
    <glyph glyph-name="uni0030" unicode="0" horiz-adv-x="566" 
d="M84 224q0 130 72 218t196 88q104 0 157 -64.5t53 -174.5q0 -134 -72 -217.5t-195 -83.5q-102 0 -156.5 62t-54.5 172zM160 232q0 -177 142 -177q86 0 135 63t49 173q0 174 -142 174q-88 0 -136 -62.5t-48 -170.5z" />
    <glyph glyph-name="uni0031" unicode="1" horiz-adv-x="375" 
d="M51 64h120l41 393h-119l6 64h191l-48 -457h115l-7 -64h-306z" />
    <glyph glyph-name="uni0032" unicode="2" horiz-adv-x="505" 
d="M146 362l-56 7l29 118q80 44 182 44q83 0 122.5 -41t39.5 -100q0 -30 -13 -61t-29 -55t-48.5 -53t-53.5 -46t-63.5 -43.5t-58 -35.5t-55.5 -32h253l18 83l58 -5l-24 -142h-398l-1 57q67 43 98.5 64t79.5 54.5t70 54t46.5 48t33.5 51.5t9 50q0 42 -28 65.5t-80 23.5
t-106 -23z" />
    <glyph glyph-name="uni0033" unicode="3" horiz-adv-x="504" 
d="M159 362l-56 7l28 110q79 52 167 52q74 0 122 -38t48 -105q0 -128 -140 -170v-4q71 -13 102.5 -52.5t31.5 -92.5q0 -94 -63.5 -152t-166.5 -58q-87 0 -134.5 39t-53.5 102l58 20q26 -98 132 -98q56 0 91.5 24t47.5 55t12 67q0 55 -40 83t-132 31l5 54q93 5 133 45.5
t40 92.5q0 44 -28.5 69t-84.5 25q-46 0 -92 -24z" />
    <glyph glyph-name="uni0034" unicode="4" horiz-adv-x="529" 
d="M363 -131h-71l18 167h-303l-1 62l273 423h152l-44 -423h104l-15 -62h-95zM316 98l38 360h-50l-230 -360h242z" />
    <glyph glyph-name="uni0035" unicode="5" horiz-adv-x="503" 
d="M468 79q0 -100 -60.5 -159.5t-166.5 -59.5q-85 0 -132 38.5t-53 101.5l58 20q20 -98 127 -98q73 0 111.5 40.5t38.5 108.5q0 78 -49 106.5t-138 28.5q-41 0 -83 -3l-22 24l32 294h354l-5 -138l-61 -6l-3 81h-225l-21 -191q16 1 49 1q54 0 95.5 -8t78 -28t56 -58.5
t19.5 -94.5z" />
    <glyph glyph-name="uni0036" unicode="6" horiz-adv-x="526" 
d="M521 229q0 -100 -57.5 -169.5t-169.5 -69.5q-106 0 -151 68t-45 197q0 78 14.5 147t45.5 128.5t86.5 94.5t130.5 35q111 0 173 -88l-48 -44q-48 69 -134 69q-175 0 -193 -306q21 46 68.5 79t118.5 33q83 0 122 -47t39 -127zM448 219q0 61 -26 91t-85 30q-73 0 -113.5 -42
t-51.5 -98q2 -69 30.5 -106.5t97.5 -37.5q75 0 111.5 45t36.5 118z" />
    <glyph glyph-name="uni0037" unicode="7" horiz-adv-x="463" 
d="M99 521h403l6 -42l-303 -609h-76l300 588h-272l-12 -111h-65z" />
    <glyph glyph-name="uni0038" unicode="8" horiz-adv-x="528" 
d="M260 -10q-90 0 -144 40.5t-54 116.5q0 71 45 111.5t126 73.5q-56 30 -87 64.5t-31 86.5q0 75 63 126t157 51q82 0 134 -40.5t52 -109.5q0 -61 -40 -97.5t-113 -68.5q65 -31 101 -69t36 -99q0 -83 -69.5 -134.5t-175.5 -51.5zM191 494q0 -42 32 -69t96 -57q62 27 95 57
t33 77t-32.5 71.5t-84.5 24.5q-60 0 -99.5 -28.5t-39.5 -75.5zM271 52q66 0 112.5 31.5t46.5 83.5q0 26 -11 46.5t-36.5 38.5t-44.5 27.5t-57 27.5q-35 -15 -56 -26.5t-44.5 -29t-34.5 -40.5t-11 -51q0 -52 37.5 -80t98.5 -28z" />
    <glyph glyph-name="uni0039" unicode="9" horiz-adv-x="525" 
d="M73 291q0 100 57.5 169.5t169.5 69.5q106 0 151 -68t45 -197q0 -78 -14.5 -147t-45.5 -128.5t-86.5 -94.5t-130.5 -35q-111 0 -173 88l48 44q48 -69 134 -69q175 0 193 306q-21 -46 -68.5 -79t-118.5 -33q-83 0 -122 47t-39 127zM146 301q0 -61 26 -91t85 -30
q73 0 113.5 42t51.5 98q-2 69 -30.5 106.5t-97.5 37.5q-75 0 -111.5 -45t-36.5 -118z" />
    <glyph glyph-name="uni003A" unicode=":" horiz-adv-x="220" 
d="M123 445h90l-11 -101h-89zM87 100h89l-10 -100h-90z" />
    <glyph glyph-name="uni003B" unicode=";" horiz-adv-x="232" 
d="M82 343l10 101h93l-10 -101h-93zM-12 -102l74 216h68l-74 -216h-68z" />
    <glyph glyph-name="uni003C" unicode="&#x3c;" horiz-adv-x="397" 
d="M342 14l-286 255l2 20l340 260l-9 -69l-256 -200l216 -197z" />
    <glyph glyph-name="uni003D" unicode="=" horiz-adv-x="565" 
d="M113 364l6 54h448l-6 -54h-448zM90 144l6 52h448l-6 -52h-448z" />
    <glyph glyph-name="uni003E" unicode="&#x3e;" horiz-adv-x="398" 
d="M398 269l-338 -255l7 69l258 197l-217 200l8 69l285 -260z" />
    <glyph glyph-name="uni003F" unicode="?" horiz-adv-x="438" 
d="M179 460l-57 5l21 120q81 75 183 75q70 0 119 -34t49 -94q0 -38 -23.5 -71.5t-57 -56.5t-66.5 -43.5t-56.5 -44t-23.5 -48.5q0 -37 48 -37l-5 -50q-62 -4 -90 18t-28 60q0 35 23 64.5t56 51t66 41.5t56 46.5t23 56.5q0 35 -27.5 55.5t-76.5 20.5q-60 0 -110 -39zM194 0
l10 97h87l-10 -97h-87z" />
    <glyph glyph-name="uni0040" unicode="@" horiz-adv-x="891" 
d="M649 307l-21 -173q0 -1 -1 -10t-1 -13q-1 -30 13 -50.5t45 -20.5q66 0 100.5 78t34.5 178q0 84 -25.5 145t-69.5 94.5t-94 48.5t-108 15q-172 0 -285.5 -116.5t-113.5 -294.5q0 -158 92 -246.5t232 -88.5q124 0 218 62l20 -45q-115 -72 -249 -72q-162 0 -267 107.5
t-105 277.5q0 194 132 332.5t324 138.5q67 0 128.5 -20t114.5 -59t85 -107t32 -156q0 -54 -12 -108t-36 -103.5t-67 -80t-98 -30.5q-51 0 -80 28.5t-31 71.5q-54 -100 -151 -100q-72 0 -111 50t-39 138q0 46 11 92t34 88.5t65 69t97 26.5q102 0 132 -85q13 54 20 76h66
q-24 -83 -31 -138zM467 397q-50 0 -83 -35.5t-44.5 -79.5t-11.5 -94q0 -69 25 -105t72 -36q51 0 88.5 41t50.5 92l13 101q0 51 -30.5 83.5t-79.5 32.5z" />
    <glyph glyph-name="uni0041" unicode="A" horiz-adv-x="632" 
d="M-41 64h60l262 522h-101l6 64h180l167 -586h62l-7 -64h-223l6 64h85l-33 125h-270l-61 -125h90l-6 -64h-222zM326 544l-145 -298h227l-78 298h-4z" />
    <glyph glyph-name="uni0042" unicode="B" horiz-adv-x="588" 
d="M381 650q87 0 132 -37t45 -101q0 -60 -35 -103.5t-88 -54.5l-1 -4q59 -10 89 -49.5t30 -97.5q0 -86 -62 -144.5t-170 -58.5h-295l6 64h79l55 522h-79l7 64h287zM339 366q63 0 103 34t40 91q0 95 -117 95h-129l-23 -220h126zM315 64q74 0 118 36.5t44 100.5
q0 105 -114 105h-156l-26 -242h134z" />
    <glyph glyph-name="uni0043" unicode="C" horiz-adv-x="630" 
d="M584 50q-80 -60 -210 -60q-136 0 -211 82t-75 217q0 156 95 263.5t251 107.5q132 0 210 -76l4 -125l-62 -6l-8 95q-62 46 -148 46q-120 0 -194 -81t-74 -218q0 -116 57.5 -177.5t168.5 -61.5q81 0 137 29l28 96l60 -6z" />
    <glyph glyph-name="uni0044" unicode="D" horiz-adv-x="686" 
d="M24 0l7 63h79l55 524h-79l6 63h282q140 0 215.5 -79t75.5 -210q0 -157 -98 -259t-258 -102h-285zM312 63q128 0 203.5 80.5t75.5 211.5q0 108 -58 170t-166 62h-132l-55 -524h132z" />
    <glyph glyph-name="uni0045" unicode="E" horiz-adv-x="573" 
d="M493 0h-469l6 64h80l56 522h-81l7 64h465v-184l-63 -7l-6 127h-251l-25 -224h302l-6 -64h-302l-25 -234h256l33 127l61 -7z" />
    <glyph glyph-name="uni0046" unicode="F" horiz-adv-x="544" 
d="M549 462l-65 -6l-6 130h-242l-27 -253h293l-7 -64h-293l-21 -205h113l-7 -64h-263l7 64h79l55 522h-80l7 64h456z" />
    <glyph glyph-name="uni0047" unicode="G" horiz-adv-x="675" 
d="M690 270h-50l-28 -270h-55v89q-33 -45 -88 -72t-122 -27q-119 0 -190 84.5t-71 216.5q0 157 98 263t252 106q67 0 124 -20.5t91 -55.5l4 -122l-61 -7l-10 92q-63 47 -152 47q-121 0 -196.5 -81.5t-75.5 -216.5q0 -114 54.5 -177t149.5 -63q84 0 138 46.5t61 109.5l6 58
h-153l7 65h274z" />
    <glyph glyph-name="uni0048" unicode="H" horiz-adv-x="733" 
d="M32 64h79l55 522h-79l7 64h229l-7 -64h-80l-23 -224h351l23 224h-79l7 64h229l-7 -64h-79l-55 -522h80l-7 -64h-229l7 64h78l25 236h-351l-25 -236h80l-6 -64h-229z" />
    <glyph glyph-name="uni0049" unicode="I" horiz-adv-x="311" 
d="M31 64h79l55 522h-80l7 64h229l-6 -64h-81l-55 -522h81l-7 -64h-229z" />
    <glyph glyph-name="uni004A" unicode="J" horiz-adv-x="442" 
d="M176 650h266l-6 -64h-70l-44 -420q-9 -87 -56.5 -131.5t-124.5 -44.5q-112 0 -147 99l55 40q16 -39 37.5 -54.5t55.5 -15.5q97 0 109 107l44 420h-125z" />
    <glyph glyph-name="uni004B" unicode="K" horiz-adv-x="623" 
d="M378 64h73l-142 235h-105l-25 -235h73l-7 -64h-223l8 64h78l55 522h-79l6 64h225l-7 -64h-74l-24 -224h103l184 225h-72l7 64h222l-7 -64h-70l-210 -249l167 -274h71l-7 -64h-228z" />
    <glyph glyph-name="uni004C" unicode="L" horiz-adv-x="528" 
d="M480 0h-456l6 64h80l55 522h-80l7 64h257l-6 -64h-107l-55 -522h242l35 149l63 -5z" />
    <glyph glyph-name="uni004D" unicode="M" horiz-adv-x="856" 
d="M33 64h78l55 522h-83l7 64h145l193 -506h4l292 506h146l-6 -64h-84l-55 -522h80l-6 -64h-225l6 64h74l44 413h-4l-259 -444h-38l-170 448h-4l-44 -417h76l-6 -64h-223z" />
    <glyph glyph-name="uni004E" unicode="N" horiz-adv-x="715" 
d="M43 64h73l55 522h-83l7 64h134l309 -502h3l45 438h-94l6 64h242l-6 -64h-80l-61 -586h-45l-314 512h-3l-48 -448h102l-6 -64h-243z" />
    <glyph glyph-name="uni004F" unicode="O" horiz-adv-x="710" 
d="M435 660q129 0 207 -86t78 -215q0 -152 -101 -260.5t-252 -108.5q-129 0 -206 86t-77 215q0 153 101.5 261t249.5 108zM378 56q119 0 192.5 87.5t73.5 210.5q0 108 -57.5 174t-159.5 66q-117 0 -192 -86.5t-75 -210.5q0 -104 56 -172.5t162 -68.5z" />
    <glyph glyph-name="uni0050" unicode="P" horiz-adv-x="561" 
d="M32 64h79l55 522h-79l7 64h261q102 0 154 -51t52 -130q0 -107 -65 -167t-172 -60h-124l-19 -178h110l-7 -64h-258zM321 306q79 0 122 42t43 118q0 57 -36 88.5t-107 31.5h-107l-29 -280h114z" />
    <glyph glyph-name="uni0051" unicode="Q" horiz-adv-x="720" 
d="M435 660q129 0 207 -86t78 -215q0 -162 -112 -271l83 -91l-47 -44l-86 94q-86 -57 -191 -57q-129 0 -206 86t-77 215q0 153 101.5 261t249.5 108zM420 200l47 44l97 -108q80 88 80 218q0 108 -57.5 174t-159.5 66q-117 0 -192 -86.5t-75 -210.5q0 -104 56 -172.5
t162 -68.5q78 0 137 39z" />
    <glyph glyph-name="uni0052" unicode="R" horiz-adv-x="599" 
d="M32 64h79l55 522h-79l7 64h265q103 0 155.5 -45t52.5 -120q0 -156 -157 -197l91 -224h80l-8 -64h-126l-106 272h-138l-22 -208h86l-6 -64h-235zM325 333q86 0 126.5 39.5t40.5 106.5q0 107 -149 107h-107l-26 -253h115z" />
    <glyph glyph-name="uni0053" unicode="S" horiz-adv-x="523" 
d="M492 194q0 -98 -62.5 -151t-177.5 -53q-62 0 -119 14.5t-85 38.5l26 128l57 -6l-11 -82q52 -29 132 -29q76 0 119.5 32t43.5 99q0 26 -7.5 45.5t-17.5 30.5t-30 20.5t-34.5 13.5t-41.5 10q-4 1 -7 1.5t-6 1.5q-37 9 -62.5 18.5t-53 27.5t-42 48t-14.5 72q0 92 65.5 139
t155.5 47q53 0 105.5 -15t78.5 -39l-7 -129l-60 -6v97q-47 27 -114 27q-69 0 -108.5 -30.5t-39.5 -84.5q0 -27 9 -45.5t30.5 -30.5t38.5 -17.5t51 -14.5q38 -9 59 -15t49.5 -20t43 -31t25.5 -45.5t11 -66.5z" />
    <glyph glyph-name="uni0054" unicode="T" 
d="M641 452l-64 -5l-5 139h-159l-55 -522h112l-6 -64h-293l7 64h109l55 522h-161l-34 -139l-63 5l39 198h520z" />
    <glyph glyph-name="uni0055" unicode="U" horiz-adv-x="696" 
d="M549 650h217l-6 -64h-62l-33 -319q-6 -56 -22.5 -102t-46.5 -87.5t-82.5 -64.5t-122.5 -23q-68 0 -116.5 21.5t-73.5 59.5t-34 84t-3 101l35 330h-65l6 64h225l-8 -64h-87l-34 -328q-21 -202 162 -202q177 0 200 211l33 319h-89z" />
    <glyph glyph-name="uni0056" unicode="V" horiz-adv-x="632" 
d="M694 586h-59l-289 -586h-58l-167 586h-61l6 64h228l-6 -64h-90l132 -478h4l228 478h-90l6 64h223z" />
    <glyph glyph-name="uni0057" unicode="W" horiz-adv-x="909" 
d="M970 586h-54l-230 -586h-58l-109 520h-5l-216 -520h-59l-117 586h-54l6 64h218l-7 -64h-90l85 -466h5l195 466h-64l7 64h218l-7 -64h-64l97 -469h6l170 469h-90l7 64h216z" />
    <glyph glyph-name="uni0058" unicode="X" horiz-adv-x="616" 
d="M558 0h-221l7 64h79l-140 221l-177 -221h74l-6 -64h-218l7 64h64l225 273l-160 249h-64l7 64h215l-6 -64h-71l126 -199l160 199h-64l8 64h213l-6 -64h-71l-209 -249l175 -273h60z" />
    <glyph glyph-name="uni0059" unicode="Y" horiz-adv-x="597" 
d="M657 586h-62l-232 -337l-20 -185h111l-7 -64h-289l6 64h108l20 185l-169 337h-63l7 64h229l-7 -64h-87l133 -270h5l182 270h-87l7 64h221z" />
    <glyph glyph-name="uni005A" unicode="Z" horiz-adv-x="563" 
d="M485 0h-475l1 44l431 539v3h-277l-41 -133l-59 9l44 188h434l5 -40l-433 -543l-1 -3h313l42 138l61 -9z" />
    <glyph glyph-name="uni005B" unicode="[" horiz-adv-x="279" 
d="M66 -213l102 963h172l-6 -52h-112l-90 -859h112l-6 -52h-172z" />
    <glyph glyph-name="uni005C" unicode="\" horiz-adv-x="506" 
d="M146 688h67l286 -688h-65z" />
    <glyph glyph-name="uni005D" unicode="]" horiz-adv-x="279" 
d="M214 750l-102 -963h-172l6 52h112l90 859h-112l6 52h172z" />
    <glyph glyph-name="uni005E" unicode="^" horiz-adv-x="445" 
d="M292 656h45l131 -283h-64l-97 214l-139 -214h-64z" />
    <glyph glyph-name="uni005F" unicode="_" horiz-adv-x="527" 
d="M27 -74h424l-5 -51h-424z" />
    <glyph glyph-name="uni0060" unicode="`" horiz-adv-x="431" 
d="M604 520l-182 104l35 59l166 -132z" />
    <glyph glyph-name="uni0061" unicode="a" horiz-adv-x="505" 
d="M488 445q-24 -86 -30 -138l-32 -250h67l-4 -40l-21 -17h-105l2 90q-54 -100 -152 -100q-72 0 -110.5 50t-38.5 138q0 46 11 91.5t33.5 88.5t64.5 69.5t97 26.5q102 0 132 -84q12 50 20 75h66zM277 397q-39 0 -67.5 -20t-43.5 -52t-22 -66t-7 -70q0 -69 25 -105.5
t72 -36.5q51 0 89 42t50 94l13 98q-1 51 -31 83.5t-78 32.5z" />
    <glyph glyph-name="uni0062" unicode="b" horiz-adv-x="504" 
d="M77 670l21 18h124l-41 -331q55 97 150 97q75 0 116.5 -51t41.5 -138q0 -46 -11 -92t-34.5 -88t-65.5 -68.5t-98 -26.5q-50 0 -86.5 21.5t-51.5 61.5q-4 -20 -19 -73h-67q24 84 29 130l61 501h-74zM274 47q50 0 83.5 36t46 80.5t12.5 91.5q0 68 -26 105t-77 37
q-53 0 -91.5 -41t-51.5 -94l-12 -97q0 -51 32.5 -84.5t83.5 -33.5z" />
    <glyph glyph-name="uni0063" unicode="c" horiz-adv-x="440" 
d="M281 397q-74 0 -110 -60.5t-36 -146.5q0 -143 105 -143q91 0 126 116l55 -13q-16 -68 -63 -114t-126 -46q-81 0 -125.5 51.5t-44.5 144.5q0 47 12 92t36.5 85.5t68.5 65.5t101 25q85 0 143 -45l6 -107l-59 -7l-9 76q-34 26 -80 26z" />
    <glyph glyph-name="uni0064" unicode="d" horiz-adv-x="510" 
d="M336 670l21 18h153l-78 -631h76l-4 -40l-22 -17h-114l2 91q-60 -101 -159 -101q-71 0 -110 50t-39 136q0 47 12 93.5t36 89t66.5 69t97.5 26.5q96 0 129 -74l31 251h-102zM281 397q-52 0 -86.5 -35t-47 -80t-12.5 -97q0 -138 98 -138q53 0 94.5 46t52.5 98l12 96
q-2 48 -33.5 79t-77.5 31z" />
    <glyph glyph-name="uni0065" unicode="e" horiz-adv-x="437" 
d="M244 47q87 0 121 90l55 -13q-15 -59 -64 -96.5t-123 -37.5q-82 0 -126.5 50t-44.5 143q0 116 62.5 193.5t162.5 77.5q61 0 102 -30.5t41 -80.5q0 -104 -159 -137q-85 -16 -136 -24q2 -135 109 -135zM242 248q69 16 92 38t23 51q0 62 -77 62q-65 0 -99.5 -48t-43.5 -119
q68 9 105 16z" />
    <glyph glyph-name="uni0066" unicode="f" horiz-adv-x="306" 
d="M146 698q65 0 107 -31l6 -104l-57 -7l-10 76q-22 10 -54 10q-74 0 -87 -108l-11 -89h130l-5 -36l-23 -21h-109l-55 -446q-21 -165 -145 -165q-54 0 -86.5 30.5t-31.5 94.5l55 16q-3 -84 59 -84q37 0 55.5 27t25.5 82l55 445h-85l4 37l23 20h65l11 86q10 80 52 123.5
t111 43.5z" />
    <glyph glyph-name="uni0067" unicode="g" horiz-adv-x="513" 
d="M396 445h127l-4 -39l-22 -18h-51l-47 -382q-14 -106 -66.5 -167.5t-149.5 -61.5q-69 0 -117.5 34.5t-57.5 98.5l52 26q10 -50 45.5 -74t82.5 -24q123 0 143 171l9 78q-57 -97 -156 -97q-71 0 -110 50t-39 135q0 47 12 94t36 89.5t66.5 69t97.5 26.5q101 0 132 -81z
M253 397q-73 0 -109 -65t-36 -147q0 -138 96 -138q53 0 94 42.5t54 94.5l12 92q1 53 -29.5 87t-81.5 34z" />
    <glyph glyph-name="uni0068" unicode="h" horiz-adv-x="505" 
d="M86 669l22 19h124l-40 -323q53 89 148 89q67 0 102.5 -42t24.5 -127l-28 -228h75l-5 -40l-21 -17h-123l32 264q17 133 -85 133q-50 0 -84.5 -35t-45.5 -84l-34 -278h-68l77 631h-76z" />
    <glyph glyph-name="uni0069" unicode="i" horiz-adv-x="255" 
d="M156 560l9 91h74l-9 -91h-74zM67 426l21 19h126l-47 -388h75l-5 -40l-22 -17h-123l47 388h-77z" />
    <glyph glyph-name="uni006A" unicode="j" horiz-adv-x="245" 
d="M49 560l9 91h74l-10 -91h-73zM-56 426l22 19h147l-57 -463q-12 -97 -47 -149.5t-90 -55.5q-37 -1 -79 18l3 51q122 -49 145 136l50 406h-99z" />
    <glyph glyph-name="uni006B" unicode="k" horiz-adv-x="446" 
d="M86 669l22 19h124l-53 -430h82q97 86 105 187h72q-9 -121 -137 -211l97 -177h62l-5 -40l-21 -17h-78l-109 205h-74l-25 -205h-68l77 631h-76z" />
    <glyph glyph-name="uni006C" unicode="l" horiz-adv-x="239" 
d="M99 669l20 19h127l-77 -631h74l-5 -40l-21 -17h-123l77 631h-77z" />
    <glyph glyph-name="uni006D" unicode="m" horiz-adv-x="787" 
d="M83 445h114l-3 -88q51 97 148 97q107 0 122 -103q48 103 150 103q66 0 100 -43t24 -126l-28 -228h75l-5 -40l-22 -17h-122l32 264q15 133 -83 133q-50 0 -80 -32t-42 -83l-34 -282h-67l32 264q15 133 -81 133q-57 0 -88 -38.5t-39 -97.5l-1 1l-31 -262h-67l47 388h-78
l5 38z" />
    <glyph glyph-name="uni006E" unicode="n" horiz-adv-x="523" 
d="M83 445h114l-1 -86q52 95 150 95q67 0 102.5 -42t25.5 -127l-28 -228h75l-5 -40l-21 -17h-123l32 264q15 133 -86 133q-51 0 -85.5 -35.5t-44.5 -87.5l-34 -274h-67l47 388h-78l5 38z" />
    <glyph glyph-name="uni006F" unicode="o" horiz-adv-x="480" 
d="M62 189q0 111 60.5 188t168.5 77q91 0 134 -55.5t43 -146.5q0 -114 -62 -188t-167 -74q-88 0 -132.5 53.5t-44.5 145.5zM136 193q0 -146 110 -146q74 0 111.5 57t37.5 146q0 147 -112 147q-71 0 -109 -55.5t-38 -148.5z" />
    <glyph glyph-name="uni0070" unicode="p" horiz-adv-x="520" 
d="M171 -195l-22 -18h-211l5 38l20 19h46l66 544h-77l5 38l21 19h115l-3 -92q54 101 153 101q75 0 116.5 -51t41.5 -138q0 -46 -11 -92t-34.5 -88t-66 -68.5t-98.5 -26.5q-98 0 -134 74l-27 -220h99zM232 47q38 0 67 20.5t44.5 53t22.5 66.5t7 68q0 67 -27 104.5t-76 37.5
q-53 0 -90.5 -40t-51.5 -93l-12 -99q0 -50 32.5 -84t83.5 -34z" />
    <glyph glyph-name="uni0071" unicode="q" horiz-adv-x="502" 
d="M463 -195l-22 -18h-205l5 38l21 19h76l29 243q-59 -97 -156 -97q-71 0 -110 50t-39 136q0 47 12 93.5t36 89t66.5 69t97.5 26.5q49 0 84 -22t49 -62q12 50 20 75h67q-24 -85 -31 -138l-57 -463h62zM281 397q-52 0 -86.5 -35t-47 -80t-12.5 -97q0 -138 98 -138
q52 0 93 43.5t54 95.5l11 96q0 49 -31.5 82t-78.5 33z" />
    <glyph glyph-name="uni0072" unicode="r" horiz-adv-x="343" 
d="M230 18l-21 -18h-211l5 38l21 19h50l41 331h-77l5 38l21 19h111l-2 -101q47 111 118 111q29 0 54 -17l-13 -71q-27 15 -53 15q-40 0 -70 -37t-41 -89l-26 -199h93z" />
    <glyph glyph-name="uni0073" unicode="s" horiz-adv-x="418" 
d="M201 47q108 0 108 77q0 25 -16 41.5t-32 22t-59 17.5q-7 2 -10 3q-55 14 -86 37.5t-31 75.5q0 63 46 98t113 35q90 0 154 -41l-2 -104l-55 -7l-4 71q-46 24 -87 24q-44 0 -69 -18.5t-25 -50.5q0 -28 21 -42.5t74 -28.5q26 -7 38.5 -10.5t35.5 -14t34.5 -22.5t21 -33
t9.5 -47q0 -65 -46.5 -102.5t-122.5 -37.5q-46 0 -95.5 12.5t-75.5 31.5l24 101l55 -6l-10 -62q39 -20 92 -20z" />
    <glyph glyph-name="uni0074" unicode="t" horiz-adv-x="343" 
d="M51 425l23 20h55l14 120l24 23h47l-18 -143h152l-5 -36l-23 -21h-131l-30 -251q-5 -46 7.5 -68t47.5 -22q25 0 43 17t32 68l50 -17q-18 -66 -48.5 -95.5t-84.5 -29.5q-62 0 -92.5 38t-22.5 103l31 257h-76z" />
    <glyph glyph-name="uni0075" unicode="u" horiz-adv-x="522" 
d="M503 57l-5 -38l-22 -19h-115l1 85q-51 -94 -147 -94q-67 0 -102 42t-26 127l28 228h-75l5 40l22 17h123l-32 -265q-9 -70 12 -101t73 -31q50 0 82.5 33.5t43.5 82.5l35 281h68l-47 -388h78z" />
    <glyph glyph-name="uni0076" unicode="v" horiz-adv-x="469" 
d="M238 406l-21 -18h-63l90 -306h6q129 146 129 270q0 51 -17 93h79q31 -132 -48 -260q-55 -87 -156 -185h-38l-117 388h-56l5 38l21 19h191z" />
    <glyph glyph-name="uni0077" unicode="w" horiz-adv-x="713" 
d="M502 82h4q60 73 87.5 137t27.5 135q0 51 -16 91h78q29 -142 -51 -273q-52 -90 -139 -172h-35l-76 335h-4l-157 -335h-41l-101 388h-51l5 38l22 19h189l-5 -39l-21 -18h-67l65 -280h4l155 337h46z" />
    <glyph glyph-name="uni0078" unicode="x" horiz-adv-x="477" 
d="M451 18l-21 -18h-186l4 38l21 19h46l-92 140q-144 -91 -117 -197h-78q-9 34 1.5 66t39 62t56.5 51.5t71 49.5l-110 159h-63l5 38l21 19h187l-5 -39l-21 -18h-48l84 -127q135 92 108 184h76q20 -52 -26 -104.5t-131 -111.5l117 -172h66z" />
    <glyph glyph-name="uni0079" unicode="y" horiz-adv-x="468" 
d="M244 82h6q128 143 128 270q0 49 -18 93h80q31 -132 -48 -260q-50 -81 -133 -164l-24 -177h77l-4 -39l-21 -18h-202l5 38l21 19h56l25 179l-109 365h-57l5 38l21 19h191l-5 -39l-21 -18h-62z" />
    <glyph glyph-name="uni007A" unicode="z" horiz-adv-x="448" 
d="M379 0h-356l-9 43l318 345h-202l-22 -89l-55 7l27 139h328l13 -42l-314 -346h222l33 90l55 -9z" />
    <glyph glyph-name="uni007B" unicode="{" horiz-adv-x="277" 
d="M130 267q88 -15 88 -78q0 -32 -57.5 -139t-57.5 -156q0 -54 56 -54h63l-6 -52h-63q-53 0 -81 27.5t-28 73.5q0 45 28.5 107t57 115.5t28.5 78.5q0 32 -29 44.5t-61 12.5h-18l4 40h18q21 0 41.5 4.5t41 20.5t20.5 43q0 24 -27 118t-27 144q0 62 34.5 97.5t98.5 35.5h63
l-5 -52h-63q-70 0 -70 -78q0 -43 28 -138t28 -124q0 -33 -25 -58t-80 -33z" />
    <glyph glyph-name="uni007C" unicode="|" horiz-adv-x="230" 
d="M240 730l-85 -810h-61l85 810h61z" />
    <glyph glyph-name="uni007D" unicode="}" horiz-adv-x="277" 
d="M149 271q-88 15 -88 78q0 32 57.5 139t57.5 156q0 54 -56 54h-63l6 52h63q53 0 81 -27.5t28 -73.5q0 -45 -28.5 -107t-57 -115.5t-28.5 -78.5q0 -32 29 -44.5t61 -12.5h18l-4 -40h-18q-21 0 -41.5 -4.5t-41 -20.5t-20.5 -43q0 -24 27 -118t27 -144q0 -62 -34.5 -97.5
t-98.5 -35.5h-63l5 52h63q70 0 70 78q0 43 -28 138t-28 124q0 33 25 58t80 33z" />
    <glyph glyph-name="uni007E" unicode="~" horiz-adv-x="603" 
d="M445 200q-47 0 -111 35.5t-105 35.5q-58 0 -104 -64l-39 27q64 102 153 102q42 0 106.5 -35.5t106.5 -35.5q31 0 55.5 16.5t54.5 60.5l43 -30q-74 -112 -160 -112z" />
    <glyph glyph-name="uni00A0" unicode="&#xa0;" horiz-adv-x="220" 
 />
    <glyph glyph-name="uni00A1" unicode="&#xa1;" horiz-adv-x="219" 
d="M187 448l-10 -97h-88l11 97h87zM36 -202l63 458h53l-34 -458h-82z" />
    <glyph glyph-name="uni00A2" unicode="&#xa2;" horiz-adv-x="450" 
d="M205 -84l8 76q-68 8 -105.5 58.5t-37.5 135.5q0 44 10.5 86.5t32.5 81.5t60 65.5t88 32.5l8 77h46l-8 -76q70 -3 124 -44l6 -107l-59 -7l-9 76q-30 22 -68 25l-36 -348q77 9 109 115l55 -13q-15 -63 -57.5 -108t-112.5 -51l-8 -75h-46zM143 190q0 -122 76 -140l36 343
q-57 -14 -84.5 -71t-27.5 -132z" />
    <glyph glyph-name="uni00A3" unicode="&#xa3;" horiz-adv-x="499" 
d="M61 281h65l6 53q10 99 62 147t120 48q81 0 135 -39l4 -117l-58 -7l-8 89q-29 17 -66 17q-53 0 -83 -32t-37 -105l-5 -54h175l-5 -46h-175l-3 -38q-11 -101 -80 -141h188q68 0 116 60l32 -33q-16 -28 -53.5 -55.5t-86.5 -27.5h-278l6 54q43 20 62 56t24 87l4 38h-66z" />
    <glyph glyph-name="uni00A4" unicode="&#xa4;" horiz-adv-x="503" 
d="M122 256q0 57 36 101l-81 94l33 30l80 -92q43 32 95 32q50 0 88 -33l103 93l26 -30l-103 -95q20 -35 20 -73q0 -56 -38 -102l82 -94l-33 -31l-82 93q-43 -30 -93 -30t-87 32l-104 -95l-26 31l104 95q-20 32 -20 74zM182 263q-1 -39 21.5 -63t57.5 -24q40 0 68.5 29.5
t28.5 74.5q0 38 -22 61t-56 23q-39 0 -68 -28.5t-30 -72.5z" />
    <glyph glyph-name="uni00A5" unicode="&#xa5;" horiz-adv-x="577" 
d="M196 56h90l6 54h-134l4 42h134l4 50l-2 4h-130l4 43h103l-118 216h-51l6 56h199l-6 -56h-70l108 -206h5l145 206h-71l6 56h192l-6 -56h-50l-157 -216h101l-4 -43h-129l-5 -8l-5 -46h133l-4 -42h-133l-6 -54h94l-6 -56h-254z" />
    <glyph glyph-name="uni00A6" unicode="&#xa6;" horiz-adv-x="211" 
d="M222 730l-32 -304h-61l32 304h61zM169 224l-32 -304h-61l32 304h61z" />
    <glyph glyph-name="uni00A7" unicode="&#xa7;" horiz-adv-x="578" 
d="M522 148q0 -72 -58 -115t-154 -43q-57 0 -116.5 15.5t-97.5 41.5l24 110l56 -6l-12 -76q58 -31 147 -31q61 0 101 23.5t40 70.5q0 15 -4 26t-15.5 19.5t-20 13.5t-31.5 10t-35.5 7.5t-44.5 7.5q-46 6 -75.5 12t-65.5 19t-54 34.5t-18 51.5q0 69 90 104q-27 29 -27 70
q0 68 58.5 107.5t155.5 39.5q104 0 181 -40l-6 -127l-59 -6v93q-57 27 -125 27q-59 0 -96.5 -21.5t-37.5 -63.5q0 -38 31.5 -55.5t95.5 -29.5q11 -2 39.5 -7t42.5 -7.5t39 -8.5t38.5 -11.5t31.5 -14.5t27 -19.5t15.5 -25.5t6.5 -33q0 -68 -83 -108q16 -22 16 -54zM522 296
q0 10 -3.5 19t-12 16t-17 12.5t-23.5 10.5t-26 8.5t-30 7t-30 5.5t-32 5t-30 5q-71 13 -103 29q-59 -22 -59 -64q0 -31 37 -45t139 -31q97 -16 136 -35q54 21 54 57z" />
    <glyph glyph-name="uni00A8" unicode="&#xa8;" horiz-adv-x="387" 
d="M238 555l9 85h78l-8 -85h-79zM406 555l8 85h80l-9 -85h-79z" />
    <glyph glyph-name="uni00A9" unicode="&#xa9;" horiz-adv-x="612" 
d="M666 285q0 -120 -87 -206t-203 -86q-103 0 -170.5 70t-67.5 173q0 119 87.5 206t204.5 87q104 0 170 -70t66 -174zM624 283q0 88 -54 146t-144 58q-102 0 -174 -73t-72 -175q0 -88 55.5 -146.5t143.5 -58.5q101 0 173 73t72 176zM502 122q-40 -31 -107 -31
q-71 0 -110.5 41t-39.5 110q0 81 51 136.5t130 55.5q69 0 107 -38l3 -65l-36 -4l-4 50q-29 22 -72 22q-62 0 -98.5 -43t-36.5 -111q0 -118 117 -118q37 0 63 13l14 51l35 -4z" />
    <glyph glyph-name="uni00AA" unicode="&#xaa;" horiz-adv-x="385" 
d="M428 695q-19 -58 -22 -94l-20 -151h43l-2 -32l-16 -13h-75l1 60q-35 -67 -101 -67q-48 0 -74 33.5t-26 89.5q0 42 12.5 81t45 69t80.5 30q69 0 88 -56q3 12 14 50h52zM281 657q-46 0 -67 -38.5t-21 -89.5q0 -86 60 -86q37 0 62.5 30t28.5 65v-1l6 50q0 32 -19.5 51
t-49.5 19z" />
    <glyph glyph-name="uni00AB" unicode="&#xab;" horiz-adv-x="441" 
d="M248 25h-59l-109 246l160 240h59l-152 -240zM409 25h-60l-109 246l160 240h60l-151 -240z" />
    <glyph glyph-name="uni00AC" unicode="&#xac;" horiz-adv-x="591" 
d="M519 99l16 157h-419l5 52h471l-22 -209h-51z" />
    <glyph glyph-name="uni00AE" unicode="&#xae;" horiz-adv-x="591" 
d="M342 159q-104 0 -177 72.5t-73 177.5q0 104 73 177.5t178 73.5t177.5 -73t72.5 -178q0 -104 -73.5 -177t-177.5 -73zM343 200q88 0 147.5 61t59.5 148q0 88 -58.5 149t-148.5 61t-149.5 -61t-59.5 -149t59.5 -148.5t149.5 -60.5zM223 308h36v220h-36v31h129
q52 0 78 -21.5t26 -58.5q0 -60 -63 -79l51 -92h36v-31h-63l-62 116h-57v-85h38v-31h-113v31zM345 423q68 0 68 55q0 50 -68 50h-47v-105h47z" />
    <glyph glyph-name="uni00AF" unicode="&#xaf;" horiz-adv-x="328" 
d="M206 621h240l-6 -57h-240z" />
    <glyph glyph-name="uni00B0" unicode="&#xb0;" horiz-adv-x="390" 
d="M263 342q-65 0 -103 40t-38 102q0 74 50 125t125 51q65 0 102.5 -40t37.5 -102q0 -74 -49 -125t-125 -51zM269 395q47 0 78 32t31 86q0 44 -24 69t-64 25q-47 0 -78.5 -32t-31.5 -87q0 -44 24.5 -68.5t64.5 -24.5z" />
    <glyph glyph-name="uni00B1" unicode="&#xb1;" horiz-adv-x="444" 
d="M77 259l6 54h146l16 147h53l-16 -147h141l-6 -54h-141l-15 -146h-52l15 146h-147zM50 0l5 53h340l-5 -53h-340z" />
    <glyph glyph-name="uni00B2" unicode="&#xb2;" horiz-adv-x="340" 
d="M178 667l-43 5l19 76q46 37 114 37q56 0 85 -25.5t29 -64.5q0 -23 -12.5 -49t-26.5 -45t-43.5 -45.5t-43 -37t-46.5 -34.5l-33 -24h154l12 53l48 -5l-18 -93h-268l-1 41q9 7 31.5 24t33.5 25.5t31.5 25t31.5 27t27 26t24.5 27.5t17.5 26t13 27t4 26q0 50 -63 50
q-31 0 -57 -17z" />
    <glyph glyph-name="uni00B3" unicode="&#xb3;" horiz-adv-x="336" 
d="M194 673l-43 5l16 69q46 37 115 37q48 0 78 -22.5t30 -60.5q0 -68 -82 -92v-2q79 -12 79 -84q0 -53 -41 -84t-102 -31q-53 0 -86.5 25.5t-35.5 71.5l43 12q2 -26 22.5 -45t56.5 -19q38 0 59.5 20.5t21.5 51.5q0 29 -22 44t-74 16l4 38q48 2 71.5 20.5t23.5 47.5
q0 48 -58 48q-30 0 -59 -16z" />
    <glyph glyph-name="uni00B4" unicode="&#xb4;" horiz-adv-x="431" 
d="M648 624l-182 -104l-18 31l165 132z" />
    <glyph glyph-name="uni00B5" unicode="&#xb5;" horiz-adv-x="558" 
d="M543 0h-147l8 82q-25 -43 -67.5 -67.5t-93.5 -24.5q-48 0 -80 24l-23 -227h-70l64 601h-76l6 57h146l-29 -268q-12 -130 90 -130q53 0 93 37.5t49 86.5l23 217h-90l6 57h159l-40 -388h79z" />
    <glyph glyph-name="uni00B6" unicode="&#xb6;" horiz-adv-x="606" 
d="M656 650l-7 -62h-74l-62 -588h-66l62 588h-62l-62 -588h-66l33 310h-57q-90 0 -142.5 37t-52.5 117q0 81 61.5 133.5t175.5 52.5h319z" />
    <glyph glyph-name="uni00B7" unicode="&#xb7;" horiz-adv-x="216" 
d="M118 257l10 101h93l-10 -101h-93z" />
    <glyph glyph-name="uni00B8" unicode="&#xb8;" horiz-adv-x="251" 
d="M195 6l-6 -53h8q79 0 79 -72q0 -44 -33.5 -67t-82.5 -23q-58 0 -90 30l21 41q27 -23 70 -23q55 0 55 44q0 37 -53 37h-29l11 86h50z" />
    <glyph glyph-name="uni00B9" unicode="&#xb9;" horiz-adv-x="254" 
d="M102 460h72l29 274h-73l4 45h131l-34 -319h72l-5 -45h-202z" />
    <glyph glyph-name="uni00BA" unicode="&#xba;" horiz-adv-x="354" 
d="M134 528q0 73 40 123t114 50q62 0 92.5 -36.5t30.5 -95.5q0 -75 -42.5 -123t-114.5 -48q-59 0 -89.5 34.5t-30.5 95.5zM191 532q0 -89 68 -89q47 0 70.5 35t23.5 89q0 90 -70 90q-45 0 -68.5 -33.5t-23.5 -91.5z" />
    <glyph glyph-name="uni00BB" unicode="&#xbb;" horiz-adv-x="442" 
d="M260 25h-58l152 246l-101 240h58l111 -240zM100 25h-60l152 246l-101 240h60l110 -240z" />
    <glyph glyph-name="uni00BC" unicode="&#xbc;" horiz-adv-x="691" 
d="M634 650l-219 -325l-213 -325h-52l227 337l206 313h51zM88 331h72l29 274h-73l4 45h131l-34 -319h72l-5 -45h-202zM557 0l10 94h-177l-1 44l151 226h111l-24 -228h62l-10 -42h-56l-10 -94h-56zM562 319l-122 -183h131l20 183h-29z" />
    <glyph glyph-name="uni00BD" unicode="&#xbd;" horiz-adv-x="731" 
d="M627 650l-219 -325l-213 -325h-52l227 337l206 313h51zM84 331h72l29 274h-73l4 45h131l-34 -319h72l-5 -45h-202zM514 252l-43 5l19 76q46 37 114 37q56 0 85 -25.5t29 -64.5q0 -23 -12.5 -49t-26.5 -45t-43.5 -45.5t-43 -37t-46.5 -34.5l-33 -24h154l12 53l48 -5
l-18 -93h-268l-1 41q9 7 31.5 24t33.5 25.5t31.5 25t31.5 27t27 26t24.5 27.5t17.5 26t13 27t4 26q0 50 -63 50q-31 0 -57 -17z" />
    <glyph glyph-name="uni00BE" unicode="&#xbe;" horiz-adv-x="718" 
d="M172 549l-43 5l16 69q46 37 115 37q48 0 78 -22.5t30 -60.5q0 -68 -82 -92v-2q79 -12 79 -84q0 -53 -41 -84t-102 -31q-53 0 -86.5 25.5t-35.5 71.5l43 12q2 -26 22.5 -45t56.5 -19q38 0 59.5 20.5t21.5 51.5q0 29 -22 44t-74 16l4 38q48 2 71.5 20.5t23.5 47.5
q0 48 -58 48q-30 0 -59 -16zM670 650l-219 -325l-213 -325h-52l227 337l206 313h51zM592 0l10 94h-177l-1 44l151 226h111l-24 -228h62l-10 -42h-56l-10 -94h-56zM597 319l-122 -183h131l20 183h-29z" />
    <glyph glyph-name="uni00BF" unicode="&#xbf;" horiz-adv-x="431" 
d="M282 448l-10 -97h-87l10 97h87zM297 -12l57 -5l-21 -120q-81 -75 -183 -75q-70 0 -119 34t-49 94q0 38 23.5 71.5t57 56.5t66.5 43.5t56.5 44t23.5 48.5q0 37 -48 37l5 50q62 4 90 -18t28 -60q0 -35 -23 -64.5t-56 -51t-66 -41.5t-56 -46.5t-23 -56.5q0 -35 27.5 -55.5
t76.5 -20.5q60 0 110 39z" />
    <glyph glyph-name="uni00C0" unicode="&#xc0;" horiz-adv-x="633" 
d="M390 703l-203 42l17 68l195 -73zM-41 64h60l262 522h-101l6 64h180l167 -586h62l-7 -64h-223l6 64h85l-33 125h-270l-61 -125h90l-6 -64h-222zM326 544l-145 -298h227l-78 298h-4z" />
    <glyph glyph-name="uni00C1" unicode="&#xc1;" horiz-adv-x="633" 
d="M507 745l-202 -42l-9 37l195 73zM-41 64h60l262 522h-101l6 64h180l167 -586h62l-7 -64h-223l6 64h85l-33 125h-270l-61 -125h90l-6 -64h-222zM326 544l-145 -298h227l-78 298h-4z" />
    <glyph glyph-name="uni00C2" unicode="&#xc2;" horiz-adv-x="633" 
d="M365 825l113 -89l-21 -34l-111 62l-120 -63l-18 32l136 92h21zM-41 64h60l262 522h-101l6 64h180l167 -586h62l-7 -64h-223l6 64h85l-33 125h-270l-61 -125h90l-6 -64h-222zM326 544l-145 -298h227l-78 298h-4z" />
    <glyph glyph-name="uni00C3" unicode="&#xc3;" horiz-adv-x="633" 
d="M223 705l-31 13q8 31 31.5 56.5t57.5 25.5q22 0 56 -17.5t58 -17.5q33 0 50 42l34 -9q-23 -89 -85 -89q-26 0 -62.5 17.5t-54.5 17.5q-37 0 -54 -39zM-41 64h60l262 522h-101l6 64h180l167 -586h62l-7 -64h-223l6 64h85l-33 125h-270l-61 -125h90l-6 -64h-222zM326 544
l-145 -298h227l-78 298h-4z" />
    <glyph glyph-name="uni00C4" unicode="&#xc4;" horiz-adv-x="633" 
d="M386 718l9 85h79l-8 -85h-80zM219 718l8 85h79l-9 -85h-78zM-41 64h60l262 522h-101l6 64h180l167 -586h62l-7 -64h-223l6 64h85l-33 125h-270l-61 -125h90l-6 -64h-222zM326 544l-145 -298h227l-78 298h-4z" />
    <glyph glyph-name="uni00C5" unicode="&#xc5;" horiz-adv-x="633" 
d="M339 690q-88 0 -88 82q0 46 29.5 74t79.5 28q43 0 65 -21.5t22 -59.5q0 -45 -28.5 -74t-79.5 -29zM343 730q27 0 41 16.5t14 43.5q0 44 -43 44q-26 0 -40.5 -16t-14.5 -44q0 -44 43 -44zM-41 64h60l262 522h-101l6 64h180l167 -586h62l-7 -64h-223l6 64h85l-33 125h-270
l-61 -125h90l-6 -64h-222zM326 544l-145 -298h227l-78 298h-4z" />
    <glyph glyph-name="uni00C6" unicode="&#xc6;" horiz-adv-x="904" 
d="M779 0h-473l6 64h79l14 125h-255l-73 -125h88l-7 -64h-224l6 64h64l309 522h-95l6 64h615l-1 -183l-62 -8l-6 127h-251l-24 -224h299l-6 -64h-299l-25 -234h259l34 127l61 -7zM411 246l35 340h-65l-198 -340h228z" />
    <glyph glyph-name="uni00C7" unicode="&#xc7;" horiz-adv-x="628" 
d="M582 50q-80 -60 -210 -60l-4 -37h8q79 0 79 -72q0 -44 -33.5 -67t-82.5 -23q-59 0 -90 30l21 41q27 -23 70 -23q55 0 55 44q0 37 -53 37h-29l9 73q-113 15 -174.5 94.5t-61.5 201.5q0 156 95 263.5t251 107.5q132 0 210 -76l4 -125l-62 -6l-8 95q-62 46 -148 46
q-120 0 -194 -81t-74 -218q0 -116 57.5 -177.5t168.5 -61.5q81 0 137 29l28 96l60 -6z" />
    <glyph glyph-name="uni00C8" unicode="&#xc8;" horiz-adv-x="573" 
d="M446 703l-203 42l17 68l195 -73zM493 0h-469l6 64h80l56 522h-81l7 64h465v-184l-63 -7l-6 127h-251l-25 -224h302l-6 -64h-302l-25 -234h256l33 127l61 -7z" />
    <glyph glyph-name="uni00C9" unicode="&#xc9;" horiz-adv-x="573" 
d="M512 745l-202 -42l-9 37l195 73zM493 0h-469l6 64h80l56 522h-81l7 64h465v-184l-63 -7l-6 127h-251l-25 -224h302l-6 -64h-302l-25 -234h256l33 127l61 -7z" />
    <glyph glyph-name="uni00CA" unicode="&#xca;" horiz-adv-x="573" 
d="M399 825l113 -89l-21 -34l-111 62l-120 -63l-18 32l136 92h21zM493 0h-469l6 64h80l56 522h-81l7 64h465v-184l-63 -7l-6 127h-251l-25 -224h302l-6 -64h-302l-25 -234h256l33 127l61 -7z" />
    <glyph glyph-name="uni00CB" unicode="&#xcb;" horiz-adv-x="573" 
d="M255 718l8 85h79l-9 -85h-78zM422 718l9 85h79l-8 -85h-80zM493 0h-469l6 64h80l56 522h-81l7 64h465v-184l-63 -7l-6 127h-251l-25 -224h302l-6 -64h-302l-25 -234h256l33 127l61 -7z" />
    <glyph glyph-name="uni00CC" unicode="&#xcc;" horiz-adv-x="311" 
d="M270 703l-203 42l17 68l195 -73zM31 64h79l55 522h-80l7 64h229l-6 -64h-81l-55 -522h81l-7 -64h-229z" />
    <glyph glyph-name="uni00CD" unicode="&#xcd;" horiz-adv-x="311" 
d="M356 745l-202 -42l-9 37l195 73zM31 64h79l55 522h-80l7 64h229l-6 -64h-81l-55 -522h81l-7 -64h-229z" />
    <glyph glyph-name="uni00CE" unicode="&#xce;" horiz-adv-x="311" 
d="M239 825l113 -89l-21 -34l-111 62l-120 -63l-18 32l136 92h21zM31 64h79l55 522h-80l7 64h229l-6 -64h-81l-55 -522h81l-7 -64h-229z" />
    <glyph glyph-name="uni00CF" unicode="&#xcf;" horiz-adv-x="311" 
d="M258 718l9 85h79l-8 -85h-80zM91 718l8 85h79l-9 -85h-78zM31 64h79l55 522h-80l7 64h229l-6 -64h-81l-55 -522h81l-7 -64h-229z" />
    <glyph glyph-name="uni00D0" unicode="&#xd0;" horiz-adv-x="687" 
d="M63 369h81l23 218h-79l6 63h282q140 0 215.5 -79t75.5 -210q0 -157 -98 -259t-258 -102h-285l7 63h79l26 248h-81zM314 63q128 0 203.5 80.5t75.5 211.5q0 108 -58 170t-166 62h-132l-23 -218h129l-6 -58h-129l-26 -248h132z" />
    <glyph glyph-name="uni00D1" unicode="&#xd1;" horiz-adv-x="715" 
d="M302 705l-31 13q8 31 31.5 56.5t57.5 25.5q22 0 56 -17.5t58 -17.5q33 0 50 42l34 -9q-23 -89 -85 -89q-26 0 -62.5 17.5t-54.5 17.5q-37 0 -54 -39zM43 64h73l55 522h-83l7 64h134l309 -502h3l45 438h-94l6 64h242l-6 -64h-80l-61 -586h-45l-314 512h-3l-48 -448h102
l-6 -64h-243z" />
    <glyph glyph-name="uni00D2" unicode="&#xd2;" horiz-adv-x="710" 
d="M482 703l-203 42l17 68l195 -73zM435 660q129 0 207 -86t78 -215q0 -152 -101 -260.5t-252 -108.5q-129 0 -206 86t-77 215q0 153 101.5 261t249.5 108zM378 56q119 0 192.5 87.5t73.5 210.5q0 108 -57.5 174t-159.5 66q-117 0 -192 -86.5t-75 -210.5q0 -104 56 -172.5
t162 -68.5z" />
    <glyph glyph-name="uni00D3" unicode="&#xd3;" horiz-adv-x="710" 
d="M591 745l-202 -42l-9 37l195 73zM435 660q129 0 207 -86t78 -215q0 -152 -101 -260.5t-252 -108.5q-129 0 -206 86t-77 215q0 153 101.5 261t249.5 108zM378 56q119 0 192.5 87.5t73.5 210.5q0 108 -57.5 174t-159.5 66q-117 0 -192 -86.5t-75 -210.5q0 -104 56 -172.5
t162 -68.5z" />
    <glyph glyph-name="uni00D4" unicode="&#xd4;" horiz-adv-x="710" 
d="M472 825l113 -89l-21 -34l-111 62l-120 -63l-18 32l136 92h21zM435 660q129 0 207 -86t78 -215q0 -152 -101 -260.5t-252 -108.5q-129 0 -206 86t-77 215q0 153 101.5 261t249.5 108zM378 56q119 0 192.5 87.5t73.5 210.5q0 108 -57.5 174t-159.5 66q-117 0 -192 -86.5
t-75 -210.5q0 -104 56 -172.5t162 -68.5z" />
    <glyph glyph-name="uni00D5" unicode="&#xd5;" horiz-adv-x="710" 
d="M338 705l-31 13q8 31 31.5 56.5t57.5 25.5q22 0 56 -17.5t58 -17.5q33 0 50 42l34 -9q-23 -89 -85 -89q-26 0 -62.5 17.5t-54.5 17.5q-37 0 -54 -39zM435 660q129 0 207 -86t78 -215q0 -152 -101 -260.5t-252 -108.5q-129 0 -206 86t-77 215q0 153 101.5 261t249.5 108z
M378 56q119 0 192.5 87.5t73.5 210.5q0 108 -57.5 174t-159.5 66q-117 0 -192 -86.5t-75 -210.5q0 -104 56 -172.5t162 -68.5z" />
    <glyph glyph-name="uni00D6" unicode="&#xd6;" horiz-adv-x="710" 
d="M326 718l8 85h79l-9 -85h-78zM493 718l9 85h79l-8 -85h-80zM435 660q129 0 207 -86t78 -215q0 -152 -101 -260.5t-252 -108.5q-129 0 -206 86t-77 215q0 153 101.5 261t249.5 108zM378 56q119 0 192.5 87.5t73.5 210.5q0 108 -57.5 174t-159.5 66q-117 0 -192 -86.5
t-75 -210.5q0 -104 56 -172.5t162 -68.5z" />
    <glyph glyph-name="uni00D7" unicode="&#xd7;" horiz-adv-x="381" 
d="M112 131l-32 38l114 106l-90 104l40 38l91 -105l111 103l32 -38l-110 -102l90 -103l-40 -39l-91 104z" />
    <glyph glyph-name="uni00D8" unicode="&#xd8;" horiz-adv-x="706" 
d="M433 660q99 0 173 -56l40 46h73l-73 -83q72 -85 72 -208q0 -152 -101 -260.5t-252 -108.5q-103 0 -176 57l-41 -47h-66l71 82q-71 83 -71 209q0 153 101.5 261t249.5 108zM158 297q0 -96 44 -158l358 412q-56 43 -135 43q-117 0 -192 -86.5t-75 -210.5zM376 56
q119 0 192.5 87.5t73.5 210.5q0 93 -45 157l-360 -410q55 -45 139 -45z" />
    <glyph glyph-name="uni00D9" unicode="&#xd9;" horiz-adv-x="696" 
d="M519 703l-203 42l17 68l195 -73zM549 650h217l-6 -64h-62l-33 -319q-6 -56 -22.5 -102t-46.5 -87.5t-82.5 -64.5t-122.5 -23q-68 0 -116.5 21.5t-73.5 59.5t-34 84t-3 101l35 330h-65l6 64h225l-8 -64h-87l-34 -328q-21 -202 162 -202q177 0 200 211l33 319h-89z" />
    <glyph glyph-name="uni00DA" unicode="&#xda;" horiz-adv-x="696" 
d="M616 745l-202 -42l-9 37l195 73zM549 650h217l-6 -64h-62l-33 -319q-6 -56 -22.5 -102t-46.5 -87.5t-82.5 -64.5t-122.5 -23q-68 0 -116.5 21.5t-73.5 59.5t-34 84t-3 101l35 330h-65l6 64h225l-8 -64h-87l-34 -328q-21 -202 162 -202q177 0 200 211l33 319h-89z" />
    <glyph glyph-name="uni00DB" unicode="&#xdb;" horiz-adv-x="696" 
d="M485 825l113 -89l-21 -34l-111 62l-120 -63l-18 32l136 92h21zM549 650h217l-6 -64h-62l-33 -319q-6 -56 -22.5 -102t-46.5 -87.5t-82.5 -64.5t-122.5 -23q-68 0 -116.5 21.5t-73.5 59.5t-34 84t-3 101l35 330h-65l6 64h225l-8 -64h-87l-34 -328q-21 -202 162 -202
q177 0 200 211l33 319h-89z" />
    <glyph glyph-name="uni00DC" unicode="&#xdc;" horiz-adv-x="696" 
d="M511 718l9 85h79l-8 -85h-80zM344 718l8 85h79l-9 -85h-78zM549 650h217l-6 -64h-62l-33 -319q-6 -56 -22.5 -102t-46.5 -87.5t-82.5 -64.5t-122.5 -23q-68 0 -116.5 21.5t-73.5 59.5t-34 84t-3 101l35 330h-65l6 64h225l-8 -64h-87l-34 -328q-21 -202 162 -202
q177 0 200 211l33 319h-89z" />
    <glyph glyph-name="uni00DD" unicode="&#xdd;" horiz-adv-x="597" 
d="M510 745l-202 -42l-9 37l195 73zM289 586h-87l133 -270h5l182 270h-87l7 64h221l-6 -64h-62l-232 -337l-20 -185h111l-7 -64h-289l6 64h108l20 185l-169 337h-63l7 64h229z" />
    <glyph glyph-name="uni00DE" unicode="&#xde;" horiz-adv-x="556" 
d="M31 64h79l55 522h-80l7 64h229l-6 -64h-81l-6 -61h120q104 0 153.5 -45t49.5 -124q0 -101 -66 -157t-172 -56h-125l-9 -79h81l-7 -64h-229zM309 194q79 0 122 42.5t43 115.5q0 122 -137 122h-115l-29 -280h116z" />
    <glyph glyph-name="uni00DF" unicode="&#xdf;" horiz-adv-x="599" 
d="M-120 388l4 37l23 20h65l9 69q11 89 75 136.5t158 47.5q85 0 137.5 -36.5t52.5 -101.5q0 -41 -22.5 -70t-55 -45t-65 -31t-55 -36t-22.5 -51q0 -29 19.5 -42t64.5 -26q79 -19 107 -38q44 -31 44 -91q0 -65 -46 -102.5t-122 -37.5q-48 0 -97 12.5t-76 31.5l24 101l55 -6
l-9 -62q39 -20 96 -20q50 0 76.5 20.5t26.5 57.5q0 36 -22.5 50.5t-77.5 27.5q-26 6 -39 10t-34.5 14t-32.5 20.5t-19.5 29t-8.5 42.5q0 40 23 69t55.5 46t64.5 32t55 37.5t23 52.5q0 40 -35 63t-92 23q-69 0 -110.5 -36t-49.5 -97l-69 -567q-22 -165 -145 -165
q-54 0 -86.5 30t-31.5 95l55 16q-4 -84 61 -84t79 109l55 445h-85z" />
    <glyph glyph-name="uni00E0" unicode="&#xe0;" horiz-adv-x="504" 
d="M342 520l-182 104l35 59l166 -132zM488 445q-24 -86 -30 -138l-32 -250h67l-4 -40l-21 -17h-105l2 90q-54 -100 -152 -100q-72 0 -110.5 50t-38.5 138q0 46 11 91.5t33.5 88.5t64.5 69.5t97 26.5q102 0 132 -84q12 50 20 75h66zM277 397q-39 0 -67.5 -20t-43.5 -52
t-22 -66t-7 -70q0 -69 25 -105.5t72 -36.5q51 0 89 42t50 94l13 98q-1 51 -31 83.5t-78 32.5z" />
    <glyph glyph-name="uni00E1" unicode="&#xe1;" horiz-adv-x="504" 
d="M471 624l-182 -104l-18 31l165 132zM488 445q-24 -86 -30 -138l-32 -250h67l-4 -40l-21 -17h-105l2 90q-54 -100 -152 -100q-72 0 -110.5 50t-38.5 138q0 46 11 91.5t33.5 88.5t64.5 69.5t97 26.5q102 0 132 -84q12 50 20 75h66zM277 397q-39 0 -67.5 -20t-43.5 -52
t-22 -66t-7 -70q0 -69 25 -105.5t72 -36.5q51 0 89 42t50 94l13 98q-1 51 -31 83.5t-78 32.5z" />
    <glyph glyph-name="uni00E2" unicode="&#xe2;" horiz-adv-x="504" 
d="M342 671l106 -121l-29 -31l-97 86l-110 -86l-24 31l132 121h22zM488 445q-24 -86 -30 -138l-32 -250h67l-4 -40l-21 -17h-105l2 90q-54 -100 -152 -100q-72 0 -110.5 50t-38.5 138q0 46 11 91.5t33.5 88.5t64.5 69.5t97 26.5q102 0 132 -84q12 50 20 75h66zM277 397
q-39 0 -67.5 -20t-43.5 -52t-22 -66t-7 -70q0 -69 25 -105.5t72 -36.5q51 0 89 42t50 94l13 98q-1 51 -31 83.5t-78 32.5z" />
    <glyph glyph-name="uni00E3" unicode="&#xe3;" horiz-adv-x="504" 
d="M217 549l-32 12q7 32 31.5 60t58.5 28q21 0 55 -18.5t58 -18.5q33 0 49 43l35 -9q-26 -93 -85 -93q-27 0 -63.5 19.5t-52.5 19.5q-37 0 -54 -43zM488 445q-24 -86 -30 -138l-32 -250h67l-4 -40l-21 -17h-105l2 90q-54 -100 -152 -100q-72 0 -110.5 50t-38.5 138
q0 46 11 91.5t33.5 88.5t64.5 69.5t97 26.5q102 0 132 -84q12 50 20 75h66zM277 397q-39 0 -67.5 -20t-43.5 -52t-22 -66t-7 -70q0 -69 25 -105.5t72 -36.5q51 0 89 42t50 94l13 98q-1 51 -31 83.5t-78 32.5z" />
    <glyph glyph-name="uni00E4" unicode="&#xe4;" horiz-adv-x="504" 
d="M370 555l8 85h80l-9 -85h-79zM202 555l9 85h78l-8 -85h-79zM488 445q-24 -86 -30 -138l-32 -250h67l-4 -40l-21 -17h-105l2 90q-54 -100 -152 -100q-72 0 -110.5 50t-38.5 138q0 46 11 91.5t33.5 88.5t64.5 69.5t97 26.5q102 0 132 -84q12 50 20 75h66zM277 397
q-39 0 -67.5 -20t-43.5 -52t-22 -66t-7 -70q0 -69 25 -105.5t72 -36.5q51 0 89 42t50 94l13 98q-1 51 -31 83.5t-78 32.5z" />
    <glyph glyph-name="uni00E5" unicode="&#xe5;" horiz-adv-x="504" 
d="M320 514q-42 0 -64 22t-22 59q0 46 29 74.5t79 28.5q41 0 64 -22t23 -59q0 -43 -29 -73t-80 -30zM325 554q27 0 41.5 16.5t14.5 43.5q0 44 -44 44q-26 0 -40 -16t-14 -44q0 -44 42 -44zM488 445q-24 -86 -30 -138l-32 -250h67l-4 -40l-21 -17h-105l2 90
q-54 -100 -152 -100q-72 0 -110.5 50t-38.5 138q0 46 11 91.5t33.5 88.5t64.5 69.5t97 26.5q102 0 132 -84q12 50 20 75h66zM277 397q-39 0 -67.5 -20t-43.5 -52t-22 -66t-7 -70q0 -69 25 -105.5t72 -36.5q51 0 89 42t50 94l13 98q-1 51 -31 83.5t-78 32.5z" />
    <glyph glyph-name="uni00E6" unicode="&#xe6;" horiz-adv-x="705" 
d="M249 400q-36 0 -83 -22l-25 -77l-55 7l26 103q60 43 153 43q97 0 128 -67q62 67 153 67q62 0 103 -30t41 -84q0 -101 -158 -134q-67 -13 -137 -22q2 -137 108 -137q88 0 121 90l56 -13q-15 -59 -64 -96.5t-124 -37.5q-117 0 -155 97q-59 -97 -162 -97q-54 0 -91.5 28
t-37.5 89q0 76 60 109t149 33q6 0 72 -3l1 4l4 38q5 54 -12.5 83t-70.5 29zM541 399q-65 0 -100 -47.5t-44 -119.5q79 10 104 16q117 24 117 88q0 63 -77 63zM192 45q47 0 83 32.5t48 80.5q-1 8 -1 25v22q-31 4 -72 4q-130 0 -130 -92q0 -72 72 -72z" />
    <glyph glyph-name="uni00E7" unicode="&#xe7;" horiz-adv-x="440" 
d="M281 397q-74 0 -110 -60.5t-36 -146.5q0 -143 105 -143q91 0 126 116l55 -13q-16 -65 -60 -110.5t-117 -49.5l-4 -37h8q79 0 79 -72q0 -44 -33.5 -67t-82.5 -23q-59 0 -90 30l21 41q27 -23 70 -23q55 0 55 44q0 37 -53 37h-29l9 74q-64 11 -98 61t-34 131q0 47 12 92
t36.5 85.5t68.5 65.5t101 25q85 0 143 -45l6 -107l-59 -7l-9 76q-34 26 -80 26z" />
    <glyph glyph-name="uni00E8" unicode="&#xe8;" horiz-adv-x="437" 
d="M335 520l-182 104l35 59l166 -132zM244 47q87 0 121 90l55 -13q-15 -59 -64 -96.5t-123 -37.5q-82 0 -126.5 50t-44.5 143q0 116 62.5 193.5t162.5 77.5q61 0 102 -30.5t41 -80.5q0 -104 -159 -137q-85 -16 -136 -24q2 -135 109 -135zM242 248q69 16 92 38t23 51
q0 62 -77 62q-65 0 -99.5 -48t-43.5 -119q68 9 105 16z" />
    <glyph glyph-name="uni00E9" unicode="&#xe9;" horiz-adv-x="437" 
d="M444 624l-182 -104l-18 31l165 132zM244 47q87 0 121 90l55 -13q-15 -59 -64 -96.5t-123 -37.5q-82 0 -126.5 50t-44.5 143q0 116 62.5 193.5t162.5 77.5q61 0 102 -30.5t41 -80.5q0 -104 -159 -137q-85 -16 -136 -24q2 -135 109 -135zM242 248q69 16 92 38t23 51
q0 62 -77 62q-65 0 -99.5 -48t-43.5 -119q68 9 105 16z" />
    <glyph glyph-name="uni00EA" unicode="&#xea;" horiz-adv-x="437" 
d="M326 671l106 -121l-29 -31l-97 86l-110 -86l-24 31l132 121h22zM244 47q87 0 121 90l55 -13q-15 -59 -64 -96.5t-123 -37.5q-82 0 -126.5 50t-44.5 143q0 116 62.5 193.5t162.5 77.5q61 0 102 -30.5t41 -80.5q0 -104 -159 -137q-85 -16 -136 -24q2 -135 109 -135z
M242 248q69 16 92 38t23 51q0 62 -77 62q-65 0 -99.5 -48t-43.5 -119q68 9 105 16z" />
    <glyph glyph-name="uni00EB" unicode="&#xeb;" horiz-adv-x="437" 
d="M342 555l8 85h80l-9 -85h-79zM174 555l9 85h78l-8 -85h-79zM244 47q87 0 121 90l55 -13q-15 -59 -64 -96.5t-123 -37.5q-82 0 -126.5 50t-44.5 143q0 116 62.5 193.5t162.5 77.5q61 0 102 -30.5t41 -80.5q0 -104 -159 -137q-85 -16 -136 -24q2 -135 109 -135zM242 248
q69 16 92 38t23 51q0 62 -77 62q-65 0 -99.5 -48t-43.5 -119q68 9 105 16z" />
    <glyph glyph-name="uni00EC" unicode="&#xec;" horiz-adv-x="256" 
d="M216 520l-182 104l35 59l166 -132zM53 426l21 19h126l-47 -388h75l-5 -40l-22 -17h-123l47 388h-77z" />
    <glyph glyph-name="uni00ED" unicode="&#xed;" horiz-adv-x="255" 
d="M326 624l-182 -104l-18 31l165 132zM67 426l21 19h126l-47 -388h75l-5 -40l-22 -17h-123l47 388h-77z" />
    <glyph glyph-name="uni00EE" unicode="&#xee;" horiz-adv-x="256" 
d="M202 671l106 -121l-29 -31l-97 86l-110 -86l-24 31l132 121h22zM60 426l21 19h126l-47 -388h75l-5 -40l-22 -17h-123l47 388h-77z" />
    <glyph glyph-name="uni00EF" unicode="&#xef;" horiz-adv-x="255" 
d="M234 555l8 85h80l-9 -85h-79zM66 555l9 85h78l-8 -85h-79zM67 426l21 19h126l-47 -388h75l-5 -40l-22 -17h-123l47 388h-77z" />
    <glyph glyph-name="uni00F0" unicode="&#xf0;" horiz-adv-x="490" 
d="M188 526l65 71q-38 28 -75 50l34 51q48 -28 83 -55l52 58l36 -27l-54 -60q144 -129 144 -315q0 -57 -12 -109.5t-37.5 -98.5t-72 -73.5t-107.5 -27.5q-88 0 -134 55t-46 149q0 110 60 185t155 75q69 0 109 -47q-24 91 -100 161l-64 -70zM280 397q-70 0 -106 -56t-36 -143
q0 -151 111 -151q35 0 62 15.5t42.5 38.5t26 55.5t14.5 60t5 58.5v4q-4 47 -33.5 82.5t-85.5 35.5z" />
    <glyph glyph-name="uni00F1" unicode="&#xf1;" horiz-adv-x="523" 
d="M208 549l-32 12q7 32 31.5 60t58.5 28q21 0 55 -18.5t58 -18.5q33 0 49 43l35 -9q-26 -93 -85 -93q-27 0 -63.5 19.5t-52.5 19.5q-37 0 -54 -43zM83 445h114l-1 -86q52 95 150 95q67 0 102.5 -42t25.5 -127l-28 -228h75l-5 -40l-21 -17h-123l32 264q15 133 -86 133
q-51 0 -85.5 -35.5t-44.5 -87.5l-34 -274h-67l47 388h-78l5 38z" />
    <glyph glyph-name="uni00F2" unicode="&#xf2;" horiz-adv-x="481" 
d="M342 520l-182 104l35 59l166 -132zM62 189q0 111 60.5 188t168.5 77q91 0 134 -55.5t43 -146.5q0 -114 -62 -188t-167 -74q-88 0 -132.5 53.5t-44.5 145.5zM136 193q0 -146 110 -146q74 0 111.5 57t37.5 146q0 147 -112 147q-71 0 -109 -55.5t-38 -148.5z" />
    <glyph glyph-name="uni00F3" unicode="&#xf3;" horiz-adv-x="481" 
d="M452 624l-182 -104l-18 31l165 132zM62 189q0 111 60.5 188t168.5 77q91 0 134 -55.5t43 -146.5q0 -114 -62 -188t-167 -74q-88 0 -132.5 53.5t-44.5 145.5zM136 193q0 -146 110 -146q74 0 111.5 57t37.5 146q0 147 -112 147q-71 0 -109 -55.5t-38 -148.5z" />
    <glyph glyph-name="uni00F4" unicode="&#xf4;" horiz-adv-x="481" 
d="M329 671l106 -121l-29 -31l-97 86l-110 -86l-24 31l132 121h22zM62 189q0 111 60.5 188t168.5 77q91 0 134 -55.5t43 -146.5q0 -114 -62 -188t-167 -74q-88 0 -132.5 53.5t-44.5 145.5zM136 193q0 -146 110 -146q74 0 111.5 57t37.5 146q0 147 -112 147q-71 0 -109 -55.5
t-38 -148.5z" />
    <glyph glyph-name="uni00F5" unicode="&#xf5;" horiz-adv-x="481" 
d="M199 549l-32 12q7 32 31.5 60t58.5 28q21 0 55 -18.5t58 -18.5q33 0 49 43l35 -9q-26 -93 -85 -93q-27 0 -63.5 19.5t-52.5 19.5q-37 0 -54 -43zM62 189q0 111 60.5 188t168.5 77q91 0 134 -55.5t43 -146.5q0 -114 -62 -188t-167 -74q-88 0 -132.5 53.5t-44.5 145.5z
M136 193q0 -146 110 -146q74 0 111.5 57t37.5 146q0 147 -112 147q-71 0 -109 -55.5t-38 -148.5z" />
    <glyph glyph-name="uni00F6" unicode="&#xf6;" horiz-adv-x="481" 
d="M187 555l9 85h78l-8 -85h-79zM355 555l8 85h80l-9 -85h-79zM62 189q0 111 60.5 188t168.5 77q91 0 134 -55.5t43 -146.5q0 -114 -62 -188t-167 -74q-88 0 -132.5 53.5t-44.5 145.5zM136 193q0 -146 110 -146q74 0 111.5 57t37.5 146q0 147 -112 147q-71 0 -109 -55.5
t-38 -148.5z" />
    <glyph glyph-name="uni00F7" unicode="&#xf7;" horiz-adv-x="437" 
d="M228 375l10 101h93l-10 -101h-93zM92 254l6 54h340l-6 -54h-340zM198 91l10 101h93l-10 -101h-93z" />
    <glyph glyph-name="uni00F8" unicode="&#xf8;" horiz-adv-x="478" 
d="M58 189q0 111 60.5 188t168.5 77q62 0 104 -28l15 19h58l-40 -51q40 -53 40 -142q0 -114 -62 -188t-167 -74q-64 0 -105 29l-15 -19h-59l40 51q-38 51 -38 138zM132 193q0 -50 11 -82l207 263q-26 23 -71 23q-71 0 -109 -55.5t-38 -148.5zM242 47q74 0 111.5 57t37.5 146
q0 50 -13 85l-208 -265q26 -23 72 -23z" />
    <glyph glyph-name="uni00F9" unicode="&#xf9;" horiz-adv-x="522" 
d="M335 520l-182 104l35 59l166 -132zM503 57l-5 -38l-22 -19h-115l1 85q-51 -94 -147 -94q-67 0 -102 42t-26 127l28 228h-75l5 40l22 17h123l-32 -265q-9 -70 12 -101t73 -31q50 0 82.5 33.5t43.5 82.5l35 281h68l-47 -388h78z" />
    <glyph glyph-name="uni00FA" unicode="&#xfa;" horiz-adv-x="522" 
d="M460 624l-182 -104l-18 31l165 132zM503 57l-5 -38l-22 -19h-115l1 85q-51 -94 -147 -94q-67 0 -102 42t-26 127l28 228h-75l5 40l22 17h123l-32 -265q-9 -70 12 -101t73 -31q50 0 82.5 33.5t43.5 82.5l35 281h68l-47 -388h78z" />
    <glyph glyph-name="uni00FB" unicode="&#xfb;" horiz-adv-x="522" 
d="M331 671l106 -121l-29 -31l-97 86l-110 -86l-24 31l132 121h22zM503 57l-5 -38l-22 -19h-115l1 85q-51 -94 -147 -94q-67 0 -102 42t-26 127l28 228h-75l5 40l22 17h123l-32 -265q-9 -70 12 -101t73 -31q50 0 82.5 33.5t43.5 82.5l35 281h68l-47 -388h78z" />
    <glyph glyph-name="uni00FC" unicode="&#xfc;" horiz-adv-x="522" 
d="M344 555l8 85h80l-9 -85h-79zM176 555l9 85h78l-8 -85h-79zM503 57l-5 -38l-22 -19h-115l1 85q-51 -94 -147 -94q-67 0 -102 42t-26 127l28 228h-75l5 40l22 17h123l-32 -265q-9 -70 12 -101t73 -31q50 0 82.5 33.5t43.5 82.5l35 281h68l-47 -388h78z" />
    <glyph glyph-name="uni00FD" unicode="&#xfd;" horiz-adv-x="468" 
d="M433 624l-182 -104l-18 31l165 132zM244 82h6q128 143 128 270q0 49 -18 93h80q31 -132 -48 -260q-50 -81 -133 -164l-24 -177h77l-4 -39l-21 -18h-202l5 38l21 19h56l25 179l-109 365h-57l5 38l21 19h191l-5 -39l-21 -18h-62z" />
    <glyph glyph-name="uni00FE" unicode="&#xfe;" horiz-adv-x="502" 
d="M133 -195l-22 -18h-211l5 38l21 19h45l97 787h-77l5 38l21 19h124l-14 -135l-24 -193q52 94 149 94q75 0 116 -51t41 -139q0 -46 -11.5 -91.5t-34.5 -87.5t-65.5 -68.5t-97.5 -26.5q-100 0 -135 74l-27 -220h100zM195 47q38 0 66.5 20.5t44 53t23 67t7.5 68.5
q0 66 -27.5 103.5t-76.5 37.5q-52 0 -89.5 -39.5t-51.5 -91.5l-12 -97l-1 -4q0 -51 32.5 -84.5t84.5 -33.5z" />
    <glyph glyph-name="uni00FF" unicode="&#xff;" horiz-adv-x="468" 
d="M320 555l8 85h80l-9 -85h-79zM152 555l9 85h78l-8 -85h-79zM244 82h6q128 143 128 270q0 49 -18 93h80q31 -132 -48 -260q-50 -81 -133 -164l-24 -177h77l-4 -39l-21 -18h-202l5 38l21 19h56l25 179l-109 365h-57l5 38l21 19h191l-5 -39l-21 -18h-62z" />
    <glyph glyph-name="uni0100" unicode="&#x100;" horiz-adv-x="633" 
d="M210 790h273l-6 -57h-273zM-41 64h60l262 522h-101l6 64h180l167 -586h62l-7 -64h-223l6 64h85l-33 125h-270l-61 -125h90l-6 -64h-222zM326 544l-145 -298h227l-78 298h-4z" />
    <glyph glyph-name="uni0101" unicode="&#x101;" horiz-adv-x="504" 
d="M208 621h240l-6 -57h-240zM488 445q-24 -86 -30 -138l-32 -250h67l-4 -40l-21 -17h-105l2 90q-54 -100 -152 -100q-72 0 -110.5 50t-38.5 138q0 46 11 91.5t33.5 88.5t64.5 69.5t97 26.5q102 0 132 -84q12 50 20 75h66zM277 397q-39 0 -67.5 -20t-43.5 -52t-22 -66
t-7 -70q0 -69 25 -105.5t72 -36.5q51 0 89 42t50 94l13 98q-1 51 -31 83.5t-78 32.5z" />
    <glyph glyph-name="uni0102" unicode="&#x102;" horiz-adv-x="633" 
d="M419 816h58q-13 -117 -133 -117q-119 0 -107 117h58q-4 -38 9.5 -53.5t44.5 -15.5q33 0 49.5 16t20.5 53zM-41 64h60l262 522h-101l6 64h180l167 -586h62l-7 -64h-223l6 64h85l-33 125h-270l-61 -125h90l-6 -64h-222zM326 544l-145 -298h227l-78 298h-4z" />
    <glyph glyph-name="uni0103" unicode="&#x103;" horiz-adv-x="504" 
d="M389 655h58q-13 -123 -133 -123q-58 0 -85.5 31.5t-20.5 91.5h58q-10 -75 54 -75q62 0 69 75zM488 445q-24 -86 -30 -138l-32 -250h67l-4 -40l-21 -17h-105l2 90q-54 -100 -152 -100q-72 0 -110.5 50t-38.5 138q0 46 11 91.5t33.5 88.5t64.5 69.5t97 26.5q102 0 132 -84
q12 50 20 75h66zM277 397q-39 0 -67.5 -20t-43.5 -52t-22 -66t-7 -70q0 -69 25 -105.5t72 -36.5q51 0 89 42t50 94l13 98q-1 51 -31 83.5t-78 32.5z" />
    <glyph glyph-name="uni0104" unicode="&#x104;" horiz-adv-x="632" 
d="M-41 64h60l262 522h-101l6 64h180l167 -586h62l-7 -64h-59q-74 -42 -74 -106q0 -49 52 -49q28 0 55 15l3 -49q-38 -20 -80 -20q-43 0 -68 22t-25 61q0 38 23.5 71.5t60.5 54.5h-111l6 64h85l-33 125h-270l-61 -125h90l-6 -64h-222zM326 544l-145 -298h227l-78 298h-4z
" />
    <glyph glyph-name="uni0105" unicode="&#x105;" horiz-adv-x="504" 
d="M480 -189q-38 -20 -80 -20q-43 0 -68 22t-25 61q0 38 23.5 71.5t60.5 54.5h-28l2 90q-54 -100 -152 -100q-72 0 -110.5 50t-38.5 138q0 46 11 91.5t33.5 88.5t64.5 69.5t97 26.5q102 0 132 -84q12 50 20 75h66q-24 -86 -30 -138l-32 -250h67l-4 -40l-21 -17h-24
q-74 -42 -74 -106q0 -49 52 -49q28 0 55 15zM277 397q-39 0 -67.5 -20t-43.5 -52t-22 -66t-7 -70q0 -69 25 -105.5t72 -36.5q51 0 89 42t50 94l13 98q-1 51 -31 83.5t-78 32.5z" />
    <glyph glyph-name="uni0106" unicode="&#x106;" horiz-adv-x="630" 
d="M584 745l-202 -42l-9 37l195 73zM584 50q-80 -60 -210 -60q-136 0 -211 82t-75 217q0 156 95 263.5t251 107.5q132 0 210 -76l4 -125l-62 -6l-8 95q-62 46 -148 46q-120 0 -194 -81t-74 -218q0 -116 57.5 -177.5t168.5 -61.5q81 0 137 29l28 96l60 -6z" />
    <glyph glyph-name="uni0107" unicode="&#x107;" horiz-adv-x="440" 
d="M445 624l-182 -104l-18 31l165 132zM281 397q-74 0 -110 -60.5t-36 -146.5q0 -143 105 -143q91 0 126 116l55 -13q-16 -68 -63 -114t-126 -46q-81 0 -125.5 51.5t-44.5 144.5q0 47 12 92t36.5 85.5t68.5 65.5t101 25q85 0 143 -45l6 -107l-59 -7l-9 76q-34 26 -80 26z
" />
    <glyph glyph-name="uni0108" unicode="&#x108;" horiz-adv-x="630" 
d="M456 825l113 -89l-21 -34l-111 62l-120 -63l-18 32l136 92h21zM584 50q-80 -60 -210 -60q-136 0 -211 82t-75 217q0 156 95 263.5t251 107.5q132 0 210 -76l4 -125l-62 -6l-8 95q-62 46 -148 46q-120 0 -194 -81t-74 -218q0 -116 57.5 -177.5t168.5 -61.5q81 0 137 29
l28 96l60 -6z" />
    <glyph glyph-name="uni0109" unicode="&#x109;" horiz-adv-x="440" 
d="M322 671l106 -121l-29 -31l-97 86l-110 -86l-24 31l132 121h22zM281 397q-74 0 -110 -60.5t-36 -146.5q0 -143 105 -143q91 0 126 116l55 -13q-16 -68 -63 -114t-126 -46q-81 0 -125.5 51.5t-44.5 144.5q0 47 12 92t36.5 85.5t68.5 65.5t101 25q85 0 143 -45l6 -107
l-59 -7l-9 76q-34 26 -80 26z" />
    <glyph glyph-name="uni010A" unicode="&#x10a;" horiz-adv-x="630" 
d="M398 718l8 85h79l-8 -85h-79zM584 50q-80 -60 -210 -60q-136 0 -211 82t-75 217q0 156 95 263.5t251 107.5q132 0 210 -76l4 -125l-62 -6l-8 95q-62 46 -148 46q-120 0 -194 -81t-74 -218q0 -116 57.5 -177.5t168.5 -61.5q81 0 137 29l28 96l60 -6z" />
    <glyph glyph-name="uni010B" unicode="&#x10b;" horiz-adv-x="440" 
d="M259 553l9 91h74l-9 -91h-74zM281 397q-74 0 -110 -60.5t-36 -146.5q0 -143 105 -143q91 0 126 116l55 -13q-16 -68 -63 -114t-126 -46q-81 0 -125.5 51.5t-44.5 144.5q0 47 12 92t36.5 85.5t68.5 65.5t101 25q85 0 143 -45l6 -107l-59 -7l-9 76q-34 26 -80 26z" />
    <glyph glyph-name="uni010C" unicode="&#x10c;" horiz-adv-x="630" 
d="M420 701l-114 89l22 33l110 -62l121 64l17 -33l-135 -91h-21zM584 50q-80 -60 -210 -60q-136 0 -211 82t-75 217q0 156 95 263.5t251 107.5q132 0 210 -76l4 -125l-62 -6l-8 95q-62 46 -148 46q-120 0 -194 -81t-74 -218q0 -116 57.5 -177.5t168.5 -61.5q81 0 137 29
l28 96l60 -6z" />
    <glyph glyph-name="uni010D" unicode="&#x10d;" horiz-adv-x="440" 
d="M275 519l-105 117l29 31l95 -82l111 85l23 -32l-131 -119h-22zM281 397q-74 0 -110 -60.5t-36 -146.5q0 -143 105 -143q91 0 126 116l55 -13q-16 -68 -63 -114t-126 -46q-81 0 -125.5 51.5t-44.5 144.5q0 47 12 92t36.5 85.5t68.5 65.5t101 25q85 0 143 -45l6 -107
l-59 -7l-9 76q-34 26 -80 26z" />
    <glyph glyph-name="uni010E" unicode="&#x10e;" horiz-adv-x="686" 
d="M360 701l-114 89l22 33l110 -62l121 64l17 -33l-135 -91h-21zM24 0l7 63h79l55 524h-79l6 63h282q140 0 215.5 -79t75.5 -210q0 -157 -98 -259t-258 -102h-285zM312 63q128 0 203.5 80.5t75.5 211.5q0 108 -58 170t-166 62h-132l-55 -524h132z" />
    <glyph glyph-name="uni010F" unicode="&#x10f;" horiz-adv-x="520" 
d="M336 670l21 18h153l-78 -631h76l-4 -40l-22 -17h-114l2 91q-60 -101 -159 -101q-71 0 -110 50t-39 136q0 47 12 93.5t36 89t66.5 69t97.5 26.5q96 0 129 -74l31 251h-102zM653 681l-45 -224h-56l36 224h65zM281 397q-52 0 -86.5 -35t-47 -80t-12.5 -97q0 -138 98 -138
q53 0 94.5 46t52.5 98l12 96q-2 48 -33.5 79t-77.5 31z" />
    <glyph glyph-name="uni0110" unicode="&#x110;" horiz-adv-x="687" 
d="M63 369h81l23 218h-79l6 63h282q140 0 215.5 -79t75.5 -210q0 -157 -98 -259t-258 -102h-285l7 63h79l26 248h-81zM314 63q128 0 203.5 80.5t75.5 211.5q0 108 -58 170t-166 62h-132l-23 -218h129l-6 -58h-129l-26 -248h132z" />
    <glyph glyph-name="uni0111" unicode="&#x111;" horiz-adv-x="510" 
d="M336 670l21 18h153l-16 -122h63l-4 -26l-23 -20h-41l-57 -463h76l-4 -40l-22 -17h-114l2 91q-60 -101 -159 -101q-71 0 -110 50t-39 136q0 47 12 93.5t36 89t66.5 69t97.5 26.5q96 0 129 -74l17 140h-170l4 25l23 21h149l8 65h-102zM281 397q-52 0 -86.5 -35t-47 -80
t-12.5 -97q0 -138 98 -138q53 0 94.5 46t52.5 98l12 96q-2 48 -33.5 79t-77.5 31z" />
    <glyph glyph-name="uni0112" unicode="&#x112;" horiz-adv-x="573" 
d="M238 790h273l-6 -57h-273zM493 0h-469l6 64h80l56 522h-81l7 64h465v-184l-63 -7l-6 127h-251l-25 -224h302l-6 -64h-302l-25 -234h256l33 127l61 -7z" />
    <glyph glyph-name="uni0113" unicode="&#x113;" horiz-adv-x="437" 
d="M184 621h240l-6 -57h-240zM244 47q87 0 121 90l55 -13q-15 -59 -64 -96.5t-123 -37.5q-82 0 -126.5 50t-44.5 143q0 116 62.5 193.5t162.5 77.5q61 0 102 -30.5t41 -80.5q0 -104 -159 -137q-85 -16 -136 -24q2 -135 109 -135zM242 248q69 16 92 38t23 51q0 62 -77 62
q-65 0 -99.5 -48t-43.5 -119q68 9 105 16z" />
    <glyph glyph-name="uni0114" unicode="&#x114;" horiz-adv-x="573" 
d="M445 816h58q-13 -117 -133 -117q-119 0 -107 117h58q-4 -38 9.5 -53.5t44.5 -15.5q33 0 49.5 16t20.5 53zM493 0h-469l6 64h80l56 522h-81l7 64h465v-184l-63 -7l-6 127h-251l-25 -224h302l-6 -64h-302l-25 -234h256l33 127l61 -7z" />
    <glyph glyph-name="uni0115" unicode="&#x115;" horiz-adv-x="437" 
d="M370 655h58q-13 -123 -133 -123q-58 0 -85.5 31.5t-20.5 91.5h58q-10 -75 54 -75q62 0 69 75zM244 47q87 0 121 90l55 -13q-15 -59 -64 -96.5t-123 -37.5q-82 0 -126.5 50t-44.5 143q0 116 62.5 193.5t162.5 77.5q61 0 102 -30.5t41 -80.5q0 -104 -159 -137
q-85 -16 -136 -24q2 -135 109 -135zM242 248q69 16 92 38t23 51q0 62 -77 62q-65 0 -99.5 -48t-43.5 -119q68 9 105 16z" />
    <glyph glyph-name="uni0116" unicode="&#x116;" horiz-adv-x="573" 
d="M331 718l8 85h79l-8 -85h-79zM493 0h-469l6 64h80l56 522h-81l7 64h465v-184l-63 -7l-6 127h-251l-25 -224h302l-6 -64h-302l-25 -234h256l33 127l61 -7z" />
    <glyph glyph-name="uni0117" unicode="&#x117;" horiz-adv-x="437" 
d="M255 553l9 91h74l-9 -91h-74zM244 47q87 0 121 90l55 -13q-15 -59 -64 -96.5t-123 -37.5q-82 0 -126.5 50t-44.5 143q0 116 62.5 193.5t162.5 77.5q61 0 102 -30.5t41 -80.5q0 -104 -159 -137q-85 -16 -136 -24q2 -135 109 -135zM242 248q69 16 92 38t23 51q0 62 -77 62
q-65 0 -99.5 -48t-43.5 -119q68 9 105 16z" />
    <glyph glyph-name="uni0118" unicode="&#x118;" horiz-adv-x="572" 
d="M491 0h-40q-74 -42 -74 -106q0 -49 52 -49q28 0 55 15l3 -49q-38 -20 -80 -20q-43 0 -68 22t-25 61q0 38 23.5 71.5t60.5 54.5h-376l6 64h80l56 522h-81l7 64h465v-184l-63 -7l-6 127h-251l-25 -224h302l-6 -64h-302l-25 -234h256l33 127l61 -7z" />
    <glyph glyph-name="uni0119" unicode="&#x119;" horiz-adv-x="437" 
d="M333 -189q-38 -20 -80 -20q-43 0 -68 22t-25 61q0 69 68 116q-79 2 -122.5 51.5t-43.5 141.5q0 116 62.5 193.5t162.5 77.5q61 0 102 -30.5t41 -80.5q0 -104 -159 -137q-85 -16 -136 -24q2 -135 109 -135q87 0 121 90l55 -13q-12 -45 -45 -79t-82 -47q-70 -42 -70 -104
q0 -49 52 -49q28 0 55 15zM242 248q69 16 92 38t23 51q0 62 -77 62q-65 0 -99.5 -48t-43.5 -119q68 9 105 16z" />
    <glyph glyph-name="uni011A" unicode="&#x11a;" horiz-adv-x="573" 
d="M355 701l-114 89l22 33l110 -62l121 64l17 -33l-135 -91h-21zM493 0h-469l6 64h80l56 522h-81l7 64h465v-184l-63 -7l-6 127h-251l-25 -224h302l-6 -64h-302l-25 -234h256l33 127l61 -7z" />
    <glyph glyph-name="uni011B" unicode="&#x11b;" horiz-adv-x="437" 
d="M280 519l-105 117l29 31l95 -82l111 85l23 -32l-131 -119h-22zM244 47q87 0 121 90l55 -13q-15 -59 -64 -96.5t-123 -37.5q-82 0 -126.5 50t-44.5 143q0 116 62.5 193.5t162.5 77.5q61 0 102 -30.5t41 -80.5q0 -104 -159 -137q-85 -16 -136 -24q2 -135 109 -135zM242 248
q69 16 92 38t23 51q0 62 -77 62q-65 0 -99.5 -48t-43.5 -119q68 9 105 16z" />
    <glyph glyph-name="uni011C" unicode="&#x11c;" horiz-adv-x="675" 
d="M450 825l113 -89l-21 -34l-111 62l-120 -63l-18 32l136 92h21zM690 270h-50l-28 -270h-55v89q-33 -45 -88 -72t-122 -27q-119 0 -190 84.5t-71 216.5q0 157 98 263t252 106q67 0 124 -20.5t91 -55.5l4 -122l-61 -7l-10 92q-63 47 -152 47q-121 0 -196.5 -81.5
t-75.5 -216.5q0 -114 54.5 -177t149.5 -63q84 0 138 46.5t61 109.5l6 58h-153l7 65h274z" />
    <glyph glyph-name="uni011D" unicode="&#x11d;" horiz-adv-x="513" 
d="M316 671l106 -121l-29 -31l-97 86l-110 -86l-24 31l132 121h22zM396 445h127l-4 -39l-22 -18h-51l-47 -382q-14 -106 -66.5 -167.5t-149.5 -61.5q-69 0 -117.5 34.5t-57.5 98.5l52 26q10 -50 45.5 -74t82.5 -24q123 0 143 171l9 78q-57 -97 -156 -97q-71 0 -110 50
t-39 135q0 47 12 94t36 89.5t66.5 69t97.5 26.5q101 0 132 -81zM253 397q-73 0 -109 -65t-36 -147q0 -138 96 -138q53 0 94 42.5t54 94.5l12 92q1 53 -29.5 87t-81.5 34z" />
    <glyph glyph-name="uni011E" unicode="&#x11e;" horiz-adv-x="675" 
d="M502 816h58q-13 -117 -133 -117q-119 0 -107 117h58q-4 -38 9.5 -53.5t44.5 -15.5q33 0 49.5 16t20.5 53zM690 270h-50l-28 -270h-55v89q-33 -45 -88 -72t-122 -27q-119 0 -190 84.5t-71 216.5q0 157 98 263t252 106q67 0 124 -20.5t91 -55.5l4 -122l-61 -7l-10 92
q-63 47 -152 47q-121 0 -196.5 -81.5t-75.5 -216.5q0 -114 54.5 -177t149.5 -63q84 0 138 46.5t61 109.5l6 58h-153l7 65h274z" />
    <glyph glyph-name="uni011F" unicode="&#x11f;" horiz-adv-x="513" 
d="M368 655h58q-13 -123 -133 -123q-58 0 -85.5 31.5t-20.5 91.5h58q-10 -75 54 -75q62 0 69 75zM396 445h127l-4 -39l-22 -18h-51l-47 -382q-14 -106 -66.5 -167.5t-149.5 -61.5q-69 0 -117.5 34.5t-57.5 98.5l52 26q10 -50 45.5 -74t82.5 -24q123 0 143 171l9 78
q-57 -97 -156 -97q-71 0 -110 50t-39 135q0 47 12 94t36 89.5t66.5 69t97.5 26.5q101 0 132 -81zM253 397q-73 0 -109 -65t-36 -147q0 -138 96 -138q53 0 94 42.5t54 94.5l12 92q1 53 -29.5 87t-81.5 34z" />
    <glyph glyph-name="uni0120" unicode="&#x120;" horiz-adv-x="675" 
d="M390 718l8 85h79l-8 -85h-79zM690 270h-50l-28 -270h-55v89q-33 -45 -88 -72t-122 -27q-119 0 -190 84.5t-71 216.5q0 157 98 263t252 106q67 0 124 -20.5t91 -55.5l4 -122l-61 -7l-10 92q-63 47 -152 47q-121 0 -196.5 -81.5t-75.5 -216.5q0 -114 54.5 -177t149.5 -63
q84 0 138 46.5t61 109.5l6 58h-153l7 65h274z" />
    <glyph glyph-name="uni0121" unicode="&#x121;" horiz-adv-x="513" 
d="M253 553l9 91h74l-9 -91h-74zM396 445h127l-4 -39l-22 -18h-51l-47 -382q-14 -106 -66.5 -167.5t-149.5 -61.5q-69 0 -117.5 34.5t-57.5 98.5l52 26q10 -50 45.5 -74t82.5 -24q123 0 143 171l9 78q-57 -97 -156 -97q-71 0 -110 50t-39 135q0 47 12 94t36 89.5t66.5 69
t97.5 26.5q101 0 132 -81zM253 397q-73 0 -109 -65t-36 -147q0 -138 96 -138q53 0 94 42.5t54 94.5l12 92q1 53 -29.5 87t-81.5 34z" />
    <glyph glyph-name="uni0122" unicode="&#x122;" horiz-adv-x="675" 
d="M690 270h-50l-28 -270h-55v89q-33 -45 -88 -72t-122 -27q-119 0 -190 84.5t-71 216.5q0 157 98 263t252 106q67 0 124 -20.5t91 -55.5l4 -122l-61 -7l-10 92q-63 47 -152 47q-121 0 -196.5 -81.5t-75.5 -216.5q0 -114 54.5 -177t149.5 -63q84 0 138 46.5t61 109.5l6 58
h-153l7 65h274zM386 -64l-34 -154h-56l24 154h66z" />
    <glyph glyph-name="uni0123" unicode="&#x123;" horiz-adv-x="513" 
d="M257 544l34 154h56l-24 -154h-66zM396 445h127l-4 -39l-22 -18h-51l-47 -382q-14 -106 -66.5 -167.5t-149.5 -61.5q-69 0 -117.5 34.5t-57.5 98.5l52 26q10 -50 45.5 -74t82.5 -24q123 0 143 171l9 78q-57 -97 -156 -97q-71 0 -110 50t-39 135q0 47 12 94t36 89.5
t66.5 69t97.5 26.5q101 0 132 -81zM253 397q-73 0 -109 -65t-36 -147q0 -138 96 -138q53 0 94 42.5t54 94.5l12 92q1 53 -29.5 87t-81.5 34z" />
    <glyph glyph-name="uni0124" unicode="&#x124;" horiz-adv-x="732" 
d="M452 825l113 -89l-21 -34l-111 62l-120 -63l-18 32l136 92h21zM32 64h79l55 522h-79l7 64h229l-7 -64h-80l-23 -224h351l23 224h-79l7 64h229l-7 -64h-79l-55 -522h80l-7 -64h-229l7 64h78l25 236h-351l-25 -236h80l-6 -64h-229z" />
    <glyph glyph-name="uni0125" unicode="&#x125;" horiz-adv-x="505" 
d="M186 867l106 -121l-29 -31l-97 86l-110 -86l-24 31l132 121h22zM62 669l22 19h124l-40 -323q53 89 148 89q67 0 102.5 -42t24.5 -127l-28 -228h75l-5 -40l-21 -17h-123l32 264q17 133 -85 133q-50 0 -84.5 -35t-45.5 -84l-34 -278h-68l77 631h-76z" />
    <glyph glyph-name="uni0126" unicode="&#x126;" horiz-adv-x="734" 
d="M456 64h78l25 236h-351l-25 -236h80l-6 -64h-229l6 64h79l42 398h-75l4 48h76l8 76h-79l7 64h229l-7 -64h-80l-8 -76h351l8 76h-79l7 64h229l-7 -64h-79l-8 -76h76l-5 -48h-76l-42 -398h80l-7 -64h-229zM215 362h351l10 100h-351z" />
    <glyph glyph-name="uni0127" unicode="&#x127;" horiz-adv-x="505" 
d="M56 669l22 19h124l-15 -122h139l-4 -26l-23 -20h-118l-19 -155q53 89 148 89q67 0 102.5 -42t24.5 -127l-28 -228h75l-5 -40l-21 -17h-123l32 264q17 133 -85 133q-50 0 -84.5 -35t-45.5 -84l-34 -278h-68l63 520h-93l3 25l23 21h73l8 65h-76z" />
    <glyph glyph-name="uni0128" unicode="&#x128;" horiz-adv-x="311" 
d="M111 705l-31 13q8 31 31.5 56.5t57.5 25.5q22 0 56 -17.5t58 -17.5q33 0 50 42l34 -9q-23 -89 -85 -89q-26 0 -62.5 17.5t-54.5 17.5q-37 0 -54 -39zM31 64h79l55 522h-80l7 64h229l-6 -64h-81l-55 -522h81l-7 -64h-229z" />
    <glyph glyph-name="uni0129" unicode="&#x129;" horiz-adv-x="255" 
d="M50 549l-32 12q7 32 31.5 60t58.5 28q21 0 55 -18.5t58 -18.5q33 0 49 43l35 -9q-26 -93 -85 -93q-27 0 -63.5 19.5t-52.5 19.5q-37 0 -54 -43zM45 426l21 19h126l-47 -388h75l-5 -40l-22 -17h-123l47 388h-77z" />
    <glyph glyph-name="uni012A" unicode="&#x12a;" horiz-adv-x="311" 
d="M87 790h273l-6 -57h-273zM31 64h79l55 522h-80l7 64h229l-6 -64h-81l-55 -522h81l-7 -64h-229z" />
    <glyph glyph-name="uni012B" unicode="&#x12b;" horiz-adv-x="256" 
d="M58 621h240l-6 -57h-240zM62 426l21 19h126l-47 -388h75l-5 -40l-22 -17h-123l47 388h-77z" />
    <glyph glyph-name="uni012C" unicode="&#x12c;" horiz-adv-x="311" 
d="M282 816h58q-13 -117 -133 -117q-119 0 -107 117h58q-4 -38 9.5 -53.5t44.5 -15.5q33 0 49.5 16t20.5 53zM31 64h79l55 522h-80l7 64h229l-6 -64h-81l-55 -522h81l-7 -64h-229z" />
    <glyph glyph-name="uni012D" unicode="&#x12d;" horiz-adv-x="256" 
d="M263 655h58q-13 -123 -133 -123q-58 0 -85.5 31.5t-20.5 91.5h58q-10 -75 54 -75q62 0 69 75zM67 426l21 19h126l-47 -388h75l-5 -40l-22 -17h-123l47 388h-77z" />
    <glyph glyph-name="uni012E" unicode="&#x12e;" horiz-adv-x="310" 
d="M204 -189q-38 -20 -80 -20q-43 0 -68 22t-25 61q0 38 23.5 71.5t60.5 54.5h-91l7 64h79l55 522h-80l7 64h229l-6 -64h-81l-55 -522h81l-7 -64h-85q-74 -42 -74 -106q0 -49 52 -49q28 0 55 15z" />
    <glyph glyph-name="uni012F" unicode="&#x12f;" horiz-adv-x="256" 
d="M146 560l9 91h74l-9 -91h-74zM215 -189q-38 -20 -80 -20q-43 0 -68 22t-25 61q0 38 23.5 71.5t60.5 54.5h-44l47 388h-77l5 38l21 19h126l-47 -388h75l-5 -40l-22 -17h-26q-74 -42 -74 -106q0 -49 52 -49q28 0 55 15z" />
    <glyph glyph-name="uni0130" unicode="&#x130;" horiz-adv-x="311" 
d="M173 718l8 85h79l-8 -85h-79zM31 64h79l55 522h-80l7 64h229l-6 -64h-81l-55 -522h81l-7 -64h-229z" />
    <glyph glyph-name="uni0131" unicode="&#x131;" horiz-adv-x="255" 
d="M67 426l21 19h126l-47 -388h75l-5 -40l-22 -17h-123l47 388h-77z" />
    <glyph glyph-name="uni0132" unicode="&#x132;" horiz-adv-x="753" 
d="M502 650h266l-6 -64h-70l-44 -420q-9 -87 -56.5 -131.5t-124.5 -44.5q-112 0 -147 99l55 40q16 -39 37.5 -54.5t55.5 -15.5q97 0 109 107l44 420h-125zM31 64h79l55 522h-80l7 64h229l-6 -64h-81l-55 -522h81l-7 -64h-229z" />
    <glyph glyph-name="uni0133" unicode="&#x133;" horiz-adv-x="500" 
d="M156 560l9 91h74l-9 -91h-74zM415 560l9 91h74l-10 -91h-73zM310 426l22 19h147l-57 -463q-12 -97 -47 -149.5t-90 -55.5q-37 -1 -79 18l3 51q122 -49 145 136l50 406h-99zM67 426l21 19h126l-47 -388h75l-5 -40l-22 -17h-123l47 388h-77z" />
    <glyph glyph-name="uni0134" unicode="&#x134;" horiz-adv-x="442" 
d="M343 825l113 -89l-21 -34l-111 62l-120 -63l-18 32l136 92h21zM176 650h266l-6 -64h-70l-44 -420q-9 -87 -56.5 -131.5t-124.5 -44.5q-112 0 -147 99l55 40q16 -39 37.5 -54.5t55.5 -15.5q97 0 109 107l44 420h-125z" />
    <glyph glyph-name="uni0135" unicode="&#x135;" horiz-adv-x="246" 
d="M90 671l106 -121l-29 -31l-97 86l-110 -86l-24 31l132 121h22zM-54 426l21 19h148l-57 -463q-12 -98 -48 -150.5t-92 -54.5q-36 -1 -76 18l4 51q122 -51 145 136l49 406h-99z" />
    <glyph glyph-name="uni0136" unicode="&#x136;" horiz-adv-x="622" 
d="M30 64h78l55 522h-79l6 64h225l-7 -64h-74l-24 -224h103l184 225h-72l7 64h222l-7 -64h-70l-210 -249l167 -274h71l-7 -64h-228l8 64h73l-142 235h-105l-25 -235h73l-7 -64h-223zM335 -64l-34 -154h-56l24 154h66z" />
    <glyph glyph-name="uni0137" unicode="&#x137;" horiz-adv-x="446" 
d="M86 669l22 19h124l-53 -430h82q97 86 105 187h72q-9 -121 -137 -211l97 -177h62l-5 -40l-21 -17h-78l-109 205h-74l-25 -205h-68l77 631h-76zM275 -64l-34 -154h-56l24 154h66z" />
    <glyph glyph-name="uni0139" unicode="&#x139;" horiz-adv-x="528" 
d="M352 745l-202 -42l-9 37l195 73zM480 0h-456l6 64h80l55 522h-80l7 64h257l-6 -64h-107l-55 -522h242l35 149l63 -5z" />
    <glyph glyph-name="uni013A" unicode="&#x13a;" horiz-adv-x="239" 
d="M330 756l-202 -42l-9 37l195 73zM99 669l20 19h127l-77 -631h74l-5 -40l-21 -17h-123l77 631h-77z" />
    <glyph glyph-name="uni013B" unicode="&#x13b;" horiz-adv-x="528" 
d="M480 0h-456l6 64h80l55 522h-80l7 64h257l-6 -64h-107l-55 -522h242l35 149l63 -5zM297 -64l-34 -154h-56l24 154h66z" />
    <glyph glyph-name="uni013C" unicode="&#x13c;" horiz-adv-x="239" 
d="M99 669l20 19h127l-77 -631h74l-5 -40l-21 -17h-123l77 631h-77zM184 -64l-34 -154h-56l24 154h66z" />
    <glyph glyph-name="uni013D" unicode="&#x13d;" horiz-adv-x="527" 
d="M474 681l-45 -224h-56l36 224h65zM480 0h-456l6 64h80l55 522h-80l7 64h257l-6 -64h-107l-55 -522h242l35 149l63 -5z" />
    <glyph glyph-name="uni013E" unicode="&#x13e;" horiz-adv-x="251" 
d="M99 669l20 19h127l-77 -631h74l-5 -40l-21 -17h-123l77 631h-77zM392 681l-45 -224h-56l36 224h65z" />
    <glyph glyph-name="uni013F" unicode="&#x13f;" horiz-adv-x="528" 
d="M480 0h-456l6 64h80l55 522h-80l7 64h257l-6 -64h-107l-55 -522h242l35 149l63 -5zM332 293l9 91h74l-9 -91h-74z" />
    <glyph glyph-name="uni0140" unicode="&#x140;" horiz-adv-x="286" 
d="M99 669l20 19h127l-77 -631h74l-5 -40l-21 -17h-123l77 631h-77zM266 293l9 91h74l-9 -91h-74z" />
    <glyph glyph-name="uni0141" unicode="&#x141;" horiz-adv-x="529" 
d="M482 0h-456l6 64h80l21 202l-81 -31l6 59l81 31l28 261h-80l7 64h257l-6 -64h-107l-25 -232l161 62l-6 -59l-161 -62l-24 -231h242l35 149l63 -5z" />
    <glyph glyph-name="uni0142" unicode="&#x142;" horiz-adv-x="261" 
d="M43 313l82 37l35 281h-77l5 38l20 19h127l-38 -305l84 38l-7 -59l-84 -38l-32 -267h74l-5 -40l-21 -17h-123l35 291l-82 -37z" />
    <glyph glyph-name="uni0143" unicode="&#x143;" horiz-adv-x="715" 
d="M571 745l-202 -42l-9 37l195 73zM43 64h73l55 522h-83l7 64h134l309 -502h3l45 438h-94l6 64h242l-6 -64h-80l-61 -586h-45l-314 512h-3l-48 -448h102l-6 -64h-243z" />
    <glyph glyph-name="uni0144" unicode="&#x144;" horiz-adv-x="523" 
d="M477 624l-182 -104l-18 31l165 132zM83 445h114l-1 -86q52 95 150 95q67 0 102.5 -42t25.5 -127l-28 -228h75l-5 -40l-21 -17h-123l32 264q15 133 -86 133q-51 0 -85.5 -35.5t-44.5 -87.5l-34 -274h-67l47 388h-78l5 38z" />
    <glyph glyph-name="uni0145" unicode="&#x145;" horiz-adv-x="715" 
d="M43 64h73l55 522h-83l7 64h134l309 -502h3l45 438h-94l6 64h242l-6 -64h-80l-61 -586h-45l-314 512h-3l-48 -448h102l-6 -64h-243zM386 -64l-34 -154h-56l24 154h66z" />
    <glyph glyph-name="uni0146" unicode="&#x146;" horiz-adv-x="523" 
d="M83 445h114l-1 -86q52 95 150 95q67 0 102.5 -42t25.5 -127l-28 -228h75l-5 -40l-21 -17h-123l32 264q15 133 -86 133q-51 0 -85.5 -35.5t-44.5 -87.5l-34 -274h-67l47 388h-78l5 38zM295 -64l-34 -154h-56l24 154h66z" />
    <glyph glyph-name="uni0147" unicode="&#x147;" horiz-adv-x="715" 
d="M404 701l-114 89l22 33l110 -62l121 64l17 -33l-135 -91h-21zM43 64h73l55 522h-83l7 64h134l309 -502h3l45 438h-94l6 64h242l-6 -64h-80l-61 -586h-45l-314 512h-3l-48 -448h102l-6 -64h-243z" />
    <glyph glyph-name="uni0148" unicode="&#x148;" horiz-adv-x="523" 
d="M310 519l-105 117l29 31l95 -82l111 85l23 -32l-131 -119h-22zM83 445h114l-1 -86q52 95 150 95q67 0 102.5 -42t25.5 -127l-28 -228h75l-5 -40l-21 -17h-123l32 264q15 133 -86 133q-51 0 -85.5 -35.5t-44.5 -87.5l-34 -274h-67l47 388h-78l5 38z" />
    <glyph glyph-name="uni0149" unicode="&#x149;" horiz-adv-x="523" 
d="M69 509l68 197h62l-68 -197h-62zM83 445h114l-1 -86q52 95 150 95q67 0 102.5 -42t25.5 -127l-28 -228h75l-5 -40l-21 -17h-123l32 264q15 133 -86 133q-51 0 -85.5 -35.5t-44.5 -87.5l-34 -274h-67l47 388h-78l5 38z" />
    <glyph glyph-name="uni014A" unicode="&#x14a;" horiz-adv-x="714" 
d="M277 0h-243l7 64h74l54 522h-82l6 64h135l308 -502h3l45 438h-94l7 64h241l-6 -64h-80l-63 -608q-7 -85 -55.5 -131t-127.5 -46q-114 0 -149 100l56 39q17 -39 38.5 -54.5t55.5 -15.5q51 0 79 29.5t31 77.5l6 59l-291 476h-3l-48 -448h102z" />
    <glyph glyph-name="uni014B" unicode="&#x14b;" horiz-adv-x="510" 
d="M437 -26q-25 -195 -142 -197q-38 0 -74 18l3 51q27 -11 49 -12t41.5 11t33 44.5t20.5 84.5l36 290q15 133 -86 133q-51 0 -85.5 -36.5t-44.5 -87.5l-34 -273h-67l47 388h-78l5 38l22 19h114l-1 -86q52 95 150 95q67 0 102.5 -42t25.5 -127z" />
    <glyph glyph-name="uni014C" unicode="&#x14c;" horiz-adv-x="710" 
d="M321 790h273l-6 -57h-273zM435 660q129 0 207 -86t78 -215q0 -152 -101 -260.5t-252 -108.5q-129 0 -206 86t-77 215q0 153 101.5 261t249.5 108zM378 56q119 0 192.5 87.5t73.5 210.5q0 108 -57.5 174t-159.5 66q-117 0 -192 -86.5t-75 -210.5q0 -104 56 -172.5
t162 -68.5z" />
    <glyph glyph-name="uni014D" unicode="&#x14d;" horiz-adv-x="481" 
d="M199 621h240l-6 -57h-240zM62 189q0 111 60.5 188t168.5 77q91 0 134 -55.5t43 -146.5q0 -114 -62 -188t-167 -74q-88 0 -132.5 53.5t-44.5 145.5zM136 193q0 -146 110 -146q74 0 111.5 57t37.5 146q0 147 -112 147q-71 0 -109 -55.5t-38 -148.5z" />
    <glyph glyph-name="uni014E" unicode="&#x14e;" horiz-adv-x="710" 
d="M523 816h58q-13 -117 -133 -117q-119 0 -107 117h58q-4 -38 9.5 -53.5t44.5 -15.5q33 0 49.5 16t20.5 53zM435 660q129 0 207 -86t78 -215q0 -152 -101 -260.5t-252 -108.5q-129 0 -206 86t-77 215q0 153 101.5 261t249.5 108zM378 56q119 0 192.5 87.5t73.5 210.5
q0 108 -57.5 174t-159.5 66q-117 0 -192 -86.5t-75 -210.5q0 -104 56 -172.5t162 -68.5z" />
    <glyph glyph-name="uni014F" unicode="&#x14f;" horiz-adv-x="481" 
d="M377 655h58q-13 -123 -133 -123q-58 0 -85.5 31.5t-20.5 91.5h58q-10 -75 54 -75q62 0 69 75zM62 189q0 111 60.5 188t168.5 77q91 0 134 -55.5t43 -146.5q0 -114 -62 -188t-167 -74q-88 0 -132.5 53.5t-44.5 145.5zM136 193q0 -146 110 -146q74 0 111.5 57t37.5 146
q0 147 -112 147q-71 0 -109 -55.5t-38 -148.5z" />
    <glyph glyph-name="uni0150" unicode="&#x150;" horiz-adv-x="710" 
d="M536 834l-166 -130l-24 25l148 153zM675 745l-197 -42l-8 36l190 73zM435 660q129 0 207 -86t78 -215q0 -152 -101 -260.5t-252 -108.5q-129 0 -206 86t-77 215q0 153 101.5 261t249.5 108zM378 56q119 0 192.5 87.5t73.5 210.5q0 108 -57.5 174t-159.5 66
q-117 0 -192 -86.5t-75 -210.5q0 -104 56 -172.5t162 -68.5z" />
    <glyph glyph-name="uni0151" unicode="&#x151;" horiz-adv-x="480" 
d="M378 678l-140 -159l-29 22l116 177zM525 624l-180 -104l-18 31l165 132zM62 189q0 111 60.5 188t168.5 77q91 0 134 -55.5t43 -146.5q0 -114 -62 -188t-167 -74q-88 0 -132.5 53.5t-44.5 145.5zM136 193q0 -146 110 -146q74 0 111.5 57t37.5 146q0 147 -112 147
q-71 0 -109 -55.5t-38 -148.5z" />
    <glyph glyph-name="uni0152" unicode="&#x152;" horiz-adv-x="979" 
d="M932 0h-395l4 38q-79 -48 -170 -48q-130 0 -208.5 89t-78.5 219q0 153 100.5 257.5t254.5 104.5q92 0 162 -49l4 39h390v-184l-62 -7l-6 127h-256l-25 -224h301l-6 -64h-301l-25 -234h261l33 127l60 -7zM382 56q102 0 167 60l44 418q-60 60 -159 60q-124 0 -198.5 -84.5
t-74.5 -207.5q0 -106 58 -176t163 -70z" />
    <glyph glyph-name="uni0153" unicode="&#x153;" horiz-adv-x="768" 
d="M62 189q0 111 60.5 188t168.5 77q112 0 155 -90q64 90 172 90q61 0 102 -30.5t41 -80.5q0 -104 -159 -137q-85 -16 -136 -24q2 -135 109 -135q87 0 121 90l55 -13q-15 -59 -64 -96.5t-123 -37.5q-108 0 -149 84q-65 -84 -176 -84q-88 0 -132.5 53.5t-44.5 145.5zM573 248
q69 16 92 38t23 51q0 62 -77 62q-65 0 -99.5 -48t-43.5 -119q50 5 105 16zM136 193q0 -146 110 -146q74 0 111.5 57t37.5 146q0 147 -112 147q-71 0 -109 -55.5t-38 -148.5z" />
    <glyph glyph-name="uni0154" unicode="&#x154;" horiz-adv-x="598" 
d="M502 745l-202 -42l-9 37l195 73zM32 64h79l55 522h-79l7 64h265q103 0 155.5 -45t52.5 -120q0 -156 -157 -197l91 -224h80l-8 -64h-126l-106 272h-138l-22 -208h86l-6 -64h-235zM325 333q86 0 126.5 39.5t40.5 106.5q0 107 -149 107h-107l-26 -253h115z" />
    <glyph glyph-name="uni0155" unicode="&#x155;" horiz-adv-x="343" 
d="M393 624l-182 -104l-18 31l165 132zM230 18l-21 -18h-211l5 38l21 19h50l41 331h-77l5 38l21 19h111l-2 -101q47 111 118 111q29 0 54 -17l-13 -71q-27 15 -53 15q-40 0 -70 -37t-41 -89l-26 -199h93z" />
    <glyph glyph-name="uni0156" unicode="&#x156;" horiz-adv-x="598" 
d="M32 64h79l55 522h-79l7 64h265q103 0 155.5 -45t52.5 -120q0 -156 -157 -197l91 -224h80l-8 -64h-126l-106 272h-138l-22 -208h86l-6 -64h-235zM325 333q86 0 126.5 39.5t40.5 106.5q0 107 -149 107h-107l-26 -253h115zM347 -64l-34 -154h-56l24 154h66z" />
    <glyph glyph-name="uni0157" unicode="&#x157;" horiz-adv-x="343" 
d="M230 18l-21 -18h-211l5 38l21 19h50l41 331h-77l5 38l21 19h111l-2 -101q47 111 118 111q29 0 54 -17l-13 -71q-27 15 -53 15q-40 0 -70 -37t-41 -89l-26 -199h93zM125 -64l-34 -154h-56l24 154h66z" />
    <glyph glyph-name="uni0158" unicode="&#x158;" horiz-adv-x="598" 
d="M332 701l-114 89l22 33l110 -62l121 64l17 -33l-135 -91h-21zM32 64h79l55 522h-79l7 64h265q103 0 155.5 -45t52.5 -120q0 -156 -157 -197l91 -224h80l-8 -64h-126l-106 272h-138l-22 -208h86l-6 -64h-235zM325 333q86 0 126.5 39.5t40.5 106.5q0 107 -149 107h-107
l-26 -253h115z" />
    <glyph glyph-name="uni0159" unicode="&#x159;" horiz-adv-x="343" 
d="M219 519l-105 117l29 31l95 -82l111 85l23 -32l-131 -119h-22zM230 18l-21 -18h-211l5 38l21 19h50l41 331h-77l5 38l21 19h111l-2 -101q47 111 118 111q29 0 54 -17l-13 -71q-27 15 -53 15q-40 0 -70 -37t-41 -89l-26 -199h93z" />
    <glyph glyph-name="uni015A" unicode="&#x15a;" horiz-adv-x="523" 
d="M468 745l-202 -42l-9 37l195 73zM492 194q0 -98 -62.5 -151t-177.5 -53q-62 0 -119 14.5t-85 38.5l26 128l57 -6l-11 -82q52 -29 132 -29q76 0 119.5 32t43.5 99q0 26 -7.5 45.5t-17.5 30.5t-30 20.5t-34.5 13.5t-41.5 10q-4 1 -7 1.5t-6 1.5q-37 9 -62.5 18.5t-53 27.5
t-42 48t-14.5 72q0 92 65.5 139t155.5 47q53 0 105.5 -15t78.5 -39l-7 -129l-60 -6v97q-47 27 -114 27q-69 0 -108.5 -30.5t-39.5 -84.5q0 -27 9 -45.5t30.5 -30.5t38.5 -17.5t51 -14.5q38 -9 59 -15t49.5 -20t43 -31t25.5 -45.5t11 -66.5z" />
    <glyph glyph-name="uni015B" unicode="&#x15b;" horiz-adv-x="418" 
d="M409 624l-182 -104l-18 31l165 132zM201 47q108 0 108 77q0 25 -16 41.5t-32 22t-59 17.5q-7 2 -10 3q-55 14 -86 37.5t-31 75.5q0 63 46 98t113 35q90 0 154 -41l-2 -104l-55 -7l-4 71q-46 24 -87 24q-44 0 -69 -18.5t-25 -50.5q0 -28 21 -42.5t74 -28.5
q26 -7 38.5 -10.5t35.5 -14t34.5 -22.5t21 -33t9.5 -47q0 -65 -46.5 -102.5t-122.5 -37.5q-46 0 -95.5 12.5t-75.5 31.5l24 101l55 -6l-10 -62q39 -20 92 -20z" />
    <glyph glyph-name="uni015C" unicode="&#x15c;" horiz-adv-x="523" 
d="M350 825l113 -89l-21 -34l-111 62l-120 -63l-18 32l136 92h21zM492 194q0 -98 -62.5 -151t-177.5 -53q-62 0 -119 14.5t-85 38.5l26 128l57 -6l-11 -82q52 -29 132 -29q76 0 119.5 32t43.5 99q0 26 -7.5 45.5t-17.5 30.5t-30 20.5t-34.5 13.5t-41.5 10q-4 1 -7 1.5
t-6 1.5q-37 9 -62.5 18.5t-53 27.5t-42 48t-14.5 72q0 92 65.5 139t155.5 47q53 0 105.5 -15t78.5 -39l-7 -129l-60 -6v97q-47 27 -114 27q-69 0 -108.5 -30.5t-39.5 -84.5q0 -27 9 -45.5t30.5 -30.5t38.5 -17.5t51 -14.5q38 -9 59 -15t49.5 -20t43 -31t25.5 -45.5t11 -66.5
z" />
    <glyph glyph-name="uni015D" unicode="&#x15d;" horiz-adv-x="418" 
d="M276 671l106 -121l-29 -31l-97 86l-110 -86l-24 31l132 121h22zM201 47q108 0 108 77q0 25 -16 41.5t-32 22t-59 17.5q-7 2 -10 3q-55 14 -86 37.5t-31 75.5q0 63 46 98t113 35q90 0 154 -41l-2 -104l-55 -7l-4 71q-46 24 -87 24q-44 0 -69 -18.5t-25 -50.5
q0 -28 21 -42.5t74 -28.5q26 -7 38.5 -10.5t35.5 -14t34.5 -22.5t21 -33t9.5 -47q0 -65 -46.5 -102.5t-122.5 -37.5q-46 0 -95.5 12.5t-75.5 31.5l24 101l55 -6l-10 -62q39 -20 92 -20z" />
    <glyph glyph-name="uni015E" unicode="&#x15e;" horiz-adv-x="523" 
d="M492 194q0 -91 -55 -143.5t-156 -59.5l-4 -38h8q79 0 79 -72q0 -44 -33.5 -67t-82.5 -23q-58 0 -90 30l21 41q27 -23 70 -23q55 0 55 44q0 37 -53 37h-29l9 71q-128 5 -183 52l26 128l57 -6l-11 -82q52 -29 132 -29q76 0 119.5 32t43.5 99q0 26 -7.5 45.5t-17.5 30.5
t-30 20.5t-34.5 13.5t-41.5 10q-4 1 -7 1.5t-6 1.5q-37 9 -62.5 18.5t-53 27.5t-42 48t-14.5 72q0 92 65.5 139t155.5 47q53 0 105.5 -15t78.5 -39l-7 -129l-60 -6v97q-47 27 -114 27q-69 0 -108.5 -30.5t-39.5 -84.5q0 -27 9 -45.5t30.5 -30.5t38.5 -17.5t51 -14.5
q38 -9 59 -15t49.5 -20t43 -31t25.5 -45.5t11 -66.5z" />
    <glyph glyph-name="uni015F" unicode="&#x15f;" horiz-adv-x="418" 
d="M201 47q108 0 108 77q0 25 -16 41.5t-32 22t-59 17.5q-7 2 -10 3q-55 14 -86 37.5t-31 75.5q0 63 46 98t113 35q90 0 154 -41l-2 -104l-55 -7l-4 71q-46 24 -87 24q-44 0 -69 -18.5t-25 -50.5q0 -28 21 -42.5t74 -28.5q26 -7 38.5 -10.5t35.5 -14t34.5 -22.5t21 -33
t9.5 -47q0 -62 -43 -99t-114 -40l-4 -38h8q79 0 79 -72q0 -44 -33.5 -67t-82.5 -23q-58 0 -90 30l21 41q27 -23 70 -23q55 0 55 44q0 37 -53 37h-29l9 72q-88 10 -133 42l24 101l55 -6l-10 -62q39 -20 92 -20z" />
    <glyph glyph-name="uni0160" unicode="&#x160;" horiz-adv-x="523" 
d="M309 701l-114 89l22 33l110 -62l121 64l17 -33l-135 -91h-21zM492 194q0 -98 -62.5 -151t-177.5 -53q-62 0 -119 14.5t-85 38.5l26 128l57 -6l-11 -82q52 -29 132 -29q76 0 119.5 32t43.5 99q0 26 -7.5 45.5t-17.5 30.5t-30 20.5t-34.5 13.5t-41.5 10q-4 1 -7 1.5t-6 1.5
q-37 9 -62.5 18.5t-53 27.5t-42 48t-14.5 72q0 92 65.5 139t155.5 47q53 0 105.5 -15t78.5 -39l-7 -129l-60 -6v97q-47 27 -114 27q-69 0 -108.5 -30.5t-39.5 -84.5q0 -27 9 -45.5t30.5 -30.5t38.5 -17.5t51 -14.5q38 -9 59 -15t49.5 -20t43 -31t25.5 -45.5t11 -66.5z" />
    <glyph glyph-name="uni0161" unicode="&#x161;" horiz-adv-x="418" 
d="M237 519l-105 117l29 31l95 -82l111 85l23 -32l-131 -119h-22zM201 47q108 0 108 77q0 25 -16 41.5t-32 22t-59 17.5q-7 2 -10 3q-55 14 -86 37.5t-31 75.5q0 63 46 98t113 35q90 0 154 -41l-2 -104l-55 -7l-4 71q-46 24 -87 24q-44 0 -69 -18.5t-25 -50.5
q0 -28 21 -42.5t74 -28.5q26 -7 38.5 -10.5t35.5 -14t34.5 -22.5t21 -33t9.5 -47q0 -65 -46.5 -102.5t-122.5 -37.5q-46 0 -95.5 12.5t-75.5 31.5l24 101l55 -6l-10 -62q39 -20 92 -20z" />
    <glyph glyph-name="uni0162" unicode="&#x162;" horiz-adv-x="606" 
d="M641 452l-64 -5l-5 139h-159l-55 -522h112l-6 -64h-293l7 64h109l55 522h-161l-34 -139l-63 5l39 198h520zM342 -64l-34 -154h-56l24 154h66z" />
    <glyph glyph-name="uni0163" unicode="&#x163;" horiz-adv-x="342" 
d="M51 425l23 20h55l14 120l24 23h47l-18 -143h152l-5 -36l-23 -21h-131l-30 -251q-5 -46 7.5 -68t47.5 -22q25 0 43 17t32 68l50 -17q-18 -66 -48.5 -95.5t-84.5 -29.5q-62 0 -92.5 38t-22.5 103l31 257h-76zM231 -64l-34 -154h-56l24 154h66z" />
    <glyph glyph-name="uni0164" unicode="&#x164;" horiz-adv-x="606" 
d="M373 701l-114 89l22 33l110 -62l121 64l17 -33l-135 -91h-21zM641 452l-64 -5l-5 139h-159l-55 -522h112l-6 -64h-293l7 64h109l55 522h-161l-34 -139l-63 5l39 198h520z" />
    <glyph glyph-name="uni0165" unicode="&#x165;" horiz-adv-x="342" 
d="M399 761l-45 -224h-56l36 224h65zM51 425l23 20h55l14 120l24 23h47l-18 -143h152l-5 -36l-23 -21h-131l-30 -251q-5 -46 7.5 -68t47.5 -22q25 0 43 17t32 68l50 -17q-18 -66 -48.5 -95.5t-84.5 -29.5q-62 0 -92.5 38t-22.5 103l31 257h-76z" />
    <glyph glyph-name="uni0166" unicode="&#x166;" horiz-adv-x="609" 
d="M643 452l-64 -5l-5 139h-159l-28 -261h147l-5 -47h-147l-22 -214h112l-6 -64h-293l7 64h109l22 214h-148l5 47h148l28 261h-161l-34 -139l-63 5l39 198h520z" />
    <glyph glyph-name="uni0167" unicode="&#x167;" horiz-adv-x="345" 
d="M43 425l23 20h54l15 120l24 23h47l-18 -143h152l-5 -36l-23 -21h-131l-13 -110h153l-5 -25l-22 -20h-132l-11 -96q-5 -46 7.5 -68t47.5 -22q25 0 43 17t32 68l50 -17q-18 -66 -48.5 -95.5t-84.5 -29.5q-62 0 -92.5 38t-22.5 103l12 102h-69l4 25l23 20h47l13 110h-75z
" />
    <glyph glyph-name="uni0168" unicode="&#x168;" horiz-adv-x="696" 
d="M359 705l-31 13q8 31 31.5 56.5t57.5 25.5q22 0 56 -17.5t58 -17.5q33 0 50 42l34 -9q-23 -89 -85 -89q-26 0 -62.5 17.5t-54.5 17.5q-37 0 -54 -39zM549 650h217l-6 -64h-62l-33 -319q-6 -56 -22.5 -102t-46.5 -87.5t-82.5 -64.5t-122.5 -23q-68 0 -116.5 21.5
t-73.5 59.5t-34 84t-3 101l35 330h-65l6 64h225l-8 -64h-87l-34 -328q-21 -202 162 -202q177 0 200 211l33 319h-89z" />
    <glyph glyph-name="uni0169" unicode="&#x169;" horiz-adv-x="522" 
d="M200 549l-32 12q7 32 31.5 60t58.5 28q21 0 55 -18.5t58 -18.5q33 0 49 43l35 -9q-26 -93 -85 -93q-27 0 -63.5 19.5t-52.5 19.5q-37 0 -54 -43zM503 57l-5 -38l-22 -19h-115l1 85q-51 -94 -147 -94q-67 0 -102 42t-26 127l28 228h-75l5 40l22 17h123l-32 -265
q-9 -70 12 -101t73 -31q50 0 82.5 33.5t43.5 82.5l35 281h68l-47 -388h78z" />
    <glyph glyph-name="uni016A" unicode="&#x16a;" horiz-adv-x="696" 
d="M336 790h273l-6 -57h-273zM549 650h217l-6 -64h-62l-33 -319q-6 -56 -22.5 -102t-46.5 -87.5t-82.5 -64.5t-122.5 -23q-68 0 -116.5 21.5t-73.5 59.5t-34 84t-3 101l35 330h-65l6 64h225l-8 -64h-87l-34 -328q-21 -202 162 -202q177 0 200 211l33 319h-89z" />
    <glyph glyph-name="uni016B" unicode="&#x16b;" horiz-adv-x="522" 
d="M193 621h240l-6 -57h-240zM503 57l-5 -38l-22 -19h-115l1 85q-51 -94 -147 -94q-67 0 -102 42t-26 127l28 228h-75l5 40l22 17h123l-32 -265q-9 -70 12 -101t73 -31q50 0 82.5 33.5t43.5 82.5l35 281h68l-47 -388h78z" />
    <glyph glyph-name="uni016C" unicode="&#x16c;" horiz-adv-x="696" 
d="M534 816h58q-13 -117 -133 -117q-119 0 -107 117h58q-4 -38 9.5 -53.5t44.5 -15.5q33 0 49.5 16t20.5 53zM549 650h217l-6 -64h-62l-33 -319q-6 -56 -22.5 -102t-46.5 -87.5t-82.5 -64.5t-122.5 -23q-68 0 -116.5 21.5t-73.5 59.5t-34 84t-3 101l35 330h-65l6 64h225
l-8 -64h-87l-34 -328q-21 -202 162 -202q177 0 200 211l33 319h-89z" />
    <glyph glyph-name="uni016D" unicode="&#x16d;" horiz-adv-x="522" 
d="M371 655h58q-13 -123 -133 -123q-58 0 -85.5 31.5t-20.5 91.5h58q-10 -75 54 -75q62 0 69 75zM503 57l-5 -38l-22 -19h-115l1 85q-51 -94 -147 -94q-67 0 -102 42t-26 127l28 228h-75l5 40l22 17h123l-32 -265q-9 -70 12 -101t73 -31q50 0 82.5 33.5t43.5 82.5l35 281h68
l-47 -388h78z" />
    <glyph glyph-name="uni016E" unicode="&#x16e;" horiz-adv-x="696" 
d="M460 690q-88 0 -88 82q0 46 29.5 74t79.5 28q43 0 65 -21.5t22 -59.5q0 -45 -28.5 -74t-79.5 -29zM464 730q27 0 41 16.5t14 43.5q0 44 -43 44q-26 0 -40.5 -16t-14.5 -44q0 -44 43 -44zM549 650h217l-6 -64h-62l-33 -319q-6 -56 -22.5 -102t-46.5 -87.5t-82.5 -64.5
t-122.5 -23q-68 0 -116.5 21.5t-73.5 59.5t-34 84t-3 101l35 330h-65l6 64h225l-8 -64h-87l-34 -328q-21 -202 162 -202q177 0 200 211l33 319h-89z" />
    <glyph glyph-name="uni016F" unicode="&#x16f;" horiz-adv-x="522" 
d="M298 514q-42 0 -64 22t-22 59q0 46 29 74.5t79 28.5q41 0 64 -22t23 -59q0 -43 -29 -73t-80 -30zM303 554q27 0 41.5 16.5t14.5 43.5q0 44 -44 44q-26 0 -40 -16t-14 -44q0 -44 42 -44zM503 57l-5 -38l-22 -19h-115l1 85q-51 -94 -147 -94q-67 0 -102 42t-26 127l28 228
h-75l5 40l22 17h123l-32 -265q-9 -70 12 -101t73 -31q50 0 82.5 33.5t43.5 82.5l35 281h68l-47 -388h78z" />
    <glyph glyph-name="uni0170" unicode="&#x170;" horiz-adv-x="696" 
d="M541 834l-166 -130l-24 25l148 153zM680 745l-197 -42l-8 36l190 73zM549 650h217l-6 -64h-62l-33 -319q-6 -56 -22.5 -102t-46.5 -87.5t-82.5 -64.5t-122.5 -23q-68 0 -116.5 21.5t-73.5 59.5t-34 84t-3 101l35 330h-65l6 64h225l-8 -64h-87l-34 -328q-21 -202 162 -202
q177 0 200 211l33 319h-89z" />
    <glyph glyph-name="uni0171" unicode="&#x171;" horiz-adv-x="522" 
d="M363 678l-140 -159l-29 22l116 177zM510 624l-180 -104l-18 31l165 132zM503 57l-5 -38l-22 -19h-115l1 85q-51 -94 -147 -94q-67 0 -102 42t-26 127l28 228h-75l5 40l22 17h123l-32 -265q-9 -70 12 -101t73 -31q50 0 82.5 33.5t43.5 82.5l35 281h68l-47 -388h78z" />
    <glyph glyph-name="uni0172" unicode="&#x172;" horiz-adv-x="697" 
d="M142 650h225l-8 -64h-87l-34 -328q-21 -202 162 -202q177 0 200 211l33 319h-89l7 64h217l-6 -64h-62l-33 -319q-5 -49 -18 -90.5t-37 -80t-63 -64.5t-91 -36q-67 -43 -67 -102q0 -49 52 -49q28 0 55 15l3 -49q-38 -20 -80 -20q-43 0 -68 22t-25 61q0 69 68 116h-3
q-68 0 -116.5 21.5t-73.5 59.5t-34 84t-3 101l35 330h-65z" />
    <glyph glyph-name="uni0173" unicode="&#x173;" horiz-adv-x="524" 
d="M363 0l1 85q-51 -94 -147 -94q-67 0 -102 42t-26 127l28 228h-75l5 40l22 17h123l-32 -265q-9 -70 12 -101t73 -31q50 0 82.5 33.5t43.5 82.5l35 281h68l-47 -388h78l-5 -38l-22 -19h-31q-74 -42 -74 -106q0 -49 52 -49q28 0 55 15l3 -49q-38 -20 -80 -20q-43 0 -68 22
t-25 61q0 38 23.5 71.5t60.5 54.5h-31z" />
    <glyph glyph-name="uni0174" unicode="&#x174;" horiz-adv-x="909" 
d="M562 825l113 -89l-21 -34l-111 62l-120 -63l-18 32l136 92h21zM970 586h-54l-230 -586h-58l-109 520h-5l-216 -520h-59l-117 586h-54l6 64h218l-7 -64h-90l85 -466h5l195 466h-64l7 64h218l-7 -64h-64l97 -469h6l170 469h-90l7 64h216z" />
    <glyph glyph-name="uni0175" unicode="&#x175;" horiz-adv-x="714" 
d="M429 671l106 -121l-29 -31l-97 86l-110 -86l-24 31l132 121h22zM502 82h4q60 73 87.5 137t27.5 135q0 51 -16 91h78q29 -142 -51 -273q-52 -90 -139 -172h-35l-76 335h-4l-157 -335h-41l-101 388h-51l5 38l22 19h189l-5 -39l-21 -18h-67l65 -280h4l155 337h46z" />
    <glyph glyph-name="uni0176" unicode="&#x176;" horiz-adv-x="597" 
d="M403 825l113 -89l-21 -34l-111 62l-120 -63l-18 32l136 92h21zM289 586h-87l133 -270h5l182 270h-87l7 64h221l-6 -64h-62l-232 -337l-20 -185h111l-7 -64h-289l6 64h108l20 185l-169 337h-63l7 64h229z" />
    <glyph glyph-name="uni0177" unicode="&#x177;" horiz-adv-x="468" 
d="M305 671l106 -121l-29 -31l-97 86l-110 -86l-24 31l132 121h22zM244 82h6q128 143 128 270q0 49 -18 93h80q31 -132 -48 -260q-50 -81 -133 -164l-24 -177h77l-4 -39l-21 -18h-202l5 38l21 19h56l25 179l-109 365h-57l5 38l21 19h191l-5 -39l-21 -18h-62z" />
    <glyph glyph-name="uni0178" unicode="&#x178;" horiz-adv-x="597" 
d="M417 718l9 85h79l-8 -85h-80zM250 718l8 85h79l-9 -85h-78zM657 586h-62l-232 -337l-20 -185h111l-7 -64h-289l6 64h108l20 185l-169 337h-63l7 64h229l-7 -64h-87l133 -270h5l182 270h-87l7 64h221z" />
    <glyph glyph-name="uni0179" unicode="&#x179;" horiz-adv-x="563" 
d="M483 745l-202 -42l-9 37l195 73zM485 0h-475l1 44l431 539v3h-277l-41 -133l-59 9l44 188h434l5 -40l-433 -543l-1 -3h313l42 138l61 -9z" />
    <glyph glyph-name="uni017A" unicode="&#x17a;" horiz-adv-x="449" 
d="M410 624l-182 -104l-18 31l165 132zM379 0h-356l-9 43l318 345h-202l-22 -89l-55 7l27 139h328l13 -42l-314 -346h222l33 90l55 -9z" />
    <glyph glyph-name="uni017B" unicode="&#x17b;" horiz-adv-x="563" 
d="M294 718l8 85h79l-8 -85h-79zM485 0h-475l1 44l431 539v3h-277l-41 -133l-59 9l44 188h434l5 -40l-433 -543l-1 -3h313l42 138l61 -9z" />
    <glyph glyph-name="uni017C" unicode="&#x17c;" horiz-adv-x="449" 
d="M227 553l9 91h74l-9 -91h-74zM379 0h-356l-9 43l318 345h-202l-22 -89l-55 7l27 139h328l13 -42l-314 -346h222l33 90l55 -9z" />
    <glyph glyph-name="uni017D" unicode="&#x17d;" horiz-adv-x="563" 
d="M313 701l-114 89l22 33l110 -62l121 64l17 -33l-135 -91h-21zM485 0h-475l1 44l431 539v3h-277l-41 -133l-59 9l44 188h434l5 -40l-433 -543l-1 -3h313l42 138l61 -9z" />
    <glyph glyph-name="uni017E" unicode="&#x17e;" horiz-adv-x="449" 
d="M248 519l-105 117l29 31l95 -82l111 85l23 -32l-131 -119h-22zM379 0h-356l-9 43l318 345h-202l-22 -89l-55 7l27 139h328l13 -42l-314 -346h222l33 90l55 -9z" />
    <glyph glyph-name="uni018F" unicode="&#x18f;" horiz-adv-x="672" 
d="M158 435l-57 7l24 136q111 82 255 82q137 0 209 -83t72 -215q0 -99 -37 -182t-115 -136.5t-185 -53.5q-131 0 -202 78t-57 214l7 64h512q5 114 -50 181t-163 67q-103 0 -189 -53zM579 288h-435l-1 -6q-13 -94 34 -160t157 -66q108 0 168.5 64t76.5 168z" />
    <glyph glyph-name="uni0192" unicode="&#x192;" horiz-adv-x="377" 
d="M25 272h78l18 109q12 72 56.5 110t116.5 38q38 0 65 -4l-6 -52q-44 6 -60 6q-45 0 -70 -22t-34 -78l-17 -107h115l-5 -46h-118l-33 -208q-9 -59 -39 -94.5t-99 -35.5q-14 0 -43 4l5 50q16 -4 43 -4q31 0 44.5 19t21.5 72l32 197h-76z" />
    <glyph glyph-name="uni01C4" unicode="&#x1c4;" horiz-adv-x="1248" 
d="M1006 701l-114 89l22 33l110 -62l121 64l17 -33l-135 -91h-21zM374 650q140 0 215.5 -79t75.5 -210q0 -157 -98 -259t-258 -102h-285l7 63h79l55 524h-79l6 63h282zM1178 0h-475l1 44l431 539v3h-277l-41 -133l-59 9l44 188h434l5 -40l-433 -543l-1 -3h313l42 138l61 -9z
M312 63q128 0 203.5 80.5t75.5 211.5q0 108 -58 170t-166 62h-132l-55 -524h132z" />
    <glyph glyph-name="uni01C5" unicode="&#x1c5;" horiz-adv-x="1134" 
d="M939 519l-105 117l29 31l95 -82l111 85l23 -32l-131 -119h-22zM374 650q140 0 215.5 -79t75.5 -210q0 -157 -98 -259t-258 -102h-285l7 63h79l55 524h-79l6 63h282zM312 63q128 0 203.5 80.5t75.5 211.5q0 108 -58 170t-166 62h-132l-55 -524h132zM1070 0h-356l-9 43
l318 345h-202l-22 -89l-55 7l27 139h328l13 -42l-314 -346h222l33 90l55 -9z" />
    <glyph glyph-name="uni01C6" unicode="&#x1c6;" horiz-adv-x="959" 
d="M336 670l21 18h153l-78 -631h76l-4 -40l-22 -17h-114l2 91q-60 -101 -159 -101q-71 0 -110 50t-39 136q0 47 12 93.5t36 89t66.5 69t97.5 26.5q96 0 129 -74l31 251h-102zM783 519l-105 117l29 31l95 -82l111 85l23 -32l-131 -119h-22zM913 0h-356l-9 43l318 345h-202
l-22 -89l-55 7l27 139h328l13 -42l-314 -346h222l33 90l55 -9zM281 397q-52 0 -86.5 -35t-47 -80t-12.5 -97q0 -138 98 -138q53 0 94.5 46t52.5 98l12 96q-2 48 -33.5 79t-77.5 31z" />
    <glyph glyph-name="uni01C7" unicode="&#x1c7;" horiz-adv-x="969" 
d="M480 0h-456l6 64h80l55 522h-80l7 64h257l-6 -64h-107l-55 -522h242l35 149l63 -5zM718 650h266l-6 -64h-70l-44 -420q-9 -87 -56.5 -131.5t-124.5 -44.5q-112 0 -147 99l55 40q16 -39 37.5 -54.5t55.5 -15.5q97 0 109 107l44 420h-125z" />
    <glyph glyph-name="uni01C8" unicode="&#x1c8;" horiz-adv-x="772" 
d="M668 560l9 91h74l-10 -91h-73zM480 0h-456l6 64h80l55 522h-80l7 64h257l-6 -64h-107l-55 -522h242l35 149l63 -5zM563 426l22 19h147l-57 -463q-12 -97 -47 -149.5t-90 -55.5q-37 -1 -79 18l3 51q122 -49 145 136l50 406h-99z" />
    <glyph glyph-name="uni01C9" unicode="&#x1c9;" horiz-adv-x="484" 
d="M99 669l20 19h127l-77 -631h74l-5 -40l-21 -17h-123l77 631h-77zM415 560l9 91h74l-10 -91h-73zM310 426l22 19h147l-57 -463q-12 -97 -47 -149.5t-90 -55.5q-37 -1 -79 18l3 51q122 -49 145 136l50 406h-99z" />
    <glyph glyph-name="uni01CA" unicode="&#x1ca;" horiz-adv-x="1150" 
d="M43 64h73l55 522h-83l7 64h134l309 -502h3l45 438h-94l6 64h242l-6 -64h-80l-61 -586h-45l-314 512h-3l-48 -448h102l-6 -64h-243zM905 650h266l-6 -64h-70l-44 -420q-9 -87 -56.5 -131.5t-124.5 -44.5q-112 0 -147 99l55 40q16 -39 37.5 -54.5t55.5 -15.5q97 0 109 107
l44 420h-125z" />
    <glyph glyph-name="uni01CB" unicode="&#x1cb;" horiz-adv-x="960" 
d="M862 560l9 91h74l-10 -91h-73zM43 64h73l55 522h-83l7 64h134l309 -502h3l45 438h-94l6 64h242l-6 -64h-80l-61 -586h-45l-314 512h-3l-48 -448h102l-6 -64h-243zM757 426l22 19h147l-57 -463q-12 -97 -47 -149.5t-90 -55.5q-37 -1 -79 18l3 51q122 -49 145 136l50 406
h-99z" />
    <glyph glyph-name="uni01CC" unicode="&#x1cc;" horiz-adv-x="767" 
d="M679 560l9 91h74l-10 -91h-73zM83 445h114l-1 -86q52 95 150 95q67 0 102.5 -42t25.5 -127l-28 -228h75l-5 -40l-21 -17h-123l32 264q15 133 -86 133q-51 0 -85.5 -35.5t-44.5 -87.5l-34 -274h-67l47 388h-78l5 38zM574 426l22 19h147l-57 -463q-12 -97 -47 -149.5
t-90 -55.5q-37 -1 -79 18l3 51q122 -49 145 136l50 406h-99z" />
    <glyph glyph-name="uni01D3" unicode="&#x1d3;" horiz-adv-x="696" 
d="M449 701l-114 89l22 33l110 -62l121 64l17 -33l-135 -91h-21zM549 650h217l-6 -64h-62l-33 -319q-6 -56 -22.5 -102t-46.5 -87.5t-82.5 -64.5t-122.5 -23q-68 0 -116.5 21.5t-73.5 59.5t-34 84t-3 101l35 330h-65l6 64h225l-8 -64h-87l-34 -328q-21 -202 162 -202
q177 0 200 211l33 319h-89z" />
    <glyph glyph-name="uni01D4" unicode="&#x1d4;" horiz-adv-x="522" 
d="M289 519l-105 117l29 31l95 -82l111 85l23 -32l-131 -119h-22zM503 57l-5 -38l-22 -19h-115l1 85q-51 -94 -147 -94q-67 0 -102 42t-26 127l28 228h-75l5 40l22 17h123l-32 -265q-9 -70 12 -101t73 -31q50 0 82.5 33.5t43.5 82.5l35 281h68l-47 -388h78z" />
    <glyph glyph-name="uni01E2" unicode="&#x1e2;" horiz-adv-x="904" 
d="M514 790h273l-6 -57h-273zM779 0h-473l6 64h79l14 125h-255l-73 -125h88l-7 -64h-224l6 64h64l309 522h-95l6 64h615l-1 -183l-62 -8l-6 127h-251l-24 -224h299l-6 -64h-299l-25 -234h259l34 127l61 -7zM411 246l35 340h-65l-198 -340h228z" />
    <glyph glyph-name="uni01E3" unicode="&#x1e3;" horiz-adv-x="705" 
d="M302 621h240l-6 -57h-240zM249 400q-36 0 -83 -22l-25 -77l-55 7l26 103q60 43 153 43q97 0 128 -67q62 67 153 67q62 0 103 -30t41 -84q0 -101 -158 -134q-67 -13 -137 -22q2 -137 108 -137q88 0 121 90l56 -13q-15 -59 -64 -96.5t-124 -37.5q-117 0 -155 97
q-59 -97 -162 -97q-54 0 -91.5 28t-37.5 89q0 76 60 109t149 33q6 0 72 -3l1 2v2l4 38q5 54 -12.5 83t-70.5 29zM541 399q-65 0 -100 -47.5t-44 -119.5q79 10 104 16q117 24 117 88q0 63 -77 63zM192 45q47 0 83 32.5t48 80.5q-1 8 -1 25v22q-31 4 -72 4q-130 0 -130 -92
q0 -72 72 -72z" />
    <glyph glyph-name="uni01F1" unicode="&#x1f1;" horiz-adv-x="1243" 
d="M374 650q140 0 215.5 -79t75.5 -210q0 -157 -98 -259t-258 -102h-285l7 63h79l55 524h-79l6 63h282zM1172 0h-475l1 44l431 539v3h-277l-41 -133l-59 9l44 188h434l5 -40l-433 -543l-1 -3h313l42 138l61 -9zM312 63q128 0 203.5 80.5t75.5 211.5q0 108 -58 170t-166 62
h-132l-55 -524h132z" />
    <glyph glyph-name="uni01F2" unicode="&#x1f2;" horiz-adv-x="1133" 
d="M374 650q140 0 215.5 -79t75.5 -210q0 -157 -98 -259t-258 -102h-285l7 63h79l55 524h-79l6 63h282zM312 63q128 0 203.5 80.5t75.5 211.5q0 108 -58 170t-166 62h-132l-55 -524h132zM1070 0h-356l-9 43l318 345h-202l-22 -89l-55 7l27 139h328l13 -42l-314 -346h222
l33 90l55 -9z" />
    <glyph glyph-name="uni01F3" unicode="&#x1f3;" horiz-adv-x="958" 
d="M336 670l21 18h153l-78 -631h76l-4 -40l-22 -17h-114l2 91q-60 -101 -159 -101q-71 0 -110 50t-39 136q0 47 12 93.5t36 89t66.5 69t97.5 26.5q96 0 129 -74l31 251h-102zM913 0h-356l-9 43l318 345h-202l-22 -89l-55 7l27 139h328l13 -42l-314 -346h222l33 90l55 -9z
M281 397q-52 0 -86.5 -35t-47 -80t-12.5 -97q0 -138 98 -138q53 0 94.5 46t52.5 98l12 96q-2 48 -33.5 79t-77.5 31z" />
    <glyph glyph-name="uni01FC" unicode="&#x1fc;" horiz-adv-x="904" 
d="M794 745l-202 -42l-9 37l195 73zM779 0h-473l6 64h79l14 125h-255l-73 -125h88l-7 -64h-224l6 64h64l309 522h-95l6 64h615l-1 -183l-62 -8l-6 127h-251l-24 -224h299l-6 -64h-299l-25 -234h259l34 127l61 -7zM411 246l35 340h-65l-198 -340h228z" />
    <glyph glyph-name="uni01FD" unicode="&#x1fd;" horiz-adv-x="705" 
d="M595 624l-182 -104l-18 31l165 132zM249 400q-36 0 -83 -22l-25 -77l-55 7l26 103q60 43 153 43q97 0 128 -67q62 67 153 67q62 0 103 -30t41 -84q0 -101 -158 -134q-67 -13 -137 -22q2 -137 108 -137q88 0 121 90l56 -13q-15 -59 -64 -96.5t-124 -37.5q-117 0 -155 97
q-59 -97 -162 -97q-54 0 -91.5 28t-37.5 89q0 76 60 109t149 33q6 0 72 -3l1 2v2l4 38q5 54 -12.5 83t-70.5 29zM541 399q-65 0 -100 -47.5t-44 -119.5q79 10 104 16q117 24 117 88q0 63 -77 63zM192 45q47 0 83 32.5t48 80.5q-1 8 -1 25v22q-31 4 -72 4q-130 0 -130 -92
q0 -72 72 -72z" />
    <glyph glyph-name="uni01FE" unicode="&#x1fe;" horiz-adv-x="706" 
d="M595 745l-202 -42l-9 37l195 73zM433 660q99 0 173 -56l40 46h73l-73 -83q72 -85 72 -208q0 -152 -101 -260.5t-252 -108.5q-103 0 -176 57l-41 -47h-66l71 82q-71 83 -71 209q0 153 101.5 261t249.5 108zM158 297q0 -96 44 -158l358 412q-56 43 -135 43
q-117 0 -192 -86.5t-75 -210.5zM376 56q119 0 192.5 87.5t73.5 210.5q0 93 -45 157l-360 -410q55 -45 139 -45z" />
    <glyph glyph-name="uni01FF" unicode="&#x1ff;" horiz-adv-x="478" 
d="M463 624l-182 -104l-18 31l165 132zM58 189q0 111 60.5 188t168.5 77q62 0 104 -28l15 19h58l-40 -51q40 -53 40 -142q0 -114 -62 -188t-167 -74q-64 0 -105 29l-15 -19h-59l40 51q-38 51 -38 138zM132 193q0 -50 11 -82l207 263q-26 23 -71 23q-71 0 -109 -55.5
t-38 -148.5zM242 47q74 0 111.5 57t37.5 146q0 50 -13 85l-208 -265q26 -23 72 -23z" />
    <glyph glyph-name="uni0218" unicode="&#x218;" horiz-adv-x="523" 
d="M492 194q0 -98 -62.5 -151t-177.5 -53q-62 0 -119 14.5t-85 38.5l26 128l57 -6l-11 -82q52 -29 132 -29q76 0 119.5 32t43.5 99q0 26 -7.5 45.5t-17.5 30.5t-30 20.5t-34.5 13.5t-41.5 10q-4 1 -7 1.5t-6 1.5q-37 9 -62.5 18.5t-53 27.5t-42 48t-14.5 72q0 92 65.5 139
t155.5 47q53 0 105.5 -15t78.5 -39l-7 -129l-60 -6v97q-47 27 -114 27q-69 0 -108.5 -30.5t-39.5 -84.5q0 -27 9 -45.5t30.5 -30.5t38.5 -17.5t51 -14.5q38 -9 59 -15t49.5 -20t43 -31t25.5 -45.5t11 -66.5zM286 -64l-34 -154h-56l24 154h66z" />
    <glyph glyph-name="uni0219" unicode="&#x219;" horiz-adv-x="418" 
d="M201 47q108 0 108 77q0 25 -16 41.5t-32 22t-59 17.5q-7 2 -10 3q-55 14 -86 37.5t-31 75.5q0 63 46 98t113 35q90 0 154 -41l-2 -104l-55 -7l-4 71q-46 24 -87 24q-44 0 -69 -18.5t-25 -50.5q0 -28 21 -42.5t74 -28.5q26 -7 38.5 -10.5t35.5 -14t34.5 -22.5t21 -33
t9.5 -47q0 -65 -46.5 -102.5t-122.5 -37.5q-46 0 -95.5 12.5t-75.5 31.5l24 101l55 -6l-10 -62q39 -20 92 -20zM233 -64l-34 -154h-56l24 154h66z" />
    <glyph glyph-name="uni021A" unicode="&#x21a;" horiz-adv-x="606" 
d="M641 452l-64 -5l-5 139h-159l-55 -522h112l-6 -64h-293l7 64h109l55 522h-161l-34 -139l-63 5l39 198h520zM342 -64l-34 -154h-56l24 154h66z" />
    <glyph glyph-name="uni021B" unicode="&#x21b;" horiz-adv-x="342" 
d="M51 425l23 20h55l14 120l24 23h47l-18 -143h152l-5 -36l-23 -21h-131l-30 -251q-5 -46 7.5 -68t47.5 -22q25 0 43 17t32 68l50 -17q-18 -66 -48.5 -95.5t-84.5 -29.5q-62 0 -92.5 38t-22.5 103l31 257h-76zM231 -64l-34 -154h-56l24 154h66z" />
    <glyph glyph-name="uni0232" unicode="&#x232;" horiz-adv-x="597" 
d="M238 790h273l-6 -57h-273zM657 586h-62l-232 -337l-20 -185h111l-7 -64h-289l6 64h108l20 185l-169 337h-63l7 64h229l-7 -64h-87l133 -270h5l182 270h-87l7 64h221z" />
    <glyph glyph-name="uni0233" unicode="&#x233;" horiz-adv-x="468" 
d="M161 621h240l-6 -57h-240zM244 82h6q128 143 128 270q0 49 -18 93h80q31 -132 -48 -260q-50 -81 -133 -164l-24 -177h77l-4 -39l-21 -18h-202l5 38l21 19h56l25 179l-109 365h-57l5 38l21 19h191l-5 -39l-21 -18h-62z" />
    <glyph glyph-name="uni0237" unicode="&#x237;" horiz-adv-x="246" 
d="M-54 426l21 19h148l-57 -463q-12 -98 -48 -150.5t-92 -54.5q-36 -1 -76 18l4 51q122 -51 145 136l49 406h-99z" />
    <glyph glyph-name="uni0259" unicode="&#x259;" horiz-adv-x="437" 
d="M238 397q-87 0 -121 -90l-55 13q15 59 64 96.5t123 37.5q82 0 126.5 -50t44.5 -143q0 -116 -62.5 -193.5t-162.5 -77.5q-61 0 -102 30.5t-41 80.5q0 104 159 137q62 12 136 23q-2 136 -109 136zM240 196q-69 -16 -92 -38t-23 -51q0 -62 77 -62q64 0 98.5 47.5t43.5 118.5
q-34 -4 -104 -15z" />
    <glyph glyph-name="uni02C6" unicode="&#x2c6;" horiz-adv-x="331" 
d="M380 671l106 -121l-29 -31l-97 86l-110 -86l-24 31l132 121h22z" />
    <glyph glyph-name="uni02C7" unicode="&#x2c7;" horiz-adv-x="331" 
d="M353 519l-105 117l29 31l95 -82l111 85l23 -32l-131 -119h-22z" />
    <glyph glyph-name="uni02D8" unicode="&#x2d8;" horiz-adv-x="391" 
d="M458 655h58q-13 -123 -133 -123q-58 0 -85.5 31.5t-20.5 91.5h58q-10 -75 54 -75q62 0 69 75z" />
    <glyph glyph-name="uni02D9" unicode="&#x2d9;" horiz-adv-x="204" 
d="M244 553l9 91h74l-9 -91h-74z" />
    <glyph glyph-name="uni02DA" unicode="&#x2da;" horiz-adv-x="255" 
d="M274 514q-42 0 -64 22t-22 59q0 46 29 74.5t79 28.5q41 0 64 -22t23 -59q0 -43 -29 -73t-80 -30zM279 554q27 0 41.5 16.5t14.5 43.5q0 44 -44 44q-26 0 -40 -16t-14 -44q0 -44 42 -44z" />
    <glyph glyph-name="uni02DB" unicode="&#x2db;" horiz-adv-x="274" 
d="M233 -189q-38 -20 -80 -20q-43 0 -68 22t-25 61q0 44 31 81.5t77 56.5l44 -4q-89 -44 -89 -114q0 -49 52 -49q28 0 55 15z" />
    <glyph glyph-name="uni02DC" unicode="&#x2dc;" horiz-adv-x="367" 
d="M218 549l-32 12q7 32 31.5 60t58.5 28q21 0 55 -18.5t58 -18.5q33 0 49 43l35 -9q-26 -93 -85 -93q-27 0 -63.5 19.5t-52.5 19.5q-37 0 -54 -43z" />
    <glyph glyph-name="uni02DD" unicode="&#x2dd;" horiz-adv-x="421" 
d="M417 678l-140 -159l-29 22l116 177zM564 624l-180 -104l-18 31l165 132z" />
    <glyph glyph-name="uni0323" unicode="&#x323;" horiz-adv-x="816" 
d="M150 -174l10 90h75l-10 -90h-75z" />
    <glyph glyph-name="uni0394" unicode="&#x394;" horiz-adv-x="480" 
d="M-60 0l315 661l166 -661h-481zM26 57h322l-110 449z" />
    <glyph glyph-name="uni03A3" unicode="&#x3a3;" horiz-adv-x="531" 
d="M8 0l7 63l225 260l-171 264l7 63h467l-7 -63h-386l164 -250l-3 -22l-216 -252h386l-6 -63h-467z" />
    <glyph glyph-name="uni03C0" unicode="&#x3c0;" horiz-adv-x="572" 
d="M9 57h76l34 331h-77l6 57h516l-6 -57h-79l-34 -331h75l-6 -57h-221l6 57h76l35 331h-221l-34 -331h76l-6 -57h-221z" />
    <glyph glyph-name="uni1E46" unicode="&#x1e46;" horiz-adv-x="715" 
d="M43 64h73l55 522h-83l7 64h134l309 -502h3l45 438h-94l6 64h242l-6 -64h-80l-61 -586h-45l-314 512h-3l-48 -448h102l-6 -64h-243zM304 -174l10 90h75l-10 -90h-75z" />
    <glyph glyph-name="uni1E47" unicode="&#x1e47;" horiz-adv-x="523" 
d="M83 445h114l-1 -86q52 95 150 95q67 0 102.5 -42t25.5 -127l-28 -228h75l-5 -40l-21 -17h-123l32 264q15 133 -86 133q-51 0 -85.5 -35.5t-44.5 -87.5l-34 -274h-67l47 388h-78l5 38zM212 -174l10 90h75l-10 -90h-75z" />
    <glyph glyph-name="uni1E62" unicode="&#x1e62;" horiz-adv-x="523" 
d="M492 194q0 -98 -62.5 -151t-177.5 -53q-62 0 -119 14.5t-85 38.5l26 128l57 -6l-11 -82q52 -29 132 -29q76 0 119.5 32t43.5 99q0 26 -7.5 45.5t-17.5 30.5t-30 20.5t-34.5 13.5t-41.5 10q-4 1 -7 1.5t-6 1.5q-37 9 -62.5 18.5t-53 27.5t-42 48t-14.5 72q0 92 65.5 139
t155.5 47q53 0 105.5 -15t78.5 -39l-7 -129l-60 -6v97q-47 27 -114 27q-69 0 -108.5 -30.5t-39.5 -84.5q0 -27 9 -45.5t30.5 -30.5t38.5 -17.5t51 -14.5q38 -9 59 -15t49.5 -20t43 -31t25.5 -45.5t11 -66.5zM209 -174l10 90h75l-10 -90h-75z" />
    <glyph glyph-name="uni1E63" unicode="&#x1e63;" horiz-adv-x="418" 
d="M201 47q108 0 108 77q0 25 -16 41.5t-32 22t-59 17.5q-7 2 -10 3q-55 14 -86 37.5t-31 75.5q0 63 46 98t113 35q90 0 154 -41l-2 -104l-55 -7l-4 71q-46 24 -87 24q-44 0 -69 -18.5t-25 -50.5q0 -28 21 -42.5t74 -28.5q26 -7 38.5 -10.5t35.5 -14t34.5 -22.5t21 -33
t9.5 -47q0 -65 -46.5 -102.5t-122.5 -37.5q-46 0 -95.5 12.5t-75.5 31.5l24 101l55 -6l-10 -62q39 -20 92 -20zM144 -174l10 90h75l-10 -90h-75z" />
    <glyph glyph-name="uni1E80" unicode="&#x1e80;" horiz-adv-x="909" 
d="M610 703l-203 42l17 68l195 -73zM970 586h-54l-230 -586h-58l-109 520h-5l-216 -520h-59l-117 586h-54l6 64h218l-7 -64h-90l85 -466h5l195 466h-64l7 64h218l-7 -64h-64l97 -469h6l170 469h-90l7 64h216z" />
    <glyph glyph-name="uni1E81" unicode="&#x1e81;" horiz-adv-x="714" 
d="M418 520l-182 104l35 59l166 -132zM502 82h4q60 73 87.5 137t27.5 135q0 51 -16 91h78q29 -142 -51 -273q-52 -90 -139 -172h-35l-76 335h-4l-157 -335h-41l-101 388h-51l5 38l22 19h189l-5 -39l-21 -18h-67l65 -280h4l155 337h46z" />
    <glyph glyph-name="uni1E82" unicode="&#x1e82;" horiz-adv-x="909" 
d="M682 745l-202 -42l-9 37l195 73zM970 586h-54l-230 -586h-58l-109 520h-5l-216 -520h-59l-117 586h-54l6 64h218l-7 -64h-90l85 -466h5l195 466h-64l7 64h218l-7 -64h-64l97 -469h6l170 469h-90l7 64h216z" />
    <glyph glyph-name="uni1E83" unicode="&#x1e83;" horiz-adv-x="714" 
d="M577 624l-182 -104l-18 31l165 132zM502 82h4q60 73 87.5 137t27.5 135q0 51 -16 91h78q29 -142 -51 -273q-52 -90 -139 -172h-35l-76 335h-4l-157 -335h-41l-101 388h-51l5 38l22 19h189l-5 -39l-21 -18h-67l65 -280h4l155 337h46z" />
    <glyph glyph-name="uni1E84" unicode="&#x1e84;" horiz-adv-x="909" 
d="M578 718l9 85h79l-8 -85h-80zM411 718l8 85h79l-9 -85h-78zM970 586h-54l-230 -586h-58l-109 520h-5l-216 -520h-59l-117 586h-54l6 64h218l-7 -64h-90l85 -466h5l195 466h-64l7 64h218l-7 -64h-64l97 -469h6l170 469h-90l7 64h216z" />
    <glyph glyph-name="uni1E85" unicode="&#x1e85;" horiz-adv-x="714" 
d="M450 555l8 85h80l-9 -85h-79zM282 555l9 85h78l-8 -85h-79zM502 82h4q60 73 87.5 137t27.5 135q0 51 -16 91h78q29 -142 -51 -273q-52 -90 -139 -172h-35l-76 335h-4l-157 -335h-41l-101 388h-51l5 38l22 19h189l-5 -39l-21 -18h-67l65 -280h4l155 337h46z" />
    <glyph glyph-name="uni1EBC" unicode="&#x1ebc;" horiz-adv-x="573" 
d="M260 705l-31 13q8 31 31.5 56.5t57.5 25.5q22 0 56 -17.5t58 -17.5q33 0 50 42l34 -9q-23 -89 -85 -89q-26 0 -62.5 17.5t-54.5 17.5q-37 0 -54 -39zM493 0h-469l6 64h80l56 522h-81l7 64h465v-184l-63 -7l-6 127h-251l-25 -224h302l-6 -64h-302l-25 -234h256l33 127
l61 -7z" />
    <glyph glyph-name="uni1EBD" unicode="&#x1ebd;" horiz-adv-x="437" 
d="M183 549l-32 12q7 32 31.5 60t58.5 28q21 0 55 -18.5t58 -18.5q33 0 49 43l35 -9q-26 -93 -85 -93q-27 0 -63.5 19.5t-52.5 19.5q-37 0 -54 -43zM244 47q87 0 121 90l55 -13q-15 -59 -64 -96.5t-123 -37.5q-82 0 -126.5 50t-44.5 143q0 116 62.5 193.5t162.5 77.5
q61 0 102 -30.5t41 -80.5q0 -104 -159 -137q-85 -16 -136 -24q2 -135 109 -135zM242 248q69 16 92 38t23 51q0 62 -77 62q-65 0 -99.5 -48t-43.5 -119q68 9 105 16z" />
    <glyph glyph-name="uni1EF2" unicode="&#x1ef2;" horiz-adv-x="597" 
d="M422 703l-203 42l17 68l195 -73zM657 586h-62l-232 -337l-20 -185h111l-7 -64h-289l6 64h108l20 185l-169 337h-63l7 64h229l-7 -64h-87l133 -270h5l182 270h-87l7 64h221z" />
    <glyph glyph-name="uni1EF3" unicode="&#x1ef3;" horiz-adv-x="468" 
d="M317 520l-182 104l35 59l166 -132zM244 82h6q128 143 128 270q0 49 -18 93h80q31 -132 -48 -260q-50 -81 -133 -164l-24 -177h77l-4 -39l-21 -18h-202l5 38l21 19h56l25 179l-109 365h-57l5 38l21 19h191l-5 -39l-21 -18h-62z" />
    <glyph glyph-name="uni2004" unicode="&#x2004;" horiz-adv-x="326" 
 />
    <glyph glyph-name="uni2007" unicode="&#x2007;" horiz-adv-x="588" 
 />
    <glyph glyph-name="uni2009" unicode="&#x2009;" horiz-adv-x="157" 
 />
    <glyph glyph-name="uni200A" unicode="&#x200a;" horiz-adv-x="78" 
 />
    <glyph glyph-name="uni200B" unicode="&#x200b;" horiz-adv-x="0" 
 />
    <glyph glyph-name="uni2012" unicode="&#x2012;" horiz-adv-x="347" 
d="M347 281v-60h-347v60h347z" />
    <glyph glyph-name="uni2013" unicode="&#x2013;" horiz-adv-x="611" 
d="M107 257h492l-5 -51h-492z" />
    <glyph glyph-name="uni2014" unicode="&#x2014;" horiz-adv-x="1055" 
d="M134 257h921l-6 -51h-921z" />
    <glyph glyph-name="uni2018" unicode="&#x2018;" horiz-adv-x="204" 
d="M268 656l-74 -216h-68l74 216h68z" />
    <glyph glyph-name="uni2019" unicode="&#x2019;" horiz-adv-x="200" 
d="M130 479l74 216h68l-74 -216h-68z" />
    <glyph glyph-name="uni201A" unicode="&#x201a;" horiz-adv-x="200" 
d="M-30 -102l74 216h68l-74 -216h-68z" />
    <glyph glyph-name="uni201C" unicode="&#x201c;" horiz-adv-x="362" 
d="M272 668l-74 -216h-68l74 216h68zM433 668l-74 -216h-68l74 216h68z" />
    <glyph glyph-name="uni201D" unicode="&#x201d;" horiz-adv-x="359" 
d="M116 454l74 216h68l-74 -216h-68zM277 454l74 216h68l-74 -216h-68z" />
    <glyph glyph-name="uni201E" unicode="&#x201e;" horiz-adv-x="363" 
d="M-30 -102l74 216h68l-74 -216h-68zM133 -102l74 216h68l-74 -216h-68z" />
    <glyph glyph-name="uni2020" unicode="&#x2020;" horiz-adv-x="458" 
d="M82 428h169l24 222h61l-24 -222h171l-6 -62h-171l-53 -507h-61l53 507h-169z" />
    <glyph glyph-name="uni2021" unicode="&#x2021;" horiz-adv-x="501" 
d="M64 119h170l26 247h-170l7 62h170l23 222h62l-23 -222h169l-7 -62h-169l-26 -247h169l-6 -62h-169l-21 -198h-62l21 198h-170z" />
    <glyph glyph-name="uni2022" unicode="&#x2022;" horiz-adv-x="350" 
d="M128 234q0 49 35.5 85t82.5 36q42 0 69.5 -29t27.5 -72q0 -49 -36 -84.5t-83 -35.5q-42 0 -69 28.5t-27 71.5z" />
    <glyph glyph-name="uni2026" unicode="&#x2026;" horiz-adv-x="574" 
d="M60 0l10 101h93l-10 -101h-93zM243 0l10 101h93l-10 -101h-93zM425 0l10 101h93l-10 -101h-93z" />
    <glyph glyph-name="uni2030" unicode="&#x2030;" horiz-adv-x="973" 
d="M216 244q-58 0 -90 31t-32 92q0 75 45 119t116 44q57 0 89.5 -31t32.5 -93q0 -73 -43.5 -117.5t-117.5 -44.5zM643 521l-224 -254l-226 -267h-74l255 287l196 234h73zM223 294q47 0 70.5 29t23.5 78q0 41 -16.5 59.5t-52.5 18.5q-45 0 -70.5 -27t-25.5 -80
q0 -41 17.5 -59.5t53.5 -18.5zM513 -10q-58 0 -90 31t-32 94q0 75 45.5 118.5t116.5 43.5q57 0 89 -31t32 -94q0 -72 -43.5 -117t-117.5 -45zM815 -10q-58 0 -90.5 31t-32.5 93q0 75 45.5 119t115.5 44q58 0 90.5 -31t32.5 -94q0 -72 -43.5 -117t-117.5 -45zM520 40
q47 0 71.5 29.5t24.5 78.5q0 79 -71 79q-44 0 -69.5 -27.5t-25.5 -80.5q0 -41 17 -60t53 -19zM821 40q47 0 71 29.5t24 78.5q0 79 -69 79q-45 0 -70 -27.5t-25 -80.5q0 -41 16.5 -60t52.5 -19z" />
    <glyph glyph-name="uni2039" unicode="&#x2039;" horiz-adv-x="280" 
d="M248 25h-59l-109 246l160 240h59l-152 -240z" />
    <glyph glyph-name="uni203A" unicode="&#x203a;" horiz-adv-x="281" 
d="M100 25h-60l152 246l-101 240h60l110 -240z" />
    <glyph glyph-name="uni203D" unicode="&#x203d;" horiz-adv-x="635" 
d="M209 652l92 -448l-50 -21l-121 437zM495 589q-43 0 -80 -25l-38 -98l-54 12l36 118q59 52 150 52q76 0 128.5 -38t52.5 -106q0 -48 -30 -82t-74 -55.5t-89.5 -42.5t-82 -54.5t-44.5 -78.5l-48 14q7 51 39.5 88t73.5 58t81 39.5t67.5 45t27.5 62.5q0 45 -36 68t-80 23z
M250 0l11 97h87l-10 -97h-88z" />
    <glyph glyph-name="uni2044" unicode="&#x2044;" horiz-adv-x="136" 
d="M146 650l-219 -325l-213 -325h-52l227 337l206 313h51z" />
    <glyph glyph-name="uni2070" unicode="&#x2070;" horiz-adv-x="373" 
d="M140 566q0 36 7.5 70t24.5 69.5t52.5 57.5t84.5 22q130 0 130 -159q0 -58 -14.5 -104.5t-54 -79.5t-99.5 -33q-131 0 -131 157zM201 571q0 -56 16.5 -85.5t57.5 -29.5q103 0 103 171q0 54 -15.5 82.5t-57.5 28.5q-104 0 -104 -167z" />
    <glyph glyph-name="uni2071" unicode="&#x2071;" horiz-adv-x="187" 
d="M182 781l7 63h59l-7 -63h-59zM124 691l15 14h90l-32 -245h47l-3 -32l-16 -13h-86l30 246h-49z" />
    <glyph glyph-name="uni2074" unicode="&#x2074;" horiz-adv-x="349" 
d="M270 415l10 94h-177l-1 44l151 226h111l-24 -228h62l-10 -42h-56l-10 -94h-56zM275 734l-122 -183h131l20 183h-29z" />
    <glyph glyph-name="uni2075" unicode="&#x2075;" horiz-adv-x="329" 
d="M378 530q0 -58 -40 -90t-101 -32q-56 0 -90 26t-35 71l43 12q2 -26 25 -45t59 -19q37 0 57.5 19.5t20.5 54.5q0 70 -102 70l-51 -3l-17 16l16 169h219v-1l1 1l-5 -90l-46 -5v50h-120l-10 -95h26q150 0 150 -109z" />
    <glyph glyph-name="uni2076" unicode="&#x2076;" horiz-adv-x="342" 
d="M309 740q-105 0 -112 -154q31 58 102 58q47 0 74.5 -27.5t27.5 -73.5q0 -55 -36 -94.5t-103 -39.5q-61 0 -92.5 39.5t-31.5 110.5q0 94 44 160t124 66q67 0 106 -49l-35 -34q-28 38 -68 38zM283 600q-38 0 -59.5 -19.5t-26.5 -46.5q2 -39 18 -58.5t52 -19.5q74 0 74 82
q0 62 -58 62z" />
    <glyph glyph-name="uni2077" unicode="&#x2077;" horiz-adv-x="303" 
d="M150 779h251l4 -27l-176 -337h-57l170 319h-146l-7 -62h-49z" />
    <glyph glyph-name="uni2078" unicode="&#x2078;" horiz-adv-x="346" 
d="M245 409q-56 0 -89.5 22.5t-33.5 66.5q0 39 26.5 62t70.5 40q-68 37 -68 83q0 44 38.5 73t98.5 29q52 0 83.5 -22.5t31.5 -61.5q0 -34 -23 -54.5t-65 -36.5q26 -13 41 -23t28 -29t13 -42q0 -49 -43 -78t-109 -29zM213 691q0 -20 16.5 -33.5t49.5 -29.5q32 15 49 30t17 37
q0 23 -17.5 35t-44.5 12q-30 0 -50 -14.5t-20 -36.5zM252 452q35 0 58.5 16t23.5 42q0 17 -13.5 31.5t-26 21t-42.5 20.5q-34 -15 -52.5 -32t-18.5 -43t19.5 -41t51.5 -15z" />
    <glyph glyph-name="uni2079" unicode="&#x2079;" horiz-adv-x="343" 
d="M239 454q103 0 112 154q-31 -58 -102 -58q-47 0 -74.5 27.5t-27.5 74.5q0 55 36 94t103 39q60 0 92 -40t32 -110q0 -94 -43 -160t-121 -66q-71 0 -110 49l35 34q27 -38 68 -38zM265 594q38 0 59.5 19.5t26.5 46.5q-3 38 -19 58t-51 20q-74 0 -74 -82q0 -62 58 -62z" />
    <glyph glyph-name="uni207A" unicode="&#x207a;" horiz-adv-x="288" 
d="M126 578l4 39h95l10 94h41l-10 -94h91l-4 -39h-91l-10 -93h-41l10 93h-95z" />
    <glyph glyph-name="uni207B" unicode="&#x207b;" horiz-adv-x="323" 
d="M158 578l4 39h227l-4 -39h-227z" />
    <glyph glyph-name="uni207C" unicode="&#x207c;" horiz-adv-x="387" 
d="M157 645l5 40h291l-5 -40h-291zM144 510l3 39h291l-3 -39h-291z" />
    <glyph glyph-name="uni207D" unicode="&#x207d;" horiz-adv-x="215" 
d="M270 855h51q-136 -150 -136 -308q0 -137 78 -243h-51q-74 109 -74 239q0 165 132 312z" />
    <glyph glyph-name="uni207E" unicode="&#x207e;" horiz-adv-x="214" 
d="M101 303h-51q135 147 135 307q0 137 -76 244h51q73 -109 73 -241q0 -162 -132 -310z" />
    <glyph glyph-name="uni207F" unicode="&#x207f;" horiz-adv-x="375" 
d="M139 705h81v-51q37 57 99 57q45 0 69 -26.5t17 -80.5l-18 -144h49l-5 -32l-15 -13h-87l22 170q11 82 -53 82q-65 0 -82 -65l-24 -187h-53l30 246h-49l4 30z" />
    <glyph glyph-name="uni2080" unicode="&#x2080;" horiz-adv-x="373" 
d="M54 151q0 36 7.5 70t24.5 69.5t52.5 57.5t84.5 22q130 0 130 -159q0 -58 -14.5 -104.5t-54 -79.5t-99.5 -33q-131 0 -131 157zM115 156q0 -56 16.5 -85.5t57.5 -29.5q103 0 103 171q0 54 -15.5 82.5t-57.5 28.5q-104 0 -104 -167z" />
    <glyph glyph-name="uni2081" unicode="&#x2081;" horiz-adv-x="255" 
d="M16 45h72l29 274h-73l4 45h131l-34 -319h72l-5 -45h-202z" />
    <glyph glyph-name="uni2082" unicode="&#x2082;" horiz-adv-x="340" 
d="M92 252l-43 5l19 76q46 37 114 37q56 0 85 -25.5t29 -64.5q0 -23 -12.5 -49t-26.5 -45t-43.5 -45.5t-43 -37t-46.5 -34.5l-33 -24h154l12 53l48 -5l-18 -93h-268l-1 41q9 7 31.5 24t33.5 25.5t31.5 25t31.5 27t27 26t24.5 27.5t17.5 26t13 27t4 26q0 50 -63 50
q-31 0 -57 -17z" />
    <glyph glyph-name="uni2083" unicode="&#x2083;" horiz-adv-x="336" 
d="M106 258l-43 5l16 69q46 37 115 37q48 0 78 -22.5t30 -60.5q0 -68 -82 -92v-2q79 -12 79 -84q0 -53 -41 -84t-102 -31q-53 0 -86.5 25.5t-35.5 71.5l43 12q2 -26 22.5 -45t56.5 -19q38 0 59.5 20.5t21.5 51.5q0 29 -22 44t-74 16l4 38q48 2 71.5 20.5t23.5 47.5
q0 48 -58 48q-30 0 -59 -16z" />
    <glyph glyph-name="uni2084" unicode="&#x2084;" horiz-adv-x="349" 
d="M184 0l10 94h-177l-1 44l151 226h111l-24 -228h62l-10 -42h-56l-10 -94h-56zM189 319l-122 -183h131l20 183h-29z" />
    <glyph glyph-name="uni2085" unicode="&#x2085;" horiz-adv-x="329" 
d="M292 115q0 -58 -40 -90t-101 -32q-56 0 -90 26t-35 71l43 12q2 -26 25 -45t59 -19q37 0 57.5 19.5t20.5 54.5q0 70 -102 70q-8 0 -16.5 -0.5t-18.5 -1.5t-16 -1l-17 16l16 169h219v-1l1 1l-5 -90l-46 -5v50h-120l-10 -95h26q150 0 150 -109z" />
    <glyph glyph-name="uni2086" unicode="&#x2086;" horiz-adv-x="343" 
d="M221 325q-105 0 -112 -154q31 58 102 58q47 0 74.5 -27.5t27.5 -73.5q0 -55 -36 -94.5t-103 -39.5q-61 0 -92.5 39.5t-31.5 110.5q0 94 44 160t124 66q67 0 106 -49l-35 -34q-28 38 -68 38zM195 185q-38 0 -59.5 -19.5t-26.5 -46.5q2 -39 18 -58.5t52 -19.5q74 0 74 82
q0 62 -58 62z" />
    <glyph glyph-name="uni2087" unicode="&#x2087;" horiz-adv-x="303" 
d="M64 364h251l4 -27l-176 -337h-57l170 319h-146l-7 -62h-49z" />
    <glyph glyph-name="uni2088" unicode="&#x2088;" horiz-adv-x="346" 
d="M157 -6q-56 0 -89.5 22.5t-33.5 66.5q0 39 26.5 62t70.5 40q-68 37 -68 83q0 44 38.5 73t98.5 29q52 0 83.5 -22.5t31.5 -61.5q0 -34 -23 -54.5t-65 -36.5q26 -13 41 -23t28 -29t13 -42q0 -49 -43 -78t-109 -29zM125 276q0 -20 16.5 -33.5t49.5 -29.5q32 15 49 30t17 37
q0 23 -17.5 35t-44.5 12q-30 0 -50 -14.5t-20 -36.5zM164 37q35 0 58.5 16t23.5 42q0 17 -13.5 31.5t-26 21t-42.5 20.5q-34 -15 -52.5 -32t-18.5 -43t19.5 -41t51.5 -15z" />
    <glyph glyph-name="uni2089" unicode="&#x2089;" horiz-adv-x="343" 
d="M153 39q103 0 112 154q-31 -58 -102 -58q-47 0 -74.5 27.5t-27.5 74.5q0 55 36 94t103 39q60 0 92 -40t32 -110q0 -94 -43 -160t-121 -66q-71 0 -110 49l35 34q27 -38 68 -38zM179 179q38 0 59.5 19.5t26.5 46.5q-3 38 -19 58t-51 20q-74 0 -74 -82q0 -62 58 -62z" />
    <glyph glyph-name="uni208A" unicode="&#x208a;" horiz-adv-x="286" 
d="M36 163l4 39h95l10 94h41l-10 -94h91l-4 -39h-91l-10 -93h-41l10 93h-95z" />
    <glyph glyph-name="uni208B" unicode="&#x208b;" horiz-adv-x="322" 
d="M70 163l4 39h227l-4 -39h-227z" />
    <glyph glyph-name="uni208C" unicode="&#x208c;" horiz-adv-x="387" 
d="M71 230l5 40h291l-5 -40h-291zM58 95l3 39h291l-3 -39h-291z" />
    <glyph glyph-name="uni208D" unicode="&#x208d;" horiz-adv-x="214" 
d="M182 440h51q-136 -150 -136 -308q0 -137 78 -243h-51q-74 109 -74 239q0 165 132 312z" />
    <glyph glyph-name="uni208E" unicode="&#x208e;" horiz-adv-x="214" 
d="M15 -112h-51q135 147 135 307q0 137 -76 244h51q73 -109 73 -241q0 -162 -132 -310z" />
    <glyph glyph-name="uni2090" unicode="&#x2090;" horiz-adv-x="360" 
d="M324 290q-19 -58 -22 -94l-20 -151h43l-2 -32l-16 -13h-75l1 60q-35 -67 -101 -67q-48 0 -74 33.5t-26 89.5q0 42 12.5 81t45 69t80.5 30q69 0 88 -56q3 12 14 50h52zM177 252q-46 0 -67 -38.5t-21 -89.5q0 -86 60 -86q37 0 62.5 30t28.5 65v-1l6 50q0 32 -19.5 51
t-49.5 19z" />
    <glyph glyph-name="uni2091" unicode="&#x2091;" horiz-adv-x="309" 
d="M158 38q54 0 76 56l43 -11q-10 -39 -43.5 -64.5t-84.5 -25.5q-55 0 -86 33t-31 95q0 75 42 125t111 50q43 0 71.5 -20.5t28.5 -55.5q0 -66 -108 -87q-28 -7 -88 -14q2 -81 69 -81zM152 164q43 9 59.5 21.5t16.5 31.5q0 39 -49 39q-40 0 -61.5 -29.5t-26.5 -72.5
q26 3 61 10z" />
    <glyph glyph-name="uni2092" unicode="&#x2092;" horiz-adv-x="336" 
d="M32 123q0 73 40 123t114 50q62 0 92.5 -36.5t30.5 -95.5q0 -75 -42.5 -123t-114.5 -48q-59 0 -89.5 34.5t-30.5 95.5zM89 127q0 -89 68 -89q47 0 70.5 35t23.5 89q0 90 -70 90q-45 0 -68.5 -33.5t-23.5 -91.5z" />
    <glyph glyph-name="uni2093" unicode="&#x2093;" horiz-adv-x="345" 
d="M307 14l-17 -14h-130l4 30l16 15h26l-57 81q-90 -55 -72 -126h-59q-6 22 0 42t25.5 39.5t37.5 32.5t49 33l-74 99h-41l4 30l15 14h130l-3 -31l-17 -13h-26l51 -73q85 61 67 117h59q7 -19 1 -38t-27.5 -39t-36 -31t-44.5 -31l79 -106h44z" />
    <glyph glyph-name="uni2095" unicode="&#x2095;" horiz-adv-x="365" 
d="M55 433l15 14h88l-27 -208q34 57 99 57q44 0 68 -26.5t17 -80.5l-18 -144h48l-4 -32l-16 -13h-86l21 170q10 82 -54 82q-36 0 -57 -22.5t-26 -57.5l-22 -172h-53l50 402h-47z" />
    <glyph glyph-name="uni2096" unicode="&#x2096;" horiz-adv-x="322" 
d="M55 433l15 14h88l-36 -276h53q62 55 67 119h55q-4 -79 -92 -137l61 -108h44l-4 -32l-15 -13h-57l-71 131h-46l-16 -131h-53l50 402h-47z" />
    <glyph glyph-name="uni2097" unicode="&#x2097;" horiz-adv-x="177" 
d="M53 433l16 14h89l-52 -402h49l-4 -32l-16 -13h-87l50 402h-48z" />
    <glyph glyph-name="uni2098" unicode="&#x2098;" horiz-adv-x="552" 
d="M51 290h81v-53q35 59 97 59q70 0 82 -63q33 63 100 63q44 0 67 -28t16 -79l-19 -144h49l-4 -32l-15 -13h-87l21 170q10 82 -53 82q-60 0 -76 -66l-22 -186h-53l22 170q9 82 -52 82q-60 0 -77 -61l-24 -191h-53l30 246h-49l4 30z" />
    <glyph glyph-name="uni2099" unicode="&#x2099;" horiz-adv-x="375" 
d="M51 290h81v-51q37 57 99 57q45 0 69 -26.5t17 -80.5l-18 -144h49l-5 -32l-15 -13h-87l22 170q11 82 -53 82q-65 0 -82 -65l-24 -187h-53l30 246h-49l4 30z" />
    <glyph glyph-name="uni209A" unicode="&#x209a;" horiz-adv-x="365" 
d="M111 -125l-14 -13h-147l4 29l16 15h28l44 340h-51l5 30l15 14h80l-1 -60q38 66 103 66q49 0 76.5 -33.5t27.5 -91.5q0 -67 -35 -122.5t-105 -55.5q-67 0 -89 49l-18 -136h65zM149 38q47 0 69 40t22 87q0 40 -17 63.5t-48 23.5q-36 0 -60 -27t-31 -62l-7 -49
q-1 -34 19 -55t53 -21z" />
    <glyph glyph-name="uni209B" unicode="&#x209b;" horiz-adv-x="299" 
d="M134 38q67 0 67 44q0 6 -1 10.5t-3.5 8.5t-5 6.5t-7.5 5.5t-8 4.5t-11 3.5t-11.5 3t-13 3.5t-13.5 3.5q-25 6 -40 12.5t-28.5 23t-13.5 41.5q0 43 32.5 65.5t77.5 22.5q63 0 106 -27l3 -63l-46 -6l-4 41q-26 11 -55 11q-26 0 -42 -11t-16 -30q0 -17 14 -25.5t46 -16.5
q29 -6 45.5 -11.5t34 -24t17.5 -47.5q0 -43 -32 -68t-84 -25q-69 0 -116 34l12 75l44 -5l-3 -45q25 -14 55 -14z" />
    <glyph glyph-name="uni209C" unicode="&#x209c;" horiz-adv-x="259" 
d="M36 276l17 14h32l10 74l19 18h37l-12 -92h99l-4 -28l-16 -16h-84l-20 -156q-2 -27 5 -39.5t29 -12.5q16 0 27 11t20 44l39 -13q-11 -46 -32.5 -66.5t-59.5 -20.5q-43 0 -65 25t-17 68l20 160h-48z" />
    <glyph glyph-name="uni20A1" unicode="&#x20a1;" horiz-adv-x="677" 
d="M681 689h53l-287 -629q43 6 81 25l28 96l60 -6l-29 -125q-63 -48 -171 -58l-29 -63h-53l28 61q-37 1 -74 11l-33 -72h-52l40 88q-72 34 -111.5 105.5t-39.5 165.5q0 154 95 263t236 109q58 0 104 -19l22 48h53l-33 -71q34 -25 51 -62zM427 594q-114 0 -186 -85.5
t-72 -212.5q0 -155 104 -213l227 499q-36 12 -73 12zM542 558l-225 -492q33 -10 75 -10l196 429q-10 44 -46 73z" />
    <glyph glyph-name="uni20A2" unicode="&#x20a2;" horiz-adv-x="651" 
d="M590 50q-80 -60 -210 -60q-136 0 -211 82t-75 217q0 156 95 263.5t251 107.5q132 0 210 -76l4 -125l-62 -6l-8 95q-62 46 -148 46q-120 0 -194 -81t-74 -218q0 -204 168 -234l29 259h-76l5 38l21 19h111l-2 -101q47 111 118 111q28 0 54 -17l-13 -71q-27 15 -53 15
q-38 0 -68 -35.5t-42 -85.5l-17 -137q75 2 128 29l28 96l60 -6z" />
    <glyph glyph-name="uni20A3" unicode="&#x20a3;" horiz-adv-x="744" 
d="M33 64h79l55 522h-80l6 64h458l1 -188l-65 -6l-5 130h-244l-23 -217h322l-7 -101q45 109 117 109q29 0 54 -17l-13 -71q-27 15 -53 15q-40 0 -70.5 -37.5t-40.5 -89.5l-13 -120h94l-5 -39l-21 -18h-210l5 38l20 19h49l27 248h-261l-26 -241h110l-7 -64h-260z" />
    <glyph glyph-name="uni20A4" unicode="&#x20a4;" horiz-adv-x="568" 
d="M64 279h80l9 81h-81l5 49h81l1 8q13 124 72.5 183.5t154.5 59.5q104 0 152 -48l4 -124l-60 -7l-8 88q-36 25 -94 25q-65 0 -103 -40t-48 -136l-1 -9h216l-4 -49h-217l-9 -81h217l-5 -49h-217q-15 -118 -93 -166h235q79 0 136 77l36 -37q-20 -36 -63.5 -70t-100.5 -34
h-333l7 61q89 41 105 169h-79z" />
    <glyph glyph-name="uni20A5" unicode="&#x20a5;" horiz-adv-x="828" 
d="M123 445h114l-3 -88q51 97 148 97q107 0 122 -103q5 10 17 30l98 184h54l-63 -117q21 6 44 6q66 0 100 -43t24 -126l-28 -228h75l-5 -40l-22 -17h-122l32 264q15 133 -83 133q-27 0 -47 -9l-80 -149l-29 -239h-67l9 76l-110 -206h-54l180 336l7 58q15 133 -81 133
q-57 0 -88 -38.5t-39 -97.5l-1 1l-31 -262h-67l47 388h-78l5 38z" />
    <glyph glyph-name="uni20A6" unicode="&#x20a6;" horiz-adv-x="751" 
d="M79 64h73l18 169h-87l5 48h87l9 90h-85l4 49h86l18 166h-83l7 64h134l141 -230h199l17 166h-94l6 64h242l-6 -64h-80l-17 -166h81l-6 -49h-80l-10 -90h80l-5 -48h-80l-24 -233h-45l-143 233h-204l-18 -169h102l-6 -64h-243zM267 512l-10 -92h69l-56 92h-3zM242 281h169
l-55 90h-104zM492 281h99l9 90h-164zM574 148h3l9 85h-65z" />
    <glyph glyph-name="uni20A7" unicode="&#x20a7;" horiz-adv-x="1247" 
d="M32 64h79l55 522h-79l7 64h261q102 0 154 -51t52 -130q0 -107 -65 -167t-172 -60h-124l-19 -178h110l-7 -64h-258zM566 425l23 20h55l14 120l24 23h47l-18 -143h152l-5 -36l-23 -21h-131l-30 -251q-5 -46 7.5 -68t47.5 -22q25 0 43 17t32 68l50 -17q-18 -66 -48.5 -95.5
t-84.5 -29.5q-62 0 -92.5 38t-22.5 103l31 257h-76zM321 306q79 0 122 42t43 118q0 57 -36 88.5t-107 31.5h-107l-29 -280h114zM1022 47q108 0 108 77q0 25 -16 41.5t-32 22t-59 17.5q-7 2 -10 3q-55 14 -86 37.5t-31 75.5q0 63 46 98t113 35q90 0 154 -41l-2 -104l-55 -7
l-4 71q-46 24 -87 24q-45 0 -69.5 -18.5t-24.5 -50.5q0 -28 21 -42.5t74 -28.5q26 -7 38.5 -10.5t35.5 -14t34.5 -22.5t21 -33t9.5 -47q0 -65 -46.5 -102.5t-122.5 -37.5q-46 0 -95.5 12.5t-75.5 31.5l24 101l55 -6l-10 -62q39 -20 92 -20z" />
    <glyph glyph-name="uni20A8" unicode="&#x20a8;" horiz-adv-x="923" 
d="M726 397q-43 0 -68 -18.5t-25 -50.5q0 -30 26 -46t62.5 -23.5t73.5 -16.5t63 -34.5t26 -69.5q0 -65 -53 -106.5t-151 -41.5q-105 0 -182 51t-112 133l-44 98h-139l-22 -208h87l-6 -64h-238l8 64h78l55 522h-80l7 64h275q104 0 153.5 -44t49.5 -121q0 -71 -40.5 -124.5
t-115.5 -73.5l38 -86q30 -69 95.5 -111.5t142.5 -42.5q54 0 87.5 21t33.5 60q0 32 -26 49t-63.5 24t-74.5 16t-63 34.5t-26 70.5q0 65 48.5 98.5t118.5 33.5q91 0 153 -41l-1 -104l-55 -7l-4 71q-46 24 -92 24zM327 333q86 0 126.5 38t40.5 104q0 58 -33 84.5t-110 26.5
h-115l-26 -253h117z" />
    <glyph glyph-name="uni20A9" unicode="&#x20a9;" horiz-adv-x="972" 
d="M115 302h115l-18 90h-87l5 52h71l-28 142h-54l6 64h218l-7 -64h-90l26 -142h200l59 142h-64l7 64h218l-7 -64h-64l29 -142h193l51 142h-90l7 64h216l-6 -64h-54l-56 -142h80l-6 -52h-94l-36 -90h121l-5 -52h-136l-98 -250h-58l-52 250h-174l-104 -250h-59l-50 250h-130z
M565 520l-32 -76h53l-16 76h-5zM298 302h114l38 90h-169zM679 302h112l33 90h-163zM474 302h142l-19 90h-85zM718 117h6l48 133h-82zM331 120h5l54 130h-83z" />
    <glyph glyph-name="uni20AA" unicode="&#x20aa;" horiz-adv-x="766" 
d="M120 0l68 650h210q96 0 139.5 -25t53.5 -85.5t-3 -162.5l-14 -133h-72l16 138q5 49 6.5 76.5t-1 54t-10 38.5t-24.5 22t-39.5 12.5t-58.5 2.5h-138l-61 -588h-72zM376 62h152q29 0 50 4.5t36.5 10t26.5 21.5t17.5 27.5t11.5 40.5t7.5 48t7.5 62l39 374h72l-39 -369
q-5 -50 -10 -81t-13 -64t-19 -52.5t-27.5 -37.5t-39.5 -27t-54.5 -14t-72.5 -5h-222l43 406h70z" />
    <glyph glyph-name="uni20AB" unicode="&#x20ab;" horiz-adv-x="540" 
d="M285 634h161l6 54h64l-6 -54h61l-5 -48h-61l-41 -400h68l-5 -49h-133l8 80q-54 -89 -157 -89q-71 0 -111 44.5t-40 127.5q0 44 11 83t34 72.5t63 53t93 19.5q101 0 132 -72l14 130h-161zM304 477q-73 0 -107.5 -49.5t-34.5 -119.5q0 -64 28.5 -96t75.5 -32
q54 0 93.5 35.5t50.5 82.5l1 6l8 70q1 47 -29.5 75t-85.5 28zM94 52h381l-6 -52h-381z" />
    <glyph glyph-name="uni20AC" unicode="&#x20ac;" horiz-adv-x="589" 
d="M59 297l5 46h63q28 84 93.5 135t158.5 51q49 0 97.5 -13.5t73.5 -36.5l4 -118l-60 -6l-8 93q-43 24 -111 24q-65 0 -109.5 -34.5t-65.5 -94.5h192l-5 -46h-199q-5 -25 -5 -62v-17h171l-5 -45h-161q25 -123 147 -123q66 0 115 21l28 96l58 -6l-31 -124q-30 -18 -83 -31.5
t-101 -13.5q-89 0 -142 48.5t-66 132.5h-67l5 45h58v10q0 36 6 69h-56z" />
    <glyph glyph-name="uni20AD" unicode="&#x20ad;" horiz-adv-x="663" 
d="M400 64h73l-142 235h-105l-25 -235h73l-7 -64h-223l8 64h78l25 235h-78l7 63h77l24 224h-79l6 64h225l-7 -64h-74l-24 -224h103l184 225h-72l7 64h222l-7 -64h-70l-190 -225h170l-7 -63h-159l143 -235h71l-7 -64h-228z" />
    <glyph glyph-name="uni20AE" unicode="&#x20ae;" horiz-adv-x="615" 
d="M649 452l-64 -5l-5 139h-159l-20 -193l140 50l-5 -56l-141 -50l-8 -71l142 50l-6 -54l-142 -51l-15 -147h112l-6 -64h-293l7 64h109l13 121l-134 -47l5 55l135 47l7 71l-134 -47l5 54l135 48l23 220h-161l-34 -139l-63 5l39 198h520z" />
    <glyph glyph-name="uni20B1" unicode="&#x20b1;" horiz-adv-x="642" 
d="M56 64h79l32 306h-75l5 45h75l6 62h-75l5 45h75l7 64h-79l7 64h261q83 0 133.5 -35t65.5 -93h82l-5 -45h-70v-8q0 -26 -5 -54h68l-5 -45h-77q-25 -62 -82.5 -95t-135.5 -33h-124l-19 -178h110l-7 -64h-258zM367 586h-107l-7 -64h245q-30 64 -131 64zM510 466q0 1 -0.5 5
t-0.5 6h-261l-6 -62h262q6 23 6 51zM345 306q98 0 140 64h-248l-7 -64h115z" />
    <glyph glyph-name="uni20B4" unicode="&#x20b4;" horiz-adv-x="578" 
d="M88 371l4 39h334q55 34 55 92q0 93 -124 93q-72 0 -128 -25l-23 -99l-57 6l24 136q36 20 91.5 33.5t108.5 13.5q81 0 133.5 -36t52.5 -115q0 -59 -37 -99h67l-4 -39h-111q-15 -9 -36 -18.5t-32.5 -14t-41.5 -14.5t-35 -12q-20 -8 -30 -11h279l-5 -39h-349
q-50 -38 -50 -100q0 -107 140 -107q80 0 128 30l28 94l60 -7l-29 -122q-79 -60 -200 -60q-92 0 -148.5 41.5t-56.5 125.5q0 62 37 105h-57l4 39h97q42 27 141 62q10 3 22 8h-252z" />
    <glyph glyph-name="uni20B9" unicode="&#x20b9;" horiz-adv-x="521" 
d="M110 269h153q115 0 132 81h-277l4 43h276q-3 38 -30 55t-85 17h-153l6 56h413l-6 -55h-94q23 -29 25 -73h49l-5 -43h-49q-10 -46 -42.5 -78.5t-82.5 -44.5l75 -171h67l-8 -56h-112l-92 216h-170z" />
    <glyph glyph-name="uni20BA" unicode="&#x20ba;" horiz-adv-x="587" 
d="M85 230l87 36l7 74l-86 -36l5 51l87 36l20 195h-81l8 64h247l-7 -64h-96l-17 -164l213 90l-5 -51l-213 -90l-8 -74l212 90l-5 -51l-213 -90l-19 -182h63q113 0 169.5 68.5t70.5 201.5h71q-16 -155 -93.5 -244.5t-221.5 -89.5h-216l6 64h80l16 151l-86 -36z" />
    <glyph glyph-name="uni20BD" unicode="&#x20bd;" horiz-adv-x="582" 
d="M63 64h79l9 80h-80l5 46h80l7 65h-81l8 63h79l28 268h-80l7 64h271q102 0 152 -47t50 -126q0 -106 -66.5 -164t-172.5 -58h-123l-7 -65h247l-4 -46h-248l-9 -80h109l-6 -64h-261zM355 318q80 0 123 38t43 113q0 117 -139 117h-113l-28 -268h114z" />
    <glyph glyph-name="uni2113" unicode="&#x2113;" horiz-adv-x="386" 
d="M71 191l-23 40l73 49v211q0 78 34.5 123.5t103.5 45.5q61 0 90.5 -34t29.5 -88q0 -71 -48.5 -135t-137.5 -130v-120q0 -58 16.5 -80.5t46.5 -22.5q44 0 88 31l15 -51q-48 -40 -115 -40q-123 0 -123 153v80q-44 -28 -50 -32zM193 478v-144q60 50 89 96t29 99q0 70 -57 70
q-21 0 -34 -8t-18.5 -26.5t-7 -36.5t-1.5 -50z" />
    <glyph glyph-name="uni2116" unicode="&#x2116;" horiz-adv-x="952" 
d="M648 356q0 73 40 123t114 50q62 0 92.5 -36.5t30.5 -95.5q0 -75 -42.5 -123t-114.5 -48q-59 0 -89.5 34.5t-30.5 95.5zM56 56h61l43 409h-70l6 56h120l257 -390h3l36 334h-80l6 56h211l-6 -56h-66l-49 -465h-42l-263 399h-4l-37 -343h84l-6 -56h-210zM705 360
q0 -89 68 -89q47 0 70.5 35t23.5 89q0 90 -70 90q-45 0 -68.5 -33.5t-23.5 -91.5zM625 140l5 50h297l-5 -50h-297z" />
    <glyph glyph-name="uni2117" unicode="&#x2117;" horiz-adv-x="612" 
d="M376 -7q-103 0 -170.5 70t-67.5 173q0 119 87.5 206t204.5 87q104 0 170 -70t66 -174q0 -120 -87 -206t-203 -86zM379 34q101 0 173 73t72 176q0 88 -54 146t-144 58q-102 0 -174 -73t-72 -175q0 -88 55.5 -146.5t143.5 -58.5zM275 137h43l27 253h-44l5 37h148
q57 0 84.5 -26.5t27.5 -71.5q0 -54 -37 -87t-94 -33h-66l-7 -72h58l-4 -37h-145zM432 246q43 0 64.5 21.5t21.5 57.5q0 65 -71 65h-59l-15 -144h59z" />
    <glyph glyph-name="uni2120" unicode="&#x2120;" horiz-adv-x="998" 
d="M276 222q-42 0 -88.5 13t-69.5 30l9 88l47 -4l-3 -56q41 -21 98 -21q42 0 65.5 18.5t23.5 54.5q0 37 -27 54.5t-77 28.5q-31 6 -47.5 11t-39.5 16.5t-34 32.5t-11 51q0 58 40 88.5t100 30.5q38 0 76 -10.5t59 -26.5l5 -89l-46 -5l-8 63q-38 19 -78 19q-39 0 -61.5 -16.5
t-22.5 -47.5q0 -23 15 -38t30 -20t46 -12q74 -18 100 -35q44 -32 45 -91q0 -60 -40.5 -93.5t-105.5 -33.5zM463 275h52v327h-55v48h108l165 -319h3l159 319h108v-48h-56v-327h53v-48h-161v48h49v250h-3l-138 -274h-30l-142 277h-3v-253h50v-48h-159v48z" />
    <glyph glyph-name="uni2122" unicode="&#x2122;" horiz-adv-x="1066" 
d="M1063 602h-56v-327h52v-48h-160v48h48v250h-3l-137 -274h-30l-142 277h-3v-253h50v-48h-159v48h53v327h-57v48h108l166 -319h3l158 319h109v-48zM505 514l-50 -2l-10 90h-110v-327h75v-48h-208v48h74v327h-111l-11 -90l-50 2l10 136h381z" />
    <glyph glyph-name="uni2126" unicode="&#x2126;" horiz-adv-x="702" 
d="M396 594q-110 0 -179 -66t-69 -179q0 -81 38.5 -131.5t113.5 -52.5l-17 -165h-247l7 61h185l6 58q-71 6 -115.5 67.5t-44.5 159.5q0 77 28 138.5t74.5 99t103.5 57t119 19.5q75 0 138 -27t105.5 -89t42.5 -150q0 -106 -56 -187t-151 -88l-6 -58h179l-7 -61h-236l18 165
q64 0 107 37t59 85t16 103q0 99 -58 151.5t-154 52.5z" />
    <glyph glyph-name="uni212E" unicode="&#x212e;" horiz-adv-x="610" 
d="M616 235h-428q-4 0 -4 -3v-137q0 -9 6 -17q26 -32 67.5 -53.5t89.5 -21.5q114 0 185 84h24q-85 -99 -209 -99q-115 0 -191 73.5t-76 180.5t76 180.5t191 73.5t192 -73.5t77 -180.5v-7zM511 255v137q0 13 -5 18q-22 28 -67 49.5t-92 21.5t-92 -23t-64 -51q-7 -11 -7 -19
v-133q0 -4 4 -4h322q1 0 1 4z" />
    <glyph glyph-name="uni2153" unicode="&#x2153;" horiz-adv-x="728" 
d="M621 650l-219 -325l-213 -325h-52l227 337l206 313h51zM86 331h72l29 274h-73l4 45h131l-34 -319h72l-5 -45h-202zM526 258l-43 5l16 69q46 37 115 37q48 0 78 -22.5t30 -60.5q0 -68 -82 -92v-2q79 -12 79 -84q0 -53 -41 -84t-102 -31q-53 0 -86.5 25.5t-35.5 71.5l43 12
q2 -26 22.5 -45t56.5 -19q38 0 59.5 20.5t21.5 51.5q0 29 -22 44t-74 16l4 38q48 2 71.5 20.5t23.5 47.5q0 48 -58 48q-30 0 -59 -16z" />
    <glyph glyph-name="uni2154" unicode="&#x2154;" horiz-adv-x="779" 
d="M160 542l-43 5l19 76q46 37 114 37q56 0 85 -25.5t29 -64.5q0 -23 -12.5 -49t-26.5 -45t-43.5 -45.5t-43 -37t-46.5 -34.5l-33 -24h154l12 53l48 -5l-18 -93h-268l-1 41q9 7 31.5 24t33.5 25.5t31.5 25t31.5 27t27 26t24.5 27.5t17.5 26t13 27t4 26q0 50 -63 50
q-31 0 -57 -17zM687 650l-219 -325l-213 -325h-52l227 337l206 313h51zM580 258l-43 5l16 69q46 37 115 37q48 0 78 -22.5t30 -60.5q0 -68 -82 -92v-2q79 -12 79 -84q0 -53 -41 -84t-102 -31q-53 0 -86.5 25.5t-35.5 71.5l43 12q2 -26 22.5 -45t56.5 -19q38 0 59.5 20.5
t21.5 51.5q0 29 -22 44t-74 16l4 38q48 2 71.5 20.5t23.5 47.5q0 48 -58 48q-30 0 -59 -16z" />
    <glyph glyph-name="uni215B" unicode="&#x215b;" horiz-adv-x="721" 
d="M631 650l-219 -325l-213 -325h-52l227 337l206 313h51zM86 331h72l29 274h-73l4 45h131l-34 -319h72l-5 -45h-202zM559 -6q-56 0 -89.5 22.5t-33.5 66.5q0 39 26.5 62t70.5 40q-68 37 -68 83q0 44 38.5 73t98.5 29q52 0 83.5 -22.5t31.5 -61.5q0 -34 -23 -54.5t-65 -36.5
q26 -13 41 -23t28 -29t13 -42q0 -49 -43 -78t-109 -29zM527 276q0 -20 16.5 -33.5t49.5 -29.5q32 15 49 30t17 37q0 23 -17.5 35t-44.5 12q-30 0 -50 -14.5t-20 -36.5zM566 37q35 0 58.5 16t23.5 42q0 17 -13.5 31.5t-26 21t-42.5 20.5q-34 -15 -52.5 -32t-18.5 -43
t19.5 -41t51.5 -15z" />
    <glyph glyph-name="uni2190" unicode="&#x2190;" horiz-adv-x="765" 
d="M360 29l-274 209v25l273 213v-65l-146 -130h595v-60h-596l148 -127v-65z" />
    <glyph glyph-name="uni2191" unicode="&#x2191;" horiz-adv-x="533" 
d="M324 701l209 -274h-65l-127 147v-595h-61v593l-129 -144h-65l213 273h25z" />
    <glyph glyph-name="uni2192" unicode="&#x2192;" horiz-adv-x="766" 
d="M723 238l-275 -209v65l148 127h-596v60h595l-146 130v65l274 -213v-25z" />
    <glyph glyph-name="uni2193" unicode="&#x2193;" horiz-adv-x="533" 
d="M533 253l-211 -274h-26l-210 274h65l127 -146v594h62v-594l128 146h65z" />
    <glyph glyph-name="uni2196" unicode="&#x2196;" horiz-adv-x="627" 
d="M104 590l342 -46l-46 -46l-193 13l420 -419l-43 -43l-421 419l12 -194l-47 -45l-42 344z" />
    <glyph glyph-name="uni2197" unicode="&#x2197;" horiz-adv-x="627" 
d="M267 544l342 46l18 -17l-43 -344l-47 45l12 193l-419 -418l-44 43l419 419l-191 -13z" />
    <glyph glyph-name="uni2198" unicode="&#x2198;" horiz-adv-x="627" 
d="M609 49l-342 46l47 47l191 -15l-419 420l44 43l419 -418l-12 193l47 46l43 -345z" />
    <glyph glyph-name="uni2199" unicode="&#x2199;" horiz-adv-x="627" 
d="M446 95l-342 -46l-18 17l42 345l47 -46l-12 -195l421 420l43 -43l-420 -420l193 15z" />
    <glyph glyph-name="uni2202" unicode="&#x2202;" horiz-adv-x="474" 
d="M104 307q0 57 36 101l-81 94l33 30l80 -92q43 32 95 32q50 0 88 -33l103 93l26 -30l-103 -95q20 -35 20 -73q0 -56 -38 -102l82 -94l-33 -31l-82 93q-43 -30 -93 -30t-87 32l-104 -95l-26 31l104 95q-20 32 -20 74zM164 314q-1 -39 21.5 -63t57.5 -24q40 0 68.5 29.5
t28.5 74.5q0 38 -22 61t-56 23q-39 0 -68 -28.5t-30 -72.5z" />
    <glyph glyph-name="uni2206" unicode="&#x2206;" horiz-adv-x="532" 
d="M-4 0l315 661l166 -661h-481zM82 57h322l-110 449z" />
    <glyph glyph-name="uni220F" unicode="&#x220f;" horiz-adv-x="669" 
d="M30 64h80l55 522h-80l7 64h587l-7 -64h-80l-55 -522h80l-6 -64h-233l7 64h79l55 522h-282l-55 -522h81l-7 -64h-232z" />
    <glyph glyph-name="uni2211" unicode="&#x2211;" horiz-adv-x="553" 
d="M-24 -140l7 63l280 330l-210 334l6 63h484l-6 -63h-404l204 -321l-2 -22l-272 -321h404l-7 -63h-484z" />
    <glyph glyph-name="uni2212" unicode="&#x2212;" horiz-adv-x="458" 
d="M112 254l6 54h340l-6 -54h-340z" />
    <glyph glyph-name="uni221A" unicode="&#x221a;" horiz-adv-x="568" 
d="M264 0l-97 385h-109l6 56h152l86 -346l279 602h57l-325 -697h-49z" />
    <glyph glyph-name="uni221E" unicode="&#x221e;" horiz-adv-x="712" 
d="M533 79q-54 0 -86.5 34.5t-59.5 97.5q-40 -63 -78.5 -97.5t-92.5 -34.5q-62 0 -99 45t-37 112q0 81 52.5 138.5t123.5 57.5q54 0 84.5 -36t57.5 -103q44 67 84 103t95 36q59 0 94.5 -44t35.5 -112q0 -82 -50.5 -139.5t-123.5 -57.5zM225 133q43 0 75 30.5t70 89.5
q-12 30 -21 48t-23 37.5t-31.5 29t-40.5 9.5q-48 0 -82 -40t-34 -99q0 -47 23.5 -76t63.5 -29zM530 133q49 0 83.5 38.5t34.5 101.5q0 46 -21.5 75t-62.5 29q-45 0 -78 -32t-71 -93q23 -58 48 -88.5t67 -30.5z" />
    <glyph glyph-name="uni222B" unicode="&#x222b;" horiz-adv-x="371" 
d="M-74 -140l6 60h41q59 0 84 30.5t33 108.5l46 436q10 99 53.5 146.5t136.5 47.5h46l-7 -61h-54q-56 0 -81.5 -29.5t-33.5 -106.5l-46 -438q-10 -98 -55 -146t-133 -48h-36z" />
    <glyph glyph-name="uni2248" unicode="&#x2248;" horiz-adv-x="618" 
d="M463 305q-46 0 -110.5 35.5t-105.5 35.5q-57 0 -103 -63l-39 27q64 102 153 102q42 0 106 -36t107 -36q31 0 55 16.5t55 61.5l43 -31q-74 -112 -161 -112zM442 100q-46 0 -111 36t-105 36q-56 0 -103 -65l-39 28q64 103 152 103q43 0 107 -36t106 -36q32 0 56 16.5
t54 60.5l44 -30q-75 -113 -161 -113z" />
    <glyph glyph-name="uni2260" unicode="&#x2260;" horiz-adv-x="563" 
d="M109 364l6 54h291l61 74h64l-60 -74h92l-6 -54h-130l-137 -168h250l-6 -52h-286l-62 -76h-68l62 76h-94l6 52h131l138 168h-252z" />
    <glyph glyph-name="uni2264" unicode="&#x2264;" horiz-adv-x="420" 
d="M359 100l-292 194l3 30l332 199l-7 -65l-246 -147l216 -148zM36 0l5 53h312l-5 -53h-312z" />
    <glyph glyph-name="uni2265" unicode="&#x2265;" horiz-adv-x="418" 
d="M122 523l291 -195l-3 -29l-332 -200l8 66l246 147l-217 147zM386 53l-5 -53h-313l6 53h312z" />
    <glyph glyph-name="uni24CA" unicode="&#x24ca;" horiz-adv-x="612" 
d="M376 -7q-103 0 -170.5 70t-67.5 173q0 119 87.5 206t204.5 87q104 0 170 -70t66 -174q0 -120 -87 -206t-203 -86zM379 34q101 0 173 73t72 176q0 88 -54 146t-144 58q-102 0 -174 -73t-72 -175q0 -88 55.5 -146.5t143.5 -58.5zM459 401h118l-4 -36h-33l-13 -130
q-14 -141 -142 -141q-121 0 -108 135l14 136h-34l4 36h121l-4 -36h-45l-14 -134q-10 -101 72 -101q85 0 96 105l13 130h-46z" />
    <glyph glyph-name="uni25B2" unicode="&#x25b2;" horiz-adv-x="650" 
d="M650 23h-574l287 458z" />
    <glyph glyph-name="uni25B6" unicode="&#x25b6;" horiz-adv-x="591" 
d="M188 -35v575l459 -288z" />
    <glyph glyph-name="uni25B8" unicode="&#x25b8;" horiz-adv-x="418" 
d="M475 234l-287 -287v575z" />
    <glyph glyph-name="uni25BA" unicode="&#x25ba;" horiz-adv-x="905" 
d="M954 234l-774 -287v575z" />
    <glyph glyph-name="uni25BC" unicode="&#x25bc;" horiz-adv-x="650" 
d="M76 480h574l-287 -458z" />
    <glyph glyph-name="uni25C0" unicode="&#x25c0;" horiz-adv-x="591" 
d="M535 -35l-459 287l459 288v-575z" />
    <glyph glyph-name="uni25C2" unicode="&#x25c2;" horiz-adv-x="418" 
d="M362 -53l-286 288l286 287v-575z" />
    <glyph glyph-name="uni25C4" unicode="&#x25c4;" horiz-adv-x="906" 
d="M854 -53l-774 286l774 289v-575z" />
    <glyph glyph-name="uni25CA" unicode="&#x25ca;" horiz-adv-x="582" 
d="M298 -11l-228 331l299 340l225 -340zM307 72l219 248l-166 251l-224 -251z" />
    <glyph glyph-name="uni2610" unicode="&#x2610;" horiz-adv-x="879" 
d="M202 0v651h677v-651h-677zM261 592v-534h560v534h-560z" />
    <glyph glyph-name="uni2611" unicode="&#x2611;" horiz-adv-x="879" 
d="M202 0v651h677v-651h-677zM261 592v-534h560v534h-560zM402 320l86 -147l199 384l87 -52l-286 -396l-162 140z" />
    <glyph glyph-name="uni261A" unicode="&#x261a;" horiz-adv-x="957" 
d="M926 394v-352h-154q-2 16 -4 50q-145 -56 -225 -56q-20 0 -48.5 2.5t-46.5 5.5l-19 2q-12 -2 -56 -2q-33 0 -51 9.5t-18 36.5q0 16 15 31q-22 17 -22 40q0 17 11 28q-21 18 -21 40q0 11 6 21l-132 1q-31 0 -45 15t-14 36q0 23 14.5 37.5t44.5 14.5h168q-8 24 11 51
q33 3 76 18.5t64 15.5q74 0 141 -23.5t146 -68.5q1 15 5 47h154z" />
    <glyph glyph-name="uni261B" unicode="&#x261b;" horiz-adv-x="957" 
d="M164 42v352h154l4 -47q80 45 146.5 68.5t141.5 23.5q21 0 64 -15.5t76 -18.5q19 -27 11 -51h168q30 0 44.5 -14.5t14.5 -37.5q0 -21 -14 -36t-45 -15l-132 -1q6 -10 6 -21q0 -22 -21 -40q11 -11 11 -28q0 -23 -22 -40q15 -15 15 -31q0 -27 -18 -36.5t-51 -9.5
q-44 0 -56 2q-69 -10 -114 -10q-80 0 -225 56l-4 -50h-154z" />
    <glyph glyph-name="uni261C" unicode="&#x261c;" horiz-adv-x="927" 
d="M894 394v-352h-154q-2 16 -4 50q-145 -56 -225 -56q-20 0 -48.5 2.5t-46.5 5.5l-19 2q-12 -2 -56 -2q-33 0 -51 9.5t-18 36.5q0 16 15 31q-22 17 -22 40q0 17 11 28q-21 18 -21 40q0 11 6 21l-102 1q-31 0 -45 15t-14 36q0 23 14.5 37.5t44.5 14.5h148q-3 9 -3 19
q0 8 3.5 19.5t6.5 19.5l4 7q70 28 146 28q122 0 272 -96q2 30 4 43h154zM734 131q-3 51 -3 104q0 25 2 75q-57 33 -90.5 50.5t-89 36t-100.5 18.5q-64 0 -115 -29q-1 -8 -1 -13q0 -9 19 -9q55 15 94 15q27 0 48 -12q2 -5 7 -16.5t7 -15.5t6 -13t6.5 -13t6.5 -11t8 -12
t10 -11.5t12 -12.5q0 -18 -15 -31q-53 48 -72 87h-318q-23 0 -23 -16q0 -15 23 -15l298 -2q27 -27 27 -55q0 -18 -10 -34q10 -21 10 -36q0 -21 -17 -41q4 -15 4 -23q0 -13 -4 -22q1 -2 47 -2q73 0 223 59zM441 248h-148q-6 -13 -6 -19q0 -18 6 -18l152 -4q0 35 -4 41z
M443 180h-140q-7 -13 -7 -19q0 -14 7 -18l142 -4v17q0 22 -2 24zM429 112h-118q-6 -17 -6 -20q0 -6 10.5 -10.5t25.5 -4.5q21 0 31 1q6 0 17.5 0.5t15.5 0.5h23q2 4 2 16q0 15 -1 17z" />
    <glyph glyph-name="uni261D" unicode="&#x261d;" horiz-adv-x="535" 
d="M138 -98v154l50 4q-56 145 -56 225q0 20 2.5 48.5t5.5 46.5l2 19q-2 12 -2 56q0 33 9.5 51t36.5 18q16 0 31 -15q17 22 40 22q17 0 28 -11q18 21 40 21q11 0 21 -6l1 102q0 31 15 45t36 14q23 0 37.5 -14.5t14.5 -44.5v-148q9 3 19 3q8 0 19.5 -3.5t19.5 -6.5l7 -4
q28 -70 28 -146q0 -124 -96 -272l43 -4v-154h-352zM168 285q0 -73 59 -223q58 2 89 2q30 0 90 -2q32 56 50 90.5t36.5 90t18.5 100.5q0 64 -29 115q-8 1 -13 1q-9 0 -9 -19q15 -55 15 -94q0 -27 -12 -48q-5 -2 -16.5 -7t-15.5 -7t-13 -6t-13 -6.5t-11 -6.5t-12 -8t-11.5 -10
t-12.5 -12q-18 0 -31 15q48 53 87 72v318q0 23 -16 23q-15 0 -15 -23l-2 -298q-27 -27 -55 -27q-18 0 -34 10q-21 -10 -36 -10q-21 0 -41 17q-15 -4 -23 -4q-13 0 -22 4q-2 -1 -2 -47zM344 355v148q-13 6 -19 6q-18 0 -18 -6l-4 -152q35 0 41 4zM276 353v140q-13 7 -19 7
q-14 0 -18 -7l-4 -142h17q22 0 24 2zM208 367v118q-17 6 -20 6q-6 0 -10.5 -10.5t-4.5 -25.5q0 -21 1 -31q0 -6 0.5 -17.5t0.5 -15.5v-23q4 -2 16 -2q15 0 17 1z" />
    <glyph glyph-name="uni261E" unicode="&#x261e;" horiz-adv-x="927" 
d="M166 42v352h154l4 -43q150 96 272 96q76 0 146 -28q14 -27 14 -46q0 -10 -3 -19h148q30 0 44.5 -14.5t14.5 -37.5q0 -21 -14 -36t-45 -15l-102 -1q6 -10 6 -21q0 -22 -21 -40q11 -11 11 -28q0 -23 -22 -40q15 -15 15 -31q0 -27 -18 -36.5t-51 -9.5q-44 0 -56 2
q-69 -10 -114 -10q-80 0 -225 56l-4 -50h-154zM607 415q-45 0 -100.5 -18.5t-90 -36.5t-90.5 -50q2 -60 2 -90q0 -31 -2 -89q149 -59 223 -59l47 2q-4 9 -4 22l4 23q-17 20 -17 41q0 7 2.5 16t4.5 14l3 6q-10 16 -10 34q0 28 27 55l298 2q23 0 23 15q0 16 -23 16h-318
q-19 -39 -72 -87q-15 14 -15 31q7 7 13 13.5t11.5 14.5t8.5 12t8 15t6.5 14t7.5 17.5t8 18.5q21 12 48 12q39 0 94 -15q19 0 19 9l-1 13q-51 29 -115 29zM767 248h-148q-4 -6 -4 -41l152 4q6 0 6 18zM757 180h-140q-2 -2 -2 -24v-17l142 4q7 4 7 18zM749 112h-118
q-1 -2 -1 -17q0 -12 2 -16h23q4 0 15.5 -0.5t17.5 -0.5q10 -1 31 -1q15 0 25.5 4.5t10.5 10.5z" />
    <glyph glyph-name="uni261F" unicode="&#x261f;" horiz-adv-x="536" 
d="M138 696h352v-154q-13 -2 -43 -4q96 -150 96 -272q0 -76 -28 -146q-27 -14 -46 -14q-10 0 -19 3v-148q0 -30 -14.5 -44.5t-37.5 -14.5q-21 0 -36 14t-15 45l-1 102q-10 -6 -21 -6q-22 0 -40 21q-11 -11 -28 -11q-23 0 -40 22q-15 -15 -31 -15q-27 0 -36.5 18t-9.5 51
q0 44 2 56q-10 69 -10 114q0 80 56 225q-34 2 -50 4v154zM406 535q-50 -2 -75 -2q-53 0 -104 3q-59 -150 -59 -223l2 -47q9 4 22 4l23 -4q20 17 41 17q7 0 16 -2.5t14 -4.5l6 -3q16 10 34 10q28 0 55 -27l2 -298q0 -23 15 -23q16 0 16 23v318q-39 19 -87 72q13 15 31 15
q7 -7 13.5 -13t14.5 -11.5t12 -8.5t15 -8t14 -6.5t17.5 -7.5t18.5 -8q12 -21 12 -48q0 -39 -15 -94q0 -19 9 -19l13 1q29 51 29 115q0 45 -18.5 100.5t-36 89t-50.5 90.5zM344 95v148q-6 4 -41 4l4 -152q0 -6 18 -6zM276 105v140q-2 2 -24 2h-17l4 -142q4 -7 18 -7zM208 113
v118q-2 1 -17 1q-12 0 -16 -2v-23q0 -4 -0.5 -15.5t-0.5 -17.5q-1 -10 -1 -31q0 -15 4.5 -25.5t10.5 -10.5z" />
    <glyph glyph-name="uni267E" unicode="&#x267e;" horiz-adv-x="612" 
d="M376 -7q-103 0 -170.5 70t-67.5 173q0 119 87.5 206t204.5 87q104 0 170 -70t66 -174q0 -120 -87 -206t-203 -86zM379 34q101 0 173 73.5t72 176.5q0 87 -54.5 145t-143.5 58q-102 0 -174 -73t-72 -175q0 -88 55.5 -146.5t143.5 -58.5zM488 156q-33 0 -52 20t-34 56
q-23 -36 -46 -56t-56 -20q-36 0 -58 25.5t-22 69.5q0 53 31 87t72 34q32 0 50.5 -21t34.5 -61q25 39 48.5 60.5t57.5 21.5q35 0 55 -25t20 -69q0 -55 -29 -88.5t-72 -33.5zM508 336q-20 0 -37.5 -13t-26.5 -25.5t-25 -37.5q26 -69 70 -69q27 0 46 22t19 62q0 61 -46 61z
M305 191q24 0 42 16.5t43 53.5q-23 52 -38 64q-14 11 -32 11q-27 0 -46 -21.5t-19 -59.5q0 -64 50 -64z" />
    <glyph glyph-name="uni2713" unicode="&#x2713;" horiz-adv-x="641" 
d="M281 339l93 -158l215 415l94 -57l-310 -428l-175 152z" />
    <glyph glyph-name="uni301A" unicode="&#x301a;" horiz-adv-x="445" 
d="M66 -213l102 963h328l-6 -52h-112l-90 -859h112l-5 -52h-329zM222 698l-90 -859h96l90 859h-96z" />
    <glyph glyph-name="uni301B" unicode="&#x301b;" horiz-adv-x="444" 
d="M390 750l-102 -963h-328l6 52h112l90 859h-112l5 52h329zM324 698h-97l-90 -859h97z" />
    <glyph glyph-name="uniF8FF" unicode="&#xf8ff;" horiz-adv-x="1241" 
d="M771 338h-11v39h-19v-39h-11v70h11v-20h20v-10h10v-40zM361 377h-11v10h-10v11h11v-10h10v-11zM1101 387h-10v-10h-11v11h10v10h11v-11zM411 387h-10v-10h-11v11h10v10h11v-11zM1051 377h-11v10h-10v11h11v-10h10v-11zM471 338h-21v9h-10v30h-10v11h10v10h11v-10h20v-11
h-20v-29h20v-10zM711 338h-21v9h-10v30h-10v11h10v10h11v-10h20v-11h-20v-29h20v-10zM591 347h-10v-9h-20v-20h-11v70h31v-10h10v-31zM1181 377h-11v11h11v-11zM271 377h-11v11h11v-11zM1141 377h-11v11h11v-11zM311 377h-11v11h11v-11zM531 347h-10v-9h-10v-10h-10v-10h-11
v11h10v18h-10v41h11v-40h19v40h11v-41zM1011 338h-31v9h-10v31h10v10h21v-10h10v-21h-30v-9h30v-10zM951 338h-31v9h-10v41h11v-40h19v40h11v-50zM891 318h-11v20h-20v9h-10v31h10v10h31v-70zM831 338h-31v9h-10v31h10v10h21v-10h10v-21h-30v-9h30v-10zM651 347h-10v-9h-21
v9h-10v31h10v10h21v-10h10v-31zM1241 357h-10v-10h-11v10h-10v11h10v10h11v-10h10v-11zM1081 357h-10v-10h-11v10h-10v11h10v10h11v-10h10v-11zM391 357h-10v-10h-11v10h-10v11h10v10h11v-10h10v-11zM1171 357h-10v-10h-11v10h-10v11h10v10h11v-10h10v-11zM301 357h-10v-10
h-11v10h-10v11h10v10h11v-10h10v-11zM231 357h-10v-10h-11v10h-10v11h10v10h11v-10h10v-11zM1000 368v9h-19v-9h19zM880 348v29h-19v-29h19zM820 368v9h-19v-9h19zM640 348v29h-19v-29h19zM580 348v29h-19v-29h19zM1051 338h-10v-10h-11v10h10v10h11v-10zM1101 328h-11v10
h-10v10h11v-10h10v-10zM411 328h-11v10h-10v10h11v-10h10v-10zM1141 338h-11v10h11v-10zM361 338h-10v-10h-11v10h10v10h11v-10zM311 338h-11v10h11v-10zM1181 338h-11v10h11v-10zM271 338h-11v10h11v-10z" />
    <glyph glyph-name="uni0030.zero" horiz-adv-x="566" 
d="M84 224q0 130 72 218t196 88q104 0 157 -64.5t53 -174.5q0 -134 -72 -217.5t-195 -83.5q-102 0 -156.5 62t-54.5 172zM160 232q0 -177 142 -177q86 0 135 63t49 173q0 174 -142 174q-88 0 -136 -62.5t-48 -170.5zM357 323l-12 -111h-55l12 111h55z" />
    <glyph glyph-name="Iacute_Jacute" horiz-adv-x="753" 
d="M356 745l-202 -42l-9 37l195 73zM786 745l-202 -42l-9 37l195 73zM502 650h266l-6 -64h-70l-44 -420q-9 -87 -56.5 -131.5t-124.5 -44.5q-112 0 -147 99l55 40q16 -39 37.5 -54.5t55.5 -15.5q97 0 109 107l44 420h-125zM31 64h79l55 522h-80l7 64h229l-6 -64h-81
l-55 -522h81l-7 -64h-229z" />
    <glyph glyph-name="iacute_jacute" horiz-adv-x="501" 
d="M571 624l-182 -104l-18 31l165 132zM326 624l-182 -104l-18 31l165 132zM311 426l21 19h148l-57 -463q-12 -98 -48 -150.5t-92 -54.5q-36 -1 -76 18l4 51q122 -51 145 136l49 406h-99zM67 426l21 19h126l-47 -388h75l-5 -40l-22 -17h-123l47 388h-77z" />
    <glyph glyph-name="uni0069.TRK" horiz-adv-x="255" 
d="M156 560l9 91h74l-9 -91h-74zM67 426l21 19h126l-47 -388h75l-5 -40l-22 -17h-123l47 388h-77z" />
    <glyph glyph-name="FL989" horiz-adv-x="632" 
d="M408 704l-168 130l43 48l148 -153zM299 703l-197 42l17 60l188 -66zM-41 64h60l262 522h-101l6 64h180l167 -586h62l-7 -64h-223l6 64h85l-33 125h-270l-61 -125h90l-6 -64h-222zM326 544l-145 -298h227l-78 298h-4z" />
    <glyph glyph-name="FL990" horiz-adv-x="505" 
d="M405 519l-140 159l53 40l115 -177zM298 520l-180 104l36 56l163 -129zM488 445q-24 -86 -30 -138l-32 -250h67l-4 -40l-21 -17h-105l2 90q-54 -100 -152 -100q-72 0 -110.5 50t-38.5 138q0 46 11 91.5t33.5 88.5t64.5 69.5t97 26.5q102 0 132 -84q12 50 20 75h66z
M277 397q-39 0 -67.5 -20t-43.5 -52t-22 -66t-7 -70q0 -69 25 -105.5t72 -36.5q51 0 89 42t50 94l13 98q-1 51 -31 83.5t-78 32.5z" />
    <glyph glyph-name="FL991" horiz-adv-x="632" 
d="M276 699h-58q13 117 133 117q118 0 107 -117h-58q4 38 -9.5 54t-44.5 16q-33 0 -49.5 -16.5t-20.5 -53.5zM-41 64h60l262 522h-101l6 64h180l167 -586h62l-7 -64h-223l6 64h85l-33 125h-270l-61 -125h90l-6 -64h-222zM326 544l-145 -298h227l-78 298h-4z" />
    <glyph glyph-name="FL992" horiz-adv-x="505" 
d="M261 532h-58q13 123 133 123q58 0 85.5 -31t20.5 -92h-58q10 75 -54 75q-62 0 -69 -75zM488 445q-24 -86 -30 -138l-32 -250h67l-4 -40l-21 -17h-105l2 90q-54 -100 -152 -100q-72 0 -110.5 50t-38.5 138q0 46 11 91.5t33.5 88.5t64.5 69.5t97 26.5q102 0 132 -84
q12 50 20 75h66zM277 397q-39 0 -67.5 -20t-43.5 -52t-22 -66t-7 -70q0 -69 25 -105.5t72 -36.5q51 0 89 42t50 94l13 98q-1 51 -31 83.5t-78 32.5z" />
    <glyph glyph-name="FL993" horiz-adv-x="573" 
d="M468 704l-168 130l43 48l148 -153zM359 703l-197 42l17 60l188 -66zM493 0h-469l6 64h80l56 522h-81l7 64h465v-184l-63 -7l-6 127h-251l-25 -224h302l-6 -64h-302l-25 -234h256l33 127l61 -7z" />
    <glyph glyph-name="FL994" horiz-adv-x="437" 
d="M394 519l-140 159l53 40l115 -177zM287 520l-180 104l36 56l163 -129zM244 47q87 0 121 90l55 -13q-15 -59 -64 -96.5t-123 -37.5q-82 0 -126.5 50t-44.5 143q0 116 62.5 193.5t162.5 77.5q61 0 102 -30.5t41 -80.5q0 -104 -159 -137q-85 -16 -136 -24q2 -135 109 -135z
M242 248q69 16 92 38t23 51q0 62 -77 62q-65 0 -99.5 -48t-43.5 -119q68 9 105 16z" />
    <glyph glyph-name="FL995" horiz-adv-x="573" 
d="M316 699h-58q13 117 133 117q118 0 107 -117h-58q4 38 -9.5 54t-44.5 16q-33 0 -49.5 -16.5t-20.5 -53.5zM493 0h-469l6 64h80l56 522h-81l7 64h465v-184l-63 -7l-6 127h-251l-25 -224h302l-6 -64h-302l-25 -234h256l33 127l61 -7z" />
    <glyph glyph-name="FL996" horiz-adv-x="437" 
d="M244 532h-58q13 123 133 123q119 0 106 -123h-58q10 75 -54 75q-62 0 -69 -75zM244 47q87 0 121 90l55 -13q-15 -59 -64 -96.5t-123 -37.5q-82 0 -126.5 50t-44.5 143q0 116 62.5 193.5t162.5 77.5q61 0 102 -30.5t41 -80.5q0 -104 -159 -137q-85 -16 -136 -24
q2 -135 109 -135zM242 248q69 16 92 38t23 51q0 62 -77 62q-65 0 -99.5 -48t-43.5 -119q68 9 105 16z" />
    <glyph glyph-name="FL997" horiz-adv-x="311" 
d="M312 704l-168 130l43 48l148 -153zM203 703l-197 42l17 60l188 -66zM22 64h79l55 522h-80l7 64h229l-6 -64h-81l-55 -522h81l-7 -64h-229z" />
    <glyph glyph-name="FL998" horiz-adv-x="255" 
d="M151 519l-140 159l53 40l115 -177zM44 520l-180 104l36 56l163 -129zM-32 426l21 19h126l-47 -388h75l-5 -40l-22 -17h-123l47 388h-77z" />
    <glyph glyph-name="FL999" horiz-adv-x="311" 
d="M161 699h-58q13 117 133 117q118 0 107 -117h-58q4 38 -9.5 54t-44.5 16q-33 0 -49.5 -16.5t-20.5 -53.5zM31 64h79l55 522h-80l7 64h229l-6 -64h-81l-55 -522h81l-7 -64h-229z" />
    <glyph glyph-name="FL1000" horiz-adv-x="256" 
d="M120 532h-58q13 123 133 123q119 0 106 -123h-58q10 75 -54 75q-62 0 -69 -75zM67 426l21 19h126l-47 -388h75l-5 -40l-22 -17h-123l47 388h-77z" />
    <glyph glyph-name="FL1001" horiz-adv-x="709" 
d="M562 704l-168 130l43 48l148 -153zM453 703l-197 42l17 60l188 -66zM435 660q129 0 207 -86t78 -215q0 -152 -101 -260.5t-252 -108.5q-129 0 -206 86t-77 215q0 153 101.5 261t249.5 108zM378 56q119 0 192.5 87.5t73.5 210.5q0 108 -57.5 174t-159.5 66
q-117 0 -192 -86.5t-75 -210.5q0 -104 56 -172.5t162 -68.5z" />
    <glyph glyph-name="FL1002" horiz-adv-x="480" 
d="M376 519l-140 159l53 40l115 -177zM269 520l-180 104l36 56l163 -129zM62 189q0 111 60.5 188t168.5 77q91 0 134 -55.5t43 -146.5q0 -114 -62 -188t-167 -74q-88 0 -132.5 53.5t-44.5 145.5zM136 193q0 -146 110 -146q74 0 111.5 57t37.5 146q0 147 -112 147
q-71 0 -109 -55.5t-38 -148.5z" />
    <glyph glyph-name="FL1003" horiz-adv-x="710" 
d="M388 699h-58q13 117 133 117q118 0 107 -117h-58q4 38 -9.5 54t-44.5 16q-33 0 -49.5 -16.5t-20.5 -53.5zM435 660q129 0 207 -86t78 -215q0 -152 -101 -260.5t-252 -108.5q-129 0 -206 86t-77 215q0 153 101.5 261t249.5 108zM378 56q119 0 192.5 87.5t73.5 210.5
q0 108 -57.5 174t-159.5 66q-117 0 -192 -86.5t-75 -210.5q0 -104 56 -172.5t162 -68.5z" />
    <glyph glyph-name="FL1004" horiz-adv-x="480" 
d="M242 532h-58q13 123 133 123q119 0 106 -123h-58q10 75 -54 75q-62 0 -69 -75zM62 189q0 111 60.5 188t168.5 77q91 0 134 -55.5t43 -146.5q0 -114 -62 -188t-167 -74q-88 0 -132.5 53.5t-44.5 145.5zM136 193q0 -146 110 -146q74 0 111.5 57t37.5 146q0 147 -112 147
q-71 0 -109 -55.5t-38 -148.5z" />
    <glyph glyph-name="FL1009" horiz-adv-x="696" 
d="M566 704l-168 130l43 48l148 -153zM457 703l-197 42l17 60l188 -66zM549 650h217l-6 -64h-62l-33 -319q-6 -56 -22.5 -102t-46.5 -87.5t-82.5 -64.5t-122.5 -23q-68 0 -116.5 21.5t-73.5 59.5t-34 84t-3 101l35 330h-65l6 64h225l-8 -64h-87l-34 -328q-21 -202 162 -202
q177 0 200 211l33 319h-89z" />
    <glyph glyph-name="FL1010" horiz-adv-x="522" 
d="M375 519l-140 159l53 40l115 -177zM268 520l-180 104l36 56l163 -129zM503 57l-5 -38l-22 -19h-115l1 85q-51 -94 -147 -94q-67 0 -102 42t-26 127l28 228h-75l5 40l22 17h123l-32 -265q-9 -70 12 -101t73 -31q50 0 82.5 33.5t43.5 82.5l35 281h68l-47 -388h78z" />
    <glyph glyph-name="FL1011" horiz-adv-x="696" 
d="M400 699h-58q13 117 133 117q118 0 107 -117h-58q4 38 -9.5 54t-44.5 16q-33 0 -49.5 -16.5t-20.5 -53.5zM549 650h217l-6 -64h-62l-33 -319q-6 -56 -22.5 -102t-46.5 -87.5t-82.5 -64.5t-122.5 -23q-68 0 -116.5 21.5t-73.5 59.5t-34 84t-3 101l35 330h-65l6 64h225
l-8 -64h-87l-34 -328q-21 -202 162 -202q177 0 200 211l33 319h-89z" />
    <glyph glyph-name="FL1012" horiz-adv-x="522" 
d="M238 532h-58q13 123 133 123q119 0 106 -123h-58q10 75 -54 75q-62 0 -69 -75zM503 57l-5 -38l-22 -19h-115l1 85q-51 -94 -147 -94q-67 0 -102 42t-26 127l28 228h-75l5 40l22 17h123l-32 -265q-9 -70 12 -101t73 -31q50 0 82.5 33.5t43.5 82.5l35 281h68l-47 -388h78z
" />
    <glyph glyph-name="uni00BF.cap" horiz-adv-x="437" 
d="M332 654l-10 -97h-87l10 97h87zM347 194l57 -5l-21 -120q-81 -75 -183 -75q-70 0 -119 34t-49 94q0 38 23.5 71.5t57 56.5t66.5 43.5t56.5 44t23.5 48.5q0 37 -48 37l5 50q62 4 90 -18t28 -60q0 -35 -23 -64.5t-56 -51t-66 -41.5t-56 -46.5t-23 -56.5q0 -35 27.5 -55.5
t76.5 -20.5q60 0 110 39z" />
    <glyph glyph-name="uni003F.smcp" horiz-adv-x="373" 
d="M142 355l-52 4l21 120q65 50 148 50q64 0 104 -27.5t40 -74.5q0 -38 -29.5 -70t-64.5 -50t-64.5 -41.5t-29.5 -46.5q0 -28 39 -28l-4 -44q-107 -7 -107 64q0 28 19 52t46 41t54 33t46 35.5t19 41.5q0 27 -21 43t-59 16q-45 0 -83 -25zM147 0l9 92h85l-9 -92h-85z" />
    <glyph glyph-name="uni00BF.smcp" horiz-adv-x="382" 
d="M312 523l-9 -92h-85l9 92h85zM317 168l52 -4l-21 -120q-65 -50 -148 -50q-64 0 -104 27.5t-40 74.5q0 38 29.5 70t64.5 50t64.5 41.5t29.5 46.5q0 28 -39 28l4 44q107 7 107 -64q0 -34 -29 -63.5t-63 -47t-63 -42t-29 -50.5q0 -27 21 -43t59 -16q45 0 83 25z" />
    <glyph glyph-name="uni00A1.cap" horiz-adv-x="238" 
d="M249 654l-10 -97h-88l11 97h87zM98 4l63 458h53l-34 -458h-82z" />
    <glyph glyph-name="uni0021.smcp" horiz-adv-x="228" 
d="M224 521l-53 -364h-50l24 364h79zM90 0l10 92h84l-9 -92h-85z" />
    <glyph glyph-name="uni00A1.smcp" horiz-adv-x="229" 
d="M226 524l-10 -92h-84l9 92h85zM92 3l53 364h50l-24 -364h-79z" />
    <glyph glyph-name="uni203D.smcp" horiz-adv-x="551" 
d="M255 167l-46 -19l-109 350l76 25zM324 391l-49 15l32 89q48 27 109 27q70 0 119 -32.5t49 -88.5q0 -37 -24.5 -64.5t-61 -44.5t-74 -33.5t-68 -42.5t-38.5 -61l-45 14q5 39 31.5 67.5t60 45t66 31.5t55 35.5t22.5 47.5q0 36 -33.5 54t-68.5 18q-22 0 -50 -10zM211 0l9 92
h85l-10 -92h-84z" />
    <glyph glyph-name="uni002D.cap" horiz-adv-x="343" 
d="M128 368h228l-6 -61h-228z" />
    <glyph glyph-name="uni2013.cap" horiz-adv-x="611" 
d="M129 367h492l-5 -51h-492z" />
    <glyph glyph-name="uni2014.cap" horiz-adv-x="1056" 
d="M144 367h921l-6 -51h-921z" />
    <glyph glyph-name="uni002F.smcp" horiz-adv-x="303" 
d="M300 521l-226 -521h-64l227 521h63z" />
    <glyph glyph-name="uni005C.smcp" horiz-adv-x="392" 
d="M98 521h63l227 -521h-64z" />
    <glyph glyph-name="uni0028.cap" horiz-adv-x="263" 
d="M270 688h66q-98 -111 -143.5 -208.5t-45.5 -206.5q0 -178 112 -326h-68q-105 145 -105 323q0 209 184 418z" />
    <glyph glyph-name="uni0029.cap" horiz-adv-x="263" 
d="M24 -53h-66q98 111 143.5 208.5t45.5 206.5q0 178 -112 326h68q105 -145 105 -323q0 -209 -184 -418z" />
    <glyph glyph-name="uni005B.cap" horiz-adv-x="285" 
d="M98 -63l82 775h172l-6 -52h-112l-70 -671h112l-6 -52h-172z" />
    <glyph glyph-name="uni005D.cap" horiz-adv-x="284" 
d="M236 712l-82 -775h-172l6 52h112l70 671h-112l6 52h172z" />
    <glyph glyph-name="uni007B.cap" horiz-adv-x="289" 
d="M148 325q44 -7 65.5 -28t21.5 -49q0 -24 -15 -49t-33.5 -43.5t-33.5 -48.5t-15 -63q0 -54 55 -54h63l-4 -52h-63q-54 0 -82 26.5t-28 73.5q0 38 15 71t33 52t33 42.5t15 44.5q0 32 -29 44.5t-61 12.5h-19l5 40h19q14 0 29 2.5t32.5 9.5t29 21.5t11.5 34.5
q0 21 -27.5 71.5t-27.5 94.5q0 62 35 97t98 35h63l-6 -52h-63q-69 0 -69 -77q0 -39 29 -89t29 -76q0 -33 -25.5 -58.5t-79.5 -33.5z" />
    <glyph glyph-name="uni007D.cap" horiz-adv-x="288" 
d="M181 324q-44 7 -65.5 28t-21.5 49q0 24 15 49t33.5 43.5t33.5 48.5t15 63q0 54 -55 54h-63l4 52h63q54 0 82 -26.5t28 -73.5q0 -38 -15 -71t-33 -52t-33 -42.5t-15 -44.5q0 -32 29 -44.5t61 -12.5h19l-5 -40h-19q-14 0 -29 -2.5t-32.5 -9.5t-29 -21.5t-11.5 -34.5
q0 -21 27.5 -71.5t27.5 -94.5q0 -62 -35 -97t-98 -35h-63l6 52h63q69 0 69 77q0 39 -29 89t-29 76q0 32 25.5 58t79.5 34z" />
    <glyph glyph-name="uni301A.cap" horiz-adv-x="440" 
d="M98 -63l82 774h328l-5 -52h-112l-71 -670h112l-5 -52h-329zM234 659l-70 -670h96l70 670h-96z" />
    <glyph glyph-name="uni301B.cap" horiz-adv-x="440" 
d="M394 711l-82 -774h-328l5 52h112l71 670h-112l5 52h329zM328 659h-97l-70 -670h97z" />
    <glyph glyph-name="dblparenleft" horiz-adv-x="420" 
d="M282 718h66q-214 -244 -214 -506q0 -221 119 -395h-68q-111 177 -111 391q0 270 208 510zM428 718h67q-214 -244 -214 -506q0 -221 119 -395h-68q-112 177 -112 391q0 268 208 510z" />
    <glyph glyph-name="dblparenleft.cap" horiz-adv-x="408" 
d="M270 688h66q-98 -111 -143.5 -208.5t-45.5 -206.5q0 -178 112 -326h-68q-105 145 -105 323q0 209 184 418zM415 688h66q-98 -111 -143.5 -208.5t-45.5 -206.5q0 -178 112 -326h-67q-106 144 -106 323q0 209 184 418z" />
    <glyph glyph-name="dblparenright" horiz-adv-x="420" 
d="M133 -183h-66q214 244 214 506q0 221 -119 395h68q111 -177 111 -391q0 -270 -208 -510zM-13 -183h-67q214 244 214 506q0 221 -119 395h68q112 -177 112 -391q0 -268 -208 -510z" />
    <glyph glyph-name="dblparenright.cap" horiz-adv-x="409" 
d="M169 -53h-66q98 111 143.5 208.5t45.5 206.5q0 178 -112 326h68q105 -145 105 -323q0 -209 -184 -418zM24 -53h-66q98 111 143.5 208.5t45.5 206.5q0 178 -112 326h67q106 -144 106 -323q0 -209 -184 -418z" />
    <glyph glyph-name="uni00B6.smcp" horiz-adv-x="523" 
d="M551 521l-7 -54h-61l-49 -467h-63l49 467h-48l-49 -467h-63l26 249h-46q-75 0 -118.5 30t-43.5 94t51.5 106t144.5 42h277z" />
    <glyph glyph-name="uni0023.pnum_lnum" horiz-adv-x="570" 
d="M556 651l-53 -178h81l-7 -57h-90l-49 -164h92l-6 -57h-102l-57 -195h-62l57 195h-173l-57 -195h-61l57 195h-74l6 57h84l48 164h-86l7 57h96l52 178h63l-53 -178h172l52 178h63zM204 252h172l48 164h-171z" />
    <glyph glyph-name="uni0025.pnum_lnum" horiz-adv-x="644" 
d="M232 345q-57 0 -90.5 35.5t-33.5 100.5q0 79 47 129t116 50q58 0 91 -35.5t33 -99.5q0 -76 -46 -128t-117 -52zM650 650l-239 -322l-233 -328h-74l263 349l210 301h73zM239 399q46 0 71 34.5t25 86.5q0 87 -71 87q-43 0 -69.5 -32.5t-26.5 -88.5q0 -87 71 -87zM489 -10
q-57 0 -91 35.5t-34 100.5q0 79 47 129t117 50q56 0 89.5 -35.5t33.5 -99.5q0 -77 -46 -128.5t-116 -51.5zM495 43q47 0 71.5 34t24.5 87q0 87 -70 87q-44 0 -70 -32.5t-26 -87.5q0 -88 70 -88z" />
    <glyph glyph-name="uni2030.pnum_lnum" horiz-adv-x="947" 
d="M232 345q-57 0 -90.5 35.5t-33.5 100.5q0 79 47 129t116 50q58 0 91 -35.5t33 -99.5q0 -76 -46 -128t-117 -52zM650 650l-239 -322l-233 -328h-74l263 349l210 301h73zM239 399q46 0 71 34.5t25 86.5q0 87 -71 87q-43 0 -69.5 -32.5t-26.5 -88.5q0 -87 71 -87zM489 -10
q-57 0 -91 35.5t-34 100.5q0 79 47 129t117 50q56 0 89.5 -35.5t33.5 -99.5q0 -77 -46 -128.5t-116 -51.5zM795 -10q-56 0 -90 35.5t-34 100.5q0 79 47 129t117 50q57 0 90 -35.5t33 -99.5q0 -77 -46 -128.5t-117 -51.5zM495 43q47 0 71.5 34t24.5 87q0 87 -70 87
q-44 0 -70 -32.5t-26 -87.5q0 -88 70 -88zM801 43q46 0 71 34t25 87q0 87 -69 87q-44 0 -70 -33t-26 -87q0 -88 69 -88z" />
    <glyph glyph-name="uni00AA.smcp" horiz-adv-x="410" 
d="M108 438h28l121 219h-43l5 41h112l83 -260h29l-4 -42h-121l4 42h38l-13 46h-136l-24 -46h41l-4 -42h-120zM296 647l-69 -131h110l-38 131h-3z" />
    <glyph glyph-name="uni201C.smcp" horiz-adv-x="369" 
d="M252 548l-74 -216h-68l74 216h68zM413 548l-74 -216h-68l74 216h68z" />
    <glyph glyph-name="uni201D.smcp" horiz-adv-x="369" 
d="M108 334l74 216h68l-74 -216h-68zM269 334l74 216h68l-74 -216h-68z" />
    <glyph glyph-name="uni2018.smcp" horiz-adv-x="208" 
d="M252 548l-74 -216h-68l74 216h68z" />
    <glyph glyph-name="uni2019.smcp" horiz-adv-x="208" 
d="M108 334l74 216h68l-74 -216h-68z" />
    <glyph glyph-name="uni203A.cap" horiz-adv-x="283" 
d="M115 85h-59l151 246l-100 240h59l111 -240z" />
    <glyph glyph-name="uni2039.cap" horiz-adv-x="281" 
d="M260 85h-59l-109 246l160 240h59l-152 -240z" />
    <glyph glyph-name="uni00AB.cap" horiz-adv-x="442" 
d="M260 85h-59l-109 246l160 240h59l-152 -240zM420 85h-59l-109 246l160 240h59l-151 -240z" />
    <glyph glyph-name="uni00BB.cap" horiz-adv-x="443" 
d="M275 85h-58l152 246l-101 240h58l111 -240zM115 85h-59l152 246l-101 240h59l110 -240z" />
    <glyph glyph-name="uni00B7.smcp" horiz-adv-x="224" 
d="M116 202l10 101h93l-10 -101h-93z" />
    <glyph glyph-name="uni00660069" horiz-adv-x="511" 
d="M296 445l-47 -388h74l-5 -40l-21 -17h-123l47 388h-189l-54 -446q-21 -165 -145 -165q-54 0 -86.5 30t-31.5 95l55 16q-3 -84 61 -84q35 0 53.5 27.5t25.5 81.5l55 445h-85l4 37l23 20h65l10 83q10 81 55.5 125.5t127.5 44.5q87 0 134 -32l7 -111l-58 -7l-11 83
q-26 11 -67 11q-56 0 -84 -24.5t-36 -87.5l-11 -85h257z" />
    <glyph glyph-name="uni0066006C" horiz-adv-x="508" 
d="M325 688l-77 -631h75l-5 -40l-21 -17h-124l68 557q-1 38 -26 61.5t-65 23.5q-87 0 -99 -104l-12 -93h131l-5 -36l-23 -21h-110l-54 -446q-21 -165 -144 -165q-55 0 -87.5 30t-31.5 95l55 16q-3 -84 62 -84q64 0 78 109l54 445h-84l4 37l23 20h64l12 96q10 78 52.5 117.5
t104.5 39.5q77 0 111 -61l6 51h68z" />
    <glyph glyph-name="uni00B4.cap" horiz-adv-x="269" 
d="M453 745l-202 -42l-9 37l195 73z" />
    <glyph glyph-name="uni02D8.cap" horiz-adv-x="318" 
d="M420 816h58q-13 -117 -133 -117q-119 0 -107 117h58q-4 -38 9.5 -53.5t44.5 -15.5q33 0 49.5 16t20.5 53z" />
    <glyph glyph-name="uni02C7.cap" horiz-adv-x="334" 
d="M362 701l-114 89l22 33l110 -62l121 64l17 -33l-135 -91h-21z" />
    <glyph glyph-name="uni02C6.cap" horiz-adv-x="334" 
d="M389 825l113 -89l-21 -34l-111 62l-120 -63l-18 32l136 92h21z" />
    <glyph glyph-name="uni00A8.cap" horiz-adv-x="360" 
d="M262 718l8 85h79l-9 -85h-78zM429 718l9 85h79l-8 -85h-80z" />
    <glyph glyph-name="uni02D9.cap" horiz-adv-x="180" 
d="M264 718l8 85h79l-8 -85h-79z" />
    <glyph glyph-name="uni02DD.cap" horiz-adv-x="409" 
d="M476 834l-166 -130l-24 25l148 153zM615 745l-197 -42l-8 36l190 73z" />
    <glyph glyph-name="uni0060.cap" horiz-adv-x="269" 
d="M421 703l-203 42l17 68l195 -73z" />
    <glyph glyph-name="uni00AF.cap" horiz-adv-x="344" 
d="M232 790h273l-6 -57h-273z" />
    <glyph glyph-name="uni02DC.cap" horiz-adv-x="367" 
d="M283 705l-31 13q8 31 31.5 56.5t57.5 25.5q22 0 56 -17.5t58 -17.5q33 0 50 42l34 -9q-23 -89 -85 -89q-26 0 -62.5 17.5t-54.5 17.5q-37 0 -54 -39z" />
    <glyph glyph-name="commaaccent" horiz-adv-x="199" 
d="M158 -64l-34 -154h-56l24 154h66z" />
    <glyph glyph-name="uni02DA.cap" horiz-adv-x="255" 
d="M312 690q-88 0 -88 82q0 46 29.5 74t79.5 28q43 0 65 -21.5t22 -59.5q0 -45 -28.5 -74t-79.5 -29zM316 730q27 0 41 16.5t14 43.5q0 44 -43 44q-26 0 -40.5 -16t-14.5 -44q0 -44 43 -44z" />
    <glyph glyph-name="uni02C7.alt" horiz-adv-x="179" 
d="M323 681l-45 -224h-56l36 224h65z" />
    <glyph glyph-name="downbreve" horiz-adv-x="391" 
d="M340 532h-58q13 123 133 123q119 0 106 -123h-58q10 75 -54 75q-62 0 -69 -75z" />
    <glyph glyph-name="downbreve.cap" horiz-adv-x="318" 
d="M300 699h-58q13 117 133 117q118 0 107 -117h-58q4 38 -9.5 54t-44.5 16q-33 0 -49.5 -16.5t-20.5 -53.5z" />
    <glyph glyph-name="horumlaut" horiz-adv-x="421" 
d="M503 519l-140 159l53 40l115 -177zM396 520l-180 104l36 56l163 -129z" />
    <glyph glyph-name="horumlaut.cap" horiz-adv-x="409" 
d="M592 704l-168 130l43 48l148 -153zM483 703l-197 42l17 60l188 -66z" />
    <glyph glyph-name="uni0030.smcp_zero" horiz-adv-x="494" 
d="M80 214q0 86 21.5 154t76 114.5t136.5 46.5q176 0 176 -226q0 -44 -6.5 -85t-23 -83t-42 -73t-67 -50.5t-94.5 -19.5q-177 0 -177 222zM153 219q0 -83 24 -126t86 -43q80 0 117 69.5t37 184.5q0 81 -23.5 125t-86.5 44q-78 0 -116 -68t-38 -186zM317 313l-9 -89h-54l9 89
h54z" />
    <glyph glyph-name="uni0030.smcp" horiz-adv-x="494" 
d="M80 214q0 86 21.5 154t76 114.5t136.5 46.5q176 0 176 -226q0 -44 -6.5 -85t-23 -83t-42 -73t-67 -50.5t-94.5 -19.5q-177 0 -177 222zM153 219q0 -83 24 -126t86 -43q80 0 117 69.5t37 184.5q0 81 -23.5 125t-86.5 44q-78 0 -116 -68t-38 -186z" />
    <glyph glyph-name="uni0031.smcp" horiz-adv-x="326" 
d="M24 56h104l43 409h-104l6 56h173l-49 -465h100l-6 -56h-273z" />
    <glyph glyph-name="uni0032.smcp" horiz-adv-x="449" 
d="M120 372l-55 7l27 107q76 43 159 43q80 0 118 -37.5t38 -89.5q0 -46 -28.5 -98t-76 -98.5t-92.5 -82.5t-93 -67h220l20 88l59 -4l-24 -140h-363l-1 54q155 110 229 190.5t74 149.5q0 80 -93 80q-50 0 -92 -25z" />
    <glyph glyph-name="uni0033.smcp" horiz-adv-x="441" 
d="M154 370l-51 7l25 109q64 43 147 43q65 0 105.5 -30t40.5 -85q0 -100 -119 -136v-4q114 -15 114 -119q0 -72 -54 -118.5t-139 -46.5q-63 0 -104.5 25.5t-54.5 65.5l53 31q27 -66 105 -66q64 0 92.5 32.5t28.5 77.5t-32.5 67t-108.5 25l5 46q66 4 103.5 31.5t37.5 73.5
q0 36 -22.5 55.5t-65.5 19.5q-42 0 -80 -21z" />
    <glyph glyph-name="uni0034.smcp" horiz-adv-x="461" 
d="M261 0l14 133h-252l-1 55l222 333h140l-35 -333h85l-12 -55h-79l-14 -133h-68zM269 465l-181 -277h193l29 277h-41z" />
    <glyph glyph-name="uni0035.smcp" horiz-adv-x="435" 
d="M411 166q0 -81 -56 -127.5t-142 -46.5q-56 0 -101.5 20t-63.5 55l45 37q43 -55 118 -55q58 0 91.5 28.5t33.5 81.5q0 107 -152 107q-34 0 -70 -3l-21 21l26 237h302l-8 -133l-56 -5l-1 82h-180l-15 -144h39q211 0 211 -155z" />
    <glyph glyph-name="uni0036.smcp" horiz-adv-x="458" 
d="M441 182q0 -79 -50 -134.5t-144 -55.5q-90 0 -128.5 55t-38.5 157q0 88 21.5 158.5t74.5 118.5t132 48q99 0 148 -69l-37 -41q-45 56 -109 56q-76 0 -114.5 -64t-42.5 -176q14 36 52 63t87 27q71 0 110 -40t39 -103zM370 176q0 94 -96 94q-55 0 -86.5 -34.5t-35.5 -76.5
q2 -53 24.5 -81t76.5 -28q60 0 88.5 34.5t28.5 91.5z" />
    <glyph glyph-name="uni0037.smcp" horiz-adv-x="395" 
d="M93 521h344l6 -36l-251 -485h-70l245 466h-218l-9 -89h-62z" />
    <glyph glyph-name="uni0038.smcp" horiz-adv-x="461" 
d="M433 143q0 -68 -59.5 -109.5t-150.5 -41.5q-77 0 -123 32t-46 94q0 56 36 89t102 60q-45 23 -70 51t-25 69q0 62 51 102t135 40q72 0 115 -32.5t43 -87.5q0 -48 -32 -77.5t-90 -53.5q54 -26 84 -56.5t30 -78.5zM172 398q0 -33 25.5 -54.5t73.5 -43.5q50 21 76 43.5
t26 58.5t-26.5 55t-68.5 19q-48 0 -77 -21.5t-29 -56.5zM125 130q0 -40 29 -62t78 -22q54 0 90 24t36 64q0 20 -9 36t-30 30t-35.5 22t-46.5 22q-54 -22 -83 -47.5t-29 -66.5z" />
    <glyph glyph-name="uni0039.smcp" horiz-adv-x="458" 
d="M93 339q0 80 50 135t144 55q90 0 128 -54.5t38 -157.5q0 -88 -21.5 -158.5t-74.5 -118.5t-131 -48q-99 0 -148 69l37 42q43 -57 108 -57q76 0 115 64t42 176q-13 -36 -51 -63t-88 -27q-71 0 -109.5 40t-38.5 103zM164 345q0 -94 96 -94q55 0 85.5 34.5t35.5 76.5
q-2 54 -24.5 82t-76.5 28q-60 0 -88 -34.5t-28 -92.5z" />
    <glyph glyph-name="uni0030.pnum_lnum_zero" horiz-adv-x="567" 
d="M96 262q0 80 15.5 149t47 126t86.5 90t127 33q204 0 204 -277q0 -116 -28 -202t-91.5 -138.5t-156.5 -52.5q-204 0 -204 272zM172 271q0 -106 29.5 -161t106.5 -55q68 0 113 46.5t62.5 117.5t17.5 164q0 102 -29 157t-107 55q-97 0 -145 -87t-48 -237zM372 391l-12 -111
h-57l12 111h57z" />
    <glyph glyph-name="uni0030.pnum_lnum" horiz-adv-x="567" 
d="M96 262q0 80 15.5 149t47 126t86.5 90t127 33q204 0 204 -277q0 -116 -28 -202t-91.5 -138.5t-156.5 -52.5q-204 0 -204 272zM172 271q0 -106 29.5 -161t106.5 -55q68 0 113 46.5t62.5 117.5t17.5 164q0 102 -29 157t-107 55q-97 0 -145 -87t-48 -237z" />
    <glyph glyph-name="uni0031.pnum_lnum" horiz-adv-x="365" 
d="M23 64h123l55 522h-124l7 64h195l-62 -586h121l-6 -64h-316z" />
    <glyph glyph-name="uni0032.pnum_lnum" horiz-adv-x="507" 
d="M139 482l-56 7l31 117q65 54 174 54q88 0 133.5 -42t45.5 -111q0 -44 -20 -92t-45 -84t-71 -82.5t-73 -70t-77.5 -64.5t-60.5 -50h261l24 92l63 -7l-32 -149h-411l-1 57q14 12 59.5 50t65 54.5t59 52.5t59 57t47.5 54t41 57.5t23.5 54t10.5 55.5q0 48 -30 76.5t-90 28.5
q-62 0 -102 -27z" />
    <glyph glyph-name="uni0033.pnum_lnum" horiz-adv-x="507" 
d="M191 492l-56 7l28 110q79 52 167 52q74 0 122 -38t48 -105q0 -128 -140 -170v-4q71 -13 102.5 -52.5t31.5 -92.5q0 -94 -63.5 -152t-166.5 -58q-87 0 -134.5 39t-53.5 102l58 20q26 -98 132 -98q56 0 91.5 24t47.5 55t12 67q0 55 -40 83t-132 31l5 54q93 5 133 45.5
t40 92.5q0 44 -28.5 69t-84.5 25q-46 0 -92 -24z" />
    <glyph glyph-name="uni0034.pnum_lnum" horiz-adv-x="526" 
d="M383 -1h-71l18 167h-303l-1 62l273 423h152l-44 -423h104l-15 -62h-95zM336 228l38 360h-50l-230 -360h242z" />
    <glyph glyph-name="uni0035.pnum_lnum" horiz-adv-x="496" 
d="M490 209q0 -100 -60.5 -159.5t-166.5 -59.5q-85 0 -132 38.5t-53 101.5l58 20q20 -98 127 -98q73 0 111.5 40.5t38.5 108.5q0 78 -49 106.5t-138 28.5q-41 0 -83 -3l-22 24l32 294h354l-5 -138l-61 -6l-3 81h-225l-21 -191q16 1 49 1q54 0 95.5 -8t78 -28t56 -58.5
t19.5 -94.5z" />
    <glyph glyph-name="uni0036.pnum_lnum" horiz-adv-x="526" 
d="M521 229q0 -100 -57.5 -169.5t-169.5 -69.5q-106 0 -151 68t-45 197q0 78 14.5 147t45.5 128.5t86.5 94.5t130.5 35q111 0 173 -88l-48 -44q-48 69 -134 69q-175 0 -193 -306q21 46 68.5 79t118.5 33q83 0 122 -47t39 -127zM448 219q0 61 -26 91t-85 30q-73 0 -113.5 -42
t-51.5 -98q2 -69 30.5 -106.5t97.5 -37.5q75 0 111.5 45t36.5 118z" />
    <glyph glyph-name="uni0037.pnum_lnum" horiz-adv-x="450" 
d="M113 651h403l6 -42l-303 -609h-76l300 588h-272l-12 -111h-65z" />
    <glyph glyph-name="uni0038.pnum_lnum" horiz-adv-x="528" 
d="M260 -10q-90 0 -144 40.5t-54 116.5q0 71 45 111.5t126 73.5q-56 30 -87 64.5t-31 86.5q0 75 63 126t157 51q82 0 134 -40.5t52 -109.5q0 -61 -40 -97.5t-113 -68.5q65 -31 101 -69t36 -99q0 -83 -69.5 -134.5t-175.5 -51.5zM191 494q0 -42 32 -69t96 -57q62 27 95 57
t33 77t-32.5 71.5t-84.5 24.5q-60 0 -99.5 -28.5t-39.5 -75.5zM271 52q66 0 112.5 31.5t46.5 83.5q0 26 -11 46.5t-36.5 38.5t-44.5 27.5t-57 27.5q-35 -15 -56 -26.5t-44.5 -29t-34.5 -40.5t-11 -51q0 -52 37.5 -80t98.5 -28z" />
    <glyph glyph-name="uni0039.pnum_lnum" horiz-adv-x="526" 
d="M101 421q0 100 57.5 169.5t169.5 69.5q106 0 151 -68t45 -197q0 -78 -14.5 -147t-45.5 -128.5t-86.5 -94.5t-130.5 -35q-111 0 -173 88l48 44q48 -69 134 -69q175 0 193 306q-21 -46 -68.5 -79t-118.5 -33q-83 0 -122 47t-39 127zM174 431q0 -61 26 -91t85 -30
q73 0 113.5 42t51.5 98q-2 69 -30.5 106.5t-97.5 37.5q-75 0 -111.5 -45t-36.5 -118z" />
    <glyph glyph-name="uni0030.tnum_lnum_zero" horiz-adv-x="600" 
d="M128 262q0 80 15.5 149t47 126t86.5 90t127 33q205 0 205 -277q0 -86 -16.5 -156.5t-49.5 -124t-86.5 -83t-124.5 -29.5q-204 0 -204 272zM204 271q0 -106 29.5 -161t106.5 -55q68 0 113 46.5t62.5 117.5t17.5 164q0 102 -29 157t-107 55q-97 0 -145 -87t-48 -237z
M403 391l-12 -111h-56l12 111h56z" />
    <glyph glyph-name="uni0030.tnum_lnum" horiz-adv-x="600" 
d="M128 262q0 80 15.5 149t47 126t86.5 90t127 33q205 0 205 -277q0 -86 -16.5 -156.5t-49.5 -124t-86.5 -83t-124.5 -29.5q-204 0 -204 272zM204 271q0 -106 29.5 -161t106.5 -55q68 0 113 46.5t62.5 117.5t17.5 164q0 102 -29 157t-107 55q-97 0 -145 -87t-48 -237z" />
    <glyph glyph-name="uni0031.tnum_lnum" horiz-adv-x="600" 
d="M256 64h123l55 522h-124l6 64h196l-62 -586h122l-7 -64h-317z" />
    <glyph glyph-name="uni0032.tnum_lnum" horiz-adv-x="600" 
d="M232 482l-56 7l30 117q67 54 175 54q88 0 133.5 -42t45.5 -111q0 -44 -20 -92t-45 -84t-71 -82.5t-73 -70t-77.5 -64.5t-60.5 -50h261l24 92l63 -7l-32 -149h-412l-1 57q15 13 53.5 44.5t57 47.5t53.5 47t54 50t46.5 48t42.5 51t30.5 48t22 50.5t6.5 48.5q0 48 -30 76.5
t-91 28.5t-101 -27z" />
    <glyph glyph-name="uni0033.tnum_lnum" horiz-adv-x="600" 
d="M285 492l-56 7l28 110q79 52 167 52q74 0 122 -38t48 -105q0 -128 -140 -170v-4q71 -13 102.5 -52.5t31.5 -92.5q0 -94 -63.5 -152t-166.5 -58q-87 0 -134.5 39t-53.5 102l58 20q26 -98 132 -98q56 0 91.5 24t47.5 55t12 67q0 55 -40 83t-132 31l5 54q93 5 133 45.5
t40 92.5q0 44 -28.5 69t-84.5 25q-46 0 -92 -24z" />
    <glyph glyph-name="uni0034.tnum_lnum" horiz-adv-x="600" 
d="M457 -1h-71l18 167h-303l-1 62l273 423h152l-44 -423h104l-15 -62h-95zM410 228l38 360h-50l-230 -360h242z" />
    <glyph glyph-name="uni0035.tnum_lnum" horiz-adv-x="600" 
d="M596 209q0 -100 -60.5 -159.5t-166.5 -59.5q-85 0 -132 38.5t-53 101.5l58 20q20 -98 127 -98q73 0 111.5 40.5t38.5 108.5q0 78 -49 106.5t-138 28.5q-41 0 -83 -3l-22 24l32 294h354l-5 -138l-61 -6l-3 81h-225l-21 -191q16 1 49 1q54 0 95.5 -8t78 -28t56 -58.5
t19.5 -94.5z" />
    <glyph glyph-name="uni0036.tnum_lnum" horiz-adv-x="600" 
d="M593 229q0 -100 -57.5 -169.5t-169.5 -69.5q-106 0 -151 68t-45 197q0 78 14.5 147t45.5 128.5t86.5 94.5t130.5 35q111 0 173 -88l-48 -44q-48 69 -134 69q-175 0 -193 -306q21 46 68.5 79t118.5 33q83 0 122 -47t39 -127zM520 219q0 61 -26 91t-85 30q-73 0 -113.5 -42
t-51.5 -98q2 -69 30.5 -106.5t97.5 -37.5q75 0 111.5 45t36.5 118z" />
    <glyph glyph-name="uni0037.tnum_lnum" horiz-adv-x="600" 
d="M263 651h403l6 -42l-303 -609h-76l300 588h-272l-12 -111h-65z" />
    <glyph glyph-name="uni0038.tnum_lnum" horiz-adv-x="600" 
d="M332 -10q-90 0 -144 40.5t-54 116.5q0 71 45 111.5t126 73.5q-56 30 -87 64.5t-31 86.5q0 75 63 126t157 51q82 0 134 -40.5t52 -109.5q0 -61 -40 -97.5t-113 -68.5q65 -31 101 -69t36 -99q0 -83 -69.5 -134.5t-175.5 -51.5zM263 494q0 -42 32 -69t96 -57q62 27 95 57
t33 77t-32.5 71.5t-84.5 24.5q-60 0 -99.5 -28.5t-39.5 -75.5zM343 52q66 0 112.5 31.5t46.5 83.5q0 26 -11 46.5t-36.5 38.5t-44.5 27.5t-57 27.5q-35 -15 -56 -26.5t-44.5 -29t-34.5 -40.5t-11 -51q0 -52 37.5 -80t98.5 -28z" />
    <glyph glyph-name="uni0039.tnum_lnum" horiz-adv-x="600" 
d="M175 421q0 100 57.5 169.5t169.5 69.5q106 0 151 -68t45 -197q0 -78 -14.5 -147t-45.5 -128.5t-86.5 -94.5t-130.5 -35q-111 0 -173 88l48 44q48 -69 134 -69q175 0 193 306q-21 -46 -68.5 -79t-118.5 -33q-83 0 -122 47t-39 127zM248 431q0 -61 26 -91t85 -30
q73 0 113.5 42t51.5 98q-2 69 -30.5 106.5t-97.5 37.5q-75 0 -111.5 -45t-36.5 -118z" />
    <glyph glyph-name="uni0030.tnum_onum_zero" horiz-adv-x="600" 
d="M116 224q0 130 72 218t196 88q104 0 157 -64.5t53 -174.5q0 -134 -72 -217.5t-195 -83.5q-102 0 -156.5 62t-54.5 172zM192 232q0 -177 142 -177q86 0 135 63t49 173q0 174 -142 174q-88 0 -136 -62.5t-48 -170.5zM391 321l-12 -111h-56l12 111h56z" />
    <glyph glyph-name="uni0030.tnum_onum" horiz-adv-x="600" 
d="M116 224q0 130 72 218t196 88q104 0 157 -64.5t53 -174.5q0 -134 -72 -217.5t-195 -83.5q-102 0 -156.5 62t-54.5 172zM192 232q0 -177 142 -177q86 0 135 63t49 173q0 174 -142 174q-88 0 -136 -62.5t-48 -170.5z" />
    <glyph glyph-name="uni0031.tnum_onum" horiz-adv-x="600" 
d="M275 64h120l41 393h-119l6 64h191l-48 -457h115l-7 -64h-306z" />
    <glyph glyph-name="uni0032.tnum_onum" horiz-adv-x="600" 
d="M240 362l-56 7l29 118q80 44 182 44q83 0 122.5 -41t39.5 -100q0 -30 -13 -61t-29 -55t-48.5 -53t-53.5 -46t-63.5 -43.5t-58 -35.5t-55.5 -32h253l18 83l58 -5l-24 -142h-398l-1 57q67 43 98.5 64t79.5 54.5t70 54t46.5 48t33.5 51.5t9 50q0 42 -28 65.5t-80 23.5
t-106 -23z" />
    <glyph glyph-name="uni0033.tnum_onum" horiz-adv-x="600" 
d="M259 362l-56 7l28 110q79 52 167 52q74 0 122 -38t48 -105q0 -128 -140 -170v-4q71 -13 102.5 -52.5t31.5 -92.5q0 -94 -63.5 -152t-166.5 -58q-87 0 -134.5 39t-53.5 102l58 20q26 -98 132 -98q56 0 91.5 24t47.5 55t12 67q0 55 -40 83t-132 31l5 54q93 5 133 45.5
t40 92.5q0 44 -28.5 69t-84.5 25q-46 0 -92 -24z" />
    <glyph glyph-name="uni0034.tnum_onum" horiz-adv-x="600" 
d="M433 -131h-71l18 167h-303l-1 62l273 423h152l-44 -423h104l-15 -62h-95zM386 98l38 360h-50l-230 -360h242z" />
    <glyph glyph-name="uni0035.tnum_onum" horiz-adv-x="600" 
d="M564 79q0 -100 -60.5 -159.5t-166.5 -59.5q-85 0 -132 38.5t-53 101.5l58 20q20 -98 127 -98q73 0 111.5 40.5t38.5 108.5q0 78 -49 106.5t-138 28.5q-41 0 -83 -3l-22 24l32 294h354l-5 -138l-61 -6l-3 81h-225l-21 -191q16 1 49 1q54 0 95.5 -8t78 -28t56 -58.5
t19.5 -94.5z" />
    <glyph glyph-name="uni0036.tnum_onum" horiz-adv-x="600" 
d="M593 229q0 -100 -57.5 -169.5t-169.5 -69.5q-106 0 -151 68t-45 197q0 78 14.5 147t45.5 128.5t86.5 94.5t130.5 35q111 0 173 -88l-48 -44q-48 69 -134 69q-175 0 -193 -306q21 46 68.5 79t118.5 33q83 0 122 -47t39 -127zM520 219q0 61 -26 91t-85 30q-73 0 -113.5 -42
t-51.5 -98q2 -69 30.5 -106.5t97.5 -37.5q75 0 111.5 45t36.5 118z" />
    <glyph glyph-name="uni0037.tnum_onum" horiz-adv-x="600" 
d="M235 521h403l6 -42l-303 -609h-76l300 588h-272l-12 -111h-65z" />
    <glyph glyph-name="uni0038.tnum_onum" horiz-adv-x="600" 
d="M332 -10q-90 0 -144 40.5t-54 116.5q0 71 45 111.5t126 73.5q-56 30 -87 64.5t-31 86.5q0 75 63 126t157 51q82 0 134 -40.5t52 -109.5q0 -61 -40 -97.5t-113 -68.5q65 -31 101 -69t36 -99q0 -83 -69.5 -134.5t-175.5 -51.5zM263 494q0 -42 32 -69t96 -57q62 27 95 57
t33 77t-32.5 71.5t-84.5 24.5q-60 0 -99.5 -28.5t-39.5 -75.5zM343 52q66 0 112.5 31.5t46.5 83.5q0 26 -11 46.5t-36.5 38.5t-44.5 27.5t-57 27.5q-35 -15 -56 -26.5t-44.5 -29t-34.5 -40.5t-11 -51q0 -52 37.5 -80t98.5 -28z" />
    <glyph glyph-name="uni0039.tnum_onum" horiz-adv-x="600" 
d="M147 291q0 100 57.5 169.5t169.5 69.5q106 0 151 -68t45 -197q0 -78 -14.5 -147t-45.5 -128.5t-86.5 -94.5t-130.5 -35q-111 0 -173 88l48 44q48 -69 134 -69q175 0 193 306q-21 -46 -68.5 -79t-118.5 -33q-83 0 -122 47t-39 127zM220 301q0 -61 26 -91t85 -30
q73 0 113.5 42t51.5 98q-2 69 -30.5 106.5t-97.5 37.5q-75 0 -111.5 -45t-36.5 -118z" />
    <glyph glyph-name="uni0030.numr" horiz-adv-x="373" 
d="M114 441q0 36 7.5 70t24.5 69.5t52.5 57.5t84.5 22q130 0 130 -159q0 -58 -14.5 -104.5t-54 -79.5t-99.5 -33q-131 0 -131 157zM175 446q0 -56 16.5 -85.5t57.5 -29.5q103 0 103 171q0 54 -15.5 82.5t-57.5 28.5q-104 0 -104 -167z" />
    <glyph glyph-name="uni0031.numr" horiz-adv-x="255" 
d="M76 333h72l29 274h-73l4 45h131l-34 -319h72l-5 -45h-202z" />
    <glyph glyph-name="uni0032.numr" horiz-adv-x="340" 
d="M152 542l-43 5l19 76q46 37 114 37q56 0 85 -25.5t29 -64.5q0 -23 -12.5 -49t-26.5 -45t-43.5 -45.5t-43 -37t-46.5 -34.5l-33 -24h154l12 53l48 -5l-18 -93h-268l-1 41q9 7 31.5 24t33.5 25.5t31.5 25t31.5 27t27 26t24.5 27.5t17.5 26t13 27t4 26q0 50 -63 50
q-31 0 -57 -17z" />
    <glyph glyph-name="uni0033.numr" horiz-adv-x="336" 
d="M168 548l-43 5l16 69q46 37 115 37q48 0 78 -22.5t30 -60.5q0 -68 -82 -92v-2q79 -12 79 -84q0 -53 -41 -84t-102 -31q-53 0 -86.5 25.5t-35.5 71.5l43 12q2 -26 22.5 -45t56.5 -19q38 0 59.5 20.5t21.5 51.5q0 29 -22 44t-74 16l4 38q48 2 71.5 20.5t23.5 47.5
q0 48 -58 48q-30 0 -59 -16z" />
    <glyph glyph-name="uni0034.numr" horiz-adv-x="349" 
d="M244 288l10 94h-177l-1 44l151 226h111l-24 -228h62l-10 -42h-56l-10 -94h-56zM249 607l-122 -183h131l20 183h-29z" />
    <glyph glyph-name="uni0035.numr" horiz-adv-x="329" 
d="M352 403q0 -58 -40 -90t-101 -32q-56 0 -90 26t-35 71l43 12q2 -26 25 -45t59 -19q37 0 57.5 19.5t20.5 54.5q0 70 -102 70q-8 0 -16.5 -0.5t-18.5 -1.5t-16 -1l-17 16l16 169h219v-1l1 1l-5 -90l-46 -5v50h-120l-10 -95h26q150 0 150 -109z" />
    <glyph glyph-name="uni0036.numr" horiz-adv-x="343" 
d="M283 615q-105 0 -112 -154q31 58 102 58q47 0 74.5 -27.5t27.5 -73.5q0 -55 -36 -94.5t-103 -39.5q-61 0 -92.5 39.5t-31.5 110.5q0 94 44 160t124 66q67 0 106 -49l-35 -34q-28 38 -68 38zM257 475q-38 0 -59.5 -19.5t-26.5 -46.5q2 -39 18 -58.5t52 -19.5q74 0 74 82
q0 62 -58 62z" />
    <glyph glyph-name="uni0037.numr" horiz-adv-x="302" 
d="M122 652h251l4 -27l-176 -337h-57l170 319h-146l-7 -62h-49z" />
    <glyph glyph-name="uni0038.numr" horiz-adv-x="346" 
d="M217 284q-56 0 -89.5 22.5t-33.5 66.5q0 39 26.5 62t70.5 40q-68 37 -68 83q0 44 38.5 73t98.5 29q52 0 83.5 -22.5t31.5 -61.5q0 -34 -23 -54.5t-65 -36.5q26 -13 41 -23t28 -29t13 -42q0 -49 -43 -78t-109 -29zM185 566q0 -20 16.5 -33.5t49.5 -29.5q32 15 49 30t17 37
q0 23 -17.5 35t-44.5 12q-30 0 -50 -14.5t-20 -36.5zM224 327q35 0 58.5 16t23.5 42q0 17 -13.5 31.5t-26 21t-42.5 20.5q-34 -15 -52.5 -32t-18.5 -43t19.5 -41t51.5 -15z" />
    <glyph glyph-name="uni0039.numr" horiz-adv-x="343" 
d="M213 329q103 0 112 154q-31 -58 -102 -58q-47 0 -74.5 27.5t-27.5 74.5q0 55 36 94t103 39q60 0 92 -40t32 -110q0 -94 -43 -160t-121 -66q-71 0 -110 49l35 34q27 -38 68 -38zM239 469q38 0 59.5 19.5t26.5 46.5q-3 38 -19 58t-51 20q-74 0 -74 -82q0 -62 58 -62z" />
    <glyph glyph-name="uni00A9.pnum_lnum" horiz-adv-x="752" 
d="M820 356q0 -147 -109 -254.5t-253 -107.5q-128 0 -212 88t-84 216q0 147 109 254.5t253 107.5q128 0 212 -88t84 -216zM777 352q0 113 -73 190t-186 77q-127 0 -220.5 -94.5t-93.5 -222.5q0 -113 73 -190t186 -77q125 0 219.5 93t94.5 224zM598 185q-42 -33 -115 -33
q-76 0 -118 44.5t-42 116.5q0 85 55 144t138 59q71 0 115 -42l2 -69l-44 -4l-4 47q-30 24 -71 24q-65 0 -101 -42.5t-36 -114.5q0 -120 117 -120q32 0 65 16l14 46l42 -4z" />
    <glyph glyph-name="uni2117.pnum_lnum" horiz-adv-x="752" 
d="M458 -6q-128 0 -212 88t-84 216q0 147 109 254.5t253 107.5q128 0 212 -88t84 -216q0 -147 -109 -254.5t-253 -107.5zM463 35q125 0 219.5 93t94.5 224q0 113 -72.5 190t-186.5 77q-128 0 -221 -94t-93 -223q0 -113 73 -190t186 -77zM332 161h51l33 317h-50l4 46h180
q68 0 101.5 -31.5t33.5 -84.5q0 -66 -45.5 -104.5t-113.5 -38.5h-77l-11 -104h69l-5 -47h-175zM523 310q50 0 75.5 25.5t25.5 67.5q0 75 -84 75h-68l-18 -168h69z" />
    <glyph glyph-name="uni267E.pnum_lnum" horiz-adv-x="752" 
d="M458 -6q-128 0 -212 88t-84 216q0 147 109 254.5t253 107.5q128 0 212 -88t84 -216q0 -147 -109 -254.5t-253 -107.5zM463 35q125 0 219.5 93t94.5 224q0 113 -72.5 190t-186.5 77q-128 0 -221 -94t-93 -223q0 -113 73 -190t186 -77zM582 219q-36 0 -56.5 20.5
t-39.5 59.5q-51 -80 -111 -80q-40 0 -64 26.5t-24 72.5q0 54 33.5 89t78.5 35q36 0 56 -22.5t37 -63.5q19 27 32.5 42.5t36.5 29.5t49 14q38 0 60.5 -26t22.5 -72q0 -56 -32.5 -90.5t-78.5 -34.5zM601 403q-29 0 -51 -19.5t-46 -56.5q30 -71 77 -71q30 0 51 22t21 62
q0 63 -52 63zM381 256q27 0 48.5 18.5t45.5 52.5q-11 25 -19 38.5t-23.5 25.5t-35.5 12q-30 0 -50.5 -21.5t-20.5 -59.5q0 -32 15 -49t40 -17z" />
    <glyph glyph-name="uni24CA.pnum_lnum" horiz-adv-x="752" 
d="M458 -6q-128 0 -212 88t-84 216q0 147 109 254.5t253 107.5q128 0 212 -88t84 -216q0 -147 -109 -254.5t-253 -107.5zM463 35q125 0 219.5 93t94.5 224q0 113 -72.5 190t-186.5 77q-128 0 -221 -94t-93 -223q0 -113 73 -190t186 -77zM565 508h144l-3 -44h-40l-19 -192
q-8 -74 -52 -123t-131 -49q-84 0 -117 46t-26 119l21 199h-40l4 44h148l-3 -44h-56l-20 -198q-6 -58 18.5 -89t77.5 -31q112 0 125 126l19 192h-54z" />
    <glyph glyph-name="uni20AC.pnum_lnum" horiz-adv-x="673" 
d="M72 373l6 52h71q34 105 112 170t195 65q129 0 205 -76l5 -125l-62 -6l-8 95q-59 46 -144 46q-86 0 -143.5 -45t-84.5 -124h243l-6 -52h-251q-7 -39 -7 -88v-15h219l-6 -54h-208q26 -160 195 -160q82 0 139 29l29 96l61 -6l-30 -125q-80 -60 -207 -60q-115 0 -181 60.5
t-82 165.5h-76l6 54h65v12q0 43 8 91h-63z" />
    <glyph glyph-name="uni0024.pnum_lnum" horiz-adv-x="518" 
d="M486 194q0 -92 -56 -145t-160 -58l-7 -72h-45l7 72q-128 5 -183 52l26 128l57 -6l-11 -82q49 -27 118 -29l27 255q-28 7 -49 13.5t-44 20t-38 30t-25 42.5t-10 59q0 87 59 133.5t144 51.5l8 80h45l-9 -80q109 -9 158 -53l-7 -129l-60 -6v97q-43 24 -97 26l-24 -225
q43 -10 69 -20t53.5 -29t40.5 -50t13 -76zM169 480q0 -44 24.5 -65.5t72.5 -34.5l23 213q-57 -6 -88.5 -35.5t-31.5 -77.5zM409 185q0 54 -26.5 77.5t-79.5 36.5l-26 -244q132 13 132 130z" />
    <glyph glyph-name="uni00A2.pnum_lnum" horiz-adv-x="451" 
d="M228 16l8 75q-70 7 -108 58t-38 137q0 44 11 87t33 82.5t61 66t89 31.5l8 76h45l-8 -76q71 -5 122 -44l6 -107l-59 -7l-9 76q-29 22 -66 25l-36 -348q75 10 107 115l55 -13q-15 -63 -57 -108t-111 -51l-8 -75h-45zM163 290q0 -124 79 -141l36 345q-59 -13 -87 -70.5
t-28 -133.5z" />
    <glyph glyph-name="uni00A3.pnum_lnum" horiz-adv-x="562" 
d="M58 349h79l8 68q14 124 73.5 183.5t154.5 59.5q103 0 151 -48l4 -124l-60 -7l-8 88q-36 25 -93 25q-65 0 -103 -40t-48 -136l-7 -69h217l-6 -53h-217l-5 -53q-13 -129 -95 -179h234q80 0 137 77l36 -37q-22 -37 -65 -70.5t-100 -33.5h-333l7 61q54 25 77 70.5t30 111.5
l6 53h-80z" />
    <glyph glyph-name="uni0192.pnum_lnum" horiz-adv-x="429" 
d="M16 336h98l22 139q14 91 66 138t136 47q35 0 77 -5l-6 -60q-53 7 -76 7q-54 0 -85.5 -28.5t-42.5 -100.5l-22 -137h141l-6 -53h-143l-40 -261q-6 -35 -14.5 -60.5t-25.5 -50.5t-47.5 -38t-72.5 -13q-17 0 -51 5l6 57q32 -5 54 -5q38 0 54.5 25t27.5 92l39 249h-95z" />
    <glyph glyph-name="uni00A5.pnum_lnum" horiz-adv-x="655" 
d="M224 64h108l8 72h-164l6 49h163l7 64l-4 7h-159l6 49h129l-141 281h-63l7 64h229l-7 -64h-87l133 -270h5l182 270h-87l7 64h221l-6 -64h-63l-193 -281h126l-6 -49h-154l-4 -7l-7 -64h158l-6 -49h-157l-8 -72h111l-7 -64h-289z" />
    <glyph glyph-name="uni20B9.pnum_lnum" horiz-adv-x="570" 
d="M102 333h186q135 0 158 106h-332l6 51h329q-3 49 -36.5 72.5t-104.5 23.5h-179l7 64h484l-7 -63h-118q30 -39 32 -97h61l-5 -51h-62q-28 -103 -155 -148l93 -227h82l-8 -64h-126l-110 272h-201z" />
    <glyph glyph-name="threesup_fraction_eightinf" horiz-adv-x="756" 
d="M170 548l-43 5l16 69q46 37 115 37q48 0 78 -22.5t30 -60.5q0 -68 -82 -92v-2q79 -12 79 -84q0 -53 -41 -84t-102 -31q-53 0 -86.5 25.5t-35.5 71.5l43 12q2 -26 22.5 -45t56.5 -19q38 0 59.5 20.5t21.5 51.5q0 29 -22 44t-74 16l4 38q48 2 71.5 20.5t23.5 47.5
q0 48 -58 48q-30 0 -59 -16zM672 650l-219 -325l-213 -325h-52l227 337l206 313h51zM602 -6q-56 0 -89.5 22.5t-33.5 66.5q0 39 26.5 62t70.5 40q-68 37 -68 83q0 44 38.5 73t98.5 29q52 0 83.5 -22.5t31.5 -61.5q0 -34 -23 -54.5t-65 -36.5q26 -13 41 -23t28 -29t13 -42
q0 -49 -43 -78t-109 -29zM570 276q0 -20 16.5 -33.5t49.5 -29.5q32 15 49 30t17 37q0 23 -17.5 35t-44.5 12q-30 0 -50 -14.5t-20 -36.5zM609 37q35 0 58.5 16t23.5 42q0 17 -13.5 31.5t-26 21t-42.5 20.5q-34 -15 -52.5 -32t-18.5 -43t19 -41t52 -15z" />
    <glyph glyph-name="fivesup_fraction_eightinf" horiz-adv-x="750" 
d="M354 401q0 -58 -40 -90t-101 -32q-56 0 -90 26t-35 71l43 12q2 -26 25 -45t59 -19q37 0 57.5 19.5t20.5 54.5q0 70 -102 70q-8 0 -16.5 -0.5t-18.5 -1.5t-16 -1l-17 16l16 169h219v-1l1 1l-5 -90l-46 -5v50h-120l-10 -95h26q150 0 150 -109zM659 650l-219 -325l-213 -325
h-52l227 337l206 313h51zM592 -6q-56 0 -89.5 22.5t-33.5 66.5q0 39 26.5 62t70.5 40q-68 37 -68 83q0 44 38.5 73t98.5 29q52 0 83.5 -22.5t31.5 -61.5q0 -34 -23 -54.5t-65 -36.5q26 -13 41 -23t28 -29t13 -42q0 -49 -43 -78t-109 -29zM560 276q0 -20 16.5 -33.5
t49.5 -29.5q32 15 49 30t17 37q0 23 -17.5 35t-44.5 12q-30 0 -50 -14.5t-20 -36.5zM599 37q35 0 58.5 16t23.5 42q0 17 -13.5 31.5t-26 21t-42.5 20.5q-34 -15 -52.5 -32t-18.5 -43t19 -41t52 -15z" />
    <glyph glyph-name="sevensup_fraction_eightinf" horiz-adv-x="716" 
d="M128 650h251l4 -27l-176 -337h-57l170 319h-146l-7 -62h-49zM616 650l-219 -325l-213 -325h-52l227 337l206 313h51zM573 -6q-56 0 -89.5 22.5t-33.5 66.5q0 39 26.5 62t70.5 40q-68 37 -68 83q0 44 38.5 73t98.5 29q52 0 83.5 -22.5t31.5 -61.5q0 -34 -23 -54.5
t-65 -36.5q26 -13 41 -23t28 -29t13 -42q0 -49 -43 -78t-109 -29zM541 276q0 -20 16.5 -33.5t49.5 -29.5q32 15 49 30t17 37q0 23 -17.5 35t-44.5 12q-30 0 -50 -14.5t-20 -36.5zM580 37q35 0 58.5 16t23.5 42q0 17 -13.5 31.5t-26 21t-42.5 20.5q-34 -15 -52.5 -32
t-18.5 -43t19.5 -41t51.5 -15z" />
    <glyph glyph-name="uni0061.smcp" horiz-adv-x="554" 
d="M-28 56h49l216 409h-85l7 56h157l145 -465h52l-6 -56h-195l6 56h68l-26 95h-221l-48 -95h73l-6 -56h-192zM278 428l-115 -228h183l-63 228h-5z" />
    <glyph glyph-name="uni0062.smcp" horiz-adv-x="517" 
d="M329 521q74 0 114.5 -30.5t40.5 -83.5q0 -46 -29.5 -79.5t-76.5 -42.5l-1 -4q52 -8 76.5 -40t24.5 -80q0 -69 -50 -115t-142 -46h-258l6 56h65l43 409h-66l7 56h246zM293 295q53 0 83.5 26.5t30.5 68.5q0 75 -97 75h-99l-18 -170h100zM275 56q61 0 95.5 26.5t34.5 77.5
q0 83 -93 83h-125l-19 -187h107z" />
    <glyph glyph-name="uni0063.smcp" horiz-adv-x="537" 
d="M489 38q-30 -21 -80.5 -33.5t-98.5 -12.5q-107 0 -170.5 66.5t-63.5 175.5q0 123 80 209t208 86q49 0 95.5 -13t72.5 -35l4 -120l-61 -6l-8 97q-36 20 -101 20q-101 0 -158.5 -64.5t-57.5 -166.5q0 -91 46 -141t126 -50q57 0 108 21l29 96l58 -6z" />
    <glyph glyph-name="uni0064.smcp" horiz-adv-x="596" 
d="M322 521q119 0 183.5 -63.5t64.5 -167.5q0 -128 -82 -209t-217 -81h-243l6 55h65l43 410h-66l7 56h239zM272 55q106 0 165.5 62.5t59.5 169.5q0 83 -47 130.5t-135 47.5h-104l-43 -410h104z" />
    <glyph glyph-name="uni0065.smcp" horiz-adv-x="502" 
d="M426 0h-400l6 56h65l43 409h-66l7 56h400l3 -144l-60 -9l-8 97h-207l-18 -173h247l-6 -55h-247l-19 -181h207l28 98l60 -7z" />
    <glyph glyph-name="uni0066.smcp" horiz-adv-x="479" 
d="M471 370l-62 -6l-4 101h-196l-20 -195h241l-6 -57h-241l-17 -157h93l-6 -56h-227l6 56h66l43 409h-67l7 56h389z" />
    <glyph glyph-name="uni0067.smcp" horiz-adv-x="588" 
d="M471 68q-64 -76 -175 -76q-101 0 -161.5 69t-60.5 175q0 123 80.5 208t208.5 85q53 0 101.5 -14.5t73.5 -38.5l5 -118l-61 -6l-9 94q-46 26 -113 26q-102 0 -156.5 -64.5t-54.5 -165.5q0 -91 44 -141.5t121 -50.5q66 0 109 34t51 84l5 47h-125l5 55h233l-6 -55h-38
l-22 -215h-57z" />
    <glyph glyph-name="uni0068.smcp" horiz-adv-x="637" 
d="M32 56h66l43 409h-67l7 56h199l-6 -56h-64l-18 -172h284l18 172h-67l7 56h201l-7 -56h-65l-43 -409h66l-6 -56h-201l6 56h66l19 182h-284l-19 -182h64l-6 -56h-199z" />
    <glyph glyph-name="uni0069.smcp" horiz-adv-x="284" 
d="M32 56h66l43 409h-67l7 56h200l-6 -56h-65l-43 -409h65l-6 -56h-200z" />
    </font>
</defs>
</svg>
