<?xml version="1.0" encoding="utf-8"?>
<!-- Generator: Adobe Illustrator 16.0.0, SVG Export Plug-In . SVG Version: 6.00 Build 0)  -->
<!DOCTYPE svg PUBLIC "-//W3C//DTD SVG 1.1//EN" "http://www.w3.org/Graphics/SVG/1.1/DTD/svg11.dtd">
<svg version="1.1" id="Layer_1" xmlns="http://www.w3.org/2000/svg" xmlns:xlink="http://www.w3.org/1999/xlink" x="0px" y="0px"
	 width="126px" height="125.996px" viewBox="0 0 126 125.996" enable-background="new 0 0 126 125.996" xml:space="preserve">
<path fill="#FFFFFF" d="M123.69,62.997c0-33.461-27.227-60.686-60.69-60.686S2.31,29.536,2.31,62.997
	c0,33.463,27.226,60.689,60.69,60.689S123.69,96.46,123.69,62.997 M104.927,102.689l-3.688,0.038
	c-0.507,0.003-0.987,0.011-1.478,0.078c0.458-0.425,0.922-0.848,1.367-1.286c0.006-0.008,0.01-0.016,0.019-0.02
	c0.008-0.006,0.016-0.008,0.026-0.017c0.028-0.028,0.053-0.059,0.082-0.088c1.588-1.625,2.622-1.749,4.038-1.911l3.681-0.423
	c0.648-0.075,1.247-0.143,1.825-0.322c-0.662,0.883-1.355,1.741-2.064,2.589C107.423,102.652,106.445,102.675,104.927,102.689z
	 M94.731,113.539c-1.708,0.906-2.653,0.626-4.121,0.166l-3.521-1.107c-0.479-0.151-0.941-0.29-1.431-0.381
	c0.118-0.055,0.234-0.11,0.35-0.163c0.229-0.11,0.459-0.215,0.687-0.326c0.219-0.107,0.443-0.201,0.661-0.312
	c0.009-0.002,0.015-0.008,0.025-0.01c0.01-0.005,0.021-0.002,0.032-0.009c0.039-0.021,0.078-0.045,0.119-0.067
	c2.007-1.046,3.024-0.848,4.414-0.563l3.622,0.734c0.64,0.129,1.224,0.247,1.822,0.258C96.522,112.375,95.637,112.97,94.731,113.539
	z M89.475,116.497c-1.93,0.829-2.855,0.447-4.316-0.186l-3.386-1.468c-0.461-0.203-0.904-0.389-1.383-0.527
	c0.06-0.021,0.119-0.041,0.181-0.063c0.429-0.147,0.862-0.29,1.287-0.452c0.101-0.036,0.202-0.067,0.305-0.104
	c0.006-0.003,0.012-0.005,0.017-0.007c0.014-0.004,0.026-0.002,0.041-0.008c0.04-0.015,0.079-0.032,0.12-0.049
	c2.104-0.832,3.1-0.529,4.455-0.103l3.525,1.107c0.626,0.196,1.204,0.381,1.811,0.452C91.259,115.579,90.372,116.052,89.475,116.497
	z M83.918,118.914c-2.139,0.716-3.027,0.23-4.454-0.578l-3.215-1.814c-0.438-0.247-0.86-0.48-1.319-0.666
	c0.588-0.136,1.179-0.266,1.76-0.417c0.02-0.007,0.038-0.009,0.061-0.017c0.002,0,0.002,0,0.002,0
	c0.022-0.002,0.041-0.002,0.063-0.008c0.04-0.009,0.078-0.021,0.114-0.033c2.186-0.615,3.144-0.208,4.451,0.362l3.389,1.469
	c0.615,0.266,1.188,0.503,1.797,0.636C85.695,118.224,84.811,118.581,83.918,118.914z M78.091,120.771
	c-2.31,0.543-3.137-0.047-4.502-1.018l-3.005-2.141c-0.41-0.292-0.807-0.565-1.246-0.802c0.145-0.02,0.288-0.038,0.434-0.057
	c0.479-0.061,0.96-0.109,1.438-0.184c0.004,0,0.01,0,0.016,0c0.013,0,0.022,0.002,0.035,0c0.039-0.006,0.082-0.015,0.123-0.021
	c2.237-0.382,3.145,0.125,4.384,0.824l3.217,1.814c0.595,0.337,1.15,0.632,1.755,0.827C79.862,120.288,78.98,120.537,78.091,120.771
	z M71.947,122.035c-2.34,0.288-3.099-0.382-4.349-1.485l-2.77-2.446c-0.376-0.331-0.74-0.646-1.148-0.926
	c0.625-0.009,1.253-0.011,1.878-0.043c0.005,0.002,0.011,0,0.017,0c0.015,0,0.024,0.006,0.039,0.004
	c0.034,0,0.065-0.004,0.098-0.006c2.285-0.149,3.137,0.449,4.305,1.277l3.007,2.142c0.547,0.391,1.056,0.748,1.628,1.005
	C73.756,121.734,72.855,121.896,71.947,122.035z M61.555,120.711l-2.491-2.714c-0.339-0.372-0.67-0.722-1.049-1.042
	c0.109,0.01,0.215,0.014,0.323,0.022c0.519,0.047,1.039,0.102,1.556,0.128c0.008,0.002,0.014,0.002,0.022,0.002
	c0.006,0.003,0.016,0.009,0.024,0.009c0.035,0.002,0.07,0.002,0.103,0.004c2.285,0.09,3.069,0.771,4.143,1.719l2.763,2.444
	c0.505,0.444,0.971,0.848,1.509,1.161c-0.983,0.092-1.975,0.159-2.97,0.199C63.354,122.632,62.643,121.898,61.555,120.711z
	 M63,116.211c-29.344,0-53.219-23.871-53.219-53.214S33.656,9.781,63,9.781c29.344,0,53.219,23.873,53.219,53.216
	S92.344,116.211,63,116.211z M46.955,120.498c-2.06-0.681-2.492-1.588-3.164-3.057l-1.533-3.356
	c-0.206-0.455-0.411-0.891-0.67-1.312c0.286,0.122,0.572,0.241,0.862,0.361c0.293,0.119,0.579,0.252,0.871,0.366
	c0.006,0.004,0.016,0.006,0.027,0.01c0.006,0.002,0.01,0.009,0.018,0.013c0.027,0.01,0.053,0.019,0.08,0.028
	c2.16,0.791,2.693,1.687,3.427,2.926l1.87,3.171c0.342,0.579,0.656,1.107,1.067,1.571C48.849,121.003,47.899,120.762,46.955,120.498
	z M40.959,118.471c-1.907-0.881-2.245-1.822-2.753-3.335l-1.174-3.495c-0.157-0.476-0.317-0.932-0.533-1.379
	c0.182,0.102,0.368,0.2,0.552,0.302c0.079,0.043,0.157,0.088,0.241,0.131c0.288,0.155,0.572,0.327,0.866,0.475
	c0.003,0.004,0.007,0.006,0.011,0.008c0.01,0.006,0.014,0.015,0.024,0.019c0.031,0.017,0.066,0.033,0.102,0.049
	c2.04,1.008,2.479,1.95,3.076,3.254l1.529,3.35c0.276,0.609,0.533,1.167,0.893,1.672C42.836,119.192,41.892,118.845,40.959,118.471z
	 M35.217,115.826c-1.747-1.061-1.98-2.027-2.327-3.568l-0.799-3.599c-0.11-0.492-0.221-0.961-0.386-1.427
	c0.514,0.364,1.026,0.729,1.55,1.078c0.007,0.003,0.013,0.005,0.019,0.012c0.006,0.004,0.01,0.01,0.019,0.014
	c0.022,0.017,0.046,0.031,0.071,0.047c1.95,1.225,2.285,2.21,2.742,3.571l1.169,3.494c0.213,0.63,0.407,1.208,0.71,1.745
	C37.051,116.763,36.127,116.305,35.217,115.826z M29.82,112.611c-1.598-1.226-1.733-2.211-1.913-3.769l-0.421-3.668
	c-0.055-0.499-0.118-0.976-0.235-1.457c0.474,0.416,0.944,0.836,1.431,1.232c0.006,0.006,0.012,0.01,0.018,0.016
	c0.008,0.007,0.01,0.012,0.014,0.017c0.019,0.019,0.041,0.032,0.059,0.049c1.817,1.423,2.051,2.44,2.361,3.845l0.801,3.599
	c0.141,0.646,0.278,1.238,0.522,1.801C31.564,113.742,30.683,113.19,29.82,112.611z M24.649,108.716
	c-1.303-1.31-1.326-2.279-1.34-3.793l-0.035-3.692c-0.006-0.503-0.016-0.981-0.082-1.472c0.425,0.462,0.851,0.928,1.29,1.373
	c0.008,0.006,0.016,0.015,0.022,0.021c0.004,0.004,0.004,0.013,0.008,0.017c0.019,0.019,0.037,0.034,0.053,0.053
	c1.66,1.604,1.785,2.639,1.95,4.071l0.421,3.664c0.074,0.656,0.144,1.258,0.325,1.842C26.37,110.131,25.504,109.43,24.649,108.716z
	 M14.241,97.393c-0.621-0.877-1.22-1.769-1.795-2.678c-0.891-1.705-0.611-2.646-0.151-4.11l1.112-3.525
	c0.147-0.476,0.284-0.935,0.372-1.42c0.049,0.102,0.1,0.206,0.145,0.311c0.119,0.245,0.231,0.492,0.349,0.731
	c0.111,0.229,0.211,0.458,0.323,0.687c0.002,0.008,0.002,0.013,0.005,0.021c0.014,0.024,0.03,0.052,0.042,0.078
	c1.071,2.031,0.873,3.053,0.587,4.461l-0.732,3.61C14.37,96.198,14.251,96.789,14.241,97.393z M9.499,89.467
	c-0.826-1.926-0.445-2.854,0.189-4.314l1.473-3.393c0.196-0.456,0.38-0.897,0.521-1.372c0,0.003,0.002,0.008,0.004,0.011
	c0.168,0.499,0.333,0.998,0.517,1.485c0.037,0.104,0.07,0.207,0.109,0.307c0.002,0.011,0.002,0.015,0.003,0.024
	c0.011,0.029,0.025,0.06,0.035,0.088c0.848,2.13,0.546,3.121,0.117,4.492l-1.106,3.516c-0.198,0.629-0.382,1.212-0.454,1.819
	C10.417,91.255,9.945,90.368,9.499,89.467z M7.08,83.911c-0.71-2.138-0.223-3.022,0.584-4.451l1.819-3.221
	c0.245-0.434,0.472-0.852,0.658-1.307c0.137,0.598,0.27,1.194,0.425,1.783c0.006,0.024,0.01,0.052,0.017,0.073
	c0,0.008-0.002,0.017,0,0.021c0.01,0.029,0.02,0.061,0.026,0.091c0.623,2.205,0.217,3.158-0.352,4.482l-1.469,3.38
	c-0.268,0.617-0.511,1.184-0.646,1.79C7.768,85.685,7.415,84.803,7.08,83.911z M5.23,78.1c-0.546-2.32,0.041-3.146,1.016-4.513
	l2.148-3.015c0.288-0.404,0.558-0.799,0.791-1.23c0.075,0.636,0.145,1.271,0.241,1.896c0.002,0.011,0,0.015,0,0.021
	c0.004,0.028,0.012,0.056,0.016,0.082c0.392,2.267-0.112,3.172-0.818,4.429L6.812,78.98c-0.335,0.593-0.64,1.136-0.836,1.736
	C5.706,79.854,5.458,78.98,5.23,78.1z M3.356,65.57c-0.006-2.22,0.727-2.914,1.929-4.016l2.729-2.501
	c0.365-0.338,0.707-0.662,1.026-1.036c-0.017,0.181-0.027,0.369-0.041,0.551c-0.04,0.452-0.086,0.897-0.113,1.349
	c-0.002,0.008-0.006,0.015-0.006,0.021c-0.002,0.03,0,0.065-0.002,0.096c-0.088,2.286-0.771,3.069-1.723,4.153l-2.44,2.757
	c-0.443,0.505-0.85,0.967-1.165,1.504C3.464,67.494,3.397,66.536,3.356,65.57z M7.517,40.976c0.883-1.927,1.827-2.265,3.343-2.772
	l3.512-1.175c0.472-0.159,0.921-0.319,1.363-0.53c-0.08,0.14-0.153,0.283-0.231,0.426c-0.088,0.154-0.174,0.309-0.256,0.462
	c-0.143,0.268-0.296,0.525-0.435,0.795c-0.002,0.004-0.004,0.006-0.006,0.01c-0.011,0.014-0.016,0.031-0.025,0.045
	c-1.017,2.091-1.962,2.528-3.28,3.131l-3.354,1.531c-0.607,0.276-1.166,0.534-1.669,0.893C6.802,42.842,7.147,41.904,7.517,40.976z
	 M10.169,35.22c1.063-1.754,2.03-1.989,3.569-2.328l3.613-0.803c0.486-0.109,0.953-0.219,1.415-0.386
	c-0.37,0.522-0.74,1.042-1.09,1.575c-0.006,0.004-0.012,0.006-0.014,0.012c-0.013,0.021-0.025,0.041-0.039,0.062
	c-1.224,1.956-2.209,2.291-3.579,2.752l-3.494,1.17c-0.63,0.211-1.212,0.407-1.748,0.71C9.235,37.05,9.691,36.127,10.169,35.22z
	 M13.38,29.826c1.233-1.61,2.216-1.741,3.775-1.919l3.677-0.421c0.494-0.057,0.966-0.118,1.447-0.233
	c-0.422,0.478-0.844,0.954-1.249,1.449c-0.006,0.006-0.01,0.008-0.014,0.012c-0.014,0.021-0.031,0.041-0.052,0.062
	c-1.418,1.81-2.431,2.043-3.839,2.36l-3.6,0.8c-0.646,0.143-1.24,0.273-1.804,0.517C12.254,31.563,12.804,30.684,13.38,29.826z
	 M17.28,24.651c1.31-1.312,2.285-1.33,3.795-1.344l3.699-0.033c0.499-0.006,0.979-0.016,1.463-0.084
	c-0.457,0.43-0.927,0.852-1.373,1.294c-0.004,0.006-0.01,0.012-0.016,0.018c-0.007,0.004-0.013,0.006-0.019,0.011
	c-0.02,0.018-0.033,0.036-0.053,0.055c-1.604,1.655-2.636,1.78-4.069,1.948l-3.663,0.418c-0.657,0.074-1.262,0.144-1.847,0.325
	C15.865,26.368,16.565,25.504,17.28,24.651z M5.451,67.595l2.45-2.772c0.331-0.374,0.642-0.738,0.918-1.144c0,0.004,0,0.007,0,0.012
	c0.008,0.627,0.012,1.252,0.04,1.878c0,0.006,0,0.016,0,0.022c0,0.008-0.003,0.014-0.002,0.022c0,0.031,0.004,0.059,0.007,0.084
	c0.153,2.292-0.444,3.142-1.278,4.32l-2.137,3.001c-0.395,0.548-0.75,1.059-1.01,1.629c-0.174-0.88-0.337-1.768-0.472-2.663
	C3.666,69.615,4.337,68.855,5.451,67.595z M31.283,12.446c1.705-0.893,2.647-0.613,4.108-0.151l3.53,1.11
	c0.478,0.149,0.936,0.286,1.422,0.374c-0.077,0.037-0.153,0.073-0.233,0.108c-0.288,0.137-0.582,0.272-0.873,0.413
	c-0.193,0.096-0.4,0.184-0.594,0.282c-0.01,0.004-0.018,0.008-0.029,0.012c-0.008,0.005-0.016,0.002-0.027,0.006
	c-0.028,0.015-0.052,0.033-0.083,0.047c-2.023,1.067-3.045,0.867-4.453,0.583l-3.614-0.732c-0.64-0.13-1.228-0.249-1.837-0.259
	C29.479,13.62,30.374,13.018,31.283,12.446z M36.542,9.491c1.917-0.817,2.843-0.437,4.302,0.196l3.392,1.472
	c0.456,0.198,0.894,0.386,1.366,0.525c-0.513,0.174-1.026,0.348-1.533,0.536c-0.076,0.028-0.157,0.052-0.235,0.081
	c-0.008,0.004-0.017,0.006-0.027,0.01c-0.01,0.002-0.016,0.002-0.024,0.004c-0.027,0.009-0.053,0.023-0.08,0.031
	c-2.134,0.857-3.127,0.55-4.5,0.121l-3.519-1.108c-0.628-0.198-1.21-0.38-1.817-0.454C34.748,10.413,35.637,9.941,36.542,9.491z
	 M42.093,7.075c2.131-0.702,3.016-0.218,4.443,0.587l3.22,1.821c0.438,0.245,0.861,0.47,1.319,0.658
	c-0.611,0.137-1.224,0.276-1.827,0.433c-0.002,0.003-0.006,0.003-0.011,0.003c-0.007,0.002-0.016,0.003-0.024,0.005
	c-0.012,0.002-0.021,0-0.026,0.002c-0.033,0.009-0.064,0.019-0.097,0.029c-2.201,0.617-3.159,0.213-4.475-0.358L41.23,8.786
	c-0.615-0.266-1.181-0.509-1.788-0.644C40.316,7.766,41.2,7.411,42.093,7.075z M47.919,5.222c2.299-0.534,3.129,0.051,4.49,1.022
	l3.015,2.148c0.407,0.286,0.797,0.562,1.226,0.794c-0.633,0.074-1.269,0.145-1.895,0.242c-0.007,0-0.012,0-0.016,0
	c-0.029,0.004-0.059,0.01-0.088,0.014c-2.262,0.39-3.168-0.112-4.422-0.819l-3.215-1.815c-0.591-0.333-1.134-0.638-1.733-0.834
	C46.151,5.702,47.034,5.455,47.919,5.222z M54.05,3.963c2.337-0.29,3.099,0.378,4.349,1.486l2.772,2.446
	c0.378,0.331,0.74,0.646,1.148,0.924c-0.004,0-0.008,0-0.012,0c-0.623,0.01-1.248,0.012-1.87,0.043c-0.01-0.002-0.018,0-0.028,0
	c-0.009,0-0.015-0.007-0.025-0.005c-0.035,0.003-0.068,0.007-0.102,0.007c-2.279,0.153-3.129-0.446-4.298-1.278L52.98,5.445
	c-0.55-0.391-1.057-0.748-1.631-1.006C52.244,4.261,53.143,4.1,54.05,3.963z M64.437,5.281l2.498,2.718
	c0.339,0.368,0.666,0.72,1.044,1.04c-0.213-0.018-0.425-0.032-0.64-0.049c-0.409-0.03-0.816-0.077-1.229-0.1
	c-0.008-0.002-0.017-0.002-0.026-0.002c-0.01-0.002-0.017-0.008-0.026-0.008c-0.033-0.002-0.069-0.002-0.103-0.002
	c-2.283-0.09-3.067-0.775-4.14-1.723l-2.766-2.442c-0.502-0.444-0.962-0.848-1.498-1.163c0.951-0.088,1.903-0.153,2.866-0.194
	C62.63,3.339,63.333,4.073,64.437,5.281z M84.99,7.505c1.952,0.881,2.287,1.823,2.8,3.351l1.176,3.497
	c0.155,0.468,0.314,0.928,0.537,1.388c-0.129-0.072-0.255-0.139-0.382-0.211c-0.182-0.1-0.364-0.2-0.544-0.3
	c-0.241-0.127-0.48-0.268-0.72-0.393c-0.016-0.01-0.028-0.018-0.044-0.026c-0.003-0.002-0.005-0.004-0.009-0.006
	c-0.01-0.006-0.022-0.011-0.028-0.015c-2.115-1.027-2.551-1.976-3.147-3.29L83.09,8.132c-0.275-0.601-0.526-1.155-0.883-1.654
	C83.149,6.8,84.077,7.141,84.99,7.505z M90.762,10.16c1.764,1.06,1.999,2.027,2.345,3.574l0.803,3.601
	c0.104,0.482,0.215,0.957,0.389,1.435c-0.513-0.364-1.025-0.732-1.543-1.071c-0.013-0.011-0.023-0.019-0.037-0.027
	c-0.006-0.002-0.008-0.008-0.012-0.012c-0.013-0.008-0.031-0.017-0.043-0.027c-1.982-1.238-2.313-2.225-2.767-3.591l-1.183-3.511
	c-0.208-0.623-0.399-1.195-0.696-1.726C88.945,9.233,89.86,9.686,90.762,10.16z M96.157,13.37c1.623,1.23,1.756,2.213,1.934,3.779
	l0.421,3.668c0.06,0.501,0.119,0.979,0.237,1.464c-0.473-0.413-0.942-0.832-1.421-1.222c-0.01-0.013-0.024-0.023-0.036-0.033
	c-0.004-0.004-0.004-0.008-0.009-0.012c-0.01-0.009-0.024-0.017-0.032-0.027c-1.85-1.441-2.074-2.458-2.385-3.865l-0.806-3.611
	c-0.143-0.641-0.273-1.23-0.515-1.788C94.433,12.25,95.303,12.798,96.157,13.37z M101.317,17.253
	c1.339,1.32,1.361,2.297,1.372,3.816l0.039,3.691c0.004,0.505,0.014,0.987,0.077,1.48c-0.425-0.46-0.848-0.929-1.283-1.368
	c-0.013-0.01-0.021-0.018-0.029-0.03c-0.004-0.005-0.004-0.011-0.008-0.015c-0.017-0.012-0.026-0.024-0.039-0.037
	c-1.678-1.62-1.798-2.654-1.96-4.085l-0.425-3.677c-0.071-0.65-0.141-1.25-0.318-1.829C99.621,15.857,100.478,16.548,101.317,17.253
	z M111.762,28.604c0.615,0.869,1.207,1.753,1.775,2.655c0.912,1.715,0.632,2.656,0.17,4.128l-1.109,3.523
	c-0.151,0.48-0.289,0.94-0.377,1.43c-0.032-0.065-0.063-0.129-0.092-0.192c-0.143-0.304-0.284-0.613-0.433-0.916
	c-0.095-0.196-0.183-0.4-0.28-0.594c-0.004-0.011-0.008-0.021-0.013-0.031c-0.004-0.006-0.002-0.014-0.006-0.02
	c-0.01-0.023-0.026-0.046-0.037-0.066c-1.079-2.042-0.876-3.065-0.592-4.47l0.733-3.626
	C111.633,29.792,111.751,29.205,111.762,28.604z M116.497,36.519c0.836,1.931,0.455,2.854-0.184,4.318l-1.468,3.386
	c-0.199,0.462-0.389,0.908-0.527,1.382c-0.176-0.513-0.35-1.03-0.538-1.539c-0.03-0.076-0.055-0.157-0.084-0.237
	c-0.002-0.01-0.006-0.016-0.01-0.029c-0.002-0.006,0-0.012-0.002-0.02c-0.011-0.021-0.021-0.043-0.028-0.066
	c-0.865-2.146-0.555-3.141-0.123-4.512l1.109-3.529c0.196-0.625,0.379-1.199,0.45-1.804
	C115.581,34.739,116.051,35.622,116.497,36.519z M118.914,42.073c0.722,2.142,0.235,3.025-0.576,4.458l-1.814,3.216
	c-0.247,0.438-0.477,0.857-0.67,1.314c-0.134-0.608-0.272-1.215-0.428-1.816c0-0.002-0.004-0.006-0.004-0.013
	c-0.002-0.008-0.004-0.016-0.004-0.02c-0.002-0.012,0-0.02-0.002-0.029c-0.009-0.032-0.019-0.063-0.027-0.098
	c-0.625-2.201-0.216-3.157,0.355-4.471l1.472-3.395c0.263-0.611,0.507-1.171,0.644-1.774
	C118.231,40.31,118.583,41.187,118.914,42.073z M120.768,47.89c0.555,2.319-0.032,3.143-1.009,4.516l-2.145,3.008
	c-0.292,0.407-0.565,0.806-0.801,1.239c-0.073-0.637-0.144-1.273-0.243-1.901c0-0.006,0.002-0.012,0-0.016
	c-0.004-0.031-0.011-0.061-0.015-0.094c-0.39-2.26,0.119-3.165,0.819-4.414l1.821-3.223c0.331-0.589,0.636-1.128,0.83-1.723
	C120.294,46.143,120.537,47.013,120.768,47.89z M122.645,60.434c0.006,2.21-0.722,2.898-1.926,4.005l-2.72,2.497
	c-0.37,0.337-0.72,0.665-1.038,1.043c0.021-0.244,0.036-0.487,0.053-0.73c0.033-0.382,0.076-0.769,0.099-1.147
	c0-0.006,0-0.013,0.002-0.021c0-0.008,0.004-0.015,0.004-0.023c0.002-0.025,0.002-0.05,0.002-0.079
	c0.088-2.308,0.771-3.091,1.723-4.163l2.455-2.78c0.437-0.495,0.84-0.954,1.152-1.483C122.536,58.505,122.604,59.465,122.645,60.434
	z M118.489,85.001c-0.879,1.941-1.821,2.274-3.346,2.79l-3.507,1.175c-0.477,0.157-0.93,0.318-1.375,0.533
	c0.079-0.145,0.159-0.292,0.238-0.438c0.082-0.146,0.166-0.298,0.246-0.449c0.139-0.259,0.288-0.507,0.423-0.769
	c0.004-0.008,0.008-0.019,0.016-0.028c0.004-0.004,0.009-0.006,0.013-0.013c0.019-0.033,0.033-0.073,0.049-0.108
	c1.01-2.035,1.952-2.475,3.252-3.067l3.37-1.539c0.601-0.271,1.154-0.526,1.653-0.883C119.2,83.147,118.857,84.079,118.489,85.001z
	 M115.843,90.752c-1.061,1.77-2.027,2.007-3.576,2.354l-3.607,0.801c-0.49,0.108-0.959,0.219-1.427,0.385
	c0.361-0.512,0.728-1.022,1.073-1.548c0.008-0.01,0.014-0.015,0.021-0.028c0.004-0.006,0.008-0.006,0.014-0.012
	c0.013-0.022,0.024-0.045,0.041-0.065c1.225-1.951,2.21-2.287,3.572-2.746l3.514-1.179c0.623-0.21,1.195-0.4,1.727-0.698
	C116.767,88.939,116.314,89.854,115.843,90.752z M112.628,96.153c-1.229,1.623-2.214,1.756-3.779,1.938l-3.668,0.419
	c-0.501,0.058-0.978,0.119-1.464,0.235c0.415-0.471,0.83-0.938,1.23-1.425c0.007-0.008,0.013-0.019,0.021-0.026
	c0.007-0.004,0.013-0.006,0.017-0.013c0.021-0.022,0.037-0.049,0.056-0.069c1.42-1.807,2.436-2.039,3.836-2.348l3.615-0.807
	c0.64-0.14,1.229-0.274,1.786-0.514C113.748,94.427,113.2,95.299,112.628,96.153z M120.554,58.396l-2.444,2.77
	c-0.333,0.376-0.648,0.738-0.928,1.15c-0.009-0.639-0.013-1.277-0.043-1.915c0-0.005,0.002-0.008,0.002-0.016
	c-0.002-0.024-0.004-0.049-0.006-0.073c-0.158-2.31,0.445-3.16,1.277-4.329l2.149-3.019c0.389-0.545,0.744-1.046,0.999-1.608
	c0.174,0.873,0.336,1.751,0.469,2.642c0,0,0,0,0,0.002C122.34,56.373,121.672,57.131,120.554,58.396z M120.511,79.011
	c-0.677,2.085-1.582,2.516-3.06,3.192l-3.362,1.535c-0.455,0.208-0.889,0.41-1.31,0.67c0.151-0.345,0.29-0.695,0.433-1.042
	c0.093-0.233,0.199-0.458,0.289-0.693c0.006-0.008,0.008-0.021,0.012-0.027c0.002-0.007,0.009-0.009,0.013-0.016
	c0.012-0.03,0.021-0.063,0.03-0.094c0.793-2.148,1.688-2.683,2.921-3.409l3.196-1.884c0.566-0.338,1.091-0.648,1.547-1.053
	C121.007,77.141,120.771,78.081,120.511,79.011z M121.874,72.89c-0.452,2.158-1.309,2.684-2.715,3.518l-3.182,1.876
	c-0.425,0.253-0.828,0.494-1.216,0.791c0.124-0.396,0.23-0.803,0.346-1.204c0.053-0.194,0.12-0.388,0.173-0.584
	c0.005-0.009,0.007-0.019,0.011-0.029c0.002-0.008,0.01-0.01,0.01-0.016c0.011-0.037,0.017-0.072,0.024-0.104
	c0.564-2.216,1.396-2.837,2.545-3.687l2.978-2.21c0.531-0.393,1.018-0.754,1.435-1.206C122.168,70.997,122.033,71.947,121.874,72.89
	z M122.585,66.685c-0.225,2.195-1.021,2.807-2.332,3.779l-2.97,2.201c-0.398,0.294-0.776,0.58-1.13,0.917
	c0.069-0.353,0.129-0.715,0.192-1.072c0.047-0.264,0.104-0.527,0.148-0.793c0.003-0.006,0.007-0.013,0.009-0.019
	c0.004-0.026,0.008-0.052,0.01-0.08c0.327-2.287,1.09-2.994,2.148-3.96l2.732-2.505c0.482-0.448,0.932-0.858,1.296-1.349
	C122.675,64.771,122.643,65.731,122.585,66.685z M110.051,26.305c0.977,1.52,0.787,2.471,0.49,3.932l-0.733,3.619
	c-0.101,0.495-0.188,0.967-0.227,1.464c-0.052-0.086-0.103-0.17-0.155-0.254c-0.056-0.096-0.117-0.192-0.172-0.286
	c-0.217-0.355-0.425-0.719-0.648-1.067c-0.004-0.008-0.01-0.016-0.014-0.024c-0.004-0.008-0.004-0.019-0.013-0.025
	c-0.016-0.026-0.034-0.051-0.053-0.077c-1.279-1.911-1.182-2.947-1.04-4.417l0.345-3.638c0.063-0.641,0.119-1.232,0.067-1.827
	C108.643,24.551,109.36,25.418,110.051,26.305z M106.006,21.643c1.083,1.382,0.989,2.336,0.851,3.806l-0.352,3.672
	c-0.047,0.503-0.088,0.983-0.073,1.482c-0.376-0.503-0.748-1.01-1.135-1.492c-0.006-0.011-0.014-0.018-0.021-0.029
	c-0.005-0.008-0.008-0.016-0.012-0.022c-0.019-0.022-0.039-0.043-0.056-0.065c-1.478-1.77-1.492-2.813-1.502-4.244l-0.037-3.696
	c-0.004-0.648-0.012-1.247-0.122-1.836C104.39,20.002,105.209,20.813,106.006,21.643z M78.988,5.481
	c2.107,0.675,2.538,1.582,3.215,3.07l1.534,3.356c0.207,0.456,0.411,0.891,0.671,1.312c-0.348-0.149-0.697-0.29-1.049-0.433
	c-0.223-0.092-0.445-0.195-0.671-0.283c-0.014-0.007-0.032-0.014-0.044-0.02c-0.004-0.002-0.009-0.006-0.015-0.008
	c-0.01-0.004-0.026-0.008-0.037-0.015c-2.205-0.798-2.736-1.696-3.464-2.938l-1.884-3.189c-0.338-0.57-0.646-1.095-1.053-1.557
	C77.132,4.991,78.065,5.224,78.988,5.481z M72.855,4.118c2.196,0.448,2.718,1.308,3.552,2.724l1.878,3.176
	c0.243,0.418,0.49,0.824,0.793,1.218c-0.387-0.12-0.781-0.22-1.171-0.333c-0.202-0.057-0.407-0.126-0.607-0.181
	c-0.015-0.007-0.032-0.013-0.049-0.017c-0.004-0.002-0.006-0.004-0.01-0.004c-0.01-0.004-0.019-0.004-0.029-0.008
	c-2.285-0.564-2.906-1.404-3.763-2.565l-2.207-2.972c-0.393-0.533-0.754-1.021-1.206-1.436C70.981,3.83,71.923,3.963,72.855,4.118z
	 M66.691,3.415c2.192,0.223,2.802,1.022,3.771,2.332l2.201,2.963c0.288,0.393,0.576,0.775,0.924,1.137
	c-0.387-0.078-0.781-0.141-1.172-0.209c-0.219-0.038-0.439-0.09-0.657-0.126c-0.013-0.002-0.025-0.005-0.039-0.009
	c-0.006,0-0.013-0.006-0.021-0.008c-0.022-0.002-0.047-0.004-0.071-0.008c-2.298-0.327-3.003-1.091-3.97-2.15l-2.505-2.728
	c-0.448-0.487-0.858-0.934-1.352-1.298C64.772,3.323,65.732,3.356,66.691,3.415z M26.325,15.931
	c1.515-0.956,2.465-0.768,3.918-0.472l3.626,0.736c0.49,0.095,0.958,0.185,1.453,0.222c-0.105,0.062-0.202,0.121-0.3,0.182
	c-0.068,0.041-0.138,0.082-0.201,0.123c-0.37,0.227-0.746,0.441-1.108,0.673c-0.008,0.003-0.018,0.009-0.026,0.014
	c-0.004,0.004-0.015,0.004-0.023,0.01c-0.028,0.016-0.051,0.035-0.078,0.053c-1.902,1.273-2.938,1.183-4.369,1.046l-3.671-0.351
	c-0.647-0.062-1.244-0.119-1.843-0.068C24.558,17.354,25.43,16.63,26.325,15.931z M21.647,19.988
	c1.384-1.077,2.342-0.985,3.806-0.845l3.682,0.35c0.499,0.049,0.975,0.088,1.466,0.074c-0.503,0.376-1.01,0.75-1.5,1.142
	c-0.004,0.004-0.011,0.008-0.016,0.015c-0.011,0.004-0.019,0.005-0.023,0.01c-0.027,0.02-0.053,0.043-0.078,0.063
	c-1.757,1.463-2.794,1.482-4.232,1.496l-3.687,0.035c-0.65,0.006-1.253,0.012-1.846,0.126
	C20.006,21.608,20.814,20.789,21.647,19.988z M5.489,46.982c0.681-2.087,1.591-2.52,3.066-3.192l3.366-1.537
	c0.452-0.206,0.881-0.409,1.298-0.666c-0.149,0.343-0.29,0.693-0.429,1.04c-0.099,0.241-0.207,0.478-0.305,0.723
	c-0.002,0.007-0.006,0.009-0.008,0.015c-0.01,0.023-0.017,0.045-0.027,0.068c-0.793,2.167-1.686,2.703-2.928,3.437L6.35,48.742
	c-0.578,0.339-1.11,0.654-1.574,1.069C4.991,48.858,5.23,47.916,5.489,46.982z M4.12,53.132c0.456-2.189,1.317-2.716,2.726-3.546
	l3.187-1.878c0.419-0.25,0.819-0.493,1.201-0.787c-0.12,0.392-0.222,0.791-0.337,1.187c-0.057,0.209-0.131,0.415-0.188,0.626
	c-0.004,0.006-0.008,0.012-0.01,0.02c-0.009,0.035-0.014,0.068-0.025,0.1c-0.564,2.214-1.391,2.839-2.544,3.695L5.168,54.74
	c-0.539,0.401-1.029,0.767-1.451,1.224C3.83,55.014,3.963,54.07,4.12,53.132z M3.417,59.288c0.231-2.179,1.032-2.794,2.334-3.757
	l2.97-2.203c0.398-0.292,0.774-0.581,1.126-0.915c-0.074,0.372-0.135,0.746-0.203,1.12c-0.04,0.245-0.098,0.486-0.137,0.729
	c0,0.006-0.002,0.012-0.002,0.016c-0.002,0.007-0.006,0.012-0.008,0.023c-0.004,0.028-0.008,0.059-0.014,0.092
	c-0.325,2.262-1.085,2.972-2.146,3.948l-2.716,2.492c-0.489,0.451-0.942,0.866-1.31,1.365C3.323,61.221,3.358,60.25,3.417,59.288z
	 M15.941,99.683c-0.967-1.521-0.778-2.469-0.482-3.93l0.731-3.617c0.103-0.49,0.19-0.965,0.229-1.459
	c0.062,0.105,0.127,0.21,0.188,0.316c0.033,0.053,0.07,0.108,0.103,0.161c0.229,0.378,0.447,0.763,0.688,1.135
	c0.004,0.008,0.008,0.016,0.013,0.021c0.002,0.01,0.002,0.016,0.01,0.022c0.012,0.022,0.028,0.045,0.042,0.067
	c1.284,1.914,1.192,2.949,1.055,4.384l-0.351,3.67c-0.06,0.649-0.117,1.243-0.068,1.84C17.357,101.442,16.636,100.572,15.941,99.683
	z M19.99,104.349c-1.077-1.381-0.988-2.34-0.846-3.803l0.351-3.677c0.049-0.501,0.088-0.981,0.072-1.476
	c0.375,0.503,0.748,1.012,1.142,1.504c0.004,0.006,0.01,0.013,0.014,0.019c0.005,0.008,0.007,0.014,0.013,0.021
	c0.018,0.022,0.035,0.043,0.051,0.063c1.477,1.769,1.492,2.808,1.508,4.246l0.033,3.69c0.006,0.65,0.014,1.25,0.127,1.84
	C21.61,105.992,20.791,105.183,19.99,104.349z M53.069,121.865c-2.133-0.462-2.66-1.317-3.482-2.716l-1.874-3.178
	c-0.253-0.425-0.497-0.827-0.793-1.214c0.315,0.1,0.636,0.18,0.953,0.271c0.279,0.082,0.555,0.174,0.837,0.252
	c0.004,0.002,0.01,0.004,0.017,0.008c0.01,0,0.018,0.008,0.028,0.01c0.041,0.012,0.078,0.021,0.115,0.027
	c2.203,0.563,2.83,1.394,3.682,2.544l2.191,2.961c0.399,0.536,0.767,1.028,1.222,1.445
	C54.995,122.164,54.028,122.025,53.069,121.865z M59.233,122.575c-2.129-0.241-2.744-1.036-3.701-2.33l-2.197-2.964
	c-0.298-0.4-0.586-0.778-0.926-1.134c0.26,0.049,0.517,0.09,0.775,0.137c0.358,0.065,0.711,0.146,1.069,0.202
	c0.012,0.007,0.026,0.009,0.043,0.011c0.002,0,0.004,0.002,0.006,0.002c0.008,0.002,0.018,0.002,0.024,0.004
	c2.326,0.318,3.035,1.089,4.018,2.158l2.488,2.712c0.456,0.495,0.872,0.944,1.371,1.313
	C61.208,122.673,60.218,122.639,59.233,122.575z M99.701,110.045c-1.526,0.977-2.475,0.791-3.942,0.494l-3.617-0.733
	c-0.492-0.101-0.965-0.19-1.463-0.227c0.126-0.076,0.253-0.153,0.38-0.229c0.014-0.012,0.032-0.021,0.045-0.028
	c0.396-0.239,0.794-0.468,1.184-0.718c0.008-0.006,0.018-0.012,0.027-0.016c0.007-0.004,0.015-0.004,0.021-0.007
	c0.036-0.026,0.071-0.053,0.108-0.075c1.886-1.255,2.92-1.165,4.339-1.026l3.683,0.354c0.64,0.061,1.234,0.113,1.829,0.063
	C101.453,108.635,100.586,109.35,99.701,110.045z M104.353,106.002c-1.375,1.086-2.334,0.993-3.803,0.854l-3.677-0.354
	c-0.501-0.047-0.983-0.086-1.479-0.071c0.503-0.376,1.009-0.747,1.498-1.139c0.012-0.006,0.022-0.017,0.032-0.022
	c0.004-0.006,0.013-0.003,0.017-0.008c0.028-0.024,0.057-0.049,0.088-0.076c1.753-1.453,2.794-1.469,4.218-1.481l3.703-0.035
	c0.645-0.006,1.243-0.012,1.829-0.128C105.996,104.388,105.187,105.205,104.353,106.002z"/>
<path fill="#FFFFFF" d="M88.684,62.999c0-14.163-11.521-25.686-25.682-25.686c-14.163,0-25.688,11.523-25.688,25.686
	c0,14.16,11.525,25.682,25.688,25.682C77.163,88.681,88.684,77.159,88.684,62.999 M63.002,87.7
	c-13.624,0-24.707-11.081-24.707-24.701c0-13.624,11.083-24.705,24.707-24.705c13.621,0,24.703,11.081,24.703,24.705
	C87.705,76.619,76.623,87.7,63.002,87.7z"/>
<path fill="#FFFFFF" d="M73.149,94.236c0.722-0.235,1.31-0.735,1.653-1.414c0.12-0.237,0.192-0.486,0.243-0.742
	c0.46,0.31,0.999,0.495,1.58,0.495c0.443,0,0.889-0.107,1.287-0.312c0.946-0.485,1.494-1.432,1.533-2.426
	c0.371,0.171,0.774,0.274,1.193,0.274c0.603,0,1.179-0.187,1.67-0.544c0.86-0.625,1.25-1.646,1.132-2.634
	c0.251,0.07,0.511,0.119,0.776,0.119c0.759,0,1.477-0.296,2.013-0.834c0.75-0.75,0.976-1.817,0.706-2.772
	c0.114,0.013,0.225,0.026,0.341,0.026c0.905,0,1.766-0.437,2.299-1.172c0.624-0.861,0.681-1.953,0.264-2.855
	c1.032-0.039,1.958-0.613,2.429-1.539c0.48-0.946,0.367-2.029-0.18-2.858c0.997-0.193,1.829-0.906,2.149-1.903
	c0.329-1.007,0.049-2.059-0.621-2.788c0.949-0.344,1.659-1.176,1.825-2.225c0.121-0.748-0.06-1.496-0.504-2.104
	c-0.158-0.217-0.349-0.396-0.555-0.562c0.227-0.127,0.443-0.272,0.633-0.463c0.538-0.538,0.832-1.251,0.83-2.009
	c0-1.063-0.595-1.979-1.465-2.467c0.204-0.162,0.398-0.341,0.559-0.56c0.442-0.613,0.623-1.363,0.504-2.113
	c-0.168-1.045-0.89-1.866-1.833-2.212c0.178-0.188,0.339-0.396,0.459-0.635c0.346-0.677,0.405-1.445,0.168-2.168
	c-0.32-0.988-1.186-1.679-2.164-1.879c0.151-0.219,0.281-0.454,0.364-0.715c0.234-0.721,0.173-1.492-0.172-2.166
	c-0.471-0.922-1.396-1.494-2.427-1.531c0.11-0.237,0.201-0.487,0.241-0.752c0.121-0.75-0.06-1.5-0.507-2.111
	c-0.603-0.828-1.648-1.215-2.645-1.108c0.078-0.26,0.129-0.53,0.129-0.807c0-0.761-0.296-1.472-0.832-2.008
	c-0.728-0.725-1.82-0.944-2.785-0.682c0.034-0.268,0.044-0.54,0-0.813c-0.118-0.75-0.521-1.409-1.137-1.851
	c-0.831-0.601-1.947-0.644-2.856-0.235c-0.006-0.27-0.039-0.542-0.127-0.805c-0.233-0.722-0.738-1.311-1.412-1.654
	c-0.396-0.2-0.838-0.306-1.279-0.306c-0.583,0-1.124,0.186-1.584,0.496c-0.051-0.257-0.125-0.51-0.247-0.752
	c-0.344-0.674-0.933-1.175-1.652-1.408c-0.995-0.325-2.06-0.026-2.793,0.648c-0.09-0.251-0.204-0.495-0.366-0.715
	c-0.447-0.615-1.105-1.02-1.855-1.137c-1.063-0.165-2.056,0.285-2.665,1.065c-0.484-0.868-1.403-1.463-2.467-1.463
	c-1.065,0-1.982,0.597-2.469,1.465c-0.608-0.78-1.602-1.23-2.671-1.061c-1.046,0.168-1.86,0.896-2.205,1.826
	c-0.513-0.477-1.194-0.761-1.929-0.761c-0.299,0-0.593,0.047-0.875,0.139c-0.723,0.233-1.312,0.736-1.654,1.411
	c-0.122,0.236-0.195,0.488-0.245,0.743c-0.46-0.308-0.999-0.492-1.579-0.492c-0.444,0-0.89,0.108-1.286,0.311
	c-0.956,0.486-1.504,1.446-1.537,2.452c-0.911-0.409-2.031-0.363-2.859,0.239c-0.615,0.445-1.018,1.105-1.136,1.852
	c-0.043,0.272-0.033,0.542,0,0.808c-0.963-0.262-2.058-0.039-2.782,0.689c-0.537,0.535-0.831,1.246-0.834,2.003
	c0,0.275,0.051,0.543,0.129,0.801c-0.995-0.105-2.044,0.286-2.643,1.114c-0.447,0.613-0.627,1.365-0.51,2.113
	c0.045,0.263,0.133,0.509,0.241,0.746c-1.032,0.039-1.954,0.611-2.426,1.535c-0.485,0.952-0.366,2.048,0.196,2.877
	c-0.981,0.198-1.848,0.893-2.169,1.884c-0.329,1.014-0.044,2.073,0.636,2.805c-0.944,0.349-1.676,1.177-1.837,2.209
	c-0.168,1.05,0.276,2.05,1.063,2.667c-0.229,0.127-0.45,0.276-0.638,0.466c-0.537,0.537-0.832,1.248-0.83,2.005
	c0,1.063,0.597,1.982,1.468,2.468c-0.209,0.165-0.401,0.347-0.558,0.565c-0.446,0.608-0.626,1.358-0.505,2.103
	c0.163,1.049,0.879,1.878,1.821,2.225c-0.174,0.187-0.329,0.393-0.448,0.626c-0.347,0.676-0.406,1.443-0.172,2.164
	c0.326,0.995,1.155,1.706,2.15,1.9c-0.143,0.214-0.267,0.443-0.349,0.697c-0.235,0.72-0.174,1.487,0.17,2.162
	c0.476,0.924,1.398,1.498,2.428,1.537c-0.108,0.233-0.196,0.48-0.241,0.745c-0.117,0.751,0.063,1.501,0.51,2.112
	c0.532,0.733,1.388,1.169,2.293,1.169c0.115,0,0.229-0.011,0.34-0.025c-0.07,0.25-0.116,0.503-0.116,0.768
	c0,0.761,0.294,1.473,0.829,2.007c0.536,0.538,1.249,0.832,2.005,0.832c0.268,0,0.525-0.048,0.777-0.12
	c-0.031,0.258-0.039,0.521,0.002,0.782c0.118,0.752,0.521,1.411,1.136,1.854c0.488,0.354,1.065,0.544,1.666,0.544
	c0.417,0,0.821-0.104,1.191-0.276c0.012,0.261,0.045,0.521,0.127,0.777c0.235,0.721,0.735,1.308,1.412,1.648
	c0.405,0.206,0.838,0.312,1.288,0.312c0.578,0,1.117-0.186,1.577-0.495c0.047,0.256,0.123,0.509,0.243,0.746
	c0.344,0.679,0.933,1.182,1.656,1.412c0.284,0.092,0.578,0.137,0.873,0.137c0.736,0,1.414-0.285,1.925-0.76
	c0.09,0.241,0.202,0.475,0.359,0.691c0.446,0.616,1.104,1.02,1.852,1.134c0.151,0.022,0.301,0.033,0.448,0.033
	c0.901,0,1.704-0.419,2.227-1.087c0.487,0.865,1.403,1.457,2.465,1.457c1.061,0,1.975-0.59,2.463-1.453
	c0.52,0.666,1.324,1.085,2.229,1.085c0.146,0,0.297-0.011,0.444-0.035c0.75-0.117,1.41-0.521,1.855-1.136
	c0.156-0.215,0.266-0.446,0.354-0.688c0.513,0.473,1.192,0.76,1.927,0.76C72.568,94.375,72.865,94.328,73.149,94.236 M77.47,91.391
	c-0.903,0.458-2.05,0.078-2.502-0.813c-0.466-0.913-0.102-2.035,0.81-2.499c0.266-0.138,0.55-0.205,0.846-0.205
	c0.703,0,1.337,0.388,1.658,1.019C78.743,89.801,78.381,90.923,77.47,91.391z M81.731,88.777c-0.804,0.583-2.018,0.387-2.597-0.41
	c-0.603-0.83-0.416-1.995,0.411-2.598c0.321-0.233,0.699-0.355,1.092-0.355c0.598,0,1.156,0.286,1.506,0.765
	C82.744,87.009,82.561,88.174,81.731,88.777z M85.534,85.528c-0.701,0.705-1.927,0.703-2.628,0.002
	c-0.724-0.725-0.724-1.905,0-2.631c0.35-0.352,0.815-0.545,1.312-0.545c0.499,0,0.965,0.195,1.316,0.545
	C86.26,83.625,86.26,84.806,85.534,85.528z M88.783,81.727c-0.578,0.8-1.796,0.992-2.597,0.412c-0.829-0.604-1.017-1.769-0.41-2.599
	c0.345-0.48,0.906-0.767,1.501-0.767c0.395,0,0.772,0.123,1.094,0.355C89.198,79.732,89.383,80.897,88.783,81.727z M91.396,77.462
	c-0.45,0.888-1.604,1.271-2.499,0.813c-0.445-0.227-0.774-0.609-0.927-1.084c-0.153-0.473-0.113-0.976,0.112-1.418
	c0.316-0.625,0.952-1.017,1.655-1.017c0.294,0,0.578,0.07,0.842,0.205C91.494,75.427,91.859,76.549,91.396,77.462z M93.307,72.844
	c-0.307,0.953-1.382,1.502-2.336,1.194c-0.979-0.317-1.515-1.369-1.199-2.346c0.25-0.768,0.959-1.284,1.768-1.284
	c0.194,0,0.388,0.031,0.576,0.095C93.088,70.819,93.625,71.87,93.307,72.844z M94.476,67.98c-0.155,0.99-1.102,1.713-2.123,1.545
	c-0.493-0.079-0.924-0.344-1.217-0.743c-0.29-0.402-0.408-0.893-0.331-1.384c0.14-0.894,0.924-1.564,1.827-1.564
	c0.1,0,0.196,0.007,0.297,0.022c0.492,0.079,0.924,0.343,1.219,0.745C94.437,67.002,94.555,67.492,94.476,67.98z M94.866,62.995
	c0.002,0.496-0.192,0.964-0.542,1.316c-0.35,0.352-0.815,0.545-1.31,0.545H93.01c-1.025,0-1.86-0.833-1.86-1.861
	c0-0.495,0.193-0.961,0.543-1.312c0.351-0.354,0.817-0.546,1.315-0.546C94.034,61.139,94.866,61.971,94.866,62.995z M94.476,58.008
	c0.079,0.491-0.039,0.983-0.328,1.384c-0.292,0.402-0.725,0.666-1.217,0.743c-1.022,0.172-1.971-0.539-2.13-1.545
	c-0.075-0.488,0.039-0.981,0.333-1.381c0.292-0.403,0.724-0.666,1.214-0.744c0.099-0.014,0.196-0.023,0.293-0.023
	C93.546,56.442,94.334,57.115,94.476,58.008z M93.307,53.144c0.155,0.474,0.116,0.979-0.108,1.42s-0.611,0.771-1.083,0.922
	c-0.965,0.317-2.034-0.235-2.344-1.191c-0.156-0.473-0.117-0.975,0.111-1.417c0.227-0.443,0.609-0.77,1.084-0.922
	c0.186-0.061,0.38-0.092,0.574-0.092C92.348,51.864,93.057,52.38,93.307,53.144z M89.736,47.513c0.705,0,1.339,0.388,1.657,1.012
	c0.225,0.441,0.268,0.946,0.114,1.419c-0.155,0.472-0.481,0.856-0.924,1.081c-0.903,0.457-2.05,0.077-2.503-0.81
	c-0.229-0.443-0.268-0.946-0.113-1.42c0.153-0.472,0.482-0.854,0.927-1.08C89.16,47.583,89.444,47.513,89.736,47.513z
	 M87.279,43.498c0.593,0,1.155,0.285,1.502,0.764c0.293,0.4,0.411,0.893,0.334,1.381c-0.078,0.491-0.341,0.922-0.746,1.215
	c-0.803,0.584-2.016,0.39-2.597-0.412c-0.29-0.398-0.41-0.888-0.333-1.377c0.078-0.493,0.342-0.924,0.747-1.216
	C86.505,43.622,86.885,43.498,87.279,43.498z M82.904,40.463c0.354-0.352,0.821-0.546,1.32-0.546c0.494,0,0.96,0.192,1.308,0.542
	c0.352,0.349,0.548,0.815,0.548,1.312c0,0.498-0.192,0.964-0.546,1.316c-0.703,0.705-1.927,0.707-2.633,0.001
	c-0.349-0.349-0.543-0.815-0.543-1.313C82.358,41.278,82.553,40.812,82.904,40.463z M79.135,37.626
	c0.35-0.48,0.914-0.768,1.514-0.768c0.39,0,0.764,0.122,1.08,0.351c0.402,0.292,0.67,0.721,0.746,1.214
	c0.078,0.49-0.041,0.983-0.333,1.386c-0.582,0.799-1.792,0.995-2.6,0.41c-0.4-0.29-0.664-0.719-0.74-1.21
	C78.725,38.517,78.843,38.026,79.135,37.626z M74.97,35.414c0.319-0.628,0.955-1.016,1.66-1.016c0.292,0,0.572,0.067,0.834,0.2
	c0.445,0.225,0.772,0.609,0.926,1.081c0.153,0.472,0.114,0.976-0.11,1.419c-0.454,0.889-1.601,1.274-2.505,0.812
	c-0.44-0.223-0.766-0.605-0.918-1.077C74.7,36.36,74.741,35.855,74.97,35.414z M70.507,33.881c0.251-0.769,0.96-1.288,1.768-1.288
	c0.192,0,0.387,0.031,0.568,0.092c0.474,0.152,0.858,0.48,1.083,0.922c0.226,0.443,0.268,0.948,0.11,1.42
	c-0.306,0.956-1.371,1.512-2.34,1.196c-0.473-0.152-0.856-0.481-1.081-0.924C70.39,34.856,70.352,34.353,70.507,33.881z
	 M65.857,33.065c0.143-0.895,0.93-1.571,1.834-1.571c0.095,0,0.191,0.008,0.291,0.024c0.488,0.076,0.92,0.341,1.212,0.742
	c0.292,0.403,0.412,0.895,0.331,1.386c-0.155,0.991-1.091,1.708-2.124,1.546c-0.492-0.075-0.92-0.338-1.212-0.743
	C65.899,34.046,65.779,33.556,65.857,33.065z M63,31.132c1.026,0,1.859,0.834,1.859,1.86c0,1.024-0.833,1.857-1.859,1.857
	c-1.026,0-1.86-0.833-1.86-1.857C61.14,31.966,61.974,31.132,63,31.132z M58.013,31.524c0.098-0.016,0.198-0.024,0.293-0.024
	c0.919,0,1.692,0.66,1.835,1.567c0.159,1.014-0.534,1.966-1.545,2.128c-1.05,0.169-1.97-0.542-2.13-1.543
	C56.307,32.638,57.002,31.684,58.013,31.524z M52.068,33.615c0.227-0.443,0.611-0.771,1.084-0.924
	c0.188-0.061,0.379-0.092,0.574-0.092c0.809,0,1.518,0.517,1.767,1.286c0.315,0.973-0.218,2.023-1.193,2.34
	c-0.964,0.316-2.031-0.239-2.342-1.192C51.805,34.561,51.843,34.056,52.068,33.615z M48.53,34.604
	c0.266-0.135,0.55-0.202,0.843-0.202c0.707,0,1.34,0.388,1.657,1.014c0.227,0.443,0.265,0.946,0.112,1.419
	c-0.153,0.47-0.48,0.854-0.924,1.079c-0.895,0.458-2.049,0.078-2.499-0.809C47.255,36.19,47.619,35.068,48.53,34.604z
	 M43.524,38.429c0.077-0.49,0.338-0.922,0.745-1.214c0.315-0.233,0.695-0.356,1.088-0.356c0.594,0,1.156,0.287,1.508,0.767
	c0.29,0.4,0.409,0.893,0.329,1.385c-0.076,0.491-0.341,0.92-0.74,1.21c-0.807,0.585-2.015,0.391-2.597-0.41
	C43.564,39.41,43.446,38.918,43.524,38.429z M40.468,40.463c0.346-0.352,0.811-0.544,1.312-0.544c0.494,0,0.963,0.192,1.314,0.542
	c0.352,0.353,0.544,0.819,0.544,1.317c0,0.495-0.192,0.963-0.544,1.313c-0.703,0.703-1.925,0.703-2.628,0.002
	c-0.354-0.352-0.548-0.82-0.548-1.317C39.92,41.28,40.112,40.814,40.468,40.463z M37.216,44.266c0.348-0.48,0.912-0.766,1.507-0.766
	c0.394,0,0.77,0.122,1.091,0.353c0.401,0.292,0.666,0.723,0.742,1.214c0.079,0.491-0.039,0.981-0.329,1.382
	c-0.583,0.801-1.795,0.999-2.596,0.413c-0.404-0.293-0.668-0.724-0.746-1.212C36.806,45.159,36.924,44.669,37.216,44.266z
	 M34.607,48.527c0.314-0.626,0.95-1.014,1.657-1.014c0.292,0,0.576,0.068,0.838,0.202c0.446,0.226,0.775,0.61,0.926,1.082
	c0.155,0.472,0.114,0.977-0.11,1.418c-0.454,0.891-1.605,1.269-2.5,0.814C34.505,50.563,34.139,49.441,34.607,48.527z M32.69,53.148
	c0.249-0.768,0.96-1.284,1.772-1.284c0.191,0,0.384,0.031,0.572,0.092c0.469,0.153,0.856,0.481,1.081,0.92
	c0.225,0.444,0.266,0.948,0.112,1.421c-0.312,0.954-1.379,1.506-2.342,1.195C32.91,55.175,32.373,54.123,32.69,53.148z
	 M31.523,58.01c0.139-0.893,0.927-1.568,1.833-1.568c0.098,0,0.196,0.009,0.294,0.023c0.489,0.08,0.924,0.343,1.214,0.746
	c0.29,0.401,0.409,0.891,0.333,1.381c-0.161,1.006-1.109,1.705-2.127,1.548C32.058,59.976,31.363,59.022,31.523,58.01z
	 M31.13,62.995c-0.002-0.495,0.192-0.959,0.544-1.31c0.351-0.354,0.819-0.548,1.316-0.548c1.024,0,1.858,0.834,1.858,1.86
	c0,1.026-0.834,1.861-1.856,1.864C31.966,64.856,31.13,64.021,31.13,62.995z M31.523,67.98c-0.08-0.486,0.039-0.977,0.329-1.377
	c0.294-0.404,0.723-0.668,1.216-0.747c0.1-0.016,0.196-0.022,0.296-0.022c0.915,0,1.686,0.659,1.831,1.566
	c0.162,1.012-0.533,1.966-1.543,2.127C32.616,69.699,31.682,68.986,31.523,67.98z M32.69,72.842
	c-0.154-0.469-0.115-0.972,0.112-1.416c0.225-0.442,0.609-0.771,1.081-0.923c0.19-0.063,0.384-0.092,0.577-0.092
	c0.807,0,1.518,0.514,1.767,1.283c0.317,0.975-0.219,2.024-1.191,2.344C34.069,74.346,33,73.797,32.69,72.842z M34.601,77.462
	c-0.225-0.439-0.264-0.942-0.111-1.415c0.155-0.474,0.482-0.86,0.926-1.085c0.266-0.135,0.548-0.203,0.844-0.203
	c0.703,0,1.336,0.39,1.655,1.017c0.466,0.911,0.103,2.032-0.807,2.5C36.205,78.73,35.056,78.35,34.601,77.462z M37.216,81.724
	c-0.292-0.399-0.41-0.89-0.331-1.382c0.076-0.489,0.34-0.92,0.746-1.213c0.319-0.232,0.697-0.355,1.09-0.355
	c0.594,0,1.154,0.286,1.504,0.767c0.292,0.404,0.41,0.896,0.331,1.385c-0.076,0.491-0.337,0.92-0.738,1.21
	C39.001,82.724,37.803,82.534,37.216,81.724z M43.098,85.526c-0.709,0.705-1.929,0.707-2.632,0
	c-0.354-0.349-0.546-0.814-0.546-1.313c0-0.496,0.192-0.962,0.548-1.313c0.348-0.352,0.815-0.545,1.312-0.545
	c0.494,0,0.963,0.193,1.314,0.545C43.818,83.623,43.819,84.802,43.098,85.526z M46.867,88.362c-0.587,0.802-1.797,1-2.602,0.413
	c-0.403-0.29-0.664-0.72-0.741-1.212c-0.078-0.49,0.04-0.98,0.333-1.385c0.347-0.479,0.909-0.767,1.504-0.767
	c0.394,0,0.77,0.122,1.091,0.357C47.282,86.37,47.466,87.535,46.867,88.362z M51.032,90.574c-0.454,0.892-1.598,1.272-2.502,0.813
	c-0.441-0.222-0.77-0.606-0.921-1.079c-0.158-0.472-0.115-0.977,0.112-1.421c0.317-0.625,0.952-1.015,1.654-1.015
	c0.296,0,0.578,0.067,0.841,0.205c0.446,0.224,0.775,0.61,0.929,1.083C51.295,89.63,51.257,90.132,51.032,90.574z M55.496,92.107
	c-0.315,0.954-1.376,1.504-2.346,1.196c-0.473-0.15-0.855-0.479-1.082-0.923s-0.263-0.946-0.108-1.421
	c0.247-0.768,0.954-1.286,1.759-1.286c0.197,0,0.391,0.031,0.581,0.092c0.472,0.155,0.858,0.483,1.081,0.927
	C55.608,91.133,55.649,91.636,55.496,92.107z M60.141,92.92c-0.161,1.007-1.081,1.718-2.13,1.549
	c-0.49-0.073-0.917-0.337-1.212-0.739c-0.292-0.404-0.41-0.895-0.329-1.387c0.137-0.894,0.922-1.568,1.826-1.568
	c0.098,0,0.198,0.008,0.298,0.023c0.49,0.079,0.924,0.342,1.218,0.745C60.1,91.943,60.218,92.431,60.141,92.92z M63,94.864
	c-1.026,0-1.86-0.834-1.86-1.86c0-1.023,0.834-1.857,1.86-1.857c1.026,0,1.859,0.834,1.859,1.857
	C64.859,94.03,64.026,94.864,63,94.864z M67.984,94.471c-1.04,0.161-1.968-0.542-2.127-1.545c-0.16-1.013,0.535-1.968,1.545-2.13
	c0.1-0.014,0.198-0.021,0.296-0.021c0.918,0,1.688,0.66,1.831,1.568C69.69,93.355,68.996,94.313,67.984,94.471z M69.742,90.247
	c-0.052,0.102-0.084,0.208-0.122,0.314c-0.613-0.57-1.464-0.872-2.371-0.729c-0.896,0.141-1.614,0.695-2.025,1.43
	C64.702,90.6,63.905,90.165,63,90.165c-0.905,0-1.704,0.435-2.223,1.095c-0.056-0.099-0.107-0.199-0.174-0.292
	c-0.446-0.614-1.106-1.019-1.856-1.136c-0.913-0.152-1.761,0.151-2.37,0.721c-0.04-0.102-0.07-0.206-0.119-0.306
	c-0.346-0.677-0.934-1.177-1.653-1.41c-0.851-0.279-1.75-0.104-2.453,0.366c-0.023-0.115-0.039-0.234-0.076-0.348
	c-0.236-0.721-0.737-1.309-1.412-1.651c-0.4-0.204-0.844-0.311-1.289-0.311c-0.426,0-0.822,0.115-1.19,0.285
	c-0.029-0.844-0.423-1.67-1.157-2.202c-0.709-0.518-1.625-0.621-2.448-0.391c0.113-0.846-0.145-1.733-0.795-2.379
	c-0.619-0.623-1.507-0.873-2.352-0.772c0.034-0.118,0.073-0.233,0.091-0.355c0.119-0.748-0.06-1.5-0.508-2.114
	c-0.509-0.707-1.351-1.093-2.205-1.127c0.365-0.771,0.394-1.692-0.021-2.508c-0.403-0.791-1.142-1.311-1.992-1.474
	c0.474-0.703,0.639-1.601,0.359-2.466c-0.274-0.843-0.944-1.471-1.739-1.765c0.58-0.618,0.887-1.479,0.742-2.379
	c-0.139-0.892-0.685-1.615-1.427-2.027c0.663-0.521,1.094-1.318,1.094-2.223c0-0.902-0.429-1.695-1.084-2.216
	c0.738-0.413,1.278-1.142,1.419-2.035c0.12-0.748-0.059-1.498-0.505-2.112c-0.067-0.089-0.145-0.167-0.221-0.249
	c0.8-0.294,1.447-0.936,1.721-1.786c0.235-0.719,0.174-1.492-0.17-2.166c-0.055-0.107-0.124-0.199-0.188-0.295
	c0.849-0.163,1.588-0.686,1.991-1.477c0.345-0.677,0.407-1.445,0.17-2.167c-0.035-0.108-0.088-0.206-0.135-0.31
	c0.867-0.033,1.682-0.454,2.193-1.159c0.447-0.613,0.625-1.363,0.506-2.111c-0.016-0.115-0.053-0.221-0.085-0.331
	c0.112,0.014,0.225,0.032,0.341,0.032c0.756,0,1.472-0.294,2.007-0.832c0.535-0.535,0.83-1.246,0.83-2.005
	c0-0.116-0.019-0.226-0.033-0.341c0.253,0.072,0.511,0.121,0.777,0.121c0.603,0,1.179-0.188,1.667-0.544
	c0.613-0.443,1.014-1.099,1.135-1.849c0.018-0.119,0.018-0.237,0.022-0.356c0.368,0.172,0.764,0.288,1.19,0.288
	c0.443,0,0.889-0.108,1.289-0.31c0.675-0.343,1.176-0.928,1.41-1.65c0.035-0.108,0.049-0.216,0.072-0.327
	c0.458,0.307,0.999,0.487,1.578,0.487c0.298,0,0.592-0.047,0.881-0.141c0.856-0.278,1.477-0.931,1.769-1.718
	c0.509,0.472,1.182,0.76,1.925,0.76c0.15,0,0.299-0.012,0.45-0.037c0.748-0.118,1.406-0.521,1.852-1.134
	c0.067-0.094,0.118-0.196,0.173-0.294c0.52,0.662,1.321,1.097,2.226,1.097c0.905,0,1.702-0.435,2.224-1.097
	c0.055,0.098,0.104,0.2,0.175,0.292c0.444,0.615,1.103,1.02,1.849,1.134c0.152,0.025,0.3,0.037,0.447,0.037
	c0.745,0,1.421-0.288,1.928-0.76c0.036,0.102,0.07,0.209,0.12,0.309c0.344,0.676,0.932,1.176,1.651,1.409
	c0.284,0.092,0.58,0.141,0.88,0.141c0.579,0,1.121-0.18,1.579-0.487c0.021,0.109,0.034,0.219,0.069,0.325
	c0.234,0.724,0.735,1.311,1.408,1.652c0.401,0.202,0.846,0.31,1.291,0.31c0.424,0,0.822-0.116,1.192-0.288
	c0.003,0.118,0.003,0.235,0.018,0.354c0.121,0.752,0.524,1.41,1.139,1.851c0.488,0.356,1.064,0.544,1.666,0.544
	c0.268,0,0.524-0.049,0.776-0.121c-0.013,0.113-0.033,0.223-0.033,0.34c0,0.76,0.295,1.473,0.832,2.006
	c0.535,0.538,1.249,0.832,2.005,0.832c0.116,0,0.229-0.018,0.344-0.032c-0.033,0.11-0.069,0.218-0.088,0.335
	c-0.119,0.748,0.061,1.498,0.507,2.107c0.513,0.705,1.328,1.126,2.194,1.159c-0.047,0.102-0.102,0.2-0.137,0.31
	c-0.234,0.722-0.174,1.492,0.172,2.169c0.404,0.789,1.143,1.31,1.992,1.473c-0.069,0.099-0.139,0.192-0.193,0.299
	c-0.342,0.676-0.405,1.447-0.168,2.164c0.276,0.85,0.922,1.492,1.726,1.784c-0.078,0.084-0.158,0.16-0.224,0.25
	c-0.447,0.615-0.627,1.367-0.507,2.115c0.144,0.891,0.683,1.62,1.423,2.033c-0.088,0.068-0.178,0.131-0.26,0.211
	c-0.535,0.537-0.828,1.25-0.828,2.007c0,0.905,0.437,1.704,1.1,2.225c-0.741,0.417-1.296,1.146-1.433,2.025
	c-0.118,0.748,0.063,1.498,0.509,2.111c0.067,0.098,0.153,0.18,0.237,0.268c-0.801,0.292-1.47,0.92-1.743,1.765
	c-0.28,0.863-0.11,1.763,0.364,2.464c-0.854,0.163-1.593,0.683-1.993,1.476c-0.346,0.674-0.404,1.444-0.172,2.164
	c0.039,0.121,0.099,0.23,0.15,0.342c-0.855,0.036-1.695,0.422-2.205,1.129c-0.541,0.74-0.655,1.652-0.416,2.47
	c-0.846-0.101-1.735,0.151-2.354,0.772c-0.646,0.648-0.905,1.533-0.795,2.377c-0.821-0.229-1.741-0.123-2.446,0.395
	c-0.736,0.532-1.128,1.358-1.155,2.202c-0.371-0.172-0.768-0.287-1.193-0.287c-0.445,0-0.891,0.108-1.289,0.313
	c-0.804,0.409-1.316,1.154-1.479,1.976c-0.458-0.306-1-0.485-1.581-0.485c-0.299,0-0.595,0.047-0.878,0.141
	C70.674,89.07,70.088,89.57,69.742,90.247z M70.503,92.111c-0.151-0.476-0.113-0.979,0.112-1.419
	c0.225-0.443,0.608-0.771,1.085-0.927c0.186-0.058,0.38-0.09,0.574-0.09c0.808,0,1.517,0.517,1.766,1.287
	c0.155,0.472,0.114,0.973-0.11,1.416s-0.608,0.772-1.083,0.925C71.888,93.619,70.816,93.065,70.503,92.111z"/>
<path fill="#FFFFFF" d="M60.654,49.613l-0.985,3.03c-0.065,0.202,0.006,0.424,0.178,0.549c0.169,0.125,0.402,0.125,0.574,0
	L63,51.318l2.577,1.874c0.086,0.061,0.188,0.092,0.287,0.092c0.102,0,0.204-0.031,0.29-0.092c0.169-0.125,0.243-0.347,0.175-0.549
	l-0.98-3.03l2.575-1.872c0.171-0.125,0.243-0.347,0.178-0.548c-0.065-0.202-0.254-0.339-0.467-0.339h-3.184l-0.985-3.029
	c-0.064-0.202-0.253-0.337-0.466-0.337c-0.212,0-0.4,0.135-0.466,0.337l-0.983,3.029h-3.188c-0.212,0-0.398,0.137-0.466,0.339
	c-0.065,0.201,0.006,0.423,0.178,0.548L60.654,49.613 M61.907,47.835c0.212,0,0.4-0.137,0.466-0.339L63,45.563l0.63,1.933
	c0.065,0.202,0.253,0.339,0.466,0.339h2.033l-1.643,1.196c-0.173,0.124-0.246,0.345-0.183,0.548l0.63,1.933l-1.647-1.196
	C63.2,50.253,63.1,50.222,63,50.222c-0.102,0-0.204,0.031-0.288,0.094l-1.645,1.196l0.63-1.933c0.065-0.203-0.007-0.424-0.181-0.548
	l-1.643-1.196H61.907z"/>
<path fill="#FFFFFF" d="M49.397,49.478h6.552c0.268,0,0.49-0.219,0.49-0.489c0-0.272-0.222-0.49-0.49-0.49h-6.552
	c-0.272,0-0.491,0.218-0.491,0.49C48.906,49.259,49.125,49.478,49.397,49.478"/>
<path fill="#FFFFFF" d="M70.051,49.478h6.556c0.271,0,0.487-0.219,0.487-0.489c0-0.272-0.217-0.49-0.487-0.49h-6.556
	c-0.269,0-0.49,0.218-0.49,0.49C69.561,49.259,69.782,49.478,70.051,49.478"/>
<path fill="#FFFFFF" d="M81.667,60.794c-0.447-1.753-1.824-2.888-3.506-2.888c-0.702,0-1.402,0.19-2.084,0.562l-8.092,4.408
	c0.059-0.445,0.248-0.895,0.556-1.196l4.098-2.244c0.52-0.286,0.866-0.751,0.95-1.274c0.058-0.354-0.014-0.705-0.186-1.026
	l0.861-0.804c0.205-0.19,0.216-0.509,0.024-0.713s-0.508-0.214-0.712-0.024l-0.867,0.808c-0.779-0.459-1.802-0.24-2.345,0.6
	l-2.549,3.978c-0.329,0.328-0.569,0.751-0.715,1.206c-0.197-0.2-0.412-0.383-0.649-0.552c0.055-0.212,0.09-0.428,0.09-0.653
	c0-1.05-0.65-1.97-1.627-2.502l1.938-1.804c0.204-0.19,0.218-0.509,0.026-0.713c-0.187-0.203-0.509-0.214-0.711-0.025l-2.318,2.158
	C63.576,58.039,63.295,58,63,58c-0.294,0-0.576,0.039-0.85,0.096l-2.318-2.158c-0.202-0.188-0.523-0.178-0.711,0.025
	c-0.19,0.204-0.177,0.523,0.025,0.713l1.939,1.804c-0.977,0.532-1.627,1.453-1.627,2.502c0,0.225,0.035,0.442,0.093,0.654
	c-0.238,0.168-0.452,0.35-0.65,0.55c-0.138-0.432-0.364-0.832-0.669-1.154c-0.026-0.047-0.055-0.094-0.093-0.13l-2.504-3.901
	c-0.542-0.836-1.566-1.055-2.343-0.597l-0.868-0.81c-0.202-0.188-0.523-0.177-0.713,0.025c-0.188,0.204-0.178,0.523,0.026,0.714
	l0.863,0.802c-0.172,0.322-0.243,0.673-0.186,1.027c0.083,0.523,0.431,0.989,0.952,1.275l4.094,2.243
	c0.31,0.302,0.498,0.751,0.558,1.196l-8.091-4.408c-0.685-0.372-1.386-0.562-2.085-0.562c-1.684,0-3.061,1.135-3.509,2.888
	c-0.311,1.224-0.102,2.389,0.593,3.281c0.721,0.928,1.86,1.437,3.206,1.437h1.66c-0.012,0.017-0.031,0.028-0.043,0.045
	c-0.509,0.654-0.664,1.507-0.438,2.397c0.326,1.281,1.335,2.109,2.572,2.109c0.508,0,1.019-0.137,1.516-0.407l2.336-1.272
	l-1.633,2.499c-0.153,0.233-0.088,0.544,0.145,0.697c0.086,0.055,0.182,0.081,0.276,0.081c0.165,0,0.325-0.079,0.423-0.226
	l2.659-4.072l0.65-0.354c0.243,0.398,0.544,0.767,0.911,1.085c-0.492,0.693-0.885,1.58-1.148,2.596
	c-0.922,0.168-1.825,0.885-2.203,1.78l-2.723,3.86c-0.343,0.484-0.45,1.053-0.296,1.56c0.104,0.346,0.323,0.631,0.617,0.844
	l-0.419,1.1c-0.1,0.26,0.031,0.552,0.291,0.65c0.061,0.022,0.12,0.035,0.181,0.035c0.203,0,0.393-0.124,0.47-0.325l0.428-1.116
	c0.055,0.006,0.114,0.032,0.171,0.032c0.871,0,1.556-0.655,1.664-1.591l0.537-4.64c0.184-0.454,0.601-0.845,1.057-1.055
	c-0.086,0.578-0.135,1.181-0.135,1.811c0,3.313,1.692,6.099,3.977,6.91l0.924,1.7c0.088,0.161,0.257,0.262,0.443,0.262
	c0.184,0,0.354-0.101,0.442-0.262l0.924-1.698c1.334-0.475,2.462-1.619,3.171-3.152c0.022-0.036,0.039-0.073,0.051-0.114
	c0.409-0.921,0.671-1.976,0.735-3.104c0-0.011,0.005-0.019,0.005-0.029c0-0.008-0.003-0.014-0.003-0.021
	c0.007-0.163,0.018-0.327,0.018-0.492c0-0.63-0.05-1.232-0.136-1.809c0.454,0.208,0.871,0.599,1.057,1.053l0.536,4.64
	c0.11,0.938,0.797,1.591,1.665,1.591c0.059,0,0.115-0.026,0.172-0.032l0.429,1.116c0.076,0.201,0.267,0.325,0.469,0.325
	c0.062,0,0.121-0.013,0.182-0.035c0.26-0.099,0.392-0.391,0.29-0.65l-0.419-1.102c0.293-0.211,0.511-0.496,0.617-0.839
	c0.154-0.508,0.047-1.076-0.295-1.563l-2.726-3.864c-0.38-0.892-1.28-1.608-2.202-1.776c-0.263-1.016-0.655-1.902-1.147-2.596
	c0.368-0.316,0.666-0.687,0.909-1.085l0.651,0.354l2.66,4.072c0.097,0.146,0.258,0.226,0.421,0.226c0.096,0,0.192-0.026,0.275-0.081
	c0.234-0.153,0.299-0.464,0.148-0.697l-1.636-2.499l2.338,1.272c0.496,0.271,1.007,0.407,1.516,0.407
	c1.236,0,2.246-0.828,2.57-2.109c0.227-0.891,0.071-1.743-0.438-2.397c-0.012-0.017-0.029-0.028-0.043-0.045h1.661
	c1.347,0,2.486-0.509,3.205-1.437C81.77,63.183,81.981,62.018,81.667,60.794 M54.219,78.04c-0.238-0.09-0.399-0.247-0.458-0.441
	c-0.066-0.211-0.011-0.453,0.155-0.685l1.6-2.27l-0.318,2.758C55.134,77.956,54.711,78.229,54.219,78.04z M70.803,77.402
	l-0.317-2.76l1.602,2.271c0.163,0.231,0.216,0.474,0.156,0.685c-0.063,0.194-0.225,0.352-0.458,0.441
	C71.296,78.229,70.869,77.956,70.803,77.402z M77.87,64.504h-8.722l8.067-2.055c0.27-0.069,0.433-0.343,0.364-0.613
	c-0.067-0.27-0.333-0.433-0.613-0.363l-8.069,2.054l7.658-4.174c0.536-0.29,1.075-0.438,1.605-0.438
	c1.226,0,2.195,0.816,2.532,2.128c0.232,0.916,0.086,1.772-0.413,2.413C79.755,64.133,78.899,64.504,77.87,64.504z M75.456,66.174
	c0.313,0.405,0.406,0.948,0.256,1.531c-0.304,1.197-1.49,1.684-2.626,1.066l-4.191-2.285l4.363,1.112
	c0.043,0.01,0.083,0.017,0.124,0.017c0.227,0,0.433-0.153,0.489-0.381c0.068-0.27-0.094-0.543-0.364-0.612l-4.356-1.11h4.768
	C74.578,65.512,75.125,65.747,75.456,66.174z M60.219,74.651h7.044c-0.084,0.713-0.26,1.376-0.501,1.982h-5.551
	c-0.278,0-0.505,0.227-0.505,0.505s0.227,0.506,0.505,0.506h5.052c-0.795,1.299-1.954,2.141-3.26,2.141
	c-2.393,0-4.339-2.759-4.339-6.149c0-2.009,0.532-3.821,1.329-4.951c0.858,0.487,1.893,0.775,3.008,0.775
	c1.115,0,2.149-0.288,3.004-0.775c0.372,0.524,0.687,1.194,0.914,1.97h-6.266c-0.278,0-0.503,0.225-0.503,0.504
	s0.225,0.503,0.503,0.503h6.504c0.114,0.624,0.179,1.288,0.179,1.975c0,0.002-0.002,0.007-0.002,0.009h-7.116
	c-0.278,0-0.505,0.227-0.505,0.504C59.714,74.427,59.941,74.651,60.219,74.651z M63.002,68.451c-1.698,0-3.157-0.787-3.868-1.92
	l1.933-1.052c0.196-0.069,0.335-0.251,0.335-0.471c0-0.043-0.027-0.072-0.036-0.111c0-0.004,0-0.009,0-0.013
	c-0.003-0.011-0.011-0.017-0.013-0.024c-0.028-0.088-0.071-0.158-0.139-0.216c-0.008-0.01-0.014-0.02-0.024-0.027
	c-0.003-0.003-0.003-0.005-0.007-0.009c-0.006-0.003-0.016-0.005-0.022-0.012c-0.022-0.015-0.047-0.027-0.072-0.039
	c-0.016-0.006-0.026-0.026-0.047-0.033l-1.91-1.042c0.711-1.134,2.17-1.92,3.87-1.92c1.699,0,3.158,0.786,3.869,1.92l-1.986,1.083
	c-0.003,0.002-0.003,0.004-0.007,0.006c-0.009,0.007-0.02,0.015-0.032,0.022c-0.009,0.008-0.02,0.01-0.028,0.015
	c-0.002,0.004-0.004,0.006-0.007,0.009c-0.014,0.012-0.022,0.029-0.035,0.042c-0.024,0.022-0.047,0.043-0.064,0.07
	c-0.013,0.02-0.021,0.041-0.033,0.061c-0.008,0.015-0.012,0.029-0.018,0.043c-0.004,0.02-0.02,0.033-0.023,0.052
	c-0.002,0.009,0,0.016-0.002,0.024c-0.006,0.032-0.004,0.065-0.006,0.1c0.002,0.033,0,0.067,0.006,0.101
	c0.002,0.008,0,0.017,0.002,0.022c0.002,0.011,0.014,0.017,0.018,0.026c0.002,0.006,0.004,0.013,0.006,0.021
	c0.006,0.017,0.01,0.03,0.018,0.048c0.033,0.064,0.076,0.125,0.133,0.172c0.003,0.003,0.005,0.005,0.007,0.009h0.003
	c0.013,0.013,0.031,0.017,0.047,0.025c0.007,0.005,0.009,0.014,0.018,0.018l1.984,1.081C66.158,67.664,64.701,68.451,63.002,68.451z
	 M52.916,68.771c-1.148,0.624-2.319,0.144-2.628-1.066c-0.147-0.583-0.057-1.126,0.256-1.531c0.333-0.427,0.879-0.662,1.539-0.662
	h4.77l-4.358,1.11c-0.269,0.069-0.433,0.343-0.363,0.612c0.057,0.228,0.261,0.381,0.488,0.381c0.039,0,0.082-0.007,0.123-0.017
	l4.365-1.112L52.916,68.771z M45.31,61.043c0.335-1.312,1.306-2.128,2.532-2.128c0.529,0,1.069,0.148,1.602,0.438l7.66,4.174
	l-8.068-2.054c-0.278-0.068-0.546,0.094-0.614,0.363c-0.069,0.27,0.094,0.544,0.364,0.613l8.069,2.055h-8.723
	c-1.028,0-1.884-0.371-2.411-1.048C45.224,62.815,45.077,61.959,45.31,61.043z M60.466,60.982c0-1.089,1.136-1.974,2.534-1.974
	c1.398,0,2.535,0.885,2.535,1.974c0,0.041-0.013,0.081-0.018,0.121c-0.752-0.339-1.602-0.549-2.516-0.549
	c-0.915,0-1.765,0.21-2.52,0.55C60.478,61.063,60.466,61.023,60.466,60.982z M71.846,57.144c0.188,0,0.371,0.09,0.529,0.261
	c0.173,0.184,0.249,0.397,0.219,0.597c-0.035,0.218-0.191,0.413-0.438,0.55l-2.443,1.337l1.504-2.341
	C71.379,57.291,71.611,57.144,71.846,57.144z M53.409,58.002c-0.033-0.199,0.045-0.411,0.219-0.597c0-0.001,0-0.001,0.002-0.002
	c0.157-0.169,0.339-0.259,0.527-0.259c0.235,0,0.464,0.147,0.629,0.402l1.503,2.343l-2.439-1.337
	C53.601,58.415,53.444,58.22,53.409,58.002z"/>
<path fill="#FFFFFF" d="M63,12.092c28.072,0,50.912,22.839,50.912,50.911c0,28.073-22.84,50.911-50.912,50.911
	c-28.074,0-50.912-22.838-50.912-50.911C12.088,34.931,34.926,12.092,63,12.092 M63,11.113c-28.613,0-51.892,23.278-51.892,51.89
	c0,28.613,23.279,51.892,51.892,51.892c28.613,0,51.892-23.278,51.892-51.892C114.892,34.391,91.613,11.113,63,11.113z"/>
<path fill="#FFFFFF" d="M20.931,59.575c-0.505,0.004-0.911,0.416-0.907,0.921s0.416,0.912,0.921,0.908
	c0.505-0.003,0.911-0.417,0.907-0.922C21.848,59.977,21.436,59.571,20.931,59.575"/>
<path fill="#FFFFFF" d="M105.055,59.575c-0.505,0.004-0.91,0.416-0.906,0.921c0.003,0.505,0.415,0.912,0.921,0.908
	c0.505-0.003,0.911-0.417,0.907-0.922C105.973,59.977,105.561,59.571,105.055,59.575"/>
<path fill="#FFFFFF" d="M36.349,36.692c-0.161-0.175-0.322-0.349-0.482-0.524c0.182-0.318,0.433-0.66,0.708-0.958
	c-1.64-1.782-3.281-3.564-4.921-5.346c-0.311,0.258-0.654,0.502-0.963,0.682c-0.16-0.175-0.321-0.35-0.482-0.524
	c0.835-0.846,1.711-1.652,2.623-2.414c0.161,0.174,0.321,0.349,0.482,0.524c-0.205,0.293-0.476,0.615-0.759,0.902
	c1.64,1.783,3.28,3.564,4.921,5.346c0.319-0.248,0.681-0.471,1.013-0.626c0.161,0.175,0.321,0.349,0.483,0.524
	C38.06,35.04,37.184,35.846,36.349,36.692"/>
<path fill="#FFFFFF" d="M30.034,39.144c0.53,0.161,1.214,0.387,1.865,0.638c0.003-0.004,0.006-0.008,0.008-0.011
	c-0.42-0.516-0.783-1.038-1.207-1.675c-0.938-1.428-1.865-2.848-2.782-4.259c-0.257,0.26-0.55,0.511-0.817,0.715
	c-0.191-0.142-0.38-0.284-0.57-0.427c0.657-0.818,1.349-1.609,2.075-2.37c0.194,0.145,0.387,0.289,0.581,0.434
	c-0.095,0.197-0.281,0.492-0.433,0.68c1.512,2.374,3.056,4.775,4.631,7.199c-0.283,0.365-0.559,0.736-0.829,1.112
	c-2.754-0.844-5.479-1.664-8.171-2.464c-0.143,0.21-0.368,0.46-0.536,0.619c-0.193-0.144-0.387-0.289-0.581-0.434
	c0.54-0.939,1.12-1.853,1.738-2.74c0.19,0.142,0.381,0.284,0.571,0.426c-0.113,0.303-0.279,0.665-0.456,0.985
	C26.748,38.089,28.386,38.613,30.034,39.144"/>
<path fill="#FFFFFF" d="M28.642,48.068c-0.213-0.105-0.426-0.209-0.639-0.314c0.056-0.363,0.166-0.773,0.315-1.149
	c-2.173-1.071-4.345-2.141-6.518-3.211c-0.196,0.352-0.428,0.703-0.652,0.982c-0.213-0.104-0.425-0.209-0.638-0.314
	c0.474-1.091,0.999-2.157,1.575-3.198c0.213,0.105,0.426,0.21,0.639,0.315c-0.085,0.347-0.222,0.745-0.382,1.116
	c2.172,1.07,4.345,2.14,6.517,3.21c0.208-0.346,0.466-0.684,0.72-0.949c0.212,0.105,0.425,0.21,0.638,0.315
	C29.641,45.911,29.116,46.978,28.642,48.068"/>
<path fill="#FFFFFF" d="M54.328,18.285c0.735,2.616,1.47,5.232,2.205,7.848c-0.532,0.093-1.06,0.197-1.586,0.313
	c-1.65-1.55-3.287-3.046-4.908-4.49c-0.563-0.51-1.052-1.009-1.479-1.484c0.51,1.469,1.155,3.813,1.856,6.309
	c0.352-0.095,0.744-0.14,1.074-0.16c0.065,0.233,0.131,0.466,0.195,0.699c-1.094,0.347-2.173,0.745-3.233,1.192
	c-0.064-0.228-0.128-0.457-0.193-0.685c0.298-0.227,0.663-0.462,1.032-0.633c-0.653-2.327-1.307-4.655-1.961-6.982
	c-0.384,0.119-0.79,0.212-1.137,0.258c-0.065-0.229-0.129-0.457-0.193-0.686c0.861-0.363,1.735-0.694,2.62-0.991
	c1.598,1.415,3.213,2.882,4.841,4.401c0.551,0.518,1.03,1.031,1.547,1.581c-0.503-1.443-1.156-3.77-1.857-6.265
	c-0.364,0.048-0.74,0.05-1.076,0.048c-0.065-0.233-0.131-0.466-0.196-0.699c1.03-0.245,2.071-0.446,3.119-0.602
	c0.066,0.233,0.131,0.465,0.197,0.698C54.936,18.074,54.636,18.19,54.328,18.285"/>
<path fill="#FFFFFF" d="M58.167,25.89c-0.012-0.237-0.024-0.474-0.036-0.711c0.342-0.14,0.754-0.255,1.155-0.321
	c-0.123-2.419-0.246-4.838-0.369-7.257c-0.403,0.013-0.822-0.005-1.173-0.054c-0.013-0.237-0.024-0.474-0.036-0.711
	c1.94-0.254,3.898-0.354,5.855-0.3c0.035,0.698,0.07,1.395,0.105,2.093c-0.287-0.008-0.574-0.012-0.861-0.014
	c-0.103-0.416-0.19-0.818-0.233-1.127c-0.812,0.001-1.624,0.027-2.434,0.08c0.05,0.993,0.101,1.986,0.151,2.978
	c0.644-0.042,1.291-0.068,1.936-0.076c0.037-0.336,0.076-0.646,0.142-0.928c0.251-0.002,0.502-0.002,0.753,0.001
	c0.047,0.916,0.093,1.833,0.14,2.749c-0.251-0.003-0.501-0.003-0.753-0.001c-0.095-0.281-0.179-0.615-0.236-0.923
	c-0.646,0.008-1.292,0.034-1.937,0.076c0.055,1.073,0.109,2.146,0.164,3.219c0.814-0.053,1.631-0.08,2.447-0.08
	c0.023-0.348,0.07-0.751,0.131-1.152c0.287,0.001,0.574,0.006,0.861,0.014c0.036,0.716,0.071,1.431,0.108,2.146
	C62.084,25.536,60.117,25.635,58.167,25.89"/>
<path fill="#FFFFFF" d="M68.57,26.04c-0.532-0.082-1.42-0.239-2.291-0.314c-0.391-0.034-0.779-0.062-1.168-0.084
	c0.035-0.235,0.069-0.469,0.104-0.704c0.363-0.073,0.791-0.111,1.196-0.102c0.362-2.395,0.724-4.79,1.085-7.184
	c-0.398-0.062-0.804-0.157-1.14-0.27c0.035-0.234,0.07-0.469,0.105-0.704c0.382,0.021,0.762,0.049,1.144,0.082
	c0.642,0.055,1.612,0.118,2.688,0.292c1.951,0.323,2.766,1.401,2.565,2.733c-0.144,0.945-0.91,1.617-1.906,1.735
	c-0.002,0.009-0.003,0.018-0.004,0.026c1.208,0.462,1.616,1.531,1.476,2.457C72.26,25.103,71.374,26.496,68.57,26.04 M69.935,18
	c-0.426-0.065-0.854-0.11-1.23-0.142c-0.146,0.965-0.292,1.931-0.438,2.896c0.251,0.044,0.519,0.079,0.824,0.122
	c1.479,0.217,2.328-0.187,2.479-1.175C71.688,18.91,71.369,18.231,69.935,18z M68.966,21.794c-0.146-0.022-0.626-0.086-0.842-0.098
	c-0.157,1.045-0.315,2.09-0.472,3.135c0.233,0.068,0.616,0.144,1.135,0.223c1.463,0.229,2.211-0.316,2.361-1.304
	C71.321,22.597,70.353,21.994,68.966,21.794z"/>
<path fill="#FFFFFF" d="M77.596,28.55c-0.336-1.614-0.684-3.199-1.042-4.755c-0.071-0.025-0.144-0.049-0.216-0.073
	c-0.369,0.99-0.738,1.98-1.107,2.969c0.31,0.132,0.629,0.316,0.892,0.498c-0.085,0.227-0.169,0.453-0.254,0.68
	c-1.065-0.39-2.148-0.732-3.247-1.023c0.083-0.222,0.166-0.445,0.249-0.667c0.371,0.001,0.797,0.051,1.191,0.142
	c0.848-2.269,1.693-4.539,2.539-6.808c-0.376-0.141-0.755-0.317-1.061-0.494c0.083-0.223,0.166-0.445,0.249-0.667
	c0.339,0.089,0.676,0.184,1.012,0.283c0.335,0.099,1.257,0.322,2.292,0.703c1.681,0.618,2.624,1.776,2.021,3.395
	c-0.513,1.374-1.835,1.732-3.275,1.356c0.099,0.311,0.201,0.653,0.265,0.983c0.238,0.991,0.472,1.996,0.7,3.012
	c0.268,0.166,0.578,0.371,0.877,0.606c-0.086,0.23-0.172,0.461-0.258,0.692C78.82,29.088,78.212,28.811,77.596,28.55 M78.538,20.208
	c-0.304-0.109-0.55-0.18-0.797-0.249c-0.359,0.965-0.72,1.93-1.079,2.895c0.136,0.059,0.385,0.158,0.728,0.281
	c1.228,0.443,2.146,0.135,2.485-0.774C80.254,21.345,79.765,20.654,78.538,20.208z"/>
<path fill="#FFFFFF" d="M98.885,52.41c0.225-0.075,0.45-0.151,0.675-0.226c0.168,0.284,0.339,0.639,0.453,0.969
	c0.413-0.323,0.826-0.645,1.237-0.968c-0.343-1.222-0.748-2.426-1.214-3.607c-0.523-0.009-1.047-0.018-1.572-0.027
	c0.107,0.332,0.187,0.717,0.226,1.045c-0.226,0.075-0.451,0.15-0.676,0.226c-0.371-0.982-0.783-1.949-1.237-2.898
	c0.229-0.077,0.458-0.153,0.688-0.23c0.156,0.201,0.374,0.481,0.486,0.698c3.003,0.05,5.969,0.116,8.896,0.195
	c0.162,0.456,0.316,0.915,0.461,1.377c-2.286,1.831-4.613,3.674-6.979,5.527c0.041,0.241,0.035,0.596,0.032,0.851
	c-0.229,0.076-0.458,0.153-0.688,0.23C99.456,54.506,99.193,53.451,98.885,52.41 M104.74,49.442
	c0.378-0.311,0.748-0.563,1.159-0.815c-0.003-0.008-0.006-0.016-0.009-0.025c-0.454,0.039-0.943,0.061-1.435,0.04
	c-1.119-0.027-2.243-0.052-3.374-0.075c0.379,0.983,0.715,1.983,1.009,2.996C102.979,50.854,103.862,50.147,104.74,49.442z"/>
<path fill="#FFFFFF" d="M94.92,43.488c0.203-0.13,0.407-0.26,0.61-0.39c0.198,0.193,0.395,0.419,0.56,0.648
	c0.481-1.61,0.921-3.196,1.32-4.754c-1.026,0.656-2.053,1.311-3.079,1.967c0.157,0.267,0.321,0.625,0.424,0.926
	c-0.203,0.13-0.407,0.26-0.611,0.39c-0.629-0.944-1.302-1.86-2.017-2.744c0.2-0.127,0.4-0.255,0.601-0.383
	c0.299,0.221,0.614,0.514,0.881,0.822c2.041-1.303,4.082-2.607,6.123-3.91c-0.221-0.337-0.423-0.702-0.563-1.025
	c0.2-0.128,0.399-0.255,0.6-0.383c0.715,0.884,1.388,1.8,2.017,2.744c-0.203,0.13-0.407,0.26-0.611,0.39
	c-0.238-0.214-0.516-0.499-0.718-0.738c-0.97,0.62-1.939,1.239-2.909,1.858c1.598,0.261,3.156,0.549,4.675,0.862
	c-0.126-0.27-0.262-0.6-0.342-0.883c0.203-0.13,0.407-0.26,0.611-0.39c0.591,0.958,1.14,1.943,1.643,2.951
	c-0.204,0.13-0.408,0.261-0.611,0.391c-0.184-0.218-0.399-0.493-0.567-0.752c-1.499-0.36-3.041-0.695-4.626-1.002
	c-0.428,1.673-0.902,3.376-1.426,5.106c0.122,0.289,0.222,0.637,0.29,0.927c-0.203,0.13-0.407,0.261-0.61,0.391
	C96.074,45.474,95.52,44.467,94.92,43.488"/>
<path fill="#FFFFFF" d="M84.875,32.65c0.131-0.197,0.263-0.394,0.395-0.592c0.309,0.122,0.658,0.298,0.951,0.489
	c0.129-0.509,0.258-1.016,0.387-1.522c-1.02-0.757-2.076-1.461-3.168-2.11c-0.42,0.312-0.84,0.626-1.26,0.941
	c0.288,0.196,0.586,0.452,0.818,0.688c-0.132,0.197-0.264,0.395-0.396,0.593c-0.894-0.55-1.813-1.062-2.753-1.535
	c0.136-0.201,0.27-0.402,0.403-0.603c0.248,0.064,0.591,0.152,0.813,0.255c2.404-1.799,4.79-3.563,7.152-5.292
	c0.409,0.261,0.812,0.53,1.208,0.807c-0.687,2.848-1.398,5.729-2.136,8.643c0.179,0.165,0.393,0.449,0.546,0.653
	c-0.134,0.201-0.268,0.402-0.403,0.603C86.61,33.958,85.756,33.284,84.875,32.65 M87.688,26.719
	c0.108-0.478,0.247-0.903,0.418-1.354c-0.008-0.005-0.015-0.01-0.022-0.015c-0.335,0.309-0.708,0.626-1.109,0.91
	c-0.901,0.664-1.807,1.332-2.715,2.005c0.902,0.547,1.78,1.132,2.631,1.753C87.161,28.913,87.426,27.813,87.688,26.719z"/>
<path fill="#FFFFFF" d="M21.527,47.919c-0.452-0.04-0.85-0.12-1.208-0.187c-0.253,0.415-0.418,0.813-0.548,1.237
	c-0.575,1.877,0.643,3.177,2.571,3.767c2.107,0.645,3.629,0.127,4.274-1.98c0.208-0.68,0.268-1.52,0.168-2.154l1.103,0.254
	c0.045,0.771-0.027,1.649-0.295,2.522c-0.815,2.66-2.795,3.529-5.455,2.714c-2.686-0.822-4.249-2.734-3.34-5.702
	c0.204-0.668,0.523-1.343,0.877-1.951l2.108,0.645L21.527,47.919"/>
<path fill="#FFFFFF" d="M40.498,25.042c-0.324-0.317-0.581-0.63-0.816-0.91c-0.459,0.161-0.839,0.366-1.208,0.611
	c-1.633,1.09-1.513,2.868-0.394,4.547c1.224,1.833,2.729,2.396,4.564,1.173c0.592-0.395,1.171-1.006,1.496-1.562l0.693,0.895
	c-0.455,0.626-1.066,1.26-1.828,1.767c-2.315,1.544-4.399,0.963-5.943-1.353c-1.56-2.337-1.56-4.809,1.025-6.533
	c0.581-0.387,1.256-0.708,1.915-0.954l1.225,1.834L40.498,25.042"/>
<path fill="#FFFFFF" d="M89.334,36.648c-0.485-0.502-0.895-1.041-1.182-1.549l1.544-1.498l0.618,0.638
	c-0.264,0.367-0.517,0.685-0.738,0.958c0.147,0.249,0.354,0.538,0.567,0.76c0.768,0.791,1.714,1.128,2.515,0.353
	c1.466-1.423-2.014-3.815,0.08-5.846c1.071-1.038,2.667-0.937,4.079,0.52c0.439,0.454,0.757,0.876,1.091,1.376l-1.495,1.451
	l-0.618-0.637c0.254-0.358,0.506-0.677,0.729-0.93c-0.103-0.163-0.299-0.405-0.477-0.588c-0.86-0.887-1.706-0.948-2.314-0.359
	c-1.408,1.366,1.995,3.833-0.052,5.817C92.514,38.246,90.784,38.144,89.334,36.648"/>
<path fill="#FFFFFF" d="M19.457,71.45c0.194-0.031,0.388-0.063,0.582-0.093c0.057,0.138,0.131,0.325,0.18,0.487
	c0.587-0.189,1.174-0.379,1.761-0.568c0.424-0.143,0.745-0.245,0.986-0.306c-0.001-0.005-0.002-0.01-0.003-0.015
	c-0.345-0.018-0.704-0.035-1.108-0.096c-0.861-0.128-1.719-0.256-2.576-0.386c-0.052-0.31-0.102-0.621-0.148-0.934
	c0.714-0.365,1.43-0.73,2.147-1.096c0.378-0.201,0.802-0.388,1.204-0.518c0-0.005,0-0.01-0.002-0.014
	c-0.37,0.029-0.721,0.026-1.065,0.037c-0.603,0.016-1.207,0.03-1.81,0.046c0.005,0.169-0.008,0.37-0.019,0.521
	c-0.193,0.029-0.388,0.061-0.582,0.092c-0.076-0.609-0.138-1.222-0.188-1.834c0.197-0.031,0.394-0.063,0.59-0.095
	c0.036,0.104,0.078,0.245,0.095,0.368c1.195,0.007,2.391,0.015,3.587,0.022c-0.008-0.219,0.006-0.45,0.026-0.646
	c0.194-0.03,0.388-0.062,0.582-0.093c0.055,0.62,0.123,1.238,0.205,1.854c-0.795,0.404-1.587,0.81-2.377,1.213
	c-0.328,0.172-0.645,0.311-0.979,0.431c0.001,0.005,0.001,0.01,0.002,0.014c0.386,0.013,0.671,0.048,1.05,0.105
	c0.883,0.144,1.768,0.287,2.656,0.431c0.113,0.606,0.24,1.21,0.38,1.812c-0.193,0.031-0.387,0.062-0.582,0.093
	c-0.079-0.179-0.165-0.393-0.225-0.604c-1.135,0.383-2.267,0.766-3.399,1.147c0.022,0.122,0.026,0.269,0.024,0.379
	c-0.197,0.032-0.393,0.063-0.59,0.095C19.712,72.688,19.578,72.07,19.457,71.45"/>
<path fill="#FFFFFF" d="M22.915,82.068c-0.219-0.46-0.447-1.045-0.54-1.261c-0.084-0.192-0.167-0.388-0.248-0.583
	c0.177-0.085,0.354-0.171,0.531-0.257c0.105,0.159,0.225,0.353,0.327,0.545c1.068-0.517,2.135-1.033,3.203-1.551
	c-0.074-0.207-0.13-0.43-0.169-0.621c0.177-0.086,0.353-0.172,0.53-0.257c0.079,0.189,0.159,0.376,0.24,0.563
	c0.154,0.354,0.43,0.899,0.695,1.451c0.661,1.371,0.535,2.5-1.02,3.254C24.947,84.086,23.603,83.516,22.915,82.068 M26.742,80.385
	c-0.094-0.196-0.188-0.378-0.265-0.512c-0.993,0.482-1.987,0.963-2.981,1.444c0.036,0.129,0.106,0.313,0.184,0.477
	c0.401,0.842,1.189,1.206,2.237,0.698C26.869,82.031,27.229,81.396,26.742,80.385z"/>
<path fill="#FFFFFF" d="M24.801,85.55c0.166-0.105,0.331-0.212,0.496-0.317c0.126,0.143,0.273,0.318,0.399,0.497
	c0.999-0.642,1.997-1.282,2.996-1.923c-0.101-0.193-0.187-0.407-0.251-0.592c0.165-0.105,0.33-0.212,0.496-0.317
	c0.565,0.964,1.169,1.904,1.808,2.819c-0.347,0.225-0.694,0.446-1.042,0.669c-0.134-0.193-0.267-0.387-0.399-0.582
	c0.137-0.123,0.267-0.24,0.376-0.327c-0.184-0.275-0.365-0.552-0.543-0.829c-0.367,0.235-0.734,0.471-1.102,0.708
	c0.142,0.222,0.287,0.443,0.433,0.664c0.128-0.057,0.261-0.107,0.385-0.144c0.113,0.167,0.226,0.334,0.34,0.5
	c-0.415,0.268-0.829,0.532-1.244,0.798c-0.114-0.166-0.227-0.333-0.339-0.501c0.079-0.102,0.19-0.199,0.288-0.288
	c-0.146-0.221-0.291-0.442-0.433-0.665c-0.398,0.255-0.796,0.512-1.195,0.767c0.179,0.281,0.361,0.559,0.547,0.835
	c0.148-0.079,0.306-0.145,0.485-0.216c0.132,0.194,0.266,0.389,0.401,0.583c-0.361,0.23-0.723,0.463-1.084,0.694
	C25.975,87.463,25.369,86.519,24.801,85.55"/>
<path fill="#FFFFFF" d="M29.285,91.831c0.263-0.735,0.529-1.472,0.801-2.214c-0.028-0.034-0.055-0.068-0.082-0.103
	c-0.349,0.286-0.698,0.572-1.047,0.86c0.075,0.117,0.159,0.255,0.219,0.396c-0.154,0.127-0.308,0.253-0.462,0.379
	c-0.428-0.522-0.843-1.056-1.246-1.598c0.152-0.125,0.304-0.25,0.456-0.374c0.14,0.129,0.304,0.287,0.449,0.45
	c0.916-0.753,1.833-1.506,2.75-2.259c-0.122-0.182-0.23-0.386-0.314-0.563c0.152-0.125,0.304-0.25,0.455-0.374
	c0.113,0.152,0.227,0.305,0.343,0.454c0.114,0.152,0.554,0.676,0.939,1.143c0.69,0.839,0.871,1.595,0.093,2.232
	c-0.528,0.435-1.229,0.407-1.789-0.028c-0.034,0.141-0.072,0.286-0.116,0.415c-0.141,0.442-0.281,0.885-0.418,1.324
	c0.074,0.117,0.169,0.267,0.259,0.408c-0.155,0.128-0.311,0.256-0.466,0.384C29.829,92.458,29.555,92.146,29.285,91.831
	 M31.886,88.439c-0.083-0.103-0.176-0.204-0.246-0.27c-0.365,0.3-0.731,0.602-1.097,0.901c0.035,0.056,0.108,0.157,0.2,0.269
	c0.364,0.447,0.813,0.521,1.167,0.23C32.276,89.27,32.269,88.907,31.886,88.439z"/>
<path fill="#FFFFFF" d="M37.407,93.918c-0.957,1.036-1.913,2.071-2.869,3.107c-0.312-0.26-0.619-0.524-0.923-0.791
	c0.189-0.944,0.385-1.894,0.586-2.85c0.089-0.417,0.215-0.801,0.333-1.133c-0.467,0.581-1.178,1.341-1.909,2.133
	c0.11,0.126,0.227,0.279,0.32,0.427c-0.136,0.146-0.27,0.293-0.406,0.438c-0.502-0.475-0.993-0.964-1.472-1.464
	c0.133-0.145,0.267-0.289,0.4-0.432c0.155,0.108,0.343,0.239,0.505,0.384c0.804-0.87,1.608-1.74,2.411-2.61
	c-0.143-0.165-0.276-0.354-0.382-0.518c0.133-0.146,0.266-0.289,0.4-0.434c0.428,0.447,0.866,0.887,1.314,1.313
	c-0.205,0.95-0.404,1.892-0.598,2.828c-0.078,0.406-0.177,0.728-0.291,1.12c0.455-0.578,1.152-1.323,1.883-2.114
	c-0.123-0.125-0.228-0.257-0.313-0.392c0.135-0.146,0.27-0.293,0.405-0.439c0.466,0.416,0.941,0.822,1.425,1.216
	c-0.135,0.146-0.27,0.292-0.405,0.439C37.689,94.085,37.546,94.005,37.407,93.918"/>
<path fill="#FFFFFF" d="M47.284,104.479c-0.123-0.77-0.244-1.544-0.362-2.325c-0.041-0.017-0.081-0.034-0.122-0.051
	c-0.167,0.419-0.335,0.838-0.503,1.257c0.122,0.067,0.262,0.148,0.381,0.242c-0.074,0.185-0.148,0.369-0.222,0.554
	c-0.626-0.252-1.246-0.519-1.859-0.8c0.072-0.183,0.146-0.365,0.219-0.547c0.185,0.045,0.404,0.104,0.61,0.179
	c0.442-1.102,0.883-2.203,1.325-3.303c-0.195-0.103-0.387-0.229-0.546-0.343c0.074-0.183,0.147-0.364,0.22-0.547
	c0.172,0.079,0.344,0.156,0.518,0.233c0.173,0.077,0.811,0.325,1.372,0.549c1.008,0.403,1.531,0.979,1.156,1.913
	c-0.254,0.635-0.882,0.948-1.582,0.836c0.038,0.14,0.073,0.285,0.098,0.42c0.089,0.456,0.179,0.91,0.269,1.362
	c0.123,0.067,0.277,0.151,0.425,0.233c-0.075,0.188-0.15,0.374-0.225,0.561C48.063,104.769,47.673,104.627,47.284,104.479
	 M47.934,100.256c-0.122-0.05-0.252-0.095-0.345-0.118c-0.176,0.439-0.352,0.878-0.529,1.317c0.059,0.032,0.17,0.086,0.305,0.141
	c0.534,0.216,0.963,0.065,1.133-0.36C48.675,100.796,48.495,100.481,47.934,100.256z"/>
<path fill="#FFFFFF" d="M57.371,107.009c-0.296-0.038-0.808-0.122-1.419-0.222c-0.208-0.033-0.417-0.069-0.625-0.106
	c0.026-0.194,0.05-0.39,0.076-0.584c0.191-0.003,0.419,0,0.636,0.02c0.152-1.177,0.304-2.354,0.456-3.53
	c-0.213-0.049-0.432-0.123-0.614-0.192c0.026-0.196,0.051-0.391,0.076-0.586c0.201,0.036,0.402,0.07,0.603,0.104
	c0.381,0.063,1.07,0.138,1.662,0.209c1.064,0.128,1.598,0.593,1.497,1.374c-0.062,0.484-0.429,0.886-0.917,1.019
	c0,0.006-0.001,0.011-0.002,0.016c0.557,0.18,0.794,0.677,0.731,1.169C59.44,106.399,58.838,107.189,57.371,107.009 M57.974,102.859
	c-0.204-0.025-0.385-0.044-0.551-0.06c-0.055,0.424-0.11,0.847-0.164,1.271c0.107,0.022,0.23,0.039,0.374,0.059
	c0.65,0.084,1.01-0.146,1.065-0.577C58.745,103.189,58.565,102.933,57.974,102.859z M57.578,104.834
	c-0.072-0.009-0.31-0.041-0.412-0.049c-0.059,0.454-0.117,0.909-0.176,1.364c0.107,0.03,0.284,0.069,0.502,0.097
	c0.621,0.078,0.97-0.181,1.027-0.62C58.581,105.147,58.192,104.913,57.578,104.834z"/>
<path fill="#FFFFFF" d="M65.097,103.061c0.003,0.783,0.005,1.566,0.007,2.351c0.006,1.336-0.714,2.013-2.026,2.018
	c-1.55-0.007-1.903-0.891-1.905-1.822c-0.003-0.845-0.006-1.689-0.008-2.534c-0.16-0.021-0.321-0.059-0.459-0.102
	c0-0.199-0.001-0.398-0.002-0.598c0.643,0.035,1.287,0.056,1.93,0.062c0.001,0.198,0.002,0.397,0.002,0.597
	c-0.167,0.042-0.356,0.062-0.525,0.071c0.003,0.825,0.005,1.65,0.008,2.476c0.001,0.617,0.2,1.066,1.016,1.066
	c0.729-0.005,1.041-0.324,1.038-1.16c-0.002-0.796-0.005-1.591-0.007-2.389c-0.175-0.009-0.364-0.027-0.525-0.068
	c-0.001-0.199-0.002-0.397-0.002-0.597c0.637-0.01,1.272-0.034,1.907-0.072c0.001,0.198,0.001,0.397,0.002,0.597
	C65.41,103,65.257,103.038,65.097,103.061"/>
<path fill="#FFFFFF" d="M73.563,102.421c-0.087-0.21-0.167-0.392-0.223-0.564c-0.244,0.064-0.489,0.127-0.733,0.187
	c0.263,1.122,0.523,2.244,0.786,3.366c0.216-0.037,0.442-0.057,0.635-0.07c0.045,0.191,0.09,0.383,0.135,0.574
	c-0.715,0.187-1.435,0.355-2.158,0.504c-0.045-0.19-0.088-0.383-0.133-0.574c0.176-0.073,0.39-0.155,0.599-0.218
	c-0.262-1.122-0.523-2.244-0.787-3.366c-0.242,0.055-0.487,0.106-0.732,0.156c0.025,0.18,0.036,0.379,0.051,0.605
	c-0.228,0.046-0.457,0.09-0.686,0.132c-0.106-0.449-0.21-0.898-0.315-1.347c1.321-0.243,2.629-0.55,3.921-0.917
	c0.106,0.448,0.21,0.897,0.316,1.347C74.013,102.299,73.789,102.361,73.563,102.421"/>
<path fill="#FFFFFF" d="M79.805,104.061c-0.472,0.193-1.069,0.39-1.288,0.47c-0.198,0.074-0.396,0.146-0.596,0.217
	c-0.076-0.182-0.152-0.362-0.228-0.544c0.164-0.097,0.363-0.207,0.562-0.297c-0.458-1.095-0.916-2.189-1.374-3.283
	c-0.21,0.063-0.437,0.106-0.63,0.135c-0.076-0.181-0.151-0.362-0.228-0.543c0.192-0.068,0.384-0.138,0.575-0.209
	c0.362-0.134,0.923-0.38,1.487-0.615c1.406-0.586,2.526-0.398,3.193,1.196C81.93,102.143,81.287,103.452,79.805,104.061
	 M78.333,100.147c-0.202,0.083-0.389,0.166-0.525,0.236c0.426,1.019,0.853,2.037,1.279,3.055c0.13-0.028,0.317-0.087,0.486-0.157
	c0.862-0.355,1.268-1.122,0.818-2.195C79.982,100.11,79.368,99.715,78.333,100.147z"/>
<path fill="#FFFFFF" d="M83.359,102.378c-0.098-0.171-0.193-0.342-0.29-0.513c0.149-0.118,0.333-0.255,0.519-0.37
	c-0.585-1.032-1.17-2.065-1.755-3.098c-0.199,0.09-0.417,0.165-0.604,0.218c-0.098-0.171-0.193-0.342-0.29-0.513
	c0.992-0.511,1.966-1.062,2.915-1.65c0.203,0.359,0.406,0.718,0.609,1.077c-0.2,0.124-0.399,0.246-0.602,0.367
	c-0.115-0.144-0.228-0.28-0.309-0.394c-0.283,0.169-0.568,0.334-0.856,0.496c0.216,0.38,0.431,0.76,0.646,1.14
	c0.23-0.13,0.459-0.262,0.688-0.396c-0.049-0.131-0.092-0.267-0.122-0.394c0.174-0.103,0.347-0.205,0.518-0.312
	c0.244,0.429,0.486,0.858,0.729,1.286c-0.173,0.105-0.347,0.209-0.521,0.312c-0.097-0.085-0.188-0.201-0.271-0.304
	c-0.229,0.134-0.457,0.266-0.688,0.396c0.234,0.411,0.467,0.822,0.7,1.234c0.29-0.163,0.578-0.33,0.864-0.5
	c-0.07-0.151-0.128-0.313-0.19-0.497c0.203-0.12,0.404-0.243,0.604-0.367c0.212,0.374,0.424,0.747,0.635,1.121
	C85.335,101.312,84.357,101.864,83.359,102.378"/>
<path fill="#FFFFFF" d="M91.384,97.044c-0.121-0.154-0.242-0.31-0.361-0.464c0.093-0.117,0.221-0.272,0.34-0.392
	c-0.451-0.424-0.901-0.846-1.352-1.269c-0.328-0.303-0.574-0.533-0.743-0.715c-0.004,0.003-0.008,0.006-0.011,0.009
	c0.15,0.313,0.311,0.633,0.451,1.018c0.305,0.814,0.608,1.628,0.909,2.439c-0.247,0.197-0.496,0.393-0.748,0.583
	c-0.664-0.448-1.33-0.897-1.997-1.351c-0.357-0.233-0.725-0.515-1.035-0.804c-0.004,0.004-0.008,0.006-0.012,0.009
	c0.207,0.31,0.373,0.62,0.548,0.914c0.306,0.521,0.612,1.041,0.917,1.562c0.146-0.085,0.326-0.171,0.463-0.234
	c0.121,0.155,0.242,0.31,0.363,0.466c-0.497,0.36-1.001,0.711-1.515,1.05c-0.121-0.156-0.244-0.313-0.366-0.47
	c0.071-0.082,0.176-0.188,0.273-0.262c-0.569-1.05-1.142-2.1-1.714-3.151c-0.188,0.114-0.396,0.213-0.577,0.29
	c-0.12-0.155-0.241-0.311-0.361-0.465c0.515-0.348,1.022-0.705,1.522-1.076c0.739,0.5,1.478,0.999,2.212,1.495
	c0.309,0.204,0.582,0.414,0.85,0.648c0.005-0.003,0.008-0.006,0.012-0.009c-0.176-0.343-0.283-0.61-0.416-0.969
	c-0.3-0.844-0.603-1.688-0.907-2.534c0.478-0.393,0.944-0.796,1.403-1.209c0.121,0.156,0.241,0.31,0.361,0.465
	c-0.117,0.156-0.265,0.335-0.42,0.489c0.885,0.809,1.767,1.615,2.647,2.421c0.096-0.077,0.223-0.152,0.321-0.203
	c0.122,0.156,0.244,0.313,0.366,0.47C92.343,96.223,91.868,96.639,91.384,97.044"/>
<path fill="#FFFFFF" d="M102.207,83.645c-0.779,0.028-1.563,0.054-2.352,0.075c-0.022,0.038-0.044,0.077-0.065,0.115
	c0.395,0.217,0.79,0.436,1.186,0.653c0.081-0.112,0.179-0.242,0.287-0.35c0.174,0.097,0.349,0.192,0.522,0.288
	c-0.326,0.592-0.667,1.175-1.021,1.749c-0.172-0.094-0.344-0.188-0.517-0.283c0.068-0.179,0.154-0.39,0.252-0.586
	c-1.039-0.571-2.078-1.144-3.117-1.716c-0.124,0.181-0.272,0.356-0.405,0.499c-0.173-0.094-0.345-0.188-0.517-0.284
	c0.1-0.161,0.198-0.323,0.296-0.486c0.098-0.162,0.42-0.766,0.711-1.295c0.524-0.951,1.159-1.399,2.04-0.914
	c0.599,0.33,0.834,0.991,0.636,1.673c0.145-0.021,0.293-0.039,0.43-0.046c0.464-0.033,0.926-0.067,1.386-0.104
	c0.081-0.112,0.184-0.255,0.283-0.392c0.176,0.098,0.353,0.194,0.528,0.292C102.588,82.907,102.399,83.277,102.207,83.645
	 M98.094,82.485c-0.064,0.113-0.125,0.238-0.159,0.328c0.414,0.229,0.828,0.457,1.243,0.685c0.039-0.053,0.105-0.158,0.176-0.286
	c0.279-0.502,0.183-0.948-0.219-1.168C98.72,81.815,98.386,81.956,98.094,82.485z"/>
<path fill="#FFFFFF" d="M104.479,78.571c-0.183-0.071-0.365-0.143-0.549-0.214c0.026-0.154,0.061-0.351,0.104-0.514
	c-0.205-0.004-0.41-0.009-0.615-0.013c-0.206,0.562-0.423,1.117-0.652,1.668c0.155,0.134,0.31,0.267,0.465,0.399
	c0.078-0.148,0.187-0.317,0.271-0.448c0.184,0.071,0.366,0.143,0.55,0.214c-0.232,0.571-0.478,1.138-0.734,1.699
	c-0.184-0.071-0.366-0.143-0.55-0.214c0.016-0.119,0.048-0.263,0.093-0.377c-1.116-0.973-2.241-1.946-3.374-2.925
	c0.146-0.357,0.286-0.718,0.421-1.079c1.5,0.036,2.99,0.069,4.472,0.1c0.046-0.114,0.118-0.242,0.188-0.34
	c0.184,0.071,0.366,0.143,0.55,0.214C104.918,77.357,104.706,77.967,104.479,78.571 M101.372,77.753
	c-0.277-0.007-0.528-0.025-0.807-0.072c-0.001,0.002-0.002,0.006-0.002,0.008c0.216,0.146,0.454,0.316,0.673,0.512
	c0.313,0.272,0.624,0.545,0.935,0.818c0.167-0.41,0.328-0.821,0.482-1.235C102.227,77.774,101.8,77.763,101.372,77.753z"/>
<path fill="#FFFFFF" d="M102.911,66.326c0.814,0.55,1.621,1.1,2.422,1.646c0.329,0.043,0.659,0.085,0.989,0.129
	c0.04-0.216,0.101-0.436,0.155-0.619c0.195,0.025,0.39,0.05,0.586,0.074c-0.076,0.735-0.17,1.467-0.283,2.196
	c-0.195-0.024-0.391-0.05-0.585-0.075c-0.007-0.191-0.009-0.419,0.006-0.638c-0.33-0.042-0.659-0.085-0.989-0.127
	c-0.912,0.32-1.831,0.641-2.756,0.959c-0.026,0.107-0.083,0.262-0.132,0.366c-0.197-0.025-0.395-0.051-0.592-0.076
	c0.111-0.614,0.209-1.232,0.293-1.85c0.197,0.025,0.395,0.051,0.592,0.075c0.018,0.142,0.019,0.289,0.013,0.437
	c0.342-0.105,0.682-0.212,1.021-0.317c0.237-0.074,0.477-0.151,0.71-0.203c0.001-0.007,0.002-0.015,0.003-0.021
	c-0.227-0.124-0.45-0.271-0.654-0.4c-0.295-0.189-0.591-0.379-0.887-0.569c-0.032,0.15-0.071,0.3-0.123,0.426
	c-0.197-0.025-0.395-0.051-0.592-0.076c0.071-0.601,0.131-1.203,0.177-1.806c0.197,0.025,0.395,0.051,0.592,0.075
	C102.897,66.053,102.914,66.201,102.911,66.326"/>
<path fill="#FFFFFF" d="M20.734,76.823c-0.468-1.427,0.206-2.424,1.653-2.9c1.544-0.509,2.81,0.217,3.223,1.471
	c0.409,1.244-0.048,2.37-1.647,2.896C22.421,78.798,21.15,78.089,20.734,76.823 M24.773,75.577
	c-0.212-0.645-0.921-1.071-1.972-0.724c-0.99,0.325-1.506,0.925-1.229,1.763c0.199,0.608,0.884,1.104,2.005,0.733
	C24.616,77.009,25.038,76.379,24.773,75.577z"/>
<path fill="#FFFFFF" d="M40.465,100.731c-0.597,0.064-1.226-0.066-1.819-0.437c-0.859-0.533-0.919-1.286-0.488-1.98
	c0.341-0.547,0.851-0.706,1.356-0.786c-0.101-0.582-0.04-0.927,0.132-1.204c0.377-0.604,1.102-0.818,1.818-0.373
	c0.654,0.408,0.814,1.046,0.469,1.597c-0.298,0.479-0.759,0.629-1.229,0.709c0.03,0.268,0.348,1.16,0.424,1.466
	c0.248-0.125,0.476-0.324,0.632-0.561c-0.108-0.088-0.218-0.188-0.292-0.274l0.367-0.591l1.483,0.922L42.95,99.81
	c-0.128-0.028-0.284-0.094-0.429-0.163c-0.292,0.356-0.665,0.654-1.075,0.845c0.029,0.132,0.181,0.466,0.213,0.578
	c0.127,0.1,0.276,0.234,0.367,0.332l-0.377,0.606l-0.95-0.593L40.465,100.731 M39.733,98.316c-0.277,0.045-0.548,0.137-0.701,0.383
	c-0.192,0.307-0.137,0.673,0.222,0.896c0.272,0.169,0.568,0.229,0.86,0.215C39.954,99.283,39.817,98.773,39.733,98.316z M41,96.627
	c-0.186-0.114-0.406-0.077-0.542,0.142c-0.078,0.128-0.087,0.359-0.015,0.726c0.289-0.038,0.538-0.121,0.677-0.346
	C41.237,96.961,41.216,96.763,41,96.627z"/>
<path fill="#FFFFFF" d="M51.744,105.979c-1.453-0.374-1.926-1.482-1.547-2.956c0.407-1.573,1.702-2.246,2.978-1.917
	c1.27,0.329,1.969,1.319,1.548,2.95C54.317,105.627,53.035,106.312,51.744,105.979 M52.878,101.908
	c-0.656-0.17-1.398,0.196-1.674,1.268c-0.26,1.011-0.035,1.767,0.819,1.986c0.62,0.161,1.407-0.148,1.702-1.289
	C53.998,102.813,53.696,102.12,52.878,101.908z"/>
<path fill="#FFFFFF" d="M68.074,107.13c-0.396,0.048-0.784,0.05-1.126,0.013l-0.157-1.302l0.715-0.086
	c0.062,0.205,0.113,0.396,0.148,0.562c0.103,0.009,0.235,0.006,0.344-0.005c0.506-0.063,0.85-0.303,0.796-0.75
	c-0.113-0.932-2.168-0.229-2.366-1.854c-0.104-0.867,0.495-1.549,1.651-1.688c0.368-0.043,0.689-0.048,1.039-0.017l0.15,1.251
	l-0.716,0.087c-0.058-0.184-0.111-0.383-0.146-0.547c-0.06,0-0.169-0.002-0.255,0.009c-0.55,0.066-0.78,0.345-0.737,0.691
	c0.106,0.873,2.181,0.285,2.367,1.815C69.894,106.228,69.246,106.986,68.074,107.13"/>
<path fill="#FFFFFF" d="M95.448,93.346c-1.023,1.096-2.222,0.981-3.333-0.058c-1.186-1.107-1.157-2.564-0.258-3.526
	c0.894-0.958,2.099-1.096,3.326,0.052C96.369,90.921,96.357,92.372,95.448,93.346 M92.419,90.407
	c-0.461,0.493-0.496,1.319,0.313,2.074c0.76,0.71,1.532,0.874,2.133,0.23c0.437-0.467,0.543-1.305-0.317-2.11
	C93.749,89.857,92.994,89.79,92.419,90.407z"/>
<path fill="#FFFFFF" d="M96.853,86.024c-0.208-0.098-0.391-0.192-0.558-0.286c-0.13,0.122-0.238,0.231-0.336,0.369
	c-0.479,0.668-0.21,1.416,0.586,1.988c0.845,0.608,1.583,0.629,2.225-0.264c0.209-0.288,0.364-0.644,0.443-0.965l0.742,0.464
	c-0.127,0.401-0.326,0.814-0.593,1.187c-0.922,1.28-2.105,1.382-3.298,0.523c-1.295-0.931-1.684-2.222-0.706-3.581
	c0.214-0.297,0.478-0.589,0.765-0.84l1.146,0.825L96.853,86.024"/>
<path fill="#FFFFFF" d="M102.957,72.028c-0.229-0.013-0.435-0.033-0.623-0.059c-0.078,0.159-0.136,0.303-0.178,0.465
	c-0.201,0.797,0.321,1.396,1.274,1.636c1.008,0.256,1.702,0.004,1.972-1.061c0.087-0.346,0.103-0.731,0.058-1.059l0.86,0.158
	c0.029,0.42-0.004,0.877-0.116,1.32c-0.389,1.53-1.451,2.057-2.875,1.696c-1.545-0.392-2.38-1.452-1.969-3.074
	c0.09-0.352,0.228-0.721,0.403-1.059l1.368,0.346L102.957,72.028"/>
</svg>
